<?xml version="1.0" encoding="utf-8"?>
<!-- Generator: Adobe Illustrator 23.0.2, SVG Export Plug-In . SVG Version: 6.00 Build 0)  -->
<svg version="1.1" id="Capa_1" xmlns="http://www.w3.org/2000/svg" xmlns:xlink="http://www.w3.org/1999/xlink" x="0px" y="0px"
	 viewBox="0 0 1920 1080" style="enable-background:new 0 0 1920 1080;" xml:space="preserve">
<style type="text/css">
	.st0{fill:#F4A08C;}
	.st1{fill:#66CCCC;}
	.st2{fill:#FFFFFF;}
	.st3{fill:#CC6750;}
</style>
<g>
	<g>
		<g>
			<path class="st0" d="M1388.3,356c18.1-8.5,36.8-16,53.3-27.3c11.1-7.6,22.7-17.3,36.1-15.6c5.7,0.7,10.9,3.5,15.8,6.4
				c34.1,19.7,66.2,44.9,104.5,54.1c4.5,1.1,9.2,2,13.1,4.5c10,6.5,10.8,20.7,10.5,32.6c-22.7,6.5-45.4,13-68.1,19.5
				c-13.3,3.8-28.4,9.2-33.3,22.1c-4.5,11.8,1.6,25,0.4,37.6c-1.5,15.7-13.7,27.9-22.9,40.8c-16.3,22.6-24.4,49.9-32.2,76.6
				c-8.5,28.9-17.9,38.6-10.9,64c1.4,5.2-60.8,7.9-67-2c-4-6.3-16.1-20.2-22-24.9c-4.5-3.6-9.9-6.1-14.4-9.7
				c-13.8-11-17.7-31.7-10.9-48c2.4-5.7,5.9-10.8,8.1-16.6c5.1-13.1,3.1-28.1-2.5-40.9c-5.6-12.9-14.5-23.9-23.6-34.6
				c-10-11.8-20.3-23.3-30.9-34.6c-5.3-5.6-10.6-11.2-16.1-16.7c-5.3-5.3-12.3-8.4-7.8-14.5c3.5-4.9,13.3-9,18.3-12.4
				c6.4-4.3,12.7-8.5,19.1-12.7c12.8-8.4,25.8-16.5,39-24.3C1358.4,371.1,1373.2,363.2,1388.3,356z"/>
		</g>
	</g>
	<g>
		<g>
			<path class="st1" d="M1501.3,433c-0.5,0-0.9-0.2-1.2-0.6c-1.1-1.6-2.9-4.3-4.7-7c-1.8-2.7-3.6-5.5-4.7-7.1
				c-2.3-3.4-5.2-7.6-5.2-12.5c0-2.1,0.5-4.2,1-6.1c0.1-0.6,0.3-1.2,0.4-1.7c1.8-8,0.7-16.6-0.5-24.9c-1.2-8.8-2.5-18-0.2-26.8
				c1.5-5.7,4.3-10.9,7-15.9c3.1-5.7,6.1-11.1,7.2-17.2c0.4-2,0.5-4,0.7-6.2c0.2-2.3,0.4-4.7,0.8-7.1c0.3-1.7,0.6-3.4,0.9-5.2
				c1.3-7.5,2.7-16.1,7.9-21.5c6.8-7.1,13-11.7,19.5-14.3c4.9-2,10.2-2.8,15.2-3.7c4.7-0.8,9.6-1.6,14.1-3.3c2.9-1.1,4.8-2.3,6-3.8
				c1.7-2.1,2.2-5.1,2.7-7.8c0.7-3.8-1.2-10.1-3.5-18c-3.9-13.3-9.3-31.5-6.7-51.9c0.1-0.8,0.8-1.4,1.7-1.3c0.8,0.1,1.4,0.8,1.3,1.7
				c-2.5,19.8,2.7,37.7,6.6,50.7c2.4,8.3,4.4,14.9,3.6,19.4c-0.5,2.8-1.1,6.4-3.2,9.1c-2,2.6-5.1,4-7.3,4.8
				c-4.7,1.8-9.8,2.6-14.7,3.5c-4.9,0.8-10,1.7-14.6,3.5c-6.1,2.4-12,6.7-18.5,13.6c-4.6,4.8-5.9,12.5-7.2,20
				c-0.3,1.8-0.6,3.6-1,5.3c-0.4,2.2-0.6,4.4-0.8,6.7c-0.2,2.1-0.3,4.3-0.7,6.5c-1.2,6.5-4.4,12.4-7.5,18.1
				c-2.7,4.9-5.4,9.9-6.8,15.2c-2.1,8.3-1,16.7,0.3,25.7c1.2,8.5,2.4,17.4,0.4,26c-0.1,0.6-0.3,1.2-0.4,1.8
				c-0.5,1.9-0.9,3.6-0.9,5.4c0.1,4,2.6,7.8,4.7,10.8c1.1,1.6,2.9,4.4,4.7,7.1c1.8,2.7,3.6,5.4,4.7,7c0.5,0.7,0.3,1.6-0.4,2.1
				C1501.9,433,1501.6,433,1501.3,433z"/>
		</g>
	</g>
	<g>
		<g>
			<path class="st1" d="M1378.2,872.7c-1.3,0-2.6-0.7-3.2-2c-18.9-36.4-40.8-50.1-58.3-61.2c-8.4-5.3-15.6-9.8-21.4-15.9
				c-6.9-7.2-12.8-13.9-16.7-22.4c-4.5-9.9-5.3-20.7-6-31.2c-0.3-4.1-0.6-8.3-1.1-12.3c-0.3-2.6-0.7-5.2-1.1-7.7
				c-0.9-6.2-1.8-12.7-2.2-19.2c-0.7-10.6,0.3-21.2,2.7-29.2c4.1-13.9,7.8-25.7,14.4-40.5c3.8-8.5,7.3-17.4,8.9-22.7
				c4.5-14.7,1.2-24.4-4.7-38.6c-1.7-4.1-3.5-8.4-6.4-11.6c-2.9-3.2-7-5.3-10.9-7.2c-8.9-4.3-18.2-8-27.7-10.9
				c-9.5-3-18.4-9.6-26.2-15.4c-8.2-6.1-15.9-11.9-21.3-11.1c-2,0.3-3.9-1.1-4.2-3.1c-0.3-2,1.1-3.9,3.1-4.2
				c8.5-1.3,17,5.1,26.9,12.5c7.7,5.7,15.6,11.7,23.9,14.3c9.8,3.1,19.5,6.9,28.7,11.3c4.4,2.1,9.4,4.7,13.2,8.9
				c3.7,4.1,5.9,9.2,7.7,13.7c6.2,14.9,10.2,26.7,5,43.7c-1.7,5.6-5.3,14.6-9.2,23.5c-6.4,14.3-10,25.9-14,39.6
				c-2.1,7.2-3,16.9-2.4,26.7c0.4,6.2,1.3,12.5,2.2,18.6c0.4,2.6,0.7,5.2,1.1,7.8c0.5,4.2,0.9,8.6,1.2,12.7
				c0.7,10.3,1.4,19.9,5.4,28.6c3.4,7.4,9,13.6,15.4,20.4c5.1,5.4,12,9.7,19.9,14.7c18.3,11.5,41.1,25.8,60.9,64
				c0.9,1.8,0.2,4-1.6,5C1379.4,872.5,1378.8,872.7,1378.2,872.7z"/>
		</g>
	</g>
	<g>
		<g>
			<path class="st1" d="M1378.3,927.7c2.6-8.4,4.7-17.2,5.6-26.1c3.9-41-15.3-79.8-51.4-103.9c-9.9-6.6-23.3-16.8-30.9-27.9
				c-4.1-6.1-6-13.5-7.2-19.3c-10.3-50.3,8.7-100.3,32.6-155.8c2.6-6,5.3-12.2,8.3-18c11.3-21.5,29.6-40.9,54.2-57.5
				c3.8-2.6,7.8-5.1,11.6-7.5c9.3-5.9,18.9-12,27.3-19.6c7-6.3,13.3-13.6,19.4-20.7c12.2-14.3,23.8-27.8,40.4-33
				c8.7-2.7,17.9-2.8,27.7-2.8c1.9,0,3.8,0,5.7-0.1c37.7-0.6,75.5-10,109.1-27.1c1.9-1,3.8-1.9,5.6-2.9c7.1-3.8,13.9-7.3,21.2-9.5
				c9.2-2.8,18.7-4.2,28.1-4.1c39.3,0.4,62.4-3.2,82.7-6.4c28.6-4.5,51.1-8,106,2.3c2,0.4,3.9-0.9,4.3-3c0.4-2-0.9-3.9-3-4.3
				c-56.2-10.5-79.3-6.9-108.5-2.3c-20.1,3.1-42.8,6.7-81.5,6.3c-10.2-0.1-20.4,1.4-30.4,4.5c-8,2.5-15.3,6.3-22.5,10.1
				c-1.8,1-3.7,1.9-5.6,2.9c-32.6,16.6-69.2,25.7-105.9,26.3c-1.9,0-3.8,0-5.6,0.1c-9.9,0.1-20.1,0.1-29.8,3.1
				c-18.7,5.8-31.5,20.8-43.9,35.2c-5.9,6.9-12.1,14.1-18.7,20c-8,7.2-17.3,13.1-26.4,18.8c-3.9,2.5-7.9,5-11.8,7.7
				c-25.6,17.3-44.6,37.6-56.6,60.2c-3.2,6.1-5.9,12.4-8.6,18.6c-24.4,56.6-43.7,107.8-33,160.1c1.3,6.5,3.5,14.8,8.3,22
				c8.2,12.1,22.4,23,32.9,30c33.8,22.5,51.8,58.8,48.2,97c-0.8,8.2-2.4,16.9-5.3,24.8C1368,934.4,1375.8,935.6,1378.3,927.7z"/>
		</g>
	</g>
	<g>
		<path class="st2" d="M1322.4,401l7.6,0.1c1.7,0,3,0.4,3.9,1.1s1.3,1.7,1.3,2.9c0,0.9-0.3,1.6-0.9,2.3c-0.6,0.6-1.4,1.1-2.5,1.3
			c1.3,0.2,2.2,0.6,2.9,1.3c0.6,0.7,0.9,1.5,0.9,2.6c0,1.3-0.5,2.3-1.5,3.1c-1,0.7-2.4,1.1-4.2,1.1l-7.5-0.1L1322.4,401z
			 M1326.6,414l2.2,0c0.8,0,1.4-0.1,1.8-0.5s0.6-0.8,0.6-1.5c0-0.7-0.2-1.2-0.6-1.5c-0.4-0.3-1-0.5-1.8-0.5l-2.2,0L1326.6,414z
			 M1326.6,407.4l2.1,0c1.4,0,2.1-0.6,2.1-1.8c0-1.2-0.7-1.9-2.1-1.9l-2.1,0L1326.6,407.4z"/>
		<path class="st2" d="M1336.5,411.2l0-0.3c0-1.7,0.6-3.1,1.7-4.2c1.1-1.1,2.6-1.6,4.3-1.6c1.8,0,3.2,0.6,4.3,1.7
			c1.1,1.1,1.6,2.5,1.6,4.2l0,0.3c0,1.7-0.6,3.1-1.7,4.2c-1.1,1.1-2.6,1.6-4.3,1.6c-1.8,0-3.2-0.6-4.3-1.7
			C1337,414.3,1336.5,412.9,1336.5,411.2z M1344.4,411.3l0-0.4c0-2.3-0.6-3.5-1.8-3.5c-1.3,0-1.9,1.1-1.9,3.4l0,0.4
			c0,2.3,0.6,3.5,1.9,3.5C1343.7,414.8,1344.4,413.6,1344.4,411.3z"/>
		<path class="st2" d="M1350.1,401.3l3.9,0l-0.2,15.5l-3.9,0L1350.1,401.3z"/>
		<path class="st2" d="M1355.5,414.6l5.3-6.5l-5-0.1l0-2.4l9.5,0.1l0,2.3l-5.3,6.5l5.2,0.1l0,2.5l-9.8-0.1L1355.5,414.6z"/>
		<path class="st2" d="M1366.1,413.9c0-1.1,0.5-2,1.3-2.7c0.9-0.7,2.7-1.1,5.4-1.1l0.4,0l0-0.4c0-1.1-0.5-1.6-1.4-1.6
			c-0.8,0-1.3,0.4-1.6,1.3l-3.5-0.5c0.2-1.1,0.8-1.9,1.6-2.5c0.9-0.6,2-0.9,3.4-0.9c3.6,0,5.3,1.7,5.3,5l-0.1,6.7l-3.8,0l0-1.7
			c-0.7,1.3-1.8,1.9-3.4,1.9c-1.1,0-2-0.3-2.7-1C1366.4,415.7,1366.1,414.9,1366.1,413.9z M1373.1,412.9l0-1l-0.1,0
			c-1.3,0.1-2.1,0.3-2.5,0.6c-0.4,0.3-0.6,0.7-0.6,1.1c0,0.4,0.1,0.7,0.4,0.9c0.2,0.2,0.6,0.4,1,0.4c0.5,0,1-0.2,1.3-0.5
			C1373,414.1,1373.1,413.6,1373.1,412.9z"/>
		<path class="st2" d="M1378.9,405.8l3.9,0l0,2c0.7-1.5,1.8-2.3,3.4-2.2c1.2,0,2.1,0.4,2.7,1.1c0.6,0.7,0.9,1.7,0.9,2.9l-0.1,7.6
			l-3.9,0l0.1-7c0-1.1-0.4-1.7-1.4-1.7c-0.5,0-1,0.2-1.3,0.5c-0.3,0.4-0.5,0.9-0.5,1.5l-0.1,6.6l-3.9,0L1378.9,405.8z"/>
		<path class="st2" d="M1391.2,411.8l0-0.3c0-1.7,0.6-3.1,1.7-4.2c1.1-1.1,2.6-1.6,4.3-1.6c1.8,0,3.2,0.6,4.3,1.7
			c1.1,1.1,1.6,2.5,1.6,4.2l0,0.3c0,1.7-0.6,3.1-1.7,4.2c-1.1,1.1-2.6,1.6-4.3,1.6c-1.8,0-3.2-0.6-4.3-1.7
			C1391.7,414.8,1391.2,413.4,1391.2,411.8z M1399,411.9l0-0.4c0-2.3-0.6-3.5-1.8-3.5c-1.3,0-1.9,1.1-1.9,3.4l0,0.4
			c0,2.3,0.6,3.4,1.9,3.5C1398.3,415.3,1399,414.2,1399,411.9z"/>
	</g>
	<g>
		<g>
			<path class="st3" d="M1463.1,714.2c-0.2,0-0.3-0.1-0.4-0.3c-1.9-6.3-4.4-12.5-6.9-18.5c-1.9-4.7-3.9-9.6-5.6-14.5
				c-4.6-13.7-5.6-25.1-3-34.9c1-3.7,2.5-7.2,4-10.7c0.6-1.5,1.3-3.1,1.9-4.6c5.2-13.1,7.2-27.5,5.8-41.5c-0.2-2.1-0.5-4.2-0.8-6.3
				c-0.6-4-1.1-8.2-1.1-12.3c0-15.1,7.3-28.8,14.3-42c2.9-5.4,5.8-11,8.3-16.6c2.2-5,4.7-11.7,4.3-18.5c-0.3-6-2.8-11.5-5.1-16.9
				l-14.7-33.9c-2.7-1.9-4.7-6.2-5.7-9.5c-5-16.6-11.7-53-8.7-55.2c2.7-1.4,6.6-1,10.5-0.7c3.5,0.3,7.2,0.6,9.6-0.4
				c2.5-1.1,3.5-8.9,3.9-12.2l0.1-0.6c0.6-4.9,1.6-8.9,2.6-12.8c1.8-7.2,3.3-13.3,1.8-22.4c-0.2-1-0.4-2-0.6-3.1
				c-1-5.2-2-10.6-0.2-15.5c1.2-3.3,3.4-6,5.6-8.6c0.7-0.9,1.5-1.7,2.2-2.6c3.9-5,6.6-10.7,9.5-17.1c1.8-4,3.8-8.6,7.7-11.3
				c0.2-0.1,0.4-0.1,0.5,0.1c0.1,0.2,0.1,0.4-0.1,0.5c-3.7,2.6-5.7,7.1-7.5,11c-2.9,6.5-5.6,12.2-9.5,17.3c-0.7,0.9-1.4,1.8-2.2,2.6
				c-2.2,2.6-4.4,5.2-5.5,8.3c-1.7,4.8-0.7,10,0.2,15.1c0.2,1,0.4,2.1,0.6,3.1c1.5,9.2,0,15.4-1.8,22.7c-0.9,3.9-1.9,7.9-2.6,12.7
				l-0.1,0.6c-0.5,3.7-1.4,11.5-4.3,12.8c-2.6,1.1-6.3,0.8-10,0.5c-3.7-0.3-7.6-0.6-10,0.6c-2.2,1.7,3.5,36.3,9,54.4
				c0.9,3.1,2.9,7.4,5.5,9.2l0.1,0.1l0,0.1l14.8,34c2.3,5.2,4.8,11.1,5.2,17.2c0.4,7-2.1,13.8-4.3,18.9c-2.4,5.6-5.4,11.2-8.3,16.6
				c-7,13.2-14.3,26.8-14.3,41.7c0,4.1,0.6,8.2,1.1,12.2c0.3,2.1,0.6,4.2,0.8,6.3c1.4,14.1-0.6,28.6-5.8,41.8
				c-0.6,1.6-1.3,3.1-1.9,4.7c-1.5,3.4-3,6.9-3.9,10.6c-2.6,9.7-1.6,21,3,34.5c1.7,4.9,3.7,9.8,5.6,14.5c2.5,6,5,12.2,6.9,18.6
				c0.1,0.2-0.1,0.4-0.2,0.5C1463.2,714.2,1463.1,714.2,1463.1,714.2z"/>
		</g>
		<g>
			<path class="st3" d="M1444.1,547.5c-13.5-0.1-27.1-1.2-40.4-3.1c-3.7-0.5-7.7-1.2-11.4-2.6c-7.4-2.8-13.1-8.6-17.2-13.2
				c-10.4-11.8-18.3-25.8-25.9-39.2c-3.8-6.7-8.7-14.7-13.5-22.3c-4.8-7.7-9.8-15.7-13.6-22.4c-0.1-0.2,0-0.4,0.1-0.5
				c0.2-0.1,0.4,0,0.5,0.1c3.8,6.7,8.7,14.7,13.5,22.4c4.8,7.7,9.7,15.7,13.5,22.4c7.6,13.4,15.5,27.3,25.8,39.1
				c4.1,4.6,9.6,10.2,16.9,13c3.6,1.4,7.5,2,11.2,2.5c19.5,2.8,39.3,3.7,59,2.7c0.2,0,0.4,0.1,0.4,0.4c0,0.2-0.1,0.4-0.4,0.4
				C1456.6,547.4,1450.3,547.5,1444.1,547.5z"/>
		</g>
		<g>
			<path class="st3" d="M1196.3,550.5c-0.1,0-0.1,0-0.2,0c-0.2-0.1-0.3-0.3-0.2-0.5l15.1-29.3c2.4-4.6,5.1-9.9,9.3-13.6
				c6.7-5.8,15.8-6.8,24.6-7.8c7.1-0.8,14.4-1.6,20.5-4.8c8.7-4.6,13.9-13.3,19-21.8c4.4-7.3,8.9-14.8,15.7-19.9
				c9-6.8,20.7-8.5,31-10l185.1-27.1c5.1-0.7,10.9-1.6,15.5-4.5c3-1.9,5.4-4.6,7.8-7.3l25.2-28.4c2.6-2.9,5.8-6.6,10.2-7.7
				c4.6-1.1,9.1,0.7,13.5,2.5c0.8,0.3,1.6,0.7,2.4,1c10.6,4.1,22.5,4.7,33.5,1.4c4.7-1.4,10.6-0.3,17.4,3.3l2.8,1.5
				c5.1,2.7,10.3,5.4,15.4,8.4c13.4,7.8,36.5,15.6,49,19.8c1.6,0.6,3.1,1,4.2,1.4c0.2,0.1,0.3,0.3,0.2,0.5c-0.1,0.2-0.3,0.3-0.5,0.2
				c-1.2-0.4-2.6-0.9-4.2-1.4c-12.5-4.2-35.7-12-49.1-19.9c-5-2.9-10.3-5.7-15.4-8.3l-2.8-1.5c-6.7-3.5-12.3-4.6-16.9-3.3
				c-11.1,3.3-23.2,2.8-34-1.4c-0.8-0.3-1.6-0.6-2.4-1c-4.3-1.8-8.7-3.6-13-2.5c-4.2,1-7.3,4.6-9.9,7.4l-25.2,28.4
				c-2.4,2.7-4.8,5.4-7.9,7.4c-4.8,3-10.6,3.9-15.8,4.6l-185.1,27.1c-10.2,1.5-21.8,3.2-30.7,9.9c-6.6,5-11.1,12.5-15.5,19.7
				c-5.2,8.5-10.5,17.4-19.3,22.1c-6.3,3.3-13.6,4.1-20.8,4.9c-9.1,1-17.6,2-24.2,7.6c-4.1,3.6-6.8,8.8-9.2,13.4l-15.1,29.3
				C1196.5,550.4,1196.4,550.5,1196.3,550.5z"/>
		</g>
		<g>
			<path class="st3" d="M1322.2,646.3c-0.1,0-0.1,0-0.2,0c-0.2-0.1-0.3-0.3-0.2-0.5l43.6-88.8c5-10.2,10.1-20.7,18-29.2
				c9-9.7,20.8-16,32.2-22.1l88.9-47.5c10-5.3,20.3-10.9,31.7-13.4c4.7-1,9.5-1.5,14.2-2c3-0.3,6-0.6,9-1.1
				c16.2-2.4,31.7-8.9,46.7-15.1c18.2-7.5,36.9-15.3,56.8-16c4.7-0.1,9.5,0.1,14.2,0.4c7.2,0.4,14.5,0.8,21.7-0.3
				c5.6-0.9,11.2-2.7,16.6-4.4c2.6-0.8,5.3-1.7,8-2.5c14.3-4.1,29.3-5.2,43.8-6.3c0.2,0,0.4,0.1,0.4,0.3c0,0.2-0.1,0.4-0.3,0.4
				c-14.5,1.1-29.4,2.2-43.6,6.3c-2.7,0.8-5.3,1.6-7.9,2.5c-5.4,1.8-11,3.6-16.7,4.5c-7.2,1.1-14.7,0.7-21.9,0.3
				c-4.6-0.3-9.4-0.5-14.1-0.4c-19.7,0.6-38.4,8.4-56.5,15.9c-15.1,6.3-30.7,12.7-46.9,15.2c-3,0.4-6.1,0.8-9,1.1
				c-4.7,0.5-9.5,1-14.1,2c-11.2,2.5-21.5,8-31.5,13.3l-88.9,47.5c-11.3,6.1-23.1,12.3-32,22c-7.8,8.4-12.9,18.9-17.9,29l-43.6,88.8
				C1322.5,646.2,1322.4,646.3,1322.2,646.3z"/>
		</g>
		<g>
			<path class="st3" d="M1398.1,627.3c-5.7-0.1-11.6-0.7-16.9-3.2c-1.1-0.5-2.3-1-3.5-1.5c-2-0.8-4.1-1.6-5.7-2.5
				c-4.8-2.8-9.7-5.2-14.5-7.4c-5-2.4-10.2-4.8-15.3-7.9c-0.2-0.1-0.2-0.3-0.1-0.5c0.1-0.2,0.3-0.2,0.5-0.1c5,3.1,10.2,5.5,15.2,7.9
				c4.8,2.2,9.7,4.6,14.5,7.4c1.6,0.9,3.6,1.7,5.6,2.5c1.3,0.5,2.5,1,3.6,1.5c7.5,3.5,16.2,3.2,23.9,3l49.6-1.7
				c0.2,0,0.4,0.2,0.4,0.4c0,0.2-0.2,0.4-0.4,0.4l-49.6,1.7C1403.2,627.2,1400.7,627.3,1398.1,627.3z"/>
		</g>
	</g>
	<g>
		<path class="st1" d="M1545.5,225.4l0.8,3.5l-1.9,0l-2.2-9.4l1.9,0l0.8,3.5l10.8-0.2l0.5,2.3L1545.5,225.4z"/>
		<path class="st1" d="M1552.9,219.9c-0.9,0.2-1.8,0-2.6-0.6c-0.8-0.6-1.4-1.9-1.9-3.8l-0.3-1.1l-0.2,0c-0.6,0-1.1,0.2-1.4,0.5
			c-0.3,0.3-0.4,0.7-0.2,1.2c0.2,0.8,0.8,1.3,1.8,1.6l-0.1,1.9c-1.7-0.4-2.8-1.5-3.2-3.3c-0.3-1.2-0.1-2.2,0.4-2.9
			c0.6-0.7,1.4-1.1,2.6-1.1l5.4-0.1l0.5,2.1l-1.5,0c1.2,0.5,2,1.4,2.3,2.5c0.2,0.8,0.1,1.4-0.2,2
			C1554.1,219.4,1553.6,219.8,1552.9,219.9z M1550.3,214.4l-0.9,0l0.2,0.7c0.5,2.1,1.3,3,2.6,2.7c0.4-0.1,0.6-0.3,0.8-0.6
			c0.2-0.3,0.2-0.6,0.1-1c-0.1-0.6-0.5-1-1-1.4C1551.5,214.5,1550.9,214.3,1550.3,214.4z"/>
		<path class="st1" d="M1540.2,210.5l-0.5-2.1l12.7-0.2l0.5,2.1L1540.2,210.5z"/>
		<path class="st1" d="M1543,207l-0.5-2.2l6.9-2.2l-7.8-1.9l-0.5-2l9.7,2.7l0.6,2.7L1543,207z"/>
		<path class="st1" d="M1546.4,197.9c-1.4,0.3-2.7,0.2-4-0.5c-1.3-0.6-2.2-1.7-2.5-3.2c-0.2-1.1-0.1-2,0.3-2.8
			c0.4-0.8,1.2-1.3,2.2-1.5c0.5-0.1,1-0.2,1.7-0.2l1.4,6.1c0.5-0.1,0.7-0.1,0.7-0.1c1.4-0.3,2-1.1,1.7-2.4c-0.2-0.9-0.9-1.6-2.2-2.1
			l0.3-1.8c1.8,0.7,3,1.9,3.4,3.7c0.3,1.2,0.1,2.2-0.4,3C1548.3,197.1,1547.5,197.7,1546.4,197.9z M1544.1,195.9l-0.9-4.1
			c0,0-0.1,0-0.3,0c-0.1,0-0.2,0-0.3,0c-1.2,0.3-1.7,1-1.4,2.1c0.1,0.6,0.5,1,1,1.3C1542.7,195.6,1543.3,195.8,1544.1,195.9z"/>
		<path class="st1" d="M1538.7,188.3l-0.5-2.1l1.9,0c-1.5-0.4-2.4-1.4-2.7-2.8c0-0.1,0-0.2,0-0.3l2.1,0c0.1,0.4,0.1,0.7,0.1,0.7
			c0.2,0.8,0.6,1.4,1.1,1.8c0.6,0.4,1.3,0.6,2.3,0.6l4.3-0.1l0.5,2.1L1538.7,188.3z"/>
		<path class="st1" d="M1544.2,182.3c-0.9,0.2-1.8,0-2.6-0.6c-0.8-0.6-1.4-1.9-1.9-3.8l-0.3-1.1l-0.2,0c-0.6,0-1.1,0.2-1.4,0.5
			c-0.3,0.3-0.4,0.7-0.2,1.2c0.2,0.8,0.8,1.3,1.8,1.6l-0.1,1.9c-1.7-0.4-2.8-1.5-3.2-3.3c-0.3-1.2-0.1-2.2,0.4-2.9
			c0.6-0.7,1.4-1.1,2.6-1.1l5.4-0.1l0.5,2.1l-1.5,0c1.2,0.5,2,1.4,2.3,2.5c0.2,0.8,0.1,1.4-0.2,2
			C1545.4,181.8,1544.9,182.1,1544.2,182.3z M1541.6,176.7l-0.9,0l0.2,0.7c0.5,2.1,1.3,3,2.6,2.7c0.4-0.1,0.6-0.3,0.8-0.6
			c0.2-0.3,0.2-0.6,0.1-1c-0.1-0.6-0.5-1-1-1.4C1542.8,176.9,1542.3,176.7,1541.6,176.7z"/>
	</g>
	<g>
		<path class="st1" d="M1251.3,644.2l1.5-2.4l11.4,5.3l-1.3,2l-2.9-1.4l-2.5,3.9l1.8,3.2l-1.2,1.9L1251.3,644.2z M1258.4,647
			l-4.9-2.4l3,5.4L1258.4,647z"/>
		<path class="st1" d="M1261.8,644.3c-1.2-0.7-2-1.8-2.6-3.1c-0.6-1.3-0.5-2.5,0.3-3.7c0.4-0.6,0.8-0.9,1.4-1.1
			c0.6-0.2,1.2-0.2,1.8-0.1l-3.9-3.9l1.2-1.9l9.1,8.9l-1.2,1.9l-1-1c0.5,1.2,0.4,2.3-0.1,3.2c-0.5,0.7-1.1,1.2-2.1,1.3
			C1263.7,645.2,1262.8,645,1261.8,644.3z M1266.2,640.6c-0.1-0.5-0.4-1-0.8-1.6c-0.4-0.6-0.9-1-1.5-1.4c-0.6-0.4-1.2-0.6-1.7-0.5
			c-0.5,0.1-1,0.4-1.3,0.9c-0.3,0.4-0.4,0.9-0.2,1.5c0.1,0.5,0.4,1.1,0.9,1.7c0.5,0.6,1,1.1,1.6,1.5c0.6,0.4,1.1,0.5,1.6,0.4
			c0.5-0.1,0.9-0.3,1.2-0.8C1266.3,641.8,1266.3,641.2,1266.2,640.6z"/>
		<path class="st1" d="M1261.2,629.1l1.2-1.8l1.5,1.5l-1.2,1.8L1261.2,629.1z M1263.7,631.5l1.2-1.8l6.5,6.4l-1.2,1.8L1263.7,631.5z
			"/>
		<path class="st1" d="M1272.9,636c-0.9-0.6-1.1-1.6-0.5-3.1c-0.5,0.3-1,0.3-1.4,0c-0.7-0.4-0.8-1.2-0.3-2.3
			c-0.9,0.5-1.8,0.4-2.6-0.1c-0.7-0.5-1.2-1.2-1.4-2.2c-0.2-1,0.1-2.1,0.8-3.1c0.5-0.8,1.1-1.4,1.8-1.7c-0.5-0.9-0.5-1.9,0.1-2.8
			l0.1-0.1l1.1,1.1c-0.4,0.6-0.5,1.2-0.4,1.6c0.5,0,1.1,0.1,1.5,0.4c0.7,0.5,1.2,1.2,1.3,2.2c0.2,1-0.1,2.1-0.8,3.1
			c-0.2,0.3-0.4,0.6-0.6,0.8c-0.3,0.7-0.3,1.1,0,1.3c0.1,0.1,0.3,0.1,0.4,0c0.1-0.1,0.3-0.3,0.5-0.5c0.6-0.9,1.1-1.5,1.5-1.9
			c0.4-0.4,0.8-0.7,1.1-0.9c0.7-0.4,1.4-0.3,2,0.1c0.8,0.5,1.2,1.3,1.2,2.4c0,1.1-0.4,2.2-1.2,3.5c-0.7,1.2-1.5,1.9-2.2,2.3
			C1274.1,636.3,1273.5,636.3,1272.9,636z M1271.5,626.7c-0.1-0.6-0.5-1.1-1-1.4c-0.4-0.3-0.8-0.3-1.2-0.2c-0.4,0.1-0.7,0.4-1,0.8
			c-0.3,0.5-0.4,1-0.3,1.5c0.1,0.6,0.5,1.1,1,1.4c0.4,0.2,0.8,0.3,1.1,0.2c0.4-0.1,0.7-0.4,1-0.8
			C1271.5,627.7,1271.6,627.2,1271.5,626.7z M1276.4,629.8c-0.3-0.2-0.6-0.2-1,0.1c-0.4,0.2-0.9,0.8-1.5,1.8
			c-0.4,0.6-0.5,1.1-0.5,1.5s0.2,0.7,0.5,1c0.7,0.4,1.4,0,2.2-1.3c0.4-0.7,0.7-1.3,0.7-1.8C1276.9,630.4,1276.7,630.1,1276.4,629.8z
			"/>
		<path class="st1" d="M1274.5,624.5c-1.2-0.8-2-1.8-2.5-3.2c-0.5-1.4-0.3-2.7,0.5-4.1c0.6-0.9,1.3-1.5,2.2-1.7
			c0.9-0.2,1.8-0.1,2.6,0.5c0.4,0.3,0.8,0.6,1.3,1.1l-3.4,5.3c0.4,0.3,0.6,0.4,0.6,0.4c1.2,0.8,2.2,0.6,2.9-0.4
			c0.5-0.8,0.5-1.8-0.1-3l1.4-1c0.8,1.8,0.7,3.4-0.3,5c-0.6,1-1.4,1.6-2.4,1.8C1276.4,625.3,1275.4,625.1,1274.5,624.5z
			 M1274.3,621.4l2.2-3.5c0,0-0.1-0.1-0.2-0.2c-0.1-0.1-0.2-0.1-0.2-0.2c-1-0.7-1.8-0.5-2.5,0.5c-0.3,0.5-0.4,1-0.2,1.7
			C1273.5,620.2,1273.8,620.8,1274.3,621.4z"/>
	</g>
</g>
<rect class="st2" width="70" height="1080"/>
</svg>
