<?xml version="1.0" encoding="utf-8"?>
<!-- Generator: Adobe Illustrator 23.0.2, SVG Export Plug-In . SVG Version: 6.00 Build 0)  -->
<svg version="1.1" id="Capa_1" xmlns="http://www.w3.org/2000/svg" xmlns:xlink="http://www.w3.org/1999/xlink" x="0px" y="0px"
	 viewBox="0 0 1600 605" style="enable-background:new 0 0 1600 605;" xml:space="preserve">
<style type="text/css">
	.st0{fill:none;stroke:#4ABAB9;stroke-width:0.75;stroke-miterlimit:10;}
	.st1{fill:#4ABAB9;}
	.st2{opacity:7.000000e-02;}
</style>
<g>
	<g>
		<path class="st0" d="M699.3,366.1"/>
	</g>
	<g>
		<path class="st1" d="M690.3,572.4c-8.9,0-18.1-1.4-28.1-3.1l0.1-0.7c11.2,1.9,21.3,3.4,31.2,3c4.3-0.2,8.7-0.7,12.9-1.3
			c1-0.1,2.1-0.3,3.1-0.4c9.3-1.2,16.9-1.6,23.9-1.5c3.9,0.1,7.9,0.4,11.8,0.6c4.6,0.3,9.4,0.7,14.1,0.6c7.4,0,14.9-0.9,22.2-1.8
			c9-1.1,18.2-2.2,27.4-1.7c5,0.3,9.9,1,14.8,1.8c6.1,0.9,12.3,1.9,18.5,1.9h0.1c6.6,0,13.3-1.1,19.7-2.2c2.7-0.4,5.6-0.9,8.3-1.3
			c21.4-2.9,44.8-1.1,69,1.3l-0.1,0.7c-24.1-2.3-47.5-4.1-68.8-1.3c-2.8,0.4-5.6,0.8-8.3,1.3c-6.5,1.1-13.2,2.2-19.8,2.2h-0.1
			c-6.3,0-12.6-1-18.6-1.9c-4.8-0.7-9.8-1.5-14.7-1.8c-9.1-0.5-18.3,0.6-27.2,1.7c-7.3,0.9-14.8,1.8-22.3,1.8
			c-4.7,0-9.5-0.3-14.1-0.7c-3.8-0.3-7.8-0.6-11.7-0.6c-6.9-0.1-14.5,0.3-23.8,1.5c-1,0.1-2.1,0.3-3.1,0.4c-4.2,0.5-8.6,1.1-13,1.3
			C692.6,572.4,691.4,572.4,690.3,572.4z"/>
	</g>
	<g>
		<path class="st1" d="M839.9,581.4c-2.4,0-4.9-0.1-7.3-0.3c-4.6-0.4-9.2-1.2-13.7-1.9c-2.7-0.5-5.4-0.9-8.1-1.3
			c-19.6-2.7-39.7-1-59.2,0.8c-14,1.2-28.4,2.5-42.7,2.1c-5.1-0.1-10.2-0.5-15.2-0.8c-10.3-0.7-21-1.4-31.4-0.3l-0.1-0.7
			c10.5-1.2,21.2-0.4,31.6,0.3c5,0.3,10.1,0.7,15.1,0.8c14.2,0.4,28.6-0.9,42.6-2.1c19.5-1.7,39.7-3.5,59.4-0.8
			c2.7,0.4,5.5,0.9,8.1,1.3c4.5,0.8,9.1,1.6,13.6,1.9c9.5,0.8,19.1-0.2,28.5-1.1c1.9-0.2,3.8-0.4,5.8-0.6
			c18.8-1.8,43.2-2.3,72.5-1.8v0.8c-29.3-0.6-53.6,0-72.4,1.8c-1.9,0.2-3.8,0.4-5.8,0.6C854.2,580.7,847.1,581.4,839.9,581.4z"/>
	</g>
	<g>
		<path class="st1" d="M701,561.7c-5.1,0-10.4-0.6-15.6-1.2c-7.7-0.9-15.6-1.8-23-0.7l-0.1-0.7c7.5-1.1,15.5-0.2,23.2,0.7
			c5.3,0.6,10.8,1.2,16,1.2c5.6-0.1,11.3-0.9,16.7-1.7c3.5-0.5,7.1-1.1,10.7-1.4c9.9-0.9,20-0.3,29.8,0.3
			c11.6,0.7,23.7,1.5,35.3-0.4c2.4-0.4,4.9-0.9,7.3-1.4c3.6-0.7,7.3-1.5,11-1.9c8.5-0.9,17,0.3,25.3,1.4c6.9,0.9,14,1.9,21,1.7
			c6.8-0.2,13.7-1.5,20.3-2.7c8.7-1.6,17.7-3.3,26.7-2.6c3.8,0.3,7.8,1.1,11.7,1.8c7.4,1.4,15,2.9,22,1.6l0.1,0.7
			c-7.1,1.3-14.8-0.1-22.2-1.6c-4-0.8-7.9-1.5-11.6-1.8c-8.9-0.8-17.8,0.9-26.5,2.6c-6.7,1.3-13.6,2.6-20.4,2.8
			c-7.1,0.2-14.2-0.8-21.1-1.7c-8.2-1.1-16.8-2.2-25.1-1.4c-3.7,0.4-7.3,1.1-10.9,1.9c-2.4,0.5-4.9,1-7.3,1.4
			c-11.7,1.9-23.8,1.1-35.5,0.4c-9.7-0.6-19.8-1.2-29.6-0.3c-3.6,0.3-7.2,0.9-10.7,1.4c-5.5,0.8-11.2,1.7-16.8,1.7
			C701.4,561.7,701.2,561.7,701,561.7z"/>
	</g>
	<g>
		<path class="st1" d="M708.1,550.5c-6.3,0-12.7-0.8-18.9-1.5c-8.8-1.1-18-2.2-26.7-1.1l-0.1-0.7c8.8-1.1,18,0,26.9,1.1
			c8.5,1,17.3,2.1,25.7,1.2c2.6-0.3,5.3-0.8,7.8-1.2c1.7-0.3,3.5-0.7,5.3-0.9c7.6-1.1,15.5-1.2,23.1-1.2c12.7-0.1,25.9-0.1,38.9,0.9
			c1.4,0.1,2.7,0.2,4.1,0.4c4.3,0.4,8.8,0.8,13.2,0.8c5.1,0,10.3-0.6,15.3-1.2c3.1-0.4,6.3-0.7,9.5-0.9c10.1-0.7,20.4-0.1,30.3,0.4
			c8.5,0.5,17.3,1,26,0.7c4.1-0.2,8.4-0.5,12.8-0.8c13-1,26.5-2.1,38.3,1.4l-0.2,0.7c-11.6-3.5-25-2.4-38-1.4
			c-4.5,0.4-8.7,0.7-12.9,0.9c-8.7,0.3-17.5-0.2-26.1-0.7c-9.9-0.6-20.2-1.2-30.3-0.4c-3.1,0.2-6.3,0.6-9.4,0.9
			c-5,0.6-10.3,1.2-15.4,1.2c-0.1,0-0.2,0-0.3,0c-4.3,0-8.7-0.4-12.9-0.8c-1.4-0.1-2.7-0.2-4.1-0.3c-12.9-1-26.1-1-38.8-0.9
			c-7.6,0-15.4,0.1-22.9,1.2c-1.8,0.3-3.6,0.6-5.3,0.9c-2.6,0.5-5.2,1-7.9,1.3C712.7,550.4,710.4,550.5,708.1,550.5z"/>
	</g>
	<g>
		<path class="st1" d="M702.3,540.5c-2.6,0-5.2-0.1-7.8-0.2c-3.8-0.2-7.9-0.9-11.8-1.5c-6.8-1.1-13.8-2.3-20.3-1.3l-0.1-0.7
			c6.7-1,13.7,0.1,20.6,1.3c3.9,0.6,7.9,1.3,11.7,1.5c13.7,0.8,26.2-0.7,39.4-2.4c2.8-0.3,5.6-0.7,8.4-1c3.8-0.4,7.7-1,11.4-1.6
			c9.6-1.5,19.5-3,28-1.9l4.7,0.6c19.6,2.7,35.2,4.8,53.2,4.8c4.7,0,9.6-0.5,14.2-1c4.8-0.5,9.7-1,14.6-1c5.1,0,10.3,0.7,15.2,1.3
			c5.9,0.7,12,1.5,18,1.2c4.1-0.2,8.4-0.8,12.6-1.4c8.4-1.2,17.2-2.5,25.1-0.2l-0.2,0.7c-7.8-2.3-16.5-1-24.8,0.2
			c-4.2,0.6-8.5,1.3-12.7,1.4c-6.1,0.2-12.2-0.5-18.1-1.2c-5-0.6-10.1-1.3-15.1-1.3c-4.9,0-9.8,0.5-14.5,1s-9.5,1-14.3,1
			c-18.1-0.1-33.6-2.2-53.3-4.9l-4.7-0.6c-8.4-1.1-18.2,0.4-27.8,1.9c-3.8,0.6-7.7,1.2-11.5,1.6c-2.9,0.3-5.7,0.7-8.4,1
			C723.3,539.2,713.1,540.5,702.3,540.5z"/>
	</g>
	<g>
		<path class="st1" d="M900,531.7c-0.4,0-0.8,0-1.2,0c-6.5-0.1-13.1-0.7-19.5-1.4c-6.6-0.7-13.5-1.4-20.3-1.4
			c-3.4,0-6.9,0.2-10.2,0.3c-4.1,0.2-8.4,0.4-12.6,0.3c-9.6-0.3-19.2-2.2-28.5-4.1c-11.3-2.3-23-4.6-34.7-3.9
			c-8.3,0.5-16.6,2.5-24.6,4.5c-5.8,1.4-11.7,2.9-17.6,3.8c-14.5,2.2-30.4,1.1-45.8,0.1c-7.9-0.5-15.3-1-22.5-1.1V528
			c7.3,0.1,14.7,0.6,22.6,1.1c15.3,1,31.2,2.1,45.6-0.1c5.9-0.9,11.8-2.3,17.6-3.8c8-2,16.4-4,24.8-4.5c11.8-0.7,23.5,1.7,34.9,4
			c9.3,1.9,18.8,3.8,28.4,4.1c4.2,0.1,8.5-0.1,12.6-0.3c3.4-0.2,6.8-0.3,10.2-0.3c6.8,0,13.7,0.7,20.4,1.4
			c6.4,0.6,12.9,1.3,19.4,1.4c13.9,0.2,28-2.4,40.5-4.6l0.1,0.7C927.3,529.3,913.5,531.7,900,531.7z"/>
	</g>
	<g>
		<path class="st1" d="M703.8,523.3c-2.8,0-5.6-0.6-8.3-1.2l-1.3-0.3c-8.8-1.9-21.6-2.9-31.9-2.5v-0.7c10.4-0.4,23.3,0.6,32.1,2.5
			l1.3,0.3c2.8,0.6,5.7,1.3,8.6,1.2c2.8-0.1,5.5-0.8,8.2-1.5c1.3-0.3,2.6-0.7,3.8-1c3.6-0.8,7.3-1,10.9-1.3c3.2-0.2,6.4-0.4,9.6-1
			c6-1.1,11.9-3.5,17.6-5.8c8.1-3.3,16.5-6.8,25.3-6.4c6.8,0.3,13.3,2.9,19.5,5.4c3,1.2,6,2.4,9.1,3.4c8.6,2.7,18.4,3.9,30.9,3.6
			c1.3,0,2.7-0.1,4-0.1c6-0.2,12.3-0.4,18.3,0.7c1.8,0.3,3.7,0.8,5.4,1.3c1.8,0.5,3.6,0.9,5.4,1.3c9.6,1.8,19.8,0.1,29.7-1.5
			c12.7-2.1,25.9-4.3,37.5,1.3l-0.3,0.7c-11.4-5.5-23.9-3.4-37.1-1.2c-9.9,1.7-20.2,3.4-30,1.5c-1.9-0.3-3.7-0.8-5.5-1.3
			s-3.6-0.9-5.4-1.3c-5.9-1.1-12.1-0.9-18.1-0.7c-1.3,0-2.7,0.1-4,0.1c-12.6,0.3-22.5-0.9-31.1-3.6c-3.1-1-6.1-2.2-9.1-3.4
			c-6.2-2.5-12.6-5.1-19.3-5.4c-8.7-0.4-17,3-25,6.3c-5.7,2.3-11.6,4.8-17.7,5.9c-3.2,0.6-6.5,0.8-9.7,1c-3.6,0.2-7.2,0.5-10.8,1.2
			c-1.3,0.3-2.6,0.6-3.8,0.9c-2.7,0.7-5.5,1.5-8.3,1.5C704.1,523.3,703.9,523.3,703.8,523.3z"/>
	</g>
	<g>
		<path class="st1" d="M883.7,513.9c-7.1,0-14.2-1.6-21.1-3.2c-5.6-1.3-11.4-2.6-17.2-3.1c-4-0.3-8.1-0.2-12-0.1
			c-5.3,0.1-10.8,0.3-16.2-0.6c-9.8-1.6-18.5-6.4-25.1-10.5c-5.3-3.3-9.9-4.6-15-4.2c-5.7,0.4-10.4,3.3-15.4,6.4
			c-1.1,0.7-2.1,1.3-3.2,2c-7.9,4.6-17.2,5.2-26.2,5.7c-6,0.4-12.2,0.7-17.9,2.2c-2,0.5-3.9,1.2-5.8,1.8c-2.9,1-6,2.1-9.1,2.6
			c-6.2,1-12.7,0-19-1.1c-6-1-12.2-2-18.1-1.2l-0.1-0.7c6-0.9,12.3,0.2,18.3,1.2c6.2,1,12.6,2.1,18.7,1.1c3.1-0.5,6.1-1.5,9-2.5
			c1.9-0.7,3.9-1.3,5.9-1.9c5.8-1.6,12.1-1.9,18.1-2.3c9.3-0.5,18.2-1.1,25.9-5.6c1.1-0.6,2.2-1.3,3.2-2c4.9-3,9.9-6.1,15.8-6.5
			c5.2-0.4,10,1,15.4,4.3c6.5,4,15.2,8.8,24.8,10.4c5.3,0.9,10.7,0.7,16,0.6c4-0.1,8.1-0.2,12.1,0.1c5.8,0.5,11.6,1.8,17.3,3.1
			c8.1,1.9,16.5,3.8,24.9,3c3.9-0.4,7.8-1.3,11.6-2.2c5.7-1.4,11.6-2.8,17.5-2.3c2.2,0.2,4.6,0.7,7.1,1.3c5.4,1.2,11,2.4,15.4,0.3
			l0.3,0.7c-4.6,2.2-10.3,1-15.9-0.3c-2.5-0.5-4.8-1.1-7-1.3c-5.8-0.5-11.6,0.9-17.2,2.2c-3.8,0.9-7.7,1.9-11.7,2.3
			C886.4,513.8,885.1,513.9,883.7,513.9z"/>
	</g>
	<g>
		<path class="st1" d="M682.7,503.8c-7,0-14-0.7-20.4-1.3l0.1-0.7c9.5,1,20.3,2,30.4,0.8c2.7-0.3,5.4-0.8,8-1.3
			c2.9-0.5,5.8-1.1,8.8-1.4c3.1-0.4,6.3-0.5,9.3-0.6s6.1-0.2,9.1-0.6c12.4-1.4,24.9-6.4,39.5-15.7l0.4-0.3
			c4.9-3.2,10.5-6.7,16.5-6.1c2.1,0.2,4.3,1,7,2.4c3.6,1.9,7,4.4,10.2,6.7c5.3,3.9,10.7,7.9,17.1,9.3c2.8,0.6,5.7,0.7,8.5,0.9
			c2,0.1,4.2,0.2,6.2,0.4c3.3,0.4,6.6,1.4,9.8,2.3c1.9,0.5,3.8,1.1,5.7,1.5c11.7,2.7,23.9,1.6,34.5,0.4l1.6-0.2
			c5.3-0.6,10.8-1.3,16.3-0.9c3.8,0.3,7.9,1,11.8,1.7c9,1.7,18.4,3.4,26-0.4l0.3,0.7c-7.8,3.8-17.3,2.1-26.5,0.4
			c-4.1-0.7-8-1.5-11.7-1.7c-5.4-0.4-10.8,0.3-16.1,0.9l-1.6,0.2c-10.6,1.3-22.9,2.4-34.7-0.4c-1.9-0.5-3.9-1-5.8-1.6
			c-3.1-0.9-6.4-1.8-9.7-2.3c-2-0.3-4.1-0.4-6.2-0.4c-2.9-0.1-5.8-0.2-8.7-0.9c-6.6-1.5-12.1-5.5-17.4-9.4
			c-3.2-2.4-6.6-4.8-10.1-6.7c-2.6-1.3-4.7-2.1-6.7-2.3c-5.7-0.6-11,2.8-16,6l-0.4,0.3c-14.7,9.4-27.4,14.4-39.9,15.8
			c-3,0.3-6.1,0.5-9.1,0.6s-6.2,0.2-9.3,0.6c-2.9,0.3-5.9,0.9-8.8,1.4c-2.6,0.5-5.3,1-8,1.3C689.5,503.7,686.1,503.8,682.7,503.8z"
			/>
	</g>
	<g>
		<path class="st1" d="M939.2,496.6c-4.6-3.1-11.2-2.6-17.5-2.1c-2.4,0.2-4.7,0.4-6.8,0.3c-5.7,0-11.2-1.6-16.6-3.1
			c-3.1-0.9-6.2-1.7-9.4-2.3c-8.4-1.6-17.2-1.2-25.7-0.8c-10.4,0.5-21.2,0.9-31.2-2.2c-6.3-2-12-5.3-17.6-8.5
			c-5.3-3-10.8-6.2-16.6-8.1c-1.1-0.4-2.4-0.9-3.7-1.5c-3.1-1.4-6.6-3-9.1-2.7c-3.4,0.3-7.4,2-10.7,4.5c-7.3,5.6-13.6,10-22.3,14.5
			c-3.3,1.8-6.5,2.8-9.9,3.9c-1.8,0.6-3.6,1.1-5.5,1.8c-12.9,4.8-27.4,4.5-41.5,4.2c-10.9-0.3-22.2-0.5-32.6,1.6l-0.2-0.7
			c10.5-2.2,21.8-1.9,32.8-1.7c14,0.3,28.5,0.7,41.2-4.1c1.9-0.7,3.7-1.3,5.5-1.9c3.4-1.1,6.6-2.1,9.8-3.8
			c8.6-4.6,14.9-8.9,22.1-14.5c3.4-2.6,7.5-4.3,11.1-4.6c2.6-0.2,6.3,1.4,9.5,2.8c1.4,0.6,2.6,1.2,3.7,1.5c5.9,2,11.4,5.1,16.7,8.2
			c5.6,3.2,11.3,6.5,17.5,8.4c9.9,3.1,20.6,2.6,31,2.2c8.6-0.4,17.4-0.8,25.9,0.9c3.2,0.6,6.4,1.5,9.4,2.4c5.3,1.5,10.8,3,16.4,3.1
			c2.1,0,4.4-0.2,6.7-0.3c6.5-0.5,13.2-1,18,2.3L939.2,496.6z"/>
	</g>
	<g>
		<path class="st1" d="M919.3,488.2c-2,0-3.6-0.1-4.6-0.2c-4.5-0.4-8.9-1.4-13.2-2.4c-3.6-0.8-7.2-1.6-10.9-2.1
			c-5.9-0.8-12.1-0.7-18-0.6c-1.4,0-2.7,0-4.1,0.1c-15.1,0.1-34.4-1-50.2-10.7c-3.4-2.1-6.6-4.6-9.7-7c-3.7-2.8-7.4-5.8-11.5-8
			c-1.7-1-3.6-1.8-5.5-1.7c-1.8,0.1-3.5,1-5,1.9l-28.7,16c-5.4,3-10.9,6.1-16.9,8c-7.5,2.3-15.3,2.7-23,3c-8,0.4-16.4,0.8-24.5,0
			c-1.8-0.2-3.7-0.4-5.7-0.6c-8.4-0.9-17.9-2-25.3,0.8l-0.3-0.7c7.6-2.9,17.2-1.8,25.7-0.9c2,0.2,3.9,0.4,5.7,0.6
			c8.1,0.7,16.4,0.3,24.4,0c7.6-0.4,15.4-0.7,22.8-3c5.9-1.8,11.4-4.9,16.8-7.9l28.7-16c1.6-0.9,3.3-1.9,5.3-2
			c2.1-0.1,4.2,0.9,6,1.8c4.1,2.3,7.9,5.2,11.6,8.1c3.1,2.4,6.3,4.9,9.7,6.9c15.6,9.6,34.8,10.7,49.8,10.6c1.3,0,2.7,0,4.1-0.1
			c6-0.1,12.1-0.2,18.1,0.6c3.7,0.5,7.4,1.3,11,2.1c4.3,1,8.7,2,13.1,2.4c4,0.4,17.7,1,24.4-6.2l0.6,0.5
			C934.5,487.2,925.3,488.2,919.3,488.2z"/>
	</g>
	<g class="st2">
		<g>
			<path class="st0" d="M700,378.3"/>
		</g>
	</g>
	<g>
		<path class="st1" d="M905.5,479.4c-3.9,0-7.7-0.2-11.3-0.7c-3.4-0.5-6.7-1.2-10-1.9c-4.1-0.9-8.3-1.8-12.5-2.2
			c-3.4-0.4-6.8-0.4-10.1-0.5c-5.1-0.1-10.4-0.2-15.5-1.4c-16.5-3.6-29.1-17.2-39.3-28.1c-0.4-0.4-0.8-0.9-1.2-1.4
			c-1.5-1.8-3-3.5-5.2-3.5c-1.3,0-3.2,1.8-5.4,3.9c-1.8,1.8-3.9,3.7-6.3,5.4l-2.5,1.7c-5.8,4-11.3,7.7-17.9,11.1
			c-7,3.5-12.1,5.1-18.1,6.8c-3.3,1-6.6,2-10.6,3.4c-3.8,1.3-7.7,2.7-11.7,3.6c-6.4,1.4-13,1.3-19.4,1.4h-46.1v-0.8h46.1
			c6.4,0,12.9,0,19.3-1.3c4-0.8,7.9-2.2,11.6-3.6c4-1.4,7.4-2.4,10.6-3.4c6-1.8,11.1-3.3,18-6.8c6.6-3.3,12-7.1,17.8-11l2.5-1.7
			c2.4-1.6,4.4-3.6,6.2-5.3c2.4-2.3,4.3-4.1,6-4.1c2.5,0,4.2,1.9,5.8,3.8c0.4,0.5,0.8,0.9,1.2,1.4c10.1,10.8,22.6,24.3,38.9,27.9
			c5,1.1,10.3,1.2,15.3,1.3c3.3,0.1,6.8,0.2,10.2,0.5c4.2,0.4,8.5,1.3,12.6,2.2c3.3,0.7,6.6,1.4,10,1.9c12.6,1.8,29.1-0.3,42.3-1.9
			l2.7-0.3l0.1,0.7l-2.7,0.3C927.2,478,915.9,479.4,905.5,479.4z"/>
	</g>
	<g>
		<path class="st1" d="M903.4,474.1c-0.3,0-0.6,0-1,0c-5.2-0.2-10.1-2.1-14.9-3.9c-3.1-1.2-6.3-2.4-9.6-3.2
			c-5-1.1-10.2-1.2-15.3-1.2c-6.4-0.1-13.1-0.1-19.2-2.4c-5.6-2.1-10.5-5.9-14.5-9.4c-7.3-6.4-14-13.5-20-21.1l-0.2-0.2
			c-1.7-2.1-3.4-4.4-5.8-5.4c-4.7-2-10.3,0.6-16.7,7.9c-5.6,6.4-12,13.7-20.1,18.3c-5.5,3.1-11.6,5-17.6,6.8
			c-11.6,3.5-23.6,7.1-35.8,8.2c-6.4,0.6-13.3,0.5-20.7,0.4c-10.2-0.1-20.7-0.2-29.6,1.6l-0.2-0.7c9-1.8,19.6-1.7,29.8-1.6
			c7.3,0.1,14.2,0.2,20.6-0.4c12.2-1.1,24.1-4.7,35.7-8.2c5.9-1.8,12-3.6,17.4-6.7c8-4.6,14.4-11.8,20-18.1
			c6.6-7.6,12.6-10.3,17.6-8.1c2.6,1.1,4.4,3.4,6.1,5.7l0.2,0.2c5.9,7.6,12.6,14.7,19.9,21c4,3.5,8.8,7.3,14.3,9.3
			c6,2.2,12.6,2.3,18.9,2.3c5.1,0,10.4,0.1,15.4,1.2c3.3,0.8,6.6,2,9.7,3.2c4.7,1.8,9.6,3.7,14.7,3.8c4.5,0.2,9.6-0.8,15.1-1.8
			c7.4-1.3,15.1-2.7,21.9-1.6l-0.1,0.7c-6.7-1.1-14.3,0.3-21.6,1.6C912.6,473.2,907.7,474.1,903.4,474.1z"/>
	</g>
	<g>
		<path class="st1" d="M682.6,464.6c-7,0-14-0.7-20.4-2.2l0.2-0.7c14.9,3.4,33.1,2.8,47.4-1.7c0.4-0.1,0.9-0.3,1.3-0.4
			c1.6-0.5,3.3-1.1,5-1.4c2.5-0.5,5.1-0.6,7.6-0.7h0.5c14.4-0.7,29.3-2.4,40.7-11.1l0.5-0.4c9.7-7.4,15.6-11.8,22.5-22
			c1.9-2.8,7-9,9.6-9.1l0,0c2.8,0,5.6,2.2,8.7,6.8l1.9,2.9c3.2,4.9,6.9,10.4,10,14.6c4.3,5.8,7.2,9.4,14.2,16.9l-0.5,0.5
			c-7-7.5-9.9-11.1-14.2-16.9c-3.1-4.2-6.8-9.7-10.1-14.6l-1.9-2.9c-2.9-4.4-5.6-6.5-8.1-6.5l0,0c-2,0-6.6,5.2-9,8.7
			c-7,10.3-12.9,14.8-22.7,22.2l-0.5,0.4c-11.6,8.7-26.6,10.6-41.1,11.2h-0.5c-2.5,0.1-5,0.2-7.5,0.7c-1.7,0.3-3.3,0.9-4.9,1.4
			c-0.5,0.1-0.9,0.3-1.4,0.4C701.7,463.3,692.1,464.6,682.6,464.6z"/>
	</g>
	<g>
		<path class="st1" d="M662.4,456l-0.2-0.7c8.9-2.5,18.9-1.9,28.6-1.4c10.1,0.6,20.6,1.2,29.6-1.8c1.6-0.5,3.2-1.2,4.8-1.8
			c1.8-0.7,3.7-1.5,5.6-2c3-0.9,6.1-1.4,9-1.8c2.6-0.4,5.3-0.8,7.9-1.5c8.4-2.2,15.6-7.3,20.9-11.5c3.5-2.7,6.2-5.2,8.2-8.3
			c1.2-1.9,2.4-3.9,3.5-5.9c0.9-1.6,1.9-3.3,2.9-4.9c1.9-3,4.9-6.9,9.5-6.2c1.5,0.2,3.1,0.9,4.8,2.2c3.2,2.4,7.1,7.7,8.8,11.3
			l-0.7,0.3c-1.7-3.5-5.4-8.7-8.5-11c-1.7-1.2-3.1-1.9-4.5-2.1c-3.2-0.5-5.9,1.4-8.7,5.9c-1,1.6-1.9,3.3-2.9,4.9
			c-1.1,2-2.3,4.1-3.6,6c-2,3.2-4.8,5.7-8.4,8.5c-5.4,4.2-12.7,9.4-21.2,11.6c-2.6,0.7-5.3,1.1-8,1.5c-3,0.5-6,0.9-8.9,1.8
			c-1.9,0.6-3.7,1.3-5.5,2c-1.6,0.6-3.2,1.3-4.8,1.8c-9.2,3-19.7,2.4-29.9,1.8C681.1,454.1,671.2,453.5,662.4,456z"/>
	</g>
	<g>
		<path class="st1" d="M662.4,448.4l-0.1-0.7c7.6-0.9,16-0.7,24.2-0.6c12.3,0.2,24.9,0.4,35.9-2.7c2.5-0.7,4.9-1.6,7.3-2.5
			c4.7-1.7,9.6-3.4,14.7-3.9c0.8-0.1,1.6-0.1,2.4-0.1c1.6-0.1,3.2-0.2,4.7-0.5c6.1-1.3,10.3-6.4,12.8-10.4c1.5-2.4,2.8-5.1,4.1-7.6
			c1.3-2.6,2.6-5.2,4.1-7.7c3.1-5.1,6.8-7.9,10.7-8.5c6.6-1,12.2,4.4,15.9,8.6l-0.6,0.5c-3.5-4-9-9.3-15.2-8.3
			c-3.7,0.6-7.2,3.3-10.2,8.2c-1.5,2.4-2.8,5.1-4.1,7.6c-1.3,2.6-2.6,5.2-4.1,7.7c-2.6,4.2-7,9.4-13.3,10.8
			c-1.6,0.3-3.2,0.4-4.8,0.5c-0.8,0-1.6,0.1-2.3,0.1c-5,0.4-9.8,2.2-14.5,3.9c-2.4,0.9-4.9,1.8-7.4,2.5c-11.1,3.2-23.8,3-36.1,2.8
			C678.3,447.7,670,447.5,662.4,448.4z"/>
	</g>
	<g>
		<path class="st1" d="M662.4,440.5l-0.1-0.7c5.3-1.1,11.7-0.9,17.9-0.8c5.3,0.1,10.8,0.2,15.5-0.4c1.5-0.2,3-0.5,4.5-0.8
			c1.6-0.3,3.3-0.7,4.9-0.9c3.3-0.4,6.8-0.5,10.1-0.5c6.9-0.1,13.5-0.1,19.2-3.5c1.6-1,3.1-2.2,4.5-3.4c1.7-1.4,3.5-2.9,5.6-4
			c1.1-0.6,2.3-1,3.4-1.4c1.9-0.7,3.6-1.3,5.1-2.5c2.9-2.2,4.3-5.9,5.5-8.9l4-10.2c0.9-2.4,2.1-5.3,4.6-7c3.8-2.5,9-0.9,12.6,1.6
			c1,0.7,2.3,1.5,3.6,2.4c3.3,2.1,7,4.6,9.7,6.7l-0.5,0.6c-2.7-2.1-6.4-4.5-9.6-6.7c-1.3-0.9-2.6-1.7-3.6-2.4
			c-3.4-2.3-8.3-3.9-11.8-1.6c-2.1,1.4-3.2,3.8-4.3,6.6l-4,10.2c-1.2,3.1-2.7,6.9-5.8,9.2c-1.6,1.2-3.5,1.9-5.3,2.6
			c-1.1,0.4-2.3,0.9-3.4,1.4c-2,1-3.8,2.5-5.5,3.9c-1.5,1.2-3,2.4-4.6,3.4c-5.8,3.5-12.8,3.6-19.5,3.6c-3.3,0-6.8,0.1-10,0.5
			c-1.6,0.2-3.3,0.6-4.9,0.9c-1.5,0.3-3,0.6-4.6,0.8c-4.7,0.7-10.2,0.6-15.6,0.4C674,439.6,667.6,439.4,662.4,440.5z"/>
	</g>
	<g>
		<path class="st1" d="M692.9,431.7c-0.6,0-1.1,0-1.7,0l-4.4-0.1c-8.1-0.2-17.2-0.5-24.5-0.8v-0.7c7.3,0.3,16.5,0.5,24.5,0.8
			l4.4,0.1c1.4,0,2.9,0.1,4.4-0.2c1.8-0.3,3.6-1,5.3-1.8c1.1-0.5,2.3-1,3.4-1.3c2.8-0.9,5.8-1.1,8.6-1.3c0.6,0,1.2-0.1,1.8-0.1
			c7-0.6,12.9-2,18-4.2c6.1-2.7,10.9-6.8,14-11.7c2-3.1,3.3-6.7,4.5-10.2l0.4-1.1c1-2.8,2.1-5.4,4.3-7.2c2.4-2,6-2.7,9.6-1.8
			c3.1,0.7,9,3.7,11.9,5.7l-0.4,0.6c-2.8-1.9-8.6-4.9-11.6-5.6c-3.4-0.8-6.8-0.2-9,1.7c-2,1.7-3.1,4.2-4,6.9l-0.4,1.1
			c-1.3,3.5-2.6,7.1-4.6,10.3c-3.2,5-8.1,9.2-14.3,12c-5.2,2.3-11.1,3.7-18.2,4.3c-0.6,0.1-1.2,0.1-1.9,0.1
			c-2.8,0.2-5.8,0.4-8.5,1.3c-1.1,0.4-2.3,0.8-3.4,1.3c-1.7,0.7-3.5,1.5-5.5,1.8C694.8,431.7,693.9,431.7,692.9,431.7z"/>
	</g>
	<g>
		<path class="st1" d="M662.3,423.8v-0.7c3.7-0.1,8.1-0.3,12.4-0.5c4.4-0.1,8.7-0.3,12.4-0.4c3.3-0.1,6.7-0.3,9.9-1.1
			c2-0.5,3.9-1.3,5.7-2.1c2.1-0.9,4.3-1.8,6.7-2.3c3-0.7,6.2-0.7,9.2-0.6c4.2,0,8.2,0,11.9-1.6c5.6-2.4,9.5-8.3,12.2-17.9l0.1-0.3
			c1-3.7,2.2-8,5.6-10.1c3.5-2.2,7.9-1.1,10.1-0.3c3.2,1.2,8.7,4,13.3,6.7l-0.4,0.6c-4.5-2.7-10-5.5-13.2-6.7
			c-2.1-0.8-6.2-1.8-9.5,0.2c-3.1,2-4.3,6.1-5.3,9.7l-0.1,0.3c-2.7,9.8-6.8,15.8-12.6,18.4c-3.8,1.7-8.1,1.7-12.2,1.6
			c-3,0-6.1,0-9.1,0.6c-2.2,0.5-4.4,1.4-6.5,2.3c-1.9,0.8-3.8,1.6-5.8,2.1c-3.3,0.9-6.7,1-10.1,1.2c-3.7,0.1-8.1,0.3-12.4,0.5
			C670.4,423.5,666.1,423.6,662.3,423.8z"/>
	</g>
	<g>
		<path class="st1" d="M898.7,463.5c-1.5,0-3-0.1-4.5-0.2c-4.4-0.4-8.7-1.4-12.8-2.4c-1.6-0.4-3.2-0.8-4.9-1.1
			c-4.9-1.1-10.1-1.7-15-2.3c-12.7-1.6-25.7-3.2-35.3-12c-5.4-4.9-10.9-12.1-16.1-19.1c-3-4-5.9-7.7-8.5-10.8
			c-17.3-20.2-37.7-33.7-45.3-35.4c-3-0.7-6.3-1.4-9.3-0.3c-2.2,0.8-4.3,2.6-6,5.2c-1.9,2.9-2.9,5.8-3.9,8.7
			c-1.4,4.1-2.8,8.1-6.6,11.4c-4,3.5-13.7,6.1-22.6,6.1c-9.4,0-16.3,1.1-22.3,2.1c-7.6,1.2-14.2,2.3-23.4,0.9l0.1-0.7
			c9.1,1.4,15.6,0.3,23.2-0.9c6.1-1,13-2.1,22.4-2.1c8.7,0,18.2-2.6,22.1-5.9c3.7-3.2,5-7,6.3-11.1c1-2.9,2-5.9,3.9-8.8
			c1.8-2.7,4-4.6,6.3-5.5c3.2-1.1,6.7-0.4,9.7,0.3c7.6,1.7,28.3,15.4,45.7,35.6c2.7,3.2,5.6,6.9,8.6,10.9c5.3,6.9,10.7,14.1,16,19
			c9.4,8.6,21.8,10.2,34.9,11.8c5,0.6,10.2,1.3,15.1,2.4c1.6,0.4,3.3,0.7,4.9,1.1c4.1,1,8.4,2,12.7,2.4c5.8,0.5,12.4-0.2,18.7-0.8
			c9.1-0.9,18.4-1.9,26.5,0.4l-0.2,0.7c-7.9-2.3-17.2-1.3-26.2-0.4C908.3,462.9,903.4,463.5,898.7,463.5z"/>
	</g>
	<g>
		<path class="st1" d="M923.6,455.1c-5,0-10.3-0.5-15-0.9c-2.1-0.2-4-0.4-5.8-0.5c-6.4-0.4-10,0-13.5,0.4c-5,0.6-9.6,1.2-22.2-1.2
			c-1.6-0.3-3.9-0.6-6.5-1c-6.9-1-15.5-2.3-19.3-3.8c-9.1-3.8-15.8-11.7-21.7-18.7L800,406.3c-13.3-15.8-27.9-31.4-47.1-33.6
			c-2.6-0.3-6.2,0.1-8.5,0.9c-4.8,1.7-6.9,6.2-9.2,10.9c-0.8,1.7-1.6,3.4-2.6,5c-6,10.2-17.2,16.6-29.9,17.1
			c-4.4,0.2-9.2-0.2-14.3-0.5c-8.9-0.6-18.2-1.2-26,0.9l-0.2-0.7c8-2.1,17.3-1.5,26.3-0.9c5,0.3,9.8,0.7,14.2,0.5
			c12.5-0.5,23.4-6.7,29.3-16.7c0.9-1.6,1.8-3.3,2.5-5c2.3-4.9,4.5-9.4,9.6-11.3c2.5-0.9,6.1-1.3,8.9-1
			c19.4,2.2,34.1,17.9,47.6,33.8l19.7,23.3c5.8,6.9,12.5,14.8,21.4,18.5c3.7,1.5,12.6,2.8,19.1,3.8c2.7,0.4,5,0.7,6.6,1
			c12.4,2.3,17.1,1.7,22,1.2c3.5-0.4,7.1-0.8,13.6-0.4c1.8,0.1,3.7,0.3,5.8,0.5c10.3,0.9,23.1,2,30.5-1.9l0.3,0.7
			C935.4,454.5,929.7,455.1,923.6,455.1z"/>
	</g>
	<g>
		<path class="st1" d="M894.2,448.4c-2.7,0-5.4-0.1-8.1-0.5c-6.8-0.8-12.2-0.9-17-0.9c-10.5-0.1-18-0.2-30.5-7.8
			c-13.5-8.3-21-18.7-29.8-30.8c-2.1-2.9-4.3-6-6.7-9.1c-6.9-9.1-17.1-20.1-23.2-23.8c-7.3-4.3-13.7-7.3-21-8
			c-7.8-0.8-12.8,1.9-18.5,9.9l-0.6-0.4c5.9-8.2,11.1-11,19.2-10.2c7.4,0.8,13.9,3.8,21.3,8.1c6.3,3.7,16.5,14.8,23.4,23.9
			c2.4,3.1,4.6,6.2,6.7,9.1c8.7,12,16.3,22.4,29.6,30.6c12.3,7.5,19.7,7.6,30.1,7.7c4.8,0,10.3,0.1,17.1,0.9
			c7.8,1,15.1,0.3,22.7-0.5c9.4-0.9,19.2-1.8,30.5,0.4l-0.1,0.7c-11.2-2.2-20.9-1.3-30.3-0.4C904,447.9,899.2,448.4,894.2,448.4z"/>
	</g>
	<g>
		<path class="st1" d="M935.8,440.6c-5.6,0-12.3-0.9-18.9-1.8c-7.2-1-14.1-1.9-19.5-1.7c-4.3,0.2-8.7,0.9-12.9,1.7
			c-8.9,1.5-18.1,3.2-26.3-0.7c-3.7-1.8-6.9-4.6-9.9-7.3c-1.8-1.6-3.7-3.3-5.7-4.7c-2.4-1.8-5.1-3.2-7.7-4.7
			c-3.7-2.1-7.6-4.2-10.8-7.2c-3.4-3.2-5.8-7.3-8.1-11.2c-0.9-1.5-1.8-3-2.7-4.4c-7.8-12.1-20-22.4-37.1-31.4
			c-5.8-3.1-12.1-5.7-18.4-4.5c-4.7,0.9-8,3.9-11.3,6.8c-0.8,0.7-1.5,1.4-2.3,2l-0.5-0.6c0.8-0.7,1.5-1.3,2.3-2
			c3.3-3,6.7-6.1,11.6-7c6.5-1.2,12.9,1.5,18.9,4.6c17.3,9.1,29.5,19.4,37.4,31.6c0.9,1.4,1.8,3,2.7,4.4c2.3,3.9,4.7,7.9,8,11
			c3.1,2.9,6.9,5,10.6,7.1c2.6,1.4,5.3,2.9,7.8,4.7c2,1.5,3.9,3.1,5.7,4.8c3,2.7,6.1,5.4,9.7,7.2c7.9,3.8,16.6,2.3,25.8,0.7
			c4.3-0.7,8.7-1.5,13-1.7c5.5-0.2,12.4,0.7,19.6,1.7c8,1.1,16.2,2.2,22.3,1.6l0.1,0.7C938.3,440.6,937,440.6,935.8,440.6z"/>
	</g>
	<g>
		<path class="st1" d="M924.5,432.7c-10,0-21.5-0.6-24.4-1c-4.7-0.6-10.1-0.5-15.4-0.3c-6.4,0.2-13,0.4-18.7-0.8
			c-7.3-1.6-14-5-20.4-8.3c-5.7-2.9-11.6-6-16.3-10.6c-4.8-4.9-8-11.2-11-17.4c-3.4-7-7-14.3-13.1-19.1c-6-4.7-10.3-7.4-16.5-10.1
			c-0.9-0.4-1.8-0.8-2.7-1.2c-5.1-2.3-10-4.4-15.4-5.4c-6-1.1-16,3-21.3,8.7l-0.5-0.5c5.5-6,15.6-10,22-8.9c5.5,1,10.4,3.2,15.6,5.5
			c0.9,0.4,1.8,0.8,2.7,1.2c6.3,2.7,10.6,5.4,16.6,10.2c6.2,5,9.8,12.3,13.3,19.4c3,6.1,6.1,12.4,10.8,17.2
			c4.6,4.6,10.4,7.6,16.1,10.5c6.4,3.3,13.1,6.7,20.2,8.2c5.6,1.2,12.2,1,18.5,0.8c5.3-0.2,10.7-0.4,15.5,0.3
			c5.7,0.8,33.2,1.8,39.1,0l0.2,0.7C937,432.5,931,432.7,924.5,432.7z"/>
	</g>
	<g>
		<path class="st1" d="M939.3,423.3c-16.5-2.6-38.9-1.8-54.4-1h-0.8c-2.9,0.2-5.9,0.3-8.8-0.1c-3.4-0.4-6.6-1.6-9.7-2.7l-13.1-4.7
			c-4.1-1.5-8.3-3-11.8-5.7c-5.6-4.3-8.4-11-11.2-17.4c-2.1-4.9-4.3-10.1-7.7-14.1c-2.7-3.2-6.1-5.8-9.4-8.2l-11.9-8.8
			c-2.7-2-5.6-4.2-8.7-5.6c-11.8-5.3-29.5,2.9-37.2,8l-0.4-0.6c7.8-5.2,25.9-13.5,37.9-8.1c3.2,1.5,6.1,3.6,8.9,5.7l11.9,8.8
			c3.3,2.5,6.8,5.1,9.6,8.3c3.5,4.2,5.7,9.3,7.9,14.3c2.8,6.6,5.5,12.9,11,17.1c3.4,2.7,7.6,4.2,11.6,5.6l13.1,4.7
			c3.1,1.1,6.3,2.3,9.6,2.7c2.8,0.4,5.8,0.2,8.6,0.1h0.8c15.5-0.8,38-1.6,54.5,1L939.3,423.3z"/>
	</g>
	<g>
		<path class="st1" d="M918.3,415.3c-2.9,0-5.7-0.1-8.2-0.1c-0.9,0-1.8,0-2.6-0.1l-19.7-0.4c-7-0.2-15-0.3-22-3.5
			c-2.3-1-4.4-2.4-6.5-3.7c-2-1.3-4.1-2.6-6.2-3.6c-0.8-0.4-1.7-0.7-2.5-1.1c-1.8-0.7-3.7-1.5-5.3-2.7c-4.4-3.1-6.4-8.3-8.3-13.3
			c-0.4-1-0.7-1.9-1.1-2.8c-4.3-10.6-11.4-19.9-18.3-28.8c-1.4-1.8-2.9-3.7-4.8-5c-3.1-2-7.1-2.2-10.5-2.1
			c-10.1,0.2-22.7,3.9-30.5,7l-0.3-0.7c7.9-3.1,20.6-6.9,30.8-7.1c3.6-0.1,7.7,0.1,11,2.3c2.1,1.3,3.6,3.4,5,5.2
			c6.9,9,14,18.2,18.4,29c0.4,0.9,0.7,1.9,1.1,2.9c1.9,4.9,3.8,10,8,13c1.6,1.1,3.4,1.9,5.1,2.6c0.8,0.3,1.7,0.7,2.5,1.1
			c2.2,1,4.3,2.4,6.3,3.6c2.1,1.3,4.2,2.7,6.4,3.7c6.8,3.1,14.7,3.3,21.7,3.4l19.7,0.4c0.8,0,1.7,0,2.6,0.1c8.8,0.2,22,0.6,29.1-2.7
			l0.3,0.7C934.3,414.8,925.9,415.3,918.3,415.3z"/>
	</g>
	<g>
		<path class="st1" d="M883,406.9c-2.5,0-4.9-0.4-7.2-1.4c-1.2-0.5-2.3-1.3-3.4-2c-0.8-0.5-1.5-1-2.3-1.4c-2-1.1-4.3-1.8-6.4-2.5
			c-1.6-0.5-3.2-1-4.7-1.7c-8.4-3.6-14.5-11.8-15.6-20.9c0-0.3-0.1-0.5-0.1-0.8c-0.1-1-0.2-1.9-0.5-2.7c-0.3-0.8-0.7-1.6-1.2-2.4
			c-0.1-0.2-0.3-0.5-0.4-0.7l-0.9-1.7c-2.2-4.1-4.7-8.8-7.5-12.5c-2.9-3.9-9.3-7-13.9-8.2c-5.4-1.5-13.3-0.5-16.5,0l-0.1-0.7
			c3.2-0.5,11.2-1.5,16.8,0c4.7,1.3,11.2,4.5,14.3,8.5c2.8,3.7,5.3,8.4,7.6,12.6l0.9,1.7c0.1,0.2,0.2,0.4,0.4,0.7
			c0.5,0.8,0.9,1.6,1.2,2.6c0.3,0.9,0.4,1.9,0.5,2.9c0,0.3,0.1,0.5,0.1,0.8c1,8.8,7,16.8,15.2,20.3c1.5,0.6,3.1,1.2,4.7,1.7
			c2.2,0.7,4.5,1.4,6.5,2.6c0.8,0.4,1.6,1,2.4,1.5c1.1,0.7,2.2,1.4,3.3,1.9c4.5,2,9.7,1.3,14.7,0.6l1.1-0.2
			c13.2-1.9,33.2-1.5,47.6,0.9l-0.1,0.7c-14.4-2.4-34.3-2.8-47.4-0.9l-1.1,0.2C888.2,406.5,885.6,406.9,883,406.9z"/>
	</g>
	<g>
		<path class="st1" d="M904.5,400.2c-3.8,0-7.4-0.3-10.7-1.1c-1.4-0.3-2.8-0.8-4.2-1.2c-2.3-0.7-4.7-1.5-7.1-1.8
			c-1.6-0.2-3.3-0.2-4.9-0.1c-1.6,0-3.3,0.1-4.9-0.1c-6.5-0.7-12.5-4.8-15.6-10.6c-0.8-1.4-1.4-3-1.9-4.5c-0.6-1.5-1.2-3.1-1.9-4.5
			c-1-1.9-2.4-3.7-3.7-5.4c-1.2-1.6-2.5-3.2-3.5-4.9c-1.4-2.5-2.4-5.3-3.4-8.1c-1.7-5-3.4-9.8-7.6-12.5c-3.6-2.4-8.5-2.7-15.1-1.1
			c-1.3,0.3-2.5,0.6-3.9,1c-4.1,1.1-8.3,2.2-12.8,2.6l-0.1-0.7c4.5-0.4,8.6-1.5,12.7-2.6c1.3-0.3,2.6-0.7,3.9-1
			c6.8-1.6,11.9-1.2,15.7,1.2c4.4,2.9,6.2,8,7.9,12.9c0.9,2.7,1.9,5.5,3.3,8c1,1.7,2.2,3.3,3.4,4.8c1.3,1.7,2.7,3.5,3.8,5.5
			c0.8,1.5,1.4,3,2,4.6c0.6,1.5,1.1,3,1.9,4.4c3,5.6,8.7,9.5,15,10.2c1.6,0.2,3.2,0.1,4.8,0.1c1.6,0,3.3-0.1,5,0.1
			c2.5,0.3,4.9,1.1,7.3,1.8c1.3,0.4,2.7,0.9,4.1,1.2c8,2,17.9,0.9,27.6-0.2c6.4-0.7,12.4-1.4,17.8-1.2v0.7
			c-5.3-0.2-11.4,0.5-17.7,1.2C915.9,399.5,910,400.2,904.5,400.2z"/>
	</g>
	<g>
		<path class="st1" d="M904.9,391.4c-1.1,0-2.2,0-3.3-0.1c-2.5-0.2-5-0.8-7.4-1.3c-2.5-0.6-5.1-1.1-7.7-1.4c-1.3-0.1-2.7-0.1-4-0.1
			c-1.4,0-2.8,0-4.2-0.1c-2.9-0.2-5.6-0.9-8.3-2.1c-2.7-1.2-6.4-3.3-8.4-7c-0.8-1.4-1.3-3-1.7-4.6c-0.3-0.9-0.5-1.8-0.9-2.6
			c-1-2.6-2.5-5-4-7.3s-3-4.6-4-7.2c-0.8-2.1-1.3-4.3-1.8-6.4c-0.3-1.2-0.5-2.5-0.9-3.7c-1.1-4.1-2.8-6.9-5.1-8.6
			c-2.2-1.6-5.7-3.5-9.4-2.9c-2.3,0.4-4.7,1.7-7.1,2.9c-1,0.6-2,1.1-3,1.5c-1.3,0.6-2.5,1.2-3.8,1.9c-3.4,1.8-7.2,3.7-12.1,4.9
			l-0.2-0.7c4.9-1.1,8.6-3.1,11.9-4.8c1.3-0.7,2.6-1.4,3.9-1.9c1-0.4,1.9-1,3-1.5c2.4-1.3,4.8-2.6,7.3-3c4-0.7,7.6,1.3,10,3
			c2.4,1.8,4.2,4.7,5.4,9c0.3,1.2,0.6,2.5,0.9,3.7c0.5,2.1,1,4.3,1.8,6.3c1,2.5,2.5,4.8,3.9,7.1c1.5,2.4,3.1,4.8,4.1,7.5
			c0.3,0.9,0.6,1.8,0.9,2.7c0.5,1.5,0.9,3.1,1.7,4.4c1.9,3.5,5.4,5.5,8,6.6c2.6,1.1,5.3,1.8,8,2c1.4,0.1,2.8,0.1,4.2,0.1
			c1.3,0,2.7,0,4,0.1c2.6,0.2,5.3,0.8,7.8,1.4c2.4,0.5,4.9,1.1,7.3,1.3c4.5,0.4,9.6-0.2,15-0.8c8.1-0.9,16.4-1.9,22.8,0.6l-0.3,0.7
			c-6.3-2.5-14.5-1.5-22.5-0.6C912.6,390.9,908.6,391.4,904.9,391.4z"/>
	</g>
	<g>
		<path class="st1" d="M907.6,383c-0.9,0-1.8,0-2.7-0.1c-3.1-0.2-12.9-2-18.2-3c-1-0.2-1.9-0.3-2.4-0.5c-0.7-0.1-1.4-0.2-2.1-0.3
			c-1.1-0.1-2.3-0.3-3.5-0.6c-2.7-0.8-5.1-2.5-6.6-3.7c-3.8-3.1-6.9-6.7-9.4-10.9c-2.2-3.7-3.8-7.8-5.4-11.8
			c-2-5.1-4.1-10.4-7.4-14.8c-0.5-0.7-1-1.5-1.6-2.5c-1.3-2.2-2.7-4.6-4.4-5.2c-4-1.4-8.4,2.3-12.2,5.6c-1.1,1-2.2,1.9-3.2,2.6
			l-0.4-0.6c1-0.7,2.1-1.6,3.2-2.6c4-3.4,8.6-7.3,13-5.7c2,0.7,3.5,3.3,4.8,5.5c0.5,0.9,1,1.8,1.5,2.4c3.4,4.5,5.5,9.8,7.5,14.9
			c1.5,3.9,3.1,8,5.3,11.7c2.4,4.1,5.5,7.7,9.2,10.7c1.5,1.2,3.7,2.8,6.3,3.6c1.1,0.3,2.3,0.4,3.4,0.6c0.7,0.1,1.4,0.2,2.1,0.3
			c0.6,0.1,1.4,0.3,2.5,0.5c5.2,1,15,2.8,18.1,3c5.5,0.3,9.9-0.4,14.6-1.3c5.3-0.9,11.3-2,19.8-1.5v0.7c-8.4-0.5-14.1,0.5-19.6,1.5
			C915.8,382.3,912,383,907.6,383z"/>
	</g>
	<g>
		<path class="st1" d="M902.6,373.2c-2.4,0-4.9,0-7.3-0.5c-3.3-0.7-6.4-2.2-9.4-3.7c-6.7-3.3-14.3-7.1-19.1-13.6
			c-3.7-5-6.2-10.8-8.6-16.4c-0.9-2.1-1.8-4.2-2.8-6.3c-1-2-1.9-4.2-2.7-6.1c-1.3-3-2.4-5.6-3.1-6.5c-0.1-0.2-0.3-0.5-0.5-0.7
			c-0.7-1.1-1.8-2.9-2.8-3.2c-1.1-0.4-3.1,0.8-4.1,1.6c-1.4,1.1-2.6,3.5-4,6.2c-1.2,2.4-2.6,5-4.3,7.3c-1.7,2.2-5,6.3-8.6,8.5
			l-0.4-0.6c3.7-2.2,7.1-6.5,8.4-8.3c1.7-2.2,3-4.9,4.3-7.2c1.5-2.8,2.7-5.2,4.2-6.5c1-0.8,3.3-2.3,4.8-1.8c1.2,0.4,2.3,2.2,3.2,3.5
			c0.2,0.3,0.3,0.5,0.4,0.7c0.7,1,1.7,3.5,3.1,6.6c0.8,1.9,1.8,4.1,2.7,6.1c1,2.1,1.9,4.2,2.8,6.3c2.4,5.6,4.9,11.3,8.5,16.2
			c4.7,6.4,12.3,10.1,18.9,13.4c2.9,1.5,6,3,9.2,3.6c2.6,0.5,5.3,0.5,7.9,0.5c4.9,0,11.5-0.2,18-0.3c6.5-0.1,13.2-0.3,18-0.3v0.8
			c-4.9,0-11.6,0.1-18,0.3c-6.5,0.1-13.1,0.3-18,0.3C903.1,373.2,902.8,373.2,902.6,373.2z"/>
	</g>
	<g>
		<path class="st1" d="M939.3,345.5c-7.9-2.3-21.4-2-31.2-1.8c-2.2,0-4.3,0.1-6.1,0.1c-0.2,0-0.4,0-0.6,0c-9,0-20.1-0.9-28.5-7.4
			c-4.9-3.8-8.8-9.4-12.9-15.4c-5.6-8.2-11.5-16.6-20.7-21.9l0.4-0.7c9.4,5.4,15.3,13.9,21,22.1c4.1,5.9,7.9,11.4,12.7,15.2
			c8.3,6.5,19.7,7.3,28.6,7.3c1.8,0,3.9,0,6.1-0.1c9.9-0.2,23.4-0.4,31.4,1.9L939.3,345.5z"/>
	</g>
	<g>
		<path class="st1" d="M918.4,336.8c-9.4,0-19.1-1-26.5-3.2c-0.7-0.2-1.5-0.5-2.2-0.7c-1-0.3-2-0.7-3-0.9c-1.2-0.3-2.5-0.6-3.7-0.8
			c-2.4-0.5-4.9-1-7.1-2c-5-2.3-10.7-8-16.7-14c-7.4-7.4-15.1-15-22.9-18.2l0.3-0.7c8,3.3,15.7,10.9,23.2,18.4
			c6,5.9,11.6,11.5,16.5,13.8c2.2,1,4.6,1.5,7,2c1.2,0.3,2.5,0.5,3.8,0.8c1,0.3,2.1,0.6,3.1,0.9c0.7,0.2,1.4,0.5,2.2,0.7
			c13.5,4,34.6,3.8,47.3,1.4l0.1,0.7C933.7,336.2,926.1,336.8,918.4,336.8z"/>
	</g>
	<g>
		<g>
			<path class="st1" d="M808.9,232.7c0.8-22.2-36.9-23.3-55.1-42.1c-21.9-22.6-23.6-72.6,6.9-94.8s67.2-21.8,93.6,6.4
				c22.7,24.2,25.2,60.2-1.8,86.8c-17.2,17-39.4,20.7-41.7,38.4c-0.5,3.6-3.1,6.6-6.9,8.3"/>
		</g>
		<g>
			<path class="st1" d="M804.1,236.2l-0.3-0.7c2-0.9,3.7-2.2,4.8-3.7c-0.2-12.2-12.5-17.7-26.8-24c-10.2-4.5-20.7-9.2-28.2-16.9
				c-11.6-12-17.8-31.8-16.1-51.6c1.6-18.6,9.8-34.1,23-43.7c15.3-11.2,32.1-16.6,48.6-15.8c17,0.9,32.7,8.6,45.6,22.2
				c11.4,12.1,17.7,27.3,17.8,42.7c0.1,16.4-6.7,31.8-19.6,44.6c-6.6,6.6-14.1,11.2-20.7,15.3c-10.5,6.5-19.5,12.1-20.9,22.8
				c-0.2,1.6-0.9,3.2-1.9,4.5c0,0.2,0,0.5,0,0.7h-0.5C807.6,234.1,806,235.3,804.1,236.2z M805.5,80.6c-14.9,0-30.3,5.2-44.6,15.6
				c-13,9.5-21.1,24.8-22.7,43.2c-1.7,19.6,4.4,39.2,15.9,51.1c7.4,7.6,17.9,12.3,28,16.7c13.5,6,26.3,11.6,27.2,23.6
				c0.6-1,1-2.2,1.2-3.3c1.5-11,10.7-16.8,21.3-23.4c6.6-4.1,14-8.7,20.6-15.2c25.3-25,26-60.5,1.7-86.3
				C840.4,88,823.3,80.6,805.5,80.6z"/>
		</g>
	</g>
	<g>
		<path class="st1" d="M927.1,365.8c-5.7,0-11.4-0.5-16.8-0.9c-3.8-0.3-7.5-0.6-10.5-0.7c-2.6-0.1-5.3-0.1-8-0.7
			c-8.8-1.9-15.6-9-21-14.7c-2.1-2.3-4.4-4.6-6.1-7.2c-2-3-3.5-6.3-4.9-9.6c-0.3-0.6-0.5-1.2-0.8-1.8c-3.1-7.1-7.7-16.2-15.3-22.7
			c-1-0.8-2.1-1.6-3.3-1.7c-1.5-0.1-2.5,0.8-3.2,2.7c-0.6,1.6-0.8,2.6-1.2,4.3c-0.3,1.3-0.7,3-1.5,5.7
			c-3.4,12.4-11.9,22.1-24.6,28.1l-0.3-0.7c12.5-5.9,20.9-15.5,24.2-27.7c0.7-2.7,1.2-4.4,1.5-5.6c0.4-1.7,0.7-2.7,1.2-4.4
			c0.8-2.2,2.1-3.3,3.9-3.2c1.4,0.1,2.6,1,3.7,1.9c7.7,6.6,12.3,15.7,15.5,22.9c0.3,0.6,0.5,1.2,0.8,1.8c1.4,3.2,2.8,6.5,4.8,9.5
			c1.7,2.6,3.9,4.9,6.1,7.1c5.3,5.6,12,12.6,20.6,14.5c2.6,0.5,5.3,0.6,7.8,0.6c3.1,0.1,6.7,0.4,10.6,0.7c9.2,0.8,19.7,1.7,28.9-0.1
			l0.1,0.7C935.5,365.5,931.3,365.8,927.1,365.8z"/>
	</g>
	<g>
		<path class="st1" d="M939.3,355.2c-9.3-1.9-27.7-2-33.2-2c0,0,0,0-0.1,0h-1c-9.4,0-19.3,0-27.1-5.2c-2.3-1.6-4.3-3.5-6.2-5.4
			c-2.3-2.3-4.5-4.6-6-7.4c-1.1-1.9-2.1-4-3.1-6c-0.3-0.6-0.6-1.2-0.9-1.8c-1.9-3.9-9.2-15.2-13.2-19.1c-3.2-3.2-7.7-7-13.5-8.5
			c-0.8-0.2-1.8-0.4-2.5,0.1c-0.6,0.4-0.9,1.1-1,1.7c-0.5,1.6-0.7,3.4-0.8,5.1c0,0.4-0.1,0.8-0.1,1.2c-1,9.4-4.6,18.8-10.7,28
			c-3.7,5.5-9.3,10-15.5,12.3l-0.3-0.7c6-2.3,11.6-6.7,15.1-12.1c6-9,9.7-18.5,10.6-27.6c0-0.4,0.1-0.8,0.1-1.2
			c0.2-1.7,0.3-3.5,0.9-5.2c0.2-0.7,0.6-1.6,1.4-2.1c1-0.6,2.1-0.4,3.1-0.2c6,1.6,10.5,5.5,13.8,8.7c4.1,4,11.4,15.3,13.4,19.4
			c0.3,0.6,0.6,1.2,0.9,1.8c1,2,2,4.1,3,6c1.5,2.7,3.7,5,5.9,7.3c1.8,1.9,3.8,3.8,6.1,5.3c7.6,5.1,17.3,5.1,26.7,5.1h1
			c0,0,0,0,0.1,0c5.5,0,23.9,0.1,33.3,2L939.3,355.2z"/>
	</g>
	<g>
		<path class="st1" d="M798.7,348.2l-0.1-0.7c4.4-0.8,11.7-5.7,14.9-10c7.9-10.7,8.2-16.5,8.6-27c0-1.1,0.1-2.3,0.2-3.5
			c0-0.7,0-1.4,0.1-2.2c0-1,0-2,0.1-3c0.1-0.9,0.2-1.9,0.5-3.2c0.6-2.7,1.9-4.4,3.7-4.9c1.7-0.4,4.6,0.3,5.4,0.6
			c3.9,1.4,8.9,3.9,16.1,12.2l-0.6,0.5c-8.1-9.2-13.3-11.1-15.8-11.9c-0.9-0.3-3.6-0.9-5-0.6c-2,0.5-2.8,2.9-3.1,4.3
			c-0.3,1.2-0.4,2.2-0.5,3.1c-0.1,1-0.1,2-0.1,2.9c0,0.7,0,1.5-0.1,2.2c-0.1,1.2-0.1,2.4-0.2,3.5c-0.5,10.7-0.7,16.6-8.8,27.4
			C811.1,341.9,803.8,347.2,798.7,348.2z"/>
	</g>
	<g>
		<path class="st1" d="M692.7,375.8c-0.8,0-1.6,0-2.4,0c-4.4-0.1-9.3-0.1-14,0c-4.7,0-9.6,0-14,0V375c4.4,0.1,9.3,0.1,14,0
			c4.7,0,9.6,0,14,0c13.2,0.3,19-1.5,34.3-6.2c10.6-3.2,21.3-8.2,31-14.3c9.2-5.8,20.2-7.8,29.8-9.2c7.1-1,15.2-2.2,19.8-7.9
			c2.2-2.7,5-6.9,6.2-10.9c3-9.5,2.7-12.7,2.1-22.1l-0.1-0.7c-0.1-1.7-0.2-7.2,1-9.1c1.3-2.2,4-3.5,7.3-3.5c0.1,0,0.1,0,0.2,0
			c4.3,0,8.3,2,11.6,3.8l-0.4,0.7c-3.3-1.8-7.1-3.7-11.3-3.7c0,0-0.1,0-0.2,0c-3,0-5.5,1.2-6.7,3.2c-1,1.7-1,6.7-0.9,8.7l0.1,0.7
			c0.7,9.5,0.9,12.6-2.1,22.3c-1.3,4.1-4.1,8.5-6.3,11.2c-4.8,5.9-13,7.1-20.3,8.1c-9.5,1.4-20.4,3.4-29.5,9.1
			c-9.7,6.1-20.5,11.1-31.2,14.3C710.4,374,704.4,375.8,692.7,375.8z"/>
	</g>
	<g>
		<path class="st1" d="M694,370.3c-1.7,0-3.3-0.1-4.9-0.2c-2.7-0.1-5.4-0.4-8.3-0.6c-6.1-0.5-12.5-1.1-18.4-0.6l-0.1-0.7
			c6-0.5,12.4,0.1,18.6,0.6c2.9,0.2,5.6,0.5,8.3,0.6c2.5,0.1,5.1,0.2,7.7,0.1c2.8-0.2,5.7-0.8,8.4-1.4c15.4-3.2,31.2-6.4,44.9-14.7
			c1.6-1,3.2-2,4.7-3c3.2-2.1,6.6-4.3,10.2-5.9c5.4-2.3,11.2-3.2,17.7-4c3.1-0.4,6-0.8,8.7-2.2c6.8-3.5,8.1-6.9,9.8-11.5l0.1-0.2
			c2.5-6.9,3.2-14.9,2-23.9c-0.1-0.5-0.1-0.9-0.2-1.4c-0.6-4.1-1.3-8.8,1.8-11.6c2.1-1.9,5.3-2.4,9.9-1.5c3.4,0.7,9.2,2.6,12.1,3.8
			l-0.3,0.7c-2.8-1.2-8.7-3-12-3.7c-4.3-0.9-7.4-0.5-9.3,1.3c-2.8,2.6-2.1,7-1.6,11c0.1,0.5,0.1,1,0.2,1.4
			c1.2,9.1,0.5,17.2-2.1,24.3l-0.1,0.2c-1.7,4.6-3,8.2-10.1,11.9c-2.8,1.4-5.8,1.9-8.9,2.3c-6.4,0.8-12.1,1.7-17.5,4
			c-3.6,1.5-6.9,3.7-10.1,5.8c-1.5,1-3.1,2.1-4.7,3c-13.8,8.3-29.8,11.6-45.2,14.8c-2.8,0.6-5.6,1.2-8.5,1.4
			C695.9,370.2,695,370.3,694,370.3z"/>
	</g>
	<g>
		<path class="st1" d="M691.2,363.6c-4.1,0-8.2-0.3-12.3-0.6c-5.5-0.4-11.3-0.8-16.5-0.4l-0.1-0.7c5.3-0.4,11.1,0,16.7,0.4
			c8.8,0.6,17.8,1.3,25.7-1.1c7.6-2.3,13.9-3,19-3.6c2.6-0.3,4.9-0.6,6.9-1c6.7-1.4,13-4.8,19-8.1c5.8-3.2,11.8-6.4,18.3-8
			c2.2-0.5,4.5-0.9,6.7-1.2c2.3-0.3,4.7-0.7,7-1.3c3.7-0.9,8.6-2.9,11.3-7.1c1.7-2.8,2.2-6.1,2.5-9.4c0.7-8,0.1-16.1-1.6-24v-0.1
			c-0.8-3.7-1.8-7.9,0.5-11c3.2-4.2,9.3-2.5,13.3-1.4c2.6,0.7,6.5,2.3,9.6,3.5c1,0.4,1.9,0.7,2.6,1l-0.3,0.7c-0.8-0.3-1.7-0.7-2.7-1
			c-3.1-1.2-7-2.7-9.6-3.5c-4.9-1.4-9.9-2.4-12.5,1.1c-2.1,2.8-1.2,6.9-0.4,10.4v0.1c1.8,7.9,2.3,16.1,1.7,24.2
			c-0.3,3.3-0.8,6.8-2.6,9.7c-2.8,4.4-7.9,6.5-11.7,7.5c-2.3,0.6-4.8,0.9-7.1,1.3c-2.2,0.3-4.5,0.7-6.7,1.2
			c-6.4,1.5-12.4,4.8-18.2,7.9c-6.1,3.3-12.3,6.7-19.2,8.2c-2,0.4-4.3,0.7-6.9,1c-5,0.6-11.3,1.3-18.8,3.6
			C700.5,363.1,695.9,363.6,691.2,363.6z"/>
	</g>
	<g>
		<path class="st1" d="M662.3,357.4v-0.8h39c2.5,0,5.1,0,7.6-0.5c1.6-0.3,3.2-0.8,4.7-1.3c0.7-0.2,1.5-0.5,2.2-0.7
			c3.5-1,7.2-1.6,10.7-2.1c4.7-0.7,9.5-1.5,13.9-3.2c3.2-1.3,6.3-3,9.3-4.8s6.1-3.6,9.5-4.9c2.5-1,5.1-1.6,7.6-2.2
			c1.8-0.5,3.6-0.9,5.4-1.5c5.2-1.7,8.8-4,10.9-7.1c2.4-3.4,3-7.7,3.3-11.4c0.7-8.7-0.1-17.3-2.4-25.7c-1-3.8-1.6-7.7,1-9.8
			c1.5-1.2,3.7-1.3,5.3-1.1c4.3,0.3,12.2,2.8,16.1,4.3l-0.3,0.7c-4.2-1.6-12-4-15.9-4.3c-1.5-0.1-3.5-0.1-4.8,1
			c-2.3,1.8-1.8,5.4-0.8,9c2.3,8.5,3.1,17.2,2.4,26c-0.3,3.8-1,8.2-3.5,11.8c-2.3,3.2-6,5.6-11.3,7.3c-1.8,0.6-3.7,1-5.5,1.5
			c-2.5,0.6-5.1,1.3-7.5,2.2c-3.3,1.3-6.4,3.1-9.4,4.8c-3,1.7-6.1,3.6-9.4,4.8c-4.5,1.8-9.4,2.5-14,3.2c-3.5,0.5-7.1,1.1-10.6,2.1
			c-0.7,0.2-1.5,0.4-2.2,0.7c-1.6,0.5-3.2,1-4.8,1.3c-2.5,0.5-5.2,0.5-7.7,0.5L662.3,357.4z"/>
	</g>
	<g>
		<path class="st1" d="M662.4,322.3l-0.1-0.7c4.8-0.7,10.9-0.9,17.3-1c7.3-0.2,14.8-0.4,20.3-1.4c2.7-0.5,5.6-0.8,8.4-1
			c5.2-0.5,10.7-1.1,15.2-2.9c4.7-1.9,13.9-7.9,17.4-12.1c3.1-3.7,7.5-9.1,9.4-13.6c2.1-5.1,7.5-17.5,12.4-23.8c2-2.6,4.3-5.4,6.2-5
			c1.1,0.3,1.2,1.1,1.5,2.2c0.1,0.5,0.2,1.2,0.5,1.9c0.4,1.3,3.1,6.5,6,9.1l-0.5,0.6c-3-2.6-5.8-8.1-6.2-9.4c-0.3-0.8-0.4-1.5-0.5-2
			c-0.2-1.1-0.3-1.5-0.9-1.6c-1.6-0.4-4.2,3.1-5.5,4.7c-4.8,6.2-10.2,18.6-12.3,23.6c-1.9,4.6-6.4,10.1-9.5,13.8
			c-3.7,4.3-12.8,10.4-17.7,12.3c-4.7,1.8-10.1,2.4-15.4,2.9c-2.9,0.3-5.7,0.6-8.3,1c-5.6,1-13.2,1.2-20.5,1.4
			C673.2,321.5,667.2,321.7,662.4,322.3z"/>
	</g>
	<g>
		<path class="st1" d="M713.2,351.3c-3.4,0-6.7-0.3-10-0.6c-1-0.1-2-0.2-3.1-0.3c-12.7-1-27.2-0.9-37.8,0.3l-0.1-0.7
			c10.6-1.2,25.2-1.3,37.9-0.3c1,0.1,2.1,0.2,3.1,0.3c3.5,0.3,7.1,0.6,10.7,0.6c10-0.1,19.9-3.3,28.1-9c0.4-0.3,0.9-0.6,1.3-0.9
			c1.3-0.9,2.7-1.9,4.1-2.7c2.7-1.4,5.6-2.1,8.5-2.7c3.1-0.7,6.3-1.4,9-3c4.7-2.7,8.1-8,10.4-16.1c0.5-1.8,1.1-4.1,1.3-6.5
			c0.2-2.5-0.1-5.1-0.3-7.6c-0.1-0.6-0.1-1.3-0.2-1.9c-0.2-2.1-0.5-3.9-0.7-5.5c-0.6-3.9-1-7-0.2-12.1c0.1-0.6,0.6-3.4,2.4-4.9
			c1.3-1.1,3.9-1.1,4.6-0.9c1,0.3,2,0.6,2.9,0.9c3.4,1.1,6.3,2,9.9,3.5l-0.3,0.7c-3.5-1.5-6.4-2.4-9.8-3.5c-0.9-0.3-1.9-0.6-2.9-0.9
			c-0.5-0.2-2.8-0.2-3.9,0.7c-1.5,1.3-2,3.9-2.1,4.4c-0.8,5-0.4,8,0.2,11.9c0.2,1.6,0.5,3.4,0.7,5.6c0.1,0.6,0.1,1.3,0.2,1.9
			c0.3,2.5,0.5,5.1,0.3,7.7c-0.2,2.5-0.8,4.9-1.3,6.7c-2.4,8.3-5.9,13.7-10.8,16.6c-2.8,1.7-6.1,2.4-9.2,3.1
			c-2.8,0.6-5.7,1.3-8.3,2.6c-1.4,0.7-2.8,1.7-4.1,2.6c-0.4,0.3-0.9,0.6-1.3,1c-8.3,5.7-18.4,9-28.5,9.1
			C713.7,351.3,713.5,351.3,713.2,351.3z"/>
	</g>
	<g>
		<path class="st1" d="M696.9,344.8c-4,0-8.3-0.2-12.5-0.4c-7.8-0.4-16-0.8-22,0.2l-0.1-0.7c6.1-1,14.3-0.6,22.2-0.2
			c6.4,0.3,13.1,0.7,18.4,0.2c1.8-0.2,3.7-0.4,5.5-0.7c2.3-0.4,4.7-0.7,7.1-0.8c1.6-0.1,3.2,0,4.8,0c3.8,0.1,7.8,0.2,11.2-1.3
			c2.1-0.9,4-2.5,5.7-4c2-1.7,4.1-3.4,6.7-4.4c0.8-0.3,1.6-0.5,2.4-0.7c1.1-0.3,2.1-0.5,3.1-1c4.3-2.1,13.4-8.8,14.9-15.2
			c0.1-0.4,0.2-0.8,0.3-1.1c0.2-0.8,0.4-1.6,0.5-2.4c0.3-2.5,0.6-4.9,1-7.2c0.9-6.4,1.7-12.4,1.8-18.9c0-2.6,0.1-6.3,1.2-8.7
			c1.1-2.4,3.3-4.7,6.2-3.9c1,0.3,2.2,0.9,3.2,1.4c0.4,0.2,0.8,0.4,1.2,0.6s0.7,0.3,1,0.5c1,0.5,1.9,1,4,1.6l-0.2,0.7
			c-2.2-0.6-3.2-1.1-4.2-1.6c-0.3-0.2-0.6-0.3-0.9-0.5c-0.4-0.2-0.8-0.4-1.2-0.6c-1-0.5-2.1-1.1-3.1-1.3c-2.4-0.7-4.4,1.4-5.3,3.5
			c-1.1,2.3-1.1,5.9-1.1,8.4c-0.1,6.6-0.9,12.6-1.8,19c-0.3,2.3-0.7,4.8-1,7.2c-0.1,0.9-0.3,1.7-0.5,2.5c-0.1,0.4-0.2,0.7-0.3,1.1
			c-1.6,6.7-10.7,13.6-15.3,15.7c-1,0.5-2.2,0.8-3.3,1.1c-0.8,0.2-1.6,0.4-2.3,0.7c-2.4,0.9-4.5,2.6-6.4,4.2
			c-1.8,1.5-3.7,3.1-5.9,4.1c-3.6,1.6-7.7,1.5-11.6,1.4c-1.5,0-3.2-0.1-4.7,0c-2.3,0.1-4.7,0.5-7,0.8c-1.8,0.3-3.7,0.6-5.6,0.7
			C701,344.8,699,344.8,696.9,344.8z"/>
	</g>
	<g>
		<path class="st1" d="M691.3,337.2c-3.9,0-8.3-0.3-12.6-0.6c-6.7-0.5-13-1-16.3,0l-0.2-0.7c3.4-1,9.8-0.5,16.5,0
			c7,0.5,14.2,1.1,19.2,0.2c5.5-1,11.4-1.4,16.7-1.7c4.2-0.3,7.9-0.5,10.4-1c8.4-1.6,17-7,21.2-9.7c6.4-4.1,10.7-10.7,11.5-17.6
			c0.1-1.1,0.5-2.6,0.9-4.2c0.4-1.8,0.9-3.7,1-5.1c0.3-5.2,1.8-10.2,3.3-15l0.2-0.7c1.1-3.6,2.9-9.7,6.3-10.8c2-0.7,4.2,0.9,6.9,3.4
			l-0.5,0.5c-2.1-2-4.3-3.8-6.1-3.2c-3,1-4.8,6.8-5.8,10.3l-0.2,0.7c-1.5,4.8-3,9.7-3.3,14.8c-0.1,1.4-0.5,3.3-1,5.2
			c-0.4,1.5-0.7,3-0.8,4.1c-0.8,7.2-5.2,13.9-11.8,18.1c-4.2,2.7-12.8,8.2-21.4,9.8c-2.6,0.5-6.3,0.7-10.5,1
			c-5.2,0.3-11.2,0.7-16.6,1.7C696.1,337,693.8,337.2,691.3,337.2z"/>
	</g>
	<g>
		<path class="st1" d="M688.7,328.8c-3,0-6.1-0.1-9.2-0.3c-5.9-0.3-12-0.5-17.1,0.2l-0.1-0.7c5.2-0.7,11.3-0.5,17.3-0.2
			c7.3,0.3,14.8,0.6,21.1-0.9c3-0.7,6.1-0.9,9.1-1.1c2-0.1,4-0.3,6-0.6c1-0.1,2-0.3,3.1-0.4c4.4-0.6,9.4-1.2,13-2.7
			c2-0.8,5.9-2.7,7.8-4.1c1.4-1,3.5-4.1,5-6.3c0.8-1.2,1.5-2.2,2-2.7c2.2-2.5,3.3-5.9,4.4-9.1l1.2-3.6c2.7-7.8,5.7-16.7,10.2-23.5
			l0.4-0.7c1.4-2.2,3.5-5.5,5.6-6.1c2.4-0.8,3.8,1.6,5.2,3.9c1,1.7,2,3.4,3.5,4.3l-0.4,0.7c-1.6-0.9-2.7-2.8-3.7-4.5
			c-1.3-2.2-2.5-4.2-4.3-3.6s-4,3.9-5.2,5.8l-0.4,0.7c-4.5,6.8-7.5,15.6-10.1,23.4l-1.2,3.6c-1.1,3.3-2.2,6.7-4.5,9.3
			c-0.4,0.5-1.1,1.5-1.9,2.6c-1.7,2.4-3.8,5.4-5.2,6.5c-1.9,1.4-5.9,3.4-7.9,4.2c-3.8,1.5-8.8,2.1-13.2,2.7c-1.1,0.1-2.1,0.3-3,0.4
			c-2,0.3-4.1,0.4-6.1,0.6c-2.9,0.2-6,0.4-8.9,1.1C697.1,328.5,693,328.8,688.7,328.8z"/>
	</g>
	<g>
		<path class="st1" d="M781,276.9c-3.3-3.6-6.5-9.6-3.3-17.3c2.1-5.2,3.8-7.6,5.1-9.5c0.4-0.6,0.8-1.2,1.1-1.7
			c0.4-0.7,0.5-1.2,0.5-1.4c0,0-0.1,0-0.3,0.1c-3.1,1.5-16,11.9-19.4,17.4l-0.6-0.4c3.4-5.6,16.5-16.2,19.7-17.7
			c0.5-0.3,1-0.3,1.2,0c0.5,0.6-0.1,1.9-0.4,2.3c-0.3,0.6-0.7,1.1-1.2,1.8c-1.2,1.8-2.9,4.2-5,9.3c-3,7.4,0.1,13.1,3.2,16.5
			L781,276.9z"/>
	</g>
	<g>
		<path class="st1" d="M662.3,316.7V316c3.3,0,7.7-0.2,12-0.4c4-0.2,8.1-0.4,11.1-0.4c7.3,0,26.5-2.8,28.8-3.2
			c3.9-0.8,7.9-1.7,11.3-2.8c4.7-1.6,7.7-4.2,10.7-7.8c6.3-7.4,12.9-15.1,17.6-23.8c1.2-2.3,2.6-4.5,4-6.6l0.3-0.5
			c2.1-3.2,6.8-8.8,10.9-12.2l0.5,0.6c-4,3.3-8.7,8.9-10.8,12.1l-0.3,0.5c-1.4,2.1-2.8,4.3-4,6.6c-4.7,8.8-11.3,16.5-17.6,24
			c-3.1,3.7-6.2,6.4-11,8c-3.4,1.1-7.5,2-11.4,2.8c-2.3,0.5-21.6,3.2-29,3.3c-3.1,0-7.1,0.2-11.1,0.4
			C670.1,316.5,665.6,316.7,662.3,316.7z"/>
	</g>
	<g>
		<path class="st1" d="M788.6,279.5c-6.4-2.7-7-14.6-6.6-17.5c0.4-2.6,1.5-10.6,12.6-19.8l0.3-0.2c0.3-0.2,1.3-1,1.2-1.3
			c-0.2-0.1-0.4-0.2-0.7-0.2c-1.1-0.1-12,6.4-13.7,8l-0.5-0.5c1.5-1.4,12.7-8.3,14.3-8.2c0.3,0,0.7,0.1,1.1,0.3
			c0.3,0.2,0.3,0.4,0.3,0.6c0,0.6-0.7,1.2-1.5,1.9l-0.2,0.2c-10.9,9-12,16.7-12.4,19.3c-0.4,2.7,0.2,14.3,6.1,16.7L788.6,279.5z"/>
	</g>
	<g>
		<path class="st1" d="M774.2,272.3c-1.2-1.8-1.7-3.8-2.2-5.7c-0.6-2.3,0.8-6.7,1.2-8c0.2-0.7,0.6-1.4,1-2.2c0.5-0.9,1.2-2.5,1-2.8
			c-0.1,0-0.5,0.4-0.7,0.5s-0.3,0.2-0.4,0.3l-0.4-0.6c0.1-0.1,0.2-0.2,0.3-0.3c0.5-0.4,1.1-0.9,1.6-0.6c0.8,0.5,0.1,1.9-0.8,3.7
			c-0.4,0.7-0.7,1.5-1,2.1c-0.9,2.6-1.7,5.9-1.2,7.6c0.5,1.8,1,3.7,2.1,5.5L774.2,272.3z"/>
	</g>
	<g>
		<path class="st1" d="M795.8,282.1c-2.4-2.2-6.5-6.5-7.5-10.8c-0.1-0.5-0.2-0.9-0.4-1.4c-1-3.6-2-7.7,3.2-17
			c5.3-9.5,9.7-12.9,12-14.8c0.6-0.5,1.1-0.9,1.5-1.2c0.5-0.5,0.7-0.9,0.8-1.1c-0.2,0-0.9,0.2-2.6,1.1c-1.4,0.7-2.2,1.1-4.5,2.2
			l-4.2,2l-0.3-0.7l4.2-2c2.4-1.2,3.1-1.5,4.5-2.2c2.7-1.4,3.4-1.3,3.6-0.9c0.2,0.3,0.3,0.8-0.9,2.1c-0.4,0.4-0.9,0.8-1.5,1.3
			c-2.5,2-6.6,5.3-11.9,14.6c-5.1,9-4,13-3.1,16.5c0.1,0.5,0.3,1,0.4,1.4c0.9,4.1,5,8.3,7.3,10.4L795.8,282.1z"/>
	</g>
	<g>
		<path class="st1" d="M806.3,285.4c-14.7-8-14-22.3-12.7-26.6c1.2-3.9,2-6,4.6-10c0.5-0.8,3-4.3,4.6-5.9c6.5-6.3,5.7-10,5.7-10
			l0.7-0.2c0,0.2,0.9,4.1-5.9,10.7c-1.6,1.6-4,5-4.5,5.8c-2.6,4-3.3,5.9-4.6,9.8c-1.3,4.2-1.9,18,12.3,25.7L806.3,285.4z"/>
	</g>
	<g>
		<path class="st1" d="M662.3,383.7v-0.8c2.8-0.1,6.2-0.2,9.6-0.2c3.3-0.1,6.7-0.2,9.5-0.2c2.5-0.1,5-0.1,7.4-0.7
			c1.2-0.3,2.4-0.6,3.5-1c1.2-0.4,2.4-0.8,3.7-1.1c3.2-0.7,6.4-0.6,9.6-0.4c3.1,0.1,6.2,0.3,9.2-0.4c1.8-0.4,3.6-1.1,5.3-1.8
			c0.8-0.4,1.7-0.7,2.6-1c2.3-0.8,4.6-1.6,7-2.4c8.4-2.7,17-5.6,26.1-12.5l0.5,0.6c-9.2,6.9-17.9,9.8-26.3,12.6
			c-2.4,0.8-4.7,1.5-7,2.4c-0.9,0.3-1.7,0.7-2.6,1c-1.7,0.7-3.5,1.5-5.4,1.9c-3.1,0.6-6.3,0.5-9.4,0.4c-3.1-0.1-6.4-0.3-9.4,0.4
			c-1.2,0.3-2.4,0.7-3.6,1.1c-1.2,0.4-2.3,0.8-3.6,1c-2.5,0.6-5.1,0.6-7.6,0.7c-2.8,0.1-6.2,0.2-9.5,0.2
			C668.6,383.5,665.2,383.6,662.3,383.7z"/>
	</g>
	<g>
		<path class="st1" d="M662.3,388.7v-0.8c8.5,0,19.5-0.6,33.5-1.7l6.9-0.5c3.4-0.3,6.9-0.5,10.1-1.6c1.1-0.4,2.3-0.9,3.3-1.4
			s2.1-0.9,3.2-1.3c2.3-0.8,4.8-1.3,7.3-1.7c4.6-0.9,9-1.7,12.2-4.7c1.3-1.2,2.6-2.2,4-3.4c1.6-1.2,3.3-2.6,5.7-4.7l0.5,0.6
			c-2.4,2.1-4.2,3.5-5.8,4.8c-1.5,1.2-2.7,2.1-4,3.3c-3.4,3.2-8.1,4.1-12.6,4.9c-2.4,0.4-4.9,0.9-7.2,1.7c-1,0.4-2.1,0.8-3.1,1.3
			c-1.1,0.5-2.2,1-3.4,1.4c-3.3,1.1-6.9,1.4-10.3,1.7l-6.9,0.5C681.9,388.1,670.9,388.6,662.3,388.7z"/>
	</g>
	<g>
		<path class="st1" d="M685.3,395.6c-2.8,0-5.9-0.3-8.8-0.6c-4.9-0.5-9.9-1-14.1-0.1l-0.2-0.7c4.3-0.9,9.4-0.4,14.3,0.1
			c4.6,0.5,9.4,1,13.3,0.2c1.3-0.2,2.7-0.6,4-1s2.7-0.8,4-1c2.1-0.4,4.3-0.4,6.4-0.5c2.8-0.1,5.6-0.1,8.2-1c1.2-0.4,2.4-0.9,3.5-1.4
			c1.2-0.5,2.4-1.1,3.6-1.4c1.4-0.4,2.8-0.7,4.2-1c2.7-0.6,5.3-1.1,7.5-2.5c2.9-1.9,4.5-4,6.4-6.5l0.7-0.9l0.6,0.5l-0.7,0.9
			c-1.8,2.4-3.6,4.8-6.6,6.7c-2.4,1.5-5.1,2.1-7.8,2.6c-1.4,0.3-2.8,0.6-4.1,1c-1.2,0.4-2.4,0.9-3.5,1.4c-1.2,0.5-2.4,1.1-3.6,1.5
			c-2.7,0.8-5.6,0.9-8.4,1c-2.1,0.1-4.2,0.1-6.3,0.5c-1.3,0.2-2.7,0.6-4,1s-2.7,0.8-4.1,1C688.6,395.5,687,395.6,685.3,395.6z"/>
	</g>
	<g>
		<path class="st1" d="M662.4,400.4l-0.1-0.7c7.1-1.3,17.7-1.8,25.6-1.2c1.4,0.1,2.8,0.2,4.2,0.3c5.5,0.5,11.1,1,16.4-0.4
			c1.1-0.3,2.1-0.6,3.1-1c1.2-0.4,2.4-0.8,3.7-1.1c1.2-0.3,2.5-0.5,3.7-0.7c2.5-0.4,4.9-0.7,7-1.9c3.5-1.9,7.2-6.8,9-10.6l0.7,0.3
			c-1.9,3.9-5.7,8.9-9.3,10.9c-2.2,1.2-4.8,1.6-7.2,2c-1.2,0.2-2.5,0.4-3.7,0.6c-1.2,0.3-2.5,0.7-3.6,1.1c-1,0.4-2.1,0.7-3.2,1
			c-5.4,1.4-11.2,0.9-16.7,0.4c-1.4-0.1-2.8-0.2-4.1-0.3C679.9,398.7,669.5,399.2,662.4,400.4z"/>
	</g>
</g>
</svg>
