<?xml version="1.0" encoding="utf-8"?>
<!-- Generator: Adobe Illustrator 23.0.2, SVG Export Plug-In . SVG Version: 6.00 Build 0)  -->
<svg version="1.1" id="Capa_1" xmlns="http://www.w3.org/2000/svg" xmlns:xlink="http://www.w3.org/1999/xlink" x="0px" y="0px"
	 viewBox="0 0 1920 1080" style="enable-background:new 0 0 1920 1080;" xml:space="preserve">
<style type="text/css">
	.st0{fill:#33CCCC;}
	.st1{fill:#F9F4F2;}
</style>
<rect class="st0" width="1920" height="1080"/>
<path class="st1" d="M1773.2,909.5c-3.7-1.7-7.7-3.1-10-6.5c-1.2-1.8-1.8-4.2-1.4-6.4c0.1-0.5,0.2-1.1,0.6-1.5
	c0.3-0.4,0.8-0.5,1.3-0.7c3-0.7,6.1,0.9,8.8,2.4c4.3,2.5,8.7,4.9,12.3,8.4c5.6,5.4,9.5,14,8.7,21.9c-3-2.9-4.4-6.7-7.7-9.7
	C1782.1,914.3,1777.8,911.6,1773.2,909.5z"/>
<path class="st1" d="M1776.8,922.6c-0.3-0.4-0.5-0.8-0.9-1.1c-0.5-0.4-1.2-0.5-1.9-0.6c-1.1-0.1-2.4,0-3.1,0.8
	c-0.9,1.1-0.5,2.8,0.5,3.8s2.5,1.4,3.8,1.8c0.9,0.2,5,1.5,5,0.9s-1.6-2.7-1.9-3.2C1777.7,924.2,1777.3,923.4,1776.8,922.6z"/>
<path class="st1" d="M1774.9,886.4c-0.4-0.5-0.8-1.1-0.8-1.7c0-1,0.9-1.9,1.9-2s2,0.3,2.8,0.9c1,0.8,3.4,4.3,1.9,5.5
	C1779.4,890.1,1775.7,887.4,1774.9,886.4z"/>
<path class="st1" d="M1737.6,880.3c-0.5-0.3-1-0.7-1.2-1.3c-0.3-0.9,0.3-2,1.1-2.4c0.9-0.4,1.9-0.4,2.8,0c1.2,0.4,3.9,3.7,3.4,4.3
	C1743.2,881.6,1738.6,880.9,1737.6,880.3z"/>
<path class="st1" d="M1857.8,880.7c0.4-0.6,0.7-1.4,0.6-2.1c-0.1-1.2-1.2-2.2-2.3-2.2c-1.1-0.1-2.2,0.6-3,1.4
	c-1,1.1-3.3,5.5-1.4,6.8C1853.3,885.6,1857.1,881.9,1857.8,880.7z"/>
<path class="st1" d="M1843.4,833.7c0.4-0.6,0.7-1.4,0.6-2.1c-0.1-1.2-1.2-2.2-2.3-2.2c-1.1-0.1-2.2,0.6-3,1.4
	c-1,1.1-3.3,5.5-1.4,6.8C1838.9,838.6,1842.6,834.9,1843.4,833.7z"/>
<path class="st1" d="M1837,921.2c2.3-7.7,6.4-14.3,12.2-19.9c1.5-1.5,3.4-2.9,5.5-2.6c2.5,0.3,4.1,3.3,3.7,5.8s-2.3,4.6-4.4,6
	s-4.5,2.5-6.5,4c-2.4,1.8-4.3,4.1-6.2,6.4c-0.7,0.9-3.1,5-4.3,4.7C1836.3,925.5,1836.7,922.3,1837,921.2z"/>
<path class="st1" d="M1845,924.9c1.1-1.7,2.6-3.2,4.6-3.5c0.6-0.1,1.3,0,1.9,0.3s0.9,1,0.8,1.6s-0.6,1-1,1.4c-1.6,1.4-3.2,2.9-5,4
	c-0.9,0.5-3.3,2.3-3.6,0.6C1842.5,928.2,1844.5,925.8,1845,924.9z"/>
</svg>
