<?xml version="1.0" encoding="utf-8"?>
<!-- Generator: Adobe Illustrator 23.0.2, SVG Export Plug-In . SVG Version: 6.00 Build 0)  -->
<svg version="1.1" id="Capa_1" xmlns="http://www.w3.org/2000/svg" xmlns:xlink="http://www.w3.org/1999/xlink" x="0px" y="0px"
	 viewBox="0 0 1920 1080" style="enable-background:new 0 0 1920 1080;" xml:space="preserve">
<style type="text/css">
	.st0{fill:#33CCCC;}
</style>
<g>
	<path class="st0" d="M1916.9,343.9c-19,0-36-2-53.9-4.2c-29-3.5-59-7-101.7-2.5c-29.4,3.1-59.4,0.6-88.5-1.8l-1.1-0.1
		c-4.5-0.4-9-0.8-13.3-1.2c-9.8-0.9-20-1.9-30-2.2c-21.3-0.6-42.9,2.1-63.7,4.7c-21.3,2.6-43.3,5.3-65.1,4.6
		c-10-0.3-20-1.4-29.8-2.4c-7.5-0.8-15.3-1.6-23-2.1c-22.6-1.4-45.5,0.1-67.7,1.5c-9.8,0.6-19.9,1.3-29.8,1.7
		c-34.8,1.4-68.5-1.8-101.1-4.8c-45.1-4.2-87.6-8.2-133.4-1.4l-0.1-0.7c45.8-6.9,88.5-2.9,133.6,1.4c32.5,3.1,66.2,6.2,101,4.8
		c9.9-0.4,20-1,29.8-1.7c22.2-1.4,45.2-2.9,67.8-1.5c7.7,0.5,15.5,1.3,23,2.1c9.7,1,19.8,2,29.7,2.4c21.7,0.7,43.7-2,65-4.6
		c20.9-2.6,42.5-5.2,63.8-4.7c10.1,0.3,20.2,1.2,30.1,2.2c4.4,0.4,8.9,0.9,13.3,1.2l1.1,0.1c29,2.4,59.1,4.9,88.4,1.8
		c42.8-4.5,72.8-1,101.9,2.5c18.7,2.2,36.4,4.3,56.5,4.1v0.8C1918.7,343.9,1917.8,343.9,1916.9,343.9z"/>
</g>
<g>
	<path class="st0" d="M1900.9,349.6c-18.2,0-35.1-2.4-51.5-4.7c-26.2-3.7-53.3-7.6-86.7-2.2c-16.8,2.7-39.6,0.7-59.8-1
		c-8.7-0.8-17-1.5-24.2-1.8c-33.4-1.4-66.4,0.4-104.1,5.8c-29.4,4.2-50.9,2.5-62.5,1.6c-2.2-0.2-4.1-0.3-5.7-0.4
		c-54.7-2.7-110.3-2.9-165-0.7c-3.3,0.1-6.6,0.3-9.9,0.4c-27.9,1.2-56.8,2.4-84.8-1.8c-5.5-0.8-11.1-1.9-16.5-2.9
		c-13.5-2.6-27.5-5.2-41.4-4.5c-10.3,0.5-21,2.5-31.4,4.5c-15.4,2.9-29.9,5.6-43,3.8l0.1-0.7c12.9,1.8,27.4-0.9,42.7-3.8
		c10.4-1.9,21.1-4,31.5-4.5c14-0.7,28,1.9,41.6,4.5c5.4,1,11,2.1,16.5,2.9c28,4.2,56.8,3,84.7,1.8c3.3-0.1,6.6-0.3,9.9-0.4
		c54.8-2.2,110.3-2,165.1,0.7c1.5,0.1,3.5,0.2,5.7,0.4c11.5,0.9,33,2.6,62.4-1.6c37.7-5.4,70.8-7.2,104.2-5.8
		c7.2,0.3,15.5,1,24.2,1.8c20.1,1.8,42.9,3.7,59.6,1c33.5-5.4,60.7-1.6,86.9,2.2c22.9,3.2,44.5,6.3,70.1,3.8l0.1,0.7
		C1913.2,349.4,1907,349.6,1900.9,349.6z"/>
</g>
<g>
	<path class="st0" d="M1540.5,358.8c-14.1,0-28.2-1.6-42-3.2c-12.6-1.5-25.6-3-38.4-3.2c-13.7-0.3-27.5,0.9-40.9,2
		c-6.5,0.5-13.2,1.1-19.8,1.5c-35.3,2.1-71.3-0.4-106.1-2.8c-43-3-87.5-6-130.9-0.4c-3.5,0.4-7,1-10.4,1.5
		c-11.9,1.9-24.2,3.8-36.3,1.5l0.1-0.7c12,2.3,24.2,0.3,36-1.5c3.4-0.5,7-1.1,10.5-1.5c43.5-5.6,88-2.5,131.1,0.4
		c34.8,2.4,70.8,4.9,106,2.8c6.6-0.4,13.3-1,19.8-1.5c13.4-1.1,27.3-2.3,41-2c12.9,0.2,25.9,1.8,38.5,3.2c19,2.2,38.7,4.5,58,2.4
		c6.8-0.7,13.6-2,20.2-3.2c6.1-1.1,12.5-2.3,18.8-3.1c24.8-2.9,48.3-1.6,73.2-0.3c9.4,0.5,19.1,1,28.8,1.3
		c11.3,0.3,25.8-0.7,41.2-1.8c16.1-1.1,32.7-2.3,48.8-2.2c22.2,0.1,44.7,2,66.4,3.9c23.5,2,45.7,4,65.5,3.3v0.8
		c-19.9,0.6-42.1-1.3-65.6-3.4c-21.7-1.9-44.2-3.8-66.4-3.9c-16.1,0-32.7,1.1-48.8,2.2c-15.4,1.1-29.9,2.1-41.2,1.8
		c-9.7-0.3-19.4-0.8-28.8-1.3c-24.9-1.4-48.3-2.6-73.1,0.3c-6.3,0.7-12.6,1.9-18.8,3.1c-6.6,1.2-13.4,2.5-20.3,3.2
		C1551.3,358.5,1545.9,358.8,1540.5,358.8z"/>
</g>
<g>
	<path class="st0" d="M1533.2,370c-9.5,0-19.1-1.5-28.3-3c-4.1-0.6-8.2-1.3-12.4-1.8c-21.3-2.7-43.1-2.1-64.2-1.5L1319,367
		c-14.3,0.4-29.1,0.9-43.5-1.6c-4.4-0.8-8.8-1.8-13.1-2.9c-5.2-1.3-10.6-2.6-16-3.3c-23.2-3.3-49-0.8-74,1.7
		c-21.4,2.1-41.5,4.1-56.9,1.9l0.1-0.7c15.3,2.3,35.4,0.3,56.7-1.9c25-2.5,50.8-5.1,74.1-1.7c5.4,0.8,10.8,2.1,16.1,3.3
		c4.3,1,8.7,2.1,13.1,2.9c14.3,2.5,29.1,2.1,43.3,1.6l109.4-3.3c21.1-0.6,42.9-1.3,64.3,1.5c4.1,0.5,8.3,1.2,12.4,1.9
		c9.2,1.5,18.7,3,28.2,3c0.1,0,0.2,0,0.3,0c8.4,0,16.8-1.3,25-2.4c3.2-0.5,6.5-1,9.8-1.4c6.2-0.8,13-2.2,20.2-3.8
		c10.3-2.2,20.9-4.5,30.1-4.7c25.4-0.5,48.1,0.8,70,2s44.6,2.5,70,2c10.2-0.2,20.7-0.8,31.8-1.5c23.3-1.4,47.4-2.8,69.1-0.2
		c3,0.3,6.2,0.8,9.5,1.2c16.3,2.1,36.5,4.6,50.6,2.6l0.1,0.7c-14.2,2-34.5-0.5-50.8-2.6c-3.3-0.4-6.5-0.8-9.5-1.2
		c-21.6-2.5-45.7-1.1-68.9,0.3c-11.1,0.7-21.6,1.3-31.8,1.5c-25.4,0.5-48.1-0.8-70-2s-44.6-2.5-70-2c-9.1,0.2-19.7,2.5-30,4.7
		c-7.2,1.6-14,3-20.3,3.8c-3.3,0.4-6.6,0.9-9.8,1.4c-8.2,1.2-16.7,2.4-25.1,2.5C1533.4,370,1533.3,370,1533.2,370z"/>
</g>
<g>
	<path class="st0" d="M1532.5,379.2c-9.5,0-19-0.6-28.4-2c-37.6-5.6-74.2-4.2-109.6-2.8c-17.7,0.7-36,1.4-54.2,1.3
		c-29-0.3-59-0.5-88.4-3.3c-2.5-0.2-5-0.5-7.6-0.7c-10-1-20.3-2.1-30.5-1.9c-7.9,0.1-15.9,1-23.7,1.8c-4.9,0.5-9.9,1.1-14.9,1.4
		l-1.7,0.1c-19.1,1.4-38.9,2.8-58-1.5l0.2-0.7c19,4.2,38.7,2.8,57.8,1.4l1.7-0.1c5-0.4,10-0.9,14.9-1.4c7.8-0.8,15.8-1.7,23.7-1.8
		c10.2-0.2,20.6,0.9,30.6,1.9c2.5,0.3,5,0.5,7.6,0.7c29.4,2.8,59.4,3,88.4,3.3c18.2,0.2,36.5-0.6,54.2-1.3
		c35.4-1.4,72-2.9,109.7,2.8c26.9,4,54.7,1,81.5-1.9c2.2-0.2,4.4-0.5,6.6-0.7c6.7-0.7,13.5-2.2,20.1-3.6c8.9-1.9,18.1-3.9,27.3-4.1
		c17.6-0.4,34.2,1.4,50.3,3.1c14.8,1.5,30,3.1,46.1,3.1h0.1c9.1,0,19.8-1.2,30.2-2.3c4.8-0.5,9.3-1,13.4-1.4
		c23.8-2.1,45-0.4,67.5,1.3c21.8,1.7,44.3,3.4,72.2,2.2v0.7c-28,1.2-50.5-0.6-72.3-2.2c-22.4-1.7-43.6-3.4-67.4-1.3
		c-4.2,0.4-8.6,0.8-13.4,1.4c-10.4,1.1-21.2,2.3-30.3,2.3h-0.1c-16.1,0-31.4-1.6-46.2-3.1c-16.1-1.7-32.7-3.4-50.2-3.1
		c-9.1,0.2-18.3,2.1-27.1,4.1c-6.6,1.4-13.5,2.9-20.2,3.6c-2.2,0.2-4.4,0.5-6.6,0.7C1568.2,377.3,1550.3,379.2,1532.5,379.2z"/>
</g>
<g>
	<path class="st0" d="M1537.6,390.9c-17.2,0-34.5-2.2-51.4-4.4c-21.8-2.8-44.3-5.7-66.4-3.8c-5.8,0.5-11.7,1.3-17.4,2.1
		c-8.2,1.2-16.6,2.4-25,2.6c-11,0.3-22-1.1-32.8-2.4c-5.8-0.7-11.9-1.5-17.8-2c-7.3-0.6-14.7-0.2-21.9,0.1
		c-8.5,0.4-17.2,0.8-25.8-0.3c-37.9-4.8-73.7-2.9-102.5-1.4c-26.4,1.4-47.2,2.5-60.6-1.6l0.2-0.7c13.3,4.1,34.1,3,60.4,1.6
		c28.8-1.6,64.7-3.5,102.7,1.4c8.5,1.1,17.2,0.7,25.6,0.3c7.2-0.3,14.7-0.7,22-0.1c6,0.5,12,1.2,17.8,2c10.7,1.3,21.7,2.7,32.6,2.4
		c8.3-0.2,16.7-1.4,24.9-2.6c5.7-0.8,11.6-1.7,17.4-2.2c22.2-1.9,44.7,1,66.6,3.8c24.5,3.1,49.8,6.4,74.4,2.8
		c4.9-0.7,9.9-1.7,14.7-2.7c10.4-2.1,21.2-4.2,32-3.6c3.2,0.2,6.5,0.6,9.7,1c3.5,0.5,7.1,0.9,10.6,1.1c9.4,0.4,18.8-1.6,28-3.5
		c8.9-1.9,18.2-3.8,27.4-3.6c11.1,0.3,22,1.9,32.6,3.4c5.3,0.8,10.7,1.6,16.2,2.2c12.4,1.4,25.2-0.3,37.5-1.9c2.9-0.4,6-0.8,9-1.2
		c25.5-3,53.8-1.3,81.2,0.4c21.9,1.3,42.6,2.6,59.9,1.3l0.1,0.7c-17.4,1.3-38.1,0.1-60-1.3c-27.3-1.7-55.6-3.4-81-0.4
		c-3,0.4-6,0.8-9,1.2c-12.3,1.6-25.1,3.4-37.6,1.9c-5.5-0.6-11-1.4-16.2-2.2c-10.5-1.5-21.4-3.1-32.5-3.4
		c-9.2-0.2-18.3,1.7-27.2,3.6c-9.2,1.9-18.6,3.9-28.1,3.5c-3.6-0.1-7.2-0.6-10.7-1.1c-3.2-0.4-6.4-0.8-9.6-1
		c-10.7-0.6-21.4,1.6-31.8,3.6c-4.8,1-9.8,2-14.8,2.7C1553.2,390.4,1545.4,390.9,1537.6,390.9z"/>
</g>
<g>
	<path class="st0" d="M1593.8,400.5c-8.3,0-16.4-0.4-24.2-0.8c-14-0.7-28.2-1.7-42-2.6c-43.6-2.9-88.7-5.9-133-2.4
		c-3.4,0.3-6.7,0.6-10.1,0.9c-13.1,1.2-26.7,2.4-40,1.3c-8.8-0.7-17.6-2.5-26.1-4.1c-8.7-1.7-17.8-3.5-26.8-4.2
		c-15.4-1.2-31.1,0.9-46.3,2.8c-6.6,0.9-13.4,1.7-20.1,2.3c-36.1,3.3-72.6-0.9-107.9-5l0.1-0.7c35.3,4.1,71.7,8.3,107.8,5
		c6.7-0.6,13.5-1.5,20-2.3c15.2-2,30.9-4,46.4-2.8c9.1,0.7,18.1,2.5,26.9,4.2c8.5,1.7,17.3,3.4,26,4.1c13.3,1.1,26.8-0.1,39.9-1.3
		c3.4-0.3,6.7-0.6,10.1-0.9c44.3-3.4,89.4-0.4,133.1,2.4c13.8,0.9,28,1.9,42,2.6c12.1,0.6,25.1,1.2,38.2,0.4
		c9.7-0.6,19.6-2.8,29.2-5c14.1-3.2,28.6-6.4,42.9-4.6c13.9,1.7,27.3,2,43.2,1.8c2.8,0,5.5,0,8.2,0c10.2,0,19.8,0.1,29.7-1.9
		c21.8-4.3,42.9-5.9,62.5-4.6l3.6,0.2c30.7,2,62.5,4,92.5,8.8l-0.1,0.7c-30-4.8-61.7-6.8-92.4-8.8l-3.6-0.2
		c-19.6-1.3-40.6,0.3-62.3,4.6c-10,2-19.6,1.9-29.8,1.9c-2.7,0-5.5,0-8.2,0c-15.9,0.2-29.4,0-43.3-1.8c-14.2-1.8-28.7,1.5-42.7,4.6
		c-9.6,2.2-19.5,4.4-29.3,5C1603.2,400.4,1598.5,400.5,1593.8,400.5z"/>
</g>
<g>
	<path class="st0" d="M1340.5,408.7c-1.8,0-3.7,0-5.5-0.2c-9-0.5-18-2.5-26.7-4.3c-5.3-1.1-10.7-2.3-16.1-3.2
		c-20.9-3.3-42.5-1.9-63.4-0.5c-6.5,0.4-13.3,0.9-20,1.2c-30.3,1.3-60.9-0.4-90.8-5.1l0.1-0.7c29.9,4.7,60.4,6.4,90.7,5.1
		c6.6-0.3,13.4-0.7,20-1.2c20.9-1.4,42.6-2.8,63.6,0.5c5.4,0.9,10.9,2,16.2,3.2c8.7,1.9,17.6,3.8,26.6,4.3c11.8,0.7,23.7-1,35.2-2.7
		c3.3-0.5,6.8-1,10.2-1.4c39.8-5.1,80.6-2.1,120,0.7c40.3,2.9,82,5.9,122.5,0.4c4.6-0.6,9.4-1.4,13.9-2.1c12.2-2,24.8-4,37.4-3.9
		c9.4,0.1,18.8,1.4,28,2.7c9.5,1.3,19.3,2.7,29,2.7h0.1c11.1,0,22.3-1.8,33.1-3.5c9.2-1.5,18.7-3,28.2-3.4
		c44.8-2,78.2-1.9,126.9,4.8l-0.1,0.7c-48.6-6.6-82-6.8-126.7-4.8c-9.4,0.4-18.9,2-28.1,3.4c-10.8,1.7-22.1,3.5-33.2,3.5h-0.1
		c-9.8,0-19.6-1.4-29.1-2.7c-9.1-1.3-18.5-2.6-27.9-2.7c-12.5-0.1-25.1,1.9-37.3,3.9c-4.6,0.7-9.3,1.5-14,2.1
		c-40.6,5.6-82.3,2.5-122.7-0.4c-39.4-2.9-80.2-5.8-119.9-0.7c-3.4,0.4-6.9,0.9-10.2,1.4C1360.6,407.2,1350.6,408.7,1340.5,408.7z"
		/>
</g>
<g>
	<path class="st0" d="M1560.2,416.6c-26.4,0-53.2-0.6-66.2-1.1c-21.7-0.8-39.3-1.8-55.2-3.1c-1.9-0.2-3.8-0.3-5.7-0.5
		c-12.9-1.1-26.3-2.2-39.4-1.4c-5.9,0.4-11.8,1.1-17.5,1.8c-5.8,0.7-11.8,1.5-17.7,1.8c-15.4,0.9-52-3-66-5.4
		c-32.3-5.5-62.1-3.5-93.7-1.4c-25.7,1.7-52.2,3.5-81,1.1l0.1-0.7c28.8,2.4,55.3,0.6,80.9-1.1c31.6-2.1,61.5-4.1,93.9,1.4
		c14,2.4,50.5,6.3,65.8,5.4c5.9-0.3,11.9-1.1,17.6-1.8c5.7-0.7,11.7-1.4,17.6-1.8c13.2-0.8,26.5,0.3,39.5,1.4
		c1.9,0.2,3.8,0.3,5.7,0.5c15.9,1.3,33.4,2.2,55.2,3.1c24.6,1,98.1,2.1,125.5-0.7c31.4-3.3,62.9-3.3,93.4-3.3
		c34.5,0,70.1,0,105.6-4.7c26.9-3.6,40.2-2.1,55.6-0.3c11.5,1.3,24.5,2.9,45.4,2.2v0.8c-21,0.7-34-0.9-45.6-2.2
		c-15.3-1.8-28.6-3.3-55.4,0.3c-35.6,4.8-71.3,4.8-105.7,4.8c-30.4,0-61.9,0-93.3,3.3C1606.7,416.1,1583.6,416.6,1560.2,416.6z"/>
</g>
<g>
	<path class="st0" d="M1552,426.4c-10.1,0-22.9-1.5-31.3-2.5l-1.1-0.1c-56.2-6.6-95.9-5-150-1.9l-4,0.2c-11.1,0.7-22.5,1.4-33.7,0.4
		c-8.3-0.7-16.6-2.4-24.6-3.9c-7.6-1.5-15.5-3.1-23.4-3.8c-14.8-1.4-29.9-0.1-44.4,1.2c-5.6,0.5-11.3,1-16.9,1.4
		c-34.9,2.2-70.3-1.5-104.5-5l0.1-0.7c34.2,3.5,69.5,7.2,104.3,5c5.6-0.4,11.4-0.9,16.9-1.4c14.6-1.3,29.7-2.7,44.6-1.2
		c7.9,0.8,15.8,2.3,23.4,3.8c8,1.6,16.3,3.2,24.5,3.9c11.2,1,22.6,0.3,33.6-0.4l4-0.2c54.1-3.2,93.8-4.7,150.1,1.9l1.1,0.1
		c11,1.3,29.5,3.5,39.7,2c3.7-0.5,8.6-1.1,13.7-1.6c6.7-0.7,13.7-1.5,18.6-2.3c19.6-3.4,39.5-2.6,58.7-1.8
		c10.2,0.4,20.7,0.9,31.1,0.7c3.5-0.1,6.9-0.1,10.3-0.2c20.9-0.3,40.6-0.6,61.4-3c10.5-1.2,24-0.9,38.3-0.6c16.2,0.4,33,0.8,45-1.3
		c16.5-2.8,29.3-1,41.6,0.7c12.8,1.8,24.9,3.4,40.4,0.1l0.2,0.7c-15.6,3.3-27.8,1.6-40.6-0.1c-12.3-1.7-25-3.4-41.4-0.7
		c-12.1,2-28.9,1.7-45.2,1.3c-14.3-0.3-27.8-0.6-38.2,0.6c-20.8,2.4-40.6,2.7-61.5,3c-3.4,0-6.9,0.1-10.3,0.2
		c-10.4,0.2-21-0.3-31.1-0.7c-19.2-0.8-39.1-1.6-58.5,1.8c-4.9,0.9-11.9,1.6-18.6,2.3c-5.2,0.6-10,1.1-13.7,1.6
		C1558,426.2,1555.1,426.4,1552,426.4z"/>
</g>
<g>
	<path class="st0" d="M1902.3,458.9c-7.9,0-15.2-1.1-22.7-2.2c-12.1-1.8-24.5-3.7-40.9-0.9c-22.9,3.9-60.4,2.9-85.5-2.1
		c-20.3-4.1-41.3-3.6-61.5-3.1c-3.7,0.1-7.3,0.2-11,0.2c-12.8,0.2-27.6,1.7-44.8,3.3c-23,2.2-49.1,4.7-76.3,4.8
		c-10.5,0-30.3-0.9-40.9-2.1c-56.2-6.6-95.9-5-150-1.9l-4,0.2c-11.1,0.7-22.5,1.4-33.7,0.4c-9.8-0.9-19.6-1.9-29.1-2.9
		c-6.1-0.6-12.5-1.3-18.8-1.9c-14.8-1.4-29.9-0.1-44.4,1.2c-5.6,0.5-11.3,1-16.9,1.4c-34.9,2.2-70.3-1.5-104.5-5l0.1-0.7
		c34.1,3.5,69.5,7.2,104.3,5c5.6-0.4,11.4-0.9,16.9-1.4c14.6-1.3,29.7-2.7,44.6-1.2c6.3,0.6,12.7,1.3,18.8,1.9
		c9.5,1,19.3,2,29.1,2.9c11.2,1,22.6,0.3,33.6-0.4l4-0.2c54.1-3.2,93.8-4.7,150.1,1.9c10.6,1.2,30.3,2.1,40.8,2.1
		c27.2-0.1,53.3-2.6,76.3-4.8c17.2-1.7,32.1-3.1,44.9-3.3c3.7-0.1,7.3-0.2,11-0.2c20.3-0.5,41.3-1,61.7,3.1c25,5,62.4,6,85.2,2.1
		c16.5-2.8,29.1-0.9,41.2,0.9c12.5,1.9,24.3,3.7,39.8,0.4l0.2,0.7C1913.4,458.4,1907.7,458.9,1902.3,458.9z"/>
</g>
<g>
	<path class="st0" d="M1483.5,434.8c-4.6,0-9.1-0.2-13.7-0.7c-6.8-0.7-13.6-2.3-20.1-3.7c-4.4-1-8.9-2-13.3-2.8
		c-22.1-3.8-44.9-1.7-67,0.4c-20.3,1.9-41.2,3.9-61.7,1.3c-6-0.8-12.1-1.9-17.9-3.1c-6.2-1.2-12.6-2.5-19-3.2
		c-15.4-1.8-31.3-0.9-46.6,0c-5.2,0.3-10.6,0.6-16,0.8c-27.6,1.1-57.8,1.7-90.8-1.1l0.1-0.7c33,2.8,63.1,2.2,90.7,1.1
		c5.3-0.2,10.7-0.5,15.9-0.8c15.3-0.9,31.2-1.9,46.7,0c6.4,0.8,12.8,2,19,3.2c5.8,1.1,11.9,2.3,17.9,3.1c20.4,2.6,41.3,0.6,61.5-1.3
		c22.1-2.1,45-4.2,67.2-0.4c4.5,0.8,9,1.8,13.4,2.8c6.5,1.5,13.3,3,20,3.7c13.6,1.4,27.4,0.3,40.8-0.8c8.3-0.7,16.8-1.4,25.3-1.5
		c10.5-0.1,21.2,0.7,31.4,1.5c11.4,0.9,23.3,1.8,35,1.4c9.8-0.3,19.8-1.8,29.4-3.1c13.8-2,28-4,42.1-2.9c27.2,2.2,53.9,0.1,73.4-1.4
		c8.2-0.6,14.7-1.1,19.3-1.2c5.2,0,11.6,0.4,18.3,0.9c15.6,1.1,33.4,2.3,48.5-1.2c33.1-7.5,74.3,0.1,86.2,2.6l-0.2,0.7
		c-11.8-2.5-52.9-10.1-85.8-2.6c-15.3,3.5-33.1,2.3-48.8,1.2c-6.7-0.5-13.1-0.9-18.3-0.9c-4.6,0-11.1,0.5-19.2,1.2
		c-19.5,1.5-46.3,3.6-73.5,1.4c-14-1.1-28.2,0.9-41.9,2.9c-9.6,1.4-19.6,2.8-29.5,3.1c-11.7,0.4-23.6-0.5-35.1-1.4
		c-10.3-0.8-20.9-1.6-31.4-1.5c-8.4,0.1-17,0.8-25.2,1.5C1501.8,434,1492.7,434.8,1483.5,434.8z"/>
</g>
<g>
	<path class="st0" d="M1535.5,442.8c-6.2,0-12.3-0.1-18.5-0.4c-14.4-0.6-28.9-2.1-43-3.5c-20.9-2.1-42.4-4.2-63.7-3.7
		c-10.2,0.2-20.6,1.1-30.7,1.9c-14,1.2-28.5,2.3-42.8,1.9c-14.4-0.5-28.9-2.6-42.9-4.7c-12.3-1.8-25.1-3.7-37.7-4.4
		c-19.3-1.1-39,0.4-58.1,1.9c-26.8,2.1-54.4,4.2-81.2-1l0.1-0.7c26.6,5.2,54.3,3,81,1c19.1-1.5,38.9-3,58.2-1.9
		c12.7,0.7,25.4,2.6,37.7,4.4c14,2.1,28.5,4.2,42.8,4.7s28.7-0.7,42.7-1.9c10.1-0.8,20.5-1.7,30.8-1.9c21.3-0.5,42.9,1.6,63.8,3.7
		c14.1,1.4,28.6,2.8,43,3.5c31.8,1.4,64.2-1.2,95.5-3.7c33.9-2.7,68.9-5.5,103.3-3.3c7.8,0.5,15.7,1.3,23.3,2
		c13.6,1.3,27.8,2.7,41.7,2.6c15-0.1,30.7-1.6,45.9-3c31.2-2.9,63.5-5.9,92.9,2.1l-0.2,0.7c-29.3-8-61.5-5-92.7-2.1
		c-15.2,1.4-31,2.9-46,3c-13.9,0.1-28.1-1.3-41.8-2.6c-7.6-0.7-15.5-1.5-23.3-2c-34.4-2.2-69.4,0.6-103.2,3.3
		C1587.3,440.7,1561.3,442.8,1535.5,442.8z"/>
</g>
<g>
	<path class="st0" d="M1802,450.4c-3.9,0-7.8-0.1-11.8-0.2c-9.7-0.4-19.4-2-28.8-3.5c-4.9-0.8-9.9-1.6-14.9-2.3
		c-40.2-5.2-80.3-1.8-114.1,2.1c-47.8,5.6-88.1,3.2-127.1,0.8c-17.9-1.1-36.5-2.2-55.7-2.6c-10.8-0.2-22.1,0.5-32.9,1.2
		c-10.9,0.7-22.1,1.4-33,1.2c-42.1-0.8-85.7-1.6-128.4-6c-2.5-0.3-5-0.5-7.4-0.8c-15-1.6-30.5-3.3-45.7-2.2
		c-7.6,0.6-15.1,1.4-22.3,2.3c-21.2,2.5-41.2,4.8-63.4,0.3l0.1-0.7c22.1,4.4,42.1,2.1,63.2-0.3c7.3-0.8,14.8-1.7,22.4-2.3
		c15.3-1.2,30.8,0.5,45.8,2.2c2.5,0.3,5,0.5,7.4,0.8c42.6,4.4,86.2,5.3,128.3,6c10.9,0.2,22.1-0.5,32.9-1.2
		c10.9-0.7,22.1-1.4,33-1.2c19.2,0.4,37.8,1.5,55.7,2.6c38.9,2.4,79.1,4.8,126.9-0.8c33.9-4,74-7.3,114.3-2.1c5,0.6,10,1.5,14.9,2.3
		c9.4,1.5,19.1,3.1,28.7,3.5c16.3,0.7,31-0.2,47.9-1.2c21.9-1.3,46.8-2.8,81.5-1.1v0.8c-34.7-1.7-59.5-0.2-81.4,1.1
		C1825.3,449.8,1813.9,450.4,1802,450.4z"/>
</g>
<g>
	<path class="st0" d="M1233.4,585.4c-23.3,0-42.7-2.3-61.7-4.6c-18.5-2.2-36-4.3-56.1-4.1v-0.8c20.1-0.2,37.6,1.9,56.2,4.1
		c28.7,3.4,58.4,7,101.1,2.4c33.5-3.6,61.6-5.5,89.6-3.1c4.5,0.4,9,0.8,13.4,1.2c9.8,0.9,20,1.9,30,2.2c21.3,0.6,41.6-1.8,61.2-4.2
		c20.1-2.4,40.8-4.8,62.6-4.1c10.3,0.3,22.3,1.4,33.8,2.5c8.5,0.8,16.6,1.5,24,2c22.6,1.4,45.5-0.1,67.8-1.5
		c9.8-0.6,19.9-1.3,29.8-1.7c32-1.3,63-0.1,93.1,1c47.8,1.8,92.9,3.5,141.4-3.8l0.1,0.7c-48.6,7.3-93.8,5.6-141.6,3.8
		c-30-1.1-61-2.3-93-1c-9.9,0.4-20,1-29.8,1.7c-22.2,1.4-45.2,2.9-67.8,1.5c-7.4-0.5-15.5-1.2-24-2c-11.6-1-23.5-2.1-33.8-2.5
		c-21.7-0.7-42.4,1.7-62.5,4.1c-19.7,2.3-40,4.7-61.3,4.2c-10.1-0.3-20.2-1.2-30.1-2.2c-4.4-0.4-8.9-0.9-13.3-1.2
		c-28-2.3-56.1-0.4-89.5,3.1C1258.4,584.8,1245.4,585.4,1233.4,585.4z"/>
</g>
<g>
	<path class="st0" d="M1248.3,573.7c-0.3,0-0.5,0-0.8,0c-22.4-0.1-44.8-2.2-66.5-4.3c-23-2.2-44.8-4.3-64.5-3.7v-0.8
		c19.8-0.6,41.6,1.5,64.6,3.7c21.7,2.1,44,4.2,66.4,4.3c16.1,0.1,32.7-1.1,48.8-2.2c15.4-1.1,29.9-2.1,41.2-1.8
		c9.7,0.3,19.4,0.8,28.8,1.3c24.9,1.4,48.3,2.6,73.1-0.3c6.3-0.7,12.6-1.9,18.8-3.1c6.6-1.2,13.5-2.5,20.3-3.2
		c19.4-2.1,39.1,0.2,58.2,2.4c12.6,1.5,25.6,3,38.4,3.2c13.7,0.3,27.5-0.9,40.9-2c6.5-0.5,13.2-1.1,19.8-1.5
		c35.3-2.1,71.3,0.4,106.1,2.8c43,3,87.5,6,130.9,0.4c3.5-0.4,7-1,10.4-1.5c11.9-1.9,24.2-3.8,36.2-1.5l-0.1,0.7
		c-12-2.3-24.2-0.3-36,1.5c-3.4,0.5-7,1.1-10.5,1.5c-43.5,5.6-88,2.5-131.1-0.4c-34.8-2.4-70.8-4.9-106-2.8
		c-6.6,0.4-13.3,1-19.8,1.5c-13.4,1.1-27.3,2.3-41,2c-12.9-0.2-25.9-1.8-38.5-3.2c-19-2.2-38.7-4.5-58-2.4c-6.8,0.7-13.6,2-20.2,3.2
		c-6.1,1.1-12.5,2.3-18.8,3.1c-24.8,2.9-48.3,1.6-73.2,0.3c-9.4-0.5-19.1-1-28.8-1.3c-11.3-0.3-25.8,0.7-41.2,1.8
		C1280.6,572.6,1264.2,573.7,1248.3,573.7z"/>
</g>
<g>
	<path class="st0" d="M1813.3,564.9c-8.4,0-16.7-0.5-24.6-1.6c-5.4-0.8-10.8-2.1-16.1-3.3c-4.3-1-8.7-2.1-13.1-2.9
		c-14.3-2.5-29.1-2.1-43.3-1.6l-109.3,3.3c-21.1,0.6-42.9,1.3-64.3-1.5c-4.1-0.5-8.3-1.2-12.4-1.9c-9.2-1.5-18.7-3-28.2-3
		c-0.1,0-0.2,0-0.3,0c-8.4,0-16.8,1.3-25,2.4c-3.2,0.5-6.5,1-9.8,1.4c-6.2,0.8-13,2.2-20.2,3.8c-10.3,2.2-20.9,4.5-30.1,4.7
		c-25.4,0.5-48.1-0.8-70-2s-44.6-2.5-70-2c-10.2,0.2-20.7,0.8-31.8,1.5c-23.3,1.4-47.4,2.8-69.1,0.2c-5.8-0.7-12.1-2.2-18.9-3.9
		c-14.6-3.6-29.6-7.2-41.1-2.9l-0.3-0.7c11.7-4.5,26.9-0.8,41.6,2.8c6.7,1.6,13.1,3.2,18.8,3.9c21.6,2.5,45.7,1.1,69-0.3
		c11.1-0.7,21.6-1.3,31.8-1.5c25.4-0.5,48.1,0.8,70,2s44.6,2.5,70,2c9.1-0.2,19.7-2.5,29.9-4.7c7.2-1.6,14-3,20.3-3.8
		c3.3-0.4,6.6-0.9,9.8-1.4c8.2-1.2,16.7-2.4,25.1-2.5c0.1,0,0.2,0,0.3,0c9.5,0,19.1,1.5,28.3,3c4.1,0.6,8.2,1.3,12.4,1.8
		c21.3,2.7,43.1,2.1,64.2,1.5l109.3-3.3c14.3-0.4,29.1-0.9,43.5,1.7c4.4,0.8,8.8,1.8,13.1,2.9c5.2,1.3,10.6,2.6,16,3.3
		c23.2,3.3,49,0.8,74-1.7c21.4-2.1,41.5-4.1,56.9-1.9l-0.1,0.7c-15.3-2.3-35.4-0.3-56.7,1.9C1846.3,563.2,1829.5,564.9,1813.3,564.9
		z"/>
</g>
<g>
	<path class="st0" d="M1390.9,555.5c-15.9,0-31-1.6-45.7-3.1c-14.8-1.5-30-3.1-46.1-3.1h-0.1c-9.1,0-19.8,1.2-30.2,2.3
		c-4.8,0.5-9.2,1-13.4,1.4c-23.5,2-44.3-0.1-66.4-2.4c-21.9-2.3-44.5-4.6-72.8-3.4v-0.8c28.4-1.2,51,1.2,72.9,3.4
		c22,2.3,42.8,4.4,66.2,2.4c4.1-0.4,8.6-0.8,13.4-1.4c10.4-1.1,21.2-2.3,30.3-2.3c16.2,0,31.5,1.6,46.3,3.1
		c16.1,1.7,32.7,3.4,50.2,3.1c9.1-0.2,18.3-2.1,27.1-4.1c6.6-1.4,13.5-2.9,20.2-3.6c2.2-0.2,4.4-0.5,6.6-0.7
		c26.9-2.9,54.8-5.9,81.7-1.9c37.6,5.6,74.2,4.2,109.6,2.8c17.7-0.7,36-1.4,54.2-1.3c29,0.3,59,0.5,88.4,3.3c2.5,0.2,5,0.5,7.6,0.7
		c10,1,20.3,2.1,30.5,1.9c7.9-0.1,15.9-1,23.7-1.8c4.9-0.5,9.9-1.1,14.9-1.4l1.7-0.1c19.1-1.4,38.9-2.8,58,1.5l-0.2,0.7
		c-19-4.2-38.7-2.8-57.8-1.4l-1.7,0.1c-5,0.4-10,0.9-14.9,1.4c-7.8,0.8-15.8,1.7-23.7,1.8c-10.2,0.2-20.6-0.9-30.6-1.9
		c-2.5-0.3-5-0.5-7.5-0.7c-29.4-2.8-59.4-3-88.4-3.3c-18.2-0.2-36.5,0.6-54.2,1.3c-35.4,1.4-72,2.9-109.7-2.8
		c-26.9-4-54.7-1-81.5,1.9c-2.2,0.2-4.4,0.5-6.6,0.7c-6.7,0.7-13.5,2.2-20.1,3.6c-8.9,1.9-18.1,3.9-27.3,4.1
		C1393.9,555.5,1392.4,555.5,1390.9,555.5z"/>
</g>
<g>
	<path class="st0" d="M1353.5,544.4c-0.5,0-1,0-1.5,0c-11.1-0.3-22-1.9-32.6-3.4c-5.3-0.8-10.7-1.6-16.2-2.2
		c-12.4-1.4-25.2,0.3-37.5,1.9c-2.9,0.4-6,0.8-9,1.2c-25.4,3-53.2,0.9-80.1-1.2c-21.8-1.7-42.5-3.3-60-2l-0.1-0.7
		c17.5-1.4,38.2,0.3,60.1,2c26.9,2.1,54.7,4.3,80,1.2c3-0.4,6-0.8,9-1.2c12.3-1.6,25.1-3.4,37.6-1.9c5.5,0.6,11,1.4,16.2,2.2
		c10.5,1.5,21.4,3.1,32.5,3.4c9.2,0.2,18.3-1.7,27.2-3.6c9.2-1.9,18.7-3.9,28.1-3.5c3.6,0.1,7.2,0.6,10.7,1.1c3.2,0.4,6.4,0.8,9.6,1
		c10.7,0.6,21.4-1.6,31.8-3.6c4.8-1,9.8-2,14.8-2.7c24.8-3.6,50.1-0.3,74.6,2.8c21.8,2.8,44.3,5.7,66.4,3.8
		c5.8-0.5,11.7-1.3,17.4-2.1c8.2-1.2,16.6-2.4,25-2.6c11-0.3,22,1.1,32.8,2.4c5.8,0.7,11.9,1.5,17.8,2c7.3,0.6,14.7,0.2,21.9-0.1
		c8.5-0.4,17.2-0.8,25.8,0.3c38,4.9,74.1,2.7,103.2,1c26.4-1.6,47.2-2.8,60.6,1.4l-0.2,0.7c-13.3-4.1-34-2.9-60.3-1.3
		c-29.1,1.7-65.2,3.8-103.3-1c-8.5-1.1-17.2-0.7-25.7-0.3c-7.2,0.3-14.7,0.7-22,0.1c-6-0.5-12-1.2-17.8-2
		c-10.7-1.3-21.7-2.7-32.6-2.4c-8.3,0.2-16.7,1.4-24.9,2.6c-5.7,0.8-11.6,1.7-17.4,2.2c-22.2,1.9-44.8-1-66.6-3.8
		c-24.5-3.1-49.8-6.4-74.4-2.8c-4.9,0.7-9.9,1.7-14.7,2.7c-10.4,2.1-21.2,4.2-32,3.6c-3.2-0.2-6.5-0.6-9.7-1
		c-3.5-0.5-7.1-0.9-10.6-1.1c-9.4-0.4-18.8,1.6-28,3.5C1370.9,542.6,1362.2,544.4,1353.5,544.4z"/>
</g>
<g>
	<path class="st0" d="M1225,537.1c-4.5,0-9-0.1-13.4-0.4l-3.6-0.2c-30.7-2-62.5-4-92.5-8.8l0.1-0.7c30,4.8,61.7,6.8,92.4,8.8
		l3.6,0.2c19.6,1.3,40.6-0.3,62.3-4.6c10-2,19.6-2,29.8-1.9c2.7,0,5.5,0,8.2,0c15.9-0.2,29.4,0,43.3,1.8c14.2,1.8,28.7-1.5,42.7-4.6
		c9.6-2.2,19.5-4.4,29.3-5c13.1-0.8,26.1-0.3,38.3,0.4c14,0.7,28.2,1.7,42,2.6c43.6,2.9,88.7,5.9,133,2.4c3.4-0.3,6.7-0.6,10.1-0.9
		c13.1-1.2,26.7-2.4,40-1.3c8.8,0.7,17.6,2.5,26.1,4.1c8.7,1.7,17.8,3.5,26.8,4.2c15.4,1.2,31.1-0.9,46.3-2.8
		c6.6-0.9,13.4-1.7,20.1-2.3c34.4-3.1,70.4,1,105.2,5l4.6,0.5l-0.1,0.7l-4.6-0.5c-34.7-4-70.7-8.2-105-5c-6.7,0.6-13.5,1.5-20,2.3
		c-15.2,2-30.9,4-46.4,2.8c-9.1-0.7-18.1-2.5-26.9-4.2c-8.5-1.7-17.3-3.4-26-4.1c-13.3-1.1-26.8,0.1-39.9,1.3
		c-3.4,0.3-6.7,0.6-10.1,0.9c-44.3,3.4-89.4,0.4-133.1-2.4c-13.8-0.9-28-1.9-42-2.6c-12.1-0.6-25.1-1.2-38.2-0.4
		c-9.7,0.6-19.6,2.8-29.2,5c-14.1,3.2-28.6,6.4-42.9,4.6c-13.9-1.7-27.3-2-43.2-1.8c-2.8,0-5.5,0-8.2,0c-10.2,0-19.8-0.1-29.7,1.9
		C1257.2,535.4,1240.7,537.1,1225,537.1z"/>
</g>
<g>
	<path class="st0" d="M1919.5,527.2c-34.8-5.4-66.1-7.6-93.1-6.4c-6.6,0.3-13.4,0.7-20,1.2c-20.9,1.4-42.6,2.8-63.6-0.5
		c-5.4-0.9-10.9-2-16.2-3.2c-8.7-1.9-17.6-3.8-26.6-4.3c-11.8-0.7-23.7,1-35.2,2.7c-3.3,0.5-6.8,1-10.2,1.4
		c-39.8,5.1-80.6,2.1-120-0.7c-40.3-2.9-82-5.9-122.5-0.4c-4.6,0.6-9.4,1.4-13.9,2.1c-12.2,2-24.8,4-37.4,3.9
		c-9.4-0.1-18.8-1.4-28-2.7c-9.5-1.3-19.3-2.7-29.1-2.7c-11.1,0-22.3,1.8-33.1,3.5c-9.2,1.5-18.7,3-28.2,3.4
		c-39.4,1.8-73.5,3.3-125.2-3.7l0.1-0.7c51.7,7,85.7,5.5,125.1,3.7c9.4-0.4,18.9-2,28.1-3.4c10.8-1.7,22.1-3.5,33.2-3.5h0.1
		c9.8,0,19.6,1.4,29.1,2.7c9.1,1.3,18.5,2.6,27.9,2.7c12.5,0.1,25.1-1.9,37.3-3.9c4.6-0.7,9.3-1.5,14-2.1
		c40.6-5.6,82.3-2.5,122.7,0.4c39.4,2.9,80.2,5.8,119.9,0.7c3.4-0.4,6.9-0.9,10.2-1.4c11.6-1.7,23.5-3.4,35.4-2.7
		c9,0.5,18,2.5,26.7,4.3c5.3,1.1,10.7,2.3,16.1,3.2c20.9,3.3,42.5,1.9,63.4,0.5c6.5-0.4,13.3-0.9,20-1.2c27-1.2,58.4,1,93.3,6.4
		L1919.5,527.2z"/>
</g>
<g>
	<path class="st0" d="M1188.4,517.8c-10,0-17.6-1-26-2c-11.2-1.4-23.9-3-44.9-2.4v-0.8c21.1-0.7,33.8,1,45.1,2.4
		c14.6,1.9,27.3,3.5,54-0.1c35.6-4.8,71.3-4.8,105.7-4.8c30.4,0,61.9,0,93.3-3.3c27.5-2.9,101-1.7,125.6-0.7
		c21.7,0.8,39.3,1.8,55.2,3.1c1.9,0.2,3.8,0.3,5.7,0.5c12.9,1.1,26.3,2.2,39.4,1.4c5.9-0.4,11.8-1.1,17.5-1.8
		c5.8-0.7,11.8-1.5,17.7-1.8c15.4-0.9,52,3,66,5.4c27.8,4.7,50.9,3.2,75.3,1.6c27.3-1.8,58.2-3.8,101.7,2.5l-0.1,0.7
		c-43.4-6.3-74.3-4.3-101.6-2.5c-24.4,1.6-47.5,3.1-75.5-1.6c-14-2.4-50.5-6.3-65.8-5.4c-5.9,0.3-11.9,1.1-17.6,1.8
		s-11.7,1.4-17.6,1.8c-13.2,0.8-26.5-0.3-39.5-1.4c-1.9-0.2-3.8-0.3-5.7-0.5c-15.9-1.3-33.4-2.2-55.2-3.1
		c-24.6-1-98.1-2.1-125.5,0.7c-31.4,3.3-62.9,3.3-93.4,3.3c-34.5,0-70.1,0-105.6,4.7C1205,517.2,1196.1,517.8,1188.4,517.8z"/>
</g>
<g>
	<path class="st0" d="M1919.6,510.2c-37.1-3.8-73.2-7.1-106.8-5c-5.6,0.4-11.4,0.9-16.9,1.4c-14.6,1.3-29.7,2.7-44.6,1.2
		c-7.9-0.8-15.8-2.3-23.4-3.8c-8-1.6-16.3-3.2-24.5-3.9c-11.2-1-22.6-0.3-33.6,0.4l-4,0.2c-54.1,3.2-93.8,4.7-150.1-1.9l-1.1-0.1
		c-11-1.3-29.5-3.5-39.7-2c-3.7,0.5-8.6,1.1-13.7,1.6c-6.7,0.7-13.7,1.5-18.6,2.3c-19.6,3.4-39.5,2.6-58.7,1.8
		c-10.2-0.4-20.7-0.9-31.1-0.7c-3.5,0.1-6.9,0.1-10.3,0.2c-20.9,0.3-40.6,0.6-61.4,3c-10.5,1.2-24,0.9-38.3,0.6
		c-16.2-0.4-33-0.8-45,1.3c-16.6,2.8-28.9,0.7-40.7-1.3c-12.2-2.1-23.8-4-39.2-0.7l-0.2-0.7c15.6-3.3,27.2-1.3,39.5,0.7
		c11.8,2,24.1,4.1,40.5,1.3c12.1-2,28.9-1.7,45.2-1.3c14.3,0.3,27.8,0.6,38.2-0.6c20.8-2.4,40.6-2.7,61.5-3c3.4,0,6.8-0.1,10.3-0.2
		c10.4-0.2,21,0.3,31.2,0.7c19.2,0.8,39.1,1.6,58.5-1.8c4.9-0.9,11.9-1.6,18.6-2.3c5.2-0.6,10-1.1,13.7-1.6
		c10.2-1.5,28.8,0.7,39.9,2l1.1,0.1c56.2,6.6,95.9,5,150,1.9l4-0.2c11.1-0.7,22.5-1.4,33.7-0.4c8.3,0.7,16.6,2.4,24.6,3.9
		c7.6,1.5,15.5,3.1,23.4,3.8c14.8,1.4,29.9,0.1,44.4-1.2c5.6-0.5,11.3-1,16.9-1.4c33.7-2.1,69.8,1.2,107,5L1919.6,510.2z"/>
</g>
<g>
	<path class="st0" d="M1919.6,490c-8.5-0.7-17.1-1.6-25.4-2.5c-22-2.3-44.8-4.7-67.6-3.8c-7.1,0.3-14.4,1-21.4,1.7
		c-13.4,1.3-27.3,2.7-41,1c-6.4-0.8-12.8-2-19-3.2c-5.8-1.1-11.9-2.3-17.9-3.1c-20.4-2.6-41.4-0.1-61.8,2.2
		c-22,2.6-44.8,5.3-66.9,1.5c-4.5-0.8-9-1.8-13.4-2.8c-6.5-1.5-13.3-3-20-3.7c-13.6-1.4-27.4-0.3-40.8,0.8
		c-8.3,0.7-16.8,1.4-25.3,1.5c-10.5,0.1-21.2-0.7-31.4-1.5c-11.4-0.9-23.3-1.8-35-1.4c-9.8,0.3-19.8,1.8-29.4,3.1
		c-13.8,2-28,4-42.1,2.9c-36.7-3-78.3-5.2-94.7-5.1c-7.2,0.1-16.3,0.4-25.9,0.8c-13,0.5-27.8,1.2-42.1,1.2c-28.5,0-57.7-2.8-82.1-8
		l0.2-0.7c24.4,5.2,53.4,8,81.9,8c14.3,0,29.1-0.6,42.1-1.2c9.6-0.4,18.7-0.8,25.9-0.8c16.4-0.1,58,2.1,94.7,5.1
		c14,1.1,28.2-0.9,41.9-2.9c9.6-1.4,19.6-2.8,29.5-3.1c11.7-0.4,23.6,0.5,35.1,1.4c10.3,0.8,20.9,1.6,31.4,1.5
		c8.4-0.1,17-0.8,25.2-1.5c13.4-1.1,27.3-2.3,40.9-0.8c6.8,0.7,13.6,2.3,20.1,3.7c4.4,1,8.9,2,13.3,2.8c22,3.8,44.7,1.1,66.7-1.5
		c20.4-2.4,41.4-4.9,61.9-2.2c6,0.8,12.1,1.9,17.9,3.1c6.2,1.2,12.6,2.5,19,3.2c13.6,1.6,27.4,0.3,40.8-1c7-0.7,14.3-1.4,21.4-1.7
		c22.8-0.9,45.6,1.5,67.7,3.8c8.3,0.9,16.9,1.8,25.4,2.5L1919.6,490z"/>
</g>
<g>
	<path class="st0" d="M1919.5,480.2c-27.9-5.4-57.8-4.5-86.7-3.6c-18.3,0.6-37.2,1.2-55.2,0.1c-8-0.5-16-1-23.7-1.5
		c-18.8-1.2-36.5-2.3-55.5-2.9c-14.3-0.5-28.7,0.7-42.7,1.9c-10.1,0.8-20.5,1.7-30.8,1.9c-21.3,0.5-42.9-1.6-63.8-3.7
		c-14.1-1.4-28.6-2.8-43-3.5c-31.8-1.4-64.2,1.2-95.5,3.7c-33.9,2.7-68.9,5.5-103.3,3.3c-7.8-0.5-15.7-1.3-23.3-2
		c-13.6-1.3-27.8-2.7-41.7-2.6c-8.4,0.1-17,0.3-25.3,0.4c-37.7,0.8-76.7,1.7-112.5-8.1l0.2-0.7c35.7,9.8,74.7,8.9,112.3,8.1
		c8.3-0.2,17-0.4,25.3-0.4c13.9-0.1,28.1,1.3,41.8,2.6c7.6,0.7,15.5,1.5,23.3,2c34.4,2.2,69.4-0.6,103.2-3.3
		c31.3-2.5,63.7-5.1,95.6-3.7c14.4,0.6,28.9,2.1,43,3.5c20.9,2.1,42.4,4.2,63.7,3.7c10.2-0.2,20.6-1.1,30.7-1.9
		c14-1.2,28.5-2.3,42.8-1.9c19,0.6,36.7,1.7,55.5,2.9c7.7,0.5,15.6,1,23.7,1.5c18,1,36.9,0.5,55.2-0.1c29-0.9,58.9-1.8,86.9,3.6
		L1919.5,480.2z"/>
</g>
<g>
	<path class="st0" d="M1332.5,469.7c-14.4,0-29.1-0.8-43.9-2.7c-4.9-0.6-10-1.5-14.8-2.4c-9.4-1.7-19.1-3.4-28.8-3.3
		c-27.4,0.2-55.1-2.3-77.5-4.3c-22.2-2-39.7-3.6-49.9-2.2l-0.1-0.7c10.3-1.5,27.9,0.1,50.1,2.2c22.3,2,50.1,4.6,77.4,4.3
		c9.7-0.1,19.5,1.7,28.9,3.4c4.8,0.9,9.8,1.8,14.8,2.4c40.2,5.2,80.3,1.8,114.1-2.1c47.8-5.6,88.1-3.2,127.1-0.8
		c17.9,1.1,36.5,2.2,55.7,2.6c19.9,0.4,43.3,0.4,65.8-2.4c47.9-5.9,90-3,128.4,1c4.3,0.4,8.7,1,13,1.5c13.6,1.7,27.7,3.5,41.1,2.4
		c5.9-0.4,11.7-1,17.4-1.5c22.8-2.2,44.3-4.2,68.3,0.6l-0.1,0.7c-23.9-4.8-45.4-2.7-68.1-0.6c-5.7,0.5-11.5,1.1-17.4,1.5
		c-13.5,1-27.6-0.7-41.3-2.4c-4.3-0.5-8.7-1.1-13-1.5c-38.4-4-80.4-6.9-128.2-1c-22.5,2.8-46,2.8-65.9,2.4
		c-19.2-0.4-37.8-1.5-55.7-2.6c-38.9-2.4-79.1-4.8-126.9,0.8C1381.4,467.4,1357.5,469.7,1332.5,469.7z"/>
</g>
<g>
	<path class="st0" d="M1908,502.7c-7.9,0-16.2-1.5-24.3-3.1c-5.9-1.1-11.4-2.1-16.8-2.6c-9.7-0.8-19.6,0.1-29.1,0.9
		c-4.3,0.4-8.7,0.8-13.1,1c-1.9,0.1-3.9,0.2-5.8,0.3c-18.8,1.1-38.1,2.2-56.9-0.6c-47.9-7.2-88.2-5.9-130.9-4.6
		c-40.2,1.2-81.8,2.5-132.5-3.3c-20.2-2.3-45.6,1.5-62.9,4.5c-14.1,2.5-33.7,1.2-49.4,0.2c-3-0.2-5.9-0.4-8.7-0.5
		c-72.9-4.2-116.9-3.2-181.2,4c-23,2.6-47.2,1.5-78.5-3.4l0.1-0.7c31.2,4.9,55.4,6,78.3,3.4c64.4-7.2,108.5-8.2,181.4-4
		c2.7,0.2,5.6,0.3,8.7,0.5c15.7,1,35.2,2.3,49.2-0.2c18.8-3.3,43.1-6.9,63.1-4.5c50.6,5.8,92.2,4.6,132.4,3.3
		c42.7-1.3,83.1-2.5,131,4.6c18.7,2.8,38.1,1.7,56.8,0.6c1.9-0.1,3.9-0.2,5.8-0.3c4.3-0.2,8.8-0.6,13-1c9.6-0.9,19.5-1.8,29.2-0.9
		c5.4,0.5,11,1.5,16.9,2.6c12.1,2.3,24.7,4.6,35.6,1.7l0.2,0.7C1916,502.3,1912,502.7,1908,502.7z"/>
</g>
<g>
	<path class="st0" d="M1919.5,496.4c-24.6-5.3-52.1-7.5-81.9-6.6c-11,0.3-20.3,1.5-29.3,2.7c-18.4,2.4-35.8,4.6-63.8-1.7
		c-31-7-65-4.4-97.9-1.8c-9.4,0.7-18.3,1.4-27,1.9c-29.9,1.5-60.6-1.6-87.7-4.3c-24-2.4-44.6-4.5-58.3-2.7c-40,5.5-78.6,4.3-115.9,3
		c-14.5-0.5-29.5-1-44.2-1H1303c-38.1-0.2-68.3-0.3-107.2,3l-2.1,0.2c-10.2,0.9-20.7,1.8-30.9-0.2c-4.2-0.8-8-1.9-11.7-2.9
		c-9.7-2.7-18.9-5.3-32.4-3.5l-0.1-0.7c13.7-1.8,22.9,0.8,32.7,3.5c3.7,1,7.5,2.1,11.7,2.9c10,2,20.5,1.1,30.7,0.2l2.1-0.2
		c38.9-3.3,69.1-3.2,107.2-3h10.5c14.6,0.1,29.7,0.5,44.2,1c37.3,1.2,75.8,2.5,115.8-3c13.7-1.9,34.5,0.2,58.5,2.7
		c27,2.8,57.7,5.9,87.6,4.3c8.7-0.4,17.6-1.1,27-1.9c32.9-2.5,67-5.1,98.1,1.9c27.9,6.3,45.2,4,63.6,1.7c9-1.2,18.3-2.4,29.3-2.7
		c29.8-0.9,57.4,1.4,82.1,6.6L1919.5,496.4z"/>
</g>
<g>
	<g>
		<path class="st0" d="M5.5,344.8c-0.9,0-1.8,0-2.7,0V344c20.1,0.2,37.7-1.9,56.5-4.1c29.1-3.5,59.1-7,101.9-2.5
			c29.3,3.1,59.3,0.6,88.4-1.8l1.1-0.1c4.4-0.4,9-0.8,13.3-1.2c9.8-1,20-1.9,30.1-2.2c21.4-0.6,42.9,2.1,63.8,4.7
			c21.3,2.6,43.3,5.3,65,4.6c9.9-0.3,20-1.4,29.7-2.4c7.5-0.8,15.3-1.6,23-2.1c22.6-1.4,45.6,0.1,67.8,1.5
			c9.8,0.6,19.9,1.3,29.8,1.7c30.5,1.2,58-0.6,84.5-2.3c44.1-2.9,89.8-5.8,150,5.1l-0.1,0.7c-60.2-10.9-105.8-7.9-149.9-5.1
			c-26.6,1.7-54.1,3.5-84.6,2.3c-10-0.4-20.1-1-29.8-1.7c-22.2-1.4-45.2-2.9-67.7-1.5c-7.7,0.5-15.5,1.3-23,2.1
			c-9.7,1-19.8,2.1-29.8,2.4c-21.8,0.7-43.8-2-65.1-4.6c-20.9-2.6-42.4-5.2-63.7-4.7c-10,0.3-20.2,1.2-30,2.2
			c-4.4,0.4-8.9,0.9-13.3,1.2l-1.1,0.1c-29.1,2.4-59.1,4.9-88.5,1.8c-42.7-4.5-72.7-1-101.7,2.5C41.4,342.8,24.5,344.8,5.5,344.8z"
			/>
	</g>
	<g>
		<path class="st0" d="M799,351.2c-10.6,0-22.1-2.1-34.1-4.4c-10.4-1.9-21.1-3.9-31.4-4.5c-17.7-0.9-36.7,0.2-57.9,3.4
			c-28,4.2-56.9,3-84.8,1.8c-3.3-0.1-6.6-0.3-9.9-0.4c-54.8-2.2-110.3-2-165,0.7c-1.5,0.1-3.4,0.2-5.7,0.4
			c-11.6,0.9-33.1,2.6-62.5-1.6c-37.6-5.4-70.7-7.2-104.1-5.8c-7.2,0.3-15.5,1-24.2,1.8c-20.2,1.8-43,3.7-59.8,1
			c-33.4-5.4-60.5-1.6-86.7,2.2c-21.9,3.1-44.6,6.3-70.3,3.8l0.1-0.7c25.6,2.5,47.2-0.6,70.1-3.8c26.3-3.7,53.4-7.6,86.9-2.2
			c16.7,2.7,39.5,0.7,59.6-1c8.7-0.8,17-1.5,24.2-1.8c33.4-1.4,66.5,0.4,104.2,5.8c29.3,4.2,50.8,2.5,62.4,1.6
			c2.2-0.2,4.2-0.3,5.7-0.4c54.8-2.7,110.3-2.9,165.1-0.7c3.3,0.1,6.6,0.3,9.9,0.4c27.9,1.2,56.7,2.4,84.7-1.8
			c21.3-3.2,40.2-4.3,58-3.4c10.3,0.5,21.1,2.5,31.5,4.5c15.3,2.9,29.8,5.6,42.7,3.8l0.1,0.7C805,351,802,351.2,799,351.2z"/>
	</g>
	<g>
		<path class="st0" d="M798.3,328.9c-10.7,0-22.4-2.1-34.6-4.2c-10.4-1.8-21.1-3.7-31.2-4.3c-18.4-0.9-37.9-1.6-57.9,1.4
			c-37.4,5.6-69,5.7-96.7,0.4c-37.7-7.3-76.2-3.4-113.5,0.5c-16.2,1.7-32.9,3.4-49.5,4.2c-10.8,0.5-34.1,0.7-68.2-4.2
			c-27.8-4-54.2-2.5-82.2-0.9c-7.1,0.4-14.5,0.8-21.9,1.1c-5.4,0.2-11.3,0.6-17.5,1c-22.4,1.3-47.8,2.9-66.4-0.1
			c-33.8-5.5-61.1-2.7-87.5,0c-21.7,2.2-44.1,4.5-69.5,2l0.1-0.7c25.3,2.5,47.7,0.2,69.3-2c26.5-2.7,53.8-5.5,87.7,0
			c18.5,3,43.9,1.5,66.3,0.1c6.3-0.4,12.2-0.7,17.5-1c7.4-0.3,14.7-0.7,21.9-1.1c28-1.6,54.5-3,82.3,0.9c34,4.9,57.2,4.7,68,4.2
			c16.6-0.8,33.3-2.5,49.5-4.2c37.3-3.8,75.9-7.8,113.7-0.5c27.6,5.4,59.2,5.3,96.5-0.4c20-3,39.6-2.4,58-1.4
			c10.2,0.5,20.9,2.4,31.3,4.3c15.7,2.8,30.5,5.4,43.6,3.6l0.1,0.7C804.6,328.7,801.5,328.9,798.3,328.9z"/>
	</g>
	<g>
		<path class="st0" d="M381.9,359.7c-5.4,0-10.8-0.2-16.2-0.8c-6.8-0.7-13.6-2-20.3-3.2c-6.1-1.1-12.5-2.3-18.8-3.1
			c-24.7-2.9-48.2-1.6-73.1-0.3c-9.4,0.5-19.1,1-28.8,1.3c-11.3,0.3-25.8-0.7-41.2-1.8c-16.1-1.1-32.7-2.3-48.8-2.2
			c-22.2,0.1-44.7,2-66.4,3.9c-23.5,2-45.7,4-65.6,3.4v-0.8c19.9,0.6,42.1-1.3,65.5-3.3c21.7-1.9,44.2-3.8,66.4-3.9
			c16.1,0,32.8,1.1,48.8,2.2c15.4,1.1,29.9,2.1,41.2,1.8c9.7-0.3,19.4-0.8,28.8-1.3c24.9-1.4,48.4-2.7,73.2,0.3
			c6.3,0.7,12.7,1.9,18.8,3.1c6.6,1.2,13.4,2.5,20.2,3.2c19.3,2.1,39-0.2,58-2.4c12.6-1.5,25.7-3,38.5-3.2c13.7-0.3,27.6,0.9,41,2
			c6.5,0.5,13.2,1.1,19.8,1.5c35.3,2.1,71.2-0.4,106-2.8c43.1-3,87.6-6,131.1-0.4c3.5,0.5,7,1,10.5,1.5c11.8,1.9,24,3.8,36,1.5
			l0.1,0.7c-12.1,2.3-24.4,0.4-36.3-1.5c-3.4-0.5-7-1.1-10.4-1.5C716.5,348,672,351.1,629,354c-34.8,2.4-70.8,4.9-106.1,2.8
			c-6.6-0.4-13.3-1-19.8-1.5c-13.4-1.1-27.3-2.3-40.9-2c-12.8,0.2-25.8,1.7-38.4,3.2C410.1,358,396,359.7,381.9,359.7z"/>
	</g>
	<g>
		<path class="st0" d="M382.9,320.7c-5.4,0-10.8-0.2-16.2-0.8c-6.8-0.7-13.6-2-20.3-3.2c-6.1-1.1-12.5-2.3-18.8-3.1
			c-22.7-2.7-44.3-0.9-67.2,0.9c-11.3,0.9-23,1.8-34.7,2.2c-11.2,0.3-25.5-0.9-40.6-2.2c-16.3-1.4-33.1-2.8-49.4-2.8
			c-21.9,0-44.2,1.7-65.7,3.4c-23.8,1.8-46.2,3.5-66.3,2.9v-0.8c20.1,0.6,42.5-1.1,66.2-2.9c21.5-1.6,43.8-3.3,65.7-3.4
			c16.4-0.1,33.2,1.4,49.4,2.8c15.1,1.3,29.4,2.5,40.6,2.2c11.7-0.3,23.4-1.3,34.7-2.2c21.9-1.8,44.5-3.6,67.3-0.9
			c6.3,0.7,12.7,1.9,18.8,3.1c6.6,1.2,13.4,2.5,20.2,3.2c19.3,2.1,39-0.2,58-2.4c12.6-1.5,25.7-3,38.5-3.2c5.7-0.1,14-1,23.6-2.1
			c25-2.8,59.3-6.6,86.6-0.9c28.6,6,47.3,3.7,68.9,1c25.9-3.2,58.1-7.2,118.8,2.3c3.5,0.5,7,1.2,10.4,1.8
			c11.9,2.2,24.1,4.5,36.1,2.2l0.1,0.7c-12.1,2.3-24.4,0-36.4-2.2c-3.4-0.6-6.9-1.3-10.3-1.8c-60.6-9.5-92.7-5.5-118.6-2.3
			c-21.7,2.7-40.5,5-69.2-1c-27.2-5.7-61.4-1.9-86.4,0.9c-9.6,1.1-17.9,2-23.7,2.1c-12.8,0.2-25.8,1.7-38.4,3.2
			C411.1,319,397,320.7,382.9,320.7z"/>
	</g>
	<g>
		<path class="st0" d="M389.2,370.9c-0.1,0-0.2,0-0.3,0c-8.4,0-16.9-1.3-25.1-2.5c-3.2-0.5-6.5-1-9.8-1.4
			c-6.3-0.8-13.1-2.3-20.3-3.8c-10.2-2.2-20.8-4.5-30-4.7c-25.3-0.5-48,0.8-70,2s-44.7,2.5-70,2c-10.2-0.2-20.7-0.8-31.8-1.5
			c-23.3-1.4-47.4-2.8-68.9-0.3c-3,0.3-6.2,0.8-9.5,1.2c-16.3,2.1-36.6,4.7-50.8,2.6l0.1-0.7c14.1,2,34.4-0.5,50.6-2.6
			c3.3-0.4,6.5-0.8,9.5-1.2c21.6-2.5,45.8-1.1,69.1,0.2c11.1,0.7,21.6,1.3,31.8,1.5c25.3,0.5,48-0.8,70-2s44.7-2.5,70-2
			c9.2,0.2,19.8,2.5,30.1,4.7c7.2,1.6,14,3,20.2,3.8c3.3,0.4,6.6,0.9,9.8,1.4c8.2,1.2,16.6,2.4,25,2.4c9.5,0,19.1-1.5,28.4-3
			c4.1-0.6,8.3-1.3,12.4-1.9c21.3-2.7,43.2-2.1,64.3-1.5l109.3,3.3c14.3,0.4,29,0.9,43.3-1.6c4.4-0.8,8.8-1.8,13.1-2.9
			c5.2-1.3,10.7-2.6,16.1-3.3c23.3-3.3,49.2-0.8,74.1,1.7c21.3,2.1,41.5,4.1,56.7,1.9l0.1,0.7c-15.4,2.3-35.6,0.3-56.9-1.9
			c-24.9-2.5-50.7-5.1-74-1.7c-5.4,0.8-10.8,2.1-16,3.3c-4.3,1-8.7,2.1-13.1,2.9c-14.4,2.5-29.2,2.1-43.5,1.6l-109.3-3.3
			c-21.1-0.6-42.9-1.3-64.2,1.5c-4.1,0.5-8.3,1.2-12.4,1.8C408.3,369.4,398.7,370.9,389.2,370.9z"/>
	</g>
	<g>
		<path class="st0" d="M389.9,380.1c-17.8,0-35.8-1.9-53.3-3.8c-2.2-0.2-4.4-0.5-6.6-0.7c-6.7-0.7-13.6-2.2-20.2-3.6
			c-8.9-1.9-18.1-3.9-27.1-4.1c-17.5-0.4-34.1,1.4-50.2,3.1c-14.8,1.5-30.1,3.1-46.2,3.1h-0.1c-9.1,0-19.9-1.2-30.3-2.3
			c-4.8-0.5-9.2-1-13.4-1.4c-23.7-2-44.9-0.4-67.4,1.3c-21.8,1.7-44.3,3.4-72.3,2.2v-0.7c27.9,1.2,50.4-0.6,72.2-2.2
			c22.5-1.7,43.7-3.4,67.5-1.3c4.2,0.4,8.7,0.9,13.4,1.4c10.4,1.1,21.1,2.3,30.2,2.3h0.1c16.1,0,31.3-1.6,46.1-3.1
			c16.1-1.7,32.7-3.4,50.3-3.1c9.1,0.2,18.4,2.2,27.3,4.1c6.6,1.4,13.4,2.9,20.1,3.6c2.2,0.2,4.4,0.5,6.6,0.7
			c26.9,2.9,54.7,5.9,81.5,1.9c37.7-5.7,74.3-4.2,109.7-2.8c17.7,0.7,36,1.4,54.2,1.3c29-0.3,59-0.5,88.4-3.3c2.5-0.2,5-0.5,7.6-0.7
			c10-1,20.3-2.1,30.6-1.9c7.9,0.1,16,1,23.7,1.8c4.9,0.5,9.9,1.1,14.9,1.4l1.7,0.1c19.1,1.4,38.8,2.8,57.8-1.4l0.2,0.7
			c-19.1,4.3-38.9,2.8-58,1.5l-1.7-0.1c-5-0.4-10-0.9-14.9-1.4c-7.7-0.8-15.7-1.7-23.7-1.8c-10.2-0.2-20.5,0.9-30.5,1.9
			c-2.5,0.3-5,0.5-7.6,0.7c-29.4,2.8-59.4,3-88.4,3.3c-18.2,0.2-36.5-0.6-54.2-1.3c-35.4-1.4-71.9-2.9-109.6,2.8
			C409,379.5,399.5,380.1,389.9,380.1z"/>
	</g>
	<g>
		<path class="st0" d="M384.8,391.8c-7.8,0-15.6-0.5-23.3-1.6c-4.9-0.7-9.9-1.7-14.8-2.7c-10.4-2.1-21.1-4.2-31.8-3.6
			c-3.2,0.2-6.5,0.6-9.6,1c-3.5,0.5-7.1,0.9-10.7,1.1c-9.5,0.4-19-1.6-28.1-3.5c-8.9-1.9-18.1-3.8-27.2-3.6
			c-11.1,0.3-22,1.9-32.5,3.4c-5.3,0.8-10.8,1.6-16.2,2.2c-12.5,1.4-25.3-0.3-37.6-1.9c-2.9-0.4-6-0.8-9-1.2
			c-25.4-3-53.7-1.3-81,0.4c-21.9,1.3-42.6,2.6-60,1.3l0.1-0.7c17.4,1.3,38,0.1,59.9-1.3c27.4-1.7,55.7-3.4,81.2-0.4
			c3,0.4,6,0.8,9,1.2c12.3,1.6,25,3.3,37.5,1.9c5.5-0.6,10.9-1.4,16.2-2.2c10.6-1.5,21.5-3.1,32.6-3.4c9.2-0.2,18.5,1.7,27.4,3.6
			c9.1,1.9,18.6,3.9,28,3.5c3.6-0.1,7.2-0.6,10.6-1.1c3.2-0.4,6.4-0.8,9.7-1c10.8-0.6,21.6,1.6,32,3.6c4.8,1,9.8,2,14.7,2.7
			c24.7,3.6,50,0.3,74.4-2.8c21.8-2.8,44.4-5.7,66.6-3.8c5.8,0.5,11.7,1.3,17.4,2.2c8.1,1.2,16.5,2.4,24.9,2.6
			c10.9,0.3,22-1.1,32.6-2.4c5.8-0.7,11.9-1.5,17.8-2c7.3-0.6,14.8-0.2,22,0.1c8.4,0.4,17.2,0.8,25.7-0.3
			c37.9-4.9,73.8-2.9,102.7-1.4c26.3,1.4,47,2.5,60.4-1.6l0.2,0.7c-13.5,4.2-34.3,3.1-60.6,1.6c-28.8-1.6-64.7-3.5-102.5,1.4
			c-8.5,1.1-17.3,0.7-25.8,0.3c-7.2-0.3-14.7-0.7-21.9-0.1c-5.9,0.5-12,1.2-17.8,2c-10.7,1.3-21.8,2.7-32.8,2.4
			c-8.4-0.2-16.8-1.4-25-2.6c-5.7-0.8-11.6-1.6-17.4-2.1c-22.1-1.9-44.6,1-66.4,3.8C419.2,389.6,402,391.8,384.8,391.8z"/>
	</g>
	<g>
		<path class="st0" d="M807.5,336.3c-15.3-0.9-28.7-2.3-41.8-3.5c-36.4-3.6-67.9-6.7-120.6,0.1c-8.7,1.1-17.6,1-26.3,0.9
			c-7-0.1-14.3-0.2-21.4,0.4c-9.7,0.8-19.6-0.7-29.1-2.2c-7-1.1-14.3-2.2-21.5-2.4c-6-0.2-12,0.1-17.8,0.3c-8,0.3-16.3,0.7-24.5-0.1
			c-21.8-1.9-44,0-65.5,1.9c-24.8,2.1-50.5,4.3-75.5,0.7c-4.9-0.7-9.9-1.7-14.8-2.7c-10.4-2.1-21.1-4.2-31.8-3.6
			c-3.2,0.2-6.5,0.6-9.6,1c-3.5,0.5-7.1,0.9-10.7,1.1l-6.5,0.2c-16.6,0.6-32.4,1.2-48.8,1.6l-3,0.1c-15.5,0.4-30.2,0.7-45.7,2.5
			c-12.5,1.4-25.3-0.3-37.6-1.9c-2.9-0.4-6-0.8-9-1.2c-25.2-3-53.2-0.4-80.2,2c-22.2,2-43.2,4-60.8,2.6l0.1-0.7
			c17.6,1.4,38.5-0.6,60.7-2.6c27.1-2.5,55.1-5.1,80.4-2c3,0.4,6,0.8,9,1.2c12.3,1.6,25,3.3,37.5,1.9c15.5-1.8,30.2-2.1,45.8-2.5
			l3-0.1c16.5-0.4,32.2-1,48.8-1.6l6.5-0.2c3.6-0.1,7.2-0.6,10.6-1.1c3.2-0.4,6.4-0.8,9.7-1c10.8-0.6,21.6,1.6,32,3.6
			c4.8,1,9.8,2,14.7,2.7c25,3.6,50.6,1.4,75.4-0.7c21.5-1.8,43.8-3.7,65.7-1.9c8.2,0.7,16.4,0.4,24.4,0.1c5.8-0.2,11.9-0.5,17.9-0.3
			c7.2,0.2,14.5,1.3,21.6,2.4c9.5,1.5,19.3,3,28.9,2.2c7.1-0.6,14.4-0.5,21.5-0.4c8.6,0.1,17.5,0.3,26.2-0.8
			c52.8-6.7,84.3-3.7,120.7-0.1c13,1.3,26.5,2.6,41.8,3.5L807.5,336.3z"/>
	</g>
	<g>
		<path class="st0" d="M328.6,401.4c-4.7,0-9.4-0.1-14.1-0.4c-9.8-0.6-19.7-2.8-29.3-5c-14-3.1-28.5-6.4-42.7-4.6
			c-13.9,1.7-27.4,2-43.3,1.8c-2.8,0-5.5,0-8.2,0c-10.2,0-19.8,0.1-29.8-1.9c-21.8-4.3-42.8-5.8-62.3-4.6l-3.6,0.2
			c-30.7,2-62.4,4-92.4,8.8l-0.2-0.8c30-4.8,61.8-6.8,92.5-8.8l3.6-0.2c19.7-1.3,40.7,0.3,62.5,4.6c9.9,2,19.5,1.9,29.7,1.9
			c2.7,0,5.5,0,8.2,0c15.9,0.2,29.3,0,43.2-1.8c14.3-1.8,28.9,1.5,42.9,4.6c9.6,2.1,19.5,4.4,29.2,5c13.1,0.8,26,0.3,38.2-0.4
			c14-0.7,28.2-1.7,42-2.6c43.7-2.9,88.8-5.9,133.1-2.4c3.4,0.3,6.7,0.6,10.1,0.9c13.1,1.2,26.6,2.4,39.9,1.3
			c8.8-0.7,17.5-2.5,26-4.1c8.8-1.7,17.8-3.5,26.9-4.2c15.5-1.2,31.2,0.9,46.4,2.8c6.6,0.8,13.4,1.7,20,2.3c36,3.3,72.5-0.9,107.8-5
			l0.1,0.7c-35.3,4.1-71.8,8.3-107.9,5c-6.7-0.6-13.5-1.5-20.1-2.3c-15.2-2-30.9-4-46.3-2.8c-9,0.7-18.1,2.5-26.8,4.2
			c-8.5,1.7-17.3,3.4-26.1,4.1c-13.3,1.1-26.9-0.1-40-1.3c-3.4-0.3-6.7-0.6-10.1-0.9c-44.2-3.4-89.4-0.4-133,2.4
			c-13.8,0.9-28,1.9-42,2.6C345,401,336.8,401.4,328.6,401.4z"/>
	</g>
	<g>
		<path class="st0" d="M581.9,409.6c-10,0-20.1-1.5-29.8-2.9c-3.3-0.5-6.8-1-10.2-1.4c-39.7-5.1-80.4-2.1-119.9,0.7
			c-40.4,2.9-82.1,5.9-122.7,0.4c-4.7-0.6-9.4-1.4-14-2.1c-12.2-2-24.8-4-37.3-3.9c-9.3,0.1-18.7,1.4-27.9,2.7
			c-9.5,1.3-19.3,2.7-29.1,2.7h-0.1c-11.2,0-22.4-1.8-33.2-3.5c-9.2-1.5-18.7-3-28.1-3.4c-44.7-2-78.2-1.9-126.7,4.8L2.8,403
			c48.6-6.6,82.1-6.8,126.9-4.8c9.5,0.4,19,2,28.2,3.4c10.8,1.7,22,3.5,33.1,3.5h0.1c9.7,0,19.5-1.4,29-2.7c9.1-1.3,18.6-2.6,28-2.7
			c12.6-0.1,25.2,1.9,37.4,3.9c4.6,0.7,9.3,1.5,13.9,2.1c40.5,5.6,82.2,2.5,122.5-0.4c39.5-2.9,80.3-5.8,120-0.7
			c3.4,0.4,6.9,0.9,10.2,1.4c11.5,1.7,23.5,3.4,35.2,2.7c9-0.5,17.9-2.5,26.6-4.3c5.3-1.1,10.8-2.3,16.2-3.2
			c21-3.3,42.6-1.9,63.6-0.5c6.5,0.4,13.3,0.9,20,1.2c30.3,1.3,60.8-0.4,90.7-5.1l0.1,0.7c-30,4.7-60.5,6.4-90.8,5.1
			c-6.6-0.3-13.4-0.7-20-1.2c-20.9-1.4-42.5-2.8-63.4,0.5c-5.4,0.8-10.9,2-16.1,3.2c-8.7,1.9-17.7,3.8-26.7,4.3
			C585.5,409.5,583.7,409.6,581.9,409.6z"/>
	</g>
	<g>
		<path class="st0" d="M362.1,417.5c-23.4,0-46.5-0.5-59.4-1.8c-31.4-3.3-62.9-3.3-93.3-3.3c-34.5,0-70.1,0-105.7-4.8
			c-26.8-3.6-40.1-2.1-55.4-0.3c-11.5,1.3-24.6,2.9-45.6,2.2v-0.8c20.9,0.7,33.9-0.9,45.4-2.2c15.4-1.8,28.7-3.3,55.6,0.3
			c35.6,4.8,71.2,4.8,105.6,4.7c30.4,0,61.9,0,93.4,3.3c27.4,2.9,100.9,1.7,125.5,0.7c21.7-0.8,39.2-1.8,55.2-3.1
			c1.9-0.2,3.8-0.3,5.7-0.5c12.9-1.1,26.3-2.2,39.5-1.4c5.9,0.4,11.8,1.1,17.6,1.8c5.8,0.7,11.7,1.5,17.6,1.8
			c15.4,0.9,51.9-3,65.8-5.4c32.4-5.5,62.3-3.5,93.9-1.4c25.6,1.7,52.1,3.5,80.9,1.1l0.1,0.7c-28.8,2.4-55.4,0.6-81-1.1
			c-31.6-2.1-61.4-4.1-93.7,1.4c-14,2.4-50.6,6.3-66,5.4c-5.9-0.4-11.9-1.1-17.7-1.8c-5.7-0.7-11.7-1.4-17.5-1.8
			c-13.1-0.8-26.5,0.3-39.4,1.4c-1.9,0.2-3.8,0.3-5.7,0.5c-15.9,1.3-33.5,2.2-55.2,3.1C415.3,416.9,388.5,417.5,362.1,417.5z"/>
	</g>
	<g>
		<path class="st0" d="M370.4,427.3c-3.2,0-6.1-0.1-8.5-0.5c-3.7-0.5-8.6-1.1-13.7-1.6c-6.8-0.7-13.7-1.5-18.6-2.3
			c-19.5-3.4-39.3-2.6-58.5-1.8c-10.2,0.4-20.7,0.9-31.1,0.7c-3.5-0.1-6.9-0.1-10.3-0.2c-20.9-0.3-40.6-0.6-61.5-3
			c-10.4-1.2-23.9-0.9-38.2-0.6c-16.3,0.4-33.1,0.8-45.2-1.3c-16.4-2.8-29.1-1-41.4,0.7c-12.9,1.8-25,3.4-40.6,0.1l0.2-0.7
			c15.5,3.3,27.6,1.6,40.4-0.1c12.3-1.7,25.1-3.5,41.6-0.7c12,2,28.8,1.7,45,1.3c14.3-0.3,27.8-0.6,38.3,0.6
			c20.8,2.4,40.5,2.7,61.4,3c3.4,0,6.9,0.1,10.3,0.2c10.4,0.2,20.9-0.3,31.1-0.7c19.2-0.8,39.1-1.6,58.7,1.8
			c4.8,0.9,11.8,1.6,18.6,2.3c5.2,0.6,10,1.1,13.7,1.6c10.1,1.5,28.6-0.7,39.7-2l1.1-0.1c56.3-6.6,96-5.1,150.1-1.9l4,0.2
			c11,0.7,22.4,1.4,33.6,0.4c8.2-0.7,16.5-2.3,24.5-3.9c7.6-1.5,15.5-3.1,23.4-3.8c14.8-1.4,30-0.1,44.6,1.2
			c5.5,0.5,11.3,1,16.9,1.4c34.9,2.2,70.2-1.5,104.3-5l0.1,0.7c-34.2,3.5-69.5,7.2-104.5,5c-5.6-0.4-11.4-0.9-16.9-1.4
			c-14.6-1.3-29.7-2.6-44.4-1.2c-7.8,0.8-15.7,2.3-23.4,3.8c-8,1.6-16.3,3.2-24.6,3.9c-11.2,1-22.7,0.3-33.7-0.4l-4-0.2
			c-54.1-3.2-93.7-4.7-150,1.9l-1.1,0.1C393.3,425.7,380.6,427.3,370.4,427.3z"/>
	</g>
	<g>
		<path class="st0" d="M20.1,459.8c-5.4,0-11.1-0.5-17.4-1.8l0.2-0.7c15.5,3.3,27.3,1.5,39.8-0.4c12.1-1.8,24.6-3.7,41.2-0.9
			c22.8,3.9,60.2,2.9,85.2-2.1c20.4-4.1,41.4-3.6,61.7-3.1c3.7,0.1,7.3,0.2,11,0.2c12.8,0.2,27.7,1.7,44.9,3.3
			c23,2.2,49.1,4.7,76.3,4.8c10.6,0,30.2-0.9,40.8-2.1c56.3-6.6,96-5.1,150.1-1.9l4,0.2c11,0.7,22.5,1.4,33.6,0.4
			c9.8-0.9,19.6-1.9,29.1-2.9c6.1-0.6,12.5-1.3,18.8-1.9c14.8-1.4,30-0.1,44.6,1.2c5.5,0.5,11.3,1,16.9,1.4
			c34.9,2.2,70.2-1.5,104.3-5l0.1,0.7c-34.2,3.5-69.5,7.2-104.5,5c-5.6-0.4-11.4-0.9-16.9-1.4c-14.6-1.3-29.7-2.6-44.4-1.2
			c-6.3,0.6-12.7,1.3-18.8,1.9c-9.5,1-19.3,2-29.1,2.9c-11.2,1-22.7,0.3-33.7-0.4l-4-0.2c-54.1-3.2-93.7-4.7-150,1.9
			c-10.6,1.2-30.3,2.1-40.9,2.1c-27.2-0.1-53.3-2.6-76.3-4.8c-17.2-1.7-32.1-3.1-44.8-3.3c-3.7-0.1-7.3-0.2-11-0.2
			c-20.3-0.5-41.2-1-61.5,3.1c-25.1,5.1-62.6,6-85.5,2.1c-16.4-2.8-28.9-0.9-40.9,0.9C35.3,458.7,28,459.8,20.1,459.8z"/>
	</g>
	<g>
		<path class="st0" d="M438.9,435.7c-9.2,0-18.3-0.8-27.3-1.5c-8.3-0.7-16.8-1.4-25.2-1.5c-10.5-0.1-21.1,0.7-31.4,1.5
			c-11.5,0.9-23.3,1.8-35.1,1.4c-9.9-0.3-19.9-1.8-29.5-3.1c-13.7-2-27.9-4-41.9-2.9c-27.3,2.2-54,0.1-73.5-1.4
			c-8.2-0.6-14.6-1.1-19.2-1.2c-5.2,0-11.6,0.4-18.3,0.9c-15.7,1.1-33.5,2.3-48.8-1.2c-32.9-7.5-74,0.1-85.8,2.6l-0.2-0.7
			c11.9-2.5,53.1-10.1,86.2-2.6c15.2,3.4,32.9,2.2,48.5,1.2c6.7-0.5,13.1-0.9,18.3-0.9c4.6,0,11.1,0.5,19.3,1.2
			c19.5,1.5,46.2,3.6,73.4,1.4c14.1-1.1,28.3,0.9,42.1,2.9c9.6,1.4,19.6,2.8,29.4,3.1c11.7,0.4,23.5-0.5,35-1.4
			c10.3-0.8,20.9-1.6,31.4-1.5c8.4,0.1,17,0.8,25.3,1.5c13.4,1.1,27.2,2.3,40.8,0.8c6.7-0.7,13.5-2.2,20-3.7c4.4-1,8.9-2,13.4-2.8
			c22.2-3.8,45-1.7,67.2,0.4c20.2,1.9,41.2,3.9,61.5,1.3c6-0.8,12-1.9,17.9-3.1c6.2-1.2,12.6-2.5,19-3.2c15.5-1.8,31.4-0.9,46.7,0
			c5.2,0.3,10.6,0.6,15.9,0.8c27.6,1.1,57.7,1.7,90.7-1.1l0.1,0.7c-33,2.8-63.2,2.2-90.8,1.1c-5.3-0.2-10.7-0.5-16-0.8
			c-15.3-0.9-31.1-1.9-46.6,0c-6.4,0.8-12.8,2-19,3.2c-5.8,1.1-11.9,2.3-17.9,3.1c-20.4,2.6-41.4,0.6-61.7-1.3
			c-22.1-2.1-44.9-4.2-67-0.4c-4.5,0.8-9,1.8-13.3,2.8c-6.5,1.5-13.3,3-20.1,3.7C448,435.5,443.4,435.7,438.9,435.7z"/>
	</g>
	<g>
		<path class="st0" d="M386.9,443.7c-25.8,0-51.8-2.1-77.1-4.1c-33.8-2.7-68.8-5.5-103.2-3.3c-7.8,0.5-15.7,1.3-23.3,2
			c-13.7,1.3-27.8,2.7-41.8,2.6c-15-0.1-30.8-1.6-46-3C64.3,435,32.1,432,2.8,440l-0.2-0.7c29.4-8,61.7-5,92.9-2.1
			c15.2,1.4,31,2.9,45.9,3c13.9,0.1,28-1.3,41.7-2.6c7.6-0.7,15.5-1.5,23.3-2c34.4-2.2,69.4,0.6,103.3,3.3
			c31.3,2.5,63.7,5.1,95.5,3.7c14.3-0.6,28.9-2.1,43-3.5c20.9-2.1,42.5-4.2,63.8-3.7c10.3,0.2,20.7,1.1,30.7,1.9
			c14,1.2,28.5,2.3,42.7,1.9c14.4-0.5,28.8-2.6,42.8-4.7c12.3-1.8,25.1-3.7,37.7-4.4c19.3-1.1,39.1,0.4,58.2,1.9
			c26.7,2.1,54.3,4.2,81-1l0.1,0.7c-26.7,5.2-54.4,3-81.2,1c-19.1-1.5-38.8-3-58.1-1.9c-12.6,0.7-25.4,2.6-37.7,4.4
			c-14,2.1-28.5,4.2-42.9,4.7c-14.3,0.5-28.8-0.7-42.8-1.9c-10.1-0.8-20.5-1.7-30.7-1.9c-21.3-0.5-42.8,1.6-63.7,3.7
			c-14.1,1.4-28.7,2.8-43,3.5C399.2,443.6,393.1,443.7,386.9,443.7z"/>
	</g>
	<g>
		<path class="st0" d="M120.4,451.3c-11.9,0-23.4-0.7-36.2-1.4c-21.9-1.3-46.8-2.8-81.4-1.1V448c34.7-1.7,59.6-0.2,81.5,1.1
			c17,1,31.6,1.9,47.9,1.2c9.6-0.4,19.3-2,28.7-3.5c4.9-0.8,9.9-1.6,14.9-2.3c40.3-5.2,80.4-1.9,114.3,2.1
			c47.8,5.6,88,3.1,126.9,0.8c18-1.1,36.5-2.2,55.7-2.6c10.9-0.2,22.1,0.5,33,1.2c10.8,0.7,22.1,1.4,32.9,1.2
			c42.1-0.8,85.7-1.6,128.3-6c2.5-0.3,5-0.5,7.4-0.8c15-1.6,30.5-3.3,45.8-2.2c7.6,0.6,15.1,1.4,22.4,2.3c21.1,2.4,41,4.8,63.2,0.3
			l0.1,0.7c-22.3,4.5-42.3,2.1-63.4-0.3c-7.2-0.8-14.7-1.7-22.3-2.3c-15.2-1.2-30.7,0.5-45.7,2.2c-2.5,0.3-5,0.5-7.4,0.8
			c-42.7,4.5-86.2,5.3-128.4,6c-10.9,0.2-22.1-0.5-33-1.2c-10.8-0.7-22.1-1.4-32.9-1.2c-19.2,0.4-37.8,1.5-55.7,2.6
			c-38.9,2.4-79.2,4.8-127.1-0.8c-33.9-4-73.9-7.3-114.1-2.1c-5,0.6-10,1.5-14.9,2.3c-9.4,1.5-19.1,3.1-28.8,3.5
			C128.2,451.3,124.3,451.3,120.4,451.3z"/>
	</g>
	<g>
		<path class="st0" d="M689,586.3c-12,0-25-0.6-39.5-2.2c-33.5-3.6-61.5-5.5-89.5-3.1c-4.4,0.4-9,0.8-13.3,1.2
			c-9.8,1-20,1.9-30.1,2.2c-21.3,0.6-41.7-1.8-61.3-4.2c-20-2.4-40.7-4.8-62.5-4.1c-10.3,0.3-22.2,1.4-33.8,2.5
			c-8.5,0.8-16.6,1.5-24,2c-22.6,1.4-45.6-0.1-67.8-1.5c-9.8-0.6-19.9-1.3-29.8-1.7c-32-1.3-63-0.1-93,1
			c-47.9,1.8-93.1,3.5-141.7-3.8l0.1-0.7c48.5,7.3,93.7,5.6,141.4,3.8c30-1.1,61.1-2.3,93.1-1c9.9,0.4,20.1,1,29.8,1.7
			c22.2,1.4,45.2,2.9,67.7,1.5c7.4-0.5,15.4-1.2,24-2c11.6-1.1,23.5-2.1,33.8-2.5c21.8-0.7,42.5,1.7,62.6,4.1
			c19.6,2.3,39.9,4.7,61.2,4.2c10-0.3,20.2-1.2,30-2.2c4.4-0.4,8.9-0.9,13.4-1.2c28.1-2.3,56.1-0.4,89.6,3.1
			c42.7,4.5,72.4,1,101.1-2.4c18.6-2.2,36.1-4.3,56.2-4.1v0.8c-20.1-0.2-37.6,1.9-56.1,4.1C731.7,583.9,712.3,586.3,689,586.3z"/>
	</g>
	<g>
		<path class="st0" d="M674,574.6c-15.9,0-32.2-1.1-48.1-2.2c-15.4-1.1-29.9-2.1-41.2-1.8c-9.7,0.3-19.4,0.8-28.8,1.3
			c-24.9,1.4-48.4,2.7-73.2-0.3c-6.3-0.7-12.7-1.9-18.8-3.1c-6.6-1.2-13.4-2.5-20.2-3.2c-19.3-2.1-39,0.2-58,2.4
			c-12.6,1.5-25.6,3-38.5,3.2c-13.7,0.3-27.6-0.9-41-2c-6.5-0.5-13.2-1.1-19.8-1.5c-35.3-2.1-71.2,0.4-106,2.8
			c-43.1,3-87.6,6-131.1,0.4c-3.5-0.5-7-1-10.5-1.5c-11.8-1.9-24-3.8-36-1.5l-0.1-0.7c12.1-2.3,24.4-0.4,36.2,1.5
			c3.4,0.5,7,1.1,10.4,1.5c43.4,5.6,87.9,2.5,130.9-0.4c34.8-2.4,70.8-4.9,106.1-2.8c6.6,0.4,13.3,1,19.8,1.5
			c13.4,1.1,27.3,2.3,40.9,2c12.8-0.2,25.8-1.7,38.4-3.2c19.1-2.2,38.8-4.5,58.2-2.4c6.8,0.7,13.6,2,20.3,3.2
			c6.1,1.1,12.5,2.3,18.7,3.1c24.7,2.9,48.2,1.6,73.1,0.3c9.4-0.5,19.1-1,28.8-1.3c11.3-0.3,25.8,0.7,41.2,1.8
			c16.1,1.1,32.6,2.3,48.8,2.2c22.3-0.1,44.7-2.2,66.4-4.3c23.1-2.2,44.8-4.3,64.6-3.7v0.8c-19.7-0.6-41.5,1.5-64.5,3.7
			c-21.7,2.1-44.1,4.2-66.5,4.3C674.5,574.6,674.3,574.6,674,574.6z"/>
	</g>
	<g>
		<path class="st0" d="M109.1,565.8c-16.2,0-33.1-1.7-49.5-3.3c-21.3-2.1-41.5-4.1-56.7-1.9l-0.1-0.7c15.4-2.3,35.6-0.3,56.9,1.9
			c24.9,2.5,50.7,5.1,74,1.7c5.4-0.8,10.8-2.1,16-3.3c4.3-1,8.7-2.1,13.1-2.9c14.4-2.5,29.2-2.1,43.5-1.7l109.2,3.3
			c21.1,0.6,42.9,1.3,64.2-1.5c4.1-0.5,8.3-1.2,12.4-1.8c9.2-1.5,18.8-3,28.3-3c0.1,0,0.2,0,0.3,0c8.4,0,16.9,1.3,25.1,2.5
			c3.2,0.5,6.5,1,9.8,1.4c6.3,0.8,13.1,2.3,20.3,3.8c10.2,2.2,20.8,4.5,29.9,4.7c25.3,0.5,48-0.8,70-2c22-1.3,44.7-2.5,70-2
			c10.2,0.2,20.7,0.8,31.8,1.5c23.3,1.4,47.4,2.8,68.9,0.3c5.7-0.7,12.1-2.2,18.8-3.9c14.7-3.6,29.8-7.3,41.6-2.8l-0.3,0.7
			c-11.5-4.4-26.6-0.7-41.1,2.9c-6.8,1.7-13.1,3.2-18.9,3.9c-21.6,2.5-45.8,1.1-69.1-0.2c-11.1-0.7-21.6-1.3-31.8-1.5
			c-25.3-0.5-48,0.8-70,2c-22,1.3-44.7,2.5-70,2c-9.2-0.2-19.8-2.5-30.1-4.7c-7.2-1.6-14-3-20.2-3.8c-3.3-0.4-6.6-0.9-9.8-1.4
			c-8.2-1.2-16.6-2.4-25-2.4c-9.6,0-19.2,1.5-28.4,3c-4.1,0.6-8.3,1.3-12.4,1.9c-21.3,2.7-43.2,2.1-64.3,1.5l-109.3-3.3
			c-14.3-0.4-29-0.9-43.3,1.6c-4.4,0.8-8.8,1.8-13.1,2.9c-5.2,1.3-10.7,2.6-16.1,3.3C125.8,565.3,117.5,565.8,109.1,565.8z"/>
	</g>
	<g>
		<path class="st0" d="M531.5,556.4c-1.5,0-3.1,0-4.6,0c-9.1-0.2-18.4-2.2-27.3-4.1c-6.6-1.4-13.4-2.9-20.1-3.6
			c-2.2-0.2-4.4-0.5-6.6-0.7c-26.9-2.9-54.7-5.9-81.5-1.9c-37.7,5.7-74.3,4.2-109.7,2.8c-17.7-0.7-36-1.4-54.2-1.3
			c-29,0.3-59,0.5-88.4,3.3c-2.5,0.2-5,0.5-7.5,0.7c-10,1-20.3,2-30.6,1.9c-7.9-0.1-16-1-23.7-1.8c-4.9-0.5-9.9-1.1-14.9-1.4
			l-1.7-0.1c-19.1-1.4-38.8-2.8-57.8,1.4l-0.2-0.7c19.1-4.3,38.9-2.8,58-1.5l1.7,0.1c5,0.4,10,0.9,14.9,1.4
			c7.7,0.8,15.8,1.7,23.7,1.8c10.2,0.2,20.5-0.9,30.5-1.9c2.5-0.3,5-0.5,7.6-0.7c29.4-2.8,59.4-3,88.4-3.3
			c18.2-0.2,36.5,0.6,54.2,1.3c35.4,1.4,71.9,2.9,109.6-2.8c27-4.1,54.8-1,81.7,1.9c2.2,0.2,4.4,0.5,6.6,0.7
			c6.7,0.7,13.6,2.2,20.2,3.6c8.9,1.9,18.1,3.9,27.1,4.1c17.5,0.3,34.1-1.4,50.2-3.1c14.8-1.5,30.1-3.1,46.2-3.1h0.1
			c9.1,0,19.9,1.2,30.3,2.3c4.8,0.5,9.2,1,13.4,1.4c23.4,2,44.2-0.1,66.2-2.4c21.9-2.3,44.6-4.6,72.9-3.4v0.8
			c-28.3-1.2-50.9,1.2-72.8,3.4c-22,2.3-42.9,4.4-66.4,2.4c-4.2-0.4-8.6-0.9-13.4-1.4c-10.4-1.1-21.2-2.3-30.2-2.3h-0.1
			c-16.1,0-31.3,1.6-46.1,3.1C562.5,554.8,547.4,556.4,531.5,556.4z"/>
	</g>
	<g>
		<path class="st0" d="M568.9,545.3c-8.7,0-17.5-1.8-25.9-3.6c-9.1-1.9-18.6-3.9-28-3.5c-3.6,0.1-7.2,0.6-10.6,1.1
			c-3.2,0.4-6.4,0.8-9.7,1c-10.8,0.6-21.6-1.6-32-3.6c-4.8-1-9.8-2-14.7-2.7c-24.7-3.6-50-0.3-74.4,2.8c-21.8,2.8-44.4,5.7-66.6,3.8
			c-5.8-0.5-11.7-1.3-17.4-2.2c-8.1-1.2-16.5-2.4-24.9-2.6c-10.9-0.3-22,1.1-32.6,2.4c-5.8,0.7-11.9,1.5-17.8,2
			c-7.3,0.6-14.8,0.2-22-0.1c-8.4-0.4-17.2-0.8-25.7,0.3c-38.1,4.9-74.2,2.7-103.3,1c-26.3-1.5-47.1-2.8-60.3,1.3L2.8,542
			c13.4-4.2,34.2-2.9,60.6-1.4c29,1.7,65.2,3.8,103.2-1c8.5-1.1,17.3-0.7,25.8-0.3c7.2,0.3,14.7,0.7,21.9,0.1c5.9-0.5,12-1.2,17.8-2
			c10.7-1.3,21.8-2.7,32.8-2.4c8.4,0.2,16.8,1.4,25,2.6c5.7,0.8,11.6,1.6,17.4,2.1c22.1,1.9,44.6-1,66.4-3.8
			c24.5-3.1,49.9-6.4,74.6-2.8c4.9,0.7,9.9,1.7,14.8,2.7c10.4,2.1,21.1,4.2,31.8,3.6c3.2-0.2,6.5-0.6,9.6-1
			c3.5-0.5,7.1-0.9,10.7-1.1c9.5-0.4,19,1.6,28.1,3.5c8.9,1.9,18.1,3.8,27.2,3.6c11.1-0.3,22-1.9,32.5-3.4
			c5.3-0.8,10.8-1.6,16.2-2.2c12.5-1.4,25.3,0.3,37.6,1.9c2.9,0.4,6,0.8,9,1.2c25.3,3,53.1,0.9,80-1.2c21.9-1.7,42.5-3.3,60.1-2
			l-0.1,0.7c-17.5-1.3-38.1,0.3-60,2c-26.9,2.1-54.8,4.3-80.1,1.2c-3-0.4-6-0.8-9-1.2c-12.3-1.6-25-3.3-37.5-1.9
			c-5.5,0.6-10.9,1.4-16.2,2.2c-10.6,1.5-21.5,3.1-32.6,3.4C569.9,545.3,569.4,545.3,568.9,545.3z"/>
	</g>
	<g>
		<path class="st0" d="M697.4,538c-15.7,0-32.2-1.7-49.1-5c-9.9-2-19.5-1.9-29.7-1.9c-2.7,0-5.5,0-8.2,0c-15.9-0.2-29.3,0-43.2,1.8
			c-14.3,1.8-28.9-1.5-42.9-4.6c-9.6-2.1-19.5-4.4-29.2-5c-13.1-0.8-26-0.3-38.2,0.4c-14,0.7-28.2,1.7-42,2.6
			c-43.6,2.9-88.8,5.9-133.1,2.4c-3.4-0.3-6.7-0.6-10.1-0.9c-13.1-1.2-26.6-2.4-39.9-1.3c-8.8,0.7-17.5,2.5-26,4.1
			c-8.8,1.7-17.8,3.5-26.9,4.2c-15.5,1.2-31.2-0.9-46.4-2.8c-6.6-0.8-13.4-1.7-20-2.3c-34.3-3.1-70.3,1-105,5l-4.6,0.5l-0.1-0.7
			l4.6-0.5c34.8-4,70.7-8.2,105.2-5c6.7,0.6,13.5,1.5,20.1,2.3c15.2,2,30.9,4,46.3,2.8c9-0.7,18.1-2.5,26.8-4.2
			c8.5-1.7,17.3-3.4,26.1-4.1c13.3-1.1,26.9,0.1,40,1.3c3.4,0.3,6.7,0.6,10.1,0.9c44.2,3.4,89.4,0.4,133-2.4c13.8-0.9,28-1.9,42-2.6
			c12.2-0.6,25.1-1.2,38.3-0.4c9.8,0.6,19.7,2.8,29.3,5c14,3.1,28.5,6.4,42.7,4.6c13.9-1.7,27.4-2,43.3-1.8c2.8,0,5.5,0,8.2,0
			c10.2,0,19.8-0.1,29.8,1.9c21.8,4.3,42.8,5.8,62.3,4.6l3.6-0.2c30.7-2,62.4-4,92.4-8.8l0.1,0.7c-30,4.8-61.7,6.8-92.5,8.8
			l-3.6,0.2C706.4,537.9,701.9,538,697.4,538z"/>
	</g>
	<g>
		<path class="st0" d="M2.9,528.1l-0.1-0.7c34.9-5.5,66.2-7.6,93.3-6.4c6.6,0.3,13.4,0.7,20,1.2c20.9,1.4,42.5,2.8,63.4-0.5
			c5.4-0.8,10.9-2,16.1-3.2c8.7-1.9,17.7-3.8,26.7-4.3c11.9-0.7,23.8,1,35.4,2.7c3.3,0.5,6.8,1,10.2,1.4
			c39.7,5.1,80.4,2.1,119.9-0.7c40.4-2.9,82.1-5.9,122.7-0.4c4.7,0.6,9.4,1.4,14,2.1c12.2,2,24.8,4,37.3,3.9
			c9.3-0.1,18.8-1.4,27.9-2.7c9.5-1.3,19.3-2.7,29.2-2.7c11.2,0,22.4,1.8,33.2,3.5c9.2,1.5,18.7,3,28.1,3.4
			c39.4,1.8,73.4,3.3,125.1-3.7l0.1,0.7c-51.8,7-85.8,5.5-125.2,3.7c-9.5-0.4-19-2-28.2-3.4c-10.8-1.7-22-3.5-33.1-3.5h-0.1
			c-9.7,0-19.5,1.4-29,2.7c-9.1,1.3-18.6,2.6-28,2.7c-12.6,0.1-25.2-1.9-37.4-3.9c-4.6-0.7-9.3-1.5-13.9-2.1
			c-40.5-5.6-82.2-2.5-122.5,0.4c-39.5,2.9-80.2,5.8-120,0.7c-3.4-0.4-6.9-0.9-10.2-1.4c-11.5-1.7-23.5-3.4-35.2-2.7
			c-9,0.5-17.9,2.5-26.6,4.3c-5.3,1.1-10.8,2.3-16.2,3.2c-21,3.3-42.6,1.9-63.6,0.5c-6.5-0.4-13.3-0.9-20-1.2
			C69,520.5,37.7,522.7,2.9,528.1z"/>
	</g>
	<g>
		<path class="st0" d="M734,518.7c-7.6,0-16.6-0.6-28.2-2.1c-35.6-4.8-71.2-4.8-105.6-4.7c-30.4,0-61.9,0-93.4-3.3
			c-27.4-2.9-100.9-1.7-125.5-0.7c-21.7,0.8-39.3,1.8-55.2,3.1c-1.9,0.2-3.8,0.3-5.7,0.5c-12.9,1.1-26.3,2.2-39.5,1.4
			c-5.9-0.4-11.8-1.1-17.6-1.8c-5.8-0.7-11.7-1.5-17.6-1.8c-15.4-0.9-51.9,3-65.8,5.4c-27.9,4.7-51,3.2-75.5,1.6
			c-27.3-1.8-58.2-3.8-101.6,2.5l-0.1-0.7c43.5-6.3,74.4-4.3,101.7-2.5c24.4,1.6,47.5,3.1,75.3-1.6c14-2.4,50.6-6.3,66-5.4
			c5.9,0.3,11.9,1.1,17.7,1.8c5.7,0.7,11.7,1.4,17.5,1.8c13.1,0.8,26.5-0.3,39.4-1.4c1.9-0.2,3.8-0.3,5.7-0.5
			c15.9-1.3,33.4-2.2,55.2-3.1c24.6-1,98.1-2.1,125.6,0.7c31.4,3.3,62.8,3.3,93.3,3.3c34.5,0,70.1,0,105.7,4.8
			c26.7,3.6,39.3,2,54,0.1c11.2-1.4,23.9-3.1,45.1-2.4v0.8c-21.1-0.7-33.8,1-44.9,2.4C751.6,517.7,743.9,518.7,734,518.7z"/>
	</g>
	<g>
		<path class="st0" d="M2.8,511.1l-0.1-0.7c37.1-3.8,73.3-7.1,107-5c5.6,0.4,11.4,0.9,16.9,1.4c14.6,1.3,29.7,2.6,44.4,1.2
			c7.8-0.8,15.7-2.3,23.4-3.8c8-1.6,16.3-3.2,24.6-3.9c11.2-1,22.7-0.3,33.7,0.4l4,0.2c54.1,3.2,93.7,4.7,150-1.9l1.1-0.1
			c11.1-1.3,29.6-3.5,39.9-2c3.7,0.5,8.6,1.1,13.7,1.6c6.8,0.7,13.7,1.5,18.6,2.3c19.5,3.4,39.3,2.6,58.5,1.8
			c10.2-0.4,20.7-0.9,31.1-0.7c3.5,0.1,6.9,0.1,10.3,0.2c20.9,0.3,40.6,0.6,61.5,3c10.4,1.2,23.9,0.9,38.2,0.6
			c16.3-0.4,33.1-0.8,45.2,1.3c16.4,2.8,28.7,0.7,40.5-1.3c12.3-2.1,23.9-4,39.5-0.7l-0.2,0.7c-15.5-3.3-27-1.3-39.2,0.7
			c-11.9,2-24.2,4.1-40.7,1.3c-12-2-28.8-1.7-45-1.3c-14.3,0.3-27.8,0.6-38.3-0.6c-20.8-2.4-40.5-2.7-61.4-3
			c-3.4,0-6.8-0.1-10.3-0.2c-10.4-0.2-20.9,0.3-31.1,0.7c-19.2,0.8-39.1,1.6-58.7-1.8c-4.8-0.8-11.8-1.6-18.6-2.3
			c-5.2-0.6-10-1.1-13.7-1.6c-10.1-1.5-28.6,0.7-39.7,2l-1.1,0.1c-56.3,6.6-96,5.1-150.1,1.9l-4-0.2c-11-0.7-22.5-1.4-33.6-0.4
			c-8.2,0.7-16.5,2.3-24.5,3.9c-7.6,1.5-15.5,3.1-23.4,3.8c-14.8,1.4-30,0.1-44.6-1.2c-5.5-0.5-11.3-1-16.9-1.4
			C76,504,39.9,507.2,2.8,511.1z"/>
	</g>
	<g>
		<path class="st0" d="M2.8,490.9l-0.1-0.7c8.5-0.7,17.1-1.6,25.4-2.5c22.1-2.3,44.9-4.7,67.7-3.8c7.2,0.3,14.4,1,21.4,1.7
			c13.4,1.3,27.3,2.7,40.8,1c6.4-0.8,12.8-2,19-3.2c5.8-1.1,11.9-2.3,17.9-3.1c20.5-2.6,41.6-0.2,61.9,2.2c22,2.6,44.7,5.3,66.7,1.5
			c4.5-0.8,9-1.8,13.3-2.8c6.5-1.5,13.3-3,20.1-3.7c13.7-1.4,27.5-0.3,40.9,0.8c8.3,0.7,16.8,1.4,25.2,1.5
			c10.5,0.1,21.1-0.7,31.4-1.5c11.5-0.9,23.3-1.8,35.1-1.4c9.9,0.3,19.9,1.8,29.5,3.1c13.7,2,27.9,4,41.9,2.9
			c36.7-3,78.3-5.2,94.7-5.1c7.3,0.1,16.3,0.4,25.9,0.8c13,0.5,27.7,1.2,42.1,1.2c28.5,0,57.6-2.8,81.9-8l0.2,0.7
			c-24.4,5.2-53.6,8-82.1,8c-14.3,0-29.1-0.6-42.1-1.2c-9.6-0.4-18.7-0.8-25.9-0.8c-16.4-0.1-58,2.1-94.7,5.1
			c-14.1,1.1-28.3-0.9-42.1-2.9c-9.6-1.4-19.6-2.8-29.4-3.1c-11.7-0.4-23.5,0.5-35,1.4c-10.3,0.8-20.9,1.6-31.4,1.5
			c-8.4-0.1-17-0.8-25.3-1.5c-13.4-1.1-27.2-2.3-40.8-0.8c-6.7,0.7-13.5,2.2-20,3.7c-4.4,1-8.9,2-13.4,2.8
			c-22.1,3.8-44.9,1.1-66.9-1.5c-20.3-2.4-41.3-4.9-61.8-2.2c-6,0.8-12,1.9-17.9,3.1c-6.2,1.2-12.6,2.5-19,3.2
			c-13.7,1.6-27.6,0.3-41-1c-7-0.7-14.3-1.4-21.4-1.7c-22.7-0.9-45.5,1.5-67.6,3.8C19.9,489.3,11.3,490.2,2.8,490.9z"/>
	</g>
	<g>
		<path class="st0" d="M2.9,481.1l-0.1-0.7c28-5.4,57.9-4.5,86.9-3.6c18.3,0.6,37.2,1.2,55.2,0.1c8-0.5,16-1,23.7-1.5
			c18.8-1.2,36.5-2.3,55.5-2.9c14.3-0.5,28.8,0.7,42.8,1.9c10.1,0.8,20.5,1.7,30.7,1.9c21.3,0.5,42.8-1.6,63.7-3.7
			c14.1-1.4,28.7-2.8,43-3.5c31.9-1.4,64.3,1.2,95.6,3.7c33.8,2.7,68.8,5.5,103.2,3.3c7.8-0.5,15.7-1.3,23.3-2
			c13.7-1.3,27.8-2.7,41.8-2.6c8.4,0.1,17,0.3,25.3,0.4c37.7,0.8,76.6,1.7,112.3-8.1l0.2,0.7c-35.8,9.8-74.8,8.9-112.5,8.1
			c-8.3-0.2-17-0.4-25.3-0.4c-13.9-0.1-28,1.3-41.7,2.6c-7.6,0.7-15.5,1.5-23.3,2c-34.4,2.2-69.4-0.6-103.3-3.3
			c-31.3-2.5-63.7-5.1-95.5-3.7c-14.3,0.6-28.9,2.1-43,3.5c-20.9,2.1-42.5,4.2-63.8,3.7c-10.3-0.2-20.7-1.1-30.8-1.9
			c-14-1.2-28.5-2.3-42.7-1.9c-19,0.6-36.7,1.7-55.5,2.9c-7.7,0.5-15.6,1-23.7,1.5c-18,1-37,0.5-55.2-0.1
			C60.7,476.6,30.8,475.7,2.9,481.1z"/>
	</g>
	<g>
		<path class="st0" d="M589.9,470.6c-24.9,0-48.9-2.3-70.4-4.8c-47.8-5.6-88-3.1-126.9-0.8c-18,1.1-36.5,2.2-55.7,2.6
			c-20,0.4-43.4,0.4-65.9-2.4c-47.8-5.9-89.9-3-128.2,1c-4.3,0.4-8.7,1-13,1.5c-13.7,1.7-27.8,3.5-41.3,2.4
			c-5.9-0.4-11.8-1-17.4-1.5c-22.7-2.2-44.2-4.2-68.1,0.6l-0.1-0.7c24-4.8,45.5-2.7,68.3-0.6c5.7,0.5,11.5,1.1,17.4,1.5
			c13.4,1,27.5-0.7,41.1-2.4c4.3-0.5,8.7-1.1,13-1.5c38.4-4,80.5-6.9,128.4-1c22.5,2.8,45.9,2.8,65.8,2.4
			c19.2-0.4,37.8-1.5,55.7-2.6c38.9-2.4,79.2-4.8,127.1,0.8c33.9,4,73.9,7.3,114.1,2.1c4.9-0.6,9.9-1.5,14.8-2.4
			c9.4-1.7,19.2-3.4,28.9-3.4c27.3,0.3,55.1-2.3,77.4-4.3c22.2-2,39.8-3.6,50.1-2.2l-0.1,0.7c-10.2-1.5-27.7,0.1-49.9,2.2
			c-22.3,2-50.1,4.6-77.5,4.3c-9.7-0.1-19.4,1.7-28.8,3.3c-4.8,0.9-9.8,1.8-14.8,2.4C619,469.8,604.3,470.6,589.9,470.6z"/>
	</g>
	<g>
		<path class="st0" d="M14.4,503.6c-4,0-7.9-0.4-11.7-1.4l0.2-0.7c10.9,2.9,23.5,0.6,35.6-1.7c5.9-1.1,11.5-2.1,16.9-2.6
			c9.7-0.8,19.7,0,29.2,0.9c4.3,0.4,8.7,0.8,13,1c1.9,0.1,3.9,0.2,5.8,0.3c18.7,1.1,38.1,2.2,56.8-0.6c48-7.2,88.3-5.9,131-4.6
			c40.2,1.2,81.8,2.5,132.4-3.3c20.1-2.3,44.3,1.2,63.1,4.5c14,2.5,33.5,1.2,49.2,0.2c3-0.2,6-0.4,8.7-0.5c72.9-4.2,117-3.2,181.4,4
			c22.9,2.6,47,1.5,78.3-3.4l0.1,0.7c-31.3,4.9-55.5,6-78.5,3.4c-64.3-7.2-108.4-8.2-181.2-4c-2.7,0.2-5.6,0.3-8.7,0.5
			c-15.7,1-35.3,2.3-49.4-0.2c-17.3-3.1-42.7-6.9-62.9-4.5c-50.7,5.8-92.3,4.6-132.5,3.3c-42.7-1.3-83-2.5-130.9,4.6
			c-18.8,2.8-38.2,1.7-56.9,0.6c-1.9-0.1-3.9-0.2-5.8-0.3c-4.4-0.2-8.8-0.6-13.1-1c-9.6-0.9-19.4-1.8-29.1-0.9
			c-5.4,0.5-10.9,1.5-16.8,2.6C30.5,502.1,22.3,503.6,14.4,503.6z"/>
	</g>
	<g>
		<path class="st0" d="M2.9,497.3l-0.2-0.7c24.6-5.3,52.3-7.5,82.1-6.6c11.1,0.3,20.3,1.5,29.3,2.7c18.3,2.4,35.7,4.6,63.6-1.7
			c31.1-7,65.2-4.4,98.1-1.9c9.4,0.7,18.3,1.4,27,1.9c29.9,1.5,60.5-1.6,87.6-4.3c24-2.4,44.7-4.6,58.5-2.7
			c39.9,5.5,78.5,4.2,115.8,3c14.5-0.5,29.6-1,44.2-1h10.5c38.2-0.2,68.3-0.3,107.2,3l2.1,0.2c10.1,0.9,20.6,1.8,30.7-0.2
			c4.1-0.8,8-1.9,11.7-2.9c9.8-2.7,19-5.3,32.7-3.5l-0.1,0.7c-13.5-1.8-22.7,0.8-32.4,3.5c-3.7,1-7.6,2.1-11.7,2.9
			c-10.1,2-20.7,1.1-30.9,0.2l-2.1-0.2c-38.9-3.3-69-3.2-107.2-3h-10.5c-14.6,0.1-29.6,0.5-44.2,1c-37.3,1.2-75.9,2.5-115.9-3
			c-13.7-1.9-34.3,0.2-58.3,2.7c-27.1,2.8-57.8,5.9-87.7,4.3c-8.7-0.4-17.6-1.1-27-1.9c-32.9-2.5-66.9-5.1-97.9,1.8
			c-28,6.3-45.4,4.1-63.8,1.7c-9-1.2-18.2-2.4-29.3-2.7C55,489.8,27.5,492,2.9,497.3z"/>
	</g>
</g>
</svg>
