<?xml version="1.0" encoding="utf-8"?>
<!-- Generator: Adobe Illustrator 23.0.2, SVG Export Plug-In . SVG Version: 6.00 Build 0)  -->
<svg version="1.1" id="Capa_1" xmlns="http://www.w3.org/2000/svg" xmlns:xlink="http://www.w3.org/1999/xlink" x="0px" y="0px"
	 viewBox="0 0 960 565.6" style="enable-background:new 0 0 960 565.6;" xml:space="preserve">
<style type="text/css">
	.st0{fill:#4BB9B8;}
</style>
<path class="st0" d="M668.8,558.7c31.7-0.7,103.7-6.8,131.5-22.3c25.3-14.2,62-61.4,76.2-87.6c27.3-48.9,47.2-73.8,68.8-121.7
	c3.1-6.8,8.7-12.4,8.7-19.9c-1.3-14.9-19.9-19.9-34.7-20.5c-68.4-3.7-137.2-7.4-205.3-11.8c-19.2-1.3-39.1-2.4-55.3-13.1
	c-16.2-10.5-26-28.6-34.7-45.2c-29.3-57.7-55.9-117.3-79.5-178c-5.7-13.8-11.8-29.3-26-34.1c-11.8-4.4-25.3,0.7-34.7,9.4
	s-14.9,20.5-19.9,32.3c-24.9,52.9-49.6,105.5-73.8,158.3c-5.7,12.4-11.8,24.9-20.5,34.7c-27.3,31-73.2,33-113.6,33
	c-59.6-0.7-119.7-0.7-179.3-1.3c-13.8,0-28,0-41.1,4.4c-13.1,4.4-24.9,14.2-28,28c-2.4,12.4,2.4,24.9,7.4,36.7
	c22.5,47.8,45.6,96.3,71.6,142.2c13.8,24.9,44.8,61.4,101.8,65.7c57,5,163.8,9.8,252,9.8C542.7,558.7,567.6,559.8,668.8,558.7z"/>
</svg>
