<?xml version="1.0" encoding="utf-8"?>
<!-- Generator: Adobe Illustrator 23.0.2, SVG Export Plug-In . SVG Version: 6.00 Build 0)  -->
<svg version="1.1" id="Capa_1" xmlns="http://www.w3.org/2000/svg" xmlns:xlink="http://www.w3.org/1999/xlink" x="0px" y="0px"
	 viewBox="0 0 1920 1080" style="enable-background:new 0 0 1920 1080;" xml:space="preserve">
<style type="text/css">
	.st0{fill:#4BB9B8;}
</style>
<g>
	<path class="st0" d="M2.5,41.4c-0.9,0-1.8,0-2.7,0l0-0.8c20.1,0.2,37.7-1.9,56.5-4.1c29.1-3.5,59.1-7,101.9-2.5
		c2.3,0.2,4.7,0.5,7.1,0.6l-0.1,0.7c-2.4-0.2-4.8-0.4-7.1-0.6c-42.7-4.5-72.7-1-101.7,2.5C38.4,39.4,21.5,41.4,2.5,41.4z"/>
</g>
<g>
	<path class="st0" d="M18.5,47.1c-6.1,0-12.3-0.3-18.7-0.9l0.1-0.7C25.4,48,47,44.9,69.9,41.7c26.3-3.7,53.4-7.6,86.9-2.2
		c2.5,0.4,5.3,0.7,8.2,0.9l-0.1,0.7c-2.9-0.2-5.7-0.5-8.2-0.9c-33.4-5.4-60.5-1.6-86.7,2.2C53.6,44.7,36.7,47.1,18.5,47.1z"/>
</g>
<g>
	<path class="st0" d="M22.6,23c-7.4,0-15.1-0.3-23.1-1.1l0.1-0.7c25.3,2.5,47.5,0.3,68.9-1.8c26.3-2.6,53.5-5.3,87.4,0.2
		c2.8,0.5,5.9,0.8,9.2,1.1l-0.1,0.7c-3.3-0.3-6.4-0.6-9.2-1.1c-33.8-5.5-60.9-2.8-87.2-0.2C53.8,21.5,38.8,23,22.6,23z"/>
</g>
<g>
	<path class="st0" d="M7.6,53.6c-2.6,0-5.2,0-7.8-0.1l0-0.8c19.9,0.6,42.1-1.3,65.5-3.3c21.7-1.9,44.2-3.8,66.4-3.9
		c9.4,0,19.6,0.3,33.2,1.2l0,0.7c-13.6-0.8-23.9-1.2-33.2-1.2c-22.2,0.1-44.7,2-66.4,3.9C44.9,51.9,25.4,53.6,7.6,53.6z"/>
</g>
<g>
	<path class="st0" d="M9.1,14c-3.3,0-6.4,0-9.6-0.1l0-0.8c20.2,0.6,43.2-0.9,67.6-2.6c21.6-1.5,44-3,65.7-3c9.1,0,19.3,0.4,32.2,1.4
		L165,9.6c-12.9-1-23.2-1.4-32.2-1.4c-21.7,0-44.1,1.6-65.7,3C46.5,12.7,26.9,14,9.1,14z"/>
</g>
<g>
	<path class="st0" d="M11.8,62.1c-4.3,0-8.4-0.2-12-0.7l0.1-0.7c14.1,2,34.4-0.5,50.6-2.6c3.3-0.4,6.5-0.8,9.5-1.2
		c21.6-2.5,45.8-1.1,69.1,0.2c11.1,0.7,21.6,1.3,31.8,1.5c1.4,0,2.8,0.1,4.2,0.1l0,0.8c-1.4,0-2.8,0-4.2-0.1
		c-10.2-0.2-20.7-0.8-31.8-1.5C105.7,56.4,81.6,55,60,57.5c-3,0.3-6.2,0.8-9.5,1.2C38.5,60.2,24.1,62.1,11.8,62.1z"/>
</g>
<g>
	<path class="st0" d="M18,71c-5.8,0-11.9-0.1-18.2-0.4l0-0.7C27.7,71,50.3,69.3,72,67.6c22.5-1.7,43.7-3.4,67.5-1.3
		c4.2,0.4,8.6,0.8,13.4,1.4c4,0.4,8.1,0.9,12.1,1.3l-0.1,0.7c-4-0.4-8.1-0.8-12.1-1.3c-4.7-0.5-9.2-1-13.4-1.4
		c-23.7-2.1-44.9-0.4-67.4,1.3C55.2,69.6,37.9,71,18,71z"/>
</g>
<g>
	<path class="st0" d="M165,81c-5.1-0.5-10.2-1.2-15.1-1.8c-2.9-0.4-6-0.8-9-1.2c-25.4-3-53.7-1.3-81,0.4c-21.9,1.3-42.6,2.6-60,1.3
		l0.1-0.7c17.4,1.3,38,0.1,59.9-1.3c27.4-1.7,55.7-3.4,81.2-0.4c3,0.4,6,0.8,9,1.2c5,0.7,10.1,1.3,15.1,1.8L165,81z"/>
</g>
<g>
	<path class="st0" d="M12.2,31.3c-4.4,0-8.7-0.1-12.7-0.4l0.1-0.7c17.6,1.4,39-0.6,61.7-2.7c27.7-2.5,56.4-5.2,81.7-2.1
		c3,0.4,6,0.8,9,1.2c4.3,0.6,8.8,1.2,13.1,1.6l-0.1,0.7c-4.4-0.5-8.8-1-13.1-1.6c-2.9-0.4-6-0.8-9-1.2c-25.2-3-53.9-0.4-81.6,2.1
		C43.8,29.8,27,31.3,12.2,31.3z"/>
</g>
<g>
	<path class="st0" d="M-0.1,92.2l-0.1-0.7c30-4.8,61.8-6.8,92.5-8.8l3.6-0.2c19.7-1.3,40.7,0.3,62.5,4.6c2.2,0.4,4.4,0.8,6.7,1
		l-0.1,0.7c-2.4-0.3-4.6-0.6-6.8-1.1c-21.8-4.3-42.8-5.8-62.3-4.6l-3.6,0.2C61.5,85.4,29.8,87.5-0.1,92.2z"/>
</g>
<g>
	<path class="st0" d="M164.9,100.4c-3.4-0.5-6.9-1-10.2-1.6c-9.2-1.5-18.7-3-28.1-3.4c-44.7-2-78.2-1.9-126.7,4.8l-0.1-0.7
		c48.6-6.6,82.1-6.8,126.9-4.8c9.5,0.4,19,2,28.2,3.4c3.3,0.5,6.8,1.1,10.2,1.6L164.9,100.4z"/>
</g>
<g>
	<path class="st0" d="M165,108.7c-24.9-0.5-45.4-1.9-64.2-4.5c-26.8-3.6-40.1-2.1-55.4-0.3c-11.5,1.3-24.6,2.9-45.6,2.2l0-0.8
		c20.9,0.7,33.9-0.9,45.4-2.2c15.4-1.8,28.7-3.3,55.6,0.3c18.9,2.5,39.2,4,64.2,4.5L165,108.7z"/>
</g>
<g>
	<path class="st0" d="M17.8,115.9c-5.6,0-11.6-0.5-18.1-1.9l0.2-0.7c15.5,3.3,27.6,1.6,40.4-0.1c12.3-1.7,25.1-3.5,41.6-0.7
		c12.1,2,29.1,1.9,45.5,1.7c14.3-0.2,27.8-0.3,38.2,0.9l-0.1,0.7c-10.3-1.2-23.8-1.1-38.1-0.9c-16.5,0.2-33.5,0.4-45.7-1.7
		c-16.4-2.8-29.1-1-41.4,0.7C32.9,114.9,25.6,115.9,17.8,115.9z"/>
</g>
<g>
	<path class="st0" d="M17.1,156.4c-5.4,0-11.1-0.5-17.4-1.8l0.2-0.7c15.5,3.3,27.3,1.5,39.8-0.4c12.1-1.8,24.6-3.7,41.2-0.9
		c22.8,3.9,60.2,2.9,85.2-2.1l0.1,0.7c-25.1,5.1-62.6,6-85.5,2.1c-16.4-2.8-28.9-0.9-40.9,0.9C32.3,155.3,25,156.4,17.1,156.4z"/>
</g>
<g>
	<path class="st0" d="M-0.1,125.8l-0.2-0.7c11.9-2.5,53.1-10.1,86.2-2.6c15.2,3.4,32.9,2.2,48.5,1.2c6.7-0.5,13.1-0.9,18.3-0.9
		c3.5,0,8.2,0.3,12.3,0.6l-0.1,0.7c-4.1-0.3-8.7-0.6-12.2-0.6c-5.2,0-11.6,0.4-18.3,0.9c-15.7,1.1-33.5,2.3-48.8-1.2
		C52.8,115.8,11.7,123.3-0.1,125.8z"/>
</g>
<g>
	<path class="st0" d="M140.1,137.5c-0.5,0-1.1,0-1.6,0c-15-0.1-30.8-1.6-46-3c-31.2-2.9-63.4-5.9-92.7,2.1l-0.2-0.7
		c29.4-8,61.7-5,92.9-2.1c15.2,1.4,31,2.9,45.9,3c7.7,0.1,15.9-0.3,26.4-1.2l0.1,0.7C155.2,137.2,147.4,137.5,140.1,137.5z"/>
</g>
<g>
	<path class="st0" d="M117.4,147.9c-11.9,0-23.4-0.7-36.2-1.4c-21.9-1.3-46.8-2.8-81.4-1.1l0-0.7c34.7-1.7,59.6-0.2,81.5,1.1
		c16.9,1,31.6,1.9,47.9,1.2c9.6-0.4,19.3-2,28.7-3.5c2.4-0.4,4.7-0.8,7.1-1.1l0.1,0.7c-2.4,0.4-4.7,0.7-7.1,1.1
		c-9.4,1.5-19.1,3.1-28.8,3.5C125.2,147.9,121.3,147.9,117.4,147.9z"/>
</g>
<g>
	<path class="st0" d="M-0.2,187.5l-0.1-0.7c8.5-0.7,17.1-1.6,25.4-2.5c22.1-2.3,44.9-4.7,67.7-3.8c7.2,0.3,14.4,1,21.4,1.7
		c13.4,1.3,27.3,2.7,40.8,1c3-0.4,6.1-0.8,9.8-1.5l0.1,0.7c-3.7,0.7-6.9,1.1-9.9,1.5c-13.7,1.6-27.6,0.3-41-1
		c-7-0.7-14.3-1.4-21.4-1.7c-22.7-0.9-45.5,1.5-67.6,3.8C16.9,185.9,8.3,186.8-0.2,187.5z"/>
</g>
<g>
	<path class="st0" d="M-0.1,177.7l-0.1-0.7c28-5.4,57.9-4.5,86.9-3.6c18.3,0.6,37.2,1.2,55.2,0.1c8-0.5,15.7-1,23.2-1.4l0,0.7
		c-7.5,0.5-15.2,1-23.2,1.4c-18.1,1-37,0.5-55.2-0.1C57.7,173.2,27.8,172.3-0.1,177.7z"/>
</g>
<g>
	<path class="st0" d="M93.8,167.1c-2.8,0-5.6-0.1-8.4-0.3c-5.9-0.4-11.8-1-17.4-1.5c-22.7-2.2-44.2-4.2-68.1,0.6l-0.1-0.7
		c24-4.8,45.5-2.7,68.3-0.6c5.7,0.5,11.5,1.1,17.4,1.5c13.4,1,27.5-0.7,41.1-2.4c4.3-0.5,8.7-1.1,13-1.5c9.2-1,17.5-1.7,25.4-2.3
		l0.1,0.7c-7.9,0.6-16.2,1.4-25.4,2.3c-4.3,0.4-8.7,1-13,1.5C115.8,165.7,104.7,167.1,93.8,167.1z"/>
</g>
</svg>
