<?xml version="1.0" encoding="utf-8"?>
<!-- Generator: Adobe Illustrator 23.0.2, SVG Export Plug-In . SVG Version: 6.00 Build 0)  -->
<svg version="1.1" id="Capa_1" xmlns="http://www.w3.org/2000/svg" xmlns:xlink="http://www.w3.org/1999/xlink" x="0px" y="0px"
	 viewBox="0 0 600 900" style="enable-background:new 0 0 600 900;" xml:space="preserve">
<style type="text/css">
	.st0{fill:#F9F4F2;}
	.st1{fill:#33CCCC;}
</style>
<rect class="st0" width="600" height="899.3"/>
<g>
	<g>
		<path class="st1" d="M1086.4,753.9c-12,0-23.1-1.6-34-3.1c-17.3-2.5-35.1-5-57.1-1.4c-11.1,1.8-26.1,0.5-39.4-0.7
			c-5.7-0.5-11.2-1-15.9-1.2c-22-0.9-43.8,0.3-68.6,3.8c-19.4,2.8-33.6,1.6-41.2,1c-1.5-0.1-2.7-0.2-3.7-0.3
			c-36.1-1.8-72.6-1.9-108.7-0.5c-2.2,0.1-4.3,0.2-6.5,0.3c-18.4,0.8-37.4,1.6-55.9-1.2c-3.6-0.5-7.3-1.2-10.9-1.9
			c-8.9-1.7-18.1-3.4-27.2-3c-7.2,0.4-14.7,1.6-21.9,2.8c-9.6,1.6-18.7,3.1-27,2.7c-10.1-0.5-21.2-1.7-32.9-3c-18-1.9-36.7-4-55-4
			c-10.6,0-21.6,0.7-32.1,1.5c-10.1,0.7-19.7,1.4-27.2,1.2c-6.4-0.2-12.8-0.5-19-0.9c-16.4-0.9-31.9-1.7-48.1,0.2
			c-4.1,0.5-8.3,1.3-12.4,2c-4.4,0.8-8.9,1.6-13.4,2.1c-12.8,1.4-25.8-0.1-38.4-1.6c-8.3-1-16.9-1.9-25.3-2.1
			c-9-0.2-18.1,0.6-27,1.3c-4.3,0.4-8.7,0.7-13.1,1c-23.3,1.4-47-0.2-69.9-1.8c-28.4-1.9-57.7-4-86.3-0.3c-2.7,0.3-5.4,0.8-8.1,1.2
			c-7.8,1.2-15.9,2.4-23.6,2.1c-12.9-0.6-24.5-2.2-35.7-3.7c-21.3-3-41.5-5.7-68-1.5c-11.1,1.8-26.1,0.5-39.4-0.7
			c-5.7-0.5-11.2-1-15.9-1.2c-22-0.9-43.8,0.3-68.6,3.8c-19.4,2.8-33.6,1.6-41.2,1c-1.5-0.1-2.7-0.2-3.7-0.3
			c-36.1-1.8-72.6-1.9-108.7-0.5c-2.2,0.1-4.3,0.2-6.5,0.3c-18.4,0.8-37.4,1.6-55.9-1.2c-3.6-0.5-7.3-1.2-10.9-1.9
			c-8.9-1.7-18.1-3.4-27.2-3c-6.8,0.3-13.8,1.7-20.7,2.9c-10.1,1.9-19.7,3.7-28.3,2.5l0.1-0.7c8.5,1.2,18-0.6,28.1-2.5
			c6.8-1.3,13.9-2.6,20.7-3c9.2-0.5,18.5,1.3,27.4,3c3.6,0.7,7.2,1.4,10.9,1.9c18.4,2.8,37.4,2,55.8,1.2c2.2-0.1,4.3-0.2,6.5-0.3
			c36.1-1.5,72.7-1.3,108.8,0.5c1,0,2.3,0.1,3.7,0.3c7.6,0.6,21.8,1.7,41.1-1c24.8-3.5,46.7-4.8,68.7-3.8c4.8,0.2,10.2,0.7,16,1.2
			c13.2,1.2,28.3,2.5,39.2,0.7c26.6-4.3,46.8-1.5,68.2,1.5c11.2,1.6,22.8,3.2,35.6,3.7c7.6,0.3,15.7-0.9,23.5-2.1
			c2.7-0.4,5.5-0.8,8.1-1.2c28.6-3.7,58-1.7,86.4,0.3c22.9,1.6,46.6,3.2,69.9,1.8c4.4-0.3,8.8-0.6,13.1-1c8.8-0.7,18-1.5,27-1.3
			c8.5,0.2,17.1,1.2,25.4,2.1c12.5,1.4,25.5,2.9,38.2,1.6c4.5-0.5,9-1.3,13.3-2.1c4-0.8,8.2-1.5,12.4-2c16.3-1.9,31.8-1.1,48.2-0.2
			c6.2,0.3,12.6,0.7,19,0.9c7.4,0.2,17-0.5,27.1-1.2c10.6-0.7,21.6-1.5,32.2-1.5c18.3,0,37,2.1,55,4c11.8,1.3,22.9,2.5,32.9,3
			c8.2,0.4,17.3-1.1,26.9-2.7c7.3-1.2,14.8-2.4,22-2.8c9.2-0.5,18.5,1.3,27.4,3c3.6,0.7,7.2,1.4,10.9,1.9c18.4,2.8,37.4,2,55.8,1.2
			c2.2-0.1,4.3-0.2,6.5-0.3c36.1-1.5,72.7-1.3,108.8,0.5c1,0,2.3,0.1,3.7,0.3c7.6,0.6,21.8,1.7,41.1-1c24.8-3.5,46.7-4.8,68.7-3.8
			c4.8,0.2,10.2,0.7,16,1.2c13.2,1.2,28.3,2.5,39.2,0.7c22.1-3.6,40-1,57.3,1.4c15.1,2.1,29.3,4.2,46.2,2.5l0.1,0.7
			C1094.5,753.7,1090.4,753.9,1086.4,753.9z"/>
	</g>
	<g>
		<path class="st1" d="M848.9,759.9c-9.3,0-18.6-1.1-27.7-2.1c-8.3-1-16.9-1.9-25.3-2.1c-9-0.2-18.1,0.6-27,1.3
			c-4.3,0.4-8.7,0.7-13.1,1c-23.3,1.4-47-0.2-69.9-1.8c-28.4-1.9-57.7-4-86.3-0.3c-5.5,0.7-10.9,0.4-16,0c-4.6-0.3-9.4-0.6-14.3-0.2
			c-8,0.7-18.8-1.3-28.3-3.1c-4.9-0.9-9.4-1.8-13.4-2.2c-14.2-1.7-30.1-0.7-45.4,0.2c-7.3,0.4-14.2,0.8-21,1
			c-16.7,0.3-31.7-0.5-46.1-1.3c-14.5-0.8-29.4-1.7-46.1-1.3c-6,0.1-13,1.6-19.7,3.1c-4.8,1-9.2,2-13.4,2.5
			c-2.2,0.3-4.3,0.6-6.5,0.9c-5.4,0.8-11,1.6-16.6,1.6c-0.1,0-0.1,0-0.2,0c-6.3,0-12.6-1-18.7-2c-2.7-0.4-5.4-0.9-8.2-1.2
			c-14-1.8-28.4-1.4-42.3-1l-72,2.2c-9.4,0.3-19.2,0.6-28.7-1.1c-2.9-0.5-5.8-1.2-8.7-1.9c-3.4-0.8-7-1.7-10.5-2.2
			c-16.8-2.4-36.4-0.2-53.8,1.7c-12.4,1.4-24.1,2.7-33.2,2.1c-7.3-0.4-15.1-1-23.3-1.6c-20-1.4-42.6-3.1-64.2-3.1
			c-10.6,0-21.5,0.7-32.1,1.5c-10.1,0.7-19.7,1.4-27.2,1.2c-6.4-0.2-12.8-0.5-19-0.9c-16.4-0.9-31.8-1.7-48.1,0.2
			c-4.1,0.5-8.3,1.3-12.4,2c-4.4,0.8-8.9,1.6-13.3,2.1c-12.8,1.4-25.8-0.1-38.4-1.6c-8.3-1-16.9-1.9-25.3-2.1
			c-9-0.2-18.1,0.6-27,1.3c-4.3,0.4-8.7,0.7-13.1,1c-23.3,1.4-47-0.2-69.9-1.8c-28.4-1.9-57.7-4-86.3-0.3c-2.3,0.3-4.6,0.7-6.9,1
			c-7.8,1.2-15.9,2.5-23.9,1l0.1-0.6c7.9,1.5,15.9,0.2,23.7-1c2.3-0.4,4.6-0.7,6.9-1c28.6-3.7,58-1.7,86.4,0.3
			c22.9,1.6,46.6,3.2,69.9,1.8c4.4-0.3,8.8-0.6,13.1-1c8.8-0.7,18-1.5,27-1.3c8.5,0.2,17.1,1.2,25.4,2.1c12.5,1.4,25.5,2.9,38.2,1.6
			c4.5-0.5,9-1.3,13.3-2.1c4-0.8,8.2-1.5,12.4-2c16.3-1.9,31.8-1.1,48.2-0.2c6.2,0.3,12.6,0.7,19,0.9c7.4,0.2,17-0.5,27.1-1.2
			c10.6-0.7,21.6-1.5,32.2-1.5c21.6,0,44.3,1.7,64.2,3.1c8.2,0.6,16,1.2,23.3,1.6c9,0.5,20.7-0.8,33.1-2.1
			c17.4-1.9,37.1-4.1,53.9-1.7c3.6,0.5,7.2,1.4,10.6,2.2c2.8,0.7,5.7,1.4,8.6,1.9c9.4,1.6,19.1,1.4,28.5,1.1l72-2.2
			c13.9-0.4,28.3-0.8,42.4,1c2.7,0.4,5.5,0.8,8.2,1.2c6.1,1,12.3,2,18.6,2c0.1,0,0.1,0,0.2,0c5.5,0,11.1-0.8,16.5-1.6
			c2.1-0.3,4.3-0.6,6.5-0.9c4.1-0.5,8.6-1.5,13.3-2.5c6.8-1.5,13.8-3,19.8-3.1c16.7-0.3,31.7,0.5,46.1,1.3
			c14.5,0.8,29.4,1.7,46.1,1.3c6.7-0.1,13.6-0.5,20.9-1c15.4-0.9,31.3-1.8,45.5-0.2c4,0.5,8.6,1.3,13.4,2.2
			c9.5,1.8,20.2,3.8,28.1,3.1c4.9-0.4,9.7-0.1,14.4,0.2c5.2,0.3,10.5,0.7,15.9,0c28.6-3.7,58-1.7,86.4,0.3
			c22.9,1.6,46.6,3.2,69.9,1.8c4.4-0.3,8.8-0.6,13.1-1c8.8-0.7,18-1.5,27-1.3c8.5,0.2,17.1,1.2,25.4,2.1c12.5,1.4,25.5,2.9,38.2,1.6
			c4.5-0.5,9-1.3,13.3-2.1c4-0.8,8.2-1.5,12.4-2c16.3-1.9,31.8-1.1,48.2-0.2c6.2,0.3,12.6,0.7,19,0.9c7.4,0.2,17-0.5,27.1-1.2
			c10.6-0.7,21.5-1.5,32.2-1.5c14.6,0,29.5,1.3,43.8,2.6c15.5,1.3,30.1,2.6,43.2,2.2v0.7c-13.1,0.4-27.8-0.9-43.3-2.2
			c-14.3-1.2-29.1-2.5-43.7-2.6c-0.2,0-0.3,0-0.5,0c-10.4,0-21.2,0.8-31.6,1.5c-10.1,0.7-19.7,1.4-27.2,1.2
			c-6.4-0.2-12.8-0.5-19-0.9c-16.4-0.9-31.8-1.7-48.1,0.2c-4.1,0.5-8.3,1.3-12.4,2c-4.4,0.8-8.9,1.6-13.4,2.1
			C856,759.8,852.5,759.9,848.9,759.9z"/>
	</g>
	<g>
		<path class="st1" d="M844.1,767.3c-6.3,0-12.6-1-18.7-2c-2.7-0.4-5.4-0.9-8.2-1.2c-14-1.8-28.4-1.4-42.3-1l-72,2.2
			c-9.4,0.3-19.2,0.6-28.7-1.1c-2.9-0.5-5.8-1.2-8.7-1.9c-3.4-0.8-7-1.7-10.6-2.2c-17.5-2.5-38.3-1.5-56.7-0.5
			c-11.6,0.6-22.6,1.1-31.1,0.7c-13.5-0.7-25-1.9-36.2-3c-19.5-1.9-36.3-3.6-55.9-1.9c-2.7,0.2-5.7,0.6-8.8,0.9
			c-6.9,0.8-14,1.5-20,1.5c0,0,0,0-0.1,0c-10.6,0-20.7-1.1-30.4-2.1c-10.6-1.1-21.5-2.2-33.1-2c-6,0.1-12,1.4-17.9,2.7
			c-4.4,0.9-8.9,1.9-13.3,2.4c-1.5,0.2-2.9,0.3-4.4,0.5c-17.7,1.9-36.1,3.9-53.9,1.2c-24.8-3.7-48.9-2.8-72.2-1.8
			c-11.7,0.5-23.7,1-35.7,0.8c-19.1-0.2-38.9-0.4-58.3-2.2c-1.7-0.2-3.3-0.3-5-0.5c-6.6-0.7-13.4-1.4-20.1-1.2
			c-5.2,0.1-10.5,0.7-15.6,1.2c-3.2,0.3-6.6,0.7-9.8,0.9l-4,0.3c-12,0.9-23.4,1.7-35.9,1.8c-10.2,0.1-25-1.6-36.9-3l-3.5-0.4
			c-14.2-1.7-30.1-0.7-45.4,0.2c-7.3,0.4-14.2,0.8-21,1c-16.7,0.3-31.7-0.5-46.1-1.3c-14.5-0.8-29.4-1.7-46.1-1.3
			c-6,0.1-13,1.6-19.7,3.1c-4.8,1-9.2,2-13.4,2.5c-2.2,0.3-4.3,0.6-6.5,0.9c-5.4,0.8-11,1.6-16.6,1.6c-0.1,0-0.1,0-0.2,0
			c-6.3,0-12.6-1-18.7-2c-2.7-0.4-5.4-0.9-8.2-1.2c-14-1.8-28.4-1.4-42.3-1l-72,2.2c-9.4,0.3-19.2,0.6-28.7-1.1
			c-2.9-0.5-5.8-1.2-8.7-1.9c-3.4-0.8-7-1.7-10.5-2.2c-15.3-2.2-32.3-0.5-48.7,1.1c-14.1,1.4-27.4,2.7-37.5,1.2l0.1-0.7
			c10.1,1.5,23.3,0.2,37.4-1.2c16.5-1.6,33.5-3.3,48.9-1.1c3.6,0.5,7.2,1.4,10.6,2.2c2.8,0.7,5.7,1.4,8.6,1.9
			c9.4,1.6,19.1,1.4,28.5,1.1l72-2.2c13.9-0.4,28.3-0.8,42.4,1c2.7,0.4,5.5,0.8,8.2,1.2c6.1,1,12.3,2,18.6,2c0.1,0,0.1,0,0.2,0
			c5.5,0,11.1-0.8,16.5-1.6c2.1-0.3,4.3-0.6,6.5-0.9c4.1-0.5,8.6-1.5,13.3-2.5c6.8-1.5,13.8-3,19.8-3.1c16.7-0.3,31.7,0.5,46.1,1.3
			c14.5,0.8,29.4,1.7,46.1,1.3c6.7-0.1,13.6-0.5,20.9-1c15.4-0.9,31.3-1.8,45.5-0.2l3.5,0.4c11.8,1.4,26.6,3.2,36.8,3
			c12.6-0.1,23.9-1,35.9-1.8l4-0.3c3.3-0.2,6.6-0.6,9.8-0.9c5.1-0.6,10.4-1.1,15.6-1.2c6.7-0.1,13.6,0.6,20.2,1.2
			c1.7,0.2,3.3,0.3,5,0.5c19.4,1.8,39.1,2,58.2,2.2c12,0.1,24-0.4,35.7-0.8c23.3-0.9,47.4-1.9,72.3,1.8c17.7,2.7,36,0.7,53.7-1.2
			c1.5-0.2,2.9-0.3,4.4-0.5c4.4-0.5,8.9-1.4,13.3-2.4c5.9-1.3,12-2.6,18-2.7c11.6-0.2,22.6,0.9,33.2,2c9.7,1,19.8,2.1,30.4,2.1
			c0,0,0,0,0.1,0c6,0,13-0.8,19.9-1.5c3.1-0.3,6.1-0.7,8.8-0.9c19.6-1.7,36.5,0,56,1.9c11.1,1.1,22.6,2.3,36.1,3
			c8.5,0.5,19.5-0.1,31.1-0.7c18.4-0.9,39.2-2,56.8,0.5c3.6,0.5,7.2,1.4,10.6,2.2c2.8,0.7,5.7,1.4,8.6,1.9
			c9.4,1.6,19.1,1.4,28.5,1.1l72-2.2c13.9-0.4,28.3-0.8,42.4,1c2.7,0.4,5.5,0.8,8.2,1.2c6.1,1,12.3,2,18.6,2c0.1,0,0.1,0,0.2,0
			c5.5,0,11.1-0.8,16.5-1.6c2.1-0.3,4.3-0.6,6.5-0.9c4.1-0.5,8.6-1.5,13.3-2.5c6.8-1.5,13.8-3,19.8-3.1c16.7-0.3,31.7,0.5,46.1,1.3
			c14.5,0.8,29.4,1.7,46.1,1.3c6.7-0.1,13.6-0.5,20.9-1c15.4-0.9,31.3-1.8,45.5-0.2c2,0.2,4.1,0.5,6.2,0.8
			c10.7,1.4,24.1,3.1,33.3,1.7l0.1,0.7c-9.4,1.3-22.8-0.4-33.5-1.7c-2.2-0.3-4.3-0.5-6.2-0.8c-14.2-1.7-30.1-0.7-45.4,0.2
			c-7.3,0.4-14.2,0.8-21,1c-16.7,0.3-31.7-0.5-46.1-1.3c-14.5-0.8-29.4-1.7-46.1-1.3c-6,0.1-13,1.6-19.7,3.1c-4.8,1-9.2,2-13.4,2.5
			c-2.2,0.3-4.3,0.6-6.5,0.9c-5.4,0.8-11,1.6-16.6,1.6C844.2,767.3,844.2,767.3,844.1,767.3z"/>
	</g>
	<g>
		<path class="st1" d="M843.6,773.4c-6.3,0-12.6-0.4-18.8-1.3c-24.8-3.7-48.9-2.8-72.2-1.8c-11.7,0.5-23.7,0.9-35.7,0.8
			c-19.1-0.2-38.9-0.4-58.3-2.2c-1.7-0.2-3.3-0.3-5-0.5c-6.6-0.7-13.4-1.3-20.1-1.2c-5.2,0.1-10.5,0.7-15.6,1.2
			c-3.2,0.3-6.6,0.7-9.8,0.9c-8,0.6-16.2-0.9-24-2.4c-5.2-0.9-10.6-1.9-15.8-2.3c-4.6-0.3-9.5-0.7-14.7-1.2
			c-24.2-2-54.4-4.5-79.3-1.5c-2,0.2-3.9,0.5-5.9,0.8c-8.1,1.1-16.6,2.2-24.8,1.3c-3.6-0.4-7.2-0.9-10.7-1.4
			c-6.9-1-14.1-2.1-21.4-2.2c-6-0.1-12.1,1.1-17.9,2.3c-6,1.3-12.3,2.6-18.6,2.3c-2.4-0.1-4.8-0.4-7.1-0.7c-2.1-0.3-4.2-0.6-6.3-0.7
			c-7-0.4-14.1,1-20.9,2.4c-3.2,0.6-6.5,1.3-9.7,1.8c-16.3,2.4-33,0.2-49.2-1.8c-14.4-1.8-29.2-3.7-43.8-2.5
			c-3.8,0.3-7.7,0.9-11.4,1.4c-5.4,0.8-10.9,1.6-16.5,1.7c-7.2,0.2-14.5-0.7-21.6-1.6c-3.8-0.5-7.8-1-11.7-1.3
			c-4.8-0.4-9.7-0.2-14.4,0.1c-5.6,0.3-11.4,0.5-17-0.2c-41.3-5.3-74.4-2.7-98.6-0.9c-3.5,0.3-6.8,0.5-9.9,0.7
			c-7.1,0.5-15.1,0-25.2-0.7c-16.8-1.1-37.8-2.4-67.6-0.1c-3,0.2-6.3,0.6-9.8,1c-6.5,0.7-13.3,1.5-19,1.5c0,0,0,0-0.1,0
			c-10.6,0-20.7-1.1-30.4-2.1c-10.6-1.1-21.5-2.2-33.1-2c-6,0.1-12,1.4-17.9,2.7c-4.4,0.9-8.9,1.9-13.3,2.4
			c-1.5,0.2-2.9,0.3-4.4,0.5c-17.7,1.9-36.1,3.9-53.9,1.2c-24.8-3.7-48.9-2.8-72.2-1.8c-11.7,0.5-23.7,1-35.7,0.8
			c-19.1-0.2-38.9-0.4-58.3-2.2c-1.7-0.2-3.3-0.3-5-0.5c-6.6-0.7-13.4-1.4-20.1-1.2c-5.2,0.1-10.5,0.7-15.6,1.2
			c-3.2,0.3-6.6,0.7-9.8,0.9l-1.1,0.1c-12.6,0.9-25.7,1.8-38.3-1l0.1-0.6c12.5,2.8,25.5,1.9,38.1,0.9l1.1-0.1
			c3.3-0.2,6.6-0.6,9.8-0.9c5.1-0.6,10.4-1.1,15.6-1.2c6.7-0.1,13.5,0.6,20.1,1.2c1.7,0.2,3.3,0.3,5,0.5c19.4,1.8,39.1,2,58.2,2.2
			c12,0.1,24-0.4,35.7-0.8c23.3-0.9,47.5-1.9,72.3,1.8c17.7,2.7,36,0.7,53.7-1.2c1.5-0.2,2.9-0.3,4.4-0.5c4.4-0.5,8.9-1.4,13.3-2.4
			c5.9-1.3,12-2.6,18-2.7c11.6-0.2,22.6,0.9,33.2,2c9.7,1,19.8,2.1,30.4,2.1c0,0,0,0,0.1,0c5.7,0,12.4-0.7,18.9-1.5
			c3.5-0.4,6.8-0.7,9.8-1c29.8-2.3,50.8-1,67.6,0.1c10.1,0.6,18,1.1,25.1,0.7c3.1-0.2,6.4-0.5,9.8-0.7c24.2-1.9,57.4-4.4,98.7,0.9
			c5.6,0.7,11.3,0.4,16.9,0.2c4.8-0.2,9.7-0.4,14.5-0.1c3.9,0.3,7.9,0.8,11.8,1.3c7,0.9,14.3,1.8,21.5,1.6c5.5-0.1,11-0.9,16.4-1.7
			c3.8-0.5,7.6-1.1,11.5-1.4c14.6-1.3,29.5,0.6,43.9,2.5c16.1,2.1,32.8,4.2,49,1.8c3.2-0.5,6.5-1.1,9.7-1.8c6.9-1.4,14-2.8,21.1-2.4
			c2.1,0.1,4.3,0.4,6.4,0.7c2.3,0.3,4.7,0.6,7,0.7c6.2,0.2,12.4-1.1,18.4-2.3c5.9-1.2,12-2.5,18.1-2.4c7.3,0.2,14.5,1.2,21.5,2.2
			c3.5,0.5,7.1,1,10.7,1.4c8.2,0.9,16.6-0.2,24.7-1.3c2-0.3,4-0.5,5.9-0.8c25-3,55.2-0.5,79.4,1.5c5.2,0.4,10.1,0.8,14.7,1.2
			c5.3,0.4,10.6,1.4,15.9,2.3c7.9,1.4,16,2.9,23.9,2.3c3.3-0.2,6.6-0.6,9.8-0.9c5.1-0.6,10.4-1.1,15.6-1.2
			c6.7-0.1,13.6,0.6,20.2,1.2c1.7,0.2,3.3,0.3,5,0.5c19.4,1.8,39.1,2,58.2,2.2c12,0.1,24-0.4,35.7-0.8c23.3-0.9,47.4-1.9,72.3,1.8
			c17.7,2.7,36,0.7,53.7-1.2c1.5-0.2,2.9-0.3,4.4-0.5c4.4-0.5,8.9-1.4,13.3-2.4c5.9-1.3,12-2.6,18-2.7c11.6-0.2,22.6,0.9,33.2,2
			c9.7,1,19.8,2.1,30.4,2.1c0,0,0,0,0.1,0c6,0,13-0.8,19.9-1.5c3.1-0.3,6.1-0.7,8.8-0.9c15.7-1.4,29.7-0.3,44.5,0.9
			c14.3,1.1,29.2,2.2,47.6,1.5v0.7c-18.4,0.8-33.3-0.4-47.7-1.5c-14.8-1.1-28.8-2.2-44.4-0.9c-2.7,0.2-5.7,0.6-8.8,0.9
			c-6.9,0.8-14,1.5-20,1.5c0,0,0,0-0.1,0c-10.6,0-20.7-1.1-30.4-2.1c-10.6-1.1-21.5-2.2-33.1-2c-6,0.1-12,1.4-17.9,2.7
			c-4.4,0.9-8.9,1.9-13.3,2.4c-1.5,0.2-2.9,0.3-4.4,0.5C867.2,772.1,855.4,773.4,843.6,773.4z"/>
	</g>
	<g>
		<path class="st1" d="M847,781.1c-11.3,0-22.7-1.5-33.9-2.9c-14.4-1.8-29.2-3.7-43.8-2.5c-3.8,0.3-7.7,0.9-11.4,1.4
			c-5.4,0.8-10.9,1.6-16.5,1.7c-7.2,0.2-14.5-0.7-21.6-1.6c-3.8-0.5-7.8-1-11.7-1.3c-4.8-0.4-9.7-0.2-14.4,0.1
			c-5.6,0.3-11.4,0.5-17-0.2c-25.4-3.3-49.9-3.2-69.6-3.1c-17.3,0-31,0.1-39.9-2c-15.5-3.6-32.2-4.4-48.4-5.1
			c-4.9-0.2-10-0.5-14.8-0.8c-12.9-0.8-26.7,0.2-41.1,3c-6.6,1.3-12.9,1.3-19.7,1.3c-1.8,0-3.6,0-5.4,0c-10.5,0.1-19.4,0-28.5-1.2
			c-9.3-1.2-18.9,1-28.1,3c-6.3,1.4-12.9,2.9-19.4,3.3c-8.7,0.5-17.2,0.2-25.2-0.2c-9.2-0.5-18.6-1.1-27.7-1.7
			c-28.7-1.9-58.5-3.9-87.6-1.6c-2.2,0.2-4.4,0.4-6.6,0.6c-8.7,0.8-17.6,1.6-26.4,0.8c-5.8-0.5-11.6-1.6-17.2-2.7
			c-5.8-1.1-11.7-2.3-17.7-2.8c-10.2-0.8-20.5,0.6-30.5,1.9c-4.3,0.6-8.8,1.1-13.2,1.5c-14.4,1.3-29.4-0.2-43.9-1.6
			c-9.4-0.9-19.1-1.9-28.4-2.1c-12.9-0.2-58-0.7-94.2,3.6c-2,0.2-3.9,0.5-5.9,0.8c-8.1,1.1-16.6,2.2-24.8,1.3
			c-3.6-0.4-7.2-0.9-10.7-1.4c-6.9-1-14.1-2.1-21.4-2.2c-6-0.1-12.1,1.1-17.9,2.3c-6,1.3-12.3,2.6-18.6,2.3
			c-2.4-0.1-4.8-0.4-7.1-0.7c-2.1-0.3-4.2-0.6-6.3-0.7c-7-0.4-14.1,1-20.9,2.4c-3.2,0.6-6.5,1.3-9.7,1.8c-16.3,2.4-33,0.2-49.2-1.8
			c-14.4-1.8-29.2-3.7-43.7-2.5c-3.8,0.3-7.7,0.9-11.4,1.4c-5.4,0.8-10.9,1.6-16.5,1.7c-7.2,0.2-14.5-0.7-21.6-1.6
			c-3.8-0.5-7.8-1-11.7-1.3c-4.8-0.4-9.7-0.2-14.4,0.1c-5.6,0.3-11.4,0.5-17-0.2c-25-3.2-48.6-1.9-67.6-0.9
			c-17.4,0.9-31.1,1.7-40-1.1l0.2-0.6c8.8,2.7,22.4,2,39.7,1.1c19-1,42.7-2.3,67.7,0.9c5.6,0.7,11.3,0.4,16.9,0.2
			c4.8-0.2,9.7-0.4,14.5-0.1c3.9,0.3,7.9,0.8,11.8,1.3c7,0.9,14.3,1.8,21.5,1.6c5.5-0.1,11-0.9,16.4-1.7c3.7-0.5,7.6-1.1,11.5-1.4
			c14.6-1.3,29.5,0.6,43.9,2.5c16.1,2.1,32.8,4.2,49,1.8c3.2-0.5,6.5-1.1,9.7-1.8c6.9-1.4,14-2.8,21.1-2.4c2.1,0.1,4.3,0.4,6.4,0.7
			c2.3,0.3,4.7,0.6,7,0.7c6.2,0.2,12.4-1.1,18.4-2.3c5.9-1.2,12-2.5,18.1-2.4c7.3,0.2,14.5,1.2,21.5,2.2c3.5,0.5,7.1,1,10.7,1.4
			c8.2,0.9,16.6-0.2,24.7-1.3c2-0.3,4-0.5,5.9-0.8c36.3-4.3,81.4-3.9,94.3-3.6c9.4,0.2,19.1,1.1,28.5,2.1
			c14.5,1.4,29.4,2.9,43.7,1.6c4.4-0.4,8.9-1,13.2-1.5c10-1.3,20.4-2.6,30.6-1.9c6,0.5,12,1.6,17.7,2.8c5.6,1.1,11.4,2.2,17.2,2.7
			c8.7,0.7,17.7-0.1,26.3-0.8c2.2-0.2,4.4-0.4,6.6-0.6c29.2-2.3,58.9-0.3,87.7,1.6c9.1,0.6,18.4,1.2,27.7,1.7
			c8,0.4,16.5,0.8,25.1,0.2c6.4-0.4,12.9-1.9,19.2-3.3c9.3-2.1,18.9-4.2,28.3-3c9.1,1.1,18,1.3,28.4,1.2c1.8,0,3.6,0,5.4,0
			c6.7,0,13,0,19.5-1.3c14.4-2.8,28.3-3.9,41.2-3c4.9,0.3,9.9,0.5,14.8,0.8c16.2,0.8,33,1.5,48.5,5.2c8.8,2,22.4,2,39.7,2
			c19.7-0.1,44.2-0.1,69.7,3.1c5.6,0.7,11.3,0.4,16.9,0.2c4.8-0.2,9.7-0.4,14.5-0.1c3.9,0.3,7.9,0.8,11.8,1.3
			c7,0.9,14.3,1.8,21.5,1.6c5.5-0.1,11-0.9,16.4-1.7c3.8-0.5,7.6-1.1,11.5-1.4c14.6-1.3,29.5,0.6,43.9,2.5c16.1,2.1,32.8,4.2,49,1.8
			c3.2-0.5,6.5-1.1,9.7-1.8c6.9-1.4,14-2.8,21.1-2.4c2.1,0.1,4.3,0.4,6.4,0.7c2.3,0.3,4.7,0.6,7,0.7c6.2,0.2,12.4-1.1,18.4-2.3
			c5.9-1.2,12-2.5,18.1-2.4c7.3,0.2,14.5,1.2,21.5,2.2c3.5,0.5,7.1,1,10.7,1.4c8.2,0.9,16.6-0.2,24.7-1.3c2-0.3,4-0.5,5.9-0.8
			c16.8-2,35.5-0.9,53.5,0.2c14.4,0.9,28,1.7,39.5,0.8l0.1,0.7c-11.5,0.9-25.1,0-39.6-0.8c-18-1.1-36.6-2.2-53.4-0.2
			c-2,0.2-3.9,0.5-5.9,0.8c-8.1,1.1-16.6,2.2-24.8,1.3c-3.6-0.4-7.2-0.9-10.7-1.4c-6.9-1-14.1-2.1-21.4-2.2
			c-6-0.2-12.1,1.1-17.9,2.3c-6,1.3-12.3,2.6-18.6,2.3c-2.4-0.1-4.8-0.4-7.1-0.7c-2.1-0.3-4.2-0.6-6.3-0.7c-7-0.4-14.1,1-20.9,2.4
			c-3.2,0.6-6.5,1.3-9.7,1.8C857.3,780.8,852.2,781.1,847,781.1z"/>
	</g>
	<g>
		<path class="st1" d="M884.1,787.4c-5.5,0-10.8-0.2-15.9-0.5c-9.2-0.5-18.6-1.1-27.7-1.7c-28.7-1.9-58.5-3.9-87.6-1.6
			c-2.2,0.2-4.4,0.4-6.6,0.6c-8.7,0.8-17.6,1.6-26.4,0.8c-5.8-0.5-11.6-1.6-17.2-2.7c-5.8-1.1-11.7-2.3-17.7-2.8
			c-10.2-0.8-20.5,0.6-30.5,1.9c-4.3,0.6-8.8,1.1-13.2,1.5c-15.9,1.4-33.5-2-50.5-5.4c-8.6-1.7-16.7-3.3-24.5-4.3
			c-33.6-4.2-55.3-3.7-82.4-2.4c-6.2,0.3-12.5,1.3-18.5,2.3c-7.2,1.1-14.5,2.3-21.9,2.3c0,0,0,0-0.1,0c-6.4,0-12.9-0.9-19.2-1.8
			c-6-0.8-12.2-1.7-18.3-1.8c-8.2-0.1-16.5,1.3-24.6,2.5c-3,0.5-6.1,1-9.2,1.4c-26.8,3.7-54.3,1.7-80.9-0.2c-26-1.9-52.8-3.8-79-0.5
			c-2.2,0.3-4.5,0.6-6.7,0.9c-7.6,1.1-15.5,2.2-23.3,1.8c-5.9-0.3-11.9-1.6-17.6-2.9c-3.5-0.8-7.1-1.5-10.6-2.1
			c-13.8-2.2-28-1.2-41.8-0.3c-4.3,0.3-8.8,0.6-13.2,0.8c-16.1,0.7-33.2-1.2-49.7-3c-3.9-0.4-7.9-0.9-11.8-1.3
			c-10.9-1.1-22.5,0.5-33.7,2.1c-10.3,1.4-20.9,2.9-30.9,2.3c-12.9-0.8-26.7,0.2-41.1,3c-6.6,1.3-12.9,1.3-19.7,1.3
			c-1.8,0-3.6,0-5.4,0c-10.5,0.1-19.4,0-28.5-1.2c-9.3-1.2-18.9,1-28.1,3c-6.3,1.4-12.9,2.9-19.4,3.3c-8.6,0.5-17.2,0.2-25.2-0.2
			c-9.2-0.5-18.6-1.1-27.7-1.7c-28.7-1.9-58.5-3.9-87.6-1.6c-2.2,0.2-4.4,0.4-6.6,0.6c-8.7,0.8-17.6,1.6-26.4,0.8
			c-5.8-0.5-11.6-1.6-17.2-2.7c-5.8-1.1-11.7-2.3-17.7-2.8c-10.2-0.8-20.5,0.6-30.5,1.9c-4.3,0.6-8.8,1.1-13.2,1.5
			c-23.8,2.2-47.9-0.6-71.1-3.3l0.1-0.7c23.2,2.7,47.3,5.4,71,3.3c4.4-0.4,8.9-1,13.2-1.5c10-1.3,20.4-2.6,30.6-1.9
			c6,0.5,11.9,1.6,17.7,2.8c5.6,1.1,11.4,2.2,17.2,2.7c8.7,0.7,17.7-0.1,26.3-0.8c2.2-0.2,4.4-0.4,6.6-0.6
			c29.2-2.3,58.9-0.3,87.7,1.6c9.1,0.6,18.4,1.2,27.6,1.7c8,0.4,16.5,0.8,25.1,0.2c6.4-0.4,12.9-1.9,19.2-3.3
			c9.3-2.1,18.9-4.2,28.3-3c9.1,1.1,18,1.3,28.4,1.2c1.8,0,3.6,0,5.4,0c6.7,0,13,0,19.5-1.3c14.4-2.8,28.3-3.9,41.2-3
			c9.9,0.6,20.5-0.8,30.7-2.3c11.3-1.6,22.9-3.2,33.9-2.1c3.9,0.4,7.9,0.8,11.8,1.3c16.5,1.8,33.5,3.7,49.6,3
			c4.4-0.2,8.8-0.5,13.1-0.8c13.8-0.9,28.1-1.8,41.9,0.3c3.6,0.6,7.2,1.3,10.7,2.1c5.7,1.2,11.6,2.5,17.5,2.8
			c7.7,0.5,15.6-0.7,23.2-1.8c2.2-0.3,4.5-0.6,6.7-0.9c26.2-3.3,53.1-1.4,79.1,0.5c26.6,1.9,54,3.9,80.7,0.3
			c3.1-0.4,6.2-0.9,9.2-1.4c8.1-1.3,16.4-2.6,24.7-2.6c6.2,0.1,12.4,0.9,18.4,1.8c6.2,0.9,12.7,1.8,19.1,1.8c0,0,0,0,0.1,0
			c7.3,0,14.7-1.2,21.8-2.3c6.1-1,12.4-2,18.6-2.3c27.1-1.2,48.9-1.8,82.5,2.5c7.8,1,16,2.6,24.6,4.3c17,3.3,34.6,6.8,50.3,5.4
			c4.4-0.4,8.9-1,13.2-1.5c10-1.3,20.4-2.6,30.6-1.9c6,0.5,12,1.6,17.7,2.8c5.6,1.1,11.4,2.2,17.2,2.7c8.7,0.7,17.7-0.1,26.3-0.8
			c2.2-0.2,4.4-0.4,6.6-0.6c29.2-2.3,58.9-0.3,87.7,1.6c9.1,0.6,18.4,1.2,27.7,1.7c8,0.4,16.5,0.8,25.1,0.2
			c6.4-0.4,12.9-1.9,19.2-3.3c9.3-2.1,18.9-4.2,28.3-3c9.1,1.1,18,1.3,28.4,1.2c1.8,0,3.6,0,5.4,0c6.7,0,13,0,19.5-1.3
			c14.4-2.8,28.3-3.9,41.2-3l2.4,0.1c20.2,1.3,41.2,2.6,60.9,5.8l-0.1,0.7c-19.7-3.2-40.6-4.5-60.9-5.8l-2.4-0.1
			c-12.9-0.8-26.7,0.2-41.1,3c-6.6,1.3-12.9,1.3-19.7,1.3c-1.8,0-3.6,0-5.4,0c-10.5,0.1-19.4,0-28.5-1.2c-9.3-1.2-18.9,1-28.1,3
			c-6.3,1.4-12.9,2.9-19.4,3.3C890.2,787.3,887.1,787.4,884.1,787.4z"/>
	</g>
	<g>
		<path class="st1" d="M717.1,792.8c-1.2,0-2.4,0-3.7-0.1c-5.9-0.3-11.9-1.6-17.6-2.9c-3.5-0.8-7.1-1.5-10.6-2.1
			c-13.8-2.2-28-1.2-41.8-0.3c-4.3,0.3-8.8,0.6-13.2,0.8c-11.3,0.5-24-2.4-36.4-5.2c-9.5-2.1-19.2-4.3-28-4.9
			c-9.9-0.6-16.8-1.4-22.8-2.1c-13-1.5-20.8-2.3-42.4,0.6c-23.5,3.2-47,3.1-69.7,3.1c-20.1,0-40.8,0-61.5,2.1
			c-18.1,1.9-66.5,1.1-82.8,0.5c-14.3-0.6-25.9-1.2-36.4-2c-1.3-0.1-2.5-0.2-3.8-0.3c-8.5-0.7-17.3-1.4-25.9-0.9
			c-3.9,0.2-7.8,0.7-11.5,1.2c-3.8,0.5-7.8,1-11.7,1.2c-10.2,0.6-34.3-2-43.5-3.6c-18.5-3.1-33.8-2.3-50.1-1.3
			c-18,1-38.5,2.2-67-1.8c-17.5-2.5-30.1,0-43.4,2.6c-11.9,2.3-24.1,4.8-41,3.9c-7.1-0.3-14.4,1-21.3,2.3
			c-6.2,1.1-12.7,2.3-19.1,2.3c0,0,0,0-0.1,0c-6.4,0-12.9-0.9-19.2-1.8c-6-0.8-12.2-1.7-18.3-1.8c-8.2-0.1-16.5,1.3-24.6,2.5
			c-3,0.5-6.1,1-9.2,1.4c-26.8,3.7-54.3,1.7-80.9-0.2c-26-1.9-52.8-3.8-79-0.5c-2.2,0.3-4.5,0.6-6.7,0.9c-7.6,1.1-15.5,2.2-23.3,1.8
			c-5.9-0.3-11.9-1.6-17.6-2.9c-3.5-0.8-7.1-1.5-10.6-2.1c-13.8-2.2-28-1.2-41.8-0.3c-4.3,0.3-8.8,0.6-13.2,0.8
			c-20,0.9-40.1-0.3-59.9-3.3l0.1-0.7c19.7,3.1,39.8,4.2,59.7,3.3c4.4-0.2,8.8-0.5,13.1-0.8c13.8-0.9,28-1.8,41.9,0.3
			c3.6,0.6,7.2,1.3,10.7,2.1c5.7,1.2,11.6,2.5,17.5,2.8c7.7,0.5,15.6-0.7,23.2-1.8c2.2-0.3,4.5-0.6,6.7-0.9
			c26.2-3.3,53.1-1.4,79.1,0.5c26.6,1.9,54,3.9,80.7,0.3c3.1-0.4,6.2-0.9,9.2-1.4c8.1-1.3,16.4-2.6,24.7-2.6
			c6.2,0.1,12.4,0.9,18.4,1.8c6.3,0.9,12.8,1.8,19.1,1.8c6.4,0,12.8-1.2,19-2.3c7-1.3,14.3-2.6,21.5-2.3c16.7,0.8,29-1.6,40.8-3.9
			c13.4-2.6,26-5.1,43.6-2.6c28.4,4,48.8,2.8,66.8,1.8c16.3-0.9,31.8-1.8,50.3,1.3c9.2,1.6,33.2,4.2,43.4,3.6
			c3.9-0.2,7.8-0.7,11.6-1.2s7.7-1,11.6-1.2c8.7-0.5,17.5,0.2,26,0.9c1.3,0.1,2.5,0.2,3.8,0.3c10.5,0.8,22,1.5,36.3,2
			c16.2,0.6,64.6,1.4,82.7-0.5c20.7-2.2,41.5-2.2,61.5-2.1c22.7,0,46.2,0,69.6-3.1c21.6-2.9,29.5-2,42.5-0.6
			c6.1,0.7,12.9,1.5,22.8,2.1c8.8,0.5,18.6,2.7,28.1,4.9c12.3,2.8,25,5.6,36.2,5.1c4.4-0.2,8.8-0.5,13.1-0.8
			c13.8-0.9,28.1-1.8,41.9,0.3c3.6,0.6,7.2,1.3,10.7,2.1c5.7,1.2,11.6,2.5,17.5,2.8c7.7,0.5,15.6-0.7,23.2-1.8
			c2.2-0.3,4.5-0.6,6.7-0.9c26.2-3.3,53.1-1.4,79.1,0.5c26.6,1.9,54,3.9,80.7,0.3c3.1-0.4,6.2-0.9,9.2-1.4
			c8.1-1.3,16.4-2.6,24.7-2.6c6.2,0.1,12.4,0.9,18.4,1.8c6.2,0.9,12.7,1.8,19.1,1.8c0,0,0,0,0.1,0c7.3,0,14.7-1.2,21.8-2.3
			c6.1-1,12.4-2,18.6-2.3c29.5-1.3,51.6-1.2,83.6,3.1l-0.1,0.7c-32-4.4-54-4.5-83.5-3.1c-6.2,0.3-12.5,1.3-18.5,2.3
			c-7.2,1.1-14.5,2.3-21.9,2.3c0,0,0,0-0.1,0c-6.4,0-12.9-0.9-19.2-1.8c-6-0.8-12.2-1.7-18.3-1.8c-8.2-0.1-16.5,1.3-24.6,2.5
			c-3,0.5-6.1,1-9.2,1.4c-26.8,3.7-54.3,1.7-80.9-0.2c-26-1.9-52.8-3.8-79-0.5c-2.2,0.3-4.5,0.6-6.7,0.9
			C730.4,791.8,723.8,792.8,717.1,792.8z"/>
	</g>
	<g>
		<path class="st1" d="M861.9,798c-17.4,0-35-0.4-43.6-0.7c-14.3-0.6-25.9-1.2-36.4-2c-1.3-0.1-2.5-0.2-3.8-0.3
			c-8.5-0.7-17.3-1.4-25.9-0.9c-3.9,0.2-7.8,0.7-11.5,1.2c-3.8,0.5-7.8,1-11.7,1.2c-10.2,0.6-34.3-2-43.5-3.6c-17.6-3-35-2-51.9-1
			c-20.6,1.2-41.8,2.4-64.2-3.4c-0.9-0.2-1.8-0.5-2.8-0.7c-12.3-3.2-33-8.6-53.3-5.2c-8,1.4-19.1,1.1-29.8,0.9
			c-9.4-0.2-18.3-0.4-25.2,0.4c-13.7,1.6-26.7,1.8-40.5,2c-2.3,0-4.5,0.1-6.8,0.1c-6.9,0.1-13.8-0.2-20.5-0.5
			c-12.6-0.5-25.7-1.1-38.6,1.2c-3.2,0.6-7.8,1.1-12.3,1.5c-3.4,0.4-6.6,0.7-9,1.1c-6.8,1-19-0.5-26.3-1.3l-0.7-0.1
			c-37-4.4-63.2-3.3-98.8-1.2l-2.7,0.2c-7.3,0.4-14.8,0.9-22.2,0.3c-5.5-0.5-10.9-1.6-16.2-2.6c-5-1-10.2-2-15.4-2.5
			c-9.7-0.9-19.7-0.1-29.3,0.8c-3.7,0.3-7.4,0.7-11.2,0.9c-16.6,1-34.2-0.4-51.2-1.8c-6.4-0.5-13-1.1-19.3-1.5
			C13.9,779,5.6,780.8-7,783.3c-6.2,1.3-13.2,2.7-23.5,4.1c-23.5,3.2-47,3.1-69.7,3.1c-20,0-40.8,0-61.5,2.1
			c-18.1,1.9-66.5,1.1-82.8,0.5c-14.3-0.6-25.9-1.2-36.4-2c-1.3-0.1-2.5-0.2-3.8-0.3c-8.5-0.7-17.3-1.4-25.9-0.9
			c-3.9,0.2-7.8,0.7-11.5,1.2c-3.8,0.5-7.8,1-11.7,1.2c-10.2,0.6-34.3-2-43.5-3.6c-21.3-3.6-40.9-2.3-61.7-0.9
			c-16.9,1.1-34.4,2.3-53.4,0.8l0.1-0.7c19,1.5,36.4,0.4,53.3-0.8c20.8-1.4,40.5-2.7,61.9,0.9c9.2,1.6,33.2,4.2,43.4,3.6
			c3.9-0.2,7.8-0.7,11.6-1.2c3.8-0.5,7.7-1,11.6-1.2c8.7-0.5,17.5,0.2,26,0.9c1.3,0.1,2.5,0.2,3.8,0.3c10.5,0.8,22,1.5,36.3,2
			c16.2,0.6,64.6,1.4,82.7-0.5c20.7-2.2,41.5-2.2,61.5-2.1c22.7,0,46.2,0,69.6-3.1c10.3-1.4,17.3-2.8,23.5-4.1
			c12.6-2.6,20.9-4.3,44.4-2.8c6.3,0.4,12.9,0.9,19.3,1.5c17,1.4,34.5,2.9,51.1,1.8c3.7-0.2,7.5-0.6,11.1-0.9
			c9.6-0.9,19.6-1.7,29.4-0.8c5.2,0.5,10.4,1.5,15.4,2.5c5.3,1,10.7,2.1,16.1,2.6c7.4,0.6,14.9,0.2,22.1-0.3l2.7-0.2
			c35.7-2.1,61.8-3.1,98.9,1.3l0.7,0.1c7.3,0.9,19.4,2.3,26.1,1.3c2.4-0.4,5.7-0.7,9.1-1.1c4.4-0.5,9-1,12.2-1.5
			c12.9-2.3,26-1.7,38.7-1.2c6.7,0.3,13.6,0.6,20.5,0.5c2.3,0,4.5-0.1,6.8-0.1c13.8-0.2,26.7-0.4,40.4-2c6.9-0.8,15.8-0.6,25.3-0.4
			c10.7,0.2,21.7,0.5,29.7-0.8c20.5-3.5,41.2,2,53.6,5.2c1,0.3,1.9,0.5,2.8,0.7c22.3,5.7,43.5,4.5,64,3.3c16.9-1,34.4-2,52,1
			c9.2,1.6,33.2,4.2,43.4,3.6c3.9-0.2,7.8-0.7,11.6-1.2s7.7-1,11.6-1.2c8.7-0.5,17.5,0.2,26,0.9c1.3,0.1,2.5,0.2,3.8,0.3
			c10.5,0.8,22,1.5,36.3,2c16.2,0.6,64.6,1.4,82.7-0.5c20.7-2.2,41.5-2.1,61.5-2.1c22.7,0,46.2,0,69.6-3.1
			c17.8-2.4,26.5-1.4,36.7-0.2c7.6,0.9,16.2,1.9,29.9,1.5v0.7c-13.8,0.4-22.4-0.6-30-1.5c-10.1-1.2-18.8-2.2-36.5,0.2
			c-23.5,3.2-47,3.1-69.7,3.1c-20.1,0-40.8,0-61.5,2.1C892.6,797.7,877.3,798,861.9,798z"/>
	</g>
	<g>
		<path class="st1" d="M856.5,804.4c-6.7,0-15.1-1-20.7-1.6l-0.7-0.1c-37-4.4-63.2-3.3-98.8-1.2l-2.7,0.2
			c-7.3,0.4-14.8,0.9-22.2,0.3c-5.5-0.5-10.9-1.6-16.2-2.6c-5-1-10.2-2-15.4-2.5c-9.7-0.9-19.7-0.1-29.3,0.8
			c-3.7,0.3-7.4,0.7-11.2,0.9c-22.4,1.4-45.8-1.7-68.5-4.6l-1.8-0.2c-5.1-0.7-10.2-1.6-15.7-2.5c-13.3-2.3-27-4.8-39.2-3.4
			c-42.4,4.8-71.5,5.4-119.5,2.7c-1.8-0.1-3.7-0.2-5.7-0.4c-10.3-0.7-23.2-1.5-32.4,0.1c-12.4,2.2-28.4,4.5-41.6,3
			c-33.4-3.8-60.7-3-87.2-2.2c-28.2,0.9-54.7,1.7-86.4-3.1c-12.3-1.8-25.1-1.1-37.4-0.4c-1.3,0.1-2.6,0.1-3.8,0.2
			c-2.9,0.2-5.8,0.4-8.6,0.7c-6.3,0.6-12.9,1.2-19.3,0.6c-4-0.4-8.8-1.2-13.9-2.1c-8.8-1.6-18.7-3.4-27.3-2.9
			c-12.3,0.7-19.5,2.5-27.8,4.7c-5.6,1.5-12.1,3.1-21,4.6c-8,1.4-19.1,1.1-29.8,0.9c-9.4-0.2-18.3-0.4-25.2,0.4
			c-13.7,1.6-26.7,1.8-40.5,2c-2.3,0-4.5,0.1-6.8,0.1c-6.9,0.1-13.8-0.2-20.5-0.5c-12.7-0.5-25.7-1.1-38.6,1.2
			c-3.2,0.6-7.8,1.1-12.3,1.5c-3.4,0.4-6.6,0.7-9,1.1c-6.8,1-19-0.5-26.3-1.3l-0.7-0.1c-37-4.4-63.2-3.3-98.8-1.2l-2.7,0.2
			c-7.3,0.4-14.8,0.9-22.2,0.3c-5.5-0.5-10.9-1.6-16.2-2.6c-5-1-10.2-2-15.4-2.5c-9.7-0.9-19.7-0.1-29.3,0.8
			c-3.7,0.3-7.4,0.7-11.2,0.9c-23,1.4-46.3-1-68.8-3.3l0.1-0.7c22.5,2.3,45.8,4.7,68.7,3.3c3.7-0.2,7.5-0.6,11.2-0.9
			c9.6-0.9,19.6-1.7,29.4-0.8c5.2,0.5,10.4,1.5,15.4,2.5c5.3,1,10.7,2.1,16.1,2.6c7.3,0.6,14.9,0.2,22.1-0.3l2.7-0.2
			c35.7-2.1,61.8-3.1,98.9,1.3l0.7,0.1c7.3,0.9,19.4,2.3,26.1,1.3c2.4-0.4,5.7-0.7,9.1-1.1c4.4-0.5,9-1,12.2-1.5
			c12.9-2.3,26-1.7,38.7-1.2c6.7,0.3,13.6,0.6,20.5,0.5c2.3,0,4.6-0.1,6.8-0.1c13.7-0.2,26.7-0.4,40.4-2c6.9-0.8,15.8-0.6,25.3-0.4
			c10.7,0.2,21.7,0.5,29.7-0.8c9-1.9,15.4-3.6,21-5c8.4-2.2,15.6-4,27.9-4.7c8.7-0.5,18.7,1.3,27.5,3c5,0.9,9.8,1.8,13.8,2.1
			c6.4,0.6,12.9,0,19.2-0.6c2.8-0.3,5.7-0.5,8.6-0.7c1.3-0.1,2.6-0.1,3.8-0.2c12.4-0.7,25.1-1.4,37.5,0.4
			c31.6,4.7,58.1,3.9,86.2,3.1c26.5-0.8,53.9-1.6,87.3,2.2c13.3,1.5,30-1,41.4-3c9.3-1.6,22.2-0.8,32.6-0.1c2,0.1,3.9,0.3,5.7,0.4
			c48,2.7,77,2.1,119.4-2.7c12.3-1.4,26.1,1.1,39.4,3.4c5.5,1,10.6,1.9,15.7,2.5l1.8,0.2c22.7,3,46.1,6,68.4,4.6
			c3.7-0.2,7.5-0.6,11.1-0.9c9.6-0.9,19.6-1.7,29.4-0.8c5.2,0.5,10.4,1.5,15.4,2.5c5.3,1,10.7,2.1,16.1,2.6
			c7.4,0.6,14.9,0.2,22.1-0.3l2.7-0.2c35.7-2.1,61.8-3.1,98.9,1.3l0.7,0.1c7.3,0.9,19.4,2.3,26.1,1.3c2.4-0.4,5.7-0.7,9.1-1.1
			c4.4-0.5,9-1,12.2-1.5c12.9-2.3,26-1.7,38.7-1.2c6.7,0.3,13.6,0.6,20.5,0.5c2.3,0,4.5-0.1,6.8-0.1c13.8-0.2,26.7-0.4,40.4-2
			c6.9-0.8,15.8-0.6,25.3-0.4c10.7,0.2,21.7,0.5,29.7-0.8c10.9-1.8,19.3-0.7,27.4,0.4c8.4,1.2,16.4,2.3,26.6,0.1l0.1,0.6
			c-10.3,2.2-18.3,1.1-26.8-0.1c-8.1-1.1-16.5-2.3-27.2-0.4c-8,1.4-19.1,1.1-29.8,0.9c-9.4-0.2-18.3-0.4-25.2,0.4
			c-13.7,1.6-26.7,1.8-40.5,2c-2.3,0-4.5,0.1-6.8,0.1c-6.9,0.1-13.8-0.2-20.5-0.5c-12.6-0.5-25.7-1.1-38.6,1.2
			c-3.2,0.6-7.8,1.1-12.3,1.5c-3.4,0.4-6.6,0.7-9,1.1C860.5,804.3,858.6,804.4,856.5,804.4z"/>
	</g>
	<g>
		<path class="st1" d="M1087.3,825.9c-5.2,0-10-0.7-15-1.5c-7.9-1.2-16.1-2.4-27-0.6c-15.1,2.6-39.9,1.9-56.4-1.4
			c-13.4-2.7-27.2-2.4-40.5-2c-2.4,0.1-4.8,0.1-7.3,0.2c-8.4,0.1-18.2,1.1-29.5,2.2c-15.2,1.5-32.4,3.1-50.3,3.2c-0.1,0-0.2,0-0.2,0
			c-7,0-19.8-0.6-26.7-1.4c-37-4.4-63.2-3.3-98.8-1.2l-2.7,0.2c-7.3,0.4-14.8,0.9-22.2,0.3c-6.5-0.6-13-1.2-19.2-1.9
			c-4.1-0.4-8.2-0.9-12.4-1.3c-9.7-0.9-19.7-0.1-29.3,0.8c-3.7,0.3-7.4,0.7-11.2,0.9c-12.2,0.8-25-0.9-37.4-2.5
			c-10.9-1.4-22.1-2.8-32.8-2.6c-5.6,0.1-14.7-0.6-26.2-1.6c-17.4-1.4-39-3.2-60.2-3c-6.4,0.1-12.9-1.1-19.1-2.2
			c-3.2-0.6-6.5-1.2-9.7-1.6c-26.5-3.4-52.9-1.2-75.2,1.4c-31.5,3.7-58.1,2.1-83.7,0.5c-11.8-0.7-24.1-1.5-36.7-1.7
			c-13.1-0.2-28.5-0.2-43.3,1.6c-31.5,3.9-59.3,2-84.6-0.7c-2.8-0.3-5.7-0.7-8.6-1c-9-1.1-18.3-2.3-27.1-1.6
			c-6.3,0.5-12.7,0.4-19,0.3c-13-0.2-26.5-0.5-38.7,4.6s-21.1,5.3-31.5,5.6c-6.6,0.2-13.4,0.4-21.9,1.8c-15.1,2.6-39.9,1.9-56.4-1.4
			c-13.4-2.7-27.2-2.4-40.5-2c-2.4,0.1-4.8,0.1-7.3,0.2c-8.4,0.1-18.2,1.1-29.5,2.2c-15.2,1.5-32.4,3.1-50.3,3.2c-0.1,0-0.2,0-0.2,0
			c-7,0-19.8-0.6-26.7-1.4c-37-4.4-63.2-3.3-98.8-1.2l-2.7,0.2c-7.3,0.4-14.8,0.9-22.2,0.3c-6.5-0.6-13-1.2-19.2-1.9
			c-4.1-0.4-8.2-0.9-12.4-1.3c-9.7-0.9-19.7-0.1-29.3,0.8c-3.7,0.3-7.4,0.7-11.2,0.9c-23,1.4-46.3-1-68.8-3.3l0.1-0.7
			c22.5,2.3,45.8,4.7,68.7,3.3c3.7-0.2,7.5-0.6,11.2-0.9c9.6-0.9,19.6-1.7,29.4-0.8c4.2,0.4,8.3,0.8,12.4,1.3
			c6.3,0.6,12.7,1.3,19.2,1.9c7.3,0.6,14.9,0.2,22.1-0.3l2.7-0.2c35.7-2.1,61.8-3.1,98.9,1.3c6.9,0.8,19.9,1.4,26.9,1.4
			c17.9,0,35.1-1.7,50.2-3.2c11.3-1.1,21.2-2,29.6-2.2c2.4,0,4.8-0.1,7.3-0.2c13.4-0.3,27.2-0.7,40.7,2.1
			c16.4,3.3,41.1,3.9,56.1,1.4c8.5-1.4,15.4-1.6,22-1.8c10.3-0.3,19.2-0.6,31.3-5.6c12.3-5.1,25.8-4.9,38.9-4.6
			c6.2,0.1,12.7,0.2,18.9-0.3c8.9-0.7,18.2,0.5,27.2,1.6c2.8,0.4,5.7,0.7,8.6,1c25.3,2.6,53,4.5,84.5,0.7
			c14.8-1.8,30.3-1.8,43.4-1.6c12.7,0.2,24.9,1,36.7,1.7c25.6,1.6,52.1,3.2,83.6-0.5c22.3-2.6,48.8-4.8,75.3-1.4
			c3.3,0.4,6.6,1,9.8,1.6c6.2,1.1,12.6,2.3,19,2.2c21.2-0.2,42.8,1.6,60.2,3c11.5,0.9,20.6,1.7,26.2,1.6c10.8-0.2,22,1.2,32.9,2.6
			c12.4,1.6,25.1,3.2,37.3,2.4c3.7-0.2,7.5-0.6,11.1-0.9c9.6-0.9,19.6-1.7,29.4-0.8c4.2,0.4,8.3,0.8,12.4,1.3
			c6.3,0.6,12.7,1.3,19.2,1.9c7.4,0.6,14.9,0.2,22.1-0.3l2.7-0.2c35.7-2.1,61.8-3.1,98.9,1.3c6.9,0.8,19.6,1.4,26.6,1.4
			c0.1,0,0.2,0,0.2,0c17.9,0,35.1-1.7,50.2-3.2c11.4-1.1,21.2-2,29.6-2.2c2.4,0,4.8-0.1,7.2-0.2c13.4-0.3,27.2-0.7,40.7,2.1
			c16.4,3.3,41.1,3.9,56.1,1.4c10.9-1.8,19.2-0.6,27.2,0.6c8.2,1.2,16,2.4,26.2,0.3l0.1,0.6C1094.6,825.6,1090.9,825.9,1087.3,825.9
			z"/>
	</g>
	<g>
		<path class="st1" d="M811.4,810c-3,0-6-0.1-9-0.4c-4.5-0.5-8.9-1.5-13.2-2.5c-2.9-0.7-5.8-1.3-8.8-1.8
			c-14.5-2.5-29.6-1.1-44.1,0.3c-13.4,1.3-27.2,2.6-40.7,0.8c-4-0.5-7.9-1.3-11.8-2c-4.1-0.8-8.3-1.6-12.5-2.1
			c-10.2-1.2-20.6-0.6-30.7,0c-3.4,0.2-7,0.4-10.5,0.6c-10.7,0.4-21.7-0.5-32.4-1.5c-10-0.9-20.3-1.8-30.2-1.5
			c-9.1,0.2-16.3-1.6-23.3-3.4c-2.6-0.7-5.4-1.4-8.1-1.9c-6.6-1.3-13.5-0.7-20.2-0.2l-1.4,0.1c-25.7,2.2-45.5,2.1-70.6,2H437
			c-9.6,0-19.6-0.4-29.1-0.7c-24.6-0.8-50-1.6-76.3,2c-9.1,1.3-22.7-0.1-38.5-1.8c-17.8-1.8-38-3.9-57.7-2.9
			c-5.7,0.3-11.6,0.7-17.8,1.2c-21.7,1.7-44.1,3.4-64.7-1.2c-18.4-4.1-29.8-2.7-41.9-1.1c-5.9,0.8-12,1.6-19.3,1.8
			c-9.6,0.3-19.9-0.9-30.7-2.2c-7.8-0.9-15.9-1.8-23.9-2.2c-14.9-0.7-30.6,3.5-44.4,7.1c-4.5,1.2-8.8,2.3-12.9,3.2
			c-10.1,2.3-21.8,1.5-32.2,0.8c-4.4-0.3-8.6-0.6-12-0.6c-3,0-7.3,0.4-12.7,0.8c-12.9,1-30.5,2.4-48.5,0.9
			c-9.2-0.7-18.6,0.6-27.6,1.9c-6.4,0.9-12.9,1.8-19.4,2.1c-7.7,0.3-15.6-0.3-23.1-0.9c-6.8-0.5-13.8-1-20.7-1
			c-5.5,0.1-11.2,0.5-16.6,1c-8.8,0.7-18,1.5-27,0.6c-4.5-0.5-8.9-1.5-13.2-2.5c-2.9-0.7-5.8-1.3-8.8-1.8
			c-14.5-2.5-29.6-1.1-44.1,0.3c-13.4,1.3-27.2,2.6-40.7,0.8c-4-0.5-7.9-1.3-11.8-2c-4.1-0.8-8.3-1.6-12.5-2.1
			c-10.2-1.2-20.6-0.6-30.7,0c-3.4,0.2-7,0.4-10.5,0.6c-18.2,0.7-38.1,1.1-59.9-0.7l0.1-0.7c21.7,1.8,41.6,1.4,59.8,0.7
			c3.5-0.1,7.1-0.3,10.5-0.6c10.1-0.6,20.6-1.2,30.8,0c4.2,0.5,8.4,1.3,12.5,2.1c3.8,0.7,7.8,1.5,11.8,2c13.4,1.7,27.2,0.4,40.5-0.8
			c14.6-1.4,29.7-2.8,44.3-0.3c3,0.5,5.9,1.2,8.8,1.8c4.3,1,8.7,2,13.2,2.5c8.9,0.9,18.1,0.2,26.9-0.6c5.5-0.5,11.1-0.9,16.7-1
			c6.9-0.1,13.9,0.4,20.7,1c7.5,0.6,15.3,1.2,23,0.9c6.5-0.2,13-1.2,19.4-2.1c9.1-1.3,18.5-2.6,27.8-1.9c17.9,1.4,35.5,0.1,48.3-0.9
			c5.4-0.4,9.7-0.7,12.7-0.8c3.5,0,7.7,0.3,12.1,0.6c10.3,0.7,22,1.5,32-0.8c4.1-0.9,8.3-2,12.8-3.2c13.9-3.7,29.7-7.8,44.6-7.1
			c8,0.4,16.1,1.3,24,2.2c10.8,1.3,21.1,2.4,30.6,2.2c7.3-0.2,13.4-1,19.3-1.8c12.1-1.6,23.6-3,42.1,1.1c20.4,4.6,42.8,2.9,64.5,1.2
			c6.2-0.5,12.1-0.9,17.8-1.2c19.7-1,39.9,1,57.8,2.9c15.8,1.6,29.4,3,38.4,1.8c26.4-3.6,51.8-2.8,76.4-2c9.6,0.3,19.5,0.6,29.1,0.7
			h6.9c25.1,0.1,45,0.2,70.6-2l1.4-0.1c6.7-0.6,13.7-1.2,20.4,0.2c2.7,0.6,5.5,1.2,8.1,1.9c6.9,1.8,14.1,3.6,23.1,3.4
			c10-0.2,20.3,0.7,30.3,1.5c10.7,0.9,21.7,1.9,32.3,1.5c3.5-0.1,7.1-0.3,10.5-0.6c10.1-0.6,20.6-1.2,30.8,0
			c4.2,0.5,8.4,1.3,12.5,2.1c3.8,0.7,7.8,1.5,11.8,2c13.4,1.7,27.2,0.4,40.5-0.8c14.6-1.4,29.7-2.8,44.3-0.3c3,0.5,5.9,1.2,8.8,1.8
			c4.3,1,8.7,2,13.2,2.5c8.9,0.9,18.1,0.2,26.9-0.6c5.5-0.5,11.1-0.9,16.7-1c6.9-0.1,13.9,0.4,20.7,1c7.5,0.6,15.3,1.2,23,0.9
			c6.5-0.2,13-1.2,19.4-2.1c9.1-1.3,18.5-2.6,27.8-1.9c17.9,1.4,35.5,0.1,48.3-0.9c5.4-0.4,9.7-0.7,12.7-0.8c3.5,0,7.7,0.3,12.1,0.6
			c10.3,0.7,22,1.5,32-0.8c21.8-5,49,0.1,56.8,1.7l-0.1,0.6c-7.8-1.6-34.9-6.6-56.5-1.7c-10.1,2.3-21.8,1.5-32.2,0.8
			c-4.4-0.3-8.6-0.6-12-0.6c-3,0-7.3,0.4-12.7,0.8c-12.9,1-30.5,2.4-48.5,0.9c-9.2-0.7-18.6,0.6-27.6,1.9
			c-6.4,0.9-12.9,1.8-19.4,2.1c-7.7,0.3-15.6-0.3-23.1-0.9c-6.8-0.5-13.8-1-20.7-1c-5.5,0.1-11.2,0.5-16.6,1
			C823.4,809.5,817.4,810,811.4,810z"/>
	</g>
	<g>
		<path class="st1" d="M845.6,815.3c-4.1,0-8.1-0.1-12.2-0.3c-9.5-0.4-19.1-1.4-28.4-2.3c-13.7-1.4-27.9-2.8-42-2.4
			c-6.7,0.2-13.6,0.7-20.2,1.3c-9.2,0.8-18.8,1.5-28.2,1.2c-9.5-0.3-19-1.7-28.3-3.1c-8.1-1.2-16.5-2.4-24.8-2.9
			c-12.3-0.7-25.2,0.1-37.6,0.8c-18.4,1.1-37.5,2.2-55.5-1.4c-18-3.6-39.4-5.9-55.9-5.9c-9.4,0-19.1,0.4-27.7,0.8
			c-6.3,0.3-12.3,0.5-17.1,0.6c-10.8,0.1-38.2-1.4-62.4-3.3c-9.2-0.7-18.6,0.6-27.6,1.9c-6.4,0.9-12.9,1.8-19.4,2.1
			c-7.7,0.3-15.6-0.3-23.1-0.9c-6.8-0.5-13.8-1-20.7-1c-5.5,0.1-11.2,0.5-16.6,1c-8.8,0.7-18,1.5-27,0.6c-4.5-0.5-8.9-1.5-13.2-2.5
			c-2.9-0.7-5.8-1.3-8.8-1.8c-14.5-2.5-29.4-0.7-43.9,1c-13.4,1.6-27.3,3.2-40.8,1.5c-4-0.5-8-1.3-11.8-2c-4.1-0.8-8.3-1.6-12.5-2.1
			c-8.9-1.1-18.1-0.2-26.9,0.7c-4.6,0.5-9.4,0.9-14.1,1.1c-4.5,0.2-9,0.4-13.4,0.7c-15.5,0.9-31.6,1.8-49.3-0.9
			c-13.8-2.1-30.7,1.5-48.6,5.3c-14.4,3.1-29.3,6.2-42.8,6.3c-9.2,0.1-18.5-0.8-27.5-1.7c-5-0.5-10.2-1-15.4-1.3
			c-22.6-1.5-45.7,0.4-68,2.2c-20.6,1.6-42,3.4-63,2.4c-9.5-0.4-19.1-1.4-28.4-2.3c-13.7-1.4-27.9-2.8-42-2.4
			c-6.7,0.2-13.6,0.7-20.2,1.3c-9.2,0.8-18.8,1.5-28.2,1.2c-9.5-0.3-19-1.7-28.3-3.1c-8.1-1.2-16.5-2.4-24.8-2.9
			c-12.7-0.7-25.7,0.3-38.3,1.2c-17.6,1.4-35.9,2.8-53.5-0.6l0.1-0.6c17.5,3.4,35.7,2,53.3,0.6c12.6-1,25.6-2,38.4-1.2
			c8.3,0.5,16.7,1.7,24.9,2.9c9.2,1.4,18.8,2.8,28.2,3.1c9.4,0.3,18.9-0.5,28.1-1.2c6.6-0.5,13.5-1.1,20.3-1.3
			c14.1-0.3,28.3,1.1,42,2.4c9.3,0.9,18.9,1.9,28.3,2.3c21,0.9,42.3-0.8,62.9-2.4c22.3-1.8,45.4-3.6,68.1-2.2
			c5.1,0.3,10.3,0.8,15.4,1.3c9,0.9,18.3,1.8,27.5,1.7c13.4-0.1,28.3-3.3,42.6-6.3c18-3.8,35-7.4,48.9-5.3
			c17.6,2.7,33.6,1.8,49.1,0.9c4.4-0.2,8.9-0.5,13.4-0.7c4.7-0.2,9.5-0.6,14.1-1.1c8.9-0.9,18-1.8,27-0.7c4.2,0.5,8.4,1.3,12.5,2.1
			c3.8,0.7,7.8,1.5,11.8,2c13.5,1.7,27.3,0.1,40.7-1.5c14.5-1.7,29.5-3.5,44.1-1c3,0.5,5.9,1.2,8.8,1.8c4.3,1,8.7,2,13.2,2.5
			c8.9,0.9,18.1,0.2,26.9-0.6c5.5-0.5,11.1-0.9,16.7-1c6.9-0.1,13.9,0.4,20.7,1c7.5,0.6,15.3,1.2,23,0.9c6.5-0.2,13-1.2,19.4-2.1
			c9.1-1.3,18.5-2.6,27.8-1.9c24.2,2,51.6,3.4,62.4,3.3c4.8,0,10.7-0.3,17.1-0.6c8.6-0.4,18.3-0.8,27.7-0.8c16.5,0,38,2.3,56,5.9
			c17.9,3.6,36.9,2.5,55.3,1.4c12.4-0.7,25.3-1.5,37.7-0.8c8.3,0.5,16.7,1.7,24.9,2.9c9.2,1.4,18.8,2.8,28.2,3.1s18.9-0.5,28.1-1.2
			c6.6-0.5,13.5-1.1,20.3-1.3c14-0.3,28.3,1.1,42,2.4c9.3,0.9,18.9,1.9,28.3,2.3c21,0.9,42.3-0.8,62.9-2.4
			c22.3-1.8,45.4-3.6,68.1-2.2c5.1,0.3,10.3,0.8,15.4,1.3c9,0.9,18.3,1.8,27.5,1.7c9.9-0.1,20.2-1,30.3-2
			c20.6-1.9,41.9-3.9,61.3,1.4l-0.2,0.6c-19.3-5.3-40.5-3.3-61-1.4c-10,0.9-20.4,1.9-30.3,2c-9.2,0.1-18.5-0.8-27.5-1.7
			c-5-0.5-10.2-1-15.4-1.3c-22.6-1.5-45.7,0.4-68,2.2C879.8,813.9,862.6,815.3,845.6,815.3z"/>
	</g>
	<g>
		<path class="st1" d="M1021.2,820.3c-2.6,0-5.1,0-7.8-0.2c-6.4-0.3-12.8-1.3-19-2.3c-3.2-0.5-6.5-1.1-9.8-1.5
			c-26.5-3.4-52.9-1.2-75.2,1.4c-31.5,3.7-58.1,2.1-83.7,0.5c-11.8-0.7-24.1-1.5-36.7-1.7c-7.1-0.1-14.5,0.3-21.7,0.8
			s-14.6,0.9-21.7,0.8c-27.8-0.5-56.5-1-84.6-4c-1.6-0.2-3.3-0.3-4.9-0.5c-9.9-1.1-20.1-2.2-30.1-1.4c-3.1,0.2-6.2,0.5-9.3,0.8
			c-16,1.4-32.6,2.9-49.1-1c-28-6.6-60.2-6.4-88.5-6.2h-3.2c-9.2,0.1-18.5-0.8-27.5-1.7c-5-0.5-10.2-1-15.4-1.3
			c-22.6-1.5-45.7,0.4-68,2.2c-20.6,1.6-42,3.4-63,2.4c-9.5-0.4-19.1-1.4-28.4-2.3c-13.7-1.4-27.9-2.8-42-2.4
			c-6.7,0.2-13.6,0.7-20.2,1.3c-9.2,0.8-18.8,1.5-28.2,1.2c-12.5-0.4-24.2-1.1-36.6-1.9c-5.1-0.3-10.3-0.7-15.6-1
			c-13.8-0.8-28.6,0.3-42.8,1.4c-17.3,1.3-35.1,2.7-51.8,0.7c-23.3-2.8-40.1,1.9-54.9,6.1c-10.4,2.9-20.2,5.7-30.6,5.3
			c-6.4-0.3-12.8-1.3-19-2.3c-3.2-0.5-6.5-1.1-9.8-1.5c-26.5-3.4-52.9-1.2-75.2,1.4c-31.5,3.7-58.1,2.1-83.7,0.5
			c-11.8-0.7-24.1-1.5-36.7-1.7c-7.1-0.1-14.5,0.3-21.7,0.8s-14.6,0.9-21.7,0.8c-27.8-0.5-56.5-1-84.6-4c-1.6-0.2-3.3-0.3-4.9-0.5
			c-9.9-1.1-20.1-2.2-30.1-1.4c-5,0.4-9.9,1-14.7,1.5c-14,1.6-27.1,3.1-41.8,0.2l0.1-0.6c14.6,2.9,27.7,1.4,41.6-0.2
			c4.8-0.6,9.7-1.1,14.7-1.5c10.1-0.8,20.3,0.4,30.2,1.4c1.6,0.2,3.3,0.4,4.9,0.5c28.1,2.9,56.8,3.5,84.5,4
			c7.1,0.1,14.5-0.3,21.7-0.8s14.6-0.9,21.7-0.8c12.7,0.2,24.9,1,36.7,1.7c25.6,1.6,52.1,3.2,83.6-0.5c22.3-2.6,48.8-4.8,75.3-1.4
			c3.3,0.4,6.6,1,9.8,1.5c6.2,1,12.5,2,18.9,2.3c10.3,0.4,20.1-2.3,30.4-5.3c14.9-4.2,31.7-9,55.2-6.1c16.6,2,34.5,0.6,51.7-0.7
			c14.3-1.1,29-2.2,42.9-1.4c5.3,0.3,10.5,0.6,15.6,1c12.4,0.8,24,1.5,36.6,1.9c9.4,0.3,18.9-0.5,28.1-1.2
			c6.6-0.5,13.5-1.1,20.3-1.3c14.1-0.3,28.3,1.1,42,2.4c9.3,0.9,18.9,1.9,28.3,2.3c21,0.9,42.3-0.8,62.9-2.4
			c22.3-1.8,45.4-3.6,68.1-2.2c5.1,0.3,10.3,0.8,15.4,1.3c9,0.9,18.3,1.8,27.5,1.7h3.2c28.4-0.2,60.6-0.5,88.7,6.2
			c16.4,3.9,32.9,2.4,48.9,1c3-0.3,6.2-0.5,9.3-0.8c10.1-0.8,20.3,0.4,30.2,1.4c1.6,0.2,3.3,0.4,4.9,0.5c28.1,2.9,56.8,3.5,84.5,4
			c7.1,0.1,14.5-0.3,21.7-0.8s14.6-0.9,21.7-0.8c12.7,0.2,24.9,1,36.7,1.7c25.6,1.6,52.1,3.2,83.6-0.5c22.3-2.6,48.8-4.8,75.3-1.4
			c3.3,0.4,6.6,1,9.8,1.5c6.2,1,12.6,2,18.9,2.3c10.8,0.4,20.4-0.1,31.6-0.8c14.5-0.9,30.8-1.8,53.7-0.7v0.7
			c-22.8-1.1-39.2-0.2-53.7,0.7C1036.6,819.9,1029.1,820.3,1021.2,820.3z"/>
	</g>
	<g>
		<path class="st1" d="M651.4,901.7c-16.1,0-29.8-1.9-42.3-3.7c-14.5-2-28.1-3.9-43.1-2.7c-28.7,2.3-55.9,0.6-82.2-1
			c-22.5-1.4-45.8-2.8-70.5-1.8c-6.6,0.3-13.2,0.7-19.7,1.1c-14.7,0.9-29.8,1.9-44.7,1c-5.1-0.3-10.2-0.8-15.2-1.4
			c-6.4-0.7-13-1.3-19.6-1.6c-14.3-0.5-28.8,1.3-42.8,3c-13.8,1.7-28,3.4-42.1,3.1c-6.6-0.2-13.3-0.8-19.8-1.4
			c-2.9-0.3-5.9-0.6-8.8-0.8l-0.7-0.1c-19.1-1.6-38.9-3.2-58.2-1.2c-24.2,2.6-42.8-0.1-59.1-2.5c-15-2.2-29.2-4.3-45.2-1.9
			c-37.4,5.6-68.1,4.2-97.8,2.8c-18.5-0.8-37.6-1.7-58.1-0.9c-6.6,0.3-13.2,0.7-19.7,1.1c-14.7,0.9-29.8,1.9-44.7,1
			c-4.9-0.3-10.2-0.8-15.8-1.3c-7.6-0.7-15.5-1.4-22.3-1.6c-14.3-0.5-28,1.1-41.1,2.7c-13,1.5-26.4,3.1-40.4,2.7
			c-6.6-0.2-13.3-0.8-19.8-1.4c-2.9-0.3-5.9-0.6-8.8-0.8c-18.5-1.5-36.9-0.3-59,2.1c-28.2,3-47.8,0.7-66.7-1.6
			c-12.2-1.5-23.8-2.8-37-2.7v-0.7c13.2-0.1,24.8,1.2,37,2.7c18.9,2.3,38.5,4.6,66.6,1.6c22.1-2.3,40.6-3.6,59.1-2.1
			c2.9,0.2,5.9,0.5,8.8,0.8c6.5,0.6,13.2,1.3,19.8,1.4c14,0.4,27.4-1.2,40.3-2.7c13.2-1.6,26.9-3.2,41.2-2.7
			c6.8,0.2,14.7,0.9,22.3,1.6c5.6,0.5,10.9,1,15.8,1.3c14.9,0.9,30-0.1,44.6-1c6.4-0.4,13.1-0.8,19.7-1.1
			c20.6-0.8,39.7,0.1,58.2,0.9c29.6,1.4,60.3,2.8,97.7-2.8c16-2.4,30.3-0.3,45.4,1.9c16.3,2.4,34.9,5.1,59,2.5
			c19.4-2.1,39.2-0.4,58.3,1.2l0.7,0.1c2.9,0.2,5.9,0.5,8.8,0.8c6.5,0.6,13.2,1.3,19.8,1.4c14,0.4,28.2-1.4,42-3.1
			c14-1.7,28.6-3.5,42.9-3c6.6,0.2,13.2,0.9,19.6,1.6c5,0.5,10.1,1,15.1,1.4c14.9,0.9,30-0.1,44.6-1c6.4-0.4,13.1-0.8,19.7-1.1
			c24.7-1,48,0.5,70.5,1.8c26.2,1.6,53.4,3.3,82.1,1c15-1.2,28.7,0.7,43.2,2.7c18.5,2.6,37.7,5.3,63.3,2.5
			c22.1-2.3,40.6-3.6,59.1-2.1c2.9,0.2,5.9,0.5,8.8,0.8c6.5,0.6,13.2,1.3,19.8,1.4c14,0.4,27.4-1.2,40.3-2.7
			c13.2-1.6,26.9-3.2,41.2-2.7c6.8,0.2,14.7,0.9,22.3,1.6c5.6,0.5,10.9,1,15.8,1.3c14.9,0.9,30-0.1,44.6-1
			c6.4-0.4,13.1-0.8,19.7-1.1c21.1-0.8,41.5-0.1,61.3,0.7c31.5,1.2,61.2,2.3,93.2-2.5l0.1,0.7c-32,4.8-61.8,3.7-93.3,2.5
			c-19.8-0.7-40.2-1.5-61.3-0.7c-6.6,0.3-13.2,0.7-19.7,1.1c-14.7,0.9-29.8,1.9-44.7,1c-4.9-0.3-10.2-0.8-15.8-1.3
			c-7.6-0.7-15.5-1.4-22.3-1.6c-14.3-0.5-28,1.1-41.1,2.7c-13,1.5-26.4,3.1-40.4,2.7c-6.6-0.2-13.3-0.8-19.8-1.4
			c-2.9-0.3-5.9-0.6-8.8-0.8c-18.5-1.5-36.9-0.3-59,2.1C665.1,901.4,658.1,901.7,651.4,901.7z"/>
	</g>
	<g>
		<path class="st1" d="M656.4,895.6c-0.2,0-0.3,0-0.5,0c-18.3,0-37-2.1-55-4c-11.8-1.3-22.9-2.5-32.9-3c-8.2-0.4-17.3,1.1-26.9,2.7
			c-7.3,1.2-14.8,2.4-22,2.8c-9.2,0.5-18.5-1.3-27.4-3c-3.6-0.7-7.2-1.4-10.9-1.9c-18.4-2.8-37.4-2-55.8-1.2
			c-2.2,0.1-4.3,0.2-6.5,0.3c-36.1,1.5-72.7,1.3-108.8-0.5c-1,0-2.3-0.1-3.7-0.3c-7.6-0.6-21.8-1.7-41.1,1
			c-24.8,3.5-46.7,4.8-68.7,3.8c-4.8-0.2-10.2-0.7-16-1.2c-13.2-1.2-28.3-2.5-39.2-0.7c-26.7,4.3-46.8,1.6-68.1-1.3
			c-11.1-1.5-22.6-3.1-35.4-3.7c-8-0.4-16.5,0.9-24.7,2.1c-2.5,0.4-4.8,0.7-7.2,1c-28.6,3.7-58,1.7-86.4-0.3
			c-22.9-1.6-46.6-3.2-69.9-1.8c-4.4,0.3-8.8,0.6-13.1,1c-8.8,0.7-18,1.5-27,1.3c-8.5-0.2-17.1-1.2-25.4-2.1
			c-12.5-1.4-25.5-2.9-38.2-1.6c-4.5,0.5-9,1.3-13.3,2.1c-4,0.8-8.2,1.5-12.4,2c-16.3,1.9-31.8,1.1-48.2,0.2
			c-6.2-0.3-12.6-0.7-19-0.9c-7.4-0.2-17,0.5-27.1,1.2c-10.4,0.7-21.2,1.5-31.7,1.5c-0.2,0-0.3,0-0.5,0c-14.8,0-29.5-1.5-43.8-2.8
			c-15.2-1.5-29.5-2.8-42.5-2.4v-0.7c13-0.4,27.4,1,42.6,2.4c14.3,1.4,29,2.8,43.7,2.8c10.6,0,21.5-0.7,32.1-1.5
			c10.1-0.7,19.7-1.4,27.2-1.2c6.4,0.2,12.8,0.5,19,0.9c16.4,0.9,31.8,1.7,48.1-0.2c4.1-0.5,8.3-1.3,12.4-2
			c4.4-0.8,8.9-1.6,13.4-2.1c12.8-1.4,25.8,0.1,38.4,1.6c8.3,1,16.9,1.9,25.3,2.1c9,0.2,18.1-0.6,27-1.3c4.3-0.4,8.7-0.7,13.1-1
			c23.3-1.4,47,0.2,69.9,1.8c28.4,1.9,57.7,4,86.3,0.3c2.3-0.3,4.7-0.6,7.2-1c8.3-1.2,16.8-2.5,24.9-2.1c12.8,0.6,24.3,2.2,35.5,3.7
			c21.3,2.9,41.3,5.7,67.9,1.4c11.1-1.8,26.1-0.5,39.4,0.7c5.7,0.5,11.2,1,15.9,1.2c22,0.9,43.8-0.3,68.6-3.8
			c19.4-2.8,33.6-1.6,41.2-1c1.5,0.1,2.7,0.2,3.7,0.3c36.1,1.8,72.6,1.9,108.7,0.5c2.2-0.1,4.3-0.2,6.5-0.3
			c18.4-0.8,37.4-1.6,55.9,1.2c3.6,0.5,7.3,1.2,10.9,1.9c8.9,1.7,18.1,3.4,27.3,3c7.2-0.4,14.7-1.6,21.9-2.8
			c9.6-1.6,18.8-3.1,27-2.7c10.1,0.5,21.2,1.7,32.9,3c18,1.9,36.7,4,55,4c10.6,0,21.5-0.7,32.1-1.5c10.1-0.7,19.7-1.4,27.2-1.2
			c6.4,0.2,12.8,0.5,19,0.9c16.4,0.9,31.8,1.7,48.1-0.2c4.1-0.5,8.3-1.3,12.4-2c4.4-0.8,8.9-1.6,13.3-2.1
			c12.8-1.4,25.8,0.1,38.4,1.6c8.3,1,16.9,1.9,25.3,2.1c9,0.2,18.1-0.6,27-1.3c4.3-0.4,8.7-0.7,13.1-1c23.3-1.4,47,0.2,69.9,1.8
			c28.4,1.9,57.7,4,86.3,0.3c2.3-0.3,4.6-0.7,6.9-1c7.8-1.2,15.9-2.5,23.9-1l-0.1,0.6c-7.9-1.5-15.9-0.2-23.7,1
			c-2.3,0.4-4.6,0.7-6.9,1c-28.6,3.7-58,1.7-86.4-0.3c-22.9-1.6-46.6-3.2-69.9-1.8c-4.4,0.3-8.8,0.6-13.1,1c-8.9,0.7-18,1.5-27,1.3
			c-8.5-0.2-17.1-1.2-25.4-2.1c-12.5-1.4-25.5-2.9-38.2-1.6c-4.5,0.5-9,1.3-13.3,2.1c-4,0.8-8.2,1.5-12.4,2
			c-16.3,1.9-31.8,1.1-48.2,0.2c-6.2-0.3-12.6-0.7-19-0.9c-7.4-0.2-17,0.5-27.1,1.2C677.7,894.9,666.9,895.6,656.4,895.6z"/>
	</g>
	<g>
		<path class="st1" d="M1028.7,891.1c-5.5,0-11-0.3-16.2-1c-3.6-0.5-7.2-1.4-10.6-2.2c-2.8-0.7-5.7-1.4-8.6-1.9
			c-9.4-1.7-19.1-1.4-28.5-1.1l-72,2.2c-13.9,0.4-28.3,0.8-42.4-1c-2.7-0.4-5.5-0.8-8.2-1.2c-6.1-1-12.3-2-18.6-2
			c-0.1,0-0.1,0-0.2,0c-5.5,0-11.1,0.8-16.5,1.6c-2.1,0.3-4.3,0.6-6.5,0.9c-4.1,0.5-8.6,1.5-13.3,2.5c-6.8,1.5-13.8,3-19.8,3.1
			c-16.7,0.3-31.7-0.5-46.1-1.3c-14.5-0.8-29.4-1.7-46.1-1.3c-6.7,0.1-13.6,0.5-20.9,1c-15.4,0.9-31.3,1.8-45.5,0.2
			c-4.4-0.5-9.3-1.6-14.5-2.7c-9.1-2-18.5-4-26-3.4c-4.8,0.4-9.7,0.3-14.5,0.2c-5.6-0.1-11.3-0.3-16.8,0.5
			c-28.6,3.7-58,1.7-86.4-0.3c-22.9-1.6-46.6-3.2-69.9-1.8c-4.4,0.3-8.8,0.6-13.1,1c-8.8,0.7-18,1.5-27,1.3
			c-8.5-0.2-17.1-1.2-25.4-2.1c-12.5-1.4-25.5-2.9-38.2-1.6c-4.5,0.5-9,1.3-13.3,2.1c-4,0.8-8.2,1.5-12.4,2
			c-16.3,1.9-31.8,1.1-48.2,0.2c-6.2-0.3-12.6-0.7-19-0.9c-7.4-0.2-17,0.5-27.1,1.2c-10.6,0.7-21.6,1.5-32.2,1.5
			c-20.3,0-41.7-1.8-60.6-3.4c-9.7-0.8-18.8-1.6-27.2-2.1c-9.1-0.5-20.8,0.9-33.2,2.4c-17.2,2.1-36.7,4.5-53.5,2.1
			c-3.6-0.5-7.2-1.4-10.6-2.2c-2.8-0.7-5.7-1.4-8.6-1.9c-9.4-1.6-19.1-1.4-28.5-1.1l-72,2.2c-13.9,0.4-28.3,0.8-42.4-1
			c-2.7-0.4-5.5-0.8-8.2-1.2c-6.1-1-12.3-2-18.6-2c-0.1,0-0.1,0-0.2,0c-5.5,0-11.1,0.8-16.5,1.6c-2.1,0.3-4.3,0.6-6.5,0.9
			c-4.1,0.5-8.6,1.5-13.3,2.5c-6.8,1.5-13.8,3-19.8,3.1c-16.7,0.3-31.7-0.5-46.1-1.3c-14.5-0.8-29.4-1.7-46.1-1.3
			c-6.7,0.1-13.6,0.5-20.9,1c-15.4,0.9-31.3,1.8-45.5,0.2c-3.8-0.4-8-1.5-12.5-2.6c-9.6-2.3-19.5-4.8-27-1.9l-0.2-0.6
			c7.7-3,17.8-0.5,27.4,1.9c4.4,1.1,8.6,2.1,12.4,2.6c14.2,1.7,30.1,0.7,45.4-0.2c7.3-0.4,14.2-0.8,21-1c16.7-0.3,31.7,0.5,46.1,1.3
			c14.5,0.8,29.4,1.7,46.1,1.3c6-0.1,13-1.6,19.7-3.1c4.8-1,9.2-2,13.4-2.5c2.2-0.3,4.3-0.6,6.5-0.9c5.4-0.8,11-1.6,16.6-1.6
			c6.3,0,12.7,1,18.8,2c2.7,0.4,5.4,0.9,8.2,1.2c14,1.8,28.4,1.4,42.3,1l72-2.2c9.4-0.3,19.2-0.6,28.7,1.1c2.9,0.5,5.8,1.2,8.7,1.9
			c3.4,0.8,7,1.7,10.6,2.2c16.7,2.4,36.2,0,53.3-2.1c12.4-1.5,24.2-3,33.4-2.4c8.4,0.5,17.6,1.3,27.2,2.1
			c18.9,1.6,40.3,3.3,60.6,3.4c10.6,0,21.5-0.7,32.1-1.5c10.1-0.7,19.7-1.4,27.2-1.2c6.4,0.2,12.8,0.5,19,0.9
			c16.4,0.9,31.8,1.7,48.1-0.2c4.1-0.5,8.3-1.3,12.4-2c4.4-0.8,8.9-1.6,13.3-2.1c12.8-1.4,25.8,0.1,38.4,1.6
			c8.3,1,16.9,1.9,25.3,2.1c9,0.2,18.1-0.6,27-1.3c4.3-0.4,8.7-0.7,13.1-1c23.3-1.4,47,0.2,69.9,1.8c28.4,1.9,57.7,4,86.3,0.3
			c5.6-0.7,11.3-0.6,16.9-0.5c4.8,0.1,9.7,0.2,14.5-0.2c7.6-0.7,17.1,1.4,26.2,3.4c5.2,1.1,10.1,2.2,14.5,2.7
			c14.2,1.7,30.1,0.7,45.4-0.2c7.3-0.4,14.2-0.8,21-1c16.7-0.3,31.7,0.5,46.1,1.3c14.5,0.8,29.4,1.7,46.1,1.3c6-0.1,13-1.6,19.7-3.1
			c4.8-1,9.2-2,13.4-2.5c2.2-0.3,4.3-0.6,6.5-0.9c5.4-0.8,11-1.6,16.6-1.6c0.1,0,0.1,0,0.2,0c6.3,0,12.6,1,18.7,2
			c2.7,0.4,5.4,0.9,8.2,1.2c14,1.8,28.4,1.4,42.3,1l72-2.2c9.4-0.3,19.2-0.6,28.7,1.1c2.9,0.5,5.8,1.2,8.7,1.9
			c3.4,0.8,7,1.7,10.5,2.2c15.3,2.2,32.3,0.5,48.7-1.1c14.1-1.4,27.4-2.7,37.5-1.2l-0.1,0.7c-10.1-1.5-23.3-0.2-37.4,1.2
			C1050.5,890,1039.4,891.1,1028.7,891.1z"/>
	</g>
	<g>
		<path class="st1" d="M750.3,886.3c-10.5,0-20.4-1-30.1-2.1c-9.7-1-19.8-2.1-30.4-2.1c0,0,0,0-0.1,0c-6,0-13,0.8-19.9,1.5
			c-3.1,0.3-6.1,0.7-8.8,0.9c-18.3,1.6-34.5-0.5-53.2-3c-12.5-1.6-25.4-3.3-40.5-4.1c-8.8-0.5-20,0.5-31.9,1.6
			c-17.4,1.5-37.2,3.3-54.4,0.8c-3.6-0.5-7.2-1.4-10.6-2.2c-2.8-0.7-5.7-1.4-8.6-1.9c-9.4-1.6-19.1-1.4-28.5-1.1l-72,2.2
			c-13.9,0.4-28.3,0.8-42.4-1c-2.7-0.4-5.5-0.8-8.2-1.2c-6.1-1-12.3-2-18.6-2c-0.1,0-0.1,0-0.2,0c-5.5,0-11.1,0.8-16.5,1.6
			c-2.1,0.3-4.3,0.6-6.5,0.9c-4.1,0.5-8.6,1.5-13.3,2.5c-6.8,1.5-13.8,3-19.8,3.1c-16.7,0.3-31.7-0.5-46.1-1.3
			c-14.5-0.8-29.4-1.7-46.1-1.3c-6.7,0.1-13.6,0.5-20.9,1c-15.4,0.9-31.3,1.8-45.5,0.2c-5.8-0.7-13.4-1-20.7-1.2
			c-7.8-0.3-15.2-0.5-20.7-1.3c-12.1-1.6-20.4-0.7-29.2,0.2c-3.1,0.3-6.2,0.7-9.6,0.9c-3.3,0.2-6.6,0.6-9.8,0.9
			c-5.1,0.6-10.4,1.1-15.6,1.2c-6.7,0.1-13.6-0.6-20.2-1.2c-1.7-0.2-3.3-0.3-5-0.5c-19.4-1.8-39.1-2-58.2-2.2
			c-12-0.1-24,0.4-35.7,0.8c-23.3,0.9-47.4,1.9-72.3-1.8c-17.7-2.7-36-0.7-53.7,1.2c-1.5,0.2-2.9,0.3-4.4,0.5
			c-4.4,0.5-8.9,1.4-13.3,2.4c-5.9,1.3-12,2.6-18,2.7c-11.6,0.2-22.6-0.9-33.2-2c-9.7-1-19.8-2.1-30.4-2.1c0,0,0,0-0.1,0
			c-6,0-13,0.8-19.9,1.5c-3.1,0.3-6.1,0.7-8.8,0.9c-15.5,1.3-29.2-0.1-43.7-1.6c-14.4-1.5-29.3-3-48-2.3v-0.7
			c18.7-0.8,33.6,0.8,48.1,2.3s28.2,2.9,43.6,1.6c2.7-0.2,5.7-0.6,8.8-0.9c6.9-0.8,14-1.5,20-1.5c0,0,0,0,0.1,0
			c10.6,0,20.7,1.1,30.4,2.1c10.6,1.1,21.5,2.2,33.1,2c6-0.1,12-1.4,17.9-2.7c4.4-0.9,8.9-1.9,13.3-2.4c1.5-0.2,2.9-0.3,4.4-0.5
			c17.7-1.9,36.1-3.9,53.9-1.2c24.8,3.7,48.9,2.8,72.2,1.8c11.7-0.5,23.7-1,35.7-0.8c19.1,0.2,38.9,0.4,58.3,2.2
			c1.7,0.2,3.3,0.3,5,0.5c6.6,0.7,13.4,1.4,20.1,1.2c5.2-0.1,10.5-0.7,15.6-1.2c3.2-0.3,6.6-0.7,9.8-0.9c3.4-0.2,6.6-0.6,9.6-0.9
			c8.8-1,17.2-1.8,29.3-0.2c5.5,0.7,12.8,1,20.6,1.3c7.3,0.3,14.9,0.5,20.8,1.2c14.2,1.7,30.1,0.7,45.4-0.2c7.3-0.4,14.2-0.8,21-1
			c16.7-0.3,31.7,0.5,46.1,1.3c14.5,0.8,29.4,1.7,46.1,1.3c6-0.1,13-1.6,19.7-3.1c4.8-1,9.2-2,13.4-2.5c2.2-0.3,4.3-0.6,6.5-0.9
			c5.4-0.8,11-1.6,16.6-1.6c0.1,0,0.1,0,0.2,0c6.3,0,12.6,1,18.7,2c2.7,0.4,5.4,0.9,8.2,1.2c14,1.8,28.4,1.4,42.3,1l72-2.2
			c9.4-0.3,19.2-0.6,28.7,1.1c2.9,0.5,5.8,1.2,8.7,1.9c3.4,0.8,7,1.7,10.5,2.2c17.1,2.4,36.8,0.7,54.2-0.8c11.9-1,23.1-2,32-1.6
			c15.1,0.8,28,2.5,40.5,4.1c18.7,2.5,34.8,4.6,53.1,3c2.7-0.2,5.7-0.6,8.8-0.9c6.9-0.8,14-1.5,20-1.5c0,0,0,0,0.1,0
			c10.6,0,20.7,1.1,30.4,2.1c10.6,1.1,21.5,2.2,33.1,2c6-0.1,12-1.4,17.9-2.7c4.4-0.9,8.9-1.9,13.3-2.4c1.5-0.2,2.9-0.3,4.4-0.5
			c17.7-1.9,36.1-3.9,53.9-1.2c24.8,3.7,48.9,2.8,72.2,1.8c11.7-0.5,23.7-0.9,35.7-0.8c19.1,0.2,38.9,0.4,58.3,2.2
			c1.7,0.2,3.3,0.3,5,0.5c6.6,0.7,13.4,1.3,20.1,1.2c5.2-0.1,10.5-0.7,15.6-1.2c3.2-0.3,6.6-0.7,9.8-0.9l1.1-0.1
			c12.6-0.9,25.7-1.8,38.3,1l-0.1,0.6c-12.5-2.8-25.5-1.9-38.1-0.9l-1.1,0.1c-3.3,0.2-6.6,0.6-9.8,0.9c-5.1,0.6-10.4,1.1-15.6,1.2
			c-6.7,0.1-13.5-0.6-20.1-1.2c-1.7-0.2-3.3-0.3-5-0.5c-19.4-1.8-39.1-2-58.2-2.2c-12-0.1-24,0.4-35.7,0.8
			c-23.3,0.9-47.4,1.9-72.3-1.8c-17.7-2.7-36-0.7-53.7,1.2c-1.5,0.2-2.9,0.3-4.4,0.5c-4.4,0.5-8.9,1.4-13.3,2.4
			c-5.9,1.3-12,2.6-18,2.7C752.3,886.2,751.3,886.3,750.3,886.3z"/>
	</g>
	<g>
		<path class="st1" d="M725.7,879.6c-0.3,0-0.7,0-1,0c-7.3-0.2-14.5-1.2-21.5-2.2c-3.5-0.5-7.1-1-10.7-1.4
			c-8.2-0.9-16.6,0.2-24.7,1.3c-2,0.3-4,0.5-5.9,0.8c-21.1,2.5-46.1-0.7-68.1-3.5c-9.6-1.2-18.7-2.4-26.6-3
			c-12.7-0.9-25.8-1.8-39.2-0.9c-3.3,0.2-6.6,0.6-9.8,0.9c-5.1,0.6-10.4,1.1-15.6,1.2c-6.7,0.1-13.5-0.6-20.1-1.2
			c-1.7-0.2-3.3-0.3-5-0.5c-19.4-1.8-39.1-2-58.2-2.2c-12-0.1-24,0.4-35.7,0.8c-23.3,0.9-47.4,1.9-72.3-1.8
			c-17.7-2.7-36-0.7-53.7,1.2c-1.5,0.2-2.9,0.3-4.4,0.5c-4.4,0.5-8.9,1.4-13.3,2.4c-5.9,1.3-12,2.6-18,2.7
			c-11.6,0.2-22.6-0.9-33.2-2c-9.7-1-19.8-2.1-30.4-2.1c0,0,0,0-0.1,0c-6,0-13.1,0.8-19.9,1.5c-3.1,0.3-6.1,0.7-8.8,0.9
			c-31,2.7-73.9,0.9-93-2.4c-11.1-1.9-24.4-0.6-39.8,0.8c-19.8,1.9-42.2,4.1-68.5,0.7c-5.6-0.7-11.3-0.4-16.9-0.2
			c-4.8,0.2-9.7,0.4-14.5,0.1c-3.9-0.3-7.9-0.8-11.8-1.3c-7-0.9-14.3-1.8-21.5-1.6c-5.5,0.1-11,0.9-16.4,1.7
			c-3.8,0.5-7.6,1.1-11.5,1.4c-14.6,1.3-29.5-0.6-43.9-2.5c-16.1-2.1-32.8-4.2-49-1.8c-3.2,0.5-6.5,1.1-9.7,1.8
			c-6.9,1.4-14,2.8-21.1,2.4c-2.1-0.1-4.3-0.4-6.4-0.7c-2.3-0.3-4.7-0.6-7-0.7c-6.2-0.2-12.4,1.1-18.4,2.3c-5.9,1.2-12,2.5-18.1,2.4
			c-7.3-0.2-14.5-1.2-21.5-2.2c-3.5-0.5-7.1-1-10.7-1.4c-8.2-0.9-16.6,0.2-24.7,1.3c-2,0.3-4,0.5-5.9,0.8c-16.7,2-35.1,0.6-52.8-0.8
			c-14.4-1.1-28-2.2-39.5-1.3l-0.1-0.7c11.6-0.9,25.2,0.2,39.6,1.3c17.7,1.4,36,2.8,52.7,0.8c2-0.2,3.9-0.5,5.9-0.8
			c8.1-1.1,16.6-2.2,24.8-1.3c3.6,0.4,7.2,0.9,10.7,1.4c6.9,1,14.1,2.1,21.4,2.2c6,0.2,12.1-1.1,17.9-2.3c6-1.3,12.3-2.6,18.6-2.3
			c2.4,0.1,4.8,0.4,7.1,0.7c2.1,0.3,4.2,0.6,6.3,0.7c7,0.4,14.1-1,20.9-2.4c3.2-0.6,6.5-1.3,9.7-1.8c16.3-2.4,33-0.2,49.2,1.8
			c14.4,1.8,29.2,3.7,43.8,2.5c3.8-0.3,7.7-0.9,11.4-1.4c5.4-0.8,10.9-1.6,16.5-1.7c7.2-0.2,14.5,0.7,21.6,1.6
			c3.8,0.5,7.8,1,11.7,1.3c4.8,0.4,9.7,0.2,14.4-0.1c5.6-0.3,11.4-0.5,17,0.2c26.2,3.4,48.6,1.2,68.4-0.7c15.5-1.5,28.8-2.8,40-0.8
			c19.1,3.3,61.9,5.1,92.8,2.4c2.7-0.2,5.7-0.6,8.8-0.9c6.9-0.8,14-1.5,20-1.5c0,0,0,0,0.1,0c10.6,0,20.7,1.1,30.4,2.1
			c10.6,1.1,21.5,2.2,33.1,2c6-0.1,12-1.4,17.9-2.7c4.4-0.9,8.9-1.9,13.3-2.4c1.5-0.2,2.9-0.3,4.4-0.5c17.7-1.9,36.1-3.9,53.9-1.2
			c24.8,3.7,48.9,2.8,72.2,1.8c11.7-0.5,23.7-0.9,35.7-0.8c19.1,0.2,38.9,0.4,58.3,2.2c1.7,0.2,3.3,0.3,5,0.5
			c6.6,0.7,13.4,1.3,20.1,1.2c5.2-0.1,10.5-0.7,15.6-1.2c3.2-0.3,6.6-0.7,9.8-0.9c13.5-1,26.6,0,39.3,0.9c7.9,0.6,17,1.7,26.6,3
			c22,2.8,46.9,6,67.9,3.5c2-0.2,3.9-0.5,5.9-0.8c8.1-1.1,16.6-2.2,24.8-1.3c3.6,0.4,7.2,0.9,10.7,1.4c6.9,1,14.1,2.1,21.4,2.2
			c6,0.1,12.1-1.1,17.9-2.3c6-1.3,12.3-2.6,18.6-2.3c2.4,0.1,4.8,0.4,7.1,0.7c2.1,0.3,4.2,0.6,6.3,0.7c7,0.4,14.1-1,20.9-2.4
			c3.2-0.6,6.5-1.3,9.7-1.8c16.3-2.4,33-0.2,49.2,1.8c14.4,1.8,29.2,3.7,43.7,2.5c3.8-0.3,7.7-0.9,11.4-1.4
			c5.4-0.8,10.9-1.6,16.5-1.7c7.2-0.2,14.5,0.7,21.6,1.6c3.8,0.5,7.8,1,11.7,1.3c4.8,0.4,9.7,0.2,14.4-0.1c5.6-0.3,11.4-0.5,17,0.2
			c25,3.2,48.8,1.8,68,0.7c17.4-1,31.1-1.8,40,0.9l-0.2,0.6c-8.7-2.7-22.4-1.9-39.7-0.9c-19.2,1.1-43,2.5-68.1-0.7
			c-5.6-0.7-11.3-0.4-16.9-0.2c-4.8,0.2-9.7,0.4-14.5,0.1c-3.9-0.3-7.9-0.8-11.8-1.3c-7-0.9-14.3-1.8-21.5-1.6
			c-5.5,0.1-11,0.9-16.4,1.7c-3.7,0.5-7.6,1.1-11.5,1.4c-14.6,1.3-29.5-0.6-43.9-2.5c-16.1-2.1-32.8-4.2-49-1.8
			c-3.2,0.5-6.5,1.1-9.7,1.8c-6.9,1.4-14,2.8-21.1,2.4c-2.1-0.1-4.3-0.4-6.4-0.7c-2.3-0.3-4.7-0.6-7-0.7c-6.2-0.2-12.4,1.1-18.4,2.3
			C737.2,878.4,731.4,879.6,725.7,879.6z"/>
	</g>
	<g>
		<path class="st1" d="M641,875.5c-3,0-5.9-0.1-8.9-0.3c-23.1-1.5-46.9-4.8-65.3-9.1c-8.5-2-21.2-1.4-37.2-0.7
			c-19.6,0.9-44,2-70.2-1.3c-5.6-0.7-11.3-0.4-16.9-0.2c-4.8,0.2-9.7,0.4-14.5,0.1c-3.9-0.3-7.9-0.8-11.8-1.3
			c-7-0.9-14.3-1.8-21.5-1.6c-5.5,0.1-11,0.9-16.4,1.7c-3.7,0.5-7.6,1.1-11.5,1.4c-14.6,1.3-29.5-0.6-43.9-2.5
			c-16.1-2.1-32.8-4.2-49-1.8c-3.2,0.5-6.5,1.1-9.7,1.8c-6.9,1.4-14,2.8-21.1,2.4c-2.1-0.1-4.3-0.4-6.4-0.7c-2.3-0.3-4.7-0.6-7-0.7
			c-6.2-0.2-12.4,1.1-18.4,2.3c-5.9,1.2-12,2.5-18.1,2.4c-7.3-0.2-14.5-1.2-21.5-2.2c-3.5-0.5-7.1-1-10.7-1.4
			c-8.2-0.9-16.6,0.2-24.7,1.3c-2,0.3-3.9,0.5-5.9,0.8c-30.8,3.7-79.1,1.6-93,0.1c-22.6-2.4-48.7-2.4-73.5-0.2
			c-4.4,0.4-8.9,1-13.2,1.5c-10,1.3-20.4,2.6-30.6,1.9c-6-0.5-12-1.6-17.7-2.8c-5.6-1.1-11.4-2.2-17.2-2.7
			c-8.7-0.7-17.7,0.1-26.3,0.8c-2.2,0.2-4.4,0.4-6.6,0.6c-29.2,2.3-58.9,0.3-87.7-1.6c-9.1-0.6-18.4-1.2-27.7-1.7
			c-8-0.4-16.5-0.8-25.1-0.2c-6.4,0.4-12.9,1.9-19.2,3.3c-9.3,2.1-18.9,4.2-28.3,3c-9.1-1.1-18-1.3-28.4-1.2c-1.8,0-3.6,0-5.4,0
			c-6.7,0-13,0-19.5,1.3c-14.4,2.8-28.3,3.9-41.2,3l-2.4-0.1c-20.2-1.3-41.2-2.6-60.9-5.8l0.1-0.7c19.7,3.2,40.6,4.5,60.9,5.8
			l2.4,0.1c12.9,0.8,26.7-0.2,41.1-3c6.6-1.3,12.9-1.3,19.7-1.3c1.8,0,3.6,0,5.4,0c10.5-0.1,19.4,0,28.5,1.2c9.3,1.2,18.9-1,28.1-3
			c6.3-1.4,12.9-2.9,19.4-3.3c8.7-0.5,17.2-0.2,25.2,0.2c9.2,0.5,18.6,1.1,27.7,1.7c28.7,1.9,58.5,3.9,87.6,1.6
			c2.2-0.2,4.4-0.4,6.6-0.6c8.7-0.8,17.6-1.6,26.4-0.8c5.8,0.5,11.6,1.6,17.2,2.7c5.8,1.1,11.7,2.3,17.7,2.8
			c10.2,0.8,20.5-0.6,30.5-1.9c4.3-0.6,8.8-1.1,13.2-1.5c24.8-2.3,51-2.2,73.6,0.2c14,1.5,62.1,3.6,92.9-0.1c2-0.2,3.9-0.5,5.9-0.8
			c8.1-1.1,16.6-2.2,24.8-1.3c3.6,0.4,7.2,0.9,10.7,1.4c6.9,1,14.1,2.1,21.4,2.2c6,0.2,12.1-1.1,17.9-2.3c6-1.3,12.3-2.6,18.6-2.3
			c2.4,0.1,4.8,0.4,7.1,0.7c2.1,0.3,4.2,0.6,6.3,0.7c7,0.4,14.1-1,20.9-2.4c3.2-0.6,6.5-1.3,9.7-1.8c16.3-2.4,33-0.2,49.2,1.8
			c14.4,1.8,29.2,3.7,43.8,2.5c3.8-0.3,7.7-0.9,11.4-1.4c5.4-0.8,10.9-1.6,16.5-1.7c7.2-0.2,14.5,0.7,21.6,1.6
			c3.8,0.5,7.8,1,11.7,1.3c4.8,0.4,9.7,0.2,14.4-0.1c5.6-0.3,11.4-0.5,17,0.2c26.1,3.3,50.5,2.2,70.1,1.3
			c16.1-0.7,28.8-1.3,37.4,0.7c18.4,4.3,42.1,7.6,65.2,9.1c12.9,0.8,26.7-0.2,41.1-3c6.6-1.3,12.9-1.3,19.7-1.3c1.8,0,3.6,0,5.4,0
			c10.5-0.1,19.4,0,28.5,1.2c9.3,1.2,18.9-1,28.1-3c6.3-1.4,12.9-2.9,19.4-3.3c8.6-0.5,17.2-0.2,25.2,0.2c9.2,0.5,18.6,1.1,27.7,1.7
			c28.7,1.9,58.5,3.9,87.6,1.6c2.2-0.2,4.4-0.4,6.6-0.6c8.7-0.8,17.6-1.6,26.4-0.8c5.8,0.5,11.6,1.6,17.2,2.7
			c5.8,1.1,11.7,2.3,17.7,2.8c10.2,0.8,20.5-0.6,30.5-1.9c4.3-0.6,8.8-1.1,13.2-1.5c22.7-2.1,46.4,0.7,69.3,3.3l3,0.3l-0.1,0.7
			l-3-0.4c-22.9-2.6-46.5-5.4-69.2-3.3c-4.4,0.4-8.9,1-13.2,1.5c-10,1.3-20.4,2.6-30.6,1.9c-6-0.5-11.9-1.6-17.7-2.8
			c-5.6-1.1-11.4-2.2-17.2-2.7c-8.7-0.7-17.7,0.1-26.3,0.8c-2.2,0.2-4.4,0.4-6.6,0.6c-29.2,2.3-58.9,0.3-87.7-1.6
			c-9.1-0.6-18.4-1.2-27.6-1.7c-8-0.4-16.5-0.8-25.1-0.2c-6.4,0.4-12.9,1.9-19.2,3.3c-9.3,2.1-18.9,4.2-28.3,3
			c-9.1-1.1-18-1.3-28.4-1.2c-1.8,0-3.6,0-5.4,0c-6.7,0-13,0-19.5,1.3C662.2,874.3,651.4,875.5,641,875.5z"/>
	</g>
	<g>
		<path class="st1" d="M1098.7,870.9c-22.9-3.6-43.6-5-61.4-4.2c-4.4,0.2-8.8,0.5-13.1,0.8c-13.8,0.9-28.1,1.8-41.9-0.3
			c-3.6-0.6-7.2-1.3-10.7-2.1c-5.7-1.2-11.6-2.5-17.5-2.8c-7.8-0.5-15.6,0.7-23.2,1.8c-2.2,0.3-4.5,0.6-6.7,0.9
			c-26.2,3.3-53.1,1.4-79.1-0.5c-26.6-1.9-54-3.9-80.7-0.3c-3.1,0.4-6.2,0.9-9.2,1.4c-8.1,1.3-16.4,2.6-24.7,2.6
			c-6.2-0.1-12.4-0.9-18.4-1.8c-6.2-0.9-12.7-1.8-19.1-1.8c0,0,0,0-0.1,0c-7.3,0-14.7,1.2-21.8,2.3c-6.1,1-12.4,2-18.6,2.3
			c-20,0.9-38.7-1.9-60.3-5.1c-8.3-1.2-16.9-2.5-26.1-3.7c-22.8-2.9-47-5.5-71-3.3c-4.4,0.4-8.9,1-13.2,1.5
			c-10,1.3-20.4,2.6-30.6,1.9c-6-0.5-11.9-1.6-17.7-2.8c-5.6-1.1-11.4-2.2-17.2-2.7c-8.7-0.7-17.7,0.1-26.3,0.8
			c-2.2,0.2-4.4,0.4-6.6,0.6c-29.2,2.3-58.9,0.3-87.7-1.6c-9.1-0.6-18.4-1.2-27.6-1.7c-8-0.4-16.5-0.8-25.1-0.2
			c-6.4,0.4-12.9,1.9-19.2,3.3c-9.3,2.1-18.9,4.2-28.3,3c-9.1-1.1-18-1.3-28.4-1.2c-1.8,0-3.6,0-5.4,0c-6.7,0-13,0-19.5,1.3
			c-14.4,2.8-28.3,3.9-41.2,3c-7.7-0.5-15.9-0.7-23.8-0.9c-13.6-0.4-27.6-0.7-40.6-2.5c-17.6-2.4-30.1-0.5-42.1,1.3
			c-6.5,1-12.6,1.9-19.5,2.2c-4.4,0.2-8.8,0.5-13.1,0.8c-13.8,0.9-28.1,1.8-41.9-0.3c-3.6-0.6-7.2-1.3-10.7-2.1
			c-5.7-1.2-11.6-2.5-17.5-2.8c-7.8-0.5-15.6,0.7-23.2,1.8c-2.2,0.3-4.5,0.6-6.7,0.9c-26.2,3.3-53.1,1.4-79.1-0.5
			c-26.6-1.9-54-3.9-80.7-0.3c-3.1,0.4-6.2,0.9-9.2,1.4c-8.1,1.3-16.4,2.6-24.7,2.6c-6.2-0.1-12.4-0.9-18.4-1.8
			c-6.2-0.9-12.7-1.8-19.1-1.8c0,0,0,0-0.1,0c-7.3,0-14.7,1.2-21.8,2.3c-6.1,1-12.4,2-18.6,2.3c-26,1.2-48.4,2.2-82.5-2.5l0.1-0.7
			c34.1,4.6,56.5,3.6,82.4,2.4c6.2-0.3,12.5-1.3,18.5-2.3c7.2-1.1,14.5-2.3,21.9-2.3c6.5,0,13,0.9,19.2,1.8c6,0.8,12.2,1.7,18.4,1.8
			c8.2,0.1,16.5-1.3,24.6-2.5c3-0.5,6.1-1,9.2-1.4c26.8-3.7,54.3-1.7,80.9,0.2c26,1.9,52.8,3.8,79,0.5c2.2-0.3,4.5-0.6,6.7-0.9
			c7.6-1.1,15.5-2.2,23.3-1.8c5.9,0.3,11.9,1.6,17.6,2.9c3.5,0.8,7.1,1.5,10.6,2.1c13.8,2.2,28,1.2,41.8,0.3
			c4.3-0.3,8.8-0.6,13.2-0.8c6.9-0.3,13-1.2,19.5-2.2c12.1-1.8,24.6-3.7,42.3-1.3c12.9,1.7,26.9,2.1,40.5,2.5
			c7.9,0.2,16.1,0.4,23.8,0.9c12.9,0.8,26.7-0.2,41.1-3c6.6-1.3,12.9-1.3,19.7-1.3c1.8,0,3.6,0,5.4,0c10.5-0.1,19.4,0,28.5,1.2
			c9.3,1.2,18.9-1,28.1-3c6.3-1.4,12.9-2.9,19.4-3.3c8.6-0.5,17.2-0.2,25.2,0.2c9.2,0.5,18.6,1.1,27.7,1.7
			c28.7,1.9,58.5,3.9,87.6,1.6c2.2-0.2,4.4-0.4,6.6-0.6c8.7-0.8,17.6-1.6,26.4-0.8c5.8,0.5,11.6,1.6,17.2,2.7
			c5.8,1.1,11.7,2.3,17.7,2.8c10.2,0.8,20.5-0.6,30.5-1.9c4.3-0.6,8.8-1.1,13.2-1.5c24.1-2.2,48.3,0.4,71.1,3.3
			c9.2,1.2,17.8,2.4,26.1,3.7c21.6,3.2,40.2,6,60.2,5.1c6.2-0.3,12.5-1.3,18.5-2.3c7.2-1.1,14.5-2.3,21.9-2.3c0,0,0,0,0.1,0
			c6.4,0,12.9,0.9,19.2,1.8c6,0.8,12.2,1.7,18.3,1.8c8.3,0.1,16.5-1.3,24.6-2.5c3-0.5,6.1-1,9.2-1.4c26.8-3.7,54.3-1.7,80.9,0.2
			c26,1.9,52.8,3.8,79,0.5c2.2-0.3,4.5-0.6,6.7-0.9c7.6-1.1,15.5-2.2,23.3-1.8c5.9,0.3,11.9,1.6,17.6,2.9c3.5,0.8,7.1,1.5,10.6,2.1
			c13.8,2.2,28,1.2,41.8,0.3c4.3-0.3,8.8-0.6,13.2-0.8c17.8-0.8,38.5,0.7,61.5,4.2L1098.7,870.9z"/>
	</g>
	<g>
		<path class="st1" d="M1098.7,864.7c-28.6-4.1-48.9-2.8-66.9-1.6c-16.1,1-31.3,2-49.7-1.1c-9.2-1.6-33.2-4.2-43.4-3.6
			c-3.9,0.2-7.8,0.7-11.6,1.2s-7.7,1-11.6,1.2c-8.7,0.5-17.5-0.2-26-0.9c-1.3-0.1-2.5-0.2-3.8-0.3c-10.5-0.8-22-1.5-36.3-2
			c-16.2-0.6-64.6-1.4-82.7,0.5c-20.7,2.2-41.5,2.2-61.5,2.1c-22.7,0-46.2,0-69.6,3.1c-18.4,2.5-28.4-0.1-39.8-3
			c-7.9-2-16.9-4.3-30-5.2c-6.2-0.4-12.6-1-18.7-1.5c-13.5-1.2-27.4-2.4-41.1-1.8c-4.4,0.2-8.8,0.5-13.1,0.8
			c-13.8,0.9-28,1.8-41.9-0.3c-3.6-0.6-7.2-1.3-10.7-2.1c-5.7-1.2-11.6-2.5-17.5-2.8c-7.7-0.5-15.6,0.7-23.2,1.8
			c-2.2,0.3-4.5,0.6-6.7,0.9c-26.2,3.3-53.1,1.4-79.1-0.5c-26.6-1.9-54-3.9-80.7-0.3c-3.1,0.4-6.2,0.9-9.2,1.4
			c-8.1,1.3-16.4,2.6-24.7,2.6c-6.2-0.1-12.4-0.9-18.4-1.8c-6.2-0.9-12.7-1.8-19.1-1.8c0,0,0,0-0.1,0c-7.3,0-14.7,1.2-21.8,2.3
			c-6.1,1-12.4,2-18.6,2.3c-5.6,0.3-11.1,0.6-16.4,0.9c-21.2,1.3-41.2,2.5-67.7-1.1c-28.8-4.2-49.5-1-67.8,1.8
			c-16.2,2.5-31.5,4.9-49.7,1.8c-9.2-1.6-33.2-4.2-43.4-3.6c-3.9,0.2-7.8,0.7-11.6,1.2s-7.7,1-11.6,1.2c-8.7,0.5-17.5-0.2-26-0.9
			c-1.3-0.1-2.5-0.2-3.8-0.3c-10.5-0.8-22-1.5-36.3-2c-16.2-0.6-64.6-1.4-82.7,0.5c-20.7,2.2-41.5,2.2-61.5,2.1
			c-22.7,0-46.2,0-69.6,3.1c-17.6,2.4-26,1.3-35.7,0.1c-7.4-0.9-15.7-2-29.6-1.6v-0.7c13.9-0.4,22.3,0.6,29.7,1.6
			c9.6,1.2,18,2.3,35.5-0.1c23.5-3.2,47-3.1,69.7-3.1c20,0,40.8,0,61.5-2.1c18.1-1.9,66.5-1.1,82.8-0.5c14.3,0.6,25.9,1.2,36.4,2
			c1.3,0.1,2.5,0.2,3.8,0.3c8.5,0.7,17.3,1.4,25.9,0.9c3.9-0.2,7.8-0.7,11.5-1.2c3.8-0.5,7.8-1,11.7-1.2c10.2-0.6,34.3,2,43.5,3.6
			c18.2,3.1,33.4,0.7,49.5-1.8c18.3-2.8,39.1-6,67.9-1.8c26.4,3.6,46.4,2.4,67.6,1.1c5.3-0.3,10.8-0.7,16.4-0.9
			c6.2-0.3,12.5-1.3,18.5-2.3c7.2-1.1,14.5-2.3,21.9-2.3c0,0,0,0,0.1,0c6.4,0,12.9,0.9,19.2,1.8c6,0.8,12.2,1.7,18.3,1.8
			c8.3,0.1,16.5-1.3,24.6-2.5c3-0.5,6.1-1,9.2-1.4c26.8-3.7,54.3-1.7,80.9,0.2c26,1.9,52.8,3.8,79,0.5c2.2-0.3,4.5-0.6,6.7-0.9
			c7.6-1.1,15.5-2.2,23.3-1.8c5.9,0.3,11.9,1.6,17.6,2.9c3.5,0.8,7.1,1.5,10.6,2.1c13.8,2.2,28,1.2,41.8,0.3
			c4.3-0.3,8.8-0.6,13.2-0.8c13.8-0.6,27.7,0.6,41.2,1.8c6.1,0.5,12.4,1.1,18.7,1.5c13.1,0.8,22.2,3.1,30.1,5.2
			c11.4,2.9,21.3,5.5,39.6,3c23.5-3.2,47-3.1,69.7-3.1c20,0,40.8,0,61.5-2.1c18.1-1.9,66.5-1.1,82.8-0.5c14.3,0.6,25.9,1.2,36.4,2
			c1.3,0.1,2.5,0.2,3.8,0.3c8.5,0.7,17.3,1.4,25.9,0.9c3.9-0.2,7.8-0.7,11.5-1.2c3.8-0.5,7.8-1,11.7-1.2c10.2-0.6,34.3,2,43.5,3.6
			c18.3,3.1,33.5,2.1,49.6,1.1c18-1.2,38.4-2.5,67,1.6L1098.7,864.7z"/>
	</g>
	<g>
		<path class="st1" d="M1098.7,859.7c-24.4-2.5-48.2-4.7-70.4-3.3c-3.7,0.2-7.5,0.6-11.2,0.9c-9.6,0.9-19.6,1.7-29.4,0.8
			c-5.2-0.5-10.4-1.5-15.4-2.5c-5.3-1-10.7-2.1-16.1-2.6c-7.4-0.6-14.9-0.2-22.1,0.3l-2.7,0.2c-35.7,2.1-61.8,3.1-98.9-1.3l-0.7-0.1
			c-7.3-0.9-19.4-2.3-26.1-1.3c-2.4,0.4-5.7,0.7-9.1,1.1c-4.4,0.5-9,1-12.2,1.5c-12.9,2.3-26,1.7-38.7,1.2
			c-6.7-0.3-13.6-0.6-20.5-0.5c-2.3,0-4.6,0.1-6.8,0.1c-13.7,0.2-26.7,0.4-40.4,2c-6.9,0.8-15.8,0.6-25.3,0.4
			c-10.7-0.2-21.7-0.5-29.7,0.8c-16.3,2.8-25.1,0.5-38.6-3c-4.7-1.2-10.1-2.6-16.5-4c-21.7-4.6-42.6-3.4-62.7-2.2
			c-17.8,1-36.2,2.1-54.6-1.1c-9.2-1.6-33.2-4.2-43.4-3.6c-3.9,0.2-7.8,0.7-11.6,1.2c-3.8,0.5-7.7,1-11.6,1.2
			c-8.7,0.5-17.5-0.2-26-0.9c-1.3-0.1-2.5-0.2-3.8-0.3c-10.5-0.8-22-1.5-36.3-2c-16.2-0.6-64.6-1.4-82.7,0.5
			c-20.7,2.2-41.5,2.2-61.5,2.1c-22.7,0-46.2,0-69.6,3.1c-20.9,2.8-29.6,2.1-42.7,1.1c-6.6-0.5-14-1.1-24.6-1.3
			c-12.6-0.3-21.4,0.7-30.8,1.7c-10.2,1.1-21.8,2.4-40.3,2.2c-5.8-0.1-11.7,0.5-17.4,1c-7.6,0.7-15.4,1.4-23.1,0.7
			c-5.2-0.5-10.4-1.5-15.4-2.5c-5.3-1-10.7-2.1-16.1-2.6c-7.4-0.6-14.9-0.2-22.1,0.3l-2.7,0.2c-35.7,2.1-61.8,3.1-98.9-1.3l-0.7-0.1
			c-7.3-0.9-19.4-2.3-26.1-1.3c-2.4,0.4-5.7,0.7-9.1,1.1c-4.4,0.5-9,1-12.2,1.5c-12.9,2.3-26,1.7-38.7,1.2
			c-6.7-0.3-13.6-0.6-20.5-0.5c-2.3,0-4.5,0.1-6.8,0.1c-13.8,0.2-26.7,0.4-40.4,2c-6.9,0.8-15.8,0.6-25.3,0.4
			c-10.7-0.2-21.7-0.5-29.7,0.8c-10.9,1.8-19,0.5-26.9-0.8c-8.1-1.4-15.7-2.6-25.8-0.5l-0.1-0.6c10.3-2.2,18-0.9,26.1,0.5
			c7.8,1.3,15.8,2.7,26.7,0.8c8-1.4,19.1-1.1,29.8-0.9c9.4,0.2,18.3,0.4,25.2-0.4c13.7-1.6,26.7-1.8,40.5-2c2.3,0,4.5-0.1,6.8-0.1
			c6.9-0.1,13.8,0.2,20.5,0.5c12.6,0.5,25.7,1.1,38.6-1.2c3.2-0.6,7.8-1.1,12.3-1.5c3.4-0.4,6.6-0.7,9-1.1c6.8-1,19,0.5,26.3,1.3
			l0.7,0.1c37,4.4,63.2,3.3,98.8,1.2l2.7-0.2c7.3-0.4,14.8-0.9,22.2-0.3c5.5,0.5,10.9,1.6,16.2,2.6c5,1,10.2,2,15.4,2.5
			c7.7,0.7,15.5,0,23-0.7c5.7-0.5,11.6-1.1,17.4-1c18.4,0.3,30-1,40.2-2.2c9.4-1,18.2-2,30.9-1.7c10.6,0.3,18.1,0.8,24.7,1.3
			c13.1,1,21.7,1.7,42.6-1.1c23.5-3.2,47-3.1,69.7-3.1c20,0,40.8,0,61.5-2.1c18.1-1.9,66.5-1.1,82.8-0.5c14.3,0.6,25.9,1.2,36.4,2
			c1.3,0.1,2.5,0.2,3.8,0.3c8.5,0.7,17.3,1.4,25.9,0.9c3.9-0.2,7.8-0.7,11.5-1.2c3.8-0.5,7.8-1,11.7-1.2c10.2-0.6,34.3,2,43.5,3.6
			c18.3,3.1,35.9,2.1,54.4,1c20.2-1.1,41-2.3,62.9,2.3c6.4,1.4,11.8,2.7,16.5,4c13.3,3.5,22.2,5.7,38.3,3c8-1.4,19.1-1.1,29.8-0.9
			c9.4,0.2,18.3,0.4,25.2-0.4c13.7-1.6,26.7-1.8,40.5-2c2.3,0,4.5-0.1,6.8-0.1c6.9-0.1,13.8,0.2,20.5,0.5
			c12.6,0.5,25.7,1.1,38.6-1.2c3.2-0.6,7.8-1.1,12.3-1.5c3.4-0.4,6.6-0.7,9-1.1c6.8-1,19,0.5,26.3,1.3l0.7,0.1
			c37,4.4,63.2,3.3,98.8,1.2l2.7-0.2c7.3-0.4,14.8-0.9,22.2-0.3c5.5,0.5,10.9,1.6,16.2,2.6c5,1,10.2,2,15.4,2.5
			c9.7,0.9,19.7,0.1,29.3-0.8c3.7-0.3,7.4-0.7,11.2-0.9c22.2-1.4,46,0.8,70.5,3.3L1098.7,859.7z"/>
	</g>
	<g>
		<path class="st1" d="M1098.7,846.4c-5.6-0.5-11.3-1.1-16.7-1.6c-14.5-1.5-29.5-3.1-44.5-2.5c-4.7,0.2-9.5,0.6-14.1,1.1
			c-8.9,0.9-18,1.8-27,0.7c-4.2-0.5-8.4-1.3-12.5-2.1c-3.8-0.7-7.8-1.5-11.8-2c-13.5-1.7-27.3-0.1-40.7,1.5
			c-14.5,1.7-29.6,3.5-44.1,1c-3-0.5-5.9-1.2-8.8-1.8c-4.3-1-8.7-2-13.2-2.5c-8.9-0.9-18.1-0.2-26.9,0.6c-5.5,0.5-11.1,0.9-16.7,1
			c-6.9,0.1-13.9-0.4-20.7-1c-7.5-0.6-15.3-1.2-23-0.9c-6.5,0.2-13,1.2-19.4,2.1c-9.1,1.3-18.5,2.6-27.8,1.9
			c-24.2-2-51.6-3.4-62.4-3.3c-4.8,0-10.7,0.3-17.1,0.6c-8.6,0.4-18.3,0.8-27.7,0.8c-15.9,0-37.5-2.4-56.4-6.2
			c-17.8-3.6-36.6-2.4-54.7-1.2c-12.4,0.8-25.3,1.6-37.8,0.9c-8.3-0.5-16.7-1.7-24.9-2.9c-9.2-1.4-18.8-2.8-28.2-3.1
			c-9.4-0.3-18.9,0.5-28.1,1.2c-6.6,0.5-13.5,1.1-20.3,1.3c-14.1,0.3-28.3-1.1-42.1-2.4c-9.3-0.9-18.9-1.9-28.3-2.3
			c-21-0.9-42.3,0.8-62.9,2.4c-22.3,1.8-45.4,3.6-68.1,2.2c-5.1-0.3-10.3-0.8-15.4-1.3c-9-0.9-18.3-1.8-27.5-1.7
			c-12,0.1-25.1,2.1-37.8,4.1c-19.1,3-38.9,6.1-56.6,2.9c-12.6-2.2-24.4-0.3-36.9,1.7c-7.4,1.2-15,2.4-22.7,2.7
			c-4.7,0.2-9.5,0.6-14.1,1.1c-8.9,0.9-18,1.8-27,0.7c-4.2-0.5-8.4-1.3-12.5-2.1c-3.8-0.7-7.8-1.5-11.8-2
			c-13.5-1.7-27.3-0.1-40.7,1.5c-14.5,1.7-29.5,3.5-44.1,1c-3-0.5-5.9-1.2-8.8-1.8c-4.3-1-8.7-2-13.2-2.5
			c-8.9-0.9-18.1-0.2-26.9,0.6c-5.5,0.5-11.1,0.9-16.7,1c-6.9,0.1-13.9-0.4-20.7-1c-7.5-0.6-15.3-1.2-23-0.9
			c-6.5,0.2-13,1.2-19.4,2.1c-9.1,1.3-18.5,2.6-27.8,1.9c-24.2-2-51.6-3.4-62.4-3.3c-4.8,0-10.7,0.3-17.1,0.6
			c-8.6,0.4-18.3,0.8-27.7,0.8c-18.8,0-38-1.9-54.1-5.3l0.1-0.6c16,3.4,35.2,5.3,54,5.3c9.4,0,19.1-0.4,27.7-0.8
			c6.3-0.3,12.3-0.5,17.1-0.6c10.8-0.1,38.2,1.4,62.4,3.3c9.2,0.7,18.6-0.6,27.6-1.9c6.4-0.9,12.9-1.8,19.4-2.1
			c7.7-0.3,15.6,0.3,23.1,0.9c6.8,0.5,13.8,1,20.7,1c5.5-0.1,11.2-0.5,16.6-1c8.8-0.7,18-1.5,27-0.6c4.5,0.5,8.9,1.5,13.2,2.5
			c2.9,0.7,5.8,1.3,8.8,1.8c14.5,2.5,29.4,0.7,43.9-1c13.4-1.6,27.3-3.2,40.8-1.5c4,0.5,7.9,1.3,11.8,2c4.1,0.8,8.3,1.6,12.5,2.1
			c8.9,1.1,18.1,0.2,26.9-0.7c4.6-0.5,9.4-0.9,14.1-1.1c7.7-0.3,15.3-1.5,22.7-2.7c12.5-2,24.4-3.9,37.1-1.7
			c17.6,3.1,37.3,0,56.4-2.9c12.7-2,25.9-4,37.9-4.1c9.2-0.1,18.5,0.8,27.5,1.7c5,0.5,10.2,1,15.4,1.3c22.6,1.5,45.7-0.4,68-2.2
			c20.6-1.6,42-3.4,63-2.4c9.5,0.4,19.1,1.4,28.4,2.3c13.7,1.4,28,2.8,42,2.4c6.7-0.2,13.6-0.7,20.2-1.3c9.2-0.8,18.8-1.5,28.2-1.2
			c9.5,0.3,19,1.7,28.3,3.1c8.1,1.2,16.5,2.4,24.8,2.9c12.4,0.7,25.3-0.1,37.7-0.9c18.2-1.2,37-2.4,54.9,1.2
			c18.9,3.8,40.5,6.2,56.3,6.2c9.4,0,19.1-0.4,27.7-0.8c6.3-0.3,12.3-0.5,17.1-0.6c10.8-0.1,38.2,1.4,62.4,3.3
			c9.2,0.7,18.6-0.6,27.6-1.9c6.4-0.9,12.9-1.8,19.4-2.1c7.7-0.3,15.6,0.3,23.1,0.9c6.8,0.5,13.8,1,20.7,1c5.5-0.1,11.2-0.5,16.6-1
			c8.8-0.7,18-1.5,27-0.6c4.5,0.5,8.9,1.5,13.2,2.5c2.9,0.7,5.8,1.3,8.8,1.8c14.5,2.5,29.4,0.7,43.9-1c13.4-1.6,27.3-3.2,40.8-1.5
			c4,0.5,7.9,1.3,11.8,2c4.1,0.8,8.3,1.6,12.5,2.1c8.9,1.1,18.1,0.2,26.9-0.7c4.6-0.5,9.4-0.9,14.1-1.1c15-0.6,30.1,1,44.6,2.5
			c5.5,0.6,11.1,1.2,16.7,1.6L1098.7,846.4z"/>
	</g>
	<g>
		<path class="st1" d="M1098.7,839.9c-18.4-3.6-38.1-2.9-57.1-2.4c-12.1,0.4-24.5,0.8-36.4,0.1c-5.3-0.3-10.5-0.6-15.6-1
			c-12.4-0.8-24-1.5-36.6-1.9c-9.4-0.3-18.9,0.5-28.1,1.2c-6.6,0.5-13.5,1.1-20.3,1.3c-14.1,0.3-28.3-1.1-42-2.4
			c-9.3-0.9-18.9-1.9-28.3-2.3c-21-0.9-42.3,0.8-62.9,2.4c-22.3,1.8-45.4,3.6-68.1,2.2c-5.1-0.3-10.3-0.8-15.4-1.3
			c-9-0.9-18.3-1.8-27.5-1.7c-32.5,0.2-63.9-0.1-92-6.7c-15.6-3.7-31.3-2.2-46.5-0.7c-3.8,0.4-7.7,0.7-11.6,1
			c-10.1,0.8-20.3-0.4-30.2-1.4c-1.6-0.2-3.3-0.4-4.9-0.5c-28.1-2.9-56.8-3.5-84.5-4c-7.1-0.1-14.5,0.3-21.7,0.8s-14.6,0.9-21.7,0.8
			c-12.7-0.2-24.9-1-36.7-1.7c-25.6-1.6-52.1-3.2-83.6,0.5c-22.3,2.6-48.8,4.8-75.3,1.4c-3.3-0.4-6.6-1-9.8-1.5
			c-6.2-1-12.5-2-18.9-2.3c-10.2-0.4-20.4,2.1-31.2,4.7c-15.7,3.9-33.5,8.3-57.1,5.4c-16.4-2-33.3-0.3-49.6,1.4
			c-13.9,1.4-28.3,2.8-42.3,2c-5.3-0.3-10.5-0.6-15.6-1c-12.4-0.8-24-1.5-36.6-1.9c-9.4-0.3-18.9,0.5-28.1,1.2
			c-6.6,0.5-13.5,1.1-20.3,1.3c-14.1,0.3-28.3-1.1-42-2.4c-9.3-0.9-18.9-1.9-28.3-2.3c-21-0.9-42.3,0.8-62.9,2.4
			c-22.3,1.8-45.4,3.6-68.1,2.2c-5.1-0.3-10.3-0.8-15.4-1.3c-9-0.9-18.3-1.8-27.5-1.7c-5.5,0-11.2,0.2-16.7,0.3
			c-24.9,0.5-50.6,1.1-74.2-5.3l0.2-0.6c23.5,6.4,49.2,5.9,74,5.3c5.5-0.1,11.2-0.2,16.7-0.3c9.2-0.1,18.5,0.8,27.5,1.7
			c5,0.5,10.2,1,15.4,1.3c22.6,1.5,45.7-0.4,68-2.2c20.6-1.6,42-3.4,63-2.4c9.5,0.4,19.1,1.4,28.4,2.3c13.7,1.4,28,2.8,42,2.4
			c6.7-0.2,13.6-0.7,20.2-1.3c9.2-0.8,18.8-1.5,28.2-1.2c12.5,0.4,24.2,1.1,36.6,1.9c5.1,0.3,10.3,0.7,15.6,1
			c14,0.8,28.4-0.6,42.2-2c16.4-1.6,33.3-3.3,49.8-1.3c23.4,2.8,41.2-1.5,56.8-5.4c10.8-2.7,21-5.2,31.4-4.8
			c6.4,0.3,12.8,1.3,19,2.3c3.2,0.5,6.5,1.1,9.8,1.5c26.5,3.4,52.9,1.2,75.2-1.4c31.5-3.7,58.1-2.1,83.7-0.5
			c11.8,0.7,24.1,1.5,36.7,1.7c7.1,0.1,14.5-0.3,21.7-0.8s14.6-0.9,21.7-0.8c27.8,0.5,56.5,1,84.6,4c1.6,0.2,3.3,0.3,4.9,0.5
			c9.9,1.1,20.1,2.2,30.1,1.4c3.8-0.3,7.8-0.7,11.5-1c15.2-1.5,31-3,46.7,0.7c28,6.6,59.5,7,91.9,6.7c9.2-0.1,18.5,0.8,27.5,1.7
			c5,0.5,10.2,1,15.4,1.3c22.6,1.5,45.7-0.4,68-2.2c20.6-1.6,42-3.4,63-2.4c9.5,0.4,19.1,1.4,28.4,2.3c13.7,1.4,28,2.8,42,2.4
			c6.7-0.2,13.6-0.7,20.2-1.3c9.2-0.8,18.8-1.5,28.2-1.2c12.5,0.4,24.2,1.1,36.6,1.9c5.1,0.3,10.3,0.7,15.6,1
			c11.9,0.7,24.3,0.3,36.3-0.1c19.1-0.6,38.8-1.2,57.3,2.4L1098.7,839.9z"/>
	</g>
	<g>
		<path class="st1" d="M711.9,833c-9.5,0-19.2-0.5-28.9-1.8c-3.3-0.4-6.6-1-9.8-1.6c-6.2-1.1-12.6-2.3-19-2.2
			c-21.2,0.2-42.9-1.8-60.3-3.4c-11.5-1.1-20.5-1.9-26.1-1.8c-10.7,0.2-21.9-1.1-32.7-2.3c-12.4-1.4-25.3-2.9-37.5-2.1
			c-3.7,0.2-7.5,0.6-11.2,0.9c-9.6,0.9-19.6,1.7-29.4,0.8c-4.2-0.4-8.3-0.8-12.4-1.3c-6.3-0.7-12.7-1.3-19.2-1.9
			c-7.4-0.6-14.9-0.2-22.1,0.3l-2.7,0.2c-35.7,2.1-61.8,3.1-98.9-1.3c-6.9-0.8-19.9-1.4-26.9-1.4c-17.9,0-35.1,1.7-50.2,3.2
			c-11.3,1.1-21.2,2-29.6,2.2c-2.4,0-4.8,0.1-7.3,0.2c-13.4,0.3-27.2,0.7-40.7-2.1c-15.6-3.1-40.8-4.5-56.1-1.4
			c-23.8,4.8-31.7,4.4-40.2,4c-4.9-0.2-9.9-0.5-18.3,0.3c-5,0.5-9.9,1.6-15.6,2.9c-9.9,2.2-21,4.8-37.1,5c-10,0.2-20.3-1-30.4-2
			c-1.8-0.2-3.6-0.4-5.4-0.6c-25.3-2.6-53-4.5-84.5-0.7c-14.8,1.8-30.3,1.8-43.4,1.6c-12.7-0.2-24.9-1-36.7-1.7
			c-25.6-1.6-52.1-3.2-83.6,0.5c-22.3,2.6-48.8,4.8-75.3,1.4c-3.3-0.4-6.6-1-9.8-1.6c-6.2-1.1-12.6-2.3-19-2.2
			c-18,0.2-36.3-1.5-51-2.9c-14.6-1.3-26.2-2.4-32.9-1.4l-0.1-0.7c6.8-1,18.4,0.1,33,1.4c14.7,1.3,33,3,51,2.8
			c6.4,0,12.9,1.1,19.1,2.2c3.2,0.6,6.5,1.2,9.7,1.6c26.5,3.4,52.9,1.2,75.2-1.4c31.5-3.7,58.1-2.1,83.7-0.5
			c11.8,0.7,24.1,1.5,36.7,1.7c13.1,0.2,28.5,0.2,43.3-1.6c31.5-3.9,59.3-2,84.6,0.7c1.8,0.2,3.6,0.4,5.4,0.6
			c10,1.1,20.4,2.2,30.3,2c16-0.3,27.1-2.8,36.9-5c5.5-1.2,10.6-2.4,15.7-2.9c8.5-0.8,13.5-0.6,18.4-0.3c8.4,0.4,16.3,0.8,40-4
			c15.4-3.1,40.8-1.8,56.4,1.4c13.4,2.7,27.2,2.4,40.5,2c2.4-0.1,4.8-0.1,7.3-0.2c8.4-0.1,18.2-1.1,29.5-2.2
			c15.2-1.5,32.4-3.1,50.3-3.2c7,0,20,0.6,27,1.4c37,4.4,63.2,3.3,98.8,1.2l2.7-0.2c7.3-0.4,14.8-0.9,22.2-0.3
			c6.5,0.6,13,1.2,19.2,1.9c4.1,0.4,8.2,0.9,12.4,1.3c9.7,0.9,19.7,0.1,29.3-0.8c3.7-0.3,7.4-0.7,11.2-0.9
			c12.3-0.8,25.2,0.7,37.6,2.2c10.8,1.2,22,2.5,32.6,2.3c5.6-0.1,14.7,0.7,26.2,1.8c17.4,1.6,39.1,3.6,60.3,3.4
			c6.4-0.1,12.9,1.1,19.1,2.2c3.2,0.6,6.5,1.2,9.7,1.6c26.5,3.4,52.9,1.2,75.2-1.4c31.5-3.7,58.1-2.1,83.7-0.5
			c11.8,0.7,24.1,1.5,36.7,1.7c13.1,0.2,28.5,0.2,43.3-1.6c31.6-3.9,59.3-2,84.6,0.7c2.8,0.3,5.7,0.7,8.6,1c9,1.1,18.3,2.3,27.1,1.6
			c3.9-0.3,7.7-0.7,11.5-1c15-1.4,29.2-2.8,45.1,0.4l-0.1,0.6c-15.7-3.1-29.9-1.8-44.9-0.4c-3.7,0.4-7.6,0.7-11.5,1
			c-8.9,0.7-18.2-0.5-27.2-1.6c-2.8-0.4-5.7-0.7-8.6-1c-25.3-2.6-53-4.5-84.5-0.7c-14.8,1.8-30.3,1.8-43.4,1.6
			c-12.7-0.2-24.9-1-36.7-1.7c-25.6-1.6-52.1-3.2-83.6,0.5C744.1,831.5,728.3,833,711.9,833z"/>
	</g>
	<g>
		<path class="st1" d="M1091.1,854.8c-5.2,0-10.7-1-16-2c-3.9-0.7-7.5-1.4-11.1-1.7c-6.4-0.6-12.9,0-19.2,0.6
			c-2.8,0.3-5.7,0.5-8.6,0.7c-1.3,0.1-2.6,0.1-3.8,0.2c-12.4,0.7-25.1,1.4-37.5-0.4c-31.6-4.7-58.1-3.9-86.2-3.1
			c-26.5,0.8-53.9,1.6-87.3-2.2c-13.2-1.5-29.1,0.8-41.4,3c-9.3,1.6-22.2,0.8-32.6,0.1c-2-0.1-3.9-0.3-5.7-0.4
			c-48-2.7-77-2.1-119.4,2.7c-11.5,1.3-25-1.5-38.1-4.1c-6.5-1.3-12.6-2.6-18.4-3.3c-26.8-3.5-48.7-4.6-68.7-3.3
			c-3.7,0.2-7.5,0.6-11.2,0.9c-9.6,0.9-19.6,1.7-29.4,0.8c-5.2-0.5-10.4-1.5-15.4-2.5c-5.3-1-10.7-2.1-16.1-2.6
			c-7.4-0.6-14.9-0.2-22.1,0.3l-2.7,0.2c-35.7,2.1-61.8,3.1-98.9-1.3l-0.7-0.1c-7.3-0.9-19.4-2.3-26.1-1.3c-2.4,0.4-5.7,0.7-9.1,1.1
			c-4.4,0.5-9,1-12.2,1.5c-12.9,2.3-26,1.7-38.7,1.2c-6.7-0.3-13.6-0.6-20.5-0.5c-2.3,0-4.6,0.1-6.8,0.1c-13.7,0.2-26.7,0.4-40.4,2
			c-6.9,0.8-15.8,0.6-25.3,0.4c-10.7-0.2-21.7-0.5-29.7,0.8c-10.7,1.8-19.3,0.8-27.6-0.1c-8.9-1-17.4-2-27.8,0.5
			c-13.9,3.3-25.6,4.6-34.8,3.8c-6.4-0.6-12.9,0-19.2,0.6c-2.8,0.3-5.7,0.5-8.6,0.7c-1.3,0.1-2.6,0.1-3.8,0.2
			c-12.4,0.7-25.1,1.4-37.5-0.4c-31.6-4.7-58.1-3.9-86.2-3.1c-26.5,0.8-53.9,1.6-87.3-2.2c-13.3-1.5-30,1-41.4,3
			c-9.3,1.6-22.2,0.8-32.6,0.1c-2-0.1-3.9-0.3-5.7-0.4c-48-2.7-77-2.1-119.4,2.7c-15.1,1.7-31.1,1-51.7-2.3l0.1-0.7
			c20.6,3.2,36.5,3.9,51.6,2.3c42.4-4.8,71.5-5.4,119.5-2.7c1.8,0.1,3.7,0.2,5.7,0.4c10.3,0.7,23.2,1.5,32.4-0.1
			c12.4-2.2,28.4-4.5,41.6-3c33.4,3.8,60.7,3,87.2,2.2c28.2-0.9,54.7-1.7,86.4,3.1c12.3,1.8,25.1,1.1,37.4,0.4
			c1.3-0.1,2.6-0.1,3.8-0.2c2.9-0.2,5.8-0.4,8.6-0.7c6.3-0.6,12.9-1.2,19.3-0.6c9.1,0.8,20.8-0.5,34.6-3.8c10.5-2.5,19-1.6,28-0.5
			c8.3,0.9,16.8,1.9,27.4,0.1c8-1.4,19.1-1.1,29.8-0.9c9.4,0.2,18.3,0.4,25.2-0.4c13.7-1.6,26.7-1.8,40.5-2c2.3,0,4.5-0.1,6.8-0.1
			c6.9-0.1,13.8,0.2,20.5,0.5c12.6,0.5,25.7,1.1,38.6-1.2c3.2-0.6,7.8-1.1,12.3-1.5c3.4-0.4,6.6-0.7,9-1.1c6.8-1,19,0.5,26.3,1.3
			l0.7,0.1c37,4.4,63.2,3.3,98.8,1.2l2.7-0.2c7.3-0.4,14.8-0.9,22.2-0.3c5.5,0.5,10.9,1.6,16.2,2.6c5,1,10.2,2,15.4,2.5
			c9.7,0.9,19.7,0.1,29.3-0.8c3.7-0.3,7.4-0.7,11.2-0.9c20.1-1.3,42-0.2,68.9,3.3c5.8,0.8,12,2,18.5,3.3c13,2.7,26.5,5.4,37.9,4.1
			c42.4-4.8,71.5-5.4,119.5-2.7c1.8,0.1,3.7,0.2,5.7,0.4c10.3,0.7,23.2,1.5,32.4-0.1c12.4-2.2,28.4-4.5,41.6-3
			c33.4,3.8,60.7,3,87.2,2.2c28.2-0.9,54.7-1.7,86.4,3.1c12.3,1.8,25.1,1.1,37.4,0.4c1.3-0.1,2.6-0.1,3.8-0.2
			c2.9-0.2,5.8-0.4,8.6-0.7c6.3-0.6,12.9-1.2,19.3-0.6c3.6,0.3,7.2,1,11.1,1.7c8,1.5,16.2,3,23.4,1.1l0.2,0.6
			C1096.3,854.5,1093.8,854.8,1091.1,854.8z"/>
	</g>
	<g>
		<path class="st1" d="M1098.7,850.6c-16.2-3.5-34.3-4.9-54-4.4c-7.3,0.2-13.4,1-19.3,1.8c-12.1,1.6-23.6,3-42.1-1.1
			c-20.4-4.6-42.8-2.9-64.5-1.2c-6.2,0.5-12.1,0.9-17.8,1.2c-19.7,1-39.9-1-57.8-2.9c-15.8-1.6-29.4-3-38.4-1.8
			c-26.4,3.6-51.8,2.8-76.4,2c-9.6-0.3-19.5-0.6-29.1-0.7h-6.9c-25.1-0.1-45-0.2-70.6,2l-1.4,0.1c-6.7,0.6-13.7,1.2-20.4-0.2
			c-2.7-0.6-5.4-1.2-8.3-2c-7.4-1.9-15-3.8-24-3.6c-10,0.2-20-0.6-29.8-1.4c-10.4-0.9-21.2-1.8-31.8-1.4c-3.5,0.1-7.1,0.3-10.5,0.6
			c-10.1,0.6-20.6,1.2-30.8,0c-4.2-0.5-8.4-1.3-12.5-2.1c-3.8-0.7-7.8-1.5-11.8-2c-13.4-1.7-27.2-0.4-40.5,0.8
			c-14.6,1.4-29.7,2.8-44.3,0.3c-3-0.5-5.9-1.2-8.8-1.8c-4.3-1-8.7-2-13.2-2.5c-8.9-0.9-18.1-0.2-26.9,0.6c-5.5,0.5-11.1,0.9-16.7,1
			c-6.9,0.1-13.9-0.4-20.7-1c-7.5-0.6-15.3-1.2-23-0.9c-6.5,0.2-13,1.2-19.4,2.1c-9.1,1.3-18.5,2.6-27.8,1.9
			c-17.9-1.4-35.5-0.1-48.3,0.9c-5.4,0.4-9.7,0.7-12.7,0.8c-3.5,0-7.7-0.3-12.1-0.6c-10.3-0.7-22-1.5-32,0.8
			c-17.4,3.9-40.4,4.2-57.3,0.6c-11.4-2.4-23.2,0-34.6,2.3c-7.1,1.5-13.8,2.8-20.2,3c-7.3,0.2-13.4,1-19.3,1.8
			c-12.1,1.6-23.6,3-42.1-1.1c-20.4-4.6-42.8-2.9-64.5-1.2c-6.2,0.5-12.1,0.9-17.8,1.2c-19.7,1-39.9-1-57.8-2.9
			c-15.8-1.6-29.4-3-38.4-1.8c-26.4,3.6-51.8,2.8-76.4,2c-9.6-0.3-19.5-0.6-29.1-0.7h-6.9c-25.1-0.1-45-0.2-70.6,2l-1.4,0.1
			c-6.7,0.6-13.7,1.2-20.4-0.2c-2.7-0.6-5.3-1.3-7.7-1.9c-6.4-1.8-12.4-3.5-21.3-2.3l-0.1-0.7c9-1.2,15.1,0.5,21.6,2.3
			c2.4,0.7,5,1.4,7.7,1.9c6.6,1.3,13.5,0.7,20.2,0.2l1.4-0.1c25.7-2.2,45.5-2.1,70.6-2h6.9c9.6,0,19.6,0.4,29.1,0.7
			c24.6,0.8,50,1.6,76.3-2c9.1-1.3,22.7,0.1,38.5,1.8c17.8,1.8,38,3.9,57.7,2.9c5.7-0.3,11.6-0.7,17.8-1.2
			c21.7-1.7,44.1-3.4,64.7,1.2c18.4,4.1,29.8,2.7,41.9,1.1c5.9-0.8,12-1.6,19.3-1.8c6.3-0.2,13-1.6,20.1-3
			c11.5-2.4,23.4-4.8,34.9-2.3c16.8,3.6,39.7,3.3,57-0.6c10.1-2.3,21.8-1.5,32.2-0.8c4.4,0.3,8.6,0.6,12,0.6c3,0,7.3-0.4,12.7-0.8
			c12.9-1,30.5-2.4,48.5-0.9c9.2,0.7,18.6-0.6,27.6-1.9c6.4-0.9,12.9-1.8,19.4-2.1c7.7-0.3,15.6,0.3,23.1,0.9c6.8,0.5,13.8,1,20.7,1
			c5.5-0.1,11.2-0.5,16.6-1c8.8-0.7,18-1.5,27-0.6c4.5,0.5,8.9,1.5,13.2,2.5c2.9,0.7,5.8,1.3,8.8,1.8c14.5,2.5,29.6,1.1,44.1-0.3
			c13.4-1.3,27.2-2.6,40.7-0.8c4,0.5,7.9,1.3,11.8,2c4.1,0.8,8.3,1.6,12.5,2.1c10.2,1.2,20.6,0.6,30.7,0c3.4-0.2,7-0.4,10.5-0.6
			c10.7-0.4,21.5,0.5,31.9,1.4c9.7,0.8,19.8,1.7,29.7,1.4c9.1-0.2,16.8,1.7,24.2,3.6c2.8,0.7,5.5,1.4,8.2,1.9
			c6.6,1.3,13.5,0.7,20.2,0.2l1.4-0.1c25.7-2.2,45.5-2.1,70.7-2h6.9c9.6,0,19.6,0.4,29.1,0.7c24.6,0.8,50,1.6,76.3-2
			c9.1-1.2,22.7,0.1,38.5,1.8c17.8,1.8,38,3.9,57.7,2.9c5.7-0.3,11.6-0.7,17.8-1.2c21.7-1.7,44.1-3.4,64.7,1.2
			c18.4,4.1,29.8,2.7,41.9,1.1c5.9-0.8,12-1.6,19.3-1.8c19.7-0.6,37.9,0.9,54.1,4.4L1098.7,850.6z"/>
	</g>
</g>
<path class="st1" d="M336.6,791.9c-11.3-11.8-12.1-37.7,3.7-49.2c15.9-11.5,34.9-11.2,48.6,3.5c11.7,12.6,13.2,32,0.1,46.8
	c-5.7,6.5-14.7,12.1-23.6,12.1C359.8,805,346.1,801.7,336.6,791.9z"/>
</svg>
