<?xml version="1.0" encoding="utf-8"?>
<!-- Generator: Adobe Illustrator 23.0.2, SVG Export Plug-In . SVG Version: 6.00 Build 0)  -->
<svg version="1.1" id="Capa_1" xmlns="http://www.w3.org/2000/svg" xmlns:xlink="http://www.w3.org/1999/xlink" x="0px" y="0px"
	 viewBox="0 0 1920 1080" style="enable-background:new 0 0 1920 1080;" xml:space="preserve">
<style type="text/css">
	.st0{fill:#33CCCC;}
</style>
<g>
	<g>
		<path class="st0" d="M1935.4,751.1c-15.1,0-29-2-42.6-3.9c-21.7-3.1-44-6.3-71.7-1.8c-13.9,2.2-32.8,0.6-49.4-0.9
			c-7.2-0.6-14-1.2-20-1.5c-27.6-1.2-54.9,0.4-86,4.8c-24.3,3.5-42.1,2.1-51.7,1.3c-1.8-0.1-3.4-0.3-4.7-0.3
			c-45.3-2.2-91.1-2.4-136.4-0.6c-2.7,0.1-5.4,0.2-8.2,0.3c-23.1,1-47,2-70.1-1.5c-4.6-0.7-9.2-1.6-13.6-2.4
			c-11.2-2.1-22.7-4.3-34.2-3.7c-9,0.5-18.4,2-27.5,3.5c-12.1,2-23.5,3.9-33.9,3.3c-12.6-0.7-26.6-2.2-41.3-3.8c-22.6-2.4-46-5-69-5
			c-13.3,0-27,0.9-40.3,1.9c-12.7,0.9-24.7,1.7-34.1,1.5c-8-0.2-16.1-0.7-23.8-1.1c-20.6-1.1-40-2.2-60.4,0.2
			c-5.2,0.6-10.4,1.6-15.5,2.5c-5.5,1-11.1,2.1-16.8,2.7c-16,1.7-32.4-0.2-48.1-2c-10.4-1.2-21.2-2.4-31.8-2.6
			c-11.3-0.2-22.7,0.7-33.8,1.7c-5.4,0.4-10.9,0.9-16.4,1.2c-29.2,1.7-59-0.3-87.8-2.3c-35.6-2.4-72.4-5-108.2-0.3
			c-3.3,0.4-6.8,1-10.2,1.5c-9.8,1.5-19.9,3.1-29.6,2.6c-16.2-0.7-30.7-2.7-44.8-4.7c-26.8-3.7-52.1-7.2-85.3-1.8
			c-13.9,2.2-32.8,0.6-49.4-0.9c-7.2-0.6-14-1.2-20-1.5c-27.6-1.2-54.9,0.4-86,4.8c-24.3,3.5-42.1,2.1-51.7,1.3
			c-1.8-0.1-3.4-0.3-4.7-0.3c-45.3-2.2-91.1-2.4-136.4-0.6c-2.7,0.1-5.4,0.2-8.2,0.3c-23.1,1-47,2-70.1-1.5
			c-4.6-0.7-9.2-1.6-13.6-2.4c-11.2-2.1-22.7-4.3-34.2-3.7c-8.5,0.4-17.3,2.1-25.9,3.7c-12.7,2.4-24.8,4.6-35.6,3.2l0.1-0.8
			c10.7,1.5,22.6-0.8,35.3-3.1c8.6-1.6,17.5-3.3,26-3.7c11.6-0.6,23.2,1.6,34.4,3.7c4.5,0.8,9.1,1.7,13.6,2.4
			c23.1,3.5,46.9,2.5,70,1.5c2.7-0.1,5.4-0.2,8.2-0.3c45.3-1.8,91.2-1.6,136.5,0.6c1.3,0.1,2.9,0.2,4.7,0.3
			c9.5,0.8,27.3,2.2,51.5-1.3c31.2-4.5,58.5-6,86.2-4.8c6,0.3,12.8,0.8,20,1.5c16.6,1.4,35.5,3.1,49.2,0.9
			c33.4-5.4,58.8-1.9,85.6,1.8c14.1,1.9,28.6,4,44.7,4.7c9.6,0.4,19.7-1.1,29.5-2.6c3.4-0.5,6.9-1.1,10.2-1.5
			c35.9-4.6,72.8-2.1,108.4,0.3c28.8,2,58.5,4,87.6,2.3c5.5-0.3,11-0.8,16.4-1.2c11.1-0.9,22.6-1.9,33.9-1.7
			c10.6,0.2,21.4,1.4,31.8,2.7c15.7,1.8,32,3.7,48,2c5.6-0.6,11.2-1.6,16.7-2.7c5.1-0.9,10.3-1.9,15.6-2.5
			c20.5-2.4,39.9-1.3,60.5-0.2c7.8,0.4,15.8,0.9,23.8,1.1c9.3,0.3,21.3-0.6,34-1.5c13.3-0.9,27-1.9,40.4-1.9c23,0.1,46.4,2.6,69.1,5
			c14.7,1.6,28.7,3.1,41.3,3.7c10.3,0.5,21.7-1.3,33.7-3.3c9.1-1.5,18.5-3.1,27.6-3.5c11.6-0.6,23.2,1.6,34.4,3.7
			c4.5,0.8,9.1,1.7,13.6,2.4c23.1,3.5,46.9,2.5,70,1.5c2.7-0.1,5.4-0.2,8.2-0.3c45.3-1.8,91.2-1.6,136.5,0.6
			c1.3,0.1,2.9,0.2,4.7,0.3c9.5,0.8,27.3,2.2,51.5-1.3c31.2-4.5,58.5-6,86.2-4.8c6,0.3,12.8,0.8,20,1.5c16.6,1.4,35.5,3.1,49.2,0.9
			c27.7-4.5,50.2-1.3,71.9,1.8c18.9,2.7,36.8,5.2,57.9,3.2l0.1,0.8C1945.6,750.8,1940.4,751.1,1935.4,751.1z"/>
	</g>
	<g>
		<path class="st0" d="M1637.5,758.6c-11.7,0-23.4-1.3-34.8-2.7c-10.4-1.2-21.2-2.4-31.8-2.6c-11.3-0.2-22.7,0.7-33.8,1.7
			c-5.4,0.4-10.9,0.9-16.4,1.2c-29.2,1.7-59-0.3-87.7-2.3c-35.6-2.4-72.4-5-108.2-0.3c-6.9,0.9-13.6,0.4-20.1,0
			c-5.8-0.4-11.8-0.8-17.9-0.2c-10,0.9-23.6-1.6-35.5-3.8c-6.1-1.1-11.8-2.2-16.8-2.8c-17.8-2.1-37.7-0.9-57,0.2
			c-9.2,0.5-17.9,1-26.3,1.2c-21,0.4-39.7-0.6-57.9-1.7c-18.1-1-36.9-2.1-57.8-1.7c-7.5,0.2-16.3,2.1-24.7,3.9
			c-6,1.3-11.6,2.5-16.8,3.2c-2.7,0.3-5.5,0.7-8.1,1.1c-6.8,1-13.8,2-20.8,2c-0.1,0-0.1,0-0.2,0c-7.9,0-15.8-1.3-23.4-2.5
			c-3.4-0.5-6.8-1.1-10.2-1.5c-17.6-2.3-35.6-1.7-53-1.2l-90.4,2.7c-11.8,0.4-24.1,0.7-36-1.4c-3.7-0.6-7.3-1.5-10.9-2.4
			c-4.3-1-8.8-2.1-13.2-2.7c-21.1-3-45.7-0.3-67.5,2.1c-15.6,1.7-30.3,3.3-41.7,2.7c-9.1-0.5-18.9-1.2-29.2-2
			c-25.1-1.8-53.4-3.9-80.5-3.9c-13.3,0-27,0.9-40.3,1.9c-12.7,0.9-24.7,1.7-34.1,1.5c-8-0.2-16.1-0.7-23.8-1.1
			c-20.6-1.1-40-2.2-60.4,0.2c-5.2,0.6-10.4,1.6-15.5,2.5c-5.5,1-11.1,2.1-16.7,2.7c-16,1.7-32.4-0.2-48.1-2
			c-10.4-1.2-21.2-2.4-31.8-2.6c-11.3-0.2-22.7,0.7-33.8,1.7c-5.4,0.4-10.9,0.9-16.4,1.2c-29.2,1.7-59-0.3-87.8-2.3
			c-35.6-2.4-72.4-5-108.2-0.3c-2.9,0.4-5.8,0.8-8.6,1.3c-9.8,1.5-20,3.1-30,1.3l0.2-0.8c9.9,1.9,20,0.3,29.7-1.3
			c2.8-0.4,5.8-0.9,8.6-1.3c35.9-4.6,72.8-2.1,108.4,0.3c28.8,2,58.5,4,87.6,2.3c5.5-0.3,11-0.8,16.4-1.2
			c11.1-0.9,22.6-1.9,33.9-1.7c10.6,0.2,21.4,1.4,31.9,2.7c15.7,1.8,32,3.7,48,2c5.6-0.6,11.2-1.6,16.7-2.7
			c5.1-0.9,10.3-1.9,15.6-2.5c20.5-2.4,39.9-1.3,60.5-0.2c7.8,0.4,15.8,0.9,23.8,1.1c9.3,0.3,21.3-0.6,34-1.5
			c13.3-0.9,27.1-1.9,40.4-1.9c27.1,0.1,55.5,2.1,80.6,3.9c10.3,0.7,20.1,1.5,29.2,2c11.3,0.7,26-1,41.5-2.7
			c21.8-2.4,46.5-5.1,67.7-2.1c4.5,0.6,9,1.7,13.3,2.8c3.5,0.8,7.2,1.7,10.8,2.4c11.8,2.1,24,1.7,35.8,1.4L878,749
			c17.5-0.5,35.5-1.1,53.2,1.2c3.4,0.4,6.9,1,10.3,1.5c7.6,1.2,15.5,2.5,23.3,2.5c0.1,0,0.1,0,0.2,0c6.9,0,13.9-1,20.7-2
			c2.7-0.4,5.4-0.8,8.1-1.1c5.1-0.6,10.8-1.9,16.7-3.1c8.5-1.8,17.3-3.8,24.9-3.9c21-0.4,39.7,0.6,57.9,1.7
			c18.1,1,36.9,2.1,57.8,1.7c8.4-0.2,17.1-0.7,26.3-1.2c19.3-1.1,39.2-2.3,57.1-0.2c5,0.6,10.8,1.7,16.9,2.8
			c11.9,2.2,25.4,4.7,35.3,3.8c6.1-0.5,12.2-0.2,18,0.2c6.5,0.4,13.2,0.9,20,0c35.9-4.6,72.8-2.1,108.4,0.3c28.8,2,58.5,4,87.6,2.3
			c5.5-0.3,11-0.8,16.4-1.2c11.1-0.9,22.6-1.9,33.9-1.7c10.6,0.2,21.4,1.4,31.8,2.7c15.7,1.8,32,3.7,48,2c5.6-0.6,11.2-1.6,16.7-2.7
			c5.1-0.9,10.3-1.9,15.6-2.5c20.5-2.4,39.9-1.3,60.5-0.2c7.8,0.4,15.8,0.9,23.8,1.1c9.3,0.3,21.3-0.6,34-1.5
			c13.3-0.9,27-1.9,40.4-1.9c18.4,0,37,1.7,54.9,3.2c19.4,1.7,37.8,3.3,54.2,2.8l0,0.8c-16.5,0.5-34.8-1.1-54.3-2.8
			c-18-1.6-36.5-3.2-54.9-3.2c-0.2,0-0.4,0-0.6,0c-13.1,0-26.6,0.9-39.7,1.9c-12.7,0.9-24.8,1.7-34.1,1.5c-8-0.2-16.1-0.7-23.8-1.1
			c-20.6-1.1-40-2.2-60.4,0.2c-5.2,0.6-10.4,1.6-15.5,2.5c-5.5,1-11.1,2.1-16.8,2.7C1646.4,758.4,1641.9,758.6,1637.5,758.6z"/>
	</g>
	<g>
		<path class="st0" d="M1631.4,767.9c-7.9,0-15.8-1.3-23.4-2.5c-3.4-0.5-6.8-1.1-10.2-1.5c-17.6-2.3-35.6-1.7-53-1.2l-90.4,2.7
			c-11.8,0.4-24.1,0.7-36-1.4c-3.7-0.6-7.3-1.5-10.9-2.4c-4.3-1-8.8-2.1-13.2-2.8c-22-3.2-48.1-1.8-71.1-0.7
			c-14.6,0.7-28.4,1.4-39.1,0.9c-17-0.9-31.4-2.4-45.4-3.7c-24.4-2.4-45.5-4.6-70.1-2.4c-3.4,0.3-7.1,0.7-11.1,1.1
			c-8.6,0.9-17.5,1.9-25,1.9c0,0-0.1,0-0.1,0c-13.3,0-26-1.3-38.2-2.6c-13.3-1.4-27-2.8-41.5-2.5c-7.5,0.1-15.1,1.8-22.4,3.3
			c-5.5,1.2-11.1,2.4-16.7,3c-1.8,0.2-3.6,0.4-5.5,0.6c-22.3,2.4-45.3,4.9-67.6,1.5c-31.1-4.7-61.3-3.5-90.5-2.3
			c-14.6,0.6-29.8,1.2-44.8,1.1c-24-0.2-48.8-0.4-73.1-2.7c-2.1-0.2-4.2-0.4-6.2-0.6c-8.2-0.8-16.8-1.7-25.2-1.6
			c-6.5,0.1-13.2,0.8-19.6,1.5c-4,0.4-8.2,0.9-12.3,1.2l-5,0.4c-15.1,1.1-29.3,2.1-45.1,2.3c-12.8,0.1-31.4-2.1-46.2-3.8l-4.4-0.5
			c-17.8-2.1-37.7-0.9-57,0.2c-9.2,0.5-17.9,1-26.3,1.2c-21,0.4-39.7-0.6-57.9-1.7c-18.1-1-36.9-2.1-57.8-1.7
			c-7.5,0.2-16.3,2.1-24.7,3.9c-6,1.3-11.6,2.5-16.8,3.2c-2.7,0.3-5.5,0.7-8.1,1.1c-6.8,1-13.8,2-20.8,2c-0.1,0-0.1,0-0.2,0
			c-7.9,0-15.8-1.3-23.4-2.5c-3.4-0.5-6.8-1.1-10.2-1.5c-17.6-2.3-35.6-1.7-53-1.2l-90.4,2.7c-11.8,0.4-24.1,0.7-36-1.4
			c-3.7-0.6-7.3-1.5-10.9-2.4c-4.3-1-8.8-2.1-13.2-2.7c-19.2-2.7-40.5-0.6-61.1,1.4c-17.7,1.8-34.4,3.4-47.1,1.5l0.1-0.8
			c12.6,1.9,29.3,0.2,46.9-1.5c20.7-2.1,42-4.2,61.3-1.4c4.5,0.6,9,1.7,13.3,2.8c3.5,0.9,7.2,1.7,10.8,2.4c11.8,2.1,24,1.7,35.8,1.4
			l90.4-2.7c17.5-0.5,35.5-1.1,53.2,1.2c3.4,0.4,6.9,1,10.3,1.5c7.6,1.2,15.5,2.5,23.3,2.5c0.1,0,0.1,0,0.2,0c6.9,0,13.9-1,20.7-2
			c2.7-0.4,5.4-0.8,8.1-1.1c5.1-0.6,10.8-1.9,16.7-3.1c8.5-1.8,17.3-3.8,24.9-3.9c21-0.4,39.7,0.6,57.9,1.7
			c18.1,1,36.9,2.1,57.8,1.7c8.4-0.2,17.1-0.7,26.3-1.2c19.3-1.1,39.2-2.3,57.1-0.2l4.4,0.5c14.9,1.8,33.3,4,46.1,3.8
			c15.8-0.2,30-1.2,45.1-2.3l5-0.4c4.1-0.3,8.3-0.7,12.3-1.2c6.4-0.7,13.1-1.4,19.6-1.5c8.5-0.1,17,0.7,25.3,1.6
			c2.1,0.2,4.2,0.4,6.2,0.6c24.3,2.3,49.1,2.5,73.1,2.7c15,0.1,30.2-0.5,44.8-1.1c29.3-1.2,59.5-2.4,90.7,2.3
			c22.2,3.3,45.2,0.9,67.4-1.5c1.8-0.2,3.6-0.4,5.5-0.6c5.5-0.6,11.2-1.8,16.6-3c7.4-1.6,15-3.2,22.6-3.4
			c14.5-0.3,28.3,1.1,41.6,2.5c12.2,1.3,24.8,2.6,38.1,2.6c0,0,0.1,0,0.1,0c7.5,0,16.4-1,25-1.9c3.9-0.4,7.7-0.8,11.1-1.1
			c24.6-2.1,45.8,0,70.2,2.4c13.9,1.4,28.4,2.8,45.3,3.7c10.6,0.6,24.4-0.1,39-0.9c23-1.2,49.2-2.5,71.3,0.7c4.5,0.6,9,1.7,13.3,2.8
			c3.5,0.8,7.2,1.7,10.8,2.4c11.8,2.1,24,1.7,35.8,1.4l90.4-2.7c17.5-0.5,35.5-1.1,53.2,1.2c3.4,0.4,6.9,1,10.3,1.5
			c7.6,1.2,15.5,2.5,23.3,2.5c0.1,0,0.1,0,0.2,0c6.9,0,13.9-1,20.7-2c2.7-0.4,5.4-0.8,8.1-1.1c5.1-0.6,10.8-1.9,16.7-3.1
			c8.5-1.8,17.3-3.8,24.9-3.9c21-0.4,39.7,0.6,57.9,1.7c18.1,1,36.9,2.1,57.8,1.7c8.4-0.2,17.1-0.7,26.3-1.2
			c19.3-1.1,39.2-2.3,57.1-0.2c2.5,0.3,5.1,0.6,7.8,1c13.5,1.7,30.2,3.8,41.8,2.2l0.1,0.8c-11.8,1.7-28.6-0.4-42.1-2.2
			c-2.7-0.3-5.3-0.7-7.8-1c-17.8-2.1-37.7-0.9-57,0.2c-9.2,0.5-17.9,1-26.3,1.2c-21,0.4-39.7-0.6-57.9-1.7
			c-18.1-1-36.9-2.1-57.8-1.7c-7.5,0.2-16.3,2.1-24.7,3.9c-6,1.3-11.6,2.5-16.8,3.2c-2.7,0.3-5.4,0.7-8.1,1.1c-6.8,1-13.8,2-20.8,2
			C1631.6,767.9,1631.5,767.9,1631.4,767.9z"/>
	</g>
	<g>
		<path class="st0" d="M1630.8,775.5c-7.9,0-15.7-0.5-23.5-1.6c-31.1-4.7-61.3-3.5-90.5-2.3c-14.6,0.6-29.8,1.2-44.8,1.1
			c-24-0.2-48.8-0.4-73.1-2.7c-2.1-0.2-4.2-0.4-6.2-0.6c-8.2-0.8-16.8-1.7-25.2-1.6c-6.5,0.1-13.2,0.8-19.6,1.5
			c-4,0.4-8.2,0.9-12.3,1.2c-10,0.7-20.3-1.2-30.2-3c-6.5-1.2-13.2-2.4-19.8-2.9c-5.7-0.4-11.9-0.9-18.5-1.5
			c-30.4-2.5-68.2-5.6-99.5-1.9c-2.5,0.3-4.9,0.6-7.4,1c-10.2,1.4-20.8,2.8-31.1,1.6c-4.5-0.5-9.1-1.2-13.4-1.8
			c-8.7-1.3-17.7-2.6-26.8-2.8c-7.6-0.2-15.1,1.4-22.5,2.9c-7.6,1.6-15.4,3.2-23.3,2.9c-3-0.1-6-0.5-8.9-0.9c-2.6-0.3-5.3-0.7-8-0.8
			c-8.8-0.5-17.7,1.3-26.3,3c-4,0.8-8.1,1.6-12.2,2.2c-20.5,3-41.5,0.3-61.7-2.3c-18-2.3-36.6-4.7-54.9-3.1
			c-4.8,0.4-9.6,1.1-14.3,1.8c-6.7,1-13.7,2-20.6,2.1c-9.1,0.2-18.2-0.9-27.1-2c-4.8-0.6-9.8-1.2-14.7-1.6c-6-0.5-12.2-0.2-18.1,0.1
			c-7,0.3-14.3,0.7-21.3-0.2c-51.8-6.6-93.4-3.4-123.7-1.1c-4.4,0.3-8.5,0.6-12.4,0.9c-8.9,0.6-18.9,0-31.6-0.8
			c-21.1-1.3-47.4-3-84.8-0.1c-3.8,0.3-7.9,0.7-12.3,1.2c-8.2,0.9-16.7,1.8-23.8,1.8c0,0-0.1,0-0.1,0c-13.3,0-26-1.3-38.2-2.6
			c-13.3-1.4-27-2.8-41.5-2.5c-7.5,0.1-15.1,1.8-22.4,3.3c-5.5,1.2-11.1,2.4-16.7,3c-1.8,0.2-3.6,0.4-5.5,0.6
			c-22.3,2.4-45.3,4.9-67.6,1.5c-31.1-4.7-61.3-3.5-90.5-2.3c-14.6,0.6-29.8,1.2-44.8,1.1c-24-0.2-48.8-0.4-73.1-2.7
			c-2.1-0.2-4.2-0.4-6.3-0.6c-8.2-0.8-16.8-1.7-25.2-1.6c-6.5,0.1-13.1,0.8-19.5,1.5c-4,0.4-8.2,0.9-12.4,1.2L1,765.1
			c-15.8,1.1-32.2,2.3-48-1.2l0.2-0.8c15.7,3.5,32,2.3,47.8,1.2l1.4-0.1c4.1-0.3,8.3-0.7,12.3-1.2c6.4-0.7,13.1-1.4,19.6-1.5
			c8.5-0.1,17,0.7,25.3,1.6c2.1,0.2,4.2,0.4,6.3,0.6c24.3,2.3,49.1,2.5,73.1,2.7c15,0.1,30.2-0.5,44.8-1.1
			c29.3-1.2,59.5-2.4,90.7,2.3c22.2,3.3,45.2,0.9,67.4-1.5c1.8-0.2,3.7-0.4,5.5-0.6c5.5-0.6,11.2-1.8,16.6-3
			c7.4-1.6,15-3.2,22.6-3.4c14.5-0.3,28.3,1.1,41.6,2.5c12.2,1.3,24.8,2.6,38.1,2.6c0,0,0.1,0,0.1,0c7.1,0,15.6-0.9,23.8-1.8
			c4.4-0.5,8.5-0.9,12.3-1.2c37.4-2.9,63.7-1.3,84.9,0.1c12.6,0.8,22.6,1.4,31.5,0.8c3.9-0.3,8-0.6,12.4-0.9
			c30.4-2.3,72-5.5,123.9,1.1c7,0.9,14.2,0.6,21.2,0.2c6-0.3,12.2-0.6,18.2-0.1c4.9,0.4,9.9,1,14.8,1.6c8.8,1.1,17.9,2.2,27,2
			c6.9-0.2,13.8-1.2,20.5-2.1c4.7-0.7,9.6-1.4,14.4-1.8c18.3-1.6,37,0.8,55.1,3.1c20.2,2.6,41.1,5.2,61.5,2.3
			c4.1-0.6,8.2-1.4,12.2-2.2c8.6-1.7,17.6-3.5,26.5-3c2.7,0.1,5.4,0.5,8,0.8c2.9,0.4,5.9,0.8,8.8,0.9c7.8,0.3,15.6-1.3,23.1-2.9
			c7.4-1.5,15-3.1,22.7-3c9.2,0.2,18.2,1.5,26.9,2.8c4.4,0.6,8.9,1.3,13.4,1.8c10.3,1.2,20.8-0.2,30.9-1.6c2.5-0.3,5-0.7,7.4-1
			c31.3-3.7,69.2-0.6,99.6,1.9c6.5,0.5,12.7,1.1,18.4,1.5c6.6,0.5,13.4,1.7,19.9,2.9c9.9,1.8,20.1,3.7,30,2.9
			c4.1-0.3,8.3-0.7,12.3-1.2c6.4-0.7,13.1-1.4,19.6-1.5c8.4-0.1,17,0.7,25.3,1.6c2.1,0.2,4.2,0.4,6.2,0.6
			c24.3,2.3,49.1,2.5,73.1,2.7c15,0.1,30.2-0.5,44.8-1.1c29.3-1.2,59.5-2.4,90.7,2.3c22.2,3.3,45.2,0.9,67.4-1.5
			c1.8-0.2,3.7-0.4,5.5-0.6c5.5-0.6,11.2-1.8,16.6-3c7.4-1.6,15-3.2,22.6-3.4c14.5-0.3,28.3,1.1,41.6,2.5
			c12.2,1.3,24.8,2.6,38.1,2.6c0,0,0.1,0,0.1,0c7.5,0,16.4-1,25-1.9c3.9-0.4,7.7-0.8,11.1-1.1c19.7-1.7,37.2-0.3,55.8,1.1
			c18,1.4,36.6,2.8,59.7,1.9l0,0.8c-23.1,1-41.8-0.5-59.8-1.9c-18.6-1.4-36.1-2.8-55.7-1.1c-3.4,0.3-7.1,0.7-11.1,1.1
			c-8.6,0.9-17.5,1.9-25,1.9c0,0-0.1,0-0.1,0c-13.3,0-26-1.3-38.2-2.6c-13.3-1.4-27-2.8-41.5-2.5c-7.5,0.1-15.1,1.8-22.4,3.3
			c-5.5,1.2-11.1,2.4-16.7,3c-1.8,0.2-3.6,0.4-5.5,0.6C1660.4,773.9,1645.6,775.5,1630.8,775.5z"/>
	</g>
	<g>
		<path class="st0" d="M1635.1,785.2c-14.2,0-28.5-1.8-42.5-3.6c-18-2.3-36.6-4.7-54.9-3.1c-4.8,0.4-9.6,1.1-14.3,1.8
			c-6.7,1-13.7,2-20.6,2.1c-9.1,0.2-18.2-0.9-27.1-2c-4.8-0.6-9.8-1.2-14.7-1.6c-6-0.5-12.2-0.2-18.1,0.1c-7,0.3-14.3,0.7-21.3-0.2
			c-31.9-4.1-62.7-4-87.4-3.9c-21.7,0.1-38.9,0.1-50-2.5c-19.4-4.5-40.4-5.5-60.7-6.5c-6.1-0.3-12.5-0.6-18.6-1
			c-16.2-1-33.5,0.2-51.5,3.8c-8.3,1.6-16.2,1.6-24.7,1.6c-2.3,0-4.5,0-6.8,0c-13.2,0.2-24.3,0-35.8-1.5
			c-11.7-1.5-23.7,1.2-35.2,3.8c-7.9,1.8-16.2,3.6-24.3,4.1c-10.9,0.7-21.6,0.2-31.6-0.3c-11.6-0.6-23.3-1.4-34.7-2.1
			c-36.1-2.4-73.4-4.9-109.9-2c-2.8,0.2-5.6,0.5-8.3,0.7c-10.9,1-22.1,2-33.1,1c-7.3-0.6-14.6-2-21.6-3.4
			c-7.2-1.4-14.7-2.9-22.1-3.5c-12.8-1-25.7,0.7-38.3,2.3c-5.4,0.7-11.1,1.4-16.6,1.9c-18,1.6-36.8-0.2-55-2
			c-11.8-1.2-23.9-2.4-35.7-2.6c-16.2-0.3-72.7-0.9-118.2,4.5c-2.5,0.3-4.9,0.6-7.4,1c-10.2,1.4-20.8,2.8-31.1,1.6
			c-4.5-0.5-9.1-1.2-13.4-1.8c-8.7-1.3-17.7-2.6-26.8-2.8c-7.6-0.2-15.1,1.4-22.5,2.9c-7.6,1.6-15.4,3.2-23.3,2.9
			c-3-0.1-6-0.5-8.9-0.9c-2.6-0.3-5.3-0.7-8-0.8c-8.8-0.5-17.7,1.3-26.3,3c-4,0.8-8.1,1.6-12.2,2.2c-20.5,3-41.5,0.3-61.7-2.3
			c-18-2.3-36.6-4.7-54.9-3.1c-4.8,0.4-9.6,1.1-14.3,1.8c-6.7,1-13.7,2-20.6,2.1c-9.1,0.2-18.2-0.9-27.1-2
			c-4.8-0.6-9.8-1.2-14.7-1.6c-6-0.5-12.2-0.2-18.1,0.1c-7,0.3-14.3,0.7-21.3-0.2c-31.3-4-60.9-2.4-84.8-1.1
			c-21.8,1.2-39,2.1-50.2-1.4l0.2-0.8c11,3.4,28.1,2.5,49.9,1.3c23.8-1.3,53.5-2.9,84.9,1.1c7,0.9,14.2,0.6,21.2,0.2
			c6-0.3,12.2-0.6,18.2-0.1c4.9,0.4,9.9,1,14.8,1.6c8.8,1.1,18,2.2,27,2c6.9-0.2,13.8-1.2,20.6-2.1c4.7-0.7,9.6-1.4,14.4-1.8
			c18.3-1.6,37,0.8,55.1,3.1c20.2,2.6,41.1,5.3,61.5,2.3c4.1-0.6,8.2-1.4,12.2-2.2c8.6-1.7,17.6-3.5,26.5-3c2.7,0.1,5.4,0.5,8,0.8
			c2.9,0.4,5.9,0.8,8.8,0.9c7.8,0.3,15.6-1.3,23.1-2.9c7.4-1.5,15-3.1,22.7-3c9.2,0.2,18.2,1.5,26.9,2.8c4.4,0.6,8.9,1.3,13.4,1.8
			c10.3,1.2,20.8-0.2,30.9-1.6c2.5-0.3,5-0.7,7.4-1c45.6-5.4,102.1-4.9,118.4-4.5c11.8,0.2,23.9,1.4,35.7,2.6
			c18.2,1.8,36.9,3.6,54.9,2c5.5-0.5,11.1-1.2,16.6-1.9c12.6-1.6,25.6-3.3,38.4-2.3c7.5,0.6,15,2,22.2,3.5c7,1.4,14.3,2.8,21.5,3.4
			c11,0.9,22.2-0.1,33-1c2.8-0.2,5.6-0.5,8.3-0.7c36.6-2.8,74-0.4,110,2c11.4,0.8,23.1,1.5,34.7,2.1c10,0.5,20.7,1,31.5,0.3
			c8-0.5,16.2-2.3,24.1-4.1c11.6-2.6,23.7-5.3,35.5-3.8c11.5,1.4,22.5,1.6,35.7,1.5c2.3,0,4.5,0,6.8,0c8.4,0,16.3,0,24.5-1.6
			c18.1-3.6,35.5-4.8,51.7-3.8c6.1,0.4,12.5,0.7,18.6,1c20.3,0.9,41.4,1.9,60.8,6.5c11,2.6,28.1,2.5,49.8,2.5
			c24.7-0.1,55.5-0.1,87.5,3.9c7,0.9,14.2,0.6,21.2,0.2c6-0.3,12.2-0.6,18.2-0.1c4.9,0.4,9.9,1,14.8,1.6c8.8,1.1,18,2.2,27,2
			c6.9-0.2,13.8-1.2,20.5-2.1c4.7-0.7,9.6-1.4,14.4-1.8c18.3-1.6,37,0.8,55.1,3.1c20.2,2.6,41.1,5.3,61.5,2.3
			c4.1-0.6,8.2-1.4,12.2-2.2c8.6-1.7,17.6-3.5,26.5-3c2.7,0.1,5.4,0.5,8,0.8c2.9,0.4,5.9,0.8,8.8,0.9c7.8,0.3,15.6-1.3,23.1-2.9
			c7.4-1.5,15-3.1,22.7-3c9.2,0.2,18.2,1.5,26.9,2.8c4.4,0.6,8.9,1.3,13.4,1.8c10.3,1.2,20.8-0.2,30.9-1.6c2.5-0.3,5-0.7,7.4-1
			c21.1-2.5,44.5-1.1,67.1,0.3c18.1,1.1,35.2,2.2,49.5,1.1l0.1,0.8c-14.4,1.1-31.5,0.1-49.7-1.1c-22.6-1.4-45.9-2.8-67-0.3
			c-2.5,0.3-4.9,0.6-7.4,1c-10.2,1.4-20.8,2.8-31.1,1.6c-4.5-0.5-9.1-1.2-13.4-1.8c-8.7-1.3-17.7-2.6-26.8-2.8
			c-7.5-0.2-15.1,1.4-22.5,2.9c-7.6,1.6-15.4,3.2-23.3,2.9c-3-0.1-6-0.5-8.9-0.9c-2.6-0.3-5.3-0.7-7.9-0.8c-8.8-0.5-17.7,1.3-26.3,3
			c-4,0.8-8.1,1.6-12.2,2.2C1648,784.8,1641.5,785.2,1635.1,785.2z"/>
	</g>
	<g>
		<path class="st0" d="M1681.5,793.1c-6.8,0-13.6-0.3-20-0.6c-11.6-0.6-23.3-1.4-34.7-2.1c-36.1-2.4-73.4-4.9-109.9-2
			c-2.8,0.2-5.6,0.5-8.3,0.7c-10.9,1-22.1,2-33.1,1c-7.3-0.6-14.6-2-21.6-3.4c-7.2-1.4-14.7-2.9-22.1-3.5c-12.8-1-25.7,0.7-38.3,2.3
			c-5.4,0.7-11.1,1.4-16.6,1.9c-19.9,1.8-42-2.5-63.4-6.7c-10.8-2.1-21-4.1-30.8-5.4c-42.1-5.3-69.4-4.6-103.4-3.1
			c-7.8,0.4-15.6,1.6-23.2,2.8c-9,1.4-18.2,2.9-27.5,2.9c0,0-0.1,0-0.1,0c-8.1,0-16.2-1.1-24.1-2.2c-7.5-1-15.3-2.1-23-2.2
			c-10.3-0.1-20.7,1.6-30.8,3.2c-3.8,0.6-7.7,1.2-11.5,1.8c-33.6,4.6-68.1,2.1-101.5-0.3c-32.6-2.4-66.3-4.8-99.1-0.6
			c-2.8,0.4-5.7,0.8-8.4,1.2c-9.6,1.4-19.5,2.8-29.3,2.2c-7.5-0.4-14.9-2-22.1-3.6c-4.4-0.9-8.9-1.9-13.3-2.6
			c-17.3-2.7-35.1-1.5-52.4-0.4c-5.4,0.4-11,0.7-16.5,1c-20.2,0.9-41.6-1.5-62.3-3.7c-4.9-0.5-9.9-1.1-14.8-1.6
			c-13.6-1.4-28.2,0.6-42.3,2.6c-12.9,1.8-26.2,3.6-38.7,2.8c-16.2-1-33.5,0.2-51.5,3.8c-8.3,1.6-16.2,1.6-24.7,1.6
			c-2.3,0-4.5,0-6.8,0c-13.2,0.2-24.3,0-35.8-1.5c-11.7-1.5-23.7,1.2-35.2,3.8c-7.9,1.8-16.2,3.6-24.3,4.1
			c-10.8,0.7-21.6,0.2-31.6-0.3c-11.6-0.6-23.3-1.4-34.7-2.1c-36.1-2.4-73.4-4.9-109.9-2c-2.8,0.2-5.6,0.5-8.3,0.7
			c-10.9,1-22.1,2-33.1,1c-7.3-0.6-14.6-2-21.6-3.4c-7.2-1.4-14.7-2.9-22.1-3.5c-12.8-1-25.7,0.7-38.3,2.3
			c-5.4,0.7-11.1,1.4-16.6,1.9c-29.8,2.7-60-0.8-89.2-4.1l0.1-0.8c29.2,3.4,59.3,6.8,89.1,4.1c5.5-0.5,11.1-1.2,16.6-1.9
			c12.6-1.6,25.6-3.3,38.4-2.3c7.5,0.6,15,2,22.2,3.5c7,1.4,14.3,2.8,21.5,3.4c11,0.9,22.2-0.1,33-1c2.8-0.2,5.6-0.5,8.3-0.7
			c36.6-2.8,74-0.4,110,2c11.4,0.8,23.1,1.5,34.7,2.1c10,0.5,20.7,1,31.5,0.3c8-0.5,16.2-2.3,24.2-4.1c11.6-2.6,23.7-5.3,35.5-3.8
			c11.5,1.4,22.6,1.6,35.7,1.5c2.3,0,4.6,0,6.8,0c8.4,0,16.3,0,24.5-1.6c18.1-3.6,35.5-4.8,51.7-3.8c12.4,0.8,25.7-1,38.5-2.8
			c14.1-2,28.8-4,42.5-2.6c4.9,0.5,9.9,1,14.8,1.6c20.7,2.3,42.1,4.6,62.2,3.7c5.5-0.2,11.1-0.6,16.5-1c17.3-1.1,35.2-2.3,52.6,0.4
			c4.5,0.7,9,1.7,13.4,2.6c7.1,1.5,14.5,3.1,21.9,3.6c9.7,0.6,19.6-0.9,29.1-2.2c2.8-0.4,5.6-0.8,8.4-1.2
			c32.9-4.2,66.6-1.7,99.2,0.6c33.3,2.4,67.8,4.9,101.3,0.3c3.8-0.5,7.7-1.2,11.5-1.8c10.1-1.6,20.5-3.3,31-3.2
			c7.8,0.1,15.6,1.2,23.1,2.2c7.8,1.1,15.9,2.2,23.9,2.2c0,0,0.1,0,0.1,0c9.2,0,18.4-1.5,27.4-2.9c7.6-1.2,15.5-2.5,23.3-2.8
			c34-1.5,61.4-2.2,103.5,3.1c9.8,1.2,20,3.2,30.8,5.4c21.3,4.2,43.4,8.5,63.1,6.7c5.5-0.5,11.1-1.2,16.6-1.9
			c12.6-1.6,25.6-3.3,38.4-2.3c7.5,0.6,15,2,22.2,3.5c7,1.4,14.3,2.8,21.5,3.4c11,0.9,22.2-0.1,33-1c2.8-0.2,5.6-0.5,8.3-0.7
			c36.6-2.8,74-0.4,110,2c11.4,0.8,23.1,1.5,34.7,2.1c10,0.5,20.7,1,31.5,0.3c8-0.5,16.2-2.3,24.2-4.1c11.6-2.6,23.7-5.3,35.5-3.8
			c11.5,1.4,22.6,1.6,35.7,1.5c2.3,0,4.5,0,6.8,0c8.4,0,16.3,0,24.5-1.6c18.1-3.6,35.5-4.8,51.7-3.8l3,0.2
			c25.4,1.6,51.7,3.3,76.5,7.3l-0.1,0.8c-24.8-4-51-5.6-76.4-7.2l-3-0.2c-16.2-1-33.5,0.2-51.5,3.8c-8.3,1.6-16.2,1.6-24.7,1.6
			c-2.2,0-4.5,0-6.8,0c-13.2,0.2-24.3,0-35.8-1.5c-11.7-1.5-23.7,1.2-35.2,3.8c-7.9,1.8-16.2,3.6-24.3,4.1
			C1689.3,793,1685.4,793.1,1681.5,793.1z"/>
	</g>
	<g>
		<path class="st0" d="M1472.1,799.9c-1.5,0-3.1,0-4.6-0.1c-7.5-0.4-14.9-2-22.1-3.6c-4.4-0.9-8.9-1.9-13.3-2.6
			c-17.3-2.7-35.1-1.5-52.4-0.4c-5.4,0.4-11,0.7-16.5,1c-14.1,0.6-30.1-3-45.6-6.5c-11.9-2.7-24.1-5.4-35.1-6.1
			c-12.4-0.8-21-1.7-28.7-2.6c-16.3-1.8-26.1-2.9-53.2,0.7c-29.5,4-58.9,3.9-87.4,3.9c-25.2,0-51.2,0-77.1,2.7
			c-22.7,2.4-83.5,1.4-103.9,0.6c-18-0.7-32.5-1.5-45.6-2.6c-1.6-0.1-3.2-0.3-4.7-0.4c-10.7-0.9-21.7-1.8-32.5-1.1
			c-4.8,0.3-9.7,0.9-14.5,1.5c-4.8,0.6-9.7,1.2-14.6,1.5c-12.8,0.8-43-2.5-54.6-4.5c-23.1-3.9-42.5-2.8-62.9-1.7
			c-22.6,1.3-48.3,2.7-84-2.3c-22-3.1-37.8,0-54.5,3.3c-14.9,2.9-30.3,6-51.4,4.9c-9-0.4-18,1.2-26.8,2.8
			c-7.8,1.4-15.9,2.9-23.9,2.9c0,0-0.1,0-0.1,0c-8.1,0-16.2-1.1-24.1-2.2c-7.5-1-15.3-2.1-23-2.2c-10.3-0.1-20.7,1.6-30.8,3.2
			c-3.8,0.6-7.7,1.2-11.5,1.8c-33.6,4.6-68.1,2.1-101.5-0.3c-32.6-2.4-66.3-4.8-99.1-0.6c-2.8,0.4-5.7,0.8-8.4,1.2
			c-9.6,1.4-19.5,2.8-29.3,2.2c-7.5-0.4-14.9-2-22.1-3.6c-4.4-0.9-8.9-1.9-13.3-2.6c-17.3-2.7-35.1-1.5-52.4-0.4
			c-5.4,0.4-11,0.7-16.5,1c-25.1,1.1-50.3-0.3-75.1-4.2l0.1-0.8c24.7,3.9,49.9,5.3,74.9,4.2c5.5-0.2,11.1-0.6,16.5-1
			c17.3-1.1,35.2-2.3,52.6,0.4c4.5,0.7,9,1.7,13.4,2.6c7.1,1.5,14.5,3.1,21.9,3.6c9.7,0.6,19.6-0.9,29.1-2.2
			c2.8-0.4,5.6-0.8,8.4-1.2c32.9-4.2,66.6-1.7,99.2,0.6c33.3,2.4,67.8,4.9,101.3,0.3c3.8-0.5,7.7-1.2,11.5-1.8
			c10.1-1.6,20.6-3.3,31-3.2c7.8,0.1,15.6,1.2,23.1,2.2c7.9,1.1,16,2.2,24,2.2c8,0,16-1.5,23.8-2.9c8.8-1.6,17.9-3.3,27-2.8
			c21,1,36.3-2,51.2-4.9c16.8-3.3,32.6-6.4,54.7-3.3c35.7,5,61.3,3.6,83.9,2.3c20.5-1.2,39.8-2.2,63.1,1.7c11.5,2,41.7,5.2,54.4,4.5
			c4.9-0.3,9.8-0.9,14.6-1.5c4.7-0.6,9.7-1.2,14.5-1.5c10.9-0.7,22,0.3,32.7,1.1c1.6,0.1,3.2,0.3,4.7,0.4c13.1,1,27.6,1.8,45.6,2.5
			c20.3,0.8,81.1,1.8,103.7-0.6c26-2.7,52-2.7,77.2-2.7c28.5,0,57.9,0,87.3-3.9c27.1-3.6,37-2.5,53.4-0.7c7.6,0.9,16.2,1.8,28.6,2.6
			c11,0.7,23.3,3.4,35.2,6.1c15.4,3.5,31.4,7.1,45.4,6.4c5.5-0.2,11.1-0.6,16.5-1c17.3-1.1,35.2-2.3,52.6,0.4
			c4.5,0.7,9,1.7,13.4,2.6c7.1,1.5,14.5,3.1,21.9,3.6c9.7,0.6,19.6-0.9,29.1-2.2c2.8-0.4,5.6-0.8,8.4-1.2
			c32.9-4.2,66.6-1.7,99.2,0.6c33.3,2.4,67.8,4.9,101.3,0.3c3.8-0.5,7.8-1.2,11.5-1.8c10.1-1.6,20.6-3.3,30.9-3.2
			c7.8,0.1,15.6,1.2,23.1,2.2c7.8,1.1,15.9,2.2,23.9,2.2c0,0,0.1,0,0.1,0c9.2,0,18.4-1.5,27.4-2.9c7.6-1.2,15.5-2.5,23.3-2.8
			c37-1.7,64.7-1.5,104.9,3.9l-0.1,0.8c-40.2-5.5-67.8-5.6-104.8-3.9c-7.8,0.4-15.7,1.6-23.3,2.8c-9,1.4-18.2,2.9-27.5,2.9
			c0,0-0.1,0-0.1,0c-8.1,0-16.2-1.1-24.1-2.2c-7.5-1-15.3-2.1-23-2.2c-10.3-0.1-20.7,1.6-30.8,3.2c-3.8,0.6-7.7,1.2-11.5,1.8
			c-33.6,4.6-68.1,2.1-101.5-0.3c-32.6-2.4-66.3-4.8-99.1-0.6c-2.8,0.4-5.7,0.8-8.4,1.2C1488.7,798.7,1480.4,799.9,1472.1,799.9z"/>
	</g>
	<g>
		<path class="st0" d="M1653.8,806.4c-21.8,0-44-0.5-54.7-0.9c-18-0.7-32.5-1.5-45.6-2.6c-1.6-0.1-3.2-0.3-4.7-0.4
			c-10.7-0.9-21.7-1.8-32.5-1.1c-4.8,0.3-9.7,0.9-14.5,1.5c-4.8,0.6-9.7,1.2-14.6,1.5c-12.7,0.8-43-2.5-54.6-4.5
			c-22.1-3.7-43.9-2.5-65.1-1.3c-25.8,1.5-52.5,3-80.5-4.2c-1.1-0.3-2.3-0.6-3.5-0.9c-15.5-4-41.4-10.8-66.9-6.5
			c-10,1.7-23.9,1.4-37.4,1.1c-11.8-0.3-23-0.5-31.6,0.5c-17.2,2-33.6,2.3-50.8,2.5c-2.8,0-5.7,0.1-8.5,0.1
			c-8.6,0.1-17.3-0.2-25.8-0.6c-15.9-0.7-32.3-1.4-48.4,1.5c-4,0.7-9.8,1.3-15.4,1.9c-4.3,0.5-8.3,0.9-11.3,1.3
			c-8.5,1.2-23.8-0.6-33-1.7l-0.9-0.1c-46.5-5.5-79.2-4.2-124-1.6l-3.3,0.2c-9.2,0.6-18.6,1.1-27.9,0.3c-6.9-0.6-13.7-1.9-20.3-3.3
			c-6.3-1.2-12.8-2.5-19.3-3.2c-12.2-1.2-24.7-0.1-36.7,1c-4.6,0.4-9.3,0.8-14,1.1c-20.9,1.3-42.9-0.5-64.2-2.3
			c-8-0.7-16.3-1.4-24.2-1.8c-29.4-1.8-39.8,0.3-55.6,3.6c-7.8,1.6-16.6,3.4-29.5,5.1c-29.5,4-58.9,3.9-87.4,3.9
			c-25.1,0-51.2,0-77.1,2.7c-22.7,2.4-83.5,1.4-103.9,0.6c-17.9-0.7-32.4-1.5-45.6-2.6c-1.6-0.1-3.2-0.3-4.8-0.4
			c-10.7-0.9-21.7-1.8-32.5-1.1c-4.8,0.3-9.7,0.9-14.5,1.5c-4.8,0.6-9.7,1.2-14.6,1.5c-12.8,0.8-43-2.5-54.6-4.5
			c-26.7-4.5-51.3-2.9-77.4-1.1c-21.2,1.4-43.2,2.9-67,0.9l0.1-0.8c23.8,1.9,45.7,0.5,66.9-0.9c26.2-1.8,50.9-3.4,77.6,1.1
			c11.5,2,41.7,5.2,54.4,4.5c4.9-0.3,9.8-0.9,14.6-1.5c4.7-0.6,9.7-1.2,14.5-1.5c10.9-0.7,22,0.3,32.7,1.1c1.6,0.1,3.2,0.3,4.7,0.4
			c13.2,1,27.7,1.8,45.6,2.5c20.3,0.8,81.1,1.8,103.7-0.6c26-2.7,52-2.7,77.2-2.7c28.5,0,57.9,0,87.3-3.9
			c12.9-1.7,21.7-3.5,29.5-5.1c15.8-3.3,26.3-5.4,55.8-3.6c7.9,0.5,16.2,1.2,24.2,1.8c21.3,1.8,43.3,3.6,64.1,2.3
			c4.7-0.3,9.4-0.7,14-1.1c12.1-1.1,24.6-2.2,36.9-1c6.5,0.6,13.1,1.9,19.4,3.2c6.6,1.3,13.4,2.7,20.2,3.2
			c9.2,0.8,18.7,0.2,27.8-0.3l3.3-0.2c44.8-2.6,77.6-3.9,124.1,1.6l0.9,0.1c9.1,1.1,24.4,2.9,32.8,1.7c3.1-0.4,7.1-0.9,11.4-1.3
			c5.6-0.6,11.3-1.2,15.3-1.9c16.2-2.8,32.6-2.1,48.6-1.5c8.4,0.4,17.1,0.7,25.7,0.6c2.9,0,5.7-0.1,8.5-0.1
			c17.3-0.2,33.6-0.5,50.7-2.5c8.7-1,19.8-0.8,31.7-0.5c13.4,0.3,27.3,0.6,37.2-1.1c25.7-4.3,51.7,2.5,67.2,6.5
			c1.2,0.3,2.4,0.6,3.5,0.9c28,7.2,54.5,5.7,80.3,4.2c21.2-1.2,43.1-2.5,65.3,1.3c11.5,2,41.7,5.2,54.4,4.5
			c4.9-0.3,9.8-0.9,14.6-1.5c4.8-0.6,9.7-1.2,14.5-1.5c10.9-0.7,22,0.3,32.7,1.1c1.6,0.1,3.2,0.3,4.7,0.4c13.2,1,27.7,1.9,45.6,2.5
			c20.3,0.8,81.1,1.8,103.7-0.6c26-2.7,52-2.7,77.2-2.7c28.5,0,57.9,0,87.3-3.9c22.3-3,33.3-1.7,46-0.2c9.5,1.1,20.3,2.4,37.6,1.8
			l0,0.8c-17.3,0.5-28.1-0.7-37.7-1.8c-12.7-1.5-23.6-2.8-45.8,0.2c-29.5,4-58.9,3.9-87.4,3.9c-25.2,0-51.2,0-77.1,2.7
			C1692.2,806,1673.1,806.4,1653.8,806.4z"/>
	</g>
	<g>
		<path class="st0" d="M1646.9,814.5c-8.4,0-18.9-1.2-25.9-2.1l-0.9-0.1c-46.5-5.5-79.2-4.2-124-1.6l-3.3,0.2
			c-9.2,0.6-18.6,1.1-27.9,0.3c-6.8-0.6-13.7-1.9-20.3-3.3c-6.3-1.2-12.8-2.5-19.3-3.2c-12.2-1.2-24.7-0.1-36.7,1
			c-4.6,0.4-9.3,0.8-14,1.1c-28.1,1.8-57.5-2.1-86-5.8l-2.2-0.3c-6.4-0.8-12.8-2-19.7-3.2c-16.7-2.9-33.9-6-49.2-4.3
			c-53.2,6-89.7,6.8-150,3.3c-2.3-0.1-4.7-0.3-7.2-0.5c-13-0.9-29.1-1.9-40.6,0.1c-15.6,2.8-35.6,5.7-52.2,3.8
			c-41.8-4.8-76.2-3.8-109.5-2.8c-35.3,1.1-68.7,2.1-108.3-3.8c-15.5-2.3-31.5-1.4-46.9-0.5c-1.6,0.1-3.2,0.2-4.8,0.3
			c-3.6,0.2-7.2,0.5-10.8,0.9c-7.9,0.7-16.1,1.5-24.2,0.8c-5.1-0.4-11.1-1.5-17.4-2.7c-11-2-23.5-4.3-34.3-3.7
			c-15.4,0.8-24.4,3.2-34.9,5.9c-7.1,1.8-15.1,3.9-26.3,5.8c-10,1.7-23.9,1.4-37.4,1.1c-11.8-0.3-23-0.5-31.6,0.5
			c-17.2,2-33.5,2.3-50.8,2.5c-2.8,0-5.7,0.1-8.5,0.1c-8.6,0.1-17.3-0.2-25.8-0.6c-15.9-0.7-32.3-1.4-48.4,1.5
			c-4,0.7-9.8,1.3-15.4,1.9c-4.3,0.5-8.3,0.9-11.3,1.3c-8.5,1.2-23.8-0.6-33-1.7l-0.9-0.1c-46.5-5.5-79.3-4.2-124-1.6l-3.3,0.2
			c-9.1,0.6-18.6,1.1-27.9,0.3c-6.8-0.6-13.7-1.9-20.3-3.3c-6.3-1.2-12.8-2.5-19.3-3.2c-12.2-1.2-24.7-0.1-36.7,1
			c-4.6,0.4-9.3,0.8-14,1.1c-28.9,1.8-58.1-1.2-86.4-4.2l0.1-0.8c28.2,2.9,57.4,6,86.2,4.2c4.7-0.3,9.4-0.7,14-1.1
			c12.1-1.1,24.6-2.2,36.9-1c6.5,0.6,13.1,1.9,19.4,3.2c6.6,1.3,13.4,2.7,20.2,3.2c9.2,0.8,18.7,0.2,27.8-0.3l3.3-0.2
			c44.7-2.6,77.6-3.9,124.1,1.6l0.9,0.1c9.1,1.1,24.4,2.9,32.8,1.7c3.1-0.4,7.1-0.9,11.4-1.3c5.6-0.6,11.3-1.2,15.3-1.9
			c16.2-2.8,32.6-2.1,48.6-1.5c8.4,0.4,17.1,0.7,25.7,0.6c2.9,0,5.7-0.1,8.5-0.1c17.2-0.3,33.5-0.5,50.7-2.5
			c8.7-1,19.8-0.8,31.7-0.5c13.4,0.3,27.3,0.6,37.2-1.1c11.2-1.9,19.2-4,26.2-5.8c10.5-2.7,19.6-5.1,35-5.9
			c10.9-0.6,23.4,1.7,34.5,3.7c6.3,1.2,12.3,2.2,17.3,2.7c8,0.7,16.2,0,24-0.8c3.5-0.3,7.2-0.7,10.8-0.9c1.6-0.1,3.2-0.2,4.8-0.3
			c15.5-0.9,31.5-1.8,47.1,0.5c39.6,5.9,72.9,4.9,108.2,3.8c33.3-1,67.7-2.1,109.6,2.8c16.7,1.9,37.7-1.2,52-3.8
			c11.7-2.1,27.8-1,40.8-0.1c2.5,0.2,4.9,0.3,7.2,0.5c60.2,3.4,96.6,2.6,149.8-3.3c15.4-1.7,32.7,1.3,49.4,4.3
			c6.9,1.2,13.3,2.3,19.7,3.2l2.2,0.3c28.4,3.7,57.8,7.6,85.8,5.8c4.7-0.3,9.4-0.7,14-1.1c12.1-1.1,24.6-2.2,36.9-1
			c6.5,0.6,13.1,1.9,19.4,3.2c6.6,1.3,13.4,2.7,20.2,3.2c9.2,0.8,18.7,0.2,27.8-0.3l3.3-0.2c44.7-2.6,77.6-3.9,124.1,1.6l0.9,0.1
			c9.1,1.1,24.4,2.9,32.8,1.7c3.1-0.4,7.1-0.9,11.4-1.3c5.6-0.6,11.3-1.2,15.3-1.9c16.2-2.8,32.6-2.1,48.5-1.5
			c8.4,0.4,17.1,0.7,25.7,0.6c2.9,0,5.7-0.1,8.5-0.1c17.3-0.2,33.6-0.5,50.7-2.5c8.7-1,19.8-0.8,31.7-0.5
			c13.4,0.3,27.3,0.6,37.2-1.1c13.7-2.3,24.2-0.9,34.4,0.5c10.6,1.5,20.5,2.8,33.3,0.1l0.2,0.8c-12.9,2.7-23,1.4-33.6-0.1
			c-10.1-1.4-20.6-2.8-34.2-0.5c-10,1.7-23.9,1.4-37.4,1.1c-11.8-0.3-23-0.5-31.6,0.5c-17.2,2-33.6,2.3-50.8,2.5
			c-2.8,0-5.7,0.1-8.5,0.1c-8.6,0.1-17.3-0.2-25.8-0.6c-15.9-0.7-32.3-1.4-48.4,1.5c-4,0.7-9.8,1.3-15.4,1.9
			c-4.3,0.5-8.3,0.9-11.3,1.3C1652,814.3,1649.6,814.5,1646.9,814.5z"/>
	</g>
	<g>
		<path class="st0" d="M1936.6,841.4c-6.6,0-12.6-0.9-18.8-1.9c-10-1.5-20.3-3.1-33.8-0.8c-18.9,3.2-50,2.4-70.7-1.8
			c-16.8-3.4-34.1-3-50.9-2.6c-3,0.1-6.1,0.1-9.1,0.2c-10.6,0.2-22.8,1.4-37.1,2.7c-19,1.8-40.6,3.9-63.1,4c-0.1,0-0.2,0-0.3,0
			c-8.8,0-24.9-0.7-33.5-1.8c-46.5-5.5-79.2-4.2-124-1.6l-3.3,0.2c-9.2,0.6-18.6,1.1-27.9,0.3c-8.1-0.7-16.3-1.5-24.1-2.4
			c-5.1-0.5-10.3-1.1-15.5-1.6c-12.2-1.2-24.7-0.1-36.7,1c-4.6,0.4-9.3,0.8-14,1.1c-15.4,1-31.4-1.1-47-3.1
			c-13.6-1.7-27.7-3.5-41.2-3.3c-7,0.1-18.4-0.8-32.9-2c-21.8-1.8-49-4-75.5-3.8c-8.1,0.1-16.1-1.4-23.9-2.8c-4-0.7-8.1-1.5-12.2-2
			c-33.3-4.3-66.3-1.5-94.3,1.8c-39.6,4.6-72.9,2.6-105.1,0.6c-14.8-0.9-30.2-1.8-46.1-2.1c-16.5-0.3-35.8-0.3-54.4,2
			c-39.6,4.9-74.4,2.5-106.2-0.8c-3.5-0.4-7.2-0.8-10.7-1.3c-11.3-1.4-22.9-2.9-34-2c-7.8,0.6-16,0.5-23.8,0.3
			c-16.3-0.3-33.2-0.6-48.5,5.8c-15.3,6.3-26.5,6.7-39.5,7c-8.3,0.2-16.8,0.5-27.5,2.3c-18.9,3.2-50,2.4-70.7-1.8
			c-16.8-3.4-34.1-3-50.9-2.6c-3,0.1-6.1,0.1-9.1,0.2c-10.6,0.2-22.8,1.4-37.1,2.7c-19,1.8-40.6,3.9-63.1,4c-0.1,0-0.2,0-0.3,0
			c-8.8,0-24.9-0.7-33.5-1.8c-46.5-5.5-79.3-4.2-124-1.6l-3.3,0.2c-9.1,0.6-18.6,1.1-27.9,0.3c-8.1-0.7-16.3-1.5-24.1-2.4
			c-5.1-0.5-10.3-1.1-15.5-1.6c-12.2-1.2-24.7-0.1-36.7,1c-4.6,0.4-9.3,0.8-14,1.1c-28.9,1.8-58.1-1.2-86.4-4.2l0.1-0.8
			c28.2,2.9,57.4,6,86.2,4.2c4.7-0.3,9.4-0.7,14-1.1c12.1-1.1,24.6-2.2,36.9-1c5.2,0.5,10.4,1,15.5,1.6c7.9,0.8,16,1.7,24.1,2.4
			c9.2,0.8,18.7,0.2,27.8-0.3l3.3-0.2c44.7-2.6,77.6-3.9,124.1,1.6c8.7,1,25,1.8,33.7,1.8c22.5,0,44-2.1,63-4
			c14.2-1.4,26.5-2.6,37.1-2.7c3-0.1,6.1-0.1,9.1-0.2c16.8-0.4,34.2-0.8,51,2.6c20.6,4.2,51.6,4.9,70.4,1.8
			c10.7-1.8,19.3-2.1,27.6-2.3c12.9-0.4,24.1-0.7,39.2-7c15.4-6.4,32.4-6.1,48.8-5.8c7.8,0.1,15.9,0.3,23.8-0.3
			c11.2-0.8,22.8,0.6,34.1,2c3.5,0.4,7.2,0.9,10.7,1.3c31.7,3.3,66.5,5.7,106,0.9c18.6-2.3,38-2.3,54.5-2
			c15.9,0.3,31.2,1.2,46.1,2.1c32.2,2,65.4,4,104.9-0.6c28-3.3,61.2-6.1,94.5-1.8c4.1,0.5,8.2,1.3,12.2,2c7.8,1.4,15.8,2.8,23.8,2.8
			c26.6-0.3,53.7,2,75.6,3.8c14.4,1.2,25.9,2.1,32.8,2c13.5-0.3,27.7,1.5,41.3,3.3c15.5,2,31.5,4,46.8,3.1c4.7-0.3,9.4-0.7,14-1.1
			c12.1-1.1,24.6-2.2,36.9-1c5.2,0.5,10.4,1,15.5,1.6c7.9,0.8,16,1.7,24.1,2.4c9.2,0.8,18.7,0.2,27.8-0.3l3.3-0.2
			c44.7-2.6,77.6-3.9,124.1,1.6c8.6,1,24.6,1.8,33.4,1.8c0.1,0,0.2,0,0.3,0c22.5,0,44-2.1,63-4c14.2-1.4,26.5-2.6,37.1-2.7
			c3-0.1,6.1-0.1,9.1-0.2c16.8-0.4,34.2-0.8,51.1,2.6c20.6,4.2,51.6,4.9,70.4,1.8c13.7-2.3,24.1-0.7,34.1,0.8
			c10.3,1.6,20.1,3,32.9,0.3l0.2,0.8C1945.7,841,1941,841.4,1936.6,841.4z"/>
	</g>
	<g>
		<path class="st0" d="M1590.4,821.4c-3.8,0-7.6-0.2-11.3-0.5c-5.6-0.6-11.2-1.9-16.6-3.1c-3.6-0.8-7.3-1.7-11-2.3
			c-18.2-3.1-37.1-1.4-55.3,0.4c-16.8,1.6-34.1,3.2-51,1.1c-5-0.6-10-1.6-14.8-2.6c-5.1-1-10.4-2-15.7-2.7
			c-12.7-1.5-25.8-0.7-38.5,0c-4.3,0.3-8.8,0.5-13.2,0.7c-13.4,0.5-27.3-0.7-40.7-1.9c-12.5-1.1-25.5-2.2-37.9-1.9
			c-11.4,0.3-20.5-2-29.2-4.3c-3.3-0.8-6.7-1.7-10.1-2.4c-8.3-1.7-16.9-0.9-25.3-0.2l-1.8,0.2c-32.2,2.7-57.1,2.6-88.6,2.5l-8.7,0
			c-12.1,0-24.5-0.5-36.5-0.8c-30.8-1-62.7-2.1-95.7,2.5c-11.4,1.6-28.5-0.2-48.4-2.2c-22.4-2.3-47.7-4.9-72.4-3.6
			c-7.2,0.4-14.5,0.9-22.3,1.5c-27.2,2.1-55.4,4.3-81.1-1.5c-23.1-5.2-37.4-3.3-52.5-1.4c-7.4,1-15.1,2-24.3,2.2
			c-12.1,0.4-24.9-1.1-38.5-2.7c-9.8-1.1-20-2.3-30-2.8c-18.6-0.8-38.3,4.3-55.7,8.9c-5.7,1.5-11,2.9-16.1,4.1
			c-12.6,2.9-27.4,1.9-40.3,1c-5.6-0.4-10.8-0.7-15.1-0.7c-3.8,0-9.1,0.4-15.9,1c-16.1,1.2-38.2,3-60.8,1.1
			c-11.6-0.9-23.3,0.7-34.7,2.4c-8,1.1-16.2,2.3-24.4,2.6c-9.7,0.3-19.5-0.4-29-1.1c-8.5-0.6-17.3-1.3-25.9-1.2
			c-7,0.1-14,0.7-20.8,1.2c-11.1,0.9-22.6,1.9-33.9,0.7c-5.6-0.6-11.2-1.9-16.6-3.1c-3.6-0.8-7.3-1.7-11-2.3
			c-18.2-3.1-37.1-1.4-55.3,0.4c-16.8,1.6-34.1,3.2-51,1.1c-5-0.6-10-1.6-14.8-2.6c-5.1-1-10.4-2-15.7-2.7
			c-12.7-1.5-25.8-0.7-38.5,0c-4.3,0.3-8.8,0.5-13.2,0.7c-22.9,0.9-47.8,1.4-75.1-0.9l0.1-0.8c27.3,2.3,52.2,1.8,75,0.9
			c4.4-0.2,8.9-0.4,13.2-0.7c12.7-0.8,25.8-1.5,38.6,0c5.3,0.6,10.6,1.7,15.7,2.7c4.8,0.9,9.8,1.9,14.8,2.5
			c16.8,2.1,34.1,0.5,50.8-1.1c18.3-1.7,37.2-3.5,55.6-0.3c3.7,0.6,7.5,1.5,11.1,2.3c5.4,1.2,10.9,2.5,16.5,3.1
			c11.2,1.2,22.7,0.2,33.7-0.7c6.8-0.6,13.9-1.2,20.9-1.2c8.7-0.1,17.5,0.6,26,1.2c9.5,0.7,19.2,1.5,28.9,1.1
			c8.1-0.3,16.4-1.5,24.3-2.6c11.4-1.6,23.2-3.3,34.8-2.4c22.5,1.8,44.5,0.1,60.7-1.1c6.8-0.5,12.1-0.9,16-1c4.3,0,9.6,0.3,15.2,0.7
			c12.9,0.9,27.6,1.9,40.1-1c5.1-1.2,10.5-2.6,16.1-4.1c17.4-4.6,37.2-9.8,56-8.9c10.1,0.5,20.3,1.6,30.1,2.8
			c13.6,1.6,26.4,3.1,38.4,2.7c9.1-0.3,16.8-1.3,24.2-2.2c15.2-2,29.6-3.8,52.8,1.4c25.6,5.8,53.7,3.6,80.9,1.5
			c7.8-0.6,15.1-1.2,22.3-1.5c24.8-1.3,50.1,1.3,72.5,3.6c19.8,2,36.9,3.8,48.2,2.2c33.1-4.6,65-3.5,95.8-2.5
			c12,0.4,24.4,0.8,36.5,0.8l8.7,0c31.5,0.1,56.4,0.3,88.6-2.5l1.8-0.2c8.4-0.7,17.2-1.5,25.6,0.2c3.4,0.7,6.9,1.6,10.2,2.4
			c8.7,2.2,17.7,4.5,29,4.2c12.5-0.3,25.5,0.8,38,1.9c13.4,1.2,27.2,2.4,40.6,1.9c4.4-0.2,8.9-0.4,13.2-0.7
			c12.7-0.8,25.8-1.5,38.6,0c5.3,0.6,10.6,1.7,15.7,2.7c4.8,0.9,9.8,1.9,14.8,2.5c16.8,2.2,34.1,0.5,50.8-1.1
			c18.3-1.7,37.2-3.5,55.6-0.3c3.7,0.6,7.4,1.5,11.1,2.3c5.4,1.2,11,2.5,16.5,3.1c11.2,1.2,22.7,0.2,33.7-0.7
			c6.8-0.6,13.9-1.2,20.9-1.2c8.7-0.1,17.5,0.6,26,1.2c9.5,0.7,19.2,1.5,28.9,1.1c8.1-0.3,16.4-1.5,24.3-2.6
			c11.4-1.6,23.2-3.3,34.8-2.4c22.5,1.8,44.5,0.1,60.7-1.1c6.8-0.5,12.1-0.9,16-1c4.3,0,9.6,0.3,15.2,0.7c12.9,0.9,27.6,1.9,40.1-1
			c27.3-6.2,61.5,0.1,71.3,2.1l-0.2,0.8c-9.8-2.1-43.7-8.3-70.9-2.2c-12.6,2.9-27.4,1.9-40.3,1c-5.6-0.4-10.8-0.7-15.1-0.7
			c-3.8,0-9.1,0.4-15.9,1c-16.1,1.2-38.3,3-60.8,1.1c-11.6-0.9-23.3,0.7-34.7,2.4c-8,1.1-16.2,2.3-24.4,2.6
			c-9.7,0.3-19.5-0.4-29-1.1c-8.5-0.6-17.3-1.3-25.9-1.2c-7,0.1-14,0.7-20.8,1.2C1605.5,820.8,1597.9,821.4,1590.4,821.4z"/>
	</g>
	<g>
		<path class="st0" d="M1633.3,828.1c-5.1,0-10.2-0.1-15.3-0.3c-11.9-0.5-23.9-1.7-35.6-2.9c-17.2-1.7-35.1-3.5-52.7-3.1
			c-8.5,0.2-17.1,0.9-25.4,1.6c-11.6,1-23.6,1.9-35.4,1.6c-11.9-0.4-23.9-2.2-35.5-3.9c-10.2-1.5-20.7-3.1-31.1-3.7
			c-15.5-0.9-31.6,0.1-47.1,1c-23.1,1.4-47,2.8-69.6-1.8c-22.5-4.6-49.4-7.4-70.1-7.4c-11.8,0-24,0.5-34.8,1
			c-7.9,0.3-15.4,0.6-21.4,0.7c-13.6,0.1-48-1.7-78.3-4.2c-11.6-0.9-23.3,0.7-34.7,2.4c-8,1.1-16.2,2.3-24.4,2.6
			c-9.7,0.3-19.5-0.4-29-1.1c-8.5-0.6-17.3-1.3-25.9-1.2c-7,0.1-14,0.7-20.8,1.2c-11.1,0.9-22.6,1.9-33.9,0.7
			c-5.6-0.6-11.2-1.9-16.6-3.1c-3.6-0.8-7.3-1.7-11-2.3c-18.2-3.1-36.9-0.9-55.1,1.2c-16.8,2-34.3,4-51.2,1.8
			c-5-0.6-10-1.6-14.8-2.6c-5.1-1-10.4-2-15.7-2.7c-11.2-1.3-22.7-0.2-33.7,0.9c-5.8,0.6-11.8,1.2-17.7,1.4
			c-5.6,0.2-11.3,0.5-16.8,0.9c-19.5,1.1-39.7,2.3-61.8-1.1c-17.3-2.6-38.5,1.9-61,6.7c-18.1,3.8-36.7,7.8-53.7,7.9
			c-11.5,0.1-23.2-1-34.5-2.1c-6.3-0.6-12.8-1.2-19.3-1.7c-28.4-1.8-57.3,0.5-85.3,2.7c-25.9,2.1-52.7,4.2-79,3.1
			c-11.9-0.5-23.9-1.7-35.6-2.9c-17.2-1.7-35.1-3.5-52.7-3.1c-8.5,0.2-17.1,0.9-25.4,1.6c-11.6,1-23.6,1.9-35.4,1.6
			c-11.9-0.4-23.9-2.2-35.5-3.9c-10.2-1.5-20.7-3.1-31.1-3.7c-15.9-0.9-32.2,0.3-48,1.5c-22.1,1.7-45,3.5-67.1-0.8l0.2-0.8
			c22,4.3,44.8,2.5,66.9,0.8c15.8-1.2,32.1-2.5,48.1-1.6c10.5,0.6,21,2.2,31.2,3.7c11.6,1.7,23.5,3.5,35.4,3.9
			c11.8,0.4,23.7-0.6,35.3-1.6c8.3-0.7,16.9-1.4,25.4-1.6c17.6-0.4,35.5,1.4,52.8,3.1c11.6,1.2,23.7,2.3,35.5,2.9
			c26.3,1.1,53.1-1,78.9-3.1c28-2.2,56.9-4.5,85.4-2.7c6.4,0.4,13,1,19.3,1.7c11.3,1.1,22.9,2.2,34.4,2.1
			c16.9-0.1,35.5-4.1,53.5-7.9c22.6-4.8,43.9-9.3,61.3-6.7c22.1,3.4,42.2,2.2,61.7,1.1c5.5-0.3,11.2-0.6,16.8-0.9
			c5.9-0.2,11.9-0.8,17.7-1.4c11.1-1.1,22.6-2.2,33.9-0.9c5.3,0.6,10.6,1.7,15.7,2.7c4.8,0.9,9.8,1.9,14.8,2.5
			c16.9,2.2,34.2,0.1,51-1.9c18.2-2.1,37.1-4.4,55.4-1.2c3.7,0.6,7.4,1.5,11.1,2.3c5.4,1.2,11,2.5,16.5,3.1
			c11.2,1.2,22.7,0.2,33.7-0.7c6.8-0.6,13.9-1.2,20.9-1.2c8.7-0.1,17.5,0.6,26,1.2c9.5,0.7,19.2,1.5,28.9,1.1
			c8.1-0.3,16.4-1.5,24.3-2.6c11.4-1.6,23.2-3.3,34.8-2.4c30.3,2.4,64.7,4.3,78.2,4.2c6,0,13.5-0.4,21.4-0.7c10.8-0.5,23-1,34.8-1
			c20.8,0,47.7,2.8,70.3,7.4c22.4,4.5,46.3,3.1,69.4,1.7c15.6-0.9,31.7-1.9,47.2-1c10.5,0.6,21,2.2,31.2,3.7
			c11.6,1.7,23.5,3.5,35.4,3.9c11.8,0.4,23.7-0.6,35.3-1.6c8.3-0.7,16.9-1.4,25.4-1.6c17.6-0.4,35.5,1.4,52.8,3.1
			c11.6,1.2,23.7,2.3,35.5,2.9c26.3,1.1,53.1-1,78.9-3.1c28-2.2,56.9-4.5,85.4-2.7c6.4,0.4,13,1,19.3,1.7c11.3,1.1,23,2.2,34.4,2.1
			c12.4-0.1,25.4-1.3,38-2.5c25.8-2.4,52.5-4.9,76.9,1.8l-0.2,0.8c-24.2-6.6-50.8-4.1-76.6-1.7c-12.6,1.2-25.6,2.4-38,2.5
			c-11.6,0.1-23.2-1-34.5-2.1c-6.3-0.6-12.8-1.2-19.3-1.7c-28.4-1.8-57.3,0.5-85.3,2.7C1676.2,826.4,1654.7,828.1,1633.3,828.1z"/>
	</g>
	<g>
		<path class="st0" d="M1853.6,834.4c-3.2,0-6.5-0.1-9.8-0.2c-8-0.3-16-1.6-23.8-2.9c-4-0.7-8.2-1.3-12.3-1.9
			c-33.3-4.3-66.3-1.5-94.3,1.8c-39.6,4.6-72.9,2.6-105.1,0.6c-14.8-0.9-30.2-1.8-46.1-2.1c-9-0.2-18.2,0.4-27.2,1
			c-9,0.6-18.3,1.2-27.3,1c-34.8-0.6-70.9-1.3-106.1-5c-2.1-0.2-4.1-0.4-6.2-0.7c-12.4-1.4-25.2-2.8-37.7-1.8
			c-3.9,0.3-7.8,0.6-11.6,1c-20.1,1.8-40.9,3.6-61.6-1.3c-35.2-8.3-75.5-8-111.1-7.7l-4,0c-11.5,0.1-23.2-1-34.5-2.1
			c-6.3-0.6-12.8-1.2-19.3-1.7c-28.4-1.8-57.3,0.5-85.3,2.7c-25.9,2.1-52.7,4.2-79,3.1c-11.9-0.5-23.9-1.7-35.6-2.9
			c-17.2-1.7-35.1-3.5-52.7-3.1c-8.5,0.2-17.1,0.9-25.4,1.6c-11.6,1-23.6,1.9-35.4,1.6c-15.7-0.5-30.4-1.4-45.9-2.4
			c-6.4-0.4-12.9-0.8-19.6-1.2c-17.4-1-35.8,0.4-53.7,1.8c-21.7,1.7-44.1,3.4-65,0.9c-29.3-3.5-50.3,2.4-68.9,7.7
			c-13,3.7-25.4,7.2-38.4,6.6c-8-0.3-16-1.6-23.8-2.9c-4-0.7-8.2-1.3-12.3-1.9c-33.3-4.3-66.3-1.5-94.3,1.8
			c-39.6,4.6-72.9,2.6-105.1,0.6c-14.8-0.9-30.2-1.8-46.1-2.1c-9-0.2-18.2,0.4-27.2,1c-9,0.6-18.3,1.2-27.3,1
			c-34.8-0.6-70.9-1.3-106.1-5c-2.1-0.2-4.1-0.4-6.2-0.7c-12.4-1.4-25.2-2.8-37.7-1.8c-6.3,0.5-12.5,1.2-18.5,1.9
			c-17.5,2-34,3.9-52.5,0.3l0.2-0.8c18.3,3.7,34.8,1.7,52.2-0.3c6-0.7,12.2-1.4,18.5-1.9c12.6-1,25.5,0.4,37.9,1.8
			c2.1,0.2,4.1,0.4,6.2,0.7c35.2,3.7,71.2,4.3,106.1,5c9,0.2,18.2-0.4,27.2-1c9-0.6,18.3-1.2,27.3-1c15.9,0.3,31.2,1.2,46.1,2.1
			c32.2,2,65.4,4,104.9-0.6c28-3.3,61.2-6.1,94.5-1.8c4.1,0.5,8.3,1.2,12.3,1.9c7.7,1.3,15.7,2.6,23.7,2.9
			c12.9,0.5,25.2-2.9,38.2-6.6c18.7-5.3,39.8-11.3,69.2-7.7c20.8,2.5,43.2,0.8,64.9-0.9c17.9-1.4,36.4-2.8,53.8-1.8
			c6.6,0.4,13.2,0.8,19.6,1.2c15.5,1,30.2,1.9,45.9,2.4c11.8,0.4,23.7-0.6,35.3-1.6c8.3-0.7,16.9-1.4,25.4-1.6
			c17.6-0.4,35.5,1.4,52.8,3.1c11.6,1.2,23.7,2.3,35.5,2.9c26.3,1.1,53.1-1,78.9-3.1c28-2.2,56.9-4.5,85.4-2.7
			c6.4,0.4,13,1,19.3,1.7c11.3,1.1,23,2.2,34.4,2.1l4,0c35.6-0.3,76-0.6,111.3,7.8c20.6,4.9,41.3,3,61.4,1.3c3.8-0.3,7.8-0.7,11.7-1
			c12.6-1,25.5,0.4,37.9,1.8c2.1,0.2,4.1,0.4,6.2,0.7c35.2,3.7,71.2,4.3,106.1,5c9,0.2,18.2-0.4,27.2-1c9-0.6,18.3-1.2,27.3-1
			c15.9,0.3,31.2,1.2,46.1,2.1c32.2,2,65.4,4,104.9-0.6c28-3.3,61.2-6.1,94.5-1.8c4.1,0.5,8.3,1.2,12.3,1.9
			c7.7,1.3,15.7,2.6,23.7,2.9c13.5,0.6,25.6-0.2,39.6-1c18.1-1.1,38.7-2.3,67.4-0.9l0,0.8c-28.7-1.4-49.2-0.2-67.3,0.9
			C1873,833.8,1863.5,834.4,1853.6,834.4z"/>
	</g>
	<g>
		<path class="st0" d="M1389.7,936.5c-20.2,0-37.4-2.4-53.1-4.6c-18.1-2.5-35.3-4.9-54-3.4c-36.1,2.9-70.1,0.8-103.1-1.3
			c-28.3-1.7-57.5-3.5-88.4-2.3c-8.2,0.3-16.6,0.9-24.7,1.4c-18.4,1.2-37.4,2.4-56.1,1.2c-6.4-0.4-12.8-1.1-19-1.7
			c-8-0.8-16.4-1.7-24.6-2c-17.9-0.6-36.1,1.7-53.7,3.8c-17.3,2.1-35.1,4.3-52.8,3.9c-8.3-0.2-16.7-1-24.9-1.8
			c-3.6-0.3-7.3-0.7-11-1l-0.9-0.1c-24-2-48.8-4-73-1.5c-30.3,3.2-53.6-0.2-74.2-3.2c-18.9-2.7-36.7-5.3-56.7-2.3
			c-46.9,7-85.4,5.3-122.7,3.6c-23.2-1.1-47.1-2.2-72.9-1.1c-8.2,0.3-16.6,0.9-24.7,1.4c-18.4,1.2-37.4,2.4-56.1,1.2
			c-6.1-0.4-12.8-1-19.8-1.6c-9.6-0.9-19.4-1.8-27.9-2c-18-0.6-35.1,1.4-51.6,3.4c-16.3,1.9-33.1,3.9-50.7,3.4
			c-8.3-0.2-16.7-1-24.9-1.8c-3.6-0.3-7.4-0.7-11-1c-23.2-1.9-46.3-0.3-74,2.6c-35.4,3.8-59.9,0.8-83.7-2
			c-15.3-1.8-29.8-3.6-46.4-3.4l0-0.8c16.6-0.2,31.1,1.6,46.5,3.4c23.7,2.8,48.3,5.8,83.5,2c27.7-2.9,50.9-4.5,74.1-2.6
			c3.7,0.3,7.4,0.7,11,1c8.1,0.8,16.5,1.6,24.8,1.8c17.6,0.5,34.4-1.5,50.6-3.4c16.6-2,33.7-4,51.7-3.4c8.5,0.3,18.4,1.2,28,2
			c7,0.6,13.7,1.2,19.8,1.6c18.6,1.1,37.6-0.1,56-1.2c8.1-0.5,16.5-1,24.7-1.4c25.8-1,49.8,0.1,73,1.1c37.2,1.7,75.7,3.5,122.5-3.6
			c20.1-3,38-0.4,56.9,2.3c20.5,3,43.8,6.4,74,3.1c24.3-2.6,49.2-0.5,73.2,1.5l0.9,0.1c3.7,0.3,7.4,0.7,11,1
			c8.1,0.8,16.5,1.6,24.8,1.8c17.6,0.5,35.4-1.7,52.7-3.8c17.6-2.2,35.8-4.4,53.8-3.8c8.2,0.3,16.6,1.1,24.6,2
			c6.2,0.6,12.7,1.3,19,1.7c18.6,1.1,37.6-0.1,56-1.2c8.1-0.5,16.5-1,24.7-1.4c31-1.2,60.2,0.6,88.5,2.3c32.9,2,67,4.1,103,1.3
			c18.8-1.5,36,0.9,54.2,3.4c23.2,3.2,47.3,6.6,79.4,3.2c27.7-2.9,50.9-4.5,74.1-2.6c3.7,0.3,7.4,0.7,11,1
			c8.1,0.8,16.5,1.6,24.8,1.8c17.6,0.5,34.4-1.5,50.6-3.4c16.6-2,33.7-4,51.7-3.4c8.5,0.3,18.4,1.2,28,2c7,0.6,13.7,1.2,19.8,1.6
			c18.6,1.1,37.6-0.1,56-1.2c8.1-0.5,16.5-1,24.7-1.4c26.5-1,52.1-0.1,76.9,0.8c39.5,1.5,76.8,2.9,116.9-3.1l0.1,0.8
			c-40.2,6-77.5,4.6-117.1,3.1c-24.8-0.9-50.4-1.9-76.9-0.8c-8.2,0.3-16.6,0.9-24.7,1.4c-18.4,1.2-37.4,2.4-56.1,1.2
			c-6.1-0.4-12.8-1-19.8-1.6c-9.6-0.9-19.4-1.8-27.9-2c-18-0.6-35.1,1.4-51.6,3.4c-16.3,1.9-33.1,3.9-50.7,3.4
			c-8.3-0.2-16.7-1-24.9-1.8c-3.6-0.3-7.3-0.7-11-1c-23.2-1.9-46.3-0.3-74,2.6C1406.8,936.1,1398,936.5,1389.7,936.5z"/>
	</g>
	<g>
		<path class="st0" d="M1395.9,928.8c-0.2,0-0.4,0-0.6,0c-23-0.1-46.4-2.6-69.1-5c-14.7-1.6-28.7-3.1-41.3-3.7
			c-10.3-0.5-21.7,1.3-33.7,3.3c-9.1,1.5-18.5,3.1-27.6,3.5c-11.6,0.6-23.2-1.6-34.4-3.7c-4.5-0.8-9.1-1.7-13.6-2.4
			c-23.1-3.5-46.9-2.5-70-1.5c-2.7,0.1-5.4,0.2-8.2,0.3c-45.3,1.8-91.2,1.6-136.5-0.6c-1.3-0.1-2.9-0.2-4.7-0.3
			c-9.5-0.8-27.3-2.2-51.5,1.3c-31.2,4.5-58.5,6-86.2,4.8c-6-0.3-12.8-0.8-20-1.5c-16.6-1.4-35.5-3.1-49.2-0.9
			c-33.5,5.4-58.7,2-85.5-1.7c-13.9-1.9-28.4-3.9-44.4-4.6c-10-0.5-20.7,1.1-31,2.6c-3.1,0.5-6.1,0.9-9,1.3
			c-35.9,4.6-72.8,2.1-108.4-0.3c-28.8-2-58.5-4-87.6-2.3c-5.5,0.3-11,0.8-16.4,1.2c-11.1,0.9-22.6,1.9-33.9,1.7
			c-10.6-0.2-21.4-1.4-31.8-2.7c-15.7-1.8-32-3.7-48-2c-5.6,0.6-11.2,1.6-16.7,2.7c-5.1,0.9-10.3,1.9-15.6,2.5
			c-20.5,2.4-39.9,1.3-60.5,0.2c-7.8-0.4-15.8-0.9-23.8-1.1c-9.3-0.3-21.3,0.6-34,1.5c-13.1,0.9-26.6,1.9-39.8,1.9
			c-0.2,0-0.4,0-0.6,0c-18.5,0-37-1.8-55-3.6c-19-1.8-37-3.6-53.3-3.1l0-0.8c16.4-0.5,34.4,1.2,53.4,3.1c17.9,1.7,36.4,3.5,54.9,3.5
			c13.3,0,27-0.9,40.3-1.9c12.7-0.9,24.8-1.7,34.1-1.5c8,0.2,16.1,0.7,23.8,1.1c20.5,1.1,40,2.2,60.4-0.2c5.2-0.6,10.4-1.6,15.5-2.5
			c5.5-1,11.1-2.1,16.8-2.7c16-1.7,32.4,0.2,48.1,2c10.4,1.2,21.2,2.4,31.8,2.6c11.3,0.2,22.7-0.7,33.8-1.7
			c5.4-0.4,10.9-0.9,16.4-1.2c29.2-1.7,59,0.3,87.8,2.3c35.6,2.4,72.4,5,108.2,0.3c2.9-0.4,5.9-0.8,9-1.3
			c10.4-1.5,21.1-3.1,31.2-2.6c16.1,0.7,30.5,2.7,44.5,4.6c26.7,3.6,51.9,7.1,85.2,1.7c13.9-2.2,32.8-0.6,49.4,0.9
			c7.2,0.6,14,1.2,20,1.5c27.6,1.2,54.9-0.4,86-4.8c24.3-3.5,42.1-2.1,51.7-1.3c1.8,0.1,3.4,0.3,4.7,0.3
			c45.3,2.2,91.1,2.4,136.4,0.6c2.7-0.1,5.4-0.2,8.2-0.3c23.1-1,47-2,70.1,1.5c4.6,0.7,9.2,1.6,13.6,2.4c11.2,2.1,22.7,4.3,34.2,3.7
			c9-0.5,18.4-2,27.5-3.5c12.1-2,23.5-3.9,33.9-3.3c12.6,0.7,26.6,2.2,41.3,3.8c22.6,2.4,46,5,69,5c13.3,0.1,27-0.9,40.3-1.9
			c12.7-0.9,24.8-1.7,34.1-1.5c8,0.2,16.1,0.7,23.8,1.1c20.5,1.1,40,2.2,60.4-0.2c5.2-0.6,10.4-1.6,15.5-2.5
			c5.5-1,11.1-2.1,16.7-2.7c16-1.7,32.4,0.2,48.1,2c10.4,1.2,21.2,2.4,31.8,2.6c11.3,0.2,22.8-0.7,33.8-1.7
			c5.4-0.4,10.9-0.9,16.4-1.2c29.2-1.7,59,0.3,87.8,2.3c35.6,2.4,72.4,5,108.2,0.3c2.9-0.4,5.8-0.8,8.6-1.3c9.8-1.5,20-3.1,30-1.3
			l-0.2,0.8c-9.9-1.9-20-0.3-29.7,1.3c-2.8,0.4-5.8,0.9-8.6,1.3c-35.9,4.6-72.8,2.1-108.4-0.3c-28.8-2-58.5-4-87.6-2.3
			c-5.5,0.3-11,0.8-16.4,1.2c-11.1,0.9-22.6,1.9-33.9,1.7c-10.6-0.2-21.4-1.4-31.9-2.7c-15.7-1.8-32-3.7-48-2
			c-5.6,0.6-11.2,1.6-16.7,2.7c-5.1,0.9-10.3,1.9-15.6,2.5c-20.5,2.4-39.9,1.3-60.5,0.2c-7.8-0.4-15.8-0.9-23.8-1.1
			c-9.3-0.3-21.3,0.6-34,1.5C1422.6,927.9,1409.1,928.8,1395.9,928.8z"/>
	</g>
	<g>
		<path class="st0" d="M1863,923.2c-7,0-13.8-0.4-20.4-1.3c-4.5-0.6-9-1.7-13.3-2.8c-3.5-0.8-7.2-1.7-10.8-2.4
			c-11.8-2.1-24-1.7-35.8-1.4l-90.4,2.7c-17.5,0.5-35.5,1.1-53.2-1.2c-3.4-0.4-6.9-1-10.3-1.5c-7.6-1.2-15.5-2.5-23.3-2.5
			c-0.1,0-0.1,0-0.2,0c-6.9,0-13.9,1-20.7,2c-2.7,0.4-5.4,0.8-8.1,1.1c-5.1,0.6-10.8,1.9-16.7,3.1c-8.5,1.8-17.3,3.8-24.9,3.9
			c-21,0.4-39.7-0.6-57.9-1.7c-18.1-1-36.9-2.1-57.8-1.7c-8.4,0.2-17.1,0.7-26.3,1.2c-19.3,1.1-39.2,2.3-57.1,0.2
			c-5.5-0.6-11.7-2-18.2-3.4c-11.4-2.5-23.2-5.1-32.6-4.2c-6,0.5-12.2,0.4-18.2,0.3c-7-0.2-14.2-0.3-21.1,0.6
			c-35.9,4.6-72.8,2.1-108.4-0.3c-28.8-2-58.5-4-87.6-2.3c-5.5,0.3-11,0.8-16.4,1.2c-11.1,0.9-22.6,1.9-33.9,1.7
			c-10.6-0.2-21.4-1.4-31.9-2.7c-15.7-1.8-32-3.7-48-2c-5.6,0.6-11.2,1.6-16.7,2.7c-5.1,0.9-10.3,1.9-15.6,2.5
			c-20.5,2.4-39.9,1.3-60.5,0.2c-7.8-0.4-15.8-0.9-23.8-1.1c-9.3-0.3-21.3,0.6-34,1.5c-13.3,0.9-27.1,1.9-40.4,1.9
			c-25.4-0.1-52.3-2.3-76.1-4.3c-12.1-1-23.6-2-34.2-2.6c-11.4-0.7-26.1,1.1-41.7,3c-21.6,2.6-46.1,5.6-67.1,2.6
			c-4.5-0.6-9-1.7-13.3-2.8c-3.5-0.8-7.2-1.7-10.8-2.4c-11.8-2.1-24-1.7-35.8-1.4l-90.4,2.7c-17.5,0.5-35.5,1.1-53.2-1.2
			c-3.4-0.4-6.9-1-10.3-1.5c-7.6-1.2-15.5-2.5-23.3-2.5c-0.1,0-0.1,0-0.2,0c-6.9,0-13.9,1-20.7,2c-2.7,0.4-5.4,0.8-8.1,1.1
			c-5.1,0.6-10.8,1.9-16.7,3.1c-8.5,1.8-17.3,3.8-24.9,3.9c-21,0.4-39.7-0.6-57.9-1.7c-18.1-1-36.9-2.1-57.8-1.7
			c-8.4,0.2-17.1,0.7-26.3,1.2c-19.3,1.1-39.2,2.3-57.1,0.2c-4.8-0.6-10-1.9-15.6-3.2c-12-2.9-24.5-6-33.9-2.4l-0.3-0.8
			c9.7-3.7,22.3-0.6,34.4,2.3c5.6,1.4,10.8,2.6,15.5,3.2c17.8,2.1,37.7,0.9,57-0.2c9.2-0.5,17.9-1,26.3-1.2
			c21-0.4,39.7,0.6,57.9,1.7c18.1,1,36.9,2.1,57.8,1.7c7.5-0.2,16.3-2.1,24.7-3.9c6-1.3,11.6-2.5,16.8-3.2c2.7-0.3,5.4-0.7,8.1-1.1
			c6.8-1,13.8-2,20.8-2c7.9,0,15.9,1.2,23.6,2.5c3.4,0.5,6.8,1.1,10.2,1.5c17.6,2.3,35.6,1.7,53,1.2l90.4-2.7
			c11.8-0.4,24.1-0.7,36,1.4c3.7,0.6,7.3,1.5,10.9,2.4c4.3,1,8.8,2.1,13.2,2.7c20.9,3,45.4,0,66.9-2.6c15.6-1.9,30.4-3.7,41.9-3
			c10.6,0.6,22,1.6,34.2,2.6c23.7,2,50.6,4.2,76,4.3c13.3,0,27-0.9,40.3-1.9c12.7-0.9,24.8-1.7,34.1-1.5c8,0.2,16.1,0.7,23.9,1.1
			c20.5,1.1,40,2.2,60.4-0.2c5.2-0.6,10.4-1.6,15.5-2.5c5.5-1,11.1-2.1,16.7-2.7c16-1.7,32.4,0.2,48.1,2c10.4,1.2,21.2,2.4,31.8,2.6
			c11.3,0.2,22.7-0.7,33.8-1.7c5.4-0.4,10.9-0.9,16.4-1.2c29.2-1.7,59,0.3,87.8,2.3c35.6,2.4,72.4,5,108.2,0.3
			c7-0.9,14.2-0.7,21.2-0.6c6,0.1,12.2,0.3,18.1-0.3c9.6-0.8,21.4,1.7,32.9,4.2c6.5,1.4,12.7,2.8,18.1,3.4c17.8,2.1,37.7,0.9,57-0.2
			c9.2-0.5,17.9-1,26.3-1.2c21-0.4,39.7,0.6,57.9,1.7c18.1,1,36.9,2.1,57.8,1.7c7.5-0.2,16.3-2.1,24.7-3.9c6-1.3,11.6-2.5,16.8-3.2
			c2.7-0.3,5.5-0.7,8.1-1.1c6.8-1,13.8-2,20.8-2c0.1,0,0.1,0,0.2,0c7.9,0,15.8,1.3,23.4,2.5c3.4,0.5,6.8,1.1,10.2,1.5
			c17.6,2.3,35.6,1.7,53,1.2l90.4-2.7c11.8-0.4,24.1-0.7,36,1.4c3.7,0.6,7.3,1.5,10.9,2.4c4.3,1,8.8,2.1,13.2,2.7
			c19.2,2.8,40.5,0.6,61.1-1.4c17.7-1.8,34.4-3.4,47.1-1.5l-0.1,0.8c-12.6-1.9-29.3-0.2-46.9,1.5
			C1890.3,921.8,1876.4,923.2,1863,923.2z"/>
	</g>
	<g>
		<path class="st0" d="M1513.8,917.1c-13.1,0-25.7-1.3-37.8-2.6c-12.2-1.3-24.8-2.6-38.1-2.6c0,0-0.1,0-0.1,0c-7.5,0-16.4,1-25,1.9
			c-3.9,0.4-7.7,0.8-11.1,1.1c-23,2-43.3-0.7-66.8-3.8c-15.7-2.1-31.8-4.2-50.8-5.2c-11.1-0.6-25.1,0.6-40,2
			c-21.9,1.9-46.7,4.1-68.2,1c-4.5-0.6-9-1.7-13.3-2.8c-3.5-0.8-7.2-1.7-10.8-2.4c-11.8-2.1-24-1.7-35.8-1.4l-90.4,2.7
			c-17.5,0.5-35.5,1.1-53.2-1.2c-3.4-0.4-6.9-1-10.3-1.5c-7.6-1.2-15.5-2.5-23.3-2.5c-0.1,0-0.1,0-0.2,0c-6.9,0-13.9,1-20.7,2
			c-2.7,0.4-5.4,0.8-8.1,1.1c-5.1,0.6-10.8,1.9-16.7,3.1c-8.5,1.8-17.3,3.8-24.9,3.9c-21,0.4-39.7-0.6-57.9-1.7
			c-18.1-1-36.9-2.1-57.8-1.7c-8.4,0.2-17.1,0.7-26.3,1.2c-19.3,1.1-39.2,2.3-57.1,0.2c-7.3-0.9-16.8-1.2-26-1.5
			c-9.8-0.4-19.1-0.7-26-1.6c-15.1-2-25.6-0.9-36.6,0.3c-3.8,0.4-7.8,0.8-12.1,1.1c-4.1,0.3-8.3,0.7-12.3,1.2
			c-6.4,0.7-13.1,1.4-19.6,1.5c-8.5,0.1-17-0.7-25.3-1.6c-2.1-0.2-4.2-0.4-6.2-0.6c-24.3-2.3-49.1-2.5-73.1-2.7
			c-15-0.1-30.2,0.5-44.8,1.1c-29.3,1.2-59.5,2.4-90.7-2.3c-22.2-3.3-45.2-0.9-67.4,1.5c-1.8,0.2-3.6,0.4-5.5,0.6
			c-5.5,0.6-11.2,1.8-16.6,3c-7.4,1.6-15,3.2-22.6,3.4c-14.5,0.3-28.3-1.1-41.6-2.5c-12.2-1.3-24.8-2.6-38.1-2.6c0,0-0.1,0-0.1,0
			c-7.5,0-16.4,1-25,1.9c-3.9,0.4-7.7,0.8-11.1,1.1c-19.4,1.7-36.7-0.1-54.9-2c-18.1-1.9-36.8-3.8-60.2-2.8l0-0.8
			c23.4-1,42.2,1,60.3,2.8c18.2,1.9,35.4,3.7,54.7,2c3.4-0.3,7.1-0.7,11.1-1.1c8.6-0.9,17.5-1.9,25-1.9c0,0,0.1,0,0.1,0
			c13.3,0,26,1.3,38.2,2.6c13.3,1.4,27,2.8,41.5,2.5c7.5-0.1,15.1-1.8,22.4-3.3c5.5-1.2,11.1-2.4,16.7-3c1.8-0.2,3.6-0.4,5.5-0.6
			c22.3-2.4,45.3-4.9,67.6-1.5c31.1,4.7,61.3,3.5,90.5,2.3c14.6-0.6,29.8-1.2,44.8-1.1c24,0.2,48.8,0.4,73.1,2.7
			c2.1,0.2,4.2,0.4,6.2,0.6c8.2,0.8,16.8,1.7,25.2,1.6c6.5-0.1,13.2-0.8,19.6-1.5c4-0.4,8.2-0.9,12.3-1.2c4.3-0.3,8.2-0.7,12.1-1.1
			c11.1-1.2,21.5-2.3,36.8-0.3c6.8,0.9,16.1,1.2,25.9,1.6c9.2,0.3,18.7,0.7,26,1.5c17.8,2.1,37.7,0.9,57-0.2
			c9.2-0.5,17.9-1,26.3-1.2c21-0.4,39.7,0.6,57.9,1.7c18.1,1,36.9,2.1,57.8,1.7c7.5-0.2,16.3-2.1,24.7-3.9c6-1.3,11.6-2.5,16.8-3.2
			c2.7-0.3,5.5-0.7,8.1-1.1c6.8-1,13.8-2,20.8-2c0.1,0,0.1,0,0.2,0c7.9,0,15.8,1.3,23.4,2.5c3.4,0.5,6.8,1.1,10.2,1.5
			c17.6,2.3,35.6,1.7,53,1.2l90.4-2.7c11.8-0.4,24.1-0.7,36,1.4c3.7,0.6,7.3,1.5,10.9,2.4c4.3,1,8.8,2.1,13.2,2.7
			c21.4,3.1,46.2,0.9,68-1c14.9-1.3,29-2.6,40.1-2c19,1,35.2,3.1,50.9,5.2c23.4,3.1,43.7,5.7,66.6,3.8c3.4-0.3,7.1-0.7,11.1-1.1
			c8.6-0.9,17.5-1.9,25-1.9c0,0,0.1,0,0.1,0c13.3,0,26,1.3,38.2,2.6c13.3,1.4,27,2.8,41.5,2.5c7.5-0.1,15.1-1.8,22.4-3.3
			c5.5-1.2,11.1-2.4,16.7-3c1.8-0.2,3.6-0.4,5.5-0.6c22.3-2.4,45.3-4.9,67.6-1.5c31.1,4.7,61.3,3.5,90.5,2.3
			c14.6-0.6,29.8-1.2,44.8-1.1c24,0.2,48.8,0.4,73.1,2.7c2.1,0.2,4.2,0.4,6.3,0.6c8.2,0.8,16.8,1.7,25.2,1.6
			c6.5-0.1,13.1-0.8,19.5-1.5c4-0.4,8.2-0.9,12.4-1.2l1.4-0.1c15.8-1.1,32.2-2.3,48,1.2l-0.2,0.8c-15.7-3.5-32-2.3-47.8-1.2
			l-1.4,0.1c-4.1,0.3-8.3,0.7-12.3,1.2c-6.4,0.7-13.1,1.4-19.6,1.5c-8.5,0.1-17-0.7-25.3-1.6c-2.1-0.2-4.2-0.4-6.3-0.6
			c-24.3-2.3-49.1-2.5-73.1-2.7c-15-0.1-30.2,0.5-44.8,1.1c-29.3,1.2-59.5,2.4-90.7-2.3c-22.2-3.3-45.2-0.9-67.4,1.5
			c-1.8,0.2-3.7,0.4-5.5,0.6c-5.5,0.6-11.2,1.8-16.6,3c-7.4,1.6-15,3.2-22.6,3.4C1516.3,917.1,1515,917.1,1513.8,917.1z"/>
	</g>
	<g>
		<path class="st0" d="M1482.8,908.8c-0.4,0-0.8,0-1.2,0c-9.2-0.2-18.2-1.5-26.9-2.8c-4.4-0.6-8.9-1.3-13.4-1.8
			c-10.3-1.2-20.8,0.2-30.9,1.6c-2.5,0.3-5,0.7-7.4,1c-26.5,3.2-57.8-0.9-85.4-4.4c-12.1-1.5-23.5-3-33.3-3.7
			c-15.9-1.1-32.3-2.3-49.2-1.1c-4.1,0.3-8.3,0.7-12.3,1.2c-6.4,0.7-13,1.4-19.6,1.5c-8.4,0.1-17-0.7-25.3-1.6
			c-2.1-0.2-4.2-0.4-6.3-0.6c-24.3-2.3-49.1-2.5-73.1-2.7c-15-0.1-30.2,0.5-44.8,1.1c-29.3,1.2-59.5,2.4-90.7-2.3
			c-22.2-3.3-45.2-0.9-67.4,1.5c-1.8,0.2-3.7,0.4-5.5,0.6c-5.5,0.6-11.2,1.8-16.6,3c-7.4,1.6-15,3.2-22.6,3.4
			c-14.5,0.3-28.3-1.1-41.6-2.5c-12.2-1.3-24.8-2.6-38.1-2.6c0,0-0.1,0-0.1,0c-7.5,0-16.4,1-25,1.9c-3.9,0.4-7.6,0.8-11.1,1.1
			c-38.9,3.4-92.7,1.1-116.7-3.1c-13.9-2.4-30.6-0.8-49.9,1.1c-24.8,2.4-53,5.1-86,0.9c-7-0.9-14.2-0.6-21.2-0.2
			c-6,0.3-12.2,0.6-18.2,0.1c-4.9-0.4-9.9-1-14.8-1.6c-8.8-1.1-18-2.2-27-2c-6.9,0.2-13.8,1.2-20.5,2.1c-4.7,0.7-9.6,1.4-14.4,1.8
			c-18.3,1.6-37-0.8-55.1-3.1c-20.2-2.6-41.1-5.3-61.5-2.3c-4.1,0.6-8.2,1.4-12.2,2.2c-8.6,1.7-17.6,3.5-26.5,3
			c-2.7-0.1-5.4-0.5-8-0.8c-2.9-0.4-5.9-0.8-8.8-0.9c-7.8-0.3-15.6,1.3-23.1,2.9c-7.4,1.5-15,3.2-22.7,3c-9.2-0.2-18.2-1.5-26.9-2.8
			c-4.4-0.6-8.9-1.3-13.4-1.8c-10.3-1.2-20.8,0.2-30.9,1.6c-2.5,0.3-5,0.7-7.4,1c-21,2.5-44,0.7-66.3-1c-18.1-1.4-35.1-2.7-49.6-1.6
			l-0.1-0.8c14.5-1.1,31.6,0.2,49.7,1.6c22.2,1.7,45.2,3.5,66.1,1c2.5-0.3,4.9-0.6,7.4-1c10.2-1.4,20.8-2.8,31.1-1.6
			c4.5,0.5,9.1,1.2,13.4,1.8c8.7,1.3,17.7,2.6,26.8,2.8c7.6,0.2,15.1-1.4,22.5-2.9c7.6-1.6,15.4-3.2,23.3-2.9c3,0.1,6,0.5,8.9,0.9
			c2.6,0.3,5.3,0.7,7.9,0.8c8.8,0.5,17.7-1.3,26.3-3c4-0.8,8.1-1.6,12.2-2.2c20.5-3,41.5-0.3,61.7,2.3c18,2.3,36.6,4.7,54.9,3.1
			c4.8-0.4,9.6-1.1,14.3-1.8c6.7-1,13.7-2,20.6-2.1c9.1-0.2,18.2,0.9,27.1,2c4.8,0.6,9.8,1.2,14.7,1.6c6,0.5,12.2,0.2,18.1-0.1
			c7-0.3,14.3-0.7,21.3,0.2c32.9,4.2,61,1.5,85.8-0.9c19.4-1.9,36.1-3.5,50.2-1c23.9,4.1,77.7,6.4,116.5,3.1
			c3.4-0.3,7.1-0.7,11.1-1.1c8.6-0.9,17.5-1.9,25.1-1.9c0,0,0.1,0,0.1,0c13.3,0,26,1.3,38.2,2.6c13.3,1.4,27,2.8,41.5,2.5
			c7.5-0.1,15.1-1.8,22.4-3.3c5.5-1.2,11.1-2.4,16.7-3c1.8-0.2,3.7-0.4,5.5-0.6c22.3-2.4,45.3-4.9,67.6-1.5
			c31.1,4.7,61.3,3.5,90.5,2.3c14.6-0.6,29.7-1.2,44.8-1.1c24,0.2,48.8,0.4,73.1,2.7c2.1,0.2,4.2,0.4,6.3,0.6
			c8.2,0.8,16.8,1.7,25.2,1.6c6.5-0.1,13.1-0.8,19.5-1.5c4-0.4,8.2-0.9,12.4-1.2c16.9-1.2,33.4,0,49.3,1.1
			c9.9,0.7,21.3,2.2,33.4,3.7c27.6,3.5,58.8,7.5,85.2,4.4c2.5-0.3,4.9-0.6,7.4-1c10.2-1.4,20.8-2.8,31.1-1.6
			c4.5,0.5,9.1,1.2,13.4,1.8c8.7,1.3,17.7,2.6,26.8,2.8c7.5,0.2,15.1-1.4,22.5-2.9c7.6-1.6,15.4-3.2,23.3-2.9c3,0.1,6,0.5,8.9,0.9
			c2.6,0.3,5.3,0.7,7.9,0.8c8.8,0.5,17.7-1.3,26.3-3c4-0.8,8.1-1.6,12.2-2.2c20.5-3,41.5-0.3,61.7,2.3c18,2.3,36.6,4.7,54.9,3.1
			c4.8-0.4,9.6-1.1,14.3-1.8c6.7-1,13.7-2,20.6-2.1c9.1-0.2,18.2,0.9,27.1,2c4.8,0.6,9.8,1.2,14.7,1.6c6,0.5,12.2,0.2,18.1-0.1
			c7-0.3,14.3-0.7,21.3,0.2c31.4,4,61.3,2.3,85.3,0.8c21.8-1.3,39-2.3,50.1,1.1l-0.2,0.8c-11-3.4-28.1-2.4-49.9-1.1
			c-24,1.4-53.9,3.2-85.4-0.8c-7-0.9-14.2-0.6-21.2-0.2c-6,0.3-12.2,0.6-18.2,0.1c-4.9-0.4-9.9-1-14.8-1.6c-8.8-1.1-18-2.2-27-2
			c-6.9,0.2-13.8,1.2-20.6,2.1c-4.7,0.7-9.6,1.4-14.4,1.8c-18.3,1.6-37-0.8-55.1-3.1c-20.2-2.6-41.1-5.3-61.5-2.3
			c-4.1,0.6-8.2,1.4-12.2,2.2c-8.6,1.7-17.6,3.5-26.5,3c-2.7-0.1-5.4-0.5-8-0.8c-2.9-0.4-5.9-0.8-8.8-0.9
			c-7.7-0.3-15.6,1.3-23.1,2.9C1497.3,907.3,1490.1,908.8,1482.8,908.8z"/>
	</g>
	<g>
		<path class="st0" d="M1376.6,903.6c-3.8,0-7.5-0.1-11.1-0.3c-29-1.9-58.8-6-81.9-11.4c-10.6-2.5-26.6-1.7-46.7-0.8
			c-24.6,1.1-55.2,2.6-88.1-1.6c-7-0.9-14.2-0.6-21.2-0.2c-6,0.3-12.2,0.6-18.2,0.1c-4.9-0.4-9.9-1-14.8-1.6c-8.8-1.1-18-2.2-27-2
			c-6.9,0.2-13.8,1.2-20.6,2.1c-4.7,0.7-9.6,1.4-14.4,1.8c-18.3,1.6-37-0.8-55.1-3.1c-20.2-2.6-41.1-5.3-61.5-2.3
			c-4.1,0.6-8.2,1.4-12.2,2.2c-8.6,1.7-17.6,3.5-26.5,3c-2.7-0.1-5.4-0.5-8-0.8c-2.9-0.4-5.9-0.8-8.8-0.9
			c-7.8-0.3-15.6,1.3-23.1,2.9c-7.4,1.5-15,3.2-22.7,3c-9.2-0.2-18.2-1.5-26.9-2.8c-4.4-0.6-8.9-1.3-13.4-1.8
			c-10.3-1.2-20.8,0.2-30.9,1.6c-2.5,0.3-5,0.7-7.4,1c-38.7,4.6-99.2,2-116.7,0.1c-28.4-3-61.2-3-92.2-0.2
			c-5.5,0.5-11.1,1.2-16.6,1.9c-12.6,1.6-25.6,3.3-38.4,2.3c-7.5-0.6-15-2-22.2-3.5c-7-1.4-14.3-2.8-21.5-3.4c-11-0.9-22.2,0.1-33,1
			c-2.8,0.2-5.6,0.5-8.3,0.7c-36.6,2.8-74,0.4-110-2c-11.4-0.8-23.1-1.5-34.7-2.1c-10-0.5-20.7-1-31.5-0.3c-8,0.5-16.2,2.3-24.1,4.1
			c-11.6,2.6-23.7,5.3-35.5,3.8c-11.5-1.4-22.6-1.6-35.7-1.5c-2.3,0-4.5,0-6.8,0c-8.4,0-16.3,0-24.5,1.6
			c-18.1,3.6-35.5,4.8-51.7,3.8l-3-0.2c-25.4-1.6-51.7-3.3-76.5-7.3l0.1-0.8c24.8,4,51,5.6,76.4,7.2l3,0.2c16.2,1,33.5-0.2,51.5-3.8
			c8.3-1.6,16.2-1.6,24.7-1.6c2.2,0,4.5,0,6.8,0c13.2-0.2,24.3,0,35.8,1.5c11.7,1.5,23.7-1.2,35.2-3.8c7.9-1.8,16.2-3.6,24.3-4.1
			c10.9-0.7,21.6-0.2,31.6,0.3c11.6,0.6,23.3,1.4,34.7,2.1c36.1,2.4,73.4,4.9,109.9,2c2.8-0.2,5.6-0.5,8.3-0.7c10.9-1,22.1-2,33.1-1
			c7.3,0.6,14.6,2,21.6,3.4c7.2,1.4,14.7,2.9,22.1,3.5c12.8,1,25.7-0.7,38.3-2.3c5.4-0.7,11.1-1.4,16.6-1.9
			c31.1-2.8,63.9-2.8,92.4,0.2c17.5,1.8,77.9,4.5,116.6-0.1c2.5-0.3,4.9-0.6,7.4-1c10.2-1.4,20.8-2.8,31.2-1.6
			c4.5,0.5,9.1,1.2,13.4,1.8c8.7,1.3,17.7,2.6,26.8,2.8c7.5,0.2,15.1-1.4,22.5-2.9c7.6-1.6,15.4-3.2,23.3-2.9c3,0.1,6,0.5,8.9,0.9
			c2.6,0.3,5.3,0.7,7.9,0.8c8.8,0.5,17.7-1.3,26.3-3c4-0.8,8.1-1.6,12.2-2.2c20.5-3,41.5-0.3,61.7,2.3c18,2.3,36.6,4.7,54.9,3.1
			c4.8-0.4,9.6-1.1,14.3-1.8c6.7-1,13.7-2,20.6-2.1c9.1-0.2,18.2,0.9,27.1,2c4.8,0.6,9.8,1.2,14.7,1.6c6,0.5,12.2,0.2,18.1-0.1
			c7-0.3,14.3-0.7,21.3,0.2c32.8,4.2,63.4,2.8,88,1.6c20.2-0.9,36.2-1.7,46.9,0.8c23,5.4,52.8,9.5,81.8,11.4
			c16.2,1,33.5-0.2,51.5-3.8c8.3-1.6,16.2-1.6,24.7-1.6c2.3,0,4.5,0,6.8,0c13.2-0.2,24.3,0,35.8,1.5c11.7,1.5,23.7-1.2,35.2-3.8
			c7.9-1.8,16.2-3.6,24.3-4.1c10.8-0.7,21.6-0.2,31.6,0.3c11.6,0.6,23.3,1.4,34.7,2.1c36.1,2.4,73.4,4.9,109.9,2
			c2.8-0.2,5.6-0.5,8.3-0.7c10.9-1,22.1-2,33.1-1c7.3,0.6,14.6,2,21.6,3.4c7.2,1.4,14.7,2.9,22.1,3.5c12.8,1,25.7-0.7,38.3-2.3
			c5.4-0.7,11.1-1.4,16.6-1.9c28.5-2.6,58.2,0.8,86.9,4.2l3.8,0.4l-0.1,0.8l-3.8-0.4c-28.7-3.3-58.4-6.7-86.8-4.2
			c-5.5,0.5-11.1,1.2-16.6,1.9c-12.6,1.6-25.6,3.3-38.4,2.3c-7.5-0.6-15-2-22.2-3.5c-7-1.4-14.3-2.8-21.5-3.4c-11-0.9-22.2,0.1-33,1
			c-2.8,0.2-5.6,0.5-8.3,0.7c-36.6,2.8-74,0.4-110-2c-11.4-0.8-23.1-1.5-34.7-2.1c-10-0.5-20.7-1-31.5-0.3c-8,0.5-16.2,2.3-24.2,4.1
			c-11.6,2.6-23.7,5.3-35.5,3.8c-11.5-1.4-22.6-1.6-35.7-1.5c-2.3,0-4.5,0-6.8,0c-8.4,0-16.3,0-24.5,1.6
			C1403.2,902.2,1389.6,903.6,1376.6,903.6z"/>
	</g>
	<g>
		<path class="st0" d="M1950.8,897.9c-28.8-4.5-54.7-6.3-77-5.3c-5.5,0.2-11.1,0.6-16.5,1c-17.3,1.1-35.2,2.3-52.6-0.4
			c-4.5-0.7-9-1.7-13.4-2.6c-7.1-1.5-14.5-3.1-21.9-3.6c-9.7-0.6-19.6,0.9-29.1,2.2c-2.8,0.4-5.6,0.8-8.4,1.2
			c-32.9,4.2-66.6,1.7-99.2-0.6c-33.3-2.4-67.8-4.9-101.3-0.3c-3.8,0.5-7.7,1.2-11.5,1.8c-10.1,1.6-20.6,3.3-31,3.2
			c-7.8-0.1-15.6-1.2-23.1-2.2c-7.8-1.1-15.9-2.2-23.9-2.2c0,0-0.1,0-0.1,0c-9.2,0-18.4,1.5-27.4,2.9c-7.6,1.2-15.5,2.5-23.3,2.8
			c-25.1,1.1-48.5-2.4-75.6-6.4c-10.4-1.6-21.2-3.2-32.8-4.6c-28.6-3.6-58.9-6.9-89.1-4.1c-5.5,0.5-11.1,1.2-16.6,1.9
			c-12.6,1.6-25.6,3.3-38.4,2.3c-7.5-0.6-15-2-22.2-3.5c-7-1.4-14.3-2.8-21.5-3.4c-11-0.9-22.2,0.1-33,1c-2.8,0.2-5.6,0.5-8.3,0.7
			c-36.6,2.8-74,0.4-110.1-2c-11.4-0.8-23.1-1.5-34.7-2.1c-10-0.5-20.7-1-31.5-0.3c-8,0.5-16.2,2.3-24.2,4.1
			c-11.6,2.6-23.7,5.3-35.5,3.8c-11.5-1.4-22.6-1.6-35.7-1.5c-2.3,0-4.5,0-6.8,0c-8.4,0-16.3,0-24.5,1.6
			c-18.1,3.6-35.5,4.8-51.7,3.8c-9.7-0.6-19.9-0.9-29.8-1.2c-17-0.5-34.6-0.9-50.9-3.1c-22.1-3-37.7-0.6-52.8,1.6
			c-8.2,1.2-15.9,2.4-24.5,2.7c-5.5,0.2-11.1,0.6-16.5,1c-17.3,1.1-35.2,2.3-52.6-0.4c-4.5-0.7-9-1.7-13.4-2.6
			c-7.1-1.5-14.5-3.1-21.9-3.6c-9.7-0.6-19.6,0.9-29.1,2.2c-2.8,0.4-5.6,0.8-8.4,1.2c-32.9,4.2-66.6,1.7-99.2-0.6
			c-33.3-2.4-67.8-4.9-101.3-0.3c-3.8,0.5-7.8,1.2-11.5,1.8c-10.1,1.6-20.5,3.3-30.9,3.2c-7.8-0.1-15.6-1.2-23.1-2.2
			c-7.8-1.1-15.9-2.2-23.9-2.2c0,0-0.1,0-0.1,0c-9.2,0-18.4,1.5-27.4,2.9c-7.6,1.2-15.5,2.5-23.3,2.8c-32.6,1.5-60.7,2.7-103.5-3.1
			l0.1-0.8c42.7,5.8,70.8,4.5,103.4,3.1c7.8-0.4,15.6-1.6,23.2-2.8c9-1.4,18.2-2.9,27.5-2.9c8.1,0,16.2,1.1,24.1,2.2
			c7.5,1,15.3,2.1,23,2.2c10.3,0.1,20.7-1.6,30.8-3.2c3.8-0.6,7.7-1.2,11.5-1.8c33.6-4.6,68.1-2.1,101.5,0.3
			c32.6,2.4,66.3,4.8,99.1,0.6c2.8-0.4,5.7-0.8,8.4-1.2c9.6-1.4,19.5-2.8,29.3-2.2c7.5,0.4,14.9,2,22.1,3.6
			c4.4,0.9,8.9,1.9,13.3,2.6c17.3,2.7,35.1,1.5,52.4,0.4c5.4-0.4,11-0.7,16.5-1c8.6-0.4,16.3-1.5,24.4-2.7
			c15.2-2.3,30.8-4.6,53.1-1.6c16.2,2.2,33.8,2.6,50.8,3.1c9.9,0.3,20.2,0.5,29.8,1.2c16.2,1,33.5-0.2,51.5-3.8
			c8.3-1.6,16.2-1.6,24.7-1.6c2.3,0,4.5,0,6.8,0c13.2-0.2,24.3,0,35.8,1.5c11.7,1.5,23.7-1.2,35.2-3.8c7.9-1.8,16.2-3.6,24.3-4.1
			c10.8-0.7,21.6-0.2,31.6,0.3c11.6,0.6,23.3,1.4,34.7,2.1c36.1,2.4,73.4,4.9,109.9,2c2.8-0.2,5.6-0.5,8.3-0.7c10.9-1,22.1-2,33.1-1
			c7.3,0.6,14.6,2,21.6,3.4c7.2,1.4,14.7,2.9,22.1,3.5c12.8,1,25.7-0.7,38.3-2.3c5.4-0.7,11.1-1.4,16.6-1.9
			c30.2-2.7,60.6,0.5,89.2,4.1c11.6,1.5,22.4,3.1,32.8,4.6c27.1,4.1,50.4,7.6,75.5,6.4c7.8-0.4,15.6-1.6,23.2-2.8
			c9-1.4,18.2-2.9,27.5-2.9c0,0,0.1,0,0.1,0c8.1,0,16.2,1.1,24,2.2c7.5,1,15.3,2.1,23,2.2c10.4,0.1,20.7-1.6,30.8-3.2
			c3.8-0.6,7.7-1.2,11.5-1.8c33.6-4.6,68.1-2.1,101.5,0.3c32.6,2.4,66.3,4.8,99.1,0.6c2.8-0.4,5.7-0.8,8.4-1.2
			c9.6-1.4,19.5-2.8,29.3-2.2c7.5,0.4,14.9,2,22.1,3.6c4.4,0.9,8.9,1.9,13.3,2.6c17.3,2.7,35.1,1.6,52.4,0.4c5.4-0.4,11-0.7,16.5-1
			c22.4-1,48.3,0.8,77.1,5.3L1950.8,897.9z"/>
	</g>
	<g>
		<path class="st0" d="M1950.8,890.1c-35.9-5.2-61.4-3.5-83.9-2.1c-20.2,1.3-39.3,2.6-62.4-1.4c-11.5-2-41.7-5.2-54.4-4.5
			c-4.9,0.3-9.8,0.9-14.6,1.5c-4.7,0.6-9.7,1.2-14.5,1.5c-10.9,0.7-22-0.3-32.7-1.1c-1.6-0.1-3.2-0.3-4.7-0.4
			c-13.2-1-27.7-1.8-45.6-2.5c-20.3-0.8-81.1-1.8-103.7,0.6c-26,2.7-52,2.7-77.2,2.7c-28.5,0-57.9,0-87.3,3.9
			c-23.1,3.1-35.6-0.1-50-3.8c-9.9-2.6-21.2-5.5-37.6-6.5c-7.8-0.5-15.8-1.2-23.4-1.9c-16.9-1.5-34.3-3.1-51.5-2.3
			c-5.5,0.2-11.1,0.6-16.5,1c-17.3,1.1-35.2,2.3-52.6-0.4c-4.5-0.7-9-1.7-13.4-2.6c-7.1-1.5-14.5-3.1-21.9-3.6
			c-9.7-0.6-19.6,0.9-29.1,2.2c-2.8,0.4-5.6,0.8-8.4,1.2c-32.9,4.2-66.6,1.7-99.2-0.6c-33.3-2.4-67.8-4.9-101.3-0.3
			c-3.8,0.5-7.7,1.2-11.5,1.8c-10.1,1.6-20.6,3.3-31,3.2c-7.8-0.1-15.6-1.2-23.1-2.2c-7.8-1.1-15.9-2.2-23.9-2.2c0,0-0.1,0-0.1,0
			c-9.2,0-18.4,1.5-27.4,2.9c-7.6,1.2-15.5,2.5-23.3,2.8c-7,0.3-13.9,0.7-20.6,1.1c-26.6,1.6-51.7,3.1-84.9-1.4
			c-36.1-5.2-62.1-1.2-85,2.3c-20.3,3.1-39.5,6.1-62.4,2.2c-11.5-2-41.7-5.2-54.4-4.5c-4.9,0.3-9.8,0.9-14.6,1.5
			c-4.8,0.6-9.7,1.2-14.5,1.5c-10.9,0.7-22-0.3-32.7-1.1c-1.6-0.1-3.2-0.3-4.7-0.4c-13.2-1-27.7-1.9-45.6-2.5
			c-20.3-0.8-81.1-1.8-103.7,0.6c-26,2.7-52,2.7-77.2,2.7c-28.5,0-57.9,0-87.3,3.9c-22.1,3-32.6,1.6-44.8,0.1
			c-9.2-1.2-19.7-2.5-37.1-2l0-0.8c17.5-0.6,28,0.8,37.3,2c12.1,1.5,22.6,2.9,44.6-0.1c29.5-4,58.9-3.9,87.4-3.9
			c25.2,0,51.2,0,77.1-2.7c22.7-2.4,83.5-1.4,103.9-0.6c18,0.7,32.5,1.5,45.6,2.6c1.6,0.1,3.2,0.3,4.7,0.4
			c10.7,0.9,21.7,1.8,32.5,1.1c4.8-0.3,9.7-0.9,14.5-1.5c4.8-0.6,9.7-1.2,14.6-1.5c12.8-0.8,43,2.5,54.6,4.5
			c22.8,3.9,41.9,0.9,62.1-2.2c23-3.5,49-7.6,85.3-2.3c33.1,4.5,58.2,3,84.8,1.4c6.7-0.4,13.5-0.8,20.6-1.1
			c7.8-0.4,15.7-1.6,23.3-2.8c9-1.4,18.2-2.9,27.5-2.9c0,0,0.1,0,0.1,0c8.1,0,16.2,1.1,24,2.2c7.5,1,15.3,2.1,23,2.2
			c10.4,0.1,20.7-1.6,30.8-3.2c3.8-0.6,7.7-1.2,11.5-1.8c33.6-4.6,68.1-2.1,101.5,0.3c32.6,2.4,66.3,4.8,99.1,0.6
			c2.8-0.4,5.7-0.8,8.4-1.2c9.6-1.4,19.5-2.8,29.3-2.2c7.5,0.4,14.9,2,22.1,3.6c4.4,0.9,8.9,1.9,13.3,2.6
			c17.3,2.7,35.1,1.6,52.4,0.4c5.4-0.4,11-0.7,16.5-1c17.3-0.8,34.7,0.8,51.6,2.3c7.7,0.7,15.6,1.4,23.4,1.9
			c16.5,1,27.8,3.9,37.8,6.5c14.3,3.7,26.7,6.9,49.7,3.8c29.5-4,58.9-3.9,87.4-3.9c25.1,0,51.2,0,77.1-2.7
			c22.7-2.4,83.5-1.4,103.9-0.6c17.9,0.7,32.4,1.5,45.6,2.5c1.6,0.1,3.2,0.3,4.8,0.4c10.7,0.9,21.7,1.8,32.5,1.1
			c4.8-0.3,9.7-0.9,14.5-1.5c4.8-0.6,9.7-1.2,14.6-1.5c12.8-0.8,43,2.5,54.6,4.5c23,3.9,42,2.7,62.2,1.3c22.6-1.5,48.2-3.1,84.1,2.1
			L1950.8,890.1z"/>
	</g>
	<g>
		<path class="st0" d="M1950.8,883.8c-30.7-3.2-60.5-5.9-88.3-4.2c-4.7,0.3-9.4,0.7-14,1.1c-12.1,1.1-24.6,2.2-36.9,1
			c-6.5-0.6-13.1-1.9-19.4-3.2c-6.6-1.3-13.4-2.7-20.2-3.2c-9.2-0.8-18.7-0.2-27.8,0.3l-3.3,0.2c-44.7,2.6-77.6,3.9-124.1-1.6
			l-0.9-0.1c-9.1-1.1-24.4-2.9-32.8-1.7c-3.1,0.4-7.1,0.9-11.4,1.3c-5.6,0.6-11.3,1.2-15.3,1.9c-16.2,2.8-32.6,2.1-48.6,1.5
			c-8.4-0.4-17.1-0.7-25.7-0.6c-2.9,0.1-5.7,0.1-8.5,0.1c-17.2,0.3-33.5,0.5-50.7,2.5c-8.7,1-19.8,0.8-31.7,0.5
			c-13.4-0.3-27.3-0.6-37.2,1.1c-20.4,3.5-31.5,0.6-48.4-3.8c-5.9-1.5-12.7-3.3-20.7-5c-27.3-5.7-53.4-4.3-78.7-2.8
			c-22.3,1.3-45.4,2.6-68.5-1.3c-11.5-2-41.7-5.2-54.4-4.5c-4.9,0.3-9.8,0.9-14.6,1.5c-4.8,0.6-9.7,1.2-14.5,1.5
			c-10.9,0.7-22-0.3-32.7-1.1c-1.6-0.1-3.2-0.3-4.7-0.4c-13.2-1-27.7-1.8-45.6-2.5c-20.3-0.8-81.1-1.8-103.7,0.6
			c-26,2.7-52,2.7-77.2,2.7c-28.5,0-57.9,0-87.3,3.9c-26.2,3.5-37.1,2.7-53.6,1.4c-8.2-0.6-17.6-1.4-30.9-1.7
			c-15.8-0.4-26.9,0.8-38.6,2.1c-12.8,1.4-27.4,3-50.5,2.7c-7.3-0.1-14.6,0.6-21.8,1.3c-9.5,0.9-19.4,1.8-29,0.9
			c-6.5-0.6-13.1-1.9-19.4-3.2c-6.6-1.3-13.4-2.7-20.2-3.2c-9.2-0.8-18.7-0.2-27.8,0.3l-3.3,0.2c-44.8,2.6-77.6,3.9-124.1-1.6
			l-0.9-0.1c-9.1-1.1-24.4-2.9-32.8-1.7c-3.1,0.4-7.1,0.9-11.4,1.3c-5.6,0.6-11.3,1.2-15.3,1.9c-16.2,2.8-32.6,2.1-48.6,1.5
			c-8.4-0.4-17.1-0.7-25.7-0.6c-2.9,0-5.7,0.1-8.5,0.1c-17.3,0.2-33.6,0.5-50.7,2.5c-8.7,1-19.8,0.8-31.7,0.5
			c-13.4-0.3-27.3-0.6-37.2,1.1c-13.7,2.3-23.9,0.6-33.7-1.1c-10.1-1.7-19.6-3.3-32.4-0.6l-0.2-0.8c12.9-2.7,22.5-1.1,32.7,0.6
			c9.8,1.6,19.9,3.3,33.4,1.1c10-1.7,23.9-1.4,37.4-1.1c11.8,0.3,23,0.5,31.6-0.5c17.2-2,33.6-2.3,50.8-2.5c2.8,0,5.7-0.1,8.5-0.1
			c8.6-0.1,17.3,0.2,25.8,0.6c15.9,0.7,32.3,1.4,48.4-1.5c4-0.7,9.8-1.3,15.4-1.9c4.3-0.5,8.3-0.9,11.3-1.3c8.5-1.2,23.8,0.6,33,1.7
			l0.9,0.1c46.5,5.5,79.3,4.2,124,1.6l3.3-0.2c9.2-0.6,18.6-1.1,27.9-0.3c6.9,0.6,13.7,1.9,20.3,3.3c6.3,1.2,12.8,2.5,19.3,3.2
			c9.6,0.9,19.4,0,28.9-0.9c7.2-0.7,14.6-1.4,21.9-1.3c23.1,0.3,37.6-1.3,50.4-2.7c11.8-1.3,22.9-2.5,38.7-2.1
			c13.3,0.3,22.7,1,30.9,1.7c16.4,1.3,27.2,2.1,53.4-1.4c29.5-4,58.9-3.9,87.4-3.9c25.2,0,51.2,0,77.1-2.7
			c22.7-2.4,83.5-1.4,103.9-0.6c17.9,0.7,32.4,1.5,45.6,2.5c1.6,0.1,3.2,0.3,4.7,0.4c10.7,0.9,21.7,1.8,32.5,1.1
			c4.8-0.3,9.7-0.9,14.5-1.5c4.8-0.6,9.7-1.2,14.6-1.5c12.8-0.8,43,2.5,54.6,4.5c23,3.9,45,2.6,68.3,1.3c25.3-1.4,51.5-2.9,78.9,2.8
			c8.1,1.7,14.8,3.4,20.8,5c16.7,4.3,27.8,7.2,48,3.8c10-1.7,23.9-1.4,37.4-1.1c11.8,0.3,23,0.5,31.6-0.5c17.2-2,33.5-2.3,50.8-2.5
			c2.8,0,5.7-0.1,8.5-0.1c8.6-0.1,17.3,0.2,25.8,0.6c15.9,0.7,32.3,1.4,48.4-1.5c4-0.7,9.8-1.3,15.4-1.9c4.3-0.5,8.3-0.9,11.3-1.3
			c8.5-1.2,23.8,0.6,33,1.7l0.9,0.1c46.5,5.5,79.3,4.2,124,1.6l3.3-0.2c9.1-0.6,18.6-1.1,27.9-0.3c6.8,0.6,13.7,1.9,20.3,3.3
			c6.3,1.2,12.8,2.5,19.3,3.2c12.2,1.2,24.7,0.1,36.7-1c4.6-0.4,9.3-0.8,14-1.1c27.9-1.7,57.7,1,88.4,4.2L1950.8,883.8z"/>
	</g>
	<g>
		<path class="st0" d="M1950.8,867.1c-7-0.6-14.1-1.3-21-2c-18.2-1.9-37.1-3.9-55.8-3.1c-5.9,0.2-11.9,0.8-17.7,1.4
			c-11.1,1.1-22.6,2.2-33.9,0.9c-5.3-0.6-10.6-1.7-15.7-2.7c-4.8-0.9-9.8-1.9-14.8-2.5c-16.9-2.2-34.2-0.1-51,1.9
			c-18.2,2.1-37.1,4.4-55.4,1.2c-3.7-0.6-7.5-1.5-11.1-2.3c-5.4-1.2-11-2.5-16.5-3.1c-11.2-1.2-22.7-0.2-33.7,0.7
			c-6.8,0.6-13.9,1.2-20.9,1.2c-8.7,0.1-17.5-0.6-26-1.2c-9.5-0.7-19.2-1.5-28.9-1.1c-8.1,0.3-16.4,1.5-24.3,2.6
			c-11.4,1.6-23.2,3.3-34.8,2.4c-30.3-2.4-64.7-4.3-78.2-4.2c-6,0-13.5,0.4-21.4,0.7c-10.8,0.5-23,1-34.8,1c-19.9,0-47-3-70.8-7.8
			c-22.3-4.5-45.9-3-68.7-1.5c-15.6,1-31.8,2.1-47.4,1.2c-10.5-0.6-21-2.2-31.2-3.7c-11.6-1.7-23.5-3.5-35.4-3.9
			c-11.8-0.4-23.7,0.6-35.3,1.6c-8.3,0.7-16.9,1.4-25.4,1.6c-17.6,0.4-35.5-1.4-52.8-3.1c-11.6-1.2-23.7-2.3-35.5-2.9
			c-26.3-1.1-53.1,1-78.9,3.1c-28,2.2-56.9,4.5-85.4,2.7c-6.4-0.4-13-1-19.3-1.7c-11.3-1.1-22.9-2.2-34.4-2.1
			c-15.1,0.1-31.5,2.7-47.5,5.2c-24,3.7-48.8,7.6-71,3.7c-15.8-2.8-30.6-0.4-46.3,2.1c-9.2,1.5-18.8,3-28.5,3.4
			c-5.9,0.2-11.9,0.8-17.7,1.4c-11.1,1.1-22.6,2.2-33.9,0.9c-5.3-0.6-10.6-1.7-15.7-2.7c-4.8-0.9-9.8-1.9-14.8-2.5
			c-16.9-2.2-34.2-0.1-51,1.9c-18.2,2.1-37.1,4.4-55.4,1.2c-3.7-0.6-7.4-1.5-11.1-2.3c-5.4-1.2-11-2.5-16.5-3.1
			c-11.2-1.2-22.7-0.2-33.7,0.7c-6.8,0.6-13.9,1.2-20.9,1.2c-8.7,0.1-17.5-0.6-26-1.2c-9.5-0.7-19.2-1.5-28.9-1.1
			c-8.1,0.3-16.4,1.5-24.3,2.6c-11.4,1.6-23.2,3.3-34.8,2.4c-30.3-2.4-64.7-4.3-78.2-4.2c-6,0-13.5,0.4-21.4,0.7
			c-10.8,0.5-23,1-34.8,1c-23.6,0-47.7-2.4-67.9-6.6l0.2-0.8c20.1,4.3,44.2,6.6,67.7,6.6c11.8,0,24-0.5,34.8-1
			c7.9-0.3,15.4-0.6,21.4-0.7c13.6-0.1,48,1.7,78.3,4.2c11.6,0.9,23.3-0.7,34.7-2.4c8-1.1,16.2-2.3,24.4-2.6
			c9.7-0.3,19.5,0.4,29,1.1c8.5,0.6,17.3,1.3,25.9,1.2c7-0.1,14-0.7,20.8-1.2c11.1-0.9,22.6-1.9,33.9-0.7c5.6,0.6,11.2,1.9,16.6,3.1
			c3.6,0.8,7.3,1.7,11,2.3c18.2,3.1,36.9,0.9,55.1-1.2c16.8-2,34.3-4,51.2-1.8c5,0.6,10,1.6,14.8,2.6c5.1,1,10.4,2,15.7,2.7
			c11.2,1.3,22.7,0.2,33.7-0.9c5.8-0.6,11.8-1.2,17.7-1.4c9.7-0.4,19.2-1.9,28.4-3.4c15.7-2.5,30.6-4.9,46.6-2.1
			c22,3.9,46.8,0,70.7-3.7c15.9-2.5,32.4-5.1,47.6-5.2c11.5-0.1,23.2,1,34.5,2.1c6.3,0.6,12.8,1.2,19.3,1.7
			c28.4,1.8,57.3-0.5,85.3-2.7c25.9-2.1,52.7-4.2,79-3.1c11.9,0.5,23.9,1.7,35.6,2.9c17.2,1.7,35.1,3.5,52.7,3.1
			c8.5-0.2,17.1-0.9,25.4-1.6c11.6-1,23.6-1.9,35.4-1.6c11.9,0.4,23.9,2.2,35.5,3.9c10.2,1.5,20.7,3.1,31.1,3.7
			c15.6,0.9,31.7-0.1,47.3-1.2c22.8-1.5,46.5-3,68.9,1.5c23.7,4.8,50.8,7.8,70.7,7.8c11.8,0,24-0.5,34.8-1
			c7.9-0.3,15.4-0.6,21.4-0.7c13.6-0.1,48,1.7,78.3,4.2c11.6,0.9,23.3-0.7,34.7-2.4c8-1.1,16.2-2.3,24.4-2.6
			c9.7-0.3,19.5,0.4,29,1.1c8.5,0.6,17.3,1.3,25.9,1.2c7-0.1,14-0.7,20.8-1.2c11.1-0.9,22.6-1.9,33.9-0.7c5.6,0.6,11.2,1.9,16.6,3.1
			c3.6,0.8,7.3,1.7,11,2.3c18.2,3.1,36.9,0.9,55.1-1.2c16.8-2,34.3-4,51.2-1.8c5,0.6,10,1.6,14.8,2.6c5.1,1,10.4,2,15.7,2.7
			c11.2,1.3,22.7,0.2,33.7-0.9c5.8-0.6,11.8-1.2,17.7-1.4c18.8-0.7,37.7,1.2,56,3.1c6.9,0.7,14,1.5,21,2L1950.8,867.1z"/>
	</g>
	<g>
		<path class="st0" d="M1950.8,859c-23.1-4.5-47.8-3.7-71.7-3c-15.1,0.5-30.8,1-45.7,0.1c-6.6-0.4-13.2-0.8-19.6-1.2
			c-15.5-1-30.2-1.9-45.9-2.4c-11.8-0.4-23.7,0.6-35.3,1.6c-8.3,0.7-16.9,1.4-25.4,1.6c-17.6,0.4-35.5-1.4-52.8-3.1
			c-11.6-1.2-23.7-2.3-35.5-2.9c-26.3-1.1-53.1,1-78.9,3.1c-28,2.2-56.9,4.5-85.4,2.7c-6.4-0.4-13-1-19.3-1.7
			c-11.3-1.1-22.9-2.2-34.4-2.1c-40.7,0.3-80.2-0.1-115.5-8.5c-19.6-4.6-39.3-2.7-58.4-0.9c-4.8,0.5-9.7,0.9-14.5,1.3
			c-12.6,1-25.5-0.4-37.9-1.8c-2.1-0.2-4.1-0.4-6.2-0.7c-35.2-3.7-71.2-4.3-106.1-5c-9-0.2-18.2,0.4-27.2,1c-9,0.6-18.3,1.2-27.3,1
			c-15.9-0.3-31.2-1.2-46.1-2.1c-32.2-2-65.4-4-104.9,0.6c-28,3.3-61.2,6.1-94.5,1.8c-4.1-0.5-8.3-1.2-12.3-1.9
			c-7.7-1.3-15.7-2.6-23.7-2.9c-12.8-0.5-25.6,2.6-39.1,5.9c-19.7,4.9-42,10.4-71.6,6.8c-20.6-2.5-41.8-0.4-62.3,1.7
			c-17.4,1.8-35.5,3.6-53.1,2.5c-6.6-0.4-13.2-0.8-19.6-1.2c-15.5-1-30.2-1.9-45.9-2.4c-11.8-0.4-23.7,0.6-35.3,1.6
			c-8.3,0.7-16.9,1.4-25.4,1.6c-17.6,0.4-35.5-1.4-52.8-3.1c-11.6-1.2-23.7-2.3-35.5-2.9c-26.3-1.1-53.1,1-78.9,3.1
			c-28,2.2-56.9,4.5-85.4,2.7c-6.4-0.4-13-1-19.3-1.7c-11.3-1.1-23-2.2-34.4-2.1c-6.9,0.1-14,0.2-20.9,0.4
			c-31.2,0.7-63.5,1.4-93.1-6.7l0.2-0.8c29.5,8.1,61.7,7.4,92.8,6.7c6.9-0.2,14-0.3,20.9-0.4c11.6-0.1,23.2,1,34.5,2.1
			c6.3,0.6,12.8,1.2,19.3,1.7c28.4,1.8,57.3-0.5,85.3-2.7c25.9-2.1,52.7-4.2,79-3.1c11.9,0.5,23.9,1.7,35.6,2.9
			c17.2,1.7,35.1,3.5,52.7,3.1c8.5-0.2,17.1-0.9,25.4-1.6c11.6-1,23.6-1.9,35.4-1.6c15.7,0.5,30.4,1.4,45.9,2.4
			c6.4,0.4,12.9,0.8,19.6,1.2c17.6,1,35.6-0.8,53-2.5c20.5-2.1,41.8-4.2,62.5-1.7c29.4,3.6,51.7-1.9,71.3-6.8
			c13.6-3.3,26.4-6.5,39.3-6c8,0.3,16,1.6,23.8,2.9c4,0.7,8.2,1.3,12.3,1.9c33.3,4.3,66.3,1.5,94.3-1.8c39.6-4.6,72.9-2.6,105.1-0.6
			c14.8,0.9,30.2,1.8,46.1,2.1c9,0.2,18.2-0.4,27.2-1c9-0.6,18.3-1.2,27.3-1c34.8,0.6,70.9,1.3,106.1,5c2.1,0.2,4.1,0.4,6.2,0.7
			c12.4,1.4,25.2,2.8,37.7,1.8c4.8-0.4,9.7-0.8,14.5-1.3c19.1-1.9,38.9-3.8,58.6,0.9c35.2,8.3,74.6,8.7,115.3,8.4
			c11.6-0.1,23.2,1,34.5,2.1c6.3,0.6,12.8,1.2,19.3,1.7c28.4,1.8,57.3-0.5,85.3-2.7c25.9-2.1,52.7-4.2,79-3.1
			c11.9,0.5,23.9,1.7,35.6,2.9c17.2,1.7,35.1,3.5,52.7,3.1c8.5-0.2,17.1-0.9,25.4-1.6c11.6-1,23.6-1.9,35.4-1.6
			c15.7,0.5,30.4,1.4,45.9,2.4c6.4,0.4,12.9,0.8,19.6,1.2c14.9,0.9,30.5,0.4,45.6-0.1c23.9-0.7,48.7-1.5,71.8,3L1950.8,859z"/>
	</g>
	<g>
		<path class="st0" d="M1465.5,850.3c-11.9,0-24.1-0.6-36.3-2.2c-4.1-0.5-8.2-1.3-12.2-2c-7.8-1.4-15.8-2.8-23.8-2.8
			c-26.6,0.2-53.8-2.3-75.7-4.3c-14.4-1.3-25.8-2.4-32.7-2.2c-13.5,0.3-27.5-1.4-41.1-2.9c-15.6-1.8-31.7-3.7-47-2.7
			c-4.7,0.3-9.4,0.7-14,1.1c-12.1,1.1-24.6,2.2-36.9,1c-5.2-0.5-10.4-1-15.5-1.6c-7.9-0.8-16-1.7-24.1-2.4
			c-9.2-0.8-18.7-0.2-27.8,0.3l-3.3,0.2c-44.7,2.6-77.6,3.9-124.1-1.6c-8.7-1-25-1.7-33.7-1.8c-22.5,0-44,2.1-63,4
			c-14.2,1.4-26.5,2.6-37.1,2.7c-3,0.1-6.1,0.1-9.1,0.2c-16.8,0.4-34.2,0.8-51-2.6c-19.5-3.9-51.2-5.7-70.4-1.8
			c-29.8,6.1-39.8,5.6-50.4,5c-6.1-0.3-12.5-0.6-23,0.4c-6.3,0.6-12.5,2-19.6,3.6c-12.4,2.8-26.4,6-46.5,6.3
			c-12.5,0.2-25.5-1.2-38.1-2.6c-2.3-0.2-4.5-0.5-6.7-0.7c-31.7-3.3-66.5-5.7-106-0.9c-18.6,2.3-38,2.3-54.5,2
			c-15.9-0.3-31.2-1.2-46.1-2.1c-32.2-2-65.4-4-104.9,0.6c-28,3.3-61.2,6.1-94.5,1.8c-4.1-0.5-8.2-1.3-12.2-2
			c-7.8-1.4-15.8-2.8-23.8-2.8c-22.6,0.2-45.6-1.9-64-3.6c-18.3-1.7-32.8-3-41.3-1.8l-0.1-0.8c8.5-1.2,23.1,0.1,41.4,1.8
			c18.4,1.7,41.4,3.8,64,3.6c8.1,0,16.1,1.4,23.9,2.8c4,0.7,8.1,1.5,12.2,2c33.3,4.3,66.3,1.5,94.3-1.8c39.6-4.6,72.9-2.6,105.1-0.6
			c14.8,0.9,30.2,1.8,46.1,2.1c16.5,0.3,35.8,0.3,54.4-2c39.6-4.9,74.4-2.5,106.2,0.8c2.2,0.2,4.5,0.5,6.7,0.7
			c12.6,1.4,25.6,2.8,38,2.6c20.1-0.3,34-3.5,46.4-6.3c6.8-1.6,13.3-3,19.7-3.6c10.6-1.1,17-0.7,23.1-0.4c10.5,0.5,20.5,1,50.2-5
			c19.3-3.9,51.1-2.2,70.7,1.8c16.8,3.4,34.1,3,50.9,2.6c3-0.1,6.1-0.1,9.1-0.2c10.6-0.2,22.8-1.4,37.1-2.7c19-1.8,40.6-3.9,63.1-4
			c8.8,0,25.1,0.7,33.8,1.8c46.5,5.5,79.3,4.2,124,1.6l3.3-0.2c9.1-0.6,18.6-1.1,27.9-0.3c8.1,0.7,16.3,1.5,24.1,2.4
			c5.1,0.5,10.3,1.1,15.5,1.6c12.2,1.2,24.7,0.1,36.7-1c4.6-0.4,9.3-0.8,14-1.1c15.4-1,31.6,0.9,47.2,2.7c13.6,1.6,27.6,3.2,41,2.9
			c7-0.1,18.4,0.9,32.8,2.2c21.8,2,49,4.5,75.6,4.3c8-0.1,16.1,1.4,23.9,2.8c4,0.7,8.1,1.5,12.2,2c33.3,4.3,66.3,1.5,94.3-1.8
			c39.6-4.6,72.9-2.6,105.1-0.6c14.8,0.9,30.2,1.8,46.1,2.1c16.5,0.3,35.8,0.3,54.4-2c39.6-4.9,74.4-2.5,106.2,0.8
			c3.5,0.4,7.2,0.8,10.7,1.3c11.3,1.4,22.9,2.9,34,2c4.9-0.4,9.7-0.8,14.4-1.3c18.9-1.8,36.7-3.5,56.5,0.5l-0.2,0.8
			c-19.7-3.9-37.5-2.3-56.3-0.5c-4.7,0.4-9.5,0.9-14.4,1.3c-11.2,0.8-22.8-0.6-34.1-2c-3.5-0.4-7.2-0.9-10.7-1.3
			c-31.7-3.3-66.5-5.7-106-0.9c-18.6,2.3-38,2.3-54.5,2c-15.9-0.3-31.2-1.2-46.1-2.1c-32.2-2-65.4-4-104.9,0.6
			C1506,848.4,1486.1,850.3,1465.5,850.3z"/>
	</g>
	<g>
		<path class="st0" d="M1941.3,877.6c-6.5,0-13.4-1.3-20.1-2.5c-4.9-0.9-9.5-1.8-13.9-2.2c-8-0.7-16.2,0-24.1,0.8
			c-3.5,0.3-7.2,0.7-10.8,0.9c-1.6,0.1-3.2,0.2-4.8,0.3c-15.5,0.9-31.6,1.8-47.1-0.5c-39.6-5.9-72.9-4.9-108.2-3.8
			c-33.3,1-67.7,2.1-109.6-2.8c-16.5-1.9-36.5,1-52,3.8c-11.7,2.1-27.8,1-40.8,0.1c-2.5-0.2-4.9-0.3-7.2-0.5
			c-60.2-3.4-96.6-2.6-149.8,3.3c-14.5,1.6-31.4-1.8-47.8-5.2c-8.1-1.7-15.8-3.2-23.1-4.2c-33.7-4.4-61.1-5.7-86.2-4.1
			c-4.7,0.3-9.4,0.7-14,1.1c-12.1,1.1-24.6,2.2-36.9,1c-6.5-0.6-13.1-1.9-19.4-3.2c-6.6-1.3-13.4-2.7-20.2-3.2
			c-9.2-0.8-18.7-0.2-27.8,0.3l-3.3,0.2c-44.7,2.6-77.6,3.9-124.1-1.6l-0.9-0.1c-9.1-1.1-24.4-2.9-32.8-1.7
			c-3.1,0.4-7.1,0.9-11.4,1.3c-5.6,0.6-11.3,1.2-15.3,1.9c-16.2,2.8-32.6,2.1-48.6,1.5c-8.4-0.4-17.1-0.7-25.7-0.6
			c-2.9,0.1-5.7,0.1-8.5,0.1c-17.2,0.3-33.5,0.5-50.7,2.5c-8.7,1-19.8,0.8-31.7,0.5c-13.4-0.3-27.3-0.6-37.2,1.1
			c-13.4,2.3-24.2,1-34.6-0.1c-11.2-1.3-21.8-2.5-34.8,0.7c-17.4,4.2-32.1,5.8-43.7,4.8c-8-0.7-16.2,0-24,0.8
			c-3.5,0.3-7.2,0.7-10.8,0.9c-1.6,0.1-3.2,0.2-4.8,0.3c-15.5,0.9-31.6,1.8-47.1-0.5c-39.6-5.9-72.9-4.9-108.2-3.8
			c-33.3,1-67.7,2.1-109.6-2.8c-16.7-1.9-37.7,1.2-52,3.8c-11.7,2.1-27.8,1-40.8,0.1c-2.5-0.2-4.9-0.3-7.2-0.5
			c-60.2-3.4-96.6-2.6-149.8,3.3c-19,2.1-39,1.3-64.9-2.8l0.1-0.8c25.8,4.1,45.8,4.9,64.7,2.8c53.2-6,89.7-6.8,150-3.3
			c2.3,0.1,4.7,0.3,7.2,0.5c13,0.9,29.1,1.9,40.7-0.1c15.6-2.8,35.6-5.7,52.2-3.8c41.8,4.8,76.2,3.8,109.5,2.8
			c35.3-1.1,68.7-2.1,108.3,3.8c15.5,2.3,31.5,1.4,46.9,0.5c1.6-0.1,3.2-0.2,4.8-0.3c3.6-0.2,7.2-0.5,10.8-0.9
			c7.9-0.7,16.1-1.5,24.2-0.8c11.5,1,26.1-0.6,43.4-4.7c13.1-3.1,23.8-1.9,35.1-0.7c10.4,1.2,21.1,2.4,34.4,0.1
			c10-1.7,23.9-1.4,37.4-1.1c11.8,0.3,23,0.5,31.6-0.5c17.2-2,33.5-2.3,50.8-2.5c2.8,0,5.7-0.1,8.5-0.1c8.6-0.1,17.3,0.2,25.8,0.6
			c15.9,0.7,32.3,1.4,48.4-1.5c4-0.7,9.8-1.3,15.4-1.9c4.3-0.5,8.3-0.9,11.3-1.3c8.5-1.2,23.8,0.6,33,1.7l0.9,0.1
			c46.5,5.5,79.3,4.2,124,1.6l3.3-0.2c9.1-0.6,18.6-1.1,27.9-0.3c6.8,0.6,13.7,1.9,20.3,3.3c6.3,1.2,12.8,2.5,19.3,3.2
			c12.2,1.2,24.7,0.1,36.7-1c4.6-0.4,9.3-0.8,14-1.1c25.2-1.6,52.7-0.3,86.4,4.2c7.3,1,15,2.5,23.2,4.2c16.3,3.3,33.2,6.8,47.5,5.2
			c53.2-6,89.7-6.8,150-3.3c2.3,0.1,4.7,0.3,7.2,0.5c13,0.9,29.1,1.9,40.7-0.1c15.6-2.8,35.6-5.7,52.2-3.8
			c41.8,4.8,76.2,3.8,109.5,2.8c35.3-1.1,68.7-2.1,108.3,3.8c15.5,2.3,31.5,1.4,46.9,0.5c1.6-0.1,3.2-0.2,4.8-0.3
			c3.6-0.2,7.2-0.5,10.8-0.9c7.9-0.7,16.1-1.5,24.2-0.8c4.5,0.4,9.1,1.3,14,2.2c10,1.9,20.4,3.8,29.4,1.4l0.2,0.8
			C1947.9,877.3,1944.6,877.6,1941.3,877.6z"/>
	</g>
	<g>
		<path class="st0" d="M1950.8,872.4c-20.3-4.4-43.1-6.2-67.7-5.5c-9.1,0.3-16.8,1.3-24.2,2.2c-15.2,2-29.6,3.8-52.8-1.4
			c-25.6-5.8-53.7-3.6-80.9-1.5c-7.8,0.6-15.1,1.2-22.3,1.5c-24.8,1.3-50.1-1.3-72.5-3.6c-19.8-2-36.9-3.8-48.2-2.2
			c-33.1,4.6-65,3.5-95.8,2.5c-12-0.4-24.4-0.8-36.5-0.8l-8.7,0c-31.5-0.1-56.4-0.3-88.6,2.5l-1.8,0.2c-8.4,0.7-17.2,1.5-25.6-0.2
			c-3.4-0.7-6.8-1.5-10.4-2.5c-9.3-2.3-18.8-4.8-30.1-4.5c-12.5,0.3-25.1-0.8-37.4-1.8c-13.1-1.1-26.6-2.2-39.9-1.7
			c-4.4,0.2-8.9,0.4-13.2,0.7c-12.7,0.8-25.8,1.5-38.6,0c-5.3-0.6-10.6-1.7-15.7-2.7c-4.8-0.9-9.8-1.9-14.8-2.5
			c-16.8-2.2-34.1-0.5-50.8,1.1c-18.3,1.7-37.2,3.5-55.6,0.3c-3.7-0.6-7.4-1.5-11.1-2.3c-5.4-1.2-11-2.5-16.5-3.1
			c-11.2-1.2-22.7-0.2-33.7,0.7c-6.8,0.6-13.9,1.2-20.9,1.2c-8.7,0.1-17.5-0.6-26-1.2c-9.5-0.7-19.2-1.5-28.9-1.1
			c-8.1,0.3-16.4,1.5-24.3,2.6c-11.4,1.6-23.2,3.3-34.8,2.4c-22.5-1.8-44.5-0.1-60.7,1.1c-6.8,0.5-12.1,0.9-16,1
			c-4.3,0-9.6-0.3-15.2-0.7c-12.9-0.9-27.6-1.9-40.1,1c-21.8,5-50.7,5.3-71.9,0.8c-14.2-3.1-29.1,0-43.4,2.9
			c-8.9,1.8-17.4,3.6-25.4,3.8c-9.1,0.3-16.8,1.3-24.2,2.2c-15.2,2-29.6,3.8-52.8-1.4c-25.6-5.8-53.7-3.6-80.9-1.5
			c-7.8,0.6-15.1,1.2-22.3,1.5c-24.8,1.3-50.1-1.3-72.5-3.6c-19.8-2-36.9-3.8-48.2-2.2c-33.1,4.6-65,3.5-95.8,2.5
			c-12-0.4-24.4-0.8-36.5-0.8l-8.7,0c-31.5-0.1-56.4-0.3-88.6,2.5l-1.8,0.2c-8.4,0.7-17.2,1.5-25.6-0.2c-3.4-0.7-6.6-1.6-9.7-2.4
			c-8-2.2-15.6-4.3-26.8-2.9l-0.1-0.8c11.3-1.5,19,0.6,27.1,2.9c3.1,0.9,6.2,1.7,9.6,2.4c8.3,1.7,16.9,0.9,25.3,0.2l1.8-0.2
			c32.2-2.8,57.1-2.6,88.6-2.5l8.7,0c12.1,0,24.5,0.5,36.5,0.8c30.8,1,62.7,2.1,95.7-2.5c11.4-1.6,28.5,0.2,48.4,2.2
			c22.4,2.3,47.7,4.9,72.4,3.6c7.2-0.4,14.5-0.9,22.3-1.5c27.2-2.1,55.4-4.3,81.1,1.5c23.1,5.2,37.4,3.3,52.5,1.4
			c7.4-1,15.1-2,24.3-2.2c7.9-0.2,16.3-2,25.2-3.8c14.4-3,29.3-6,43.7-2.9c21.1,4.5,49.8,4.1,71.5-0.8c12.6-2.9,27.4-1.9,40.3-1
			c5.6,0.4,10.8,0.7,15.1,0.7c3.8,0,9.1-0.4,15.9-1c16.1-1.2,38.2-3,60.8-1.1c11.6,0.9,23.3-0.7,34.7-2.4c8-1.1,16.2-2.3,24.4-2.6
			c9.7-0.3,19.5,0.4,29,1.1c8.5,0.6,17.3,1.3,25.9,1.2c7-0.1,14-0.7,20.8-1.2c11.1-0.9,22.6-1.9,33.9-0.7c5.6,0.6,11.2,1.9,16.6,3.1
			c3.6,0.8,7.3,1.7,11,2.3c18.2,3.1,37.1,1.4,55.3-0.4c16.8-1.6,34.1-3.2,51-1.1c5,0.6,10,1.6,14.8,2.6c5.1,1,10.4,2,15.7,2.7
			c12.7,1.5,25.8,0.7,38.5,0c4.3-0.3,8.8-0.5,13.2-0.7c13.4-0.5,26.9,0.6,40,1.7c12.2,1,24.8,2.1,37.3,1.8c11.4-0.3,21,2.2,30.3,4.5
			c3.6,0.9,6.9,1.8,10.3,2.4c8.3,1.7,16.9,0.9,25.3,0.2l1.8-0.2c32.2-2.8,57.1-2.6,88.7-2.5l8.7,0c12.1,0,24.5,0.5,36.5,0.8
			c30.8,1,62.7,2.1,95.7-2.5c11.4-1.6,28.5,0.2,48.4,2.2c22.4,2.3,47.7,4.9,72.4,3.6c7.2-0.4,14.5-0.9,22.3-1.5
			c27.2-2.1,55.4-4.3,81.1,1.5c23.1,5.2,37.4,3.3,52.5,1.4c7.4-1,15.1-2,24.3-2.2c24.7-0.7,47.5,1.1,67.9,5.5L1950.8,872.4z"/>
	</g>
</g>
<path class="st0" d="M1596.3,750.8c-13.9-14.5-14.9-46.4,4.6-60.6c19.5-14.1,43-13.8,59.8,4.3c14.4,15.5,16.2,39.4,0.2,57.5
	c-7,8-18.1,14.9-29.1,14.9C1624.8,767,1607.9,762.9,1596.3,750.8z"/>
</svg>
