<?xml version="1.0" encoding="utf-8"?>
<!-- Generator: Adobe Illustrator 23.0.2, SVG Export Plug-In . SVG Version: 6.00 Build 0)  -->
<svg version="1.1" id="Capa_1" xmlns="http://www.w3.org/2000/svg" xmlns:xlink="http://www.w3.org/1999/xlink" x="0px" y="0px"
	 viewBox="0 0 107 100" style="enable-background:new 0 0 107 100;" xml:space="preserve">
<style type="text/css">
	.st0{fill:none;stroke:#F9F4F2;stroke-width:3;stroke-miterlimit:10;}
	.st1{fill:#F9F4F2;}
</style>
<path class="st0" d="M29.3,27.7c-6.6,7-9.6,15.7-10.3,25.3c-0.4,4.9,1,11.4,2.8,15.9c3.1,7.3,10.9,11.3,18.6,13.1
	c14.9,3.5,32.7-0.5,40.6-13.6c5.2-8.6,5.1-19.5,2.8-29.3c-1.1-4.5-2.6-9-5.3-12.7C68.3,12.8,39.9,16.5,29.3,27.7z"/>
<path class="st1" d="M36,49.4v-0.2c0.1-1.8,0.8-3.5,1.8-5c3.5-5.6,13.6-13.2,19.3-17.3c1.7-1.3,4.4-1.1,5.9,0.3s1.4,3.6-0.3,4.8
	c-4.9,3.6-14.3,10.5-17.3,15.3c-0.5,0.6-0.8,1.4-0.9,2.1c0.1,0.9,0.6,1.6,1.3,2.3c3.5,3.6,7.7,6.6,12.4,9.1c2.1,1.3,4.3,2.6,6.5,4
	c1.7,1.2,1.9,3.4,0.4,4.8s-4,1.6-5.7,0.5c-1.9-1.3-4.1-2.6-6.1-3.8C47.8,63.4,43,59.8,39,55.7C37.2,53.9,36.2,51.7,36,49.4z"/>
<path class="st0" d="M-119.6,1c-9.2,2.8-16.1,8.9-21.4,17c-2.8,4.1-4.7,10.4-5.4,15.2c-0.9,7.9,3.9,15.2,9.8,20.6
	c11.3,10.4,28.7,15.6,42,8.1c8.8-4.9,14-14.5,16.8-24.1c1.3-4.5,2.2-9.1,1.6-13.7C-78.3,7.2-104.8-3.5-119.6,1z"/>
<path class="st1" d="M-95,32v-0.2c-0.1-1.8-0.8-3.5-1.8-5c-3.5-5.6-13.6-13.2-19.3-17.3c-1.7-1.3-4.4-1.1-5.9,0.3s-1.4,3.6,0.3,4.8
	c4.9,3.6,14.3,10.5,17.3,15.3c0.5,0.6,0.8,1.4,0.9,2.1c-0.1,0.9-0.6,1.6-1.3,2.3c-3.5,3.6-7.7,6.6-12.4,9.1c-2.1,1.3-4.3,2.6-6.5,4
	c-1.7,1.2-1.9,3.4-0.4,4.8s4,1.6,5.7,0.5c1.9-1.3,4.1-2.6,6.1-3.8c5.5-2.9,10.3-6.5,14.3-10.6C-96.2,36.5-95.2,34.3-95,32z"/>
</svg>
