<?xml version="1.0" encoding="utf-8"?>
<!-- Generator: Adobe Illustrator 23.0.2, SVG Export Plug-In . SVG Version: 6.00 Build 0)  -->
<svg version="1.1" id="Capa_1" xmlns="http://www.w3.org/2000/svg" xmlns:xlink="http://www.w3.org/1999/xlink" x="0px" y="0px"
	 viewBox="0 0 1920 1080" style="enable-background:new 0 0 1920 1080;" xml:space="preserve">
<style type="text/css">
	.st0{fill:#F9F4F2;}
</style>
<rect y="0" class="st0" width="1920" height="1080"/>
<g>
	<g>
		<path class="st0" d="M657.5,463.5c-0.7,0-1.4,0-2,0v-0.6c15.2,0.2,28.6-1.4,42.8-3.1c22.1-2.7,44.8-5.3,77.3-1.9
			c22.2,2.4,45,0.5,67-1.4l0.8-0.1c3.3-0.3,6.8-0.6,10.1-0.9c7.4-0.8,15.2-1.4,22.8-1.7c16.2-0.5,32.5,1.6,48.4,3.6
			c16.2,2,32.8,4,49.3,3.5c7.5-0.2,15.2-1.1,22.5-1.8c5.7-0.6,11.6-1.2,17.4-1.6c17.1-1.1,34.6,0.1,51.4,1.1
			c7.4,0.5,15.1,1,22.6,1.3c23.1,0.9,44-0.5,64.1-1.7c33.4-2.2,68.1-4.4,113.7,3.9l-0.1,0.5c-45.6-8.3-80.2-6-113.7-3.9
			c-20.2,1.3-41,2.7-64.2,1.7c-7.6-0.3-15.2-0.8-22.6-1.3c-16.8-1.1-34.3-2.2-51.3-1.1c-5.8,0.4-11.8,1-17.4,1.6
			c-7.4,0.8-15,1.6-22.6,1.8c-16.5,0.5-33.2-1.5-49.4-3.5c-15.8-2-32.2-3.9-48.3-3.6c-7.6,0.2-15.3,0.9-22.7,1.7
			c-3.3,0.3-6.7,0.7-10.1,0.9l-0.8,0.1c-22.1,1.8-44.8,3.7-67.1,1.4c-32.4-3.4-55.1-0.8-77.1,1.9C684.8,462,672,463.5,657.5,463.5z"
			/>
	</g>
	<g>
		<path class="st0" d="M1259.3,468.4c-8,0-16.8-1.6-25.9-3.3c-7.9-1.4-16-3-23.8-3.4c-13.4-0.7-27.8,0.2-43.9,2.6
			c-21.2,3.2-43.1,2.3-64.3,1.4c-2.5-0.1-5-0.2-7.5-0.3c-41.6-1.7-83.6-1.5-125.1,0.5c-1.1,0.1-2.6,0.2-4.3,0.3
			c-8.8,0.7-25.1,2-47.4-1.2c-28.5-4.1-53.6-5.5-78.9-4.4c-5.5,0.2-11.8,0.8-18.4,1.4c-15.3,1.4-32.6,2.8-45.3,0.8
			c-25.3-4.1-45.9-1.2-65.7,1.7c-16.6,2.4-33.8,4.8-53.3,2.9l0.1-0.5c19.4,1.9,35.8-0.5,53.2-2.9c19.9-2.8,40.5-5.8,65.9-1.7
			c12.7,2,30,0.5,45.2-0.8c6.6-0.6,12.9-1.1,18.4-1.4c25.3-1.1,50.4,0.3,79,4.4c22.2,3.2,38.5,1.9,47.3,1.2c1.7-0.2,3.2-0.2,4.3-0.3
			c41.6-2,83.6-2.2,125.2-0.5c2.5,0.1,5,0.2,7.5,0.3c21.2,0.9,43,1.8,64.2-1.4c16.2-2.4,30.5-3.3,44-2.6c7.8,0.4,16,1.9,23.9,3.4
			c11.6,2.2,22.6,4.2,32.4,2.9l0.1,0.5C1263.8,468.2,1261.5,468.4,1259.3,468.4z"/>
	</g>
	<g>
		<path class="st0" d="M1258.7,451.5c-8.1,0-17-1.6-26.2-3.2c-7.9-1.4-16-2.8-23.7-3.3c-14-0.7-28.7-1.2-43.9,1.1
			c-28.4,4.2-52.3,4.3-73.3,0.3c-28.6-5.5-57.8-2.6-86.1,0.4c-12.3,1.3-24.9,2.6-37.5,3.2c-8.2,0.4-25.9,0.5-51.7-3.2
			c-21.1-3-41.1-1.9-62.3-0.7c-5.4,0.3-11,0.6-16.6,0.8c-4.1,0.2-8.6,0.5-13.3,0.8c-17,1-36.2,2.2-50.4-0.1c-25.6-4.2-46.3-2-66.4,0
			c-16.5,1.7-33.4,3.4-52.7,1.5l0.1-0.5c19.2,1.9,36.2,0.2,52.5-1.5c20.1-2,40.8-4.2,66.5,0c14,2.3,33.3,1.1,50.3,0.1
			c4.8-0.3,9.3-0.5,13.3-0.8c5.6-0.2,11.1-0.5,16.6-0.8c21.2-1.2,41.3-2.3,62.4,0.7c25.8,3.7,43.4,3.6,51.6,3.2
			c12.6-0.6,25.3-1.9,37.5-3.2c28.3-2.9,57.6-5.9,86.2-0.4c20.9,4.1,44.9,4,73.2-0.3c15.2-2.3,30-1.8,44-1.1
			c7.7,0.4,15.8,1.8,23.7,3.3c11.9,2.1,23.1,4.1,33.1,2.7l0.1,0.5C1263.5,451.3,1261.1,451.5,1258.7,451.5z"/>
	</g>
	<g>
		<path class="st0" d="M943,474.8c-4.1,0-8.2-0.2-12.3-0.6c-5.2-0.5-10.3-1.5-15.4-2.4c-4.6-0.8-9.5-1.7-14.3-2.4
			c-18.7-2.2-36.5-1.2-55.4-0.2c-7.1,0.4-14.5,0.8-21.8,1c-8.6,0.2-19.6-0.5-31.2-1.4c-12.2-0.8-24.8-1.7-37-1.7
			c-16.8,0.1-33.9,1.5-50.4,3c-17.8,1.5-34.7,3-49.7,2.6v-0.6c15.1,0.5,31.9-1,49.7-2.5c16.5-1.4,33.5-2.9,50.4-3
			c12.2,0,24.9,0.8,37,1.7c11.7,0.8,22.7,1.6,31.2,1.4c7.4-0.2,14.7-0.6,21.8-1c18.9-1.1,36.7-2,55.5,0.2c4.8,0.5,9.6,1.4,14.3,2.4
			c5,0.9,10.2,1.9,15.3,2.4c14.6,1.6,29.6-0.2,44-1.8c9.6-1.1,19.5-2.3,29.2-2.4c10.4-0.2,20.9,0.7,31.1,1.5c4.9,0.4,10,0.8,15,1.1
			c26.8,1.6,54-0.3,80.4-2.1c32.7-2.3,66.4-4.5,99.4-0.3c2.7,0.4,5.3,0.8,8,1.1c8.9,1.4,18.2,2.9,27.3,1.1l0.1,0.5
			c-9.2,1.7-18.5,0.3-27.5-1.1c-2.6-0.4-5.3-0.8-7.9-1.1c-32.9-4.2-66.7-1.9-99.3,0.3c-26.4,1.8-53.7,3.7-80.5,2.1
			c-5-0.3-10.1-0.8-15-1.1c-10.2-0.8-20.7-1.7-31-1.5c-9.7,0.2-19.6,1.3-29.1,2.4C964.4,473.5,953.7,474.8,943,474.8z"/>
	</g>
	<g>
		<path class="st0" d="M943.7,445.3c-4.1,0-8.2-0.2-12.3-0.6c-5.2-0.5-10.3-1.5-15.4-2.4c-4.6-0.8-9.5-1.7-14.3-2.4
			c-17.2-2-33.6-0.7-51,0.7c-8.6,0.7-17.4,1.4-26.3,1.7c-8.5,0.2-19.3-0.7-30.8-1.7c-12.4-1.1-25.1-2.1-37.5-2.1
			c-16.6,0-33.5,1.3-49.8,2.6c-18,1.4-35,2.7-50.3,2.2v-0.6c15.2,0.5,32.2-0.8,50.2-2.2c16.3-1.2,33.2-2.5,49.8-2.6
			c12.4-0.1,25.2,1.1,37.5,2.1c11.5,1,22.3,1.9,30.8,1.7c8.9-0.2,17.7-1,26.3-1.7c16.6-1.4,33.7-2.7,51-0.7
			c4.8,0.5,9.6,1.4,14.3,2.4c5,0.9,10.2,1.9,15.3,2.4c14.6,1.6,29.6-0.2,44-1.8c9.6-1.1,19.5-2.3,29.2-2.4
			c4.3-0.1,10.6-0.8,17.9-1.6c19-2.1,45-5,65.7-0.7c21.7,4.5,35.9,2.8,52.2,0.8c19.6-2.4,44.1-5.5,90.1,1.7c2.7,0.4,5.3,0.9,7.9,1.4
			c9,1.7,18.3,3.4,27.4,1.7l0.1,0.5c-9.2,1.7-18.5,0-27.6-1.7c-2.6-0.5-5.2-1-7.8-1.4c-46-7.2-70.3-4.2-89.9-1.7
			c-16.5,2-30.7,3.8-52.5-0.8c-20.6-4.3-46.6-1.4-65.5,0.7c-7.3,0.8-13.6,1.5-18,1.6c-9.7,0.2-19.6,1.3-29.1,2.4
			C965.1,444,954.4,445.3,943.7,445.3z"/>
	</g>
	<g>
		<path class="st0" d="M948.5,483.3c-0.1,0-0.2,0-0.2,0c-6.4,0-12.8-1-19-1.9c-2.4-0.4-4.9-0.8-7.4-1.1c-4.8-0.6-9.9-1.7-15.4-2.9
			c-7.7-1.7-15.8-3.4-22.7-3.6c-19.2-0.4-36.4,0.6-53.1,1.5c-16.7,0.9-33.9,1.9-53.1,1.5c-7.7-0.2-15.7-0.6-24.1-1.1
			c-17.7-1.1-35.9-2.1-52.2-0.2c-2.3,0.2-4.7,0.6-7.2,0.9c-12.4,1.6-27.8,3.6-38.5,2l0.1-0.5c10.7,1.5,26.1-0.4,38.4-2
			c2.5-0.3,4.9-0.6,7.2-0.9c16.4-1.9,34.7-0.8,52.4,0.2c8.4,0.5,16.4,1,24.1,1.1c19.2,0.4,36.4-0.6,53.1-1.5
			c16.7-0.9,33.9-1.9,53.1-1.5c7,0.2,15,1.9,22.8,3.6c5.5,1.2,10.6,2.3,15.3,2.9c2.5,0.3,5,0.7,7.4,1.1c6.2,0.9,12.6,1.8,19,1.8
			c7.2,0,14.5-1.1,21.5-2.3c3.1-0.5,6.3-1,9.4-1.4c16.2-2,32.8-1.6,48.8-1.1l82.9,2.5c10.8,0.3,22,0.7,32.8-1.2
			c3.3-0.6,6.7-1.4,9.9-2.2c3.9-1,8.1-2,12.2-2.5c17.7-2.5,37.3-0.6,56.2,1.3c16.2,1.6,31.5,3.1,43,1.4l0.1,0.5
			c-11.7,1.7-27,0.2-43.1-1.4c-18.9-1.9-38.4-3.9-56.1-1.3c-4.1,0.6-8.2,1.6-12.1,2.5c-3.3,0.8-6.6,1.6-9.9,2.2
			c-10.9,1.9-22.1,1.6-33,1.2l-82.9-2.5c-16-0.5-32.5-1-48.7,1.1c-3.1,0.4-6.3,0.9-9.4,1.4C963,482.2,955.7,483.3,948.5,483.3z"/>
	</g>
	<g>
		<path class="st0" d="M949,490.3c-13.5,0-27.1-1.4-40.4-2.9c-1.7-0.2-3.3-0.4-5-0.5c-5.1-0.5-10.3-1.7-15.3-2.7
			c-6.7-1.4-13.7-3-20.5-3.1c-13.3-0.3-25.9,1.1-38.1,2.4c-11.2,1.1-22.8,2.4-35,2.4h-0.1c-6.9,0-15.1-0.9-23-1.7
			c-3.6-0.4-7-0.8-10.2-1.1c-18-1.5-34-0.3-51.1,1c-16.5,1.3-33.6,2.6-54.8,1.7v-0.5c21.2,0.9,38.2-0.5,54.7-1.7
			c17.1-1.3,33.1-2.6,51.2-1c3.2,0.3,6.6,0.7,10.2,1.1c7.9,0.8,16,1.7,22.9,1.7h0.1c12.2,0,23.7-1.2,35-2.4
			c12.2-1.3,24.8-2.6,38.1-2.4c6.9,0.2,14,1.7,20.7,3.1c5,1.1,10.2,2.2,15.2,2.7c1.7,0.2,3.3,0.4,5,0.5c20.4,2.2,41.5,4.5,61.8,1.4
			c28.6-4.3,56.3-3.2,83.2-2.1c13.4,0.5,27.3,1.1,41.1,1c22-0.2,44.7-0.4,67-2.5c1.9-0.2,3.8-0.4,5.8-0.5c7.6-0.8,15.4-1.6,23.2-1.4
			c6,0.1,12.1,0.8,18,1.4c3.7,0.4,7.5,0.8,11.3,1.1l1.3,0.1c14.5,1.1,29.4,2.1,43.8-1.1l0.2,0.5c-14.5,3.3-29.5,2.1-44,1.1l-1.3-0.1
			c-3.8-0.3-7.6-0.7-11.3-1.1c-5.8-0.6-11.9-1.3-18-1.4c-7.7-0.2-15.5,0.7-23.1,1.4c-1.9,0.2-3.8,0.4-5.8,0.5
			c-22.3,2.1-45,2.3-67,2.5c-13.8,0.2-27.7-0.5-41.1-1c-26.8-1.1-54.5-2.2-83.1,2.1C963.5,489.8,956.3,490.3,949,490.3z"/>
	</g>
	<g>
		<path class="st0" d="M945.2,499.2c-5.9,0-11.8-0.4-17.7-1.2c-3.7-0.5-7.5-1.3-11.2-2c-7.9-1.6-16-3.2-24.1-2.7
			c-2.4,0.2-4.9,0.5-7.3,0.8c-2.7,0.4-5.4,0.7-8.1,0.8c-7.2,0.3-14.4-1.2-21.3-2.7c-6.7-1.4-13.7-2.9-20.6-2.7
			c-8.4,0.2-16.7,1.4-24.6,2.6c-4,0.6-8.2,1.2-12.3,1.7c-9.5,1.1-19.2-0.2-28.5-1.4c-2.2-0.3-4.5-0.6-6.8-0.9
			c-19.3-2.3-40.7-1-61.4,0.3c-16.6,1-32.3,2-45.5,1l0.1-0.5c13.2,1,28.8,0.1,45.4-1c20.8-1.3,42.2-2.6,61.6-0.3
			c2.3,0.3,4.5,0.6,6.8,0.9c9.3,1.2,19,2.5,28.4,1.4c4.2-0.5,8.3-1.1,12.3-1.7c8-1.1,16.3-2.4,24.7-2.6c7-0.2,14,1.3,20.8,2.7
			c6.9,1.4,14.1,3,21.2,2.7c2.7-0.1,5.5-0.5,8-0.8c2.4-0.3,4.9-0.6,7.4-0.8c8.2-0.5,16.4,1.2,24.3,2.7c3.6,0.8,7.4,1.5,11.1,2
			c18.7,2.7,37.9,0.2,56.4-2.1c16.5-2.1,33.7-4.3,50.5-2.9c4.4,0.4,8.9,1,13.2,1.7c6.1,0.9,12.5,1.8,18.9,2
			c8.3,0.2,16.7-0.8,24.7-1.8c4.4-0.5,9-1.1,13.5-1.5c5.5-0.5,11.2-0.2,16.7,0.1c6.4,0.3,13,0.6,19.5-0.2c28.7-3.7,56-2.2,77.9-1.1
			c19.9,1.1,35.6,1.9,45.8-1.2l0.2,0.5c-10.2,3.2-26,2.4-46,1.2c-21.8-1.2-49.1-2.7-77.7,1.1c-6.4,0.8-13.1,0.5-19.6,0.2
			c-5.5-0.2-11.1-0.5-16.6-0.1c-4.5,0.4-9.1,0.9-13.5,1.5c-8.1,1-16.5,2-24.9,1.8c-6.4-0.2-12.7-1.1-19-2c-4.3-0.6-8.8-1.2-13.2-1.6
			c-16.8-1.4-33.8,0.8-50.4,2.9C971.3,497.5,958.2,499.2,945.2,499.2z"/>
	</g>
	<g>
		<path class="st0" d="M1265.7,457.1c-11.6-0.7-21.8-1.7-31.7-2.7c-27.6-2.7-51.5-5.1-91.4,0.1c-6.6,0.8-13.3,0.8-19.9,0.7
			c-5.3-0.1-10.8-0.2-16.2,0.3c-7.4,0.6-14.9-0.5-22.1-1.7c-5.3-0.8-10.8-1.7-16.3-1.8c-4.5-0.2-9.1,0.1-13.5,0.2
			c-6.1,0.2-12.4,0.5-18.6-0.1c-16.5-1.4-33.4,0-49.7,1.4c-18.8,1.6-38.3,3.3-57.3,0.5c-3.7-0.5-7.5-1.3-11.2-2
			c-7.9-1.6-16-3.2-24.1-2.7c-2.4,0.2-4.9,0.5-7.3,0.8c-2.7,0.4-5.4,0.7-8.1,0.8l-4.9,0.2c-12.6,0.5-24.6,0.9-37,1.2l-2.3,0.1
			c-11.8,0.3-22.9,0.5-34.7,1.9c-9.5,1.1-19.2-0.2-28.5-1.4c-2.2-0.3-4.5-0.6-6.8-0.9c-19.1-2.3-40.3-0.3-60.8,1.5
			c-16.8,1.5-32.8,3-46.1,2l0.1-0.5c13.3,1.1,29.2-0.5,46-2c20.5-1.9,41.8-3.9,61-1.5c2.3,0.3,4.5,0.6,6.8,0.9
			c9.3,1.2,19,2.5,28.4,1.4c11.8-1.4,22.9-1.6,34.7-1.9l2.3-0.1c12.5-0.3,24.4-0.8,37-1.2l4.9-0.2c2.7-0.1,5.5-0.5,8-0.8
			c2.4-0.3,4.9-0.6,7.4-0.8c8.2-0.5,16.4,1.2,24.3,2.7c3.6,0.8,7.4,1.5,11.1,2c19,2.7,38.4,1.1,57.2-0.5c16.3-1.4,33.2-2.8,49.8-1.4
			c6.2,0.5,12.4,0.3,18.5,0.1c4.4-0.2,9-0.4,13.6-0.2c5.5,0.2,11,1,16.4,1.8c7.2,1.1,14.6,2.3,21.9,1.7c5.4-0.5,10.9-0.4,16.3-0.3
			c6.5,0.1,13.3,0.2,19.9-0.6c40-5.1,63.9-2.8,91.5-0.1c9.9,1,20.1,2,31.7,2.7L1265.7,457.1z"/>
	</g>
	<g>
		<path class="st0" d="M902.6,506.4c-3.6,0-7.1-0.1-10.7-0.3c-7.4-0.5-14.9-2.1-22.2-3.8c-10.6-2.4-21.6-4.9-32.4-3.5
			c-10.5,1.3-20.8,1.5-32.8,1.4c-2.1,0-4.2,0-6.2,0c-7.7,0-15,0.1-22.6-1.4c-16.5-3.3-32.5-4.4-47.2-3.5l-2.7,0.2
			c-23.3,1.5-47.3,3-70.1,6.7l-0.2-0.6c22.7-3.6,46.9-5.2,70.1-6.7l2.7-0.2c14.9-1,30.9,0.2,47.4,3.5c7.5,1.5,14.8,1.4,22.5,1.4
			c2,0,4.2,0,6.2,0c12.1,0.2,22.2,0,32.8-1.4c10.8-1.4,21.9,1.1,32.5,3.5c7.3,1.6,14.8,3.3,22.1,3.8c9.9,0.6,19.7,0.2,29-0.3
			c10.6-0.5,21.4-1.3,31.8-2c33.1-2.2,67.3-4.5,100.9-1.8c2.6,0.2,5.1,0.5,7.7,0.7c9.9,0.9,20.2,1.8,30.3,1
			c6.7-0.5,13.3-1.9,19.7-3.1c6.7-1.3,13.5-2.7,20.4-3.2c11.8-0.9,23.7,0.7,35.2,2.1c5,0.6,10.2,1.3,15.2,1.7
			c27.3,2.5,55-0.7,81.7-3.8l0.1,0.5c-26.8,3.1-54.4,6.3-81.8,3.8c-5.1-0.5-10.2-1.1-15.2-1.7c-11.5-1.5-23.4-3-35.1-2.1
			c-6.8,0.5-13.7,1.9-20.3,3.2c-6.4,1.3-13.1,2.6-19.8,3.1c-10.1,0.8-20.4-0.1-30.3-1c-2.6-0.2-5.1-0.5-7.7-0.7
			c-33.5-2.6-67.8-0.3-100.9,1.8c-10.5,0.7-21.2,1.4-31.8,2C915,506.1,908.8,506.4,902.6,506.4z"/>
	</g>
	<g>
		<path class="st0" d="M1094.6,512.7c-7.6,0-15.2-1.1-22.6-2.2c-2.5-0.4-5.2-0.8-7.7-1.1c-30.1-3.9-61-1.6-90.9,0.5
			c-30.6,2.2-62.3,4.5-93,0.3c-3.6-0.5-7.1-1.1-10.6-1.6c-9.3-1.5-18.8-3-28.3-3c-7.1,0.1-14.2,1.1-21.2,2c-7.2,1-14.6,2-22.1,2
			h-0.1c-8.5,0-17-1.4-25.2-2.7c-7-1.1-14.2-2.3-21.3-2.6c-33.9-1.5-59.3-1.4-96.1,3.6l-0.1-0.5c36.9-5,62.3-5.2,96.2-3.6
			c7.2,0.3,14.4,1.5,21.4,2.6c8.2,1.3,16.7,2.7,25.1,2.7h0.1c7.4,0,14.8-1.1,22-2c6.9-1,14.1-2,21.2-2c9.6-0.1,19.1,1.4,28.4,3
			c3.5,0.5,7.1,1.1,10.5,1.6c30.7,4.2,62.3,1.9,92.9-0.3c30-2.2,60.9-4.4,91-0.5c2.6,0.3,5.2,0.7,7.7,1.1c8.7,1.3,17.8,2.6,26.7,2
			c6.8-0.4,13.6-1.9,20.2-3.3c4-0.8,8.2-1.7,12.3-2.4c15.9-2.5,32.3-1.4,48.2-0.4c4.9,0.3,10.1,0.7,15.2,0.9c23,1,46.1-0.3,68.8-3.9
			l0.1,0.5c-22.7,3.6-45.9,4.9-68.9,3.9c-5-0.2-10.2-0.5-15.2-0.9c-15.8-1.1-32.2-2.1-48.1,0.4c-4.1,0.6-8.3,1.5-12.2,2.4
			c-6.6,1.4-13.4,2.9-20.2,3.3C1097.4,512.6,1096,512.7,1094.6,512.7z"/>
	</g>
	<g>
		<path class="st0" d="M928,518.7c-17.7,0-35.3-0.4-45-1.4c-23.8-2.5-47.7-2.5-70.7-2.5c-26.2,0-53.2,0-80.2-3.6
			c-20.3-2.7-30.4-1.6-42-0.2c-8.7,1-18.7,2.2-34.6,1.7V512c15.8,0.5,25.7-0.7,34.4-1.7c11.7-1.4,21.8-2.5,42.2,0.2
			c27,3.6,54,3.6,80.1,3.6c23.1,0,46.9,0,70.8,2.5c20.8,2.2,76.5,1.3,95.2,0.5c16.5-0.6,29.7-1.4,41.9-2.4c1.4-0.2,2.9-0.2,4.3-0.4
			c9.8-0.8,19.9-1.7,30-1.1c4.5,0.3,8.9,0.8,13.3,1.4c4.4,0.5,8.9,1.1,13.3,1.4c11.7,0.7,39.4-2.3,49.9-4.1
			c24.6-4.2,47.2-2.7,71.2-1.1c19.4,1.3,39.5,2.7,61.3,0.8l0.1,0.5c-21.8,1.8-42,0.5-61.4-0.8c-24-1.6-46.6-3.1-71.1,1.1
			c-10.6,1.8-38.4,4.8-50,4.1c-4.5-0.3-9-0.8-13.4-1.4c-4.3-0.5-8.9-1.1-13.3-1.4c-9.9-0.6-20.1,0.2-29.9,1.1
			c-1.4,0.2-2.9,0.2-4.3,0.4c-12.1,1-25.4,1.7-41.9,2.4C968.3,518.2,948,518.7,928,518.7z"/>
	</g>
	<g>
		<path class="st0" d="M934.2,526.1c-2.4,0-4.6-0.1-6.4-0.4c-2.8-0.4-6.5-0.8-10.4-1.2c-5.2-0.5-10.4-1.1-14.1-1.7
			c-14.8-2.6-29.8-2-44.4-1.4c-7.7,0.3-15.7,0.7-23.6,0.5c-2.7-0.1-5.2-0.1-7.8-0.2c-15.8-0.2-30.8-0.5-46.6-2.3
			c-7.9-0.9-18.1-0.7-29-0.5c-12.4,0.3-25.1,0.6-34.3-1c-12.4-2.1-22.1-0.8-31.4,0.5c-9.8,1.4-19,2.6-30.8,0.1l0.2-0.5
			c11.8,2.5,20.9,1.2,30.6-0.1c9.3-1.3,19-2.7,31.5-0.5c9.1,1.5,21.8,1.3,34.1,1c10.8-0.2,21.1-0.5,29,0.5c15.8,1.8,30.7,2,46.6,2.3
			c2.6,0,5.2,0.1,7.8,0.2c7.9,0.2,15.8-0.2,23.6-0.5c14.6-0.6,29.6-1.2,44.5,1.4c3.6,0.7,8.9,1.2,14.1,1.7c3.9,0.5,7.6,0.8,10.4,1.2
			c7.7,1.1,21.7-0.5,30.1-1.5l0.8-0.1c42.7-5,72.8-3.9,113.8-1.4l3,0.2c8.3,0.5,17,1.1,25.5,0.3c6.2-0.5,12.5-1.7,18.6-3
			c5.8-1.1,11.8-2.4,17.7-2.9c11.2-1.1,22.7-0.1,33.8,0.9c4.2,0.4,8.6,0.8,12.8,1.1c26.5,1.7,53.2-1.1,79.1-3.8l0.1,0.5
			c-25.9,2.7-52.7,5.5-79.2,3.8c-4.2-0.3-8.6-0.7-12.8-1.1c-11.1-1-22.5-2-33.7-0.9c-5.9,0.6-11.9,1.7-17.7,2.9
			c-6.1,1.2-12.4,2.4-18.7,3c-8.5,0.8-17.2,0.2-25.6-0.3l-3-0.2c-41-2.4-71.1-3.6-113.7,1.4l-0.8,0.1
			C951.6,524.9,942,526.1,934.2,526.1z"/>
	</g>
	<g>
		<path class="st0" d="M668.6,550.7c-4.1,0-8.4-0.4-13.2-1.4l0.2-0.5c11.8,2.5,20.7,1.1,30.2-0.3c9.2-1.4,18.7-2.8,31.2-0.7
			c17.3,3,45.6,2.2,64.6-1.6c15.5-3.1,31.4-2.7,46.8-2.4c2.8,0.1,5.5,0.2,8.3,0.2c9.7,0.2,21,1.3,34,2.5c17.4,1.7,37.2,3.6,57.9,3.6
			c8,0,22.9-0.7,30.9-1.6c42.7-5,72.8-3.9,113.8-1.4l3,0.2c8.3,0.5,17.1,1.1,25.5,0.3c7.4-0.7,14.9-1.4,22.1-2.2
			c4.6-0.5,9.5-1,14.3-1.4c11.2-1.1,22.7-0.1,33.8,0.9c4.2,0.4,8.6,0.8,12.8,1.1c26.5,1.7,53.2-1.1,79.1-3.8l0.1,0.5
			c-25.9,2.7-52.7,5.5-79.2,3.8c-4.2-0.3-8.6-0.7-12.8-1.1c-11.1-1-22.5-2-33.7-0.9c-4.8,0.5-9.6,1-14.3,1.4
			c-7.2,0.8-14.6,1.5-22.1,2.2c-8.5,0.8-17.2,0.2-25.6-0.3l-3-0.2c-41-2.4-71.1-3.6-113.7,1.4c-8,0.9-23,1.6-31,1.6
			c-20.6-0.1-40.4-2-57.9-3.6c-13-1.3-24.3-2.4-34-2.5c-2.8-0.1-5.5-0.2-8.3-0.2c-15.4-0.4-31.2-0.8-46.6,2.4
			c-19,3.9-47.5,4.5-64.8,1.6c-12.4-2.1-21.9-0.7-31,0.7C680.1,549.9,674.6,550.7,668.6,550.7z"/>
	</g>
	<g>
		<path class="st0" d="M986.2,532.5c-7,0-13.9-0.6-20.7-1.1c-6.3-0.5-12.7-1.1-19.1-1.1c-8-0.1-16,0.5-23.8,1.1
			c-8.7,0.7-17.7,1.4-26.6,1.1c-7.5-0.2-15.1-1.4-22.4-2.4c-10.4-1.5-21.2-3-31.8-2.2c-20.7,1.7-40.9,0.1-55.7-1.1
			c-6.2-0.5-11.1-0.8-14.6-0.9c-3.9,0-8.8,0.3-13.9,0.7c-11.9,0.8-25.4,1.7-37-0.9c-24.9-5.7-56.1,0.1-65.1,2l-0.2-0.5
			c9-1.9,40.3-7.7,65.4-2c11.5,2.6,24.9,1.7,36.8,0.9c5.1-0.4,9.9-0.7,13.9-0.7c3.5,0,8.4,0.4,14.6,0.9c14.8,1.1,35,2.7,55.7,1.1
			c10.7-0.8,21.5,0.7,31.9,2.2c7.3,1.1,14.9,2.1,22.3,2.4c8.9,0.3,17.8-0.4,26.5-1.1c7.8-0.6,15.8-1.2,23.8-1.1
			c6.4,0.1,12.9,0.6,19.2,1.1c10.2,0.8,20.6,1.7,30.9,0.6c5.1-0.5,10.2-1.7,15.2-2.8c3.3-0.8,6.7-1.5,10.2-2.1
			c16.8-2.9,34.1-1.3,51,0.3c15.3,1.4,31.2,3,46.6,1c4.5-0.6,9.1-1.4,13.6-2.4c4.7-0.9,9.6-1.9,14.4-2.4c11.8-1.4,23.8-0.7,35.4,0
			c3.9,0.2,8,0.5,12.1,0.6c20.9,0.8,43.8,1.3,68.8-0.8l0.1,0.5c-25,2.1-47.9,1.7-68.9,0.8c-4-0.2-8.1-0.4-12.1-0.6
			c-11.6-0.7-23.6-1.4-35.3,0c-4.9,0.6-9.7,1.5-14.4,2.4c-4.4,0.8-9,1.7-13.6,2.4c-15.5,2-31.4,0.5-46.8-1
			c-16.8-1.6-34-3.2-50.8-0.3c-3.4,0.6-6.8,1.4-10.1,2.1c-4.9,1.1-10.1,2.3-15.2,2.8C993.1,532.3,989.6,532.5,986.2,532.5z"/>
	</g>
	<g>
		<path class="st0" d="M946.8,538.5c-19.6,0-39.3-1.6-58.5-3.1c-25.6-2-52.2-4.2-78.3-2.5c-5.9,0.4-11.9,1-17.7,1.5
			c-10.4,1-21.1,2-31.7,2c-11.4-0.1-23.4-1.2-34.9-2.3c-23.7-2.2-48.1-4.5-70.3,1.6l-0.2-0.5c22.3-6.1,46.8-3.8,70.4-1.6
			c11.5,1.1,23.5,2.2,34.8,2.3c10.5,0.1,21.2-1,31.6-2c5.8-0.5,11.8-1.1,17.7-1.5c26.1-1.7,52.6,0.5,78.3,2.5
			c23.7,1.9,48.3,3.9,72.4,2.8c10.8-0.5,21.9-1.6,32.6-2.7c15.8-1.6,32.2-3.2,48.4-2.8c7.8,0.2,15.7,0.8,23.3,1.4
			c10.6,0.9,21.6,1.7,32.4,1.4c10.9-0.4,21.8-2,32.5-3.6c9.3-1.4,19-2.8,28.6-3.3c14.6-0.8,29.6,0.3,44.1,1.4
			c20.2,1.6,41.2,3.2,61.4-0.8l0.1,0.5c-20.2,3.9-41.3,2.3-61.6,0.8c-14.5-1.1-29.4-2.3-44.1-1.4c-9.6,0.5-19.3,2-28.6,3.3
			c-10.6,1.6-21.6,3.2-32.5,3.6c-10.8,0.4-21.8-0.5-32.5-1.4c-7.7-0.6-15.5-1.3-23.3-1.4c-16.2-0.4-32.5,1.2-48.3,2.8
			c-10.7,1.1-21.8,2.1-32.6,2.7C956.1,538.4,951.5,538.5,946.8,538.5z"/>
	</g>
	<g>
		<path class="st0" d="M744.7,544.3c-9,0-17.7-0.5-27.5-1.1c-16.6-1-35.5-2.1-61.7-0.8v-0.6c26.3-1.3,45.2-0.2,61.8,0.8
			c12.9,0.8,24,1.4,36.3,0.9c7.3-0.3,14.6-1.5,21.8-2.7c3.7-0.6,7.5-1.2,11.3-1.7c30.6-3.9,61-1.4,86.7,1.6
			c36.2,4.2,66.7,2.4,96.2,0.6c13.6-0.8,27.7-1.7,42.2-2c8.3-0.2,16.8,0.4,25,0.9c8.2,0.5,16.8,1.1,24.9,0.9
			c31.9-0.6,65-1.2,97.3-4.5c1.9-0.2,3.8-0.4,5.6-0.6c11.4-1.2,23.1-2.5,34.7-1.7c5.8,0.5,11.5,1.1,17,1.7c16,1.8,31.1,3.6,47.9,0.2
			l0.1,0.5c-16.9,3.4-32.1,1.6-48.1-0.2c-5.5-0.6-11.1-1.3-16.9-1.7c-11.5-0.9-23.3,0.4-34.7,1.7c-1.9,0.2-3.8,0.4-5.6,0.6
			c-32.4,3.4-65.4,4-97.4,4.5c-8.3,0.2-16.8-0.4-25-0.9c-8.2-0.5-16.8-1.1-24.9-0.9c-14.6,0.3-28.7,1.1-42.2,2
			c-29.5,1.8-60.1,3.6-96.4-0.6c-25.7-3-56-5.5-86.5-1.6c-3.8,0.5-7.6,1.1-11.3,1.7c-7.1,1.1-14.5,2.4-21.8,2.7
			C750.6,544.3,747.6,544.3,744.7,544.3z"/>
	</g>
	<g>
		<path class="st0" d="M1175.8,646.7c-9.1,0-19-0.5-30-1.7c-25.4-2.7-46.6-4.2-67.9-2.4c-3.3,0.3-6.8,0.6-10.1,0.9
			c-7.4,0.8-15.2,1.4-22.8,1.7c-16.2,0.5-31.6-1.4-46.5-3.2c-15.2-1.8-30.9-3.6-47.4-3.1c-7.8,0.2-16.8,1.1-25.6,1.9
			c-6.4,0.6-12.6,1.1-18.2,1.5c-17.1,1.1-34.6-0.1-51.4-1.1c-7.4-0.5-15.1-1-22.6-1.3c-24.3-1-47.8-0.1-70.5,0.8
			c-36.3,1.4-70.6,2.7-107.4-2.9l0.1-0.5c36.8,5.5,71.1,4.2,107.2,2.9c22.7-0.8,46.3-1.7,70.6-0.8c7.5,0.3,15.2,0.8,22.6,1.3
			c16.8,1.1,34.3,2.2,51.3,1.1c5.6-0.4,11.7-0.9,18.2-1.5c8.8-0.8,17.8-1.6,25.6-1.9c16.5-0.5,32.2,1.3,47.5,3.1
			c14.9,1.7,30.3,3.6,46.4,3.2c7.6-0.2,15.3-0.9,22.7-1.7c3.3-0.3,6.7-0.7,10.2-0.9c21.3-1.7,42.5-0.3,67.9,2.4
			c32.4,3.4,54.9,0.8,76.7-1.8c14.1-1.7,27.4-3.3,42.6-3.1v0.6c-15.2-0.2-28.5,1.4-42.5,3.1C1208.2,644.8,1193.5,646.7,1175.8,646.7
			z"/>
	</g>
	<g>
		<path class="st0" d="M1164.5,637.8c-12.1,0-24.4-0.8-36.5-1.7c-11.7-0.8-22.7-1.6-31.2-1.4c-7.4,0.2-14.7,0.6-21.8,1
			c-18.9,1.1-36.7,2-55.5-0.2c-4.8-0.5-9.6-1.4-14.3-2.4c-5-0.9-10.2-1.9-15.3-2.4c-14.6-1.6-29.6,0.2-44,1.8
			c-9.6,1.1-19.4,2.3-29.2,2.4c-10.4,0.2-20.9-0.7-31.1-1.5c-4.9-0.4-10-0.8-15-1.1c-26.8-1.6-54,0.3-80.4,2.1
			c-32.7,2.3-66.4,4.5-99.4,0.3c-2.7-0.4-5.3-0.8-8-1.1c-8.9-1.4-18.2-2.9-27.3-1.1l-0.1-0.5c9.2-1.7,18.5-0.3,27.5,1.1
			c2.6,0.4,5.3,0.8,7.9,1.1c32.9,4.2,66.7,1.9,99.3-0.3c26.4-1.8,53.7-3.7,80.5-2.1c5,0.3,10.1,0.8,15,1.1c10.2,0.8,20.7,1.7,31,1.5
			c9.7-0.2,19.6-1.3,29.1-2.4c14.5-1.7,29.4-3.4,44.1-1.8c5.2,0.5,10.3,1.5,15.4,2.4c4.6,0.8,9.5,1.7,14.2,2.4
			c18.7,2.2,36.5,1.2,55.4,0.2c7.1-0.4,14.5-0.8,21.8-1c8.6-0.2,19.6,0.5,31.2,1.4c12.2,0.8,24.7,1.7,37,1.7
			c16.9-0.1,33.9-1.7,50.4-3.3c17.5-1.7,34-3.3,49-2.8v0.6c-14.9-0.5-31.5,1.1-48.9,2.8c-16.5,1.6-33.4,3.2-50.4,3.3
			C1164.8,637.8,1164.7,637.8,1164.5,637.8z"/>
	</g>
	<g>
		<path class="st0" d="M736.1,631.1c-12.3,0-25.1-1.3-37.5-2.5c-16.2-1.6-31.5-3.1-43-1.4l-0.1-0.5c11.7-1.7,27-0.2,43.1,1.4
			c18.9,1.9,38.4,3.9,56.1,1.3c4.1-0.6,8.2-1.6,12.1-2.5c3.3-0.8,6.6-1.6,9.9-2.2c10.9-1.9,22.1-1.6,33-1.3l82.8,2.5
			c16,0.5,32.5,1,48.7-1.1c3.1-0.4,6.3-0.9,9.4-1.4c7-1.1,14.3-2.3,21.5-2.3c0.1,0,0.2,0,0.2,0c6.4,0,12.8,1,19,1.9
			c2.4,0.4,4.9,0.8,7.4,1.1c4.8,0.6,9.9,1.7,15.4,2.9c7.7,1.7,15.8,3.4,22.7,3.6c19.2,0.4,36.4-0.6,53.1-1.5
			c16.7-1,33.9-1.9,53.1-1.5c7.7,0.2,15.7,0.6,24.1,1.1c17.7,1.1,35.9,2.1,52.2,0.2c4.3-0.5,9.2-1.7,14.3-3
			c11.1-2.7,22.6-5.5,31.5-2.1l-0.2,0.5c-8.7-3.3-20.2-0.5-31.2,2.2c-5.2,1.3-9.9,2.4-14.3,3c-16.4,1.9-34.7,0.8-52.4-0.2
			c-8.4-0.5-16.4-1-24.1-1.1c-19.2-0.4-36.4,0.6-53.1,1.5c-16.7,1-33.9,1.9-53.1,1.5c-7-0.2-15-1.9-22.8-3.6
			c-5.5-1.2-10.6-2.3-15.3-2.9c-2.5-0.3-5-0.7-7.4-1.1c-6.2-0.9-12.6-1.8-19-1.8c-7.3,0-14.6,1.1-21.5,2.3c-3.1,0.5-6.3,1-9.4,1.4
			c-16.2,2-32.8,1.6-48.8,1.1l-82.9-2.5c-10.8-0.3-22-0.7-32.8,1.2c-3.3,0.6-6.7,1.4-9.9,2.2c-3.9,1-8.1,2-12.2,2.5
			C748.8,630.7,742.5,631.1,736.1,631.1z"/>
	</g>
	<g>
		<path class="st0" d="M1056.4,624c-1.1,0-2.4,0-3.5,0c-6.9-0.2-14-1.7-20.7-3.1c-5-1.1-10.2-2.2-15.2-2.7c-1.7-0.2-3.3-0.4-5-0.5
			c-20.4-2.2-41.5-4.5-61.8-1.4c-28.6,4.3-56.3,3.2-83.2,2.1c-13.4-0.5-27.3-1.1-41.1-1c-22,0.2-44.7,0.4-67,2.5
			c-1.9,0.2-3.8,0.4-5.7,0.5c-7.6,0.8-15.4,1.5-23.2,1.4c-6-0.1-12.1-0.8-18-1.4c-3.7-0.4-7.5-0.8-11.3-1.1l-1.3-0.1
			c-14.5-1.1-29.4-2.1-43.8,1.1l-0.2-0.5c14.5-3.3,29.5-2.1,44-1.1l1.3,0.1c3.8,0.3,7.6,0.7,11.3,1.1c5.8,0.6,12,1.3,18,1.4
			c7.7,0.2,15.5-0.7,23.1-1.4c1.9-0.2,3.8-0.4,5.8-0.5c22.3-2.1,45-2.3,67-2.5c13.8-0.2,27.7,0.5,41.1,1c26.8,1.1,54.5,2.2,83.1-2.1
			c20.5-3.1,41.6-0.8,62,1.4c1.7,0.2,3.3,0.4,5,0.5c5.1,0.5,10.3,1.7,15.3,2.7c6.7,1.4,13.7,3,20.5,3.1c13.3,0.2,25.9-1.1,38.1-2.4
			c11.2-1.1,22.8-2.4,35-2.4h0.1c6.9,0,15.1,0.9,23,1.7c3.6,0.4,7,0.8,10.2,1.1c17.7,1.5,33.5-0.1,50.2-1.8
			c16.6-1.7,33.8-3.5,55.3-2.6v0.6c-21.5-0.9-38.6,0.9-55.2,2.6c-16.7,1.7-32.5,3.3-50.4,1.8c-3.2-0.3-6.5-0.7-10.2-1.1
			c-7.9-0.8-16.1-1.7-22.9-1.7h-0.1c-12.2,0-23.7,1.2-35,2.4C1079.9,622.8,1068.5,624,1056.4,624z"/>
	</g>
	<g>
		<path class="st0" d="M1084.8,615.6c-6.6,0-13.3-1.4-19.6-2.7c-6.9-1.4-14.1-3-21.2-2.7c-2.7,0.1-5.5,0.5-8,0.8
			c-2.4,0.3-4.9,0.6-7.4,0.8c-8.2,0.5-16.4-1.2-24.3-2.7c-3.6-0.8-7.4-1.5-11.1-2c-18.7-2.7-37.9-0.2-56.4,2.1
			c-16.5,2.1-33.7,4.3-50.5,2.9c-4.4-0.4-8.9-1-13.2-1.7c-6.1-0.9-12.5-1.8-18.9-2c-8.3-0.2-16.7,0.8-24.7,1.8
			c-4.4,0.5-9,1.1-13.5,1.5c-5.5,0.5-11.2,0.2-16.7-0.1c-6.4-0.3-13-0.6-19.5,0.2c-28.9,3.7-56.3,2-78.3,0.8
			c-19.9-1.1-35.7-2.1-45.7,1l-0.2-0.5c10.2-3.2,25.9-2.2,46-1.1c22,1.3,49.4,2.9,78.3-0.8c6.4-0.8,13.1-0.5,19.6-0.2
			c5.5,0.2,11.1,0.5,16.6,0.1c4.5-0.4,9.1-0.9,13.5-1.5c8.1-1,16.5-2,24.9-1.8c6.4,0.2,12.7,1.1,19,2c4.3,0.6,8.8,1.2,13.2,1.6
			c16.8,1.4,33.8-0.8,50.4-2.9c18.6-2.4,37.8-4.9,56.6-2.1c3.7,0.5,7.5,1.3,11.2,2c7.9,1.6,16,3.2,24.1,2.7c2.4-0.2,4.9-0.5,7.3-0.8
			c2.7-0.4,5.4-0.7,8.1-0.8c7.2-0.3,14.4,1.2,21.3,2.7c6.7,1.4,13.7,2.9,20.6,2.7c8.4-0.2,16.7-1.4,24.6-2.6c4-0.6,8.2-1.2,12.3-1.7
			c9.5-1.1,19.2,0.2,28.5,1.4c2.2,0.3,4.5,0.6,6.8,0.9c19.2,2.3,40.3,0.7,60.7-0.9c16.6-1.3,32.2-2.5,45.6-1.5l-0.1,0.5
			c-13.3-1-28.9,0.2-45.5,1.5c-20.4,1.6-41.6,3.3-60.7,0.9c-2.3-0.3-4.5-0.6-6.8-0.9c-9.3-1.2-19-2.5-28.4-1.4
			c-4.2,0.5-8.3,1.1-12.3,1.7c-8,1.1-16.3,2.4-24.7,2.6C1085.5,615.6,1085.1,615.6,1084.8,615.6z"/>
	</g>
	<g>
		<path class="st0" d="M1182.2,610c-11.9,0-24.4-1.3-37.2-3.8c-7.5-1.5-14.8-1.4-22.5-1.4c-2,0-4.2,0-6.2,0
			c-12.1-0.2-22.2,0-32.8,1.4c-10.8,1.4-21.9-1.1-32.5-3.5c-7.3-1.6-14.8-3.3-22.1-3.8c-9.9-0.6-19.7-0.2-29,0.3
			c-10.6,0.5-21.4,1.3-31.8,2c-33.1,2.2-67.3,4.5-100.9,1.8c-2.6-0.2-5.1-0.5-7.7-0.7c-9.9-0.9-20.2-1.8-30.3-1
			c-6.7,0.5-13.3,1.9-19.7,3.1c-6.7,1.3-13.5,2.7-20.4,3.2c-11.8,0.9-23.7-0.7-35.2-2.1c-5-0.6-10.2-1.3-15.2-1.7
			c-26-2.4-53.3,0.8-79.6,3.8l-3.5,0.4l-0.1-0.5l3.5-0.4c26.4-3,53.6-6.2,79.8-3.8c5.1,0.5,10.2,1.1,15.2,1.7
			c11.5,1.5,23.4,3,35.1,2.1c6.8-0.5,13.7-1.9,20.3-3.2c6.4-1.3,13.1-2.6,19.8-3.1c10.1-0.8,20.4,0.1,30.3,1
			c2.6,0.2,5.1,0.5,7.7,0.7c33.5,2.6,67.8,0.3,100.9-1.8c10.5-0.7,21.2-1.4,31.8-2c9.3-0.5,19-0.9,29-0.3c7.4,0.5,14.9,2.1,22.2,3.8
			c10.6,2.4,21.6,4.9,32.4,3.5c10.5-1.3,20.8-1.5,32.8-1.4c2.1,0,4.2,0,6.2,0c7.7,0,15-0.1,22.6,1.4c16.5,3.3,32.5,4.4,47.2,3.5
			l2.7-0.2c23.3-1.5,47.3-3,70.1-6.7l0.1,0.5c-22.7,3.6-46.8,5.2-70.1,6.7l-2.7,0.2C1189,610,1185.6,610,1182.2,610z"/>
	</g>
	<g>
		<path class="st0" d="M655.6,602.5l-0.1-0.5c26.5-4.2,50.2-5.8,70.7-4.9c5,0.2,10.2,0.5,15.2,0.9c15.8,1.1,32.2,2.1,48.1-0.4
			c4.1-0.6,8.3-1.5,12.2-2.4c6.6-1.4,13.4-2.9,20.2-3.3c9-0.5,18,0.8,26.8,2c2.5,0.4,5.2,0.8,7.7,1.1c30.1,3.9,61,1.6,90.9-0.5
			c30.6-2.2,62.3-4.5,93-0.3c3.6,0.5,7.1,1.1,10.6,1.6c9.3,1.5,18.8,3,28.3,3c7.1-0.1,14.3-1.1,21.2-2c7.2-1,14.6-2,22.1-2
			c8.5,0,17,1.4,25.2,2.7c7,1.1,14.2,2.3,21.3,2.6c29.9,1.4,55.7,2.5,94.9-2.8l0.1,0.5c-39.3,5.3-65.1,4.2-94.9,2.8
			c-7.2-0.3-14.4-1.5-21.4-2.6c-8.2-1.3-16.7-2.7-25.1-2.7h-0.1c-7.4,0-14.8,1.1-22,2c-6.9,1-14.1,2-21.2,2
			c-9.6,0.1-19.1-1.4-28.4-3c-3.5-0.5-7.1-1.1-10.5-1.6c-30.7-4.2-62.3-1.9-92.9,0.3c-30,2.2-60.8,4.4-91,0.5
			c-2.6-0.3-5.2-0.7-7.7-1.1c-8.7-1.3-17.8-2.6-26.7-2c-6.8,0.4-13.6,1.9-20.2,3.3c-4,0.8-8.2,1.7-12.3,2.4
			c-15.9,2.5-32.3,1.4-48.2,0.4c-4.9-0.3-10.1-0.7-15.2-0.9C705.7,596.8,682,598.4,655.6,602.5z"/>
	</g>
	<g>
		<path class="st0" d="M1210,595.4c-5.8,0-12.6-0.5-21.4-1.6c-27-3.6-54-3.6-80.1-3.6c-23.1,0-46.9,0-70.8-2.5
			c-20.8-2.2-76.5-1.3-95.2-0.5c-16.5,0.6-29.8,1.4-41.9,2.4c-1.4,0.2-2.9,0.2-4.3,0.4c-9.8,0.8-19.9,1.7-30,1.1
			c-4.5-0.3-8.9-0.8-13.3-1.4s-8.9-1.1-13.3-1.4c-11.7-0.7-39.4,2.3-49.9,4.1c-21.2,3.6-38.7,2.4-57.3,1.2
			c-20.7-1.4-44.1-2.9-77,1.9l-0.1-0.5c33-4.8,56.4-3.3,77.1-1.9c18.5,1.2,36,2.4,57.1-1.2c10.6-1.8,38.4-4.8,50-4.1
			c4.5,0.2,9,0.8,13.4,1.4c4.3,0.5,8.9,1.1,13.3,1.4c9.9,0.6,20.1-0.2,29.9-1.1c1.4-0.2,2.9-0.2,4.3-0.4c12.1-1,25.3-1.7,41.9-2.4
			c18.7-0.8,74.4-1.6,95.2,0.5c23.8,2.5,47.6,2.5,70.7,2.5c26.2,0,53.2,0,80.2,3.6c20.2,2.7,29.8,1.5,40.9,0.1
			c8.5-1.1,18.1-2.4,34.2-1.8v0.6c-16-0.5-25.6,0.8-34,1.8C1223.3,594.6,1217.5,595.4,1210,595.4z"/>
	</g>
	<g>
		<path class="st0" d="M655.5,589.6l-0.1-0.5c28.1-2.9,55.6-5.4,81.1-3.8c4.2,0.3,8.6,0.7,12.8,1.1c11.1,1,22.5,2,33.7,0.9
			c5.9-0.6,11.9-1.7,17.7-2.9c6.1-1.2,12.4-2.4,18.7-3c8.5-0.8,17.2-0.2,25.6,0.3l3,0.2c41,2.4,71.1,3.6,113.7-1.4l0.8-0.1
			c8.4-1,22.4-2.7,30.3-1.5c2.8,0.4,6.5,0.8,10.4,1.2c5.2,0.5,10.4,1.1,14.1,1.7c14.8,2.6,29.8,2,44.4,1.4
			c7.7-0.3,15.7-0.7,23.6-0.5c2.7,0.1,5.2,0.1,7.8,0.2c15.8,0.2,30.8,0.5,46.6,2.3c7.9,0.9,18.1,0.7,29,0.5
			c12.4-0.3,25.1-0.6,34.3,1c12.4,2.1,21.8,0.5,30.7-1c9.3-1.6,18.1-3,30-0.5l-0.2,0.5c-11.8-2.5-20.5-1-29.7,0.5
			c-9,1.5-18.4,3.1-30.9,1c-9.1-1.5-21.8-1.3-34.1-1c-10.8,0.2-21.1,0.5-29-0.5c-15.8-1.8-30.7-2-46.6-2.3c-2.6,0-5.2-0.1-7.8-0.2
			c-7.9-0.2-15.8,0.2-23.6,0.5c-14.6,0.6-29.6,1.2-44.5-1.4c-3.6-0.6-8.9-1.2-14.1-1.7c-3.9-0.5-7.6-0.8-10.4-1.2
			c-7.7-1.1-21.7,0.5-30.1,1.5l-0.8,0.1c-42.7,5-72.8,3.9-113.8,1.4l-3-0.2c-8.3-0.5-17.1-1.1-25.5-0.3c-6.2,0.5-12.5,1.7-18.6,3
			c-5.8,1.1-11.8,2.4-17.7,2.9c-11.2,1.1-22.7,0.1-33.8-0.9c-4.2-0.4-8.6-0.8-12.8-1.1C711,584.2,683.6,586.7,655.5,589.6z"/>
	</g>
	<g>
		<path class="st0" d="M655.5,574.3l-0.1-0.5c6.4-0.5,13-1.2,19.3-1.9c16.8-1.7,34-3.6,51.3-2.9c5.5,0.2,10.9,0.8,16.2,1.3
			c10.2,1,20.7,2,30.9,0.8c4.9-0.6,9.7-1.5,14.4-2.4c4.4-0.8,9-1.7,13.6-2.4c15.5-2,31.5-0.2,46.9,1.7c16.7,2,33.9,4,50.6,1.1
			c3.4-0.6,6.8-1.4,10.1-2.1c4.9-1.1,10.1-2.3,15.2-2.8c10.4-1.1,20.9-0.2,31,0.6c6.3,0.5,12.7,1.1,19.1,1.1c8,0.1,16-0.5,23.8-1.1
			c8.7-0.7,17.7-1.4,26.6-1.1c7.5,0.2,15.1,1.4,22.4,2.4c10.4,1.5,21.2,3,31.8,2.2c27.8-2.3,59.4-3.9,71.8-3.9
			c5.5,0.1,12.4,0.3,19.6,0.6c9.9,0.4,21,0.9,31.9,0.9c21.6,0,43.7-2.1,62.1-6.1l0.2,0.5c-18.5,3.9-40.6,6.1-62.3,6.1
			c-10.8,0-22.1-0.5-31.9-0.9c-7.3-0.3-14.2-0.6-19.6-0.6c-12.4-0.1-44,1.6-71.8,3.9c-10.7,0.8-21.5-0.7-31.9-2.2
			c-7.3-1.1-14.9-2.1-22.3-2.4c-8.9-0.3-17.8,0.4-26.5,1.1c-7.8,0.6-15.8,1.2-23.8,1.1c-6.4-0.1-12.9-0.6-19.2-1.1
			c-10.2-0.8-20.6-1.7-30.9-0.6c-5.1,0.5-10.2,1.7-15.2,2.8c-3.3,0.8-6.7,1.5-10.2,2.1c-16.8,2.9-34,0.8-50.7-1.1
			c-15.4-1.8-31.3-3.7-46.9-1.7c-4.5,0.6-9.1,1.4-13.6,2.4c-4.7,0.9-9.6,1.9-14.4,2.4c-10.4,1.2-20.9,0.2-31.1-0.8
			c-5.3-0.5-10.8-1.1-16.2-1.3c-17.2-0.7-34.5,1.1-51.3,2.9C668.5,573.1,661.9,573.8,655.5,574.3z"/>
	</g>
	<g>
		<path class="st0" d="M655.6,566.9l-0.1-0.5c21.2-4.1,43.9-3.4,65.9-2.7c13.9,0.5,28.2,0.9,41.9,0.1c6.1-0.4,12.1-0.8,18-1.1
			c14.3-0.9,27.7-1.7,42.1-2.2c10.8-0.4,21.8,0.5,32.5,1.4c7.7,0.6,15.5,1.3,23.3,1.4c16.2,0.4,32.5-1.2,48.3-2.8
			c10.7-1.1,21.8-2.1,32.6-2.7c24.2-1.1,48.8,0.9,72.5,2.8c25.6,2,52.2,4.2,78.3,2.5c5.9-0.4,11.9-1,17.7-1.5c10.4-1,21.1-2,31.7-2
			c6.4,0.1,12.9,0.2,19.2,0.3c28.6,0.6,58.1,1.3,85.2-6.1l0.2,0.5c-27.1,7.4-56.7,6.7-85.3,6.1c-6.3-0.2-12.9-0.3-19.2-0.3
			c-10.5-0.1-21.2,1-31.6,2c-5.8,0.5-11.8,1.1-17.7,1.5c-26.1,1.7-52.6-0.5-78.3-2.5c-23.7-1.9-48.3-3.9-72.4-2.8
			c-10.8,0.5-21.9,1.6-32.6,2.7c-15.8,1.6-32.2,3.2-48.4,2.8c-7.8-0.2-15.7-0.8-23.4-1.4c-10.6-0.9-21.6-1.7-32.4-1.4
			c-14.4,0.5-27.8,1.3-42.1,2.2c-5.8,0.4-11.8,0.8-18,1.1c-13.6,0.8-28.1,0.4-41.9-0.1C699.4,563.5,676.7,562.8,655.6,566.9z"/>
	</g>
	<g>
		<path class="st0" d="M1100.7,558.9c-18.9,0-37.1-1.7-53.4-3.6c-36.2-4.2-66.7-2.4-96.2-0.6c-13.6,0.8-27.7,1.7-42.2,2
			c-15.2,0.3-32.9,0.3-50-1.8c-36.2-4.5-68.2-2.3-97.2,0.8c-3.3,0.3-6.6,0.8-9.9,1.1c-10.4,1.3-21.1,2.7-31.3,1.8
			c-4.5-0.3-8.9-0.8-13.2-1.1c-17.2-1.7-33.5-3.2-51.6,0.5l-0.1-0.5c18.2-3.6,34.5-2,51.8-0.5c4.3,0.4,8.7,0.8,13.2,1.1
			c10.2,0.8,20.9-0.5,31.2-1.8c3.3-0.4,6.6-0.8,9.9-1.1c29.1-3,61-5.2,97.4-0.8c17.1,2.1,34.8,2.1,49.9,1.8
			c14.6-0.3,28.7-1.1,42.2-2c29.5-1.8,60.1-3.6,96.4,0.6c25.7,3,56,5.5,86.5,1.6c3.7-0.5,7.5-1.1,11.2-1.8
			c7.1-1.3,14.6-2.6,21.9-2.6c20.7,0.2,41.8-1.7,58.7-3.3c16.8-1.5,30.2-2.7,38-1.7l-0.1,0.5c-7.7-1.1-21,0.1-37.8,1.7
			c-16.9,1.5-38,3.5-58.8,3.3c-7.4-0.1-14.7,1.3-21.8,2.5c-3.6,0.7-7.4,1.4-11.2,1.8C1122.8,558.3,1111.6,558.9,1100.7,558.9z"/>
	</g>
	<g>
		<path class="st0" d="M664.3,583.9c-3,0-6-0.3-8.9-1.1l0.2-0.5c8.3,2.2,17.8,0.5,27-1.3c4.5-0.8,8.7-1.6,12.8-2
			c7.4-0.6,14.9,0,22.1,0.7c3.3,0.3,6.6,0.6,9.9,0.8c1.4,0.1,3,0.2,4.4,0.2c14.2,0.8,28.9,1.7,43.1-0.5c36.4-5.5,67-4.5,99.3-3.5
			c30.5,0.9,62,1.9,100.4-2.5c15.2-1.7,33.6,0.9,47.8,3.4c10.6,1.9,25.4,0.9,37.3,0.2c2.3-0.2,4.5-0.3,6.6-0.4
			c55.3-3.2,88.7-2.4,137.6,3c17.4,2,35.6,1.1,59.4-2.6l0.1,0.5c-23.7,3.7-42.1,4.5-59.5,2.6c-48.8-5.5-82.2-6.2-137.4-3
			c-2,0.2-4.2,0.2-6.6,0.4c-11.9,0.8-26.8,1.7-37.5-0.2c-13.1-2.4-32.4-5.2-47.7-3.4c-38.4,4.4-70,3.5-100.5,2.5
			c-32.4-1-62.9-1.9-99.3,3.5c-14.3,2.1-29,1.3-43.1,0.5c-1.4-0.1-3-0.2-4.4-0.2c-3.3-0.2-6.7-0.5-9.9-0.8
			c-7.3-0.7-14.7-1.4-22.1-0.7c-4.1,0.4-8.3,1.1-12.7,2C676.5,582.8,670.3,583.9,664.3,583.9z"/>
	</g>
	<g>
		<path class="st0" d="M655.6,579.2l-0.2-0.5c18.7-4,39.7-5.7,62.3-5c8.4,0.2,15.4,1.1,22.2,2c13.9,1.8,27.1,3.5,48.2-1.3
			c23.6-5.3,49.4-3.3,74.4-1.4c7.1,0.5,13.9,1.1,20.5,1.4c22.7,1.1,45.9-1.2,66.4-3.3c18.2-1.8,33.9-3.5,44.4-2
			c30.3,4.2,59.5,3.2,87.8,2.3c11-0.4,22.4-0.8,33.5-0.8h8c29-0.2,51.8-0.2,81.3,2.3l1.6,0.2c7.7,0.7,15.6,1.4,23.3-0.2
			c3.1-0.6,6.1-1.4,8.9-2.2c7.4-2,14.4-4,24.8-2.7l-0.1,0.5c-10.2-1.4-17.2,0.6-24.6,2.7c-2.8,0.8-5.8,1.6-8.9,2.2
			c-7.7,1.5-15.7,0.8-23.4,0.2l-1.6-0.2c-29.5-2.5-52.3-2.4-81.3-2.3h-8c-11.1,0.1-22.4,0.4-33.5,0.8c-28.3,0.9-57.6,1.9-87.9-2.3
			c-10.4-1.4-26,0.2-44.2,2c-20.5,2.1-43.8,4.5-66.5,3.3c-6.6-0.3-13.3-0.8-20.5-1.4c-24.9-1.9-50.7-3.9-74.2,1.4
			c-21.2,4.8-34.4,3.1-48.4,1.3c-6.8-0.9-13.8-1.8-22.2-2C695.1,573.5,674.2,575.1,655.6,579.2z"/>
	</g>
</g>
</svg>
