<?xml version="1.0" encoding="utf-8"?>
<!-- Generator: Adobe Illustrator 23.0.2, SVG Export Plug-In . SVG Version: 6.00 Build 0)  -->
<svg version="1.1" id="Capa_1" xmlns="http://www.w3.org/2000/svg" xmlns:xlink="http://www.w3.org/1999/xlink" x="0px" y="0px"
	 viewBox="0 0 605 1023" style="enable-background:new 0 0 605 1023;" xml:space="preserve">
<style type="text/css">
	.st0{clip-path:url(#SVGID_2_);}
	.st1{fill:#33CCCC;}
</style>
<g>
	<defs>
		<rect id="SVGID_1_" width="605" height="1023"/>
	</defs>
	<clipPath id="SVGID_2_">
		<use xlink:href="#SVGID_1_"  style="overflow:visible;"/>
	</clipPath>
	<g class="st0">
		<path class="st1" d="M424.5,549.1c-7.8-0.3-15.6-0.6-23.4-0.9c-0.6,0-1.2-0.1-1.7-0.5c-0.4-0.4-0.4-1-0.4-1.5
			c0-6.7,0.1-13.4,1.2-20.1c0.4-2.1,0.9-4.3,0.9-6.5s-0.5-4.4-2-6c-0.9-1-2.1-1.7-3.3-2.4c-2.5-1.6-4.9-3.4-7.1-5.4
			c-0.5-0.4-1-1-1.2-1.6c-0.3-0.9,0.1-1.8,0.6-2.7c0.4-0.8,0.8-1.7,1.2-2.5c0.4-0.7,0.8-1.5,1.5-2c1.5-0.9,3.4,0.2,4.7,1.3
			c1.4,1.2,2.8,2.4,4.3,3.5c6.8,4.8,15.4,5.7,23.7,6.2c4,0.3,8.3,0.7,11.1,3.5c0.8,0.7,1.4,1.7,2,2.6c1.8,2.8,3.6,5.7,5.2,8.6
			c0.4,0.7,0.8,1.5,0.6,2.2c-0.1,0.5-0.4,0.9-0.7,1.2c-0.7,0.9-1.5,1.8-2.3,2.7c-0.4,0.4-0.7,0.9-1.2,1c-1.3,0.4-2.3-1.1-2.9-2.3
			c-1-1.7-2.1-3.2-3.5-4.6c-0.3-0.3-0.7-0.6-1.1-0.6s-0.8,0.4-1,0.8c-1.5,2.6-1.3,5.9-1.2,8.9c0.1,3.5,0,7-0.4,10.4
			C427.6,545.2,427.9,549.3,424.5,549.1z"/>
		<g>
			<path class="st1" d="M387.9,501.7l-0.2-0.1c-2.5-1.8-5.4-3.7-7-6.2c-1.8-2.7-1.4-6.2-0.9-9.6c0.3-1.7,0.5-2.6,0.8-4
				c0.3-1.1,0.6-2.5,1.1-4.7c0.1-0.6,0.3-1.1,0.4-1.6c0.4-1.1,0.7-2.1,0.4-2.8c-1.1-2.3-1-4.4-0.4-5.7c0.3-0.7,0.7-1.2,1.2-1.4
				c0.7-0.2,1.2-0.2,1.8,0.1c0.9,0.4,1.5,1.5,1.8,3c0.4,1.6,0.1,3-0.1,4c-0.1,0.4-0.1,0.8-0.1,1.1c0,2.1-0.1,4.1-0.1,6.1
				c-0.1,3.1-0.2,6-0.1,9.3c0.1,1,0.4,1.8,1,2.5l0.2,0.3c0.5,0.6,1,1.2,1.5,1.6s1,0.9,1.4,1.2s0.9,0.8,1.4,1.2l-0.5,0.7
				c-0.5-0.4-1-0.8-1.4-1.2c-0.4-0.4-0.9-0.8-1.4-1.2c-0.6-0.5-1.1-1.1-1.6-1.8l-0.2-0.3c-0.7-0.9-1.1-1.9-1.2-3
				c-0.1-3.2,0-6.2,0.1-9.3c0.1-2,0.1-4,0.1-6c0-0.4,0.1-0.7,0.1-1.2c0.1-1,0.4-2.3,0.1-3.7c-0.2-1.2-0.7-2.1-1.4-2.4
				c-0.4-0.2-0.7-0.2-1.2-0.1c-0.2,0.1-0.5,0.4-0.7,1c-0.4,1.1-0.5,2.9,0.4,4.9c0.4,1,0.1,2.1-0.3,3.4c-0.1,0.5-0.3,1-0.4,1.5
				c-0.4,2.3-0.8,3.6-1.1,4.7c-0.3,1.3-0.6,2.3-0.8,4c-0.5,3.3-0.8,6.5,0.8,9c1.5,2.4,4.3,4.3,6.8,6l0.2,0.1L387.9,501.7z"/>
		</g>
		<g>
			<path class="st1" d="M434.1,556.5c-0.1,0-0.4,0-0.5,0c-1.4-0.1-2.9-0.7-2.9-2c-0.1-1,0.7-1.6,1.3-2.2c0.2-0.1,0.4-0.4,0.6-0.5
				c0.5-0.5,0.8-1.2,1.1-1.8l5.4-12c0.2-0.5,0.5-1,0.5-1.6c0-0.6-0.2-1.2-0.5-1.8l-1.7-4l0.7-0.4l1.7,4c0.3,0.6,0.6,1.3,0.6,2.1
				c0,0.8-0.3,1.4-0.6,1.9l-5.4,12c-0.3,0.7-0.7,1.5-1.2,2.1c-0.2,0.2-0.4,0.4-0.7,0.6c-0.6,0.5-1.1,1-1,1.5
				c0.1,0.9,1.4,1.2,2.2,1.2c0.4,0,0.8,0.1,1.2-0.1c1.1-0.3,1.7-1.5,2.3-2.9c2.1-4.6,4.7-8.9,7.3-13.1l0.7-1.2
				c0.7-1.1,1.2-2.1,1.1-3.1c-0.1-0.8-0.5-1.6-0.9-2.3c-0.6-1-1.1-2.2-1.7-3.4c-0.5-1.2-1.1-2.4-1.7-3.4l0.7-0.4
				c0.6,1,1.1,2.2,1.7,3.5c0.5,1.2,1.1,2.4,1.6,3.4c0.4,0.7,0.9,1.7,1,2.6c0.1,1.4-0.7,2.6-1.2,3.6l-0.7,1.2
				c-2.6,4.2-5.2,8.4-7.2,13c-0.5,1.2-1.2,2.9-2.8,3.3C434.8,556.4,434.4,556.5,434.1,556.5z"/>
		</g>
		<g>
			<path class="st1" d="M419.6,608.8c-0.4,0-0.9-0.1-1.2-0.2c-0.5-0.2-1.1-0.7-1.2-1.8c-0.3-2.6-0.7-5.4-1.2-8.2
				c-0.7-4-1.4-8.3-1.6-12.3c-0.2-4.2-0.1-8.4,0.1-12.5c0.1-2.6,0.2-5.1,0.2-7.4c0-0.4-0.1-2.2-1-2.3c-0.4-0.1-1,0.4-1.3,0.7l-1,1
				c-3.9,3.7-7.3,6.8-10.4,11.5c-0.2,0.3-0.4,0.6-0.6,0.9c-1.2,1.8-2.7,3.8-1.5,6.9c0.4,1,1.4,3.5,1.8,4.3c1.4,3,2.1,4.7,3.1,7.5
				c1,2.9,1.4,4.2-0.9,6.4c-1.9,1.8-3.3,1.1-4,0.5c-0.4-0.4-0.7-1-0.9-1.4l-9.2-20.4c-0.4-0.9-0.8-1.8-0.9-2.9
				c-0.1-1.7,0.8-3.2,1.5-4.6l0.1-0.1c9.2-16.2,11.1-34.5,12.4-54.9c0.1-1,0.1-2.2-0.2-3.2c-0.6-1.5-1.8-3.3-3-4.1
				c-2.2-1.6-4.3-3.2-6.5-5.1c-0.3-0.2-0.7-0.5-1-0.8c-1.6-1.3-3.4-2.7-3.6-4c-0.2-1.4,1.8-4.9,3.7-6.4c1.2-1,2.5,0.1,4.4,1.9
				c0.8,0.7,1.7,1.5,2.7,2.4c6.8,5.4,15.9,6.5,22.3,6.9l1,0.1c2.6,0.1,6,0.4,8.2,1.2c6,2.1,8.4,6.8,11.2,12.3
				c0.4,0.7,0.7,1.4,1.1,2.1c0.7,1.5,1,2.2,1,2.6c-0.1,1-1.4,2.5-2.5,3.6l-0.4,0.4c-0.6,0.7-1.1,1.1-2,1.5c-1.5,0.7-2.9-1.6-4.1-3.7
				l-0.3-0.5c-0.2-0.4-0.4-0.7-0.6-1.1c-0.9-1.6-1.9-3.5-3.2-3.2c-2.5,0.6-2.9,12.4-3.3,20.3c-0.1,2.1-0.1,4-0.2,5.6
				c-0.4,6-0.8,11.8-1.2,17.3c-0.4,5.7-0.9,11.6-1.2,17.9c-0.2,3.4-0.1,7.4,0.1,12.9c0.3,6.8-0.2,10.8-1.4,11.6
				C421.8,608.4,420.7,608.8,419.6,608.8z M413.5,563.1c0.1,0,0.1,0,0.1,0c1.1,0.1,1.8,1.2,1.8,3.2c0,2.4-0.1,4.8-0.2,7.5
				c-0.1,4-0.4,8.2-0.1,12.3c0.2,4,1,8.2,1.6,12.2c0.5,2.9,1,5.7,1.2,8.3l0,0c0.1,0.6,0.3,1,0.7,1.2c0.9,0.4,2.4,0.1,3.7-0.8
				c0.7-0.5,1.3-3.6,1.1-10.9c-0.2-5.4-0.3-9.5-0.1-12.9c0.4-6.3,0.8-12.2,1.2-17.9c0.4-5.5,0.8-11.2,1.2-17.3
				c0.1-1.6,0.1-3.5,0.2-5.6c0.4-11.5,1-20.4,3.9-21.1c2-0.4,3.2,1.8,4.2,3.6c0.2,0.4,0.4,0.7,0.6,1.1l0.3,0.5
				c0.9,1.5,2.2,3.7,3,3.4c0.7-0.4,1.1-0.7,1.7-1.4l0.4-0.4c1.3-1.3,2.2-2.5,2.3-3.1c0-0.1-0.1-0.5-0.9-2.1
				c-0.4-0.7-0.7-1.5-1.1-2.1c-2.7-5.3-5.1-9.8-10.8-11.8c-2.2-0.7-5.4-1-8-1.1l-1-0.1c-6.4-0.4-15.7-1.6-22.7-7.1
				c-1.1-0.9-2-1.7-2.8-2.4c-1.8-1.6-2.6-2.4-3.3-1.8c-1.9,1.5-3.5,4.7-3.4,5.6c0.1,1,1.8,2.4,3.2,3.5c0.4,0.3,0.7,0.5,1,0.8
				c2.3,1.9,4.3,3.5,6.5,5.1c1.3,1,2.7,2.8,3.3,4.5c0.4,1.2,0.4,2.4,0.3,3.5c-1.4,20.6-3.2,38.9-12.6,55.2l-0.1,0.1
				c-0.7,1.3-1.5,2.6-1.5,4.1c0.1,0.9,0.4,1.8,0.8,2.6l9.2,20.4c0.1,0.4,0.4,0.9,0.7,1.2c0.5,0.4,1.3,1,2.8-0.5
				c1.9-1.9,1.6-2.9,0.7-5.6c-1-2.9-1.7-4.5-3.1-7.4c-0.4-0.9-1.4-3.4-1.8-4.3c-1.4-3.5,0.2-5.9,1.6-7.7c0.2-0.3,0.4-0.6,0.6-0.9
				c3.1-4.8,6.5-8,10.5-11.7l1-1C412.3,563.6,412.9,563.1,413.5,563.1z"/>
		</g>
		<g>
			<path class="st1" d="M417.1,507.3c-1.1-1.9-0.6-4.1-0.2-5.3c0.4-1.2,1-2.3,1.6-3.3c0.2-0.4,0.4-0.9,0.7-1.3c0.5-1,0.8-1.8,1-2.6
				c0.7-2.6-0.1-5.4-2-7.3c-1.8-1.8-4.6-2.7-7.2-2.1c-0.7,0.1-1.2,0.4-1.5,0.7c-0.3,0.2-0.5,0.4-0.8,0.8c-0.8,1-1.4,2.1-1.8,3.4
				c-0.7,2.1-0.8,5,1,6.9c0.5,0.6,1.2,1,1.8,1.5c1,0.7,1.9,1.3,2.5,2.3c1,1.5,0.2,4.1-1.1,5.5l-0.6-0.6c1.1-1.1,1.8-3.2,1-4.5
				c-0.5-0.9-1.4-1.5-2.3-2.1c-0.7-0.4-1.4-1-2-1.5c-2-2.2-1.9-5.4-1.2-7.7c0.4-1.4,1.1-2.6,2-3.6c0.4-0.4,0.7-0.7,1-1
				c0.5-0.4,1.1-0.6,1.8-0.8c2.9-0.7,6,0.3,8,2.4c2.1,2.1,2.9,5.2,2.2,8c-0.2,0.8-0.5,1.7-1.1,2.7c-0.2,0.4-0.4,0.9-0.7,1.3
				c-0.6,1-1.2,2.1-1.5,3.2c-0.4,1-0.8,2.9,0.1,4.6L417.1,507.3z"/>
		</g>
		<path class="st1" d="M404.5,487.5c-1-0.1-2.4-0.3-2.6-1.3c-0.1-0.7,0.4-1.4,1-1.7c0.6-0.4,1.3-0.5,1.9-1c1.2-0.9,1.8-2.7,3.3-3.1
			c0.4-0.1,1-0.1,1.4-0.1c1.6-0.4,2.7-2.2,4.4-2.1c1.9,0.1,2.7,2.9,4.6,3.4c0.9,0.2,2-0.1,2.7,0.5c0.9,0.8,0.3,2.4,1,3.5
			c0.7,1,2.5,1.1,2.9,2.4c0.4,1.4-1.5,2.4-1.8,3.8c-0.1,0.9,0.3,1.7,0.6,2.6c0.4,0.8,0.5,1.8-0.1,2.5c-0.4,0.4-1.1,0.7-1.2,1.2
			c0,0.3,0.1,0.6,0.1,0.9c0.1,0.8-1,1.3-1.8,1s-1.1-1.2-1.3-1.9c-0.2-1-0.3-2.1-0.1-3.1c0.1-1,0.6-2.1,0.1-3
			c-0.5-1.2-2.2-1.8-2.4-3.1c-0.1-0.5,0.1-1-0.1-1.5c-0.1-0.5-0.6-0.8-1-1.1c-0.8-0.5-1.7-0.8-2.6-0.8c-2.1,0.1-2.8,1.2-4.5,1.2
			c-1,0-1.5,2.5-2.1,2.4C406.1,489,405.7,487.6,404.5,487.5z"/>
		<g>
			<path class="st1" d="M399.1,613.3c-1.1,0-2.1-0.4-2.4-1.4s0.1-1.8,0.6-2.5c0.8-1.2,2.2-2.9,4.3-3.5l0,0c1.4-0.4,3.4-0.4,4.3,0.7
				c0.4,0.4,0.8,1.2,0.4,2.5c-0.7,2-3.8,3.5-5.6,4C400.1,613.2,399.6,613.3,399.1,613.3z M403.2,606.4c-0.5,0-1,0.1-1.5,0.2l0,0
				c-1.8,0.6-3.1,2.1-3.8,3.2c-0.5,0.7-0.7,1.3-0.5,1.8c0.3,1,1.9,1,2.9,0.7c1.7-0.6,4.5-2,5.1-3.5c0.2-0.7,0.2-1.2-0.1-1.6
				C404.8,606.7,404,606.4,403.2,606.4z"/>
		</g>
		<g>
			<path class="st1" d="M417.3,617.8c-1.1,0-2.1-0.4-2.4-1.4c-0.2-0.7-0.1-1.5,0.6-2.5c0.8-1.2,2.2-2.9,4.3-3.5l0,0
				c1.4-0.4,3.4-0.4,4.3,0.7c0.4,0.4,0.8,1.2,0.4,2.5c-0.7,2-3.8,3.5-5.6,4C418.3,617.7,417.8,617.8,417.3,617.8z M421.4,610.9
				c-0.5,0-1,0.1-1.5,0.2l0,0c-1.8,0.6-3.1,2.1-3.8,3.2c-0.4,0.7-0.7,1.3-0.5,1.8c0.3,1,1.9,1,2.9,0.7c1.7-0.6,4.5-2,5.1-3.5
				c0.2-0.7,0.2-1.2-0.1-1.6C423,611.1,422.2,610.9,421.4,610.9z"/>
		</g>
		<g>
			<path class="st1" d="M383.3,466.3L383.3,466.3c-0.3,0-0.4-0.2-0.4-0.4c1.9-15.2,1.4-25,0.7-37.4c-0.6-10.3-1.2-21.9-0.7-39.7
				c0-0.2,0.2-0.4,0.4-0.4l0,0c0.2,0,0.4,0.2,0.4,0.4c-0.5,17.8,0.1,29.4,0.7,39.6c0.7,12.4,1.2,22.3-0.7,37.5
				C383.7,466.1,383.6,466.3,383.3,466.3z"/>
		</g>
		<path class="st1" d="M383.3,393.5c1.5-13.8-25.3-15.6-37.6-28.4c-14.9-15.4-16.1-49.4,4.6-64.4c20.7-15.1,45.6-14.8,63.6,4.3
			c15.4,16.5,17.1,40.9-1.2,59C401.1,375.5,384.7,380.9,383.3,393.5z"/>
		<g>
			<path class="st1" d="M-12.3,908.5c-8.1,0-16.5-3.8-24.2-7.3c-1-0.4-2.1-1-3.2-1.4c-13.7-6.1-25-3.1-38,0.5
				c-17.4,4.8-37.1,10.1-69.3-3.8c-5.3-2.3-10.5-4.9-15.6-7.4c-14.8-7.3-30-15-46.6-14.7c-8,0.1-16.1,1.4-23.9,2.6
				c-2.1,0.4-4.3,0.7-6.4,1c-28.3,4.2-50.7,3.3-70.3-2.6c-8.5-2.6-16.7-6.2-24.8-9.8c-7-3.1-14.3-6.3-21.7-8.8
				c-25.1-8.4-54.2-3.3-74.2,2.5c-6.2,1.8-11.2,4-17.3,7.7c-1.8,1.1-3.6,2.4-5.4,3.5c-3.5,2.4-7.3,4.8-11.3,6.5
				c-13.6,5.7-29.8,1.4-41.5-1.6c-16.3-4.3-33.1-8.7-48.5-16.4c-2.4-1.2-4.4-2.6-6.4-4c-4.3-3-8.4-5.8-16-6.7
				c-7.9-0.9-19.1,4-26.2,9l-0.3-0.4c7.2-5.1,18.5-10.1,26.6-9.1c7.7,0.9,12,3.9,16.2,6.8c1.9,1.3,4,2.7,6.3,3.9
				c15.3,7.6,32.1,12,48.4,16.3c11.7,3.1,27.7,7.3,41.1,1.7c4-1.6,7.6-4.1,11.2-6.5c1.8-1.2,3.6-2.4,5.4-3.5
				c6.1-3.7,11.2-6,17.4-7.7c20.1-5.8,49.2-10.9,74.5-2.5c7.4,2.5,14.7,5.7,21.7,8.8c7.9,3.5,16.2,7.2,24.7,9.8
				c19.5,6,41.8,6.8,70.1,2.6c2.1-0.3,4.3-0.7,6.4-1c7.9-1.2,15.9-2.5,24-2.6c16.7-0.3,32,7.3,46.9,14.8c5.1,2.6,10.4,5.1,15.6,7.4
				c32.1,13.9,51.7,8.5,69,3.8c13.1-3.6,24.4-6.7,38.3-0.4c1,0.4,2.1,1,3.2,1.4c10.7,4.8,22.7,10.3,33.1,5.3
				c3.6-1.7,6.5-4.6,9.4-7.3c0.7-0.6,1.2-1.2,1.9-1.8c32.9-30.6,83.4-31,123.7-28h0.4c9.1,0.7,18.6,1.4,27-1.9
				c5.5-2.1,10.2-5.9,14.8-9.6l1.5-1.2c23.4-18.4,49.6-32.5,77.8-42.1c0.7-0.2,1.5-0.5,2.1-0.7c5.8-1.9,11.8-4,16.8-7.4
				c3.7-2.5,6.8-5.7,9.8-8.9c2.1-2.2,4.3-4.4,6.7-6.5c12.9-10.9,30.3-14.3,47.1-17.6c17.7-3.4,36.1-6.9,48.7-19.5
				c2.6-2.5,4.8-5.4,7.1-8.2c2.6-3.3,5.4-6.8,8.6-9.7c2.9-2.6,6.2-4.7,9.4-6.8c6.2-4,12-7.9,15.1-14.2c4-8.2,2-14.2-0.1-23.6
				c-1.8-8.2-3.7-16.7-1.3-24.6c1.8-6,8.8-19,11.8-24.8c7.9-15.7,5.4-31.9,2.4-50.6c-2-12.3-4-25.1-3.3-39.4h0.6
				c-0.7,14.3,1.4,27,3.3,39.3c3,18.8,5.6,35-2.4,51c-3,6-9.9,18.9-11.8,24.8c-2.4,7.7-0.5,16.2,1.3,24.3c2.1,9.1,4.2,15.6,0.1,23.9
				c-3.2,6.4-9.3,10.4-15.3,14.4c-3.2,2.1-6.5,4.3-9.3,6.8c-3.2,2.9-6,6.3-8.6,9.6c-2.2,2.8-4.5,5.7-7.1,8.2
				c-12.8,12.6-31.2,16.2-49,19.6c-16.7,3.2-34.1,6.5-46.9,17.4c-2.4,2-4.5,4.3-6.6,6.4c-3.1,3.2-6.2,6.4-9.9,9
				c-5.1,3.5-11.2,5.5-17,7.5c-0.7,0.2-1.5,0.5-2.1,0.7c-28.1,9.6-54.3,23.7-77.6,42l-1.5,1.2c-4.6,3.7-9.4,7.4-15,9.6
				c-8.6,3.4-18.1,2.6-27.3,2h-0.4c-40.2-3.1-90.6-2.6-123.3,27.8c-0.7,0.6-1.2,1.2-1.9,1.8c-2.9,2.8-5.9,5.7-9.6,7.4
				C-6,907.9-9.2,908.5-12.3,908.5z"/>
		</g>
		<g>
			<path class="st1" d="M-171.2,920.7c-2.9,0-5.7-0.3-8.2-1c-8.2-2.2-14.2-7.3-20.6-12.7l-1.2-1c-17.7-15-31.1-24.8-38.6-28.1
				c-35-15.7-65.2-13.7-103.5-11l-4.6,0.3c-1.7,0.1-3.4,0.2-5.1,0.4c-11.9,0.9-24.2,1.8-35.2-2.6c-4.6-1.8-8.8-4.6-12.9-7.3
				c-2.5-1.7-5.1-3.4-7.9-4.8c-6.8-3.7-14.3-4.1-21.6-1c-8.2,3.5-15.9,10.1-22.9,19.7c-0.5,0.7-1.1,1.5-1.6,2.3
				c-5.5,7.6-11.2,15.4-19.5,19.6c-10.2,5.1-23.4,4-40.3-2.9c-2.2-1-4.5-1.9-6.7-2.9c-10.3-4.5-20.9-9.2-32.2-9.2
				c-0.1,0-0.2,0-0.3,0c-1.3,0-2.6,0.1-3.9,0.1c-3.7,0.2-7.4,0.4-10.9-0.8c-7.1-2.4-11.2-9.7-14.8-16.2l-0.7-1.3
				c-2.4-4.4-9.2-15.1-18.9-19.4l0.2-0.5c9.8,4.3,16.7,15.2,19.2,19.6l0.7,1.3c3.7,6.7,7.6,13.6,14.5,15.9c3.5,1.2,7.1,1,10.7,0.7
				c1.3-0.1,2.6-0.1,4-0.1c0.1,0,0.2,0,0.3,0c11.3,0,22,4.7,32.4,9.3c2.2,1,4.5,2,6.7,2.9c16.7,7,29.8,7.9,39.8,3
				c8.2-4,13.9-11.9,19.3-19.4c0.5-0.7,1.1-1.5,1.6-2.3c7-9.6,14.8-16.3,23.1-19.9c7.5-3.2,15.1-2.9,22.1,1c2.7,1.5,5.4,3.2,7.9,4.9
				c4,2.6,8.2,5.4,12.8,7.3c10.9,4.5,23.1,3.5,35,2.6c1.7-0.1,3.4-0.3,5.1-0.4l4.6-0.3c38.3-2.6,68.6-4.7,103.8,11.1
				c7.7,3.5,20.7,12.9,38.7,28.2l1.2,1c6.3,5.4,12.3,10.5,20.3,12.6c10.2,2.7,24.3-0.4,34.4-7.4c18.9-13.3,38.9-24.6,58.1-17.5
				c3.2,1.2,6.2,2.9,9.2,4.6c3.5,2,7.1,4,10.9,5.1c11.2,3.4,22.6-0.7,33.7-4.7c4.9-1.8,10-3.5,15-4.7c11.5-2.7,23.7-2.1,35.3-1.4
				c10.1,0.5,20.4,1.1,30.5-0.4c12.1-1.9,23.6-6.8,34.7-11.6c6.5-2.8,13.1-5.7,19.8-7.9c20.2-6.8,42.3-8.5,63.7-10.2
				c30.6-2.4,62.1-4.8,87.3-22.4c7.6-5.3,14.5-11.9,21.2-18.3c10.1-9.8,20.6-19.8,33.7-25.3c5.1-2.1,10.6-3.5,15.9-4.8
				c9.3-2.4,19-4.8,26.4-11.2c4.3-3.7,7.6-8.7,10.8-13.5c3.2-4.9,6.6-10.1,11.2-13.9c5.4-4.6,12.4-7.2,19.1-9.8
				c9.5-3.6,18.4-7,23.4-15.2c4-6.5,4-11.1,4.2-19.1c0.1-4.3,0.1-8.9,1-13.1c1.4-7.9,5.3-15.6,9-23.1c6.2-12.4,12-21.9,7.2-33.9
				c-2.9-7.4-1.6-14.1-0.2-21.2c0.9-4.4,1.8-9,1.7-14c-0.1-6.3-0.1-12-0.2-17c-0.1-15.4-0.1-25.6-3.2-35.6l0.5-0.1
				c3.2,10,3.2,20.3,3.3,35.7c0,5,0.1,10.7,0.2,17c0.1,5.1-0.8,9.6-1.7,14.1c-1.4,7-2.7,13.5,0.1,20.9c4.8,12.3-1,21.9-7.3,34.4
				c-3.7,7.4-7.5,15.1-8.9,22.9c-0.7,4.3-0.9,8.7-1,13.1c-0.1,7.7-0.3,12.7-4.3,19.3c-5.1,8.4-14,11.8-23.6,15.4
				c-6.7,2.6-13.6,5.2-19,9.7c-4.6,3.8-7.9,8.9-11.2,13.8c-3.2,4.8-6.5,9.8-10.9,13.6c-7.4,6.4-17.1,8.9-26.6,11.3
				c-5.3,1.3-10.7,2.7-15.8,4.8c-13.1,5.4-23.5,15.4-33.6,25.1c-6.7,6.4-13.6,13.1-21.2,18.4c-25.3,17.6-56.9,20.1-87.6,22.5
				c-21.4,1.7-43.4,3.4-63.6,10.1c-6.7,2.3-13.4,5.1-19.8,7.9c-10.9,4.8-22.4,9.8-34.6,11.7c-10.1,1.5-20.5,1-30.6,0.4
				c-11.7-0.7-23.7-1.2-35.2,1.4c-5,1.2-10.1,2.9-14.9,4.7c-11.2,4-22.8,8.2-34.1,4.7c-3.9-1.2-7.5-3.2-11-5.2
				c-2.9-1.7-6-3.4-9.1-4.6c-18.9-7.1-38.9,4.2-57.6,17.4C-152.3,917.6-162.3,920.7-171.2,920.7z"/>
		</g>
		<g>
			<path class="st1" d="M725.5,795.2c-0.4,0-0.9,0-1.3,0c-8.3-0.3-16.1-3.6-23.7-6.7c-6.6-2.7-13.4-5.6-20.6-6.5
				c-9.6-1.2-19.3,1.2-28.7,3.5c-9.6,2.4-19.6,4.8-29.5,3.5c-7.3-1-15-3.5-22.4-5.8c-14.5-4.6-29.4-9.3-42.6-4.3
				c-1.7,0.7-3.4,1.5-5,2.3c-2.6,1.3-5.2,2.6-8.1,3.2c-8.2,1.5-15.1-3.4-22.2-8.5c-4.8-3.5-9.9-7.2-15.5-8.7
				c-6.7-1.8-15.9,1.3-24.8,4.3c-11.4,3.8-23.2,7.7-29.8,1.6c-5.1-4.8-6.2-12-7.1-19c-0.8-5.7-1.6-11.5-4.6-16.2
				c-1.2-1.9-2.9-3.7-4.4-5.4c-2.1-2.2-4.1-4.5-5.4-7.2c-3.2-6.8,0.4-9.1,5.1-15.9c4.7-6.8,10.6-15.4,11.8-28.7
				c1.4-14.4-4.8-27.3-10.3-40.6c-3.9-9.4-7.5-18.4-7.7-25.4c-0.3-11,1.9-19,4.1-26.5c2.9-10.3,5.7-20,1.5-36.3l0.5-0.1
				c4.3,16.5,1.5,26.2-1.5,36.6c-2.2,7.6-4.4,15.4-4.1,26.4c0.2,7,3.8,15.9,7.7,25.2c5.5,13.4,11.7,26.3,10.3,40.8
				c-1.3,13.5-7.2,22.1-12,29c-4.7,6.8-8.1,8.9-5,15.4c1.2,2.6,3.4,4.9,5.4,7.1c1.6,1.7,3.2,3.5,4.5,5.4c3.1,4.8,3.9,10.7,4.7,16.5
				c1,7.2,2,14,7,18.7c6.3,5.9,18,2.1,29.2-1.7c9-3,18.4-6.1,25.2-4.3c5.7,1.5,10.8,5.2,15.7,8.7c7.1,5.1,13.7,9.9,21.8,8.4
				c2.8-0.5,5.4-1.8,7.9-3.2c1.6-0.8,3.3-1.7,5-2.4c13.4-5.1,28.4-0.3,43,4.3c7.4,2.4,15.1,4.8,22.3,5.8c9.8,1.4,19.7-1,29.3-3.5
				c9.5-2.4,19.2-4.8,28.9-3.5c7.2,0.9,14,3.7,20.6,6.5c7.5,3.2,15.3,6.4,23.4,6.7c7.4,0.3,14.3-1.8,20.1-4
				c7.9-2.9,15.7-7,23.3-10.9c12.6-6.6,25.6-13.4,39.4-15.1l0.1,0.5c-13.7,1.7-26.7,8.4-39.3,15c-7.6,4-15.4,8.1-23.4,10.9
				C739.3,793.2,732.7,795.2,725.5,795.2z"/>
		</g>
		<g>
			<path class="st1" d="M592.5,789.5c-14.2,0-28.1-1.9-41.4-7.2c-6-2.4-11.8-5.4-17.5-8.4c-11.6-6.1-23.7-12.4-36.8-12.7
				c-8.6-0.1-17,2.3-25.2,4.6c-4.6,1.3-9.3,2.7-14,3.6c-12.4,2.4-29.2,0.7-36.1-11.8c-6.2-11.2-0.7-23,5.1-35.5
				c4.5-9.6,9.1-16.6,8.2-26.6c-0.6-6-3.2-11.5-5.7-16.9c-2.2-4.8-4.6-7.6-5.4-12.9c-3.4-19.2,0.7-29.8,11.9-47.3
				c5.8-9.2,5-15.7,4.5-19.7c-0.1-0.8-0.2-1.5-0.2-2.1c-0.3-7.4-1.6-12.4-2.9-17.3c-1.8-6.8-3.7-13.9-2.6-27.6l0.5,0.1
				c-1.2,13.7,0.6,20.3,2.5,27.5c1.3,4.8,2.6,9.9,2.9,17.4c0,0.6,0.1,1.2,0.2,2.1c0.5,4,1.4,10.7-4.6,20.1
				c-11.1,17.5-15.1,27.8-11.8,46.9c0.9,5.2,3.2,7.9,5.4,12.7c2.5,5.4,5.1,11,5.7,17c1,10.1-3.7,17.2-8.2,26.9
				c-5.7,12.3-11.1,23.9-5.1,35c6.7,12.3,23.3,13.9,35.5,11.5c4.7-0.9,9.4-2.3,14-3.6c8.2-2.4,16.7-4.8,25.3-4.6
				c13.3,0.3,25.3,6.6,37,12.8c5.7,2.9,11.5,6,17.4,8.4c30.3,12,63.8,6.5,96.2,1c10.4-1.8,21.2-3.6,31.7-4.8
				c21.3-2.4,38.5-3.5,65.4,4.7c21.7,6.6,48.9,4.3,62.8-1.8l0.2,0.5c-14,6.2-41.4,8.5-63.2,1.8c-26.7-8.2-43.9-7.1-65.2-4.7
				c-10.4,1.2-21.2,3-31.6,4.8C629.3,786.4,610.6,789.5,592.5,789.5z"/>
		</g>
		<g>
			<path class="st1" d="M778.9,809.2c-12,0-21.7-1.5-34.6-5.4c-6.8-2.1-13.9-4.8-20.9-8.3c-1.9-1-3.8-2-5.7-2.9
				c-9-4.7-18.2-9.5-28.3-10c-9.6-0.5-19,3-28.1,6.5c-1.5,0.6-3,1.1-4.5,1.7c-20.6,7.5-50.7,14.1-77.2,2.5c-2.1-1-4.3-2-6.3-3
				c-3.7-1.9-7.7-3.8-11.8-5.1c-10.1-3-21.1-1.6-30.8-0.4l-42,5.2c-7.4,1-15.9,2-23.7,0.1c-8.7-2.1-15.5-7.9-17.4-14.9
				c-0.5-1.8-0.7-3.7-0.9-5.5c-0.2-2.3-0.5-4.6-1.3-6.8c-2.3-6-8-8.8-14-12c-5.1-2.6-10.3-5.2-13.4-9.8c-5.3-7.8-2.8-18.2,1.4-25.4
				c2.3-4,5.1-4.6,7.9-8.2c2.6-3.3,5.4-6.8,7.6-10.5c10.8-18.2,6.9-36.2,2.8-57.5c-2.8-14.3-5.7-29.1-3.9-43.6
				c0.1-0.6,0.3-1.7,0.6-3.2c1.6-8.2,5.9-30.2,0-40.8l0.5-0.3c6,10.8,1.7,32.9,0.1,41.2c-0.3,1.5-0.5,2.6-0.6,3.2
				c-1.8,14.4,1.1,29.2,3.8,43.4c4.2,21.5,8.1,39.5-2.9,58c-2.2,3.7-4.9,7.2-7.6,10.6c-2.8,3.5-5.6,4.2-7.9,8.2
				c-4,7.1-6.5,17.3-1.4,24.9c3.1,4.5,8.2,7.1,13.1,9.6c5.9,3,12,6.1,14.3,12.3c0.9,2.2,1.1,4.6,1.3,6.8c0.2,1.8,0.4,3.7,0.9,5.4
				c1.9,6.8,8.5,12.5,17,14.5c7.8,1.8,15.8,0.8,23.5-0.1l42-5.2c9.8-1.2,20.9-2.6,31,0.4c4.1,1.2,8.1,3.2,11.9,5.1
				c2.1,1,4.2,2.1,6.3,3c26.4,11.5,56.3,5,76.8-2.5c1.5-0.5,3-1.1,4.5-1.7c9.1-3.5,18.5-7,28.3-6.5c10.2,0.5,19.5,5.4,28.5,10.1
				c1.9,1,3.8,2,5.7,2.9c7,3.5,14,6.2,20.7,8.3c12.9,3.8,22.6,5.3,34.5,5.3c8.7,0,17.3-1.7,28.1-5.5l0.2,0.5
				C796.4,807.4,787.7,809.2,778.9,809.2z"/>
		</g>
		<g>
			<path class="st1" d="M53.9,910.3c-12,0-23.9-1.5-35.4-4.5c-2.8-0.7-5.6-1.5-8.3-2.4c-6.9-2.1-14-4.1-21.3-4.8
				c-11.8-1-23.7,1.7-35.1,4.4c-13.5,3.2-27.5,6.4-41.1,3.4c-6.9-1.5-13.8-5.1-20.5-8.4c-9.8-5-19.8-10.1-30.3-9.4
				c-8.4,0.7-16.2,4.4-23.8,8c-10.1,4.8-20.4,9.8-32.4,7.9c-16.3-2.5-28-8.2-39.2-13.8c-8.1-4-16.5-8.2-26.4-10.9
				c-1.8-0.5-3.7-1.2-5.9-2.1c-9.6-3.6-23.9-9.1-53.1-1.5c-11.2,2.9-21.7,8.4-31.9,13.7c-2.9,1.5-5.7,3-8.7,4.5
				c-16.5,8.2-35.8,10.9-55.9,7.8c-4.5-0.7-8.8-2.1-12.9-3.3c-3.4-1-6.8-2.1-10.4-2.9c-11.5-2.4-19.9-5.7-27.2-10.9
				c-4.2-2.9-7.9-6.5-11.7-9.9c-2.6-2.4-5.4-4.9-8.2-7.2c-1.4-1.2-2.9-2.5-4.6-3.9c-6-5.4-12.8-11.4-19.5-11.5
				c-4.1-0.1-18.4,0.7-28.1,14.4c-1.5,2.2-2.9,4.6-4.3,6.9c-2.3,4.1-4.7,8.4-8.3,11.5c-4.9,4.4-14,8.4-23.3,7.3
				c-4.1-0.5-7.5-1.9-10.8-3.4c-5.4-2.4-10.6-4.6-18.7-2.6l-0.1-0.5c8.4-2,13.8,0.4,19.1,2.6c3.2,1.4,6.6,2.8,10.7,3.3
				c9.1,1.1,18.1-2.8,22.9-7.2c3.5-3.2,5.9-7.3,8.2-11.4c1.3-2.4,2.7-4.8,4.3-7c9.8-13.9,24.3-14.7,28.5-14.6
				c7,0.1,13.9,6.2,19.9,11.7c1.6,1.4,3.1,2.7,4.5,3.9c2.8,2.3,5.6,4.8,8.2,7.2c3.7,3.4,7.5,6.9,11.6,9.8c7.2,5.1,15.5,8.5,27,10.9
				c3.6,0.7,7.1,1.8,10.4,2.9c4.1,1.3,8.4,2.6,12.9,3.3c20.1,3.1,39.2,0.4,55.6-7.7c2.9-1.5,5.8-3,8.7-4.5
				c10.1-5.3,20.6-10.8,32-13.7c29.3-7.6,43.9-2.1,53.5,1.6c2.1,0.8,4,1.5,5.8,2c10,2.7,18.4,6.9,26.5,10.9
				c11.2,5.5,22.8,11.2,39.1,13.7c11.8,1.8,22.1-3.1,32.1-7.9c7.6-3.7,15.6-7.4,24-8.1c10.6-0.8,20.7,4.4,30.6,9.4
				c6.6,3.4,13.5,6.9,20.3,8.4c13.5,2.9,27.4-0.3,40.8-3.4c11.5-2.6,23.5-5.4,35.3-4.4c7.3,0.7,14.5,2.8,21.4,4.8
				c2.7,0.8,5.5,1.6,8.3,2.4c31.3,8.2,66,5.1,95.4-8.7c8.2-3.9,16.2-8.6,23.9-13.2c7.6-4.6,15.6-9.3,23.8-13.1
				c13.7-6.5,34.2-12.9,53-6.4c1,0.3,1.8,0.7,2.8,1c5.4,2,10.9,4,15.8,1.6c3.9-1.9,6-6.2,7.9-10.1c14.9-30,32.4-48.3,53.4-55.8
				c12.7-4.6,26.5-5,39.9-5.4c5-0.1,10.1-0.3,15.2-0.7c16.2-1.2,37.8-6.1,48.3-22.5c3.8-6,5.8-12.9,7.7-19.7c1-3.6,2.1-7.3,3.4-10.8
				c3.7-9.9,9.8-19.4,15.6-28.6c10.7-16.8,20.9-29.8,17.8-48.3c-0.7-4.5-2.4-6.7-3.9-10.9c-1.8-5.1-3.8-10.5-4.3-16.1
				c-0.6-6.8,0.7-15.4,2.1-25.5c2.6-18.7,6-41.9-2.4-60.3l0.5-0.2c8.4,18.6,5.1,41.9,2.4,60.7c-1.4,10-2.6,18.7-2.1,25.3
				c0.4,5.5,2.4,10.8,4.3,15.9c1.5,4.3,3.2,6.5,3.9,11c3.2,18.7-7.1,31.7-17.9,48.6c-5.8,9.1-11.9,18.6-15.6,28.4
				c-1.3,3.5-2.4,7.2-3.4,10.7c-1.9,6.8-3.9,13.8-7.8,19.8c-10.7,16.6-32.4,21.5-48.8,22.8c-5.1,0.4-10.2,0.5-15.2,0.7
				c-13.3,0.4-27.1,0.8-39.7,5.4c-20.9,7.6-38.3,25.7-53.1,55.5c-1.9,3.9-4.1,8.3-8.2,10.3c-5.1,2.5-10.7,0.4-16.2-1.6
				c-1-0.4-1.9-0.7-2.8-1c-18.7-6.4-38.9-0.1-52.7,6.3c-8.2,3.8-16.1,8.5-23.8,13.1s-15.7,9.3-24,13.2
				C95.6,905.8,74.7,910.3,53.9,910.3z"/>
		</g>
		<g>
			<path class="st1" d="M-16.3,906.6c-18.8,0-37.8-7.1-56.2-14c-24.2-9-49.3-18.4-73.6-11.6c-4,1.1-7.9,2.4-11.7,3.6
				c-17.3,5.5-33.6,10.7-49.5,1.8c-3.5-2-6.9-4.4-10.1-6.8c-5.4-3.9-11-8-17.4-10c-14.1-4.4-28.6,1.5-42.6,7.3
				c-2.2,0.9-4.4,1.8-6.6,2.6c-22.1,8.7-47.8,11.8-74.3,9.2c-25.3-2.5-50.3-10.1-72.3-22.1c-10.7-5.8-23.4-6.5-33.1-1.9
				c-2.9,1.4-5.7,3.3-8.4,5.1c-2.6,1.8-5.3,3.6-8.2,5.1c-8.7,4.3-19.8,4.9-32.9,2c-5-1.1-10-2.6-14.8-4.1
				c-5.7-1.7-11.5-3.5-17.4-4.6c-19.3-3.7-40.3-0.8-57.4,8l-0.2-0.5c17.3-8.9,38.3-11.8,57.7-8.1c6,1.2,11.8,2.9,17.5,4.6
				c4.8,1.5,9.8,2.9,14.8,4c13.1,2.9,24,2.3,32.6-1.9c2.9-1.4,5.5-3.2,8.1-5c2.7-1.8,5.5-3.7,8.4-5.2c9.9-4.7,22.8-4,33.6,1.9
				c46.3,25.1,102.2,30,146,12.9c2.2-0.9,4.4-1.8,6.6-2.6c14.1-5.8,28.7-11.8,43-7.3c6.5,2.1,12.1,6.1,17.6,10.1
				c3.2,2.4,6.6,4.8,10.1,6.8c15.6,8.9,31.9,3.7,49.1-1.8c3.8-1.2,7.8-2.5,11.8-3.6c24.5-6.8,49.7,2.6,73.9,11.6
				s49.3,18.4,73.6,11.6c5.8-1.6,11.7-4.2,17.3-6.7c11.2-4.9,22.8-10.1,34.8-7.6c4.8,1,9.3,3.1,13.6,5.1c2.5,1.2,5.1,2.4,7.8,3.5
				c6,2.3,12.4,3.4,19.2,3.4c17.2,0,36.7-7.3,58.2-22c4.4-3,8.8-6.2,13.1-9.3c18.2-13.1,37-26.6,59.1-30.6
				c7.9-1.5,16.2-1.6,24.2-1.8c11.8-0.2,24-0.5,35-4.9c9.4-3.7,17.5-10.3,25.3-16.6c3.2-2.6,6.5-5.2,9.8-7.7
				c16.6-12.1,36.1-20,56.5-22.7c1.5-0.2,3.1-0.4,4.6-0.6c5.4-0.6,10.9-1.2,15.9-3.1c20.9-7.5,29.5-32,30.5-52.5
				c0.4-8.5,0-14.3-0.4-22.8c-0.7-12.9-1.3-26.1,1.1-38.9c1.3-7,3.6-11.8,5.8-18.7c4.8-14.8,9.7-30.2,4.9-44.9l0.5-0.1
				c4.8,14.8-0.1,30.3-4.9,45.3c-2.2,6.8-4.4,11.7-5.7,18.6c-2.4,12.7-1.8,26-1.1,38.8c0.4,8.4,0.9,14.3,0.4,22.8
				c-1.1,20.6-9.8,45.3-30.9,52.9c-5.1,1.8-10.7,2.5-16.1,3.1c-1.5,0.1-3.1,0.4-4.6,0.6c-20.3,2.7-39.7,10.5-56.3,22.6
				c-3.3,2.4-6.6,5.1-9.8,7.7c-7.9,6.3-15.9,12.9-25.4,16.7c-11.2,4.4-23.4,4.7-35.3,4.9c-8,0.1-16.2,0.4-24.1,1.8
				c-22,4-40.8,17.5-58.9,30.6c-4.3,3.1-8.7,6.2-13.1,9.3c-30.1,20.6-56.3,26.8-77.9,18.7c-2.6-1-5.3-2.3-7.8-3.5
				c-4.3-2.1-8.7-4.2-13.4-5.1c-11.8-2.4-22.8,2.5-34.5,7.6c-5.7,2.5-11.5,5.1-17.3,6.7C-4.5,905.9-10.3,906.6-16.3,906.6z"/>
		</g>
		<g>
			<path class="st1" d="M582.3,812.9c-13.4,0-26.6-4.9-39.5-9.7c-16.2-6-33.1-12.3-49.7-8.4c-5.9,1.4-11.5,4-16.9,6.5
				c-3.5,1.6-7,3.2-10.6,4.6c-11.4,4.2-21.8,3.7-28.7-1.2c-7.7-5.6-11.2-16.8-9.2-30.1c0.7-4.3,1.7-8.6,2.7-12.7
				c1.5-6.3,3.2-12.9,3.3-19.5c0.1-9.2-2.6-18.4-5.1-27.3c-3.3-11.2-6.8-20-4.2-31.5c1.2-5.1,3.5-10,5.7-14.7c1.8-3.8,3.7-5.6,5-9.6
				c2.1-6.9,2.4-14.2,2.7-21.2l1.8-41.4h0.6l-1.8,41.4c-0.3,7.1-0.6,14.4-2.7,21.4c-1.2,4.1-3.2,5.9-5,9.7
				c-2.2,4.6-4.6,9.5-5.7,14.5c-2.6,11.4,0.9,20.1,4.2,31.2c2.6,8.9,5.4,18.1,5.1,27.4c-0.1,6.7-1.8,13.2-3.3,19.6
				c-1,4.1-2.1,8.4-2.7,12.7c-1.9,13.1,1.4,24.2,9,29.6c6.8,4.9,17,5.3,28.2,1.2c3.6-1.3,7.1-3,10.5-4.6c5.4-2.6,11-5.1,17-6.5
				c16.8-3.9,33.6,2.4,50,8.4c15.5,5.7,31.6,11.7,47.6,9c9-1.5,17.6-5.8,25.9-9.9c10.9-5.4,22.3-11.1,34.5-10.1
				c9.1,0.7,17.5,4.9,25.6,9c8,4,16.2,8.2,25.2,9c12,1,22.7-4.2,34.1-9.6c2.8-1.3,5.7-2.7,8.5-4c10.9-4.8,24.1-6,38.1-3.6
				c1.1,0.2,2.1,0.4,3.2,0.6c0.6,0.1,1.1,0.2,1.7,0.4c6,1.2,13.8,2.1,19.8,2.4v0.5c-6-0.3-13.9-1.3-19.9-2.5
				c-0.6-0.1-1.1-0.2-1.7-0.4c-1.1-0.2-2.1-0.4-3.2-0.6c-13.9-2.4-26.9-1.2-37.8,3.5c-2.9,1.2-5.7,2.6-8.5,4
				c-10.9,5.2-22.3,10.6-34.4,9.6c-9-0.7-17.3-4.9-25.3-9c-8.1-4.1-16.4-8.3-25.3-9c-12.1-0.9-22.8,4.5-34.2,10.1
				c-8.3,4.1-16.9,8.4-26,9.9C587.9,812.7,585.1,812.9,582.3,812.9z"/>
		</g>
		<g>
			<path class="st1" d="M42.3,906.1c-2.4,0-4.8-0.2-7.3-0.7c-8.3-1.8-15.7-6.7-22.8-11.5c-9-6-17.5-11.7-27.7-11.7h-0.1
				c-3.6,0-7.2,0.8-10.7,1.5c-1.8,0.4-3.7,0.8-5.7,1.1c-16.8,2.6-33.4-3.5-49.5-9.4c-2.3-0.9-4.6-1.7-6.9-2.5
				c-15.5-5.5-38.2-11.7-56.1-1.4c-32.3,18.7-65.2,20.1-92.7,3.9c-14.7-8.7-28.5-13.5-43.6-15.4c-20.7-2.6-40,0.7-62.6,10.7
				c-12.8,5.7-27.4,9.9-43.3,12.9l-1.7,0.3c-14.2,2.6-26.4,4.8-42.4-7.9c-9.4-7.5-23.1-11.3-32.7-12.4c-7.5-0.8-15.2-0.2-22.7,0.4
				c-8.4,0.7-17,1.3-25.5,0c-13.4-2.1-25.4-9.2-37-15.9c-2.4-1.4-4.9-2.9-7.4-4.3c-17.7-10-33.6-13.4-47-10.2l-0.1-0.5
				c13.7-3.2,29.6,0.2,47.5,10.3c2.5,1.4,5,2.9,7.4,4.3c11.6,6.8,23.5,13.8,36.8,15.9c8.4,1.3,17,0.7,25.3,0
				c7.5-0.6,15.2-1.2,22.8-0.4c9.7,1,23.5,4.9,33,12.5c15.7,12.6,27.9,10.4,41.9,7.8l1.7-0.3c15.9-2.9,30.4-7.2,43.2-12.8
				c22.6-9.9,42.1-13.2,62.9-10.7c15.1,1.8,29.1,6.8,43.8,15.5c27.3,16.1,60,14.7,92.1-3.9c18.1-10.4,40.9-4.3,56.5,1.3
				c2.3,0.8,4.6,1.7,6.9,2.5c16,5.9,32.5,12,49.2,9.4c1.9-0.3,3.7-0.7,5.6-1.1c3.5-0.7,7.1-1.5,10.7-1.5h0.1c10.4,0,19.3,6,28,11.8
				c7.1,4.8,14.5,9.6,22.6,11.4c14.8,3.2,29.2-4.3,43-11.5c3-1.5,6.1-3.2,9.1-4.6c28.1-13.5,60.5-17.1,90.9-10
				c3.5,0.8,6.9,1.8,10.3,2.6c9,2.5,18.4,5,27.8,4.9c17.9-0.1,35-10.3,43.8-25.9c3.1-5.4,5.5-11.3,7.9-17c4-9.6,8.2-19.6,15.4-27.4
				c19.4-20.9,35.8-33.3,85.6-17.3c34.5,11.1,47.2,10.6,59-2.6c5.5-6.1,6.7-15.1,7.1-23.1c0.8-16.5-0.4-33.1-3.8-49.4
				c-0.4-1.6-0.7-3.3-1.1-4.9c-2.2-10-4.5-17.4-2.1-27.3c1.5-6.2,4.6-12,7.6-17.5c3.7-6.7,7.5-11.4,8.2-19c0.9-9.8-2.6-19.5-6-28.7
				c-3.2-8.7-6.5-17.8-6.2-27c0.1-6.7,1.6-10.9,2.9-14.9c2.4-7,4.6-13.6-0.1-32.5l0.5-0.1c4.8,19,2.5,25.7,0.1,32.8
				c-1.4,4-2.8,8.2-2.9,14.8c-0.2,9.2,3,18.1,6.2,26.9c3.4,9.3,6.9,19,6.1,28.9c-0.7,7.7-4.5,12.5-8.2,19.2
				c-3,5.5-6.2,11.2-7.6,17.3c-2.3,9.8,0,17.2,2.1,27.1c0.4,1.7,0.7,3.3,1.1,4.9c3.4,16.3,4.7,32.9,3.8,49.5
				c-0.4,8-1.6,17.1-7.2,23.4c-12,13.4-24.8,14-59.6,2.9c-49.5-16-65.8-3.6-85.1,17c-7.2,7.8-11.3,17.6-15.4,27.3
				c-2.4,5.7-4.8,11.6-7.9,17c-8.9,15.7-26.2,25.9-44.3,26.2c-9.5,0.1-18.9-2.5-27.9-4.9c-3.4-1-6.8-1.8-10.3-2.6
				c-30.3-7.1-62.4-3.5-90.5,9.9c-3,1.5-6.1,3-9,4.6C66.6,899.9,54.7,906.1,42.3,906.1z"/>
		</g>
		<g>
			<path class="st1" d="M-175.9,898.5c-4.9,0-9.7-0.7-14-2.3c-8.5-3-15.1-9.6-21.4-16c-1.2-1.2-2.4-2.4-3.5-3.5
				c-5.9-5.7-14.9-13.7-26-16.7c-9-2.4-21.5-1.1-28.5,7.3c-2.4,2.9-4.1,6.5-5.7,9.9c-1.8,3.7-3.6,7.6-6.4,10.7
				c-6.7,7.2-18,9.5-33.6,6.8c-13.1-2.3-25.8-6.2-37.8-11.8c-1.7-0.8-3.5-1.6-5.2-2.4c-11.5-5.5-23.5-11.2-35.6-8.3
				c-6.6,1.5-12.8,6.3-18.7,10.9c-5.7,4.4-11.5,8.9-17.9,10.7c-11.4,3.2-23,3.5-35.8,3.5c-4,0-8.7-0.1-12.9-1.7
				c-5.5-2-9.9-6-13.5-9.7c-3.2-3.4-6.3-7-9.3-10.4c-3.7-4.3-7.5-8.7-11.6-12.7c-8.8-8.5-17.9-13.4-26.7-14.6
				c-8.9-1.2-17.8,1.4-25.5,3.9c-11.2,3.6-22.6,8.4-37.1,15.5l-0.2-0.5c14.5-7.1,25.9-11.9,37.2-15.6c7.7-2.5,16.7-5.1,25.7-3.9
				s18.1,6.1,27.1,14.8c4.1,4,7.9,8.4,11.6,12.7c3,3.5,6.1,7.1,9.3,10.4c3.5,3.7,7.9,7.6,13.3,9.6c4.2,1.5,8.8,1.6,12.7,1.6
				c12.9,0,24.5-0.2,35.7-3.5c6.2-1.8,12-6.2,17.7-10.7c6-4.6,12.2-9.4,19-11c12.3-2.9,24.3,2.8,36,8.4c1.8,0.8,3.5,1.7,5.2,2.4
				c12,5.5,24.6,9.4,37.6,11.7c15.5,2.7,26.6,0.4,33.1-6.5c2.8-3,4.6-6.8,6.3-10.5c1.6-3.5,3.3-7.1,5.8-10c7.3-8.6,19.8-10,29.1-7.5
				c11.2,3,20.3,11,26.3,16.8c1.2,1.2,2.4,2.4,3.5,3.5c6.3,6.4,12.8,12.9,21.2,15.9c13.5,4.8,30.6,1.9,44.7-7.4
				c16.9-11.2,36.7-6.5,57.6-1.5c12.1,2.9,24.6,5.9,36.5,5.5c10.9-0.3,21.5-3.5,31.9-6.5c9.4-2.8,19.2-5.7,29.1-6.4
				c11.4-0.8,22.9,1.2,34,3.1c9,1.5,18.4,3.2,27.6,3.3c17.7,0.1,35.5-5.1,52.7-10.3c24.6-7.3,47.8-14.3,71.2-6.8
				c1.6,0.5,3.3,1.1,4.8,1.7c6,2.2,12.3,4.4,18.4,3.1c6.4-1.4,11.3-6.4,16.1-11.8c2.7-3,5.4-6.1,8.1-9.1
				c18.8-21.3,38.3-43.3,62.8-58.2c14.4-8.7,31-14.3,46.6-15.8c17.4-1.6,33.6,1.8,46.6,9.8c2.4,1.5,4.7,3.1,7,4.6
				c8.1,5.6,16.5,11.4,25.9,10.2c5.9-0.7,11-4.1,16-7.4c2.6-1.7,5.2-3.5,8-4.8c19.2-9.8,39.5-1.9,61,6.4c16.7,6.5,34,13.1,51.1,10.9
				c15.8-2.1,29.4-11.6,42.5-20.8c2.9-2.1,6-4.2,9-6.2c14.9-10,36.7-20.1,55.4-11.4c4.9,2.3,9.3,5.7,13.5,9.1
				c5.7,4.6,11.7,9.3,18.9,10.8c11.1,2.4,21.1-3.1,31.7-8.8c1.8-1,3.5-1.9,5.3-2.9c5.7-2.9,12.8-5.6,20.1-7.3
				c2.4-0.6,5.4-1.2,8.5-1.2c9.8-0.1,15,1.3,20,2.6c4.1,1.1,7.9,2.2,14.3,2.5v0.6c-6.3-0.3-10.4-1.4-14.3-2.5
				c-5-1.4-10.1-2.8-19.8-2.6c-3.1,0.1-6.1,0.7-8.4,1.2c-7.2,1.8-14.3,4.4-19.9,7.3c-1.8,1-3.5,1.9-5.3,2.8
				c-10.2,5.5-20.7,11.2-32,8.9c-7.3-1.5-13.3-6.3-19.1-10.9c-4.2-3.3-8.5-6.8-13.4-9c-18.5-8.6-40,1.4-54.9,11.3c-3,2-6,4.2-9,6.2
				c-13.1,9.3-26.8,18.8-42.8,20.9c-17.2,2.2-34.5-4.5-51.3-10.9c-21.3-8.2-41.4-16-60.5-6.4c-2.7,1.4-5.4,3.2-7.9,4.8
				c-5,3.3-10.2,6.8-16.2,7.5c-9.7,1.2-18.1-4.6-26.4-10.3c-2.3-1.5-4.6-3.2-6.9-4.6c-25-15.4-61.3-13-92.7,6
				c-24.5,14.8-43.9,36.8-62.7,58c-2.7,3.1-5.4,6.1-8.1,9.1c-4.9,5.4-9.8,10.5-16.4,12c-6.3,1.4-12.6-0.9-18.7-3.1
				c-1.6-0.6-3.2-1.2-4.8-1.7c-23.2-7.4-46.4-0.5-70.9,6.8c-17.3,5.1-35,10.4-52.8,10.3c-9.3-0.1-18.7-1.8-27.8-3.3
				c-11.1-1.9-22.6-4-33.9-3.1c-9.8,0.7-19.6,3.6-29,6.4c-10.4,3.1-21.1,6.2-32,6.5c-12,0.4-24.5-2.6-36.7-5.5
				c-20.8-5-40.5-9.6-57.2,1.5C-154.5,895.1-165.6,898.5-175.9,898.5z"/>
		</g>
		<path class="st1" d="M1058.1,791.8c-13.4,5.1-28.4,0.3-43-4.3c-7.4-2.4-15.1-4.8-22.3-5.8c-9.8-1.4-19.7,1-29.3,3.5
			c-9.5,2.4-19.2,4.8-28.9,3.5c-7.2-0.9-14-3.7-20.6-6.5c-7.5-3.2-15.3-6.4-23.4-6.7c-7.4-0.3-14.3,1.8-20.1,4
			c-7.9,2.9-15.7,7-23.3,10.9c-12.6,6.6-27.4,7-39.8,13.3l-0.2-0.5c13.1-6.4,27.3-6.6,39.8-13.2c7.6-4,15.4-8.1,23.4-10.9
			c5.1-2,11.8-4,18.9-4c0.4,0,0.9,0,1.3,0c8.3,0.3,16.1,3.6,23.7,6.7c6.6,2.7,13.4,5.6,20.6,6.5c9.6,1.2,19.3-1.2,28.7-3.5
			c9.6-2.4,19.6-4.8,29.5-3.5c7.3,1,15,3.5,22.4,5.8c14.5,4.6,29.4,9.3,42.6,4.3"/>
		<path class="st1" d="M1063.6,788.4c-30.3-12-63.8-6.5-96.2-1c-10.4,1.8-21.2,3.6-31.7,4.8c-21.3,2.4-38.5,3.5-65.4-4.7
			c-21.7-6.6-49-12.4-62.9-6.3l-0.2-0.5c14-6.2,41.4-0.4,63.3,6.3c26.7,8.2,43.9,7.1,65.2,4.7c10.4-1.2,21.2-3,31.6-4.8
			c18.2-3.2,36.9-6.3,55-6.3"/>
		<path class="st1" d="M1034.7,777.5c-26.4-11.5-56.3-5-76.8,2.5c-1.5,0.5-3,1.1-4.5,1.7c-9.1,3.5-18.5,7-28.3,6.5
			c-10.2-0.5-19.5-5.4-28.5-10.1c-1.9-1-3.8-2-5.7-2.9c-7-3.5-14-6.2-20.7-8.3c-12.9-3.8-22.6-5.3-34.5-5.3
			c-8.7,0-17.2,1.6-28.6,3.7l-0.1-0.5c11.7-2.1,20.1-3.8,28.8-3.8c12,0,21.7,1.5,34.6,5.4c6.8,2.1,13.9,4.8,20.9,8.3
			c1.9,1,3.8,2,5.7,2.9c9,4.7,18.2,9.5,28.3,10c9.6,0.5,19-3,28.1-6.5c1.5-0.6,3-1.1,4.5-1.7c20.6-7.5,50.7-14.1,77.2-2.5"/>
		<path class="st1" d="M1024.2,758.4c-9,1.5-17.6,5.8-25.9,9.9c-10.9,5.4-22.3,11.1-34.5,10.1c-9.1-0.7-17.5-4.9-25.6-9
			c-8-4-16.2-8.2-25.2-9c-12-1-22.7,4.2-34.1,9.6c-2.8,1.3-5.7,2.7-8.5,4c-10.9,4.8-24.1,6-38.1,3.6c-1.1-0.2-2.1-0.4-3.2-0.6
			c-0.6-0.1-1.1-0.2-1.7-0.4c-6-1.2-14.2-1.1-20.2-1.4v-0.6c6,0.3,14.3,0.4,20.3,1.6c0.6,0.1,1.1,0.2,1.7,0.4
			c1.1,0.2,2.1,0.4,3.2,0.6c13.9,2.4,26.9,1.2,37.8-3.5c2.9-1.2,5.7-2.6,8.5-4c10.9-5.2,22.3-10.6,34.4-9.6c9,0.7,17.3,4.9,25.3,9
			c8.1,4.1,16.4,8.3,25.3,9c12.1,0.9,22.8-4.5,34.2-10.1c8.3-4.1,16.9-8.4,26-9.9"/>
		<path class="st1" d="M1046.6,761.9c-15.8,2.1-29.4,11.6-42.5,20.8c-2.9,2.1-6,4.2-9,6.2c-14.9,10-36.7,20.1-55.4,11.4
			c-4.9-2.3-9.3-5.7-13.5-9.1c-5.7-4.6-11.7-9.3-18.9-10.8c-11.1-2.4-21.1,3.1-31.7,8.8c-1.8,1-3.5,1.9-5.3,2.9
			c-5.7,2.9-12.8,5.6-20.1,7.3c-2.4,0.6-5.4,1.2-8.5,1.2c-9.8,0.1-15-1.3-20-2.6c-4.1-1.1-8.3-1.3-14.6-1.6v-0.5
			c6.3,0.3,10.8,0.4,14.7,1.5c5,1.4,10.1,2.8,19.8,2.6c3.1-0.1,6.1-0.7,8.4-1.2c7.2-1.8,14.3-4.4,19.9-7.3c1.8-1,3.5-1.9,5.3-2.8
			c10.2-5.5,20.7-11.2,32-8.9c7.3,1.5,13.3,6.3,19.1,10.9c4.2,3.3,8.5,6.8,13.4,9c18.5,8.6,40-1.4,54.9-11.3c3-2,6-4.2,9-6.2
			c13.1-9.3,26.8-18.8,42.8-20.9"/>
	</g>
</g>
</svg>
