<?xml version="1.0" encoding="utf-8"?>
<!-- Generator: Adobe Illustrator 23.0.2, SVG Export Plug-In . SVG Version: 6.00 Build 0)  -->
<svg version="1.1" id="Capa_1" xmlns="http://www.w3.org/2000/svg" xmlns:xlink="http://www.w3.org/1999/xlink" x="0px" y="0px"
	 viewBox="0 0 1920 960" style="enable-background:new 0 0 1920 960;" xml:space="preserve">
<style type="text/css">
	.st0{clip-path:url(#SVGID_2_);}
	.st1{fill:#33CCCC;}
</style>
<g>
	<defs>
		<rect id="SVGID_1_" x="0.4" width="1919.6" height="960"/>
	</defs>
	<clipPath id="SVGID_2_">
		<use xlink:href="#SVGID_1_"  style="overflow:visible;"/>
	</clipPath>
	<g class="st0">
		<path class="st1" d="M1215.5,390.9c-9.2-0.3-18.5-0.7-27.7-1c-0.7,0-1.5-0.1-2-0.6c-0.4-0.4-0.4-1.1-0.4-1.7
			c0-7.9,0.1-15.9,1.5-23.7c0.4-2.5,1-5,1-7.6c0-2.6-0.6-5.2-2.3-7.1c-1-1.2-2.5-2-3.9-2.9c-3-1.9-5.8-4-8.4-6.4
			c-0.6-0.5-1.2-1.1-1.4-1.9c-0.3-1,0.2-2.2,0.7-3.2c0.5-1,1-2,1.5-3c0.4-0.9,1-1.8,1.7-2.3c1.7-1,4,0.3,5.6,1.6
			c1.7,1.4,3.3,2.8,5,4.1c8,5.6,18.2,6.7,28.1,7.4c4.7,0.3,9.8,0.8,13.1,4.1c1,0.9,1.7,2,2.3,3c2.2,3.3,4.3,6.7,6.2,10.2
			c0.4,0.8,1,1.7,0.7,2.6c-0.2,0.6-0.5,1-0.9,1.5c-0.9,1-1.8,2.2-2.7,3.2c-0.4,0.5-0.9,1-1.5,1.2c-1.6,0.4-2.7-1.3-3.5-2.7
			c-1.1-2-2.5-3.8-4.2-5.4c-0.3-0.3-0.8-0.7-1.3-0.7s-1,0.5-1.2,1c-1.8,3-1.6,6.9-1.4,10.5c0.2,4.1,0,8.3-0.4,12.3
			C1219.3,386.2,1219.6,391,1215.5,390.9z"/>
		<g>
			<path class="st1" d="M1172.3,334.7l-0.3-0.2c-3-2.1-6.3-4.4-8.3-7.4c-2.1-3.2-1.7-7.4-1-11.3c0.3-2,0.6-3.1,1-4.8
				c0.3-1.3,0.7-3,1.3-5.6c0.2-0.7,0.3-1.3,0.5-1.9c0.4-1.3,0.8-2.5,0.4-3.3c-1.3-2.7-1.1-5.2-0.5-6.7c0.3-0.9,0.9-1.5,1.4-1.7
				c0.8-0.3,1.5-0.3,2.2,0.1c1,0.5,1.8,1.8,2.2,3.6c0.4,1.9,0.1,3.6-0.1,4.8c-0.1,0.5-0.2,1-0.2,1.3c0,2.4-0.1,4.9-0.2,7.2
				c-0.2,3.6-0.3,7.1-0.1,10.9c0.1,1.1,0.4,2.1,1.1,3l0.3,0.3c0.6,0.7,1.1,1.4,1.7,1.9c0.6,0.5,1.1,1,1.7,1.5c0.5,0.4,1,1,1.7,1.5
				l-0.6,0.8c-0.6-0.5-1.1-1-1.7-1.5c-0.5-0.4-1-1-1.7-1.5c-0.7-0.6-1.3-1.3-1.9-2.1l-0.3-0.3c-0.9-1-1.3-2.3-1.4-3.6
				c-0.2-3.8,0-7.3,0.1-11c0.1-2.3,0.2-4.7,0.2-7.1c0-0.4,0.1-0.9,0.2-1.5c0.2-1.2,0.4-2.7,0.1-4.4c-0.3-1.4-0.9-2.4-1.7-2.9
				c-0.4-0.3-0.9-0.3-1.4-0.1c-0.3,0.1-0.6,0.5-0.9,1.1c-0.5,1.3-0.6,3.5,0.5,5.8c0.5,1.1,0.1,2.5-0.3,4c-0.2,0.6-0.3,1.2-0.5,1.8
				c-0.5,2.7-1,4.3-1.3,5.6c-0.3,1.6-0.7,2.7-1,4.7c-0.6,3.9-1,7.7,1,10.6c1.8,2.8,5.1,5.1,8,7.1l0.3,0.2L1172.3,334.7z"/>
		</g>
		<g>
			<path class="st1" d="M1226.9,399.5c-0.2,0-0.4,0-0.6,0c-1.7-0.1-3.4-0.8-3.5-2.3c-0.1-1.1,0.8-1.9,1.6-2.6
				c0.3-0.2,0.4-0.4,0.7-0.6c0.6-0.6,1-1.4,1.3-2.2l6.4-14.2c0.3-0.6,0.6-1.2,0.6-1.9c0-0.7-0.3-1.4-0.6-2.1l-2-4.7l0.9-0.4l2,4.7
				c0.3,0.7,0.7,1.6,0.7,2.4s-0.3,1.7-0.7,2.3l-6.4,14.2c-0.3,0.8-0.8,1.7-1.5,2.4c-0.3,0.3-0.5,0.4-0.8,0.7
				c-0.7,0.6-1.3,1.1-1.2,1.8c0.1,1,1.7,1.4,2.6,1.5c0.4,0,1,0.1,1.5-0.1c1.3-0.3,2-1.8,2.7-3.4c2.4-5.4,5.6-10.5,8.6-15.5l0.9-1.5
				c0.8-1.3,1.4-2.4,1.3-3.6c-0.1-1-0.6-1.9-1-2.7c-0.7-1.2-1.3-2.6-2-4c-0.6-1.4-1.3-2.9-2-4l0.9-0.5c0.7,1.2,1.3,2.6,2,4.1
				c0.6,1.4,1.3,2.8,1.9,4c0.5,0.9,1,2,1.1,3.1c0.1,1.7-0.8,3.1-1.5,4.3l-0.9,1.5c-3,5-6.2,10-8.5,15.4c-0.6,1.4-1.5,3.4-3.3,3.9
				C1227.7,399.5,1227.3,399.5,1226.9,399.5z"/>
		</g>
		<g>
			<path class="st1" d="M1209.8,461.4c-0.5,0-1-0.1-1.4-0.3c-0.6-0.3-1.3-0.9-1.5-2.2c-0.3-3-0.9-6.3-1.5-9.7
				c-0.8-4.8-1.7-9.8-1.9-14.6c-0.3-5-0.1-9.9,0.2-14.8c0.2-3,0.3-6,0.3-8.8c0-0.4-0.1-2.6-1.2-2.7c-0.5-0.1-1.1,0.4-1.6,0.9
				l-1.2,1.1c-4.6,4.3-8.6,8.1-12.2,13.6c-0.3,0.3-0.4,0.7-0.7,1c-1.5,2.1-3.2,4.5-1.7,8.2c0.4,1.1,1.7,4.1,2.1,5.1
				c1.7,3.6,2.4,5.6,3.6,8.9c1.2,3.4,1.7,5-1,7.6c-2.3,2.2-3.9,1.3-4.7,0.6c-0.5-0.5-0.9-1.1-1-1.7l-10.9-24.2c-0.4-1-1-2.2-1-3.5
				c-0.1-2,1-3.7,1.8-5.4l0.1-0.2c10.9-19.2,13.1-40.7,14.7-64.9c0.1-1.2,0.2-2.6-0.3-3.7c-0.7-1.8-2.2-3.9-3.6-4.9
				c-2.6-1.9-5-3.8-7.7-6.1c-0.3-0.3-0.8-0.6-1.1-1c-1.9-1.6-4-3.2-4.3-4.8c-0.3-1.7,2.1-5.8,4.3-7.6c1.5-1.1,3,0.2,5.2,2.3
				c1,0.9,2,1.8,3.2,2.8c8,6.3,18.9,7.7,26.3,8.2l1.1,0.1c3.1,0.2,7,0.4,9.7,1.4c7.1,2.4,10,8,13.3,14.5c0.4,0.8,0.9,1.7,1.3,2.5
				c0.9,1.7,1.2,2.6,1.1,3c-0.2,1.1-1.7,3-3,4.3l-0.4,0.4c-0.7,0.8-1.3,1.3-2.3,1.8c-1.7,0.9-3.4-1.9-4.9-4.3l-0.3-0.6
				c-0.3-0.4-0.5-0.9-0.7-1.3c-1-1.9-2.3-4.2-3.8-3.8c-3,0.7-3.5,14.7-3.9,24c-0.1,2.4-0.2,4.7-0.3,6.6c-0.4,7.1-1,13.9-1.4,20.4
				c-0.5,6.8-1,13.7-1.5,21.2c-0.3,4-0.1,8.8,0.1,15.2c0.3,8.1-0.3,12.8-1.7,13.7C1212.4,461,1211,461.4,1209.8,461.4z
				 M1202.6,407.4c0.1,0,0.2,0,0.2,0c1.3,0.2,2.1,1.5,2.1,3.7c0,2.9-0.1,5.7-0.3,8.9c-0.2,4.8-0.4,9.7-0.2,14.6
				c0.3,4.7,1.1,9.6,1.9,14.4c0.6,3.5,1.1,6.8,1.5,9.8l0,0c0.1,0.7,0.3,1.1,0.9,1.4c1,0.4,2.8,0.1,4.3-1c0.9-0.6,1.6-4.3,1.3-12.9
				c-0.3-6.4-0.3-11.2-0.1-15.3c0.4-7.5,1-14.4,1.5-21.2c0.4-6.5,1-13.2,1.4-20.4c0.1-1.9,0.2-4.2,0.3-6.6
				c0.5-13.6,1.2-24.2,4.6-24.9c2.3-0.5,3.8,2.2,5,4.3c0.3,0.4,0.4,0.9,0.7,1.3l0.3,0.6c1,1.7,2.6,4.4,3.6,4c0.9-0.4,1.3-0.9,2-1.7
				l0.4-0.4c1.6-1.6,2.6-3,2.7-3.6c0-0.1-0.1-0.6-1-2.4c-0.4-0.9-0.9-1.7-1.3-2.5c-3.2-6.3-6-11.6-12.8-14c-2.6-0.9-6.4-1.1-9.5-1.3
				l-1.1-0.1c-7.6-0.5-18.6-1.9-26.8-8.4c-1.3-1-2.3-2-3.3-2.9c-2.1-1.9-3.1-2.8-3.9-2.2c-2.3,1.7-4.2,5.6-4,6.6
				c0.2,1.1,2.2,2.8,3.8,4.2c0.4,0.3,0.8,0.6,1.1,1c2.7,2.3,5,4.2,7.6,6c1.6,1.1,3.2,3.3,3.9,5.3c0.5,1.4,0.4,2.9,0.3,4.2
				c-1.7,24.3-3.8,46-14.9,65.3l-0.1,0.2c-0.9,1.6-1.8,3.1-1.7,4.9c0.1,1,0.5,2.1,1,3.1l10.9,24.2c0.2,0.4,0.4,1,0.9,1.4
				c0.6,0.5,1.6,1.1,3.3-0.6c2.3-2.3,1.9-3.5,0.8-6.6c-1.2-3.4-2-5.3-3.6-8.8c-0.4-1-1.7-4-2.2-5.1c-1.7-4.2,0.3-6.9,1.9-9.1
				c0.3-0.3,0.5-0.7,0.7-1c3.6-5.6,7.7-9.5,12.4-13.8l1.2-1.1C1201.1,408,1201.8,407.4,1202.6,407.4z"/>
		</g>
		<g>
			<path class="st1" d="M1206.8,341.4c-1.3-2.3-0.7-4.9-0.3-6.3c0.4-1.4,1.2-2.7,1.9-3.9c0.3-0.5,0.5-1,0.9-1.6c0.6-1.2,1-2.2,1.2-3
				c0.8-3-0.2-6.3-2.3-8.6c-2.2-2.2-5.5-3.2-8.5-2.5c-0.8,0.2-1.4,0.4-1.8,0.8c-0.3,0.3-0.6,0.5-1,1c-1,1.1-1.7,2.4-2.2,4
				c-0.8,2.4-1,5.9,1.1,8.2c0.6,0.7,1.4,1.1,2.2,1.7c1.1,0.8,2.3,1.6,3,2.7c1.1,1.8,0.3,4.9-1.3,6.5l-0.7-0.7
				c1.3-1.3,2.1-3.8,1.2-5.3c-0.6-1-1.7-1.7-2.7-2.4c-0.8-0.5-1.7-1.1-2.3-1.8c-2.3-2.6-2.3-6.4-1.4-9.1c0.5-1.7,1.3-3,2.3-4.3
				c0.4-0.5,0.8-0.9,1.1-1.1c0.6-0.4,1.3-0.7,2.2-1c3.4-0.8,7,0.3,9.5,2.8c2.4,2.4,3.4,6.2,2.6,9.5c-0.3,1-0.6,2-1.3,3.2
				c-0.3,0.5-0.5,1-0.9,1.6c-0.7,1.2-1.4,2.4-1.8,3.7c-0.4,1.2-1,3.5,0.2,5.5L1206.8,341.4z"/>
		</g>
		<path class="st1" d="M1191.9,318c-1.2-0.1-2.8-0.3-3-1.6c-0.2-0.8,0.4-1.7,1.2-2c0.7-0.4,1.6-0.6,2.3-1.1c1.5-1,2.2-3.2,3.9-3.6
			c0.5-0.2,1.1-0.1,1.7-0.2c1.9-0.4,3.2-2.6,5.2-2.5c2.3,0.2,3.2,3.5,5.4,4c1,0.3,2.3-0.1,3.2,0.6c1,1,0.3,2.9,1.1,4.1
			c0.8,1.2,3,1.3,3.4,2.8c0.5,1.7-1.7,2.9-2.1,4.5c-0.2,1,0.3,2,0.7,3c0.4,1,0.6,2.2-0.1,3c-0.5,0.5-1.3,0.8-1.4,1.5
			c0,0.3,0.2,0.7,0.2,1c0.1,1-1.2,1.6-2.1,1.1c-0.9-0.4-1.3-1.4-1.6-2.3c-0.3-1.2-0.3-2.4-0.2-3.6s0.7-2.5,0.2-3.6
			c-0.6-1.5-2.6-2.1-2.8-3.6c-0.1-0.6,0.2-1.2-0.1-1.7c-0.2-0.6-0.7-1-1.2-1.3c-1-0.6-2-1-3.1-1c-2.4,0.1-3.3,1.5-5.3,1.5
			c-1.2,0-1.7,3-2.5,2.9C1193.8,319.8,1193.4,318.1,1191.9,318z"/>
		<g>
			<path class="st1" d="M1185.5,466.7c-1.3,0-2.5-0.5-2.9-1.7c-0.3-1.1,0.2-2.2,0.7-3c1-1.5,2.6-3.4,5-4.2l0,0
				c1.7-0.5,4-0.4,5.1,0.8c0.5,0.5,1,1.5,0.4,3c-0.9,2.3-4.5,4.1-6.6,4.8C1186.7,466.6,1186.1,466.7,1185.5,466.7z M1190.4,458.6
				c-0.6,0-1.1,0.1-1.7,0.3l0,0c-2.2,0.7-3.6,2.4-4.5,3.7c-0.6,0.9-0.8,1.6-0.6,2.1c0.3,1.1,2.3,1.1,3.4,0.8c2-0.7,5.3-2.3,6-4.2
				c0.3-0.8,0.3-1.5-0.2-1.9C1192.3,458.9,1191.3,458.6,1190.4,458.6z"/>
		</g>
		<g>
			<path class="st1" d="M1207,472c-1.3,0-2.4-0.5-2.9-1.7c-0.3-0.9-0.1-1.8,0.7-3c1-1.5,2.6-3.4,5-4.2l0,0c1.7-0.5,4-0.4,5.1,0.8
				c0.5,0.5,1,1.5,0.4,3c-0.9,2.3-4.5,4.1-6.6,4.8C1208.3,471.9,1207.6,472,1207,472z M1211.9,463.9c-0.6,0-1.1,0.1-1.7,0.3l0,0
				c-2.2,0.7-3.6,2.4-4.5,3.7c-0.5,0.9-0.8,1.6-0.6,2.1c0.3,1.1,2.3,1.1,3.4,0.8c2-0.7,5.3-2.3,6-4.2c0.3-0.8,0.3-1.5-0.2-1.9
				C1213.8,464.2,1212.9,463.9,1211.9,463.9z"/>
		</g>
		<g>
			<path class="st1" d="M1166.9,292.9C1166.9,292.9,1166.8,292.9,1166.9,292.9c-0.3,0-0.5-0.3-0.5-0.5c2.3-18,1.7-29.5,0.9-44.2
				c-0.7-12.2-1.4-25.9-0.8-46.9c0-0.3,0.3-0.5,0.5-0.5l0,0c0.3,0,0.5,0.3,0.5,0.5c-0.6,21,0.2,34.7,0.8,46.8
				c0.8,14.7,1.4,26.3-0.9,44.4C1167.3,292.7,1167.2,292.9,1166.9,292.9z"/>
		</g>
		<path class="st1" d="M1166.9,206.9c1.7-16.3-29.9-18.5-44.5-33.6c-17.6-18.2-19-58.4,5.5-76.2c24.5-17.8,53.9-17.5,75.2,5.1
			c18.2,19.5,20.2,48.4-1.4,69.8C1187.9,185.6,1168.5,191.9,1166.9,206.9z"/>
		<g>
			<path class="st1" d="M699,815.8c-9.6,0-19.5-4.5-28.7-8.7c-1.2-0.5-2.5-1.1-3.7-1.7c-16.2-7.2-29.5-3.6-44.9,0.6
				c-20.6,5.6-43.9,12-82-4.5c-6.3-2.7-12.4-5.8-18.5-8.8c-17.5-8.7-35.5-17.7-55.1-17.4c-9.5,0.2-19,1.7-28.3,3.1
				c-2.5,0.4-5,0.8-7.6,1.1c-33.4,5-59.9,3.9-83.1-3.1c-10.1-3-19.8-7.4-29.3-11.6c-8.3-3.6-16.9-7.5-25.6-10.4
				c-29.7-9.9-64.1-3.9-87.7,3c-7.3,2.1-13.2,4.8-20.4,9.1c-2.2,1.3-4.3,2.8-6.3,4.2c-4.2,2.9-8.6,5.7-13.4,7.7
				c-16.1,6.7-35.2,1.7-49.1-1.9c-19.3-5-39.2-10.3-57.3-19.4c-2.8-1.4-5.2-3-7.6-4.7c-5.1-3.6-10-6.9-18.9-7.9
				c-9.3-1-22.6,4.8-31,10.7L0,754.9c8.5-6,21.9-11.9,31.4-10.8c9.1,1,14.2,4.6,19.2,8c2.3,1.6,4.7,3.2,7.5,4.6
				c18.1,9,38,14.2,57.3,19.3c13.8,3.6,32.8,8.6,48.6,2c4.7-1.9,9-4.9,13.2-7.6c2.1-1.4,4.3-2.9,6.4-4.2c7.2-4.3,13.2-7,20.6-9.1
				c23.7-6.9,58.2-12.9,88.1-3c8.8,3,17.4,6.8,25.6,10.4c9.4,4.2,19.2,8.5,29.2,11.6c23.1,7,49.4,8,82.9,3c2.5-0.3,5-0.8,7.6-1.1
				c9.3-1.5,18.9-3,28.4-3.1c19.7-0.3,37.9,8.7,55.4,17.5c6,3,12.2,6.1,18.4,8.8c38,16.4,61.2,10.1,81.6,4.5
				c15.5-4.3,28.8-7.9,45.3-0.5c1.2,0.5,2.4,1.1,3.7,1.7c12.6,5.7,26.8,12.2,39.1,6.3c4.3-2,7.7-5.4,11.1-8.6
				c0.8-0.7,1.5-1.4,2.3-2.1c38.9-36.2,98.6-36.7,146.3-33.1h0.5c10.8,0.8,22,1.7,32-2.3c6.5-2.5,12.1-6.9,17.5-11.3l1.8-1.4
				c27.7-21.7,58.6-38.5,92-49.8c0.9-0.3,1.7-0.6,2.5-0.9c6.9-2.3,13.9-4.7,19.9-8.8c4.3-3,8.1-6.8,11.6-10.5
				c2.5-2.6,5.1-5.2,7.9-7.6c15.2-12.9,35.8-16.9,55.7-20.8c20.9-4,42.7-8.2,57.6-23c3-3,5.7-6.3,8.3-9.6c3.1-3.9,6.3-8,10.2-11.5
				c3.4-3,7.3-5.6,11.1-8.1c7.3-4.8,14.2-9.3,17.8-16.8c4.8-9.6,2.3-16.8-0.2-27.9c-2.2-9.7-4.4-19.8-1.6-29.1
				c2.2-7,10.4-22.4,13.9-29.4c9.4-18.6,6.3-37.7,2.9-59.9c-2.3-14.6-4.7-29.7-3.9-46.6h0.7c-0.8,16.9,1.7,31.9,3.9,46.5
				c3.6,22.2,6.6,41.4-2.9,60.3c-3.6,7-11.7,22.3-13.9,29.3c-2.9,9.1-0.6,19.1,1.6,28.8c2.4,10.8,5,18.5,0.1,28.3
				c-3.7,7.6-11,12.3-18.1,17c-3.7,2.5-7.6,5-11,8c-3.8,3.4-7,7.5-10.2,11.4c-2.6,3.3-5.3,6.7-8.3,9.7
				c-15.1,14.9-36.9,19.1-57.9,23.2c-19.8,3.8-40.3,7.7-55.4,20.6c-2.8,2.3-5.3,5-7.8,7.6c-3.6,3.7-7.4,7.6-11.7,10.6
				c-6.1,4.2-13.2,6.5-20.1,8.9c-0.9,0.3-1.7,0.6-2.5,0.9c-33.3,11.3-64.2,28-91.8,49.7l-1.8,1.4c-5.5,4.3-11.1,8.8-17.7,11.4
				c-10.2,4-21.4,3.1-32.3,2.3h-0.5c-47.5-3.6-107.1-3.1-145.8,32.9c-0.8,0.7-1.5,1.4-2.3,2.1c-3.4,3.3-6.9,6.7-11.3,8.8
				C706.5,815.1,702.7,815.8,699,815.8z"/>
		</g>
		<g>
			<path class="st1" d="M511.1,830.3c-3.4,0-6.7-0.3-9.6-1.2c-9.6-2.6-16.8-8.6-24.3-15l-1.5-1.2c-20.9-17.7-36.7-29.3-45.6-33.3
				c-41.4-18.6-77.1-16.2-122.4-13l-5.4,0.3c-2,0.2-4,0.3-6,0.4c-14.1,1-28.6,2.2-41.6-3.1c-5.5-2.2-10.4-5.5-15.2-8.7
				c-3-2-6.1-4-9.3-5.7c-8.1-4.4-16.9-4.9-25.5-1.1c-9.7,4.2-18.9,12-27.1,23.3c-0.6,0.9-1.3,1.8-1.9,2.7
				c-6.5,8.9-13.2,18.2-23.1,23.2c-12.1,6-27.6,4.8-47.6-3.5c-2.6-1.1-5.3-2.3-7.9-3.4c-12.2-5.3-24.8-10.9-38.1-10.9
				c-0.1,0-0.3,0-0.3,0c-1.6,0-3.1,0.1-4.6,0.2c-4.3,0.3-8.8,0.5-12.9-1c-8.4-2.9-13.3-11.5-17.5-19.1l-0.9-1.6
				c-2.9-5.2-10.9-17.8-22.3-22.9l0.3-0.6c11.6,5.1,19.7,18,22.7,23.2l0.9,1.6c4.3,7.9,8.9,16.1,17.1,18.9c4.1,1.4,8.4,1.1,12.7,0.9
				c1.6-0.1,3.1-0.2,4.7-0.2c0.1,0,0.3,0,0.3,0c13.4,0,26.1,5.6,38.3,10.9c2.6,1.1,5.3,2.3,7.9,3.4c19.8,8.3,35.2,9.4,47.1,3.6
				c9.7-4.8,16.4-14.1,22.8-22.9c0.6-0.9,1.3-1.8,1.9-2.7c8.3-11.4,17.5-19.3,27.4-23.5c8.9-3.8,17.9-3.4,26.1,1.1
				c3.2,1.7,6.3,3.8,9.3,5.8c4.8,3.1,9.7,6.4,15.1,8.6c12.9,5.3,27.4,4.2,41.4,3.1c2-0.2,4-0.3,6-0.4l5.4-0.3
				c45.3-3.1,81.1-5.6,122.8,13.1c9.1,4.1,24.5,15.3,45.8,33.4l1.5,1.2c7.5,6.3,14.6,12.4,24.1,14.9c12.1,3.2,28.8-0.4,40.7-8.8
				c22.3-15.7,46-29.1,68.7-20.7c3.8,1.4,7.4,3.5,10.9,5.5c4.1,2.3,8.3,4.7,12.9,6.1c13.2,4,26.8-0.9,39.9-5.6
				c5.8-2.1,11.8-4.2,17.7-5.6c13.6-3.2,28-2.4,41.8-1.7c11.9,0.6,24.2,1.3,36.1-0.5c14.3-2.3,27.9-8.1,41-13.7
				c7.6-3.3,15.5-6.7,23.5-9.3c23.9-8,50-10.1,75.3-12.1c36.1-2.9,73.5-5.7,103.2-26.5c9-6.3,17.1-14.1,25-21.6
				c12-11.6,24.3-23.5,39.9-29.9c6-2.4,12.5-4.2,18.8-5.7c11-2.9,22.5-5.7,31.2-13.2c5.1-4.4,9-10.3,12.8-16
				c3.8-5.8,7.8-11.9,13.3-16.4c6.4-5.4,14.7-8.5,22.6-11.6c11.2-4.3,21.7-8.3,27.6-18c4.7-7.6,4.8-13.1,5-22.6
				c0.1-5.1,0.2-10.5,1.1-15.6c1.7-9.4,6.3-18.5,10.6-27.3c7.3-14.7,14.2-25.9,8.5-40.1c-3.5-8.8-1.9-16.7-0.3-25
				c1-5.2,2.1-10.6,2-16.5c-0.2-7.5-0.2-14.2-0.3-20.1c-0.1-18.2-0.2-30.2-3.8-42l0.6-0.2c3.7,11.8,3.8,24,3.9,42.2
				c0,5.9,0.1,12.6,0.3,20.1c0.2,6-1,11.4-2,16.7c-1.7,8.3-3.2,16,0.2,24.7c5.7,14.5-1.2,25.9-8.6,40.7c-4.3,8.8-8.9,17.9-10.5,27.1
				c-0.9,5-1,10.3-1.1,15.5c-0.2,9.1-0.3,15-5.1,22.8c-6,9.9-16.6,13.9-27.9,18.2c-7.9,3-16.1,6.2-22.4,11.5
				c-5.4,4.5-9.3,10.5-13.2,16.3c-3.7,5.6-7.6,11.6-12.9,16.1c-8.8,7.6-20.2,10.5-31.4,13.4c-6.3,1.6-12.7,3.2-18.7,5.7
				c-15.5,6.3-27.8,18.2-39.7,29.7c-7.9,7.6-16.1,15.5-25.1,21.7c-29.9,20.8-67.3,23.7-103.6,26.6c-25.3,2-51.3,4-75.2,12
				c-7.9,2.7-15.8,6-23.4,9.3c-13.2,5.6-26.8,11.6-41.2,13.7c-11.9,1.8-24.2,1.2-36.1,0.5c-13.8-0.8-28.1-1.5-41.6,1.7
				c-5.9,1.4-11.9,3.5-17.6,5.6c-13.2,4.7-26.9,9.6-40.3,5.6c-4.6-1.4-8.9-3.8-13-6.2c-3.5-2-7-4-10.8-5.4c-22.3-8.3-46,5-68.1,20.6
				C533.5,826.6,521.6,830.3,511.1,830.3z"/>
		</g>
		<g>
			<path class="st1" d="M1571.6,681.9c-0.5,0-1,0-1.6,0c-9.8-0.3-19-4.3-28-7.9c-7.8-3.2-15.9-6.6-24.3-7.6
				c-11.4-1.4-22.8,1.4-34,4.2c-11.4,2.8-23.2,5.7-34.9,4.1c-8.6-1.2-17.7-4.1-26.5-6.9c-17.1-5.4-34.7-10.9-50.4-5.1
				c-2,0.8-4,1.7-5.9,2.7c-3,1.6-6.2,3.1-9.6,3.8c-9.7,1.8-17.8-4-26.2-10.1c-5.7-4.2-11.7-8.5-18.3-10.3c-7.9-2.1-18.9,1.6-29.4,5
				c-13.5,4.5-27.5,9.1-35.2,1.9c-6.1-5.6-7.3-14.2-8.4-22.5c-1-6.7-1.9-13.6-5.5-19.2c-1.5-2.3-3.4-4.3-5.2-6.3
				c-2.4-2.6-4.9-5.3-6.4-8.5c-3.8-8,0.5-10.8,6-18.8c5.6-8.1,12.5-18.2,14-34c1.7-17-5.6-32.2-12.2-48c-4.6-11.1-8.9-21.7-9.1-30.1
				c-0.3-13,2.3-22.4,4.9-31.4c3.5-12.2,6.8-23.6,1.7-42.9l0.6-0.2c5.1,19.5,1.8,31-1.7,43.3c-2.6,8.9-5.2,18.2-4.9,31.2
				c0.3,8.3,4.5,18.8,9.1,29.8c6.5,15.8,13.8,31.1,12.2,48.2c-1.6,16-8.5,26.1-14.2,34.3c-5.6,8.1-9.6,10.5-5.9,18.2
				c1.5,3.1,4,5.8,6.3,8.3c1.9,2,3.8,4.1,5.3,6.4c3.6,5.6,4.6,12.7,5.6,19.5c1.2,8.5,2.3,16.6,8.3,22.1c7.5,7,21.3,2.4,34.6-2
				c10.7-3.6,21.7-7.2,29.8-5.1c6.7,1.7,12.8,6.2,18.6,10.3c8.3,6.1,16.2,11.7,25.8,10c3.3-0.6,6.4-2.2,9.4-3.7c1.9-1,3.9-2,5.9-2.8
				c15.8-6,33.6-0.3,50.8,5.1c8.8,2.8,17.8,5.6,26.3,6.9c11.6,1.7,23.3-1.2,34.7-4.1c11.2-2.8,22.8-5.6,34.2-4.2
				c8.5,1,16.6,4.4,24.4,7.7c8.9,3.7,18.1,7.6,27.7,7.9c8.8,0.3,16.9-2.2,23.7-4.7c9.3-3.4,18.6-8.3,27.5-12.9
				c14.9-7.8,30.3-15.9,46.7-17.8l0.1,0.6c-16.2,2-31.6,10-46.5,17.7c-8.9,4.7-18.2,9.6-27.6,12.9
				C1587.9,679.5,1580,681.9,1571.6,681.9z"/>
		</g>
		<g>
			<path class="st1" d="M1414.2,675.1c-16.8,0-33.3-2.3-49-8.5c-7-2.8-14-6.4-20.7-10c-13.7-7.2-28-14.7-43.5-15
				c-10.2-0.2-20.2,2.7-29.8,5.5c-5.4,1.6-11,3.2-16.6,4.3c-14.7,2.8-34.6,0.8-42.7-14c-7.3-13.3-0.9-27.2,6-42
				c5.3-11.4,10.8-19.6,9.6-31.4c-0.7-7-3.7-13.6-6.7-20c-2.6-5.6-5.4-8.9-6.4-15.2c-4-22.8,0.9-35.2,14.1-55.9
				c6.9-10.9,5.9-18.6,5.3-23.3c-0.1-1-0.3-1.8-0.3-2.5c-0.3-8.8-1.9-14.7-3.5-20.4c-2.2-8.1-4.4-16.4-3-32.7l0.6,0.1
				c-1.4,16.2,0.7,24.1,3,32.5c1.6,5.7,3.1,11.7,3.5,20.6c0,0.7,0.2,1.5,0.3,2.4c0.6,4.8,1.7,12.7-5.4,23.7
				c-13.1,20.7-17.9,32.9-14,55.4c1,6.2,3.7,9.4,6.3,15c3,6.4,6.1,13,6.7,20.2c1.1,12-4.3,20.3-9.6,31.8c-6.8,14.6-13.1,28.3-6,41.4
				c7.9,14.5,27.5,16.4,42,13.6c5.6-1,11.1-2.7,16.6-4.3c9.7-2.8,19.8-5.7,30-5.5c15.7,0.3,30,7.8,43.8,15.1
				c6.7,3.5,13.6,7.1,20.6,9.9c35.9,14.2,75.5,7.6,113.8,1.1c12.3-2.1,25-4.3,37.4-5.6c25.2-2.9,45.5-4.2,77.3,5.6
				c25.6,7.8,57.9,5,74.3-2.2l0.3,0.6c-16.5,7.3-48.9,10.1-74.7,2.2c-31.6-9.7-51.9-8.4-77.1-5.6c-12.3,1.4-25.1,3.6-37.4,5.6
				C1457.8,671.5,1435.7,675.1,1414.2,675.1z"/>
		</g>
		<g>
			<path class="st1" d="M1634.7,698.4c-14.2,0-25.6-1.7-40.9-6.3c-8.1-2.4-16.4-5.7-24.7-9.8c-2.3-1.1-4.5-2.3-6.8-3.5
				c-10.6-5.6-21.5-11.2-33.4-11.8c-11.4-0.6-22.5,3.6-33.2,7.6c-1.7,0.7-3.6,1.3-5.3,2c-24.3,8.9-59.9,16.7-91.3,3
				c-2.5-1.1-5-2.3-7.5-3.6c-4.4-2.3-9.1-4.5-13.9-6c-11.9-3.6-24.9-1.9-36.4-0.5l-49.7,6.2c-8.8,1.1-18.8,2.3-28.1,0.1
				c-10.3-2.4-18.3-9.4-20.6-17.6c-0.6-2.1-0.8-4.3-1-6.5c-0.3-2.7-0.6-5.5-1.6-8c-2.7-7-9.5-10.4-16.6-14.2
				c-6-3-12.2-6.2-15.8-11.6c-6.3-9.2-3.3-21.5,1.7-30.1c2.7-4.7,6.1-5.5,9.4-9.6c3.1-3.9,6.3-8.1,8.9-12.4
				c12.8-21.5,8.2-42.8,3.3-68c-3.3-16.9-6.7-34.4-4.6-51.5c0.1-0.7,0.3-2,0.7-3.8c1.9-9.7,6.9-35.7,0-48.3l0.6-0.3
				c7,12.8,2,38.9,0.1,48.7c-0.3,1.7-0.6,3-0.7,3.7c-2.1,17,1.3,34.5,4.5,51.3c5,25.4,9.6,46.7-3.4,68.5c-2.6,4.4-5.8,8.5-8.9,12.5
				c-3.3,4.2-6.6,5-9.3,9.6c-4.8,8.3-7.7,20.5-1.7,29.5c3.6,5.3,9.7,8.3,15.6,11.4c6.9,3.6,14.2,7.2,16.9,14.5
				c1,2.6,1.3,5.4,1.6,8.1c0.3,2.1,0.4,4.3,1,6.3c2.3,8.1,10.1,14.8,20.2,17.1c9.2,2.2,18.7,1,27.8-0.2l49.7-6.2
				c11.6-1.5,24.7-3,36.7,0.5c4.9,1.5,9.6,3.7,14.1,6c2.4,1.2,5,2.4,7.5,3.6c31.2,13.6,66.6,5.9,90.9-3c1.7-0.6,3.6-1.3,5.3-2
				c10.8-4.1,21.9-8.3,33.4-7.6c12.1,0.6,23,6.3,33.7,11.9c2.3,1.1,4.5,2.3,6.8,3.5c8.3,4.1,16.5,7.4,24.5,9.8
				c15.3,4.5,26.7,6.3,40.7,6.3c10.3,0,20.5-2,33.2-6.5l0.3,0.6C1655.4,696.3,1645.1,698.4,1634.7,698.4z"/>
		</g>
		<g>
			<path class="st1" d="M777.4,817.9c-14.2,0-28.3-1.7-41.9-5.3c-3.3-0.9-6.6-1.8-9.8-2.8c-8.2-2.4-16.6-4.9-25.2-5.6
				c-13.9-1.2-28,2-41.5,5.2c-16,3.7-32.5,7.6-48.6,4c-8.2-1.8-16.3-6-24.2-10c-11.6-5.9-23.5-12-35.8-11.1
				c-9.9,0.8-19.1,5.2-28.1,9.5c-11.9,5.6-24.2,11.6-38.3,9.4c-19.3-3-33.1-9.7-46.4-16.3c-9.6-4.7-19.5-9.6-31.2-12.9
				c-2.2-0.6-4.3-1.4-6.9-2.4c-11.3-4.3-28.3-10.8-62.8-1.8c-13.3,3.5-25.7,9.9-37.7,16.2c-3.4,1.7-6.8,3.6-10.3,5.3
				c-19.5,9.7-42.3,12.9-66.1,9.2c-5.3-0.9-10.4-2.4-15.3-3.9c-4-1.2-8.1-2.5-12.2-3.4c-13.6-2.8-23.5-6.8-32.1-12.9
				c-5-3.5-9.4-7.6-13.8-11.7c-3.1-2.9-6.3-5.8-9.6-8.5c-1.7-1.4-3.5-3-5.4-4.6c-7.1-6.3-15.1-13.5-23.1-13.6
				c-4.9-0.1-21.7,0.9-33.2,17c-1.8,2.6-3.5,5.5-5,8.2c-2.7,4.9-5.6,9.9-9.8,13.6c-5.8,5.2-16.6,10-27.5,8.6
				c-4.9-0.6-8.9-2.3-12.8-4c-6.4-2.8-12.5-5.4-22.2-3.1l-0.2-0.6c9.9-2.3,16.3,0.4,22.6,3.1c3.8,1.7,7.8,3.3,12.6,3.9
				c10.8,1.3,21.4-3.3,27.1-8.5c4.2-3.7,6.9-8.7,9.6-13.5c1.6-2.8,3.2-5.6,5-8.3c11.6-16.4,28.8-17.4,33.7-17.3
				c8.3,0.2,16.4,7.4,23.5,13.8c1.9,1.7,3.6,3.2,5.3,4.6c3.3,2.7,6.6,5.6,9.6,8.5c4.3,4,8.9,8.2,13.7,11.6
				c8.5,6.1,18.3,10.1,31.9,12.9c4.3,0.9,8.3,2.2,12.3,3.4c4.9,1.6,9.9,3.1,15.2,3.9c23.7,3.6,46.4,0.5,65.8-9.1
				c3.5-1.7,6.9-3.6,10.3-5.3c12-6.3,24.4-12.8,37.8-16.2c34.7-8.9,51.9-2.4,63.2,1.9c2.5,1,4.8,1.8,6.9,2.3
				c11.8,3.2,21.7,8.2,31.4,12.9c13.3,6.5,27,13.3,46.2,16.2c13.9,2.2,26.1-3.6,38-9.3c9-4.3,18.4-8.8,28.4-9.6
				c12.5-1,24.5,5.2,36.1,11.1c7.8,4,16,8.2,24.1,10c16,3.5,32.4-0.3,48.3-4c13.6-3.1,27.8-6.4,41.8-5.2c8.7,0.8,17.1,3.3,25.3,5.6
				c3.2,1,6.5,1.9,9.8,2.8c37,9.7,78.1,6,112.8-10.3c9.7-4.6,19.2-10.2,28.3-15.6c9-5.4,18.5-10.9,28.1-15.5
				c16.2-7.6,40.4-15.2,62.7-7.6c1.1,0.3,2.2,0.8,3.3,1.2c6.3,2.3,12.9,4.8,18.7,1.9c4.6-2.3,7.1-7.4,9.4-11.9
				c17.6-35.4,38.3-57.1,63.2-66c15-5.4,31.4-5.9,47.2-6.4c5.9-0.2,12-0.3,18-0.8c19.2-1.4,44.7-7.2,57.2-26.6
				c4.5-7,6.9-15.3,9.1-23.3c1.2-4.3,2.4-8.6,4-12.8c4.3-11.7,11.6-22.9,18.4-33.8c12.7-19.9,24.7-35.2,21-57.1
				c-0.9-5.3-2.8-7.9-4.6-12.9c-2.2-6.1-4.5-12.4-5-19c-0.7-8,0.8-18.2,2.5-30.1c3.1-22.1,7-49.5-2.8-71.3l0.6-0.3
				c9.9,22,6,49.6,2.9,71.8c-1.7,11.8-3.1,22.1-2.5,30c0.5,6.5,2.8,12.8,5,18.9c1.8,5,3.7,7.6,4.6,13c3.7,22.2-8.3,37.5-21.1,57.5
				c-6.9,10.8-14.1,22-18.4,33.6c-1.6,4.2-2.8,8.5-4,12.7c-2.3,8.1-4.6,16.3-9.2,23.5c-12.6,19.6-38.3,25.5-57.7,26.9
				c-6,0.4-12.1,0.6-18,0.8c-15.7,0.4-32.1,1-47,6.3c-24.7,8.9-45.3,30.4-62.8,65.7c-2.3,4.6-4.9,9.8-9.6,12.2
				c-6,3-12.7,0.5-19.1-1.9c-1.1-0.4-2.3-0.8-3.3-1.2c-22.2-7.6-46-0.1-62.3,7.5c-9.6,4.5-19,10.1-28.1,15.5s-18.6,11-28.4,15.6
				C826.6,812.6,801.9,817.9,777.4,817.9z"/>
		</g>
		<g>
			<path class="st1" d="M694.3,813.6c-22.2,0-44.7-8.3-66.5-16.5c-28.7-10.7-58.3-21.7-87-13.7c-4.7,1.3-9.3,2.8-13.8,4.3
				c-20.4,6.5-39.8,12.7-58.6,2.1c-4.2-2.3-8.2-5.2-12-8.1c-6.4-4.6-13-9.5-20.6-11.8c-16.7-5.2-33.8,1.8-50.4,8.7
				c-2.6,1-5.2,2.2-7.8,3.1c-26.1,10.3-56.5,14-87.8,10.9c-30-3-59.5-12-85.5-26.1c-12.6-6.9-27.6-7.7-39.1-2.3
				c-3.5,1.7-6.8,3.9-9.9,6.1c-3,2.1-6.3,4.3-9.6,6c-10.3,5-23.4,5.8-38.9,2.3c-5.9-1.3-11.8-3.1-17.5-4.9c-6.7-2-13.6-4.1-20.6-5.5
				c-22.8-4.4-47.6-1-67.9,9.5L0.4,777c20.4-10.5,45.3-14,68.3-9.6c7,1.4,14,3.5,20.7,5.5c5.7,1.7,11.6,3.5,17.5,4.8
				c15.5,3.5,28.4,2.7,38.6-2.3c3.4-1.7,6.5-3.8,9.6-5.9c3.2-2.2,6.5-4.4,10-6.2c11.7-5.6,26.9-4.7,39.7,2.3
				c54.7,29.7,120.8,35.5,172.7,15.2c2.6-1,5.2-2.1,7.8-3.1c16.7-6.9,34-14,50.8-8.7c7.7,2.4,14.3,7.2,20.8,11.9
				c3.8,2.8,7.8,5.6,11.9,8c18.5,10.5,37.7,4.3,58-2.1c4.5-1.5,9.2-3,13.9-4.3c29-8.1,58.7,3,87.4,13.7c28.7,10.7,58.3,21.7,87,13.7
				c6.9-1.9,13.8-5,20.4-7.9c13.3-5.8,27-11.9,41.2-9c5.6,1.1,10.9,3.6,16.1,6.1c3,1.4,6.1,2.9,9.2,4.1c7.1,2.7,14.7,4,22.7,4
				c20.3,0,43.4-8.7,68.8-26.1c5.2-3.6,10.4-7.3,15.5-10.9c21.5-15.5,43.8-31.4,69.9-36.2c9.4-1.7,19.2-1.9,28.6-2.1
				c14-0.3,28.4-0.6,41.4-5.8c11.1-4.4,20.7-12.2,29.9-19.6c3.7-3,7.6-6.2,11.6-9.1c19.6-14.3,42.7-23.6,66.8-26.8
				c1.8-0.3,3.6-0.4,5.5-0.7c6.3-0.7,12.9-1.5,18.9-3.6c24.7-8.9,34.8-37.8,36.1-62c0.5-10.1,0-16.9-0.5-26.9
				c-0.8-15.2-1.6-30.8,1.3-46c1.6-8.3,4.3-14,6.9-22.1c5.6-17.5,11.5-35.7,5.8-53.1l0.6-0.2c5.6,17.5-0.2,35.9-5.8,53.5
				c-2.6,8.1-5.2,13.8-6.8,22c-2.9,15-2.1,30.8-1.3,45.9c0.5,10,1,16.9,0.5,27c-1.3,24.4-11.6,53.6-36.5,62.5
				c-6.1,2.2-12.7,3-19,3.6c-1.8,0.2-3.6,0.4-5.5,0.7c-24,3.2-47,12.4-66.5,26.7c-3.9,2.9-7.8,6-11.6,9.1
				c-9.3,7.5-18.9,15.3-30.1,19.7c-13.2,5.2-27.7,5.6-41.7,5.8c-9.5,0.2-19.2,0.4-28.5,2.1c-26,4.7-48.2,20.7-69.7,36.1
				c-5,3.6-10.3,7.4-15.5,10.9c-35.6,24.3-66.5,31.7-92.1,22.1c-3.1-1.2-6.3-2.7-9.2-4.1c-5-2.4-10.3-5-15.9-6c-14-2.8-27,3-40.8,9
				c-6.7,3-13.6,6-20.5,7.9C708.3,812.7,701.3,813.6,694.3,813.6z"/>
		</g>
		<g>
			<path class="st1" d="M1402.2,702.8c-15.8,0-31.4-5.8-46.7-11.5c-19.2-7.1-39.1-14.5-58.7-9.9c-6.9,1.7-13.6,4.7-20,7.7
				c-4.1,1.9-8.3,3.8-12.5,5.5c-13.5,5-25.8,4.4-34-1.5c-9.1-6.6-13.2-19.9-10.9-35.6c0.8-5,2-10.2,3.2-15c1.8-7.5,3.7-15.2,3.9-23
				c0.2-10.9-3-21.7-6.1-32.2c-3.9-13.3-8-23.6-5-37.3c1.4-6.1,4.1-11.8,6.8-17.4c2.2-4.5,4.4-6.6,5.9-11.4
				c2.5-8.2,2.9-16.8,3.2-25.1l2.1-49h0.7l-2.1,49c-0.3,8.4-0.7,17-3.2,25.3c-1.5,4.9-3.7,6.9-5.9,11.5c-2.6,5.5-5.4,11.2-6.8,17.2
				c-3,13.5,1,23.7,5,36.9c3.1,10.5,6.3,21.5,6.1,32.4c-0.2,7.9-2.1,15.6-3.9,23.2c-1.2,4.9-2.4,10-3.2,15
				c-2.3,15.5,1.7,28.6,10.6,35c8,5.8,20.2,6.3,33.4,1.4c4.3-1.6,8.4-3.6,12.4-5.4c6.4-3,13-6.1,20.1-7.7
				c19.9-4.6,39.8,2.8,59.1,9.9c18.3,6.8,37.4,13.8,56.3,10.6c10.7-1.8,20.8-6.9,30.6-11.7c12.9-6.4,26.3-13.1,40.8-12
				c10.8,0.8,20.7,5.8,30.2,10.7c9.5,4.8,19.2,9.7,29.8,10.6c14.2,1.1,26.8-5,40.3-11.3c3.3-1.6,6.7-3.2,10.1-4.7
				c12.9-5.6,28.5-7.1,45-4.3c1.3,0.3,2.5,0.5,3.8,0.7c0.7,0.2,1.3,0.3,2,0.4c7.1,1.4,16.3,2.5,23.5,2.9v0.6
				c-7.1-0.3-16.4-1.6-23.5-3c-0.7-0.1-1.3-0.3-2-0.4c-1.3-0.3-2.5-0.5-3.8-0.7c-16.4-2.9-31.8-1.5-44.7,4.2
				c-3.4,1.5-6.8,3.1-10.1,4.7c-12.9,6.2-26.3,12.5-40.7,11.4c-10.7-0.9-20.5-5.8-30-10.6c-9.6-4.9-19.4-9.8-30-10.6
				c-14.3-1-27,5.3-40.5,12c-9.8,4.9-20,9.9-30.8,11.7C1408.8,702.6,1405.5,702.8,1402.2,702.8z"/>
		</g>
		<g>
			<path class="st1" d="M763.5,813c-2.9,0-5.7-0.3-8.6-0.9c-9.8-2.1-18.6-7.9-27-13.6c-10.6-7.1-20.7-13.8-32.8-13.8h-0.1
				c-4.3,0-8.5,1-12.6,1.8c-2.2,0.4-4.4,1-6.7,1.3c-19.9,3-39.5-4.2-58.6-11.1c-2.7-1-5.5-2-8.2-3c-18.3-6.5-45.2-13.8-66.3-1.7
				c-38.2,22.2-77.1,23.7-109.6,4.6c-17.4-10.3-33.7-16-51.6-18.2c-24.5-3-47.3,0.9-74,12.6c-15.1,6.7-32.4,11.7-51.2,15.2l-2,0.3
				c-16.8,3-31.3,5.7-50.1-9.4c-11.1-8.9-27.3-13.4-38.7-14.7c-8.9-1-18-0.3-26.8,0.4c-9.9,0.8-20.2,1.6-30.1,0
				c-15.8-2.5-30.1-10.9-43.8-18.9c-2.9-1.7-5.8-3.4-8.8-5c-20.9-11.8-39.7-15.9-55.6-12.1l-0.2-0.6c16.2-3.8,35,0.3,56.1,12.2
				c3,1.7,5.9,3.4,8.8,5c13.7,8,27.8,16.3,43.5,18.8c9.9,1.6,20.1,0.8,30,0c8.9-0.7,18-1.4,26.9-0.4c11.5,1.2,27.8,5.8,39,14.8
				c18.6,14.9,33,12.2,49.6,9.2l2-0.3c18.8-3.4,36-8.5,51.1-15.1c26.8-11.7,49.8-15.6,74.4-12.6c17.9,2.2,34.4,8,51.8,18.3
				c32.2,19,71,17.4,108.9-4.6c21.4-12.3,48.4-5,66.8,1.6c2.7,1,5.5,2,8.2,3c18.9,6.9,38.5,14.2,58.2,11.1c2.3-0.3,4.4-0.8,6.6-1.3
				c4.2-0.9,8.4-1.8,12.7-1.8h0.1c12.3,0,22.8,7,33.1,13.9c8.4,5.6,17.1,11.4,26.8,13.5c17.5,3.7,34.5-5,50.8-13.6
				c3.6-1.8,7.2-3.7,10.8-5.5c33.3-16,71.5-20.2,107.5-11.8c4.1,1,8.2,2.1,12.2,3.1c10.7,3,21.7,5.9,32.8,5.8
				c21.1-0.2,41.4-12.2,51.8-30.6c3.6-6.4,6.5-13.4,9.3-20.1c4.8-11.4,9.6-23.2,18.2-32.4c22.9-24.7,42.3-39.4,101.2-20.4
				c40.7,13.1,55.8,12.5,69.8-3.1c6.5-7.2,7.9-17.8,8.3-27.3c1-19.5-0.5-39.2-4.5-58.4c-0.4-1.9-0.9-3.9-1.3-5.8
				c-2.6-11.8-5.3-20.6-2.5-32.3c1.7-7.3,5.5-14.2,9-20.7c4.3-7.9,8.9-13.5,9.6-22.5c1-11.6-3.1-23-7.1-34c-3.7-10.3-7.6-21-7.4-32
				c0.2-7.9,1.9-12.9,3.5-17.6c2.8-8.3,5.5-16.1-0.1-38.4l0.6-0.2c5.6,22.5,3,30.4,0.1,38.7c-1.7,4.7-3.3,9.6-3.5,17.5
				c-0.3,10.9,3.6,21.5,7.3,31.8c4,11,8.2,22.5,7.2,34.2c-0.8,9.1-5.3,14.8-9.7,22.8c-3.6,6.5-7.3,13.3-8.9,20.5
				c-2.7,11.6,0,20.3,2.5,32.1c0.4,2,0.9,3.9,1.3,5.8c4,19.3,5.6,38.9,4.5,58.6c-0.5,9.5-1.9,20.2-8.5,27.6
				c-14.2,15.9-29.4,16.6-70.5,3.4c-58.6-18.9-77.8-4.3-100.6,20.2c-8.5,9.2-13.4,20.8-18.2,32.2c-2.8,6.7-5.7,13.7-9.4,20.2
				c-10.5,18.6-31,30.7-52.4,30.9c-11.2,0.1-22.3-3-33-5.8c-4-1.1-8.1-2.2-12.2-3.1c-35.9-8.3-73.8-4.2-107,11.7
				c-3.6,1.7-7.2,3.6-10.7,5.4C792.4,805.7,778.2,813,763.5,813z"/>
		</g>
		<g>
			<path class="st1" d="M505.5,804c-5.8,0-11.5-0.9-16.6-2.7c-10.1-3.6-17.8-11.4-25.3-18.9c-1.4-1.4-2.8-2.8-4.2-4.2
				c-6.9-6.8-17.6-16.2-30.8-19.7c-10.7-2.9-25.4-1.3-33.7,8.7c-2.9,3.5-4.9,7.6-6.8,11.7c-2.1,4.4-4.3,9-7.6,12.6
				c-7.9,8.5-21.3,11.2-39.8,8c-15.5-2.7-30.5-7.4-44.7-13.9c-2-1-4.1-1.9-6.2-2.9c-13.6-6.5-27.8-13.3-42.1-9.8
				c-7.8,1.8-15.1,7.5-22.2,12.9c-6.7,5.2-13.6,10.5-21.1,12.7c-13.5,3.8-27.2,4.1-42.4,4.1c-4.8,0-10.3-0.2-15.3-2
				c-6.5-2.3-11.7-7.1-16-11.5c-3.8-4-7.5-8.3-11-12.3c-4.3-5-8.9-10.3-13.7-15c-10.4-10.1-21.1-15.9-31.6-17.3s-21,1.7-30.1,4.6
				c-13.2,4.3-26.7,9.9-43.9,18.3l-0.3-0.6c17.2-8.4,30.7-14.1,44-18.4c9.1-3,19.7-6,30.4-4.6c10.7,1.4,21.5,7.2,32.1,17.5
				c4.9,4.7,9.4,10,13.7,15c3.6,4.1,7.2,8.3,11,12.3c4.2,4.3,9.3,9,15.7,11.3c5,1.7,10.4,1.9,15,1.9c15.2,0,28.9-0.3,42.2-4.1
				c7.3-2.1,14.2-7.4,20.9-12.6c7.1-5.5,14.4-11.1,22.4-13c14.5-3.5,28.8,3.3,42.6,9.9c2.1,1,4.1,2,6.2,2.9
				c14.2,6.5,29.1,11.1,44.5,13.8c18.3,3.2,31.4,0.5,39.2-7.7c3.3-3.6,5.5-8.1,7.5-12.4c1.9-4.1,3.9-8.3,6.9-11.8
				c8.6-10.2,23.5-11.8,34.4-8.9c13.3,3.6,24.1,13,31.1,19.9c1.4,1.4,2.8,2.8,4.2,4.2c7.5,7.6,15.1,15.3,25,18.8
				c16,5.6,36.2,2.3,52.9-8.8c20-13.3,43.4-7.7,68.1-1.8c14.3,3.4,29.1,6.9,43.2,6.5c12.9-0.3,25.5-4.1,37.7-7.7
				c11.1-3.3,22.7-6.7,34.4-7.6c13.5-1,27.1,1.4,40.2,3.6c10.7,1.8,21.7,3.8,32.7,3.9c20.9,0.2,42-6.1,62.3-12.2
				c29.1-8.7,56.6-16.9,84.2-8.1c1.9,0.6,3.9,1.3,5.7,2c7.1,2.6,14.5,5.2,21.8,3.6c7.6-1.7,13.4-7.6,19-13.9
				c3.2-3.6,6.4-7.2,9.6-10.8c22.2-25.2,45.3-51.3,74.3-68.8c17-10.3,36.7-16.9,55.2-18.7c20.6-1.9,39.7,2.1,55.2,11.6
				c2.8,1.7,5.6,3.6,8.3,5.5c9.6,6.6,19.5,13.5,30.7,12.1c6.9-0.9,13-4.9,18.9-8.8c3-2,6.2-4.1,9.5-5.7c22.8-11.6,46.7-2.3,72.1,7.6
				c19.8,7.6,40.2,15.6,60.4,12.9c18.7-2.4,34.7-13.7,50.3-24.6c3.5-2.4,7.1-5,10.7-7.4c17.6-11.8,43.4-23.7,65.5-13.5
				c5.8,2.7,10.9,6.8,16,10.8c6.8,5.4,13.8,10.9,22.3,12.8c13.1,2.8,24.9-3.6,37.4-10.4c2.1-1.1,4.2-2.3,6.3-3.4
				c6.8-3.5,15.1-6.6,23.7-8.7c2.8-0.7,6.3-1.5,10.1-1.5c11.6-0.2,17.7,1.6,23.6,3.1c4.9,1.3,9.4,2.6,16.9,3v0.7
				c-7.5-0.3-12.3-1.7-16.9-3c-5.9-1.7-11.9-3.3-23.5-3.1c-3.6,0.1-7.2,0.8-9.9,1.5c-8.5,2.1-16.9,5.2-23.5,8.7
				c-2.1,1.1-4.2,2.3-6.3,3.3c-12.1,6.5-24.5,13.3-37.9,10.5c-8.7-1.8-15.7-7.5-22.6-12.9c-5-3.9-10.1-8.1-15.8-10.7
				c-21.9-10.2-47.3,1.7-64.9,13.4c-3.6,2.3-7.1,5-10.7,7.4c-15.6,10.9-31.7,22.2-50.6,24.8c-20.3,2.6-40.8-5.3-60.6-12.9
				c-25.2-9.7-49-18.9-71.6-7.6c-3.2,1.7-6.3,3.7-9.4,5.7c-5.9,3.9-12.1,8-19.2,8.9c-11.5,1.4-21.5-5.5-31.2-12.2
				c-2.7-1.8-5.5-3.8-8.2-5.5c-29.5-18.2-72.5-15.4-109.6,7c-28.9,17.5-51.9,43.5-74.1,68.6c-3.2,3.6-6.3,7.2-9.6,10.8
				c-5.8,6.4-11.6,12.4-19.4,14.2c-7.5,1.7-14.9-1-22.2-3.6c-1.9-0.7-3.8-1.4-5.7-2c-27.5-8.8-54.8-0.6-83.8,8.1
				c-20.4,6.1-41.4,12.3-62.5,12.2c-11-0.1-22.1-2.1-32.8-3.9c-13.1-2.3-26.7-4.7-40-3.6c-11.6,0.9-23.2,4.3-34.3,7.6
				c-12.2,3.6-24.9,7.4-37.9,7.7c-14.2,0.4-29-3.1-43.4-6.5c-24.6-5.9-47.9-11.4-67.6,1.7C530.9,800,517.8,804,505.5,804z"/>
		</g>
		<path class="st1" d="M1964.8,677.8c-15.8,6-33.6,0.3-50.8-5.1c-8.8-2.8-17.8-5.6-26.3-6.9c-11.6-1.7-23.3,1.2-34.7,4.1
			c-11.2,2.8-22.8,5.6-34.2,4.2c-8.5-1-16.6-4.4-24.4-7.7c-8.9-3.7-18.1-7.6-27.7-7.9c-8.8-0.3-16.9,2.2-23.7,4.7
			c-9.3,3.4-18.6,8.3-27.5,12.9c-14.9,7.8-32.4,8.2-47.1,15.7l-0.3-0.6c15.5-7.5,32.2-7.9,47.1-15.6c8.9-4.7,18.2-9.6,27.6-12.9
			c6-2.3,13.9-4.8,22.3-4.8c0.5,0,1,0,1.6,0c9.8,0.3,19,4.3,28,7.9c7.8,3.2,15.9,6.6,24.3,7.6c11.4,1.4,22.8-1.4,34-4.2
			c11.4-2.8,23.2-5.7,34.9-4.1c8.6,1.2,17.7,4.1,26.5,6.9c17.1,5.4,34.7,10.9,50.4,5.1"/>
		<path class="st1" d="M1971.4,673.9c-35.9-14.2-75.5-7.6-113.8-1.1c-12.3,2.1-25,4.3-37.4,5.6c-25.2,2.9-45.5,4.2-77.3-5.6
			c-25.6-7.8-57.9-14.6-74.4-7.4l-0.3-0.6c16.5-7.3,49-0.5,74.8,7.4c31.6,9.7,51.9,8.4,77.1,5.6c12.3-1.4,25.1-3.6,37.4-5.6
			c21.5-3.8,43.6-7.5,65.1-7.5"/>
		<path class="st1" d="M1937.1,660.9c-31.2-13.6-66.6-5.9-90.9,3c-1.7,0.6-3.6,1.3-5.3,2c-10.8,4.1-21.9,8.3-33.4,7.6
			c-12.1-0.6-23-6.3-33.7-11.9c-2.3-1.1-4.5-2.3-6.8-3.5c-8.3-4.1-16.5-7.4-24.5-9.8c-15.3-4.5-26.7-6.3-40.7-6.3
			c-10.3,0-20.3,1.9-33.8,4.4l-0.1-0.6c13.8-2.5,23.7-4.5,34.1-4.5c14.2,0,25.6,1.7,40.9,6.3c8.1,2.4,16.4,5.7,24.7,9.8
			c2.3,1.1,4.5,2.3,6.8,3.5c10.6,5.6,21.5,11.2,33.4,11.8c11.4,0.6,22.5-3.6,33.2-7.6c1.7-0.7,3.6-1.3,5.3-2
			c24.3-8.9,59.9-16.7,91.3-3"/>
		<path class="st1" d="M1924.8,638.3c-10.7,1.8-20.8,6.9-30.6,11.7c-12.9,6.4-26.3,13.1-40.8,12c-10.8-0.8-20.7-5.8-30.2-10.7
			c-9.5-4.8-19.2-9.7-29.8-10.6c-14.2-1.1-26.8,5-40.3,11.3c-3.3,1.6-6.7,3.2-10.1,4.7c-12.9,5.6-28.5,7.1-45,4.3
			c-1.3-0.3-2.5-0.5-3.8-0.7c-0.7-0.2-1.3-0.3-2-0.4c-7.1-1.4-16.8-1.4-23.9-1.7v-0.7c7.1,0.3,16.9,0.5,24,1.9
			c0.7,0.1,1.3,0.3,2,0.4c1.3,0.3,2.5,0.5,3.8,0.7c16.4,2.9,31.8,1.5,44.7-4.2c3.4-1.5,6.8-3.1,10.1-4.7
			c12.9-6.2,26.3-12.5,40.7-11.4c10.7,0.9,20.5,5.8,30,10.6c9.6,4.9,19.4,9.8,30,10.6c14.3,1,27-5.3,40.5-12
			c9.8-4.9,20-9.9,30.8-11.7"/>
		<path class="st1" d="M1951.2,642.5c-18.7,2.4-34.7,13.7-50.3,24.6c-3.5,2.4-7.1,5-10.7,7.4c-17.6,11.8-43.4,23.7-65.5,13.5
			c-5.8-2.7-10.9-6.8-16-10.8c-6.8-5.4-13.8-10.9-22.3-12.8c-13.1-2.8-24.9,3.6-37.4,10.4c-2.1,1.1-4.2,2.3-6.3,3.4
			c-6.8,3.5-15.1,6.6-23.7,8.7c-2.8,0.7-6.3,1.5-10.1,1.5c-11.6,0.2-17.7-1.6-23.6-3.1c-4.9-1.3-9.8-1.5-17.3-1.9v-0.6
			c7.5,0.3,12.8,0.5,17.4,1.8c5.9,1.7,11.9,3.3,23.5,3.1c3.6-0.1,7.2-0.8,9.9-1.5c8.5-2.1,16.9-5.2,23.5-8.7
			c2.1-1.1,4.2-2.3,6.3-3.3c12.1-6.5,24.5-13.3,37.9-10.5c8.7,1.8,15.7,7.5,22.6,12.9c5,3.9,10.1,8.1,15.8,10.7
			c21.9,10.2,47.3-1.7,64.9-13.4c3.6-2.3,7.1-5,10.7-7.4c15.6-10.9,31.7-22.2,50.6-24.8"/>
	</g>
</g>
</svg>
