<?xml version="1.0" encoding="utf-8"?>
<!-- Generator: Adobe Illustrator 23.0.2, SVG Export Plug-In . SVG Version: 6.00 Build 0)  -->
<svg version="1.1" id="Capa_1" xmlns="http://www.w3.org/2000/svg" xmlns:xlink="http://www.w3.org/1999/xlink" x="0px" y="0px"
	 viewBox="0 0 1920 920" style="enable-background:new 0 0 1920 920;" xml:space="preserve">
<style type="text/css">
	.st5{fill:#99CCCC;}
	.st6{fill:#4BB9B8;}
</style>
<path class="st5" d="M1398.8,399.7c-10.6-0.4-21.3-0.8-31.9-1.2c-0.8,0-1.7-0.1-2.3-0.7c-0.5-0.5-0.5-1.3-0.5-2
	c0-9.1,0.1-18.3,1.7-27.3c0.5-2.9,1.2-5.8,1.2-8.8s-0.7-6-2.7-8.2c-1.2-1.4-2.9-2.3-4.5-3.3c-3.4-2.2-6.7-4.6-9.7-7.4
	c-0.7-0.6-1.4-1.3-1.6-2.2c-0.4-1.2,0.2-2.5,0.8-3.7c0.6-1.1,1.1-2.3,1.7-3.4c0.5-1,1.1-2.1,2-2.7c2-1.2,4.6,0.3,6.4,1.8
	c1.9,1.6,3.8,3.2,5.8,4.7c9.2,6.5,21,7.7,32.3,8.5c5.4,0.4,11.3,0.9,15.1,4.7c1.1,1,1.9,2.3,2.7,3.5c2.5,3.8,4.9,7.7,7.1,11.7
	c0.5,0.9,1.1,2,0.8,3c-0.2,0.7-0.6,1.2-1,1.7c-1,1.2-2.1,2.5-3.1,3.7c-0.5,0.6-1,1.2-1.7,1.4c-1.8,0.5-3.1-1.5-4-3.1
	c-1.3-2.3-2.9-4.4-4.8-6.2c-0.4-0.4-0.9-0.8-1.5-0.8s-1.1,0.6-1.4,1.1c-2.1,3.5-1.8,8-1.6,12.1c0.2,4.7,0,9.5-0.5,14.2
	C1403.1,394.3,1403.5,399.9,1398.8,399.7z"/>
<g>
	<path class="st6" d="M1349,335.1l-0.3-0.2c-3.4-2.4-7.3-5.1-9.5-8.5c-2.4-3.7-1.9-8.5-1.2-13c0.4-2.3,0.7-3.6,1.1-5.5
		c0.4-1.5,0.8-3.4,1.5-6.4c0.2-0.8,0.4-1.5,0.6-2.2c0.5-1.5,0.9-2.9,0.5-3.8c-1.5-3.1-1.3-6-0.6-7.7c0.4-1,1-1.7,1.6-1.9
		c0.9-0.3,1.7-0.3,2.5,0.1c1.2,0.6,2.1,2.1,2.5,4.1c0.5,2.2,0.1,4.1-0.1,5.5c-0.1,0.6-0.2,1.1-0.2,1.5c0,2.8-0.1,5.6-0.2,8.3
		c-0.2,4.2-0.3,8.2-0.1,12.6c0.1,1.3,0.5,2.4,1.3,3.4l0.3,0.4c0.7,0.8,1.3,1.6,2,2.2s1.3,1.2,1.9,1.7s1.2,1.1,1.9,1.7l-0.7,0.9
		c-0.7-0.6-1.3-1.1-1.9-1.7c-0.6-0.5-1.2-1.1-1.9-1.7c-0.8-0.7-1.5-1.5-2.2-2.4l-0.3-0.4c-1-1.2-1.5-2.6-1.6-4.1
		c-0.2-4.4,0-8.4,0.1-12.7c0.1-2.7,0.2-5.4,0.2-8.2c0-0.5,0.1-1,0.2-1.7c0.2-1.4,0.5-3.1,0.1-5.1c-0.3-1.6-1-2.8-1.9-3.3
		c-0.5-0.3-1-0.3-1.6-0.1c-0.3,0.1-0.7,0.6-1,1.3c-0.6,1.5-0.7,4,0.6,6.7c0.6,1.3,0.1,2.9-0.4,4.6c-0.2,0.7-0.4,1.4-0.6,2.1
		c-0.6,3.1-1.1,4.9-1.5,6.4c-0.4,1.8-0.8,3.1-1.1,5.4c-0.7,4.5-1.1,8.9,1.1,12.2c2.1,3.2,5.9,5.9,9.2,8.2l0.3,0.2L1349,335.1z"/>
</g>
<g>
	<path class="st5" d="M1411.9,409.7c-0.2,0-0.5,0-0.7,0c-1.9-0.1-3.9-0.9-4-2.7c-0.1-1.3,0.9-2.2,1.8-3c0.3-0.2,0.5-0.5,0.8-0.7
		c0.7-0.7,1.1-1.6,1.5-2.5l7.4-16.3c0.3-0.7,0.7-1.4,0.7-2.2c0-0.8-0.3-1.6-0.7-2.4l-2.3-5.4l1-0.5l2.3,5.4c0.4,0.8,0.8,1.8,0.8,2.8
		s-0.4,1.9-0.8,2.6l-7.4,16.3c-0.4,0.9-0.9,2-1.7,2.8c-0.3,0.3-0.6,0.5-0.9,0.8c-0.8,0.7-1.5,1.3-1.4,2.1c0.1,1.2,1.9,1.6,3,1.7
		c0.5,0,1.1,0.1,1.7-0.1c1.5-0.4,2.3-2.1,3.1-3.9c2.8-6.2,6.4-12.1,9.9-17.8l1-1.7c0.9-1.5,1.6-2.8,1.5-4.2
		c-0.1-1.1-0.7-2.2-1.2-3.1c-0.8-1.4-1.5-3-2.3-4.6c-0.7-1.6-1.5-3.3-2.3-4.6l1-0.6c0.8,1.4,1.5,3,2.3,4.7c0.7,1.6,1.5,3.2,2.2,4.6
		c0.6,1,1.2,2.3,1.3,3.6c0.1,1.9-0.9,3.6-1.7,4.9l-1,1.7c-3.5,5.7-7.1,11.5-9.8,17.7c-0.7,1.6-1.7,3.9-3.8,4.5
		C1412.8,409.6,1412.3,409.7,1411.9,409.7z"/>
</g>
<g>
	<path class="st6" d="M1392.2,480.9c-0.6,0-1.2-0.1-1.6-0.3c-0.7-0.3-1.5-1-1.7-2.5c-0.4-3.5-1-7.3-1.7-11.2
		c-0.9-5.5-1.9-11.3-2.2-16.8c-0.3-5.7-0.1-11.4,0.2-17c0.2-3.5,0.3-6.9,0.3-10.1c0-0.5-0.1-3-1.4-3.1c-0.6-0.1-1.3,0.5-1.8,1
		l-1.4,1.3c-5.3,5-9.9,9.3-14.1,15.7c-0.3,0.4-0.5,0.8-0.8,1.2c-1.7,2.4-3.7,5.2-2,9.4c0.5,1.3,1.9,4.7,2.4,5.9
		c1.9,4.1,2.8,6.4,4.2,10.2c1.4,3.9,1.9,5.7-1.2,8.7c-2.6,2.5-4.5,1.5-5.4,0.7c-0.6-0.6-1-1.3-1.2-1.9l-12.5-27.8
		c-0.5-1.2-1.1-2.5-1.2-4c-0.1-2.3,1.1-4.3,2.1-6.2l0.1-0.2c12.5-22.1,15.1-46.9,16.9-74.7c0.1-1.4,0.2-3-0.3-4.3
		c-0.8-2.1-2.5-4.5-4.1-5.6c-3-2.2-5.8-4.4-8.9-7c-0.4-0.3-0.9-0.7-1.3-1.1c-2.2-1.8-4.6-3.7-4.9-5.5c-0.3-1.9,2.4-6.7,5-8.7
		c1.7-1.3,3.4,0.2,6,2.6c1.1,1,2.3,2.1,3.7,3.2c9.2,7.3,21.7,8.9,30.3,9.4l1.3,0.1c3.6,0.2,8.1,0.5,11.2,1.6
		c8.2,2.8,11.5,9.2,15.3,16.7c0.5,0.9,1,1.9,1.5,2.9c1,2,1.4,3,1.3,3.5c-0.2,1.3-1.9,3.4-3.4,4.9l-0.5,0.5c-0.8,0.9-1.5,1.5-2.7,2.1
		c-2,1-3.9-2.2-5.6-5l-0.4-0.7c-0.3-0.5-0.6-1-0.8-1.5c-1.2-2.2-2.6-4.8-4.4-4.4c-3.4,0.8-4,16.9-4.5,27.6c-0.1,2.8-0.2,5.4-0.3,7.6
		c-0.5,8.2-1.1,16-1.6,23.5c-0.6,7.8-1.2,15.8-1.7,24.4c-0.3,4.6-0.1,10.1,0.1,17.5c0.4,9.3-0.3,14.7-1.9,15.8
		C1395.2,480.4,1393.6,480.9,1392.2,480.9z M1383.9,418.7c0.1,0,0.2,0,0.2,0c1.5,0.2,2.4,1.7,2.4,4.3c0,3.3-0.1,6.6-0.3,10.2
		c-0.2,5.5-0.5,11.2-0.2,16.8c0.3,5.4,1.3,11.1,2.2,16.6c0.7,4,1.3,7.8,1.7,11.3l0,0c0.1,0.8,0.4,1.3,1,1.6c1.2,0.5,3.2,0.1,5-1.1
		c1-0.7,1.8-4.9,1.5-14.8c-0.3-7.4-0.4-12.9-0.1-17.6c0.5-8.6,1.1-16.6,1.7-24.4c0.5-7.5,1.1-15.2,1.6-23.5c0.1-2.2,0.2-4.8,0.3-7.6
		c0.6-15.7,1.4-27.8,5.3-28.7c2.7-0.6,4.4,2.5,5.7,4.9c0.3,0.5,0.5,1,0.8,1.5l0.4,0.7c1.2,2,3,5.1,4.1,4.6c1-0.5,1.5-1,2.3-1.9
		l0.5-0.5c1.8-1.8,3-3.4,3.1-4.2c0-0.1-0.1-0.7-1.2-2.8c-0.5-1-1-2-1.5-2.9c-3.7-7.2-6.9-13.4-14.7-16.1c-3-1-7.4-1.3-10.9-1.5
		l-1.3-0.1c-8.7-0.6-21.4-2.2-30.9-9.7c-1.5-1.2-2.7-2.3-3.8-3.3c-2.4-2.2-3.6-3.2-4.5-2.5c-2.6,2-4.8,6.4-4.6,7.6
		c0.2,1.3,2.5,3.2,4.4,4.8c0.5,0.4,0.9,0.7,1.3,1.1c3.1,2.6,5.8,4.8,8.8,6.9c1.8,1.3,3.7,3.8,4.5,6.1c0.6,1.6,0.5,3.3,0.4,4.8
		c-1.9,28-4.4,52.9-17.1,75.2l-0.1,0.2c-1,1.8-2.1,3.6-2,5.6c0.1,1.2,0.6,2.4,1.1,3.6l12.5,27.8c0.2,0.5,0.5,1.2,1,1.6
		c0.7,0.6,1.8,1.3,3.8-0.7c2.6-2.6,2.2-4,0.9-7.6c-1.4-3.9-2.3-6.1-4.2-10.1c-0.5-1.2-1.9-4.6-2.5-5.9c-1.9-4.8,0.3-8,2.2-10.5
		c0.3-0.4,0.6-0.8,0.8-1.2c4.2-6.5,8.9-10.9,14.3-15.9l1.4-1.3C1382.2,419.4,1383,418.7,1383.9,418.7z"/>
</g>
<g>
	<path class="st6" d="M1388.7,342.8c-1.5-2.6-0.8-5.6-0.3-7.2s1.4-3.1,2.2-4.5c0.3-0.6,0.6-1.2,1-1.8c0.7-1.4,1.1-2.5,1.4-3.5
		c0.9-3.5-0.2-7.3-2.7-9.9c-2.5-2.5-6.3-3.7-9.8-2.9c-0.9,0.2-1.6,0.5-2.1,0.9c-0.4,0.3-0.7,0.6-1.1,1.1c-1.1,1.3-1.9,2.8-2.5,4.6
		c-0.9,2.8-1.1,6.8,1.3,9.4c0.7,0.8,1.6,1.3,2.5,2c1.3,0.9,2.6,1.8,3.4,3.1c1.3,2.1,0.3,5.6-1.5,7.5l-0.8-0.8
		c1.5-1.5,2.4-4.4,1.4-6.1c-0.7-1.2-1.9-2-3.1-2.8c-0.9-0.6-1.9-1.3-2.7-2.1c-2.7-3-2.6-7.4-1.6-10.5c0.6-1.9,1.5-3.5,2.7-4.9
		c0.5-0.6,0.9-1,1.3-1.3c0.7-0.5,1.5-0.8,2.5-1.1c3.9-0.9,8.1,0.4,10.9,3.2c2.8,2.8,3.9,7.1,3,10.9c-0.3,1.1-0.7,2.3-1.5,3.7
		c-0.3,0.6-0.6,1.2-1,1.8c-0.8,1.4-1.6,2.8-2.1,4.3c-0.5,1.4-1.1,4,0.2,6.3L1388.7,342.8z"/>
</g>
<path class="st6" d="M1371.6,315.8c-1.4-0.1-3.2-0.4-3.5-1.8c-0.2-0.9,0.5-1.9,1.4-2.3c0.8-0.5,1.8-0.7,2.6-1.3
	c1.7-1.2,2.5-3.7,4.5-4.2c0.6-0.2,1.3-0.1,1.9-0.2c2.2-0.5,3.7-3,6-2.9c2.6,0.2,3.7,4,6.2,4.6c1.2,0.3,2.7-0.1,3.7,0.7
	c1.2,1.1,0.4,3.3,1.3,4.7c0.9,1.4,3.4,1.5,3.9,3.2c0.6,1.9-2,3.3-2.4,5.2c-0.2,1.2,0.4,2.3,0.8,3.5c0.5,1.1,0.7,2.5-0.1,3.4
	c-0.6,0.6-1.5,0.9-1.6,1.7c0,0.4,0.2,0.8,0.2,1.2c0.1,1.1-1.4,1.8-2.4,1.3s-1.5-1.6-1.8-2.6c-0.3-1.4-0.4-2.8-0.2-4.2
	c0.2-1.4,0.8-2.9,0.2-4.1c-0.7-1.7-3-2.4-3.2-4.2c-0.1-0.7,0.2-1.4-0.1-2c-0.2-0.7-0.8-1.1-1.4-1.5c-1.1-0.7-2.3-1.1-3.6-1.1
	c-2.8,0.1-3.8,1.7-6.1,1.7c-1.4,0-2,3.4-2.9,3.3C1373.8,317.9,1373.3,315.9,1371.6,315.8z"/>
<g>
	<path class="st6" d="M1364.2,487c-1.5,0-2.9-0.6-3.3-1.9s0.2-2.5,0.8-3.4c1.1-1.7,3-3.9,5.8-4.8l0,0c1.9-0.6,4.6-0.5,5.9,0.9
		c0.6,0.6,1.1,1.7,0.5,3.4c-1,2.7-5.2,4.7-7.6,5.5C1365.6,486.9,1364.9,487,1364.2,487z M1369.8,477.7c-0.7,0-1.3,0.1-2,0.3l0,0
		c-2.5,0.8-4.2,2.8-5.2,4.3c-0.7,1-0.9,1.8-0.7,2.4c0.4,1.3,2.6,1.3,3.9,0.9c2.3-0.8,6.1-2.7,6.9-4.8c0.3-0.9,0.3-1.7-0.2-2.2
		C1372,478,1370.9,477.7,1369.8,477.7z"/>
</g>
<g>
	<path class="st6" d="M1389,493.1c-1.5,0-2.8-0.6-3.3-1.9c-0.3-1-0.1-2.1,0.8-3.4c1.1-1.7,3-3.9,5.8-4.8l0,0
		c1.9-0.6,4.6-0.5,5.9,0.9c0.6,0.6,1.1,1.7,0.5,3.4c-1,2.7-5.2,4.7-7.6,5.5C1390.4,493,1389.7,493.1,1389,493.1z M1394.6,483.8
		c-0.7,0-1.3,0.1-2,0.3l0,0c-2.5,0.8-4.2,2.8-5.2,4.3c-0.6,1-0.9,1.8-0.7,2.4c0.4,1.3,2.6,1.3,3.9,0.9c2.3-0.8,6.1-2.7,6.9-4.8
		c0.3-0.9,0.3-1.7-0.2-2.2C1396.8,484.1,1395.7,483.8,1394.6,483.8z"/>
</g>
<g>
	<path class="st6" d="M1342.8,286.9C1342.8,286.9,1342.7,286.9,1342.8,286.9c-0.4,0-0.6-0.3-0.6-0.6c2.6-20.7,1.9-34,1-50.9
		c-0.8-14-1.6-29.8-0.9-54c0-0.3,0.3-0.6,0.6-0.6l0,0c0.3,0,0.6,0.3,0.6,0.6c-0.7,24.2,0.2,40,0.9,53.9c0.9,16.9,1.6,30.3-1,51.1
		C1343.3,286.7,1343.1,286.9,1342.8,286.9z"/>
</g>
<path class="st6" d="M1342.8,187.9c2-18.8-34.4-21.3-51.2-38.7c-20.3-20.9-21.9-67.2,6.3-87.7s62.1-20.1,86.6,5.9
	c21,22.4,23.3,55.7-1.6,80.3C1367,163.4,1344.7,170.7,1342.8,187.9z"/>
<g>
	<path class="st6" d="M804.2,895.9c-11,0-22.5-5.2-33-10c-1.4-0.6-2.9-1.3-4.3-1.9c-18.7-8.3-34-4.2-51.7,0.7
		c-23.7,6.5-50.5,13.8-94.4-5.2c-7.2-3.1-14.3-6.7-21.3-10.1c-20.1-10-40.9-20.4-63.4-20c-10.9,0.2-21.9,1.9-32.6,3.6
		c-2.9,0.5-5.8,0.9-8.7,1.3c-38.5,5.7-69,4.5-95.7-3.6c-11.6-3.5-22.8-8.5-33.7-13.3c-9.5-4.2-19.4-8.6-29.5-12
		c-34.2-11.4-73.8-4.5-101,3.4c-8.4,2.4-15.2,5.5-23.5,10.5c-2.5,1.5-4.9,3.2-7.3,4.8c-4.8,3.3-9.9,6.6-15.4,8.9
		c-18.5,7.7-40.5,1.9-56.5-2.2c-22.2-5.8-45.1-11.8-66-22.3c-3.2-1.6-6-3.5-8.7-5.4c-5.9-4.1-11.5-7.9-21.8-9.1
		c-10.7-1.2-26,5.5-35.7,12.3l-0.4-0.6c9.8-6.9,25.2-13.7,36.2-12.4c10.5,1.2,16.4,5.3,22.1,9.2c2.6,1.8,5.4,3.7,8.6,5.3
		c20.8,10.4,43.7,16.4,65.9,22.2c15.9,4.2,37.7,9.9,56,2.3c5.4-2.2,10.4-5.6,15.2-8.8c2.4-1.6,4.9-3.3,7.4-4.8
		c8.3-5,15.2-8.1,23.7-10.5c27.3-7.9,67-14.9,101.4-3.4c10.1,3.4,20,7.8,29.5,12c10.8,4.8,22.1,9.8,33.6,13.3
		c26.6,8.1,56.9,9.2,95.4,3.5c2.9-0.4,5.8-0.9,8.7-1.3c10.7-1.7,21.7-3.4,32.7-3.6c22.7-0.4,43.6,10,63.8,20.1
		c6.9,3.5,14.1,7,21.2,10.1c43.7,18.9,70.4,11.6,93.9,5.2c17.8-4.9,33.2-9.1,52.2-0.6c1.4,0.6,2.8,1.3,4.3,1.9
		c14.5,6.6,30.9,14,45,7.2c4.9-2.3,8.9-6.2,12.8-9.9c0.9-0.8,1.7-1.6,2.6-2.4c44.8-41.7,113.5-42.2,168.4-38.1h0.6
		c12.4,0.9,25.3,1.9,36.8-2.6c7.5-2.9,13.9-8,20.2-13l2.1-1.6c31.9-25,67.5-44.3,105.9-57.3c1-0.3,2-0.7,2.9-1
		c7.9-2.6,16-5.4,22.9-10.1c5-3.4,9.3-7.8,13.4-12.1c2.9-3,5.9-6,9.1-8.8c17.5-14.9,41.2-19.5,64.1-23.9
		c24.1-4.6,49.1-9.4,66.3-26.5c3.5-3.4,6.6-7.3,9.6-11.1c3.6-4.5,7.3-9.2,11.7-13.2c3.9-3.5,8.4-6.4,12.8-9.3
		c8.4-5.5,16.3-10.7,20.5-19.3c5.5-11.1,2.7-23.3-0.2-36.1c-2.5-11.2-5.1-22.8-1.8-33.5c2.5-8.1,12-28.8,16-36.8
		c10.8-21.4,7.3-43.4,3.3-68.9c-2.7-16.8-5.4-34.2-4.5-53.6h0.8c-0.9,19.4,1.9,36.7,4.5,53.5c4.1,25.6,7.6,47.7-3.3,69.4
		c-4.1,8.1-13.5,28.7-16,36.7c-3.3,10.5-0.7,22,1.8,33.1c2.8,12.4,5.7,25.3,0.1,36.6c-4.3,8.7-12.7,14.2-20.8,19.6
		c-4.3,2.9-8.8,5.8-12.7,9.2c-4.4,3.9-8.1,8.6-11.7,13.1c-3,3.8-6.1,7.7-9.6,11.2c-17.4,17.2-42.5,22-66.7,26.7
		c-22.8,4.4-46.4,8.9-63.8,23.7c-3.2,2.7-6.1,5.8-9,8.7c-4.2,4.3-8.5,8.7-13.5,12.2c-7,4.8-15.2,7.5-23.1,10.2c-1,0.3-2,0.7-2.9,1
		c-38.3,13-73.9,32.2-105.7,57.2l-2.1,1.6c-6.3,5-12.8,10.1-20.4,13.1c-11.7,4.6-24.6,3.6-37.2,2.7h-0.6
		c-54.7-4.2-123.3-3.6-167.8,37.9c-0.9,0.8-1.7,1.6-2.6,2.4c-3.9,3.8-8,7.7-13,10.1C812.8,895.1,808.5,895.9,804.2,895.9z"/>
</g>
<g>
	<path class="st6" d="M587.9,912.5c-3.9,0-7.7-0.4-11.1-1.4c-11.1-3-19.3-9.9-28-17.3l-1.7-1.4c-24.1-20.4-42.3-33.7-52.5-38.3
		c-47.6-21.4-88.8-18.6-140.9-15l-6.2,0.4c-2.3,0.2-4.6,0.3-6.9,0.5c-16.2,1.2-32.9,2.5-47.9-3.6c-6.3-2.5-12-6.3-17.5-10
		c-3.4-2.3-7-4.6-10.7-6.6c-9.3-5.1-19.5-5.6-29.4-1.3c-11.2,4.8-21.7,13.8-31.2,26.8c-0.7,1-1.5,2.1-2.2,3.1
		c-7.5,10.3-15.2,21-26.6,26.7c-13.9,6.9-31.8,5.5-54.8-4c-3-1.3-6.1-2.6-9.1-3.9c-14-6.1-28.5-12.5-43.8-12.5c-0.1,0-0.3,0-0.4,0
		c-1.8,0-3.6,0.1-5.3,0.2c-5,0.3-10.1,0.6-14.9-1.1c-9.7-3.3-15.3-13.2-20.1-22l-1-1.8c-3.3-6-12.5-20.5-25.7-26.4l0.3-0.7
		c13.4,5.9,22.7,20.7,26.1,26.7l1,1.8c5,9.1,10.3,18.5,19.7,21.7c4.7,1.6,9.7,1.3,14.6,1c1.8-0.1,3.6-0.2,5.4-0.2c0.1,0,0.3,0,0.4,0
		c15.4,0,30,6.4,44.1,12.6c3,1.3,6.1,2.7,9.1,3.9c22.8,9.5,40.5,10.8,54.2,4.1c11.2-5.5,18.9-16.2,26.3-26.4c0.7-1,1.5-2.1,2.2-3.1
		c9.5-13.1,20.1-22.2,31.5-27.1c10.2-4.4,20.6-3.9,30.1,1.3c3.7,2,7.3,4.4,10.7,6.7c5.5,3.6,11.2,7.4,17.4,9.9
		c14.8,6.1,31.5,4.8,47.6,3.6c2.3-0.2,4.6-0.4,6.9-0.5l6.2-0.4c52.2-3.6,93.4-6.4,141.3,15.1c10.5,4.7,28.2,17.6,52.7,38.4l1.7,1.4
		c8.6,7.3,16.8,14.3,27.7,17.2c13.9,3.7,33.1-0.5,46.8-10.1c25.7-18.1,53-33.5,79.1-23.8c4.4,1.6,8.5,4,12.5,6.3
		c4.7,2.7,9.6,5.4,14.8,7c15.2,4.6,30.8-1,45.9-6.4c6.7-2.4,13.6-4.8,20.4-6.4c15.7-3.7,32.2-2.8,48.1-1.9
		c13.7,0.7,27.8,1.5,41.5-0.6c16.5-2.6,32.1-9.3,47.2-15.8c8.8-3.8,17.8-7.7,27-10.7c27.5-9.2,57.6-11.6,86.7-13.9
		c41.6-3.3,84.6-6.6,118.8-30.5c10.4-7.2,19.7-16.2,28.8-24.9c13.8-13.3,28-27,45.9-34.4c6.9-2.8,14.4-4.8,21.6-6.6
		c12.7-3.3,25.9-6.6,35.9-15.2c5.9-5.1,10.4-11.8,14.7-18.4c4.4-6.7,9-13.7,15.3-18.9c7.4-6.2,16.9-9.8,26-13.3
		c12.9-4.9,25-9.5,31.8-20.7c5.4-8.8,5.5-19.1,5.7-30c0.1-5.9,0.2-12.1,1.3-17.9c1.9-10.8,7.2-21.3,12.2-31.4
		c8.4-16.9,16.3-32.8,9.8-49.2c-4-10.1-2.2-19.2-0.3-28.8c1.2-6,2.4-12.2,2.3-19c-0.2-8.6-0.2-16.3-0.3-23.1
		c-0.1-21-0.2-34.8-4.4-48.4l0.7-0.2c4.3,13.6,4.4,27.6,4.5,48.6c0,6.8,0.1,14.5,0.3,23.1c0.2,6.9-1.1,13.1-2.3,19.2
		c-1.9,9.5-3.7,18.4,0.2,28.4c6.6,16.7-1.4,32.8-9.9,49.8c-5,10.1-10.2,20.6-12.1,31.2c-1,5.8-1.2,11.9-1.3,17.8
		c-0.2,10.5-0.4,21.3-5.9,30.3c-6.9,11.4-19.1,16-32.1,21c-9.1,3.5-18.5,7.1-25.8,13.2c-6.2,5.2-10.7,12.1-15.2,18.8
		c-4.3,6.5-8.8,13.3-14.8,18.5c-10.1,8.7-23.3,12.1-36.2,15.4c-7.2,1.8-14.6,3.7-21.5,6.6c-17.8,7.3-32,21-45.7,34.2
		c-9.1,8.7-18.5,17.8-28.9,25c-34.4,24-77.5,27.3-119.2,30.6c-29.1,2.3-59.1,4.6-86.6,13.8c-9.1,3.1-18.2,6.9-26.9,10.7
		c-15.2,6.5-30.8,13.3-47.4,15.8c-13.7,2.1-27.9,1.4-41.6,0.6c-15.9-0.9-32.3-1.7-47.9,1.9c-6.8,1.6-13.7,4-20.3,6.4
		c-15.2,5.4-31,11.1-46.4,6.4c-5.3-1.6-10.2-4.4-15-7.1c-4-2.3-8.1-4.6-12.4-6.2c-25.7-9.6-52.9,5.7-78.4,23.7
		C613.7,908.3,600,912.5,587.9,912.5z"/>
</g>
<g>
	<path class="st6" d="M1808.6,741.7c-0.6,0-1.2,0-1.8,0c-11.3-0.4-21.9-4.9-32.2-9.1c-9-3.7-18.3-7.6-28-8.8
		c-13.1-1.6-26.3,1.6-39.1,4.8c-13.1,3.2-26.7,6.6-40.2,4.7c-9.9-1.4-20.4-4.7-30.5-7.9c-19.7-6.2-40-12.6-58-5.9
		c-2.3,0.9-4.6,2-6.8,3.1c-3.5,1.8-7.1,3.6-11,4.4c-11.2,2.1-20.5-4.6-30.2-11.6c-6.6-4.8-13.5-9.8-21.1-11.8
		c-9.1-2.4-21.7,1.8-33.8,5.8c-15.5,5.2-31.6,10.5-40.5,2.2c-7-6.5-8.4-16.4-9.7-25.9c-1.1-7.7-2.2-15.7-6.3-22.1
		c-1.7-2.6-3.9-5-6-7.3c-2.8-3-5.6-6.1-7.4-9.8c-4.4-9.2,0.6-16.4,6.9-25.6c6.4-9.3,14.4-20.9,16.1-39.1c1.9-19.6-6.5-40.1-14-58.2
		c-5.3-12.8-10.2-25-10.5-34.6c-0.4-15,2.6-25.8,5.6-36.1c4-14,7.8-27.2,2-49.4l0.7-0.2c5.9,22.4,2.1,35.7-2,49.8
		c-3,10.3-6,20.9-5.6,35.9c0.3,9.5,5.2,21.6,10.5,34.3c7.5,18.2,15.9,38.8,14,58.5c-1.8,18.4-9.8,30.1-16.3,39.5
		c-6.4,9.3-11,16.1-6.8,24.9c1.7,3.6,4.6,6.7,7.3,9.6c2.2,2.3,4.4,4.7,6.1,7.4c4.2,6.5,5.3,14.6,6.4,22.4c1.4,9.8,2.7,19.1,9.5,25.4
		c8.6,8,24.5,2.8,39.8-2.3c12.3-4.1,25-8.3,34.3-5.9c7.7,2,14.7,7.1,21.4,11.9c9.6,7,18.7,13.5,29.7,11.5c3.8-0.7,7.4-2.5,10.8-4.3
		c2.2-1.1,4.5-2.3,6.8-3.2c18.2-6.9,38.7-0.4,58.5,5.9c10.1,3.2,20.5,6.5,30.3,7.9c13.3,1.9,26.8-1.4,39.9-4.7
		c12.9-3.2,26.2-6.5,39.4-4.8c9.8,1.2,19.1,5.1,28.1,8.9c10.2,4.3,20.8,8.7,31.9,9.1c10.1,0.4,19.5-2.5,27.3-5.4
		c10.7-3.9,21.4-9.5,31.7-14.9c17.2-9,34.9-18.3,53.7-20.5l0.1,0.7c-18.7,2.3-36.4,11.5-53.5,20.4c-10.3,5.4-21,11-31.8,14.9
		C1827.4,738.9,1818.3,741.7,1808.6,741.7z"/>
</g>
<g>
	<path class="st6" d="M1627.5,733.9c-19.3,0-38.3-2.6-56.4-9.8c-8.1-3.2-16.1-7.4-23.8-11.5c-15.8-8.3-32.2-16.9-50.1-17.3
		c-11.7-0.2-23.2,3.1-34.3,6.3c-6.2,1.8-12.7,3.7-19.1,4.9c-16.9,3.2-39.8,0.9-49.1-16.1c-8.4-15.3-1-31.3,6.9-48.3
		c6.1-13.1,12.4-26.6,11.1-40.2c-0.8-8.1-4.3-15.7-7.7-23c-3-6.5-6.2-13.3-7.4-20.5c-4.6-26.2,1-40.5,16.2-64.4
		c7.9-12.5,6.8-21.4,6.1-26.8c-0.1-1.1-0.3-2.1-0.3-2.9c-0.4-10.1-2.2-16.9-4-23.5c-2.5-9.3-5.1-18.9-3.5-37.6l0.7,0.1
		c-1.6,18.6,0.8,27.7,3.4,37.4c1.8,6.6,3.6,13.5,4,23.7c0,0.8,0.2,1.7,0.3,2.8c0.7,5.5,1.9,14.6-6.2,27.3
		c-15.1,23.8-20.6,37.9-16.1,63.8c1.2,7.1,4.3,13.8,7.3,20.3c3.4,7.4,7,15,7.7,23.2c1.3,13.8-5,27.4-11.1,40.6
		c-7.8,16.8-15.1,32.6-6.9,47.6c9.1,16.7,31.7,18.9,48.3,15.7c6.4-1.2,12.8-3.1,19.1-4.9c11.2-3.2,22.8-6.6,34.5-6.3
		c18.1,0.4,34.5,9,50.4,17.4c7.7,4,15.6,8.2,23.7,11.4c41.3,16.4,86.9,8.8,131,1.3c14.2-2.4,28.8-4.9,43.1-6.5
		c29-3.3,52.4-4.8,89,6.4c29.5,9,66.6,5.8,85.5-2.5l0.3,0.7c-19,8.4-56.3,11.6-86,2.5c-36.4-11.2-59.7-9.7-88.7-6.4
		c-14.2,1.6-28.9,4.1-43,6.5C1677.6,729.7,1652.2,733.9,1627.5,733.9z"/>
</g>
<g>
	<path class="st6" d="M1881.3,760.7c-16.3,0-29.5-2-47.1-7.3c-9.3-2.8-18.9-6.6-28.4-11.3c-2.6-1.3-5.2-2.7-7.8-4
		c-12.2-6.4-24.8-12.9-38.5-13.6c-13.1-0.7-25.9,4.1-38.2,8.8c-2,0.8-4.1,1.5-6.1,2.3c-28,10.2-69,19.2-105.1,3.4
		c-2.9-1.3-5.8-2.7-8.6-4.1c-5.1-2.6-10.5-5.2-16-6.9c-13.7-4.1-28.7-2.2-41.9-0.6l-57.2,7.1c-10.1,1.3-21.6,2.7-32.3,0.1
		c-11.8-2.8-21.1-10.8-23.7-20.3c-0.7-2.4-0.9-5-1.2-7.5c-0.3-3.1-0.7-6.3-1.8-9.2c-3.1-8.1-10.9-12-19.1-16.3
		c-6.9-3.5-14-7.1-18.2-13.3c-7.2-10.6-3.8-24.8,1.9-34.6c3.1-5.4,7-10.3,10.8-15.1c3.6-4.5,7.3-9.3,10.3-14.3
		c14.7-24.8,9.4-52.3,3.8-81.3c-3.8-19.5-7.7-39.6-5.3-59.3c0.1-0.8,0.4-2.3,0.8-4.4c2.2-11.2,8-41.1,0-55.6l0.7-0.4
		c8.1,14.7,2.3,44.8,0.1,56.1c-0.4,2-0.7,3.5-0.8,4.3c-2.4,19.6,1.5,39.7,5.2,59.1c5.7,29.2,11,56.8-3.9,81.9
		c-3,5.1-6.7,9.8-10.3,14.4c-3.8,4.8-7.6,9.7-10.7,15.1c-5.5,9.6-8.9,23.6-1.9,33.9c4.2,6.1,11.2,9.6,17.9,13.1
		c8,4.1,16.3,8.3,19.5,16.7c1.2,3,1.5,6.2,1.8,9.3c0.3,2.4,0.5,5,1.2,7.3c2.6,9.3,11.6,17,23.2,19.7c10.6,2.5,21.5,1.1,32-0.2
		l57.2-7.1c13.3-1.7,28.4-3.5,42.2,0.6c5.6,1.7,11,4.3,16.2,6.9c2.8,1.4,5.7,2.8,8.6,4.1c35.9,15.7,76.7,6.8,104.6-3.4
		c2-0.7,4.1-1.5,6.1-2.3c12.4-4.7,25.2-9.5,38.5-8.8c13.9,0.7,26.5,7.3,38.8,13.7c2.6,1.3,5.2,2.7,7.8,4c9.5,4.7,19,8.5,28.2,11.3
		c17.6,5.2,30.7,7.2,46.9,7.2c11.9,0,23.6-2.3,38.2-7.5l0.3,0.7C1905.1,758.3,1893.2,760.7,1881.3,760.7z"/>
</g>
<g>
	<path class="st6" d="M894.4,898.3c-16.3,0-32.6-2-48.2-6.1c-3.8-1-7.6-2.1-11.3-3.2c-9.4-2.8-19.1-5.6-29-6.5
		c-16-1.4-32.2,2.3-47.8,6c-18.4,4.3-37.4,8.7-55.9,4.6c-9.4-2.1-18.8-6.9-27.9-11.5c-13.3-6.8-27-13.8-41.2-12.8
		c-11.4,0.9-22,6-32.4,10.9c-13.7,6.5-27.8,13.3-44.1,10.8c-22.2-3.4-38.1-11.2-53.4-18.8c-11-5.4-22.5-11.1-35.9-14.8
		c-2.5-0.7-5-1.6-8-2.8c-13-4.9-32.6-12.4-72.3-2.1c-15.3,4-29.6,11.4-43.4,18.6c-3.9,2-7.8,4.1-11.8,6.1
		c-22.4,11.2-48.7,14.9-76.1,10.6c-6.1-1-12-2.8-17.6-4.5c-4.6-1.4-9.3-2.9-14.1-3.9c-15.7-3.2-27.1-7.8-37-14.9
		c-5.7-4-10.8-8.8-15.9-13.5c-3.6-3.3-7.3-6.7-11.1-9.8c-1.9-1.6-4-3.4-6.2-5.3c-8.2-7.3-17.4-15.5-26.6-15.7
		c-5.6-0.1-25,1-38.2,19.6c-2.1,3-4,6.3-5.8,9.4c-3.1,5.6-6.4,11.4-11.3,15.7c-6.7,6-19.1,11.5-31.7,9.9c-5.6-0.7-10.2-2.6-14.7-4.6
		c-7.4-3.2-14.4-6.2-25.5-3.6l-0.2-0.7c11.4-2.7,18.8,0.5,26,3.6c4.4,1.9,9,3.8,14.5,4.5c12.4,1.5,24.6-3.8,31.2-9.8
		c4.8-4.3,8-10,11.1-15.5c1.8-3.2,3.7-6.5,5.8-9.5c13.4-18.9,33.1-20,38.8-19.9c9.5,0.2,18.9,8.5,27.1,15.9c2.2,1.9,4.2,3.7,6.1,5.3
		c3.8,3.1,7.6,6.5,11.1,9.8c5,4.6,10.2,9.4,15.8,13.4c9.8,7,21.1,11.6,36.7,14.8c4.9,1,9.6,2.5,14.2,3.9c5.6,1.8,11.4,3.6,17.5,4.5
		c27.3,4.2,53.4,0.6,75.7-10.5c4-2,7.9-4.1,11.8-6.1c13.8-7.2,28.1-14.7,43.5-18.7c39.9-10.3,59.7-2.8,72.8,2.2
		c2.9,1.1,5.5,2.1,7.9,2.7c13.6,3.7,25,9.4,36.1,14.8c15.3,7.5,31.1,15.3,53.2,18.7c16,2.5,30.1-4.2,43.7-10.7
		c10.4-5,21.2-10.1,32.7-11c14.4-1.1,28.2,6,41.6,12.8c9,4.6,18.4,9.4,27.7,11.5c18.4,4,37.3-0.4,55.6-4.6c15.7-3.6,32-7.4,48.1-6
		c10,0.9,19.7,3.8,29.1,6.5c3.7,1.1,7.5,2.2,11.3,3.2c42.6,11.2,89.9,6.9,129.8-11.8c11.2-5.3,22.1-11.7,32.6-18
		c10.4-6.2,21.3-12.6,32.4-17.8c18.7-8.8,46.5-17.5,72.2-8.7c1.3,0.4,2.5,0.9,3.8,1.4c7.3,2.7,14.8,5.5,21.5,2.2
		c5.3-2.6,8.2-8.5,10.8-13.7c20.3-40.8,44.1-65.7,72.7-76c17.3-6.2,36.1-6.8,54.3-7.4c6.8-0.2,13.8-0.4,20.7-0.9
		c22.1-1.6,51.5-8.3,65.8-30.6c5.2-8.1,7.9-17.6,10.5-26.8c1.4-4.9,2.8-9.9,4.6-14.7c5-13.5,13.3-26.4,21.2-38.9
		c14.6-22.9,28.4-44.5,24.2-69.7c-1-6.1-3.2-12.1-5.3-17.9c-2.5-7-5.2-14.3-5.8-21.9c-0.8-9.2,0.9-21,2.9-34.7
		c3.6-25.4,8.1-57-3.2-82.1l0.7-0.3c11.4,25.3,6.9,57.1,3.3,82.6c-1.9,13.6-3.6,25.4-2.9,34.5c0.6,7.5,3.2,14.7,5.8,21.7
		c2.1,5.8,4.3,11.8,5.3,18c4.3,25.5-9.6,47.2-24.3,70.2c-7.9,12.4-16.2,25.3-21.2,38.7c-1.8,4.8-3.2,9.8-4.6,14.6
		c-2.6,9.3-5.3,18.8-10.6,27c-14.5,22.6-44.1,29.3-66.4,31c-6.9,0.5-13.9,0.7-20.7,0.9c-18.1,0.5-36.9,1.1-54.1,7.3
		c-28.4,10.3-52.1,35-72.3,75.6c-2.6,5.3-5.6,11.3-11.1,14c-6.9,3.4-14.6,0.6-22-2.2c-1.3-0.5-2.6-0.9-3.8-1.4
		c-25.5-8.7-53-0.1-71.7,8.6c-11.1,5.2-21.9,11.6-32.4,17.8s-21.4,12.7-32.7,18C951.1,892.2,922.7,898.3,894.4,898.3z"/>
</g>
<g>
	<path class="st6" d="M798.8,893.3c-25.6,0-51.4-9.6-76.5-19c-33-12.3-67.1-25-100.2-15.8c-5.4,1.5-10.7,3.2-15.9,4.9
		c-23.5,7.5-45.8,14.6-67.4,2.4c-4.8-2.7-9.4-6-13.8-9.3c-7.4-5.3-15-10.9-23.7-13.6c-19.2-6-38.9,2.1-58,10c-3,1.2-6,2.5-9,3.6
		c-30.1,11.8-65,16.1-101.1,12.5c-34.5-3.4-68.5-13.8-98.4-30.1c-14.5-7.9-31.8-8.9-45-2.6c-4,1.9-7.8,4.5-11.4,7
		c-3.5,2.4-7.2,4.9-11.1,6.9c-11.8,5.8-26.9,6.7-44.8,2.7c-6.8-1.5-13.6-3.6-20.2-5.6c-7.7-2.3-15.7-4.7-23.7-6.3
		c-26.3-5.1-54.8-1.1-78.2,10.9l-0.3-0.7c23.5-12.1,52.2-16.1,78.6-11c8.1,1.6,16.1,4,23.8,6.3c6.6,2,13.4,4,20.2,5.5
		c17.8,4,32.7,3.1,44.4-2.6c3.9-1.9,7.5-4.4,11-6.8c3.7-2.5,7.5-5.1,11.5-7.1c13.5-6.4,31-5.4,45.7,2.6
		c63,34.2,139.1,40.9,198.8,17.5c3-1.2,6-2.4,9-3.6c19.2-7.9,39.1-16.1,58.5-10c8.9,2.8,16.5,8.3,23.9,13.7c4.4,3.2,9,6.5,13.7,9.2
		c21.3,12.1,43.4,5,66.8-2.4c5.2-1.7,10.6-3.4,16-4.9c33.4-9.3,67.6,3.5,100.6,15.8s67.1,25,100.2,15.8c7.9-2.2,15.9-5.7,23.5-9.1
		c15.3-6.7,31.1-13.7,47.4-10.4c6.5,1.3,12.6,4.2,18.5,7c3.4,1.6,7,3.3,10.6,4.7c8.2,3.1,16.9,4.6,26.1,4.6c23.4,0,49.9-10,79.2-30
		c6-4.1,12-8.4,17.8-12.6c24.8-17.8,50.4-36.2,80.5-41.7c10.8-2,22.1-2.2,32.9-2.4c16.1-0.3,32.7-0.7,47.7-6.7
		c12.8-5.1,23.8-14,34.4-22.6c4.3-3.5,8.8-7.1,13.4-10.5c22.6-16.5,49.2-27.2,76.9-30.9c2.1-0.3,4.2-0.5,6.3-0.8
		c7.3-0.8,14.8-1.7,21.7-4.2c28.4-10.2,40.1-43.5,41.5-71.4c0.6-11.6,0-23.5-0.6-35c-0.9-17.5-1.8-35.5,1.5-53
		c1.8-9.5,4.9-19.1,7.9-28.4c6.5-20.2,13.2-41.1,6.7-61.1l0.7-0.2c6.5,20.2-0.2,41.3-6.7,61.6c-3,9.3-6,18.9-7.8,28.3
		c-3.3,17.3-2.4,35.4-1.5,52.8c0.6,11.5,1.2,23.4,0.6,35.1c-1.5,28.1-13.3,61.7-42,72c-7,2.5-14.6,3.4-21.9,4.2
		c-2.1,0.2-4.2,0.5-6.3,0.8c-27.6,3.7-54.1,14.3-76.6,30.7c-4.5,3.3-9,6.9-13.4,10.5c-10.7,8.6-21.7,17.6-34.6,22.7
		c-15.2,6-31.9,6.4-48,6.7c-10.9,0.2-22.1,0.5-32.8,2.4c-29.9,5.4-55.5,23.8-80.2,41.6c-5.8,4.2-11.9,8.5-17.8,12.6
		c-41,28-76.6,36.5-106,25.4c-3.6-1.4-7.2-3.1-10.6-4.7c-5.8-2.8-11.9-5.7-18.3-6.9c-16.1-3.2-31.1,3.4-47,10.4
		c-7.7,3.4-15.6,6.9-23.6,9.1C814.9,892.3,806.9,893.3,798.8,893.3z"/>
</g>
<g>
	<path class="st6" d="M1613.6,765.8c-18.2,0-36.2-6.7-53.8-13.2c-22.1-8.2-45-16.7-67.6-11.4c-8,1.9-15.6,5.4-23,8.9
		c-4.7,2.2-9.5,4.4-14.4,6.3c-15.5,5.7-29.7,5.1-39.1-1.7c-10.5-7.6-15.2-22.9-12.5-41c0.9-5.8,2.3-11.7,3.7-17.3
		c2.1-8.6,4.3-17.5,4.5-26.5c0.2-12.5-3.5-25-7-37.1c-4.5-15.3-9.2-31.2-5.7-46.9c1.6-7,4.7-13.6,7.8-20c2.5-5.2,5.1-10.6,6.8-16.1
		c2.9-9.4,3.3-19.3,3.7-28.9l2.4-56.4h0.8l-2.4,56.4c-0.4,9.7-0.8,19.6-3.7,29.1c-1.7,5.6-4.3,11-6.8,16.2c-3,6.3-6.2,12.9-7.8,19.8
		c-3.5,15.5,1.2,31.3,5.7,46.5c3.6,12.1,7.3,24.7,7,37.3c-0.2,9.1-2.4,18-4.5,26.7c-1.4,5.6-2.8,11.5-3.7,17.3
		c-2.6,17.8,1.9,32.9,12.2,40.3c9.2,6.7,23.2,7.2,38.4,1.6c4.9-1.8,9.7-4.1,14.3-6.2c7.4-3.5,15-7,23.1-8.9
		c22.9-5.3,45.8,3.2,68,11.4c21.1,7.8,43,15.9,64.8,12.2c12.3-2.1,23.9-7.9,35.2-13.5c14.9-7.4,30.3-15.1,47-13.8
		c12.4,0.9,23.8,6.7,34.8,12.3c10.9,5.5,22.1,11.2,34.3,12.2c16.3,1.3,30.9-5.7,46.4-13c3.8-1.8,7.7-3.7,11.6-5.4
		c14.9-6.5,32.8-8.2,51.8-4.9c1.5,0.3,2.9,0.6,4.4,0.8c0.8,0.2,1.5,0.3,2.3,0.5c8.2,1.6,18.8,2.9,27,3.3v0.7
		c-8.2-0.4-18.9-1.8-27.1-3.4c-0.8-0.1-1.5-0.3-2.3-0.5c-1.5-0.3-2.9-0.6-4.4-0.8c-18.9-3.3-36.6-1.7-51.4,4.8
		c-3.9,1.7-7.8,3.6-11.6,5.4c-14.9,7.1-30.3,14.4-46.8,13.1c-12.3-1-23.6-6.7-34.5-12.2c-11-5.6-22.3-11.3-34.5-12.2
		c-16.5-1.2-31.1,6.1-46.6,13.8c-11.3,5.6-23,11.4-35.4,13.5C1621.2,765.5,1617.4,765.8,1613.6,765.8z"/>
</g>
<g>
	<path class="st6" d="M878.5,892.6c-3.3,0-6.6-0.3-9.9-1c-11.3-2.4-21.4-9.1-31.1-15.6c-12.2-8.2-23.8-15.9-37.7-15.9h-0.1
		c-4.9,0-9.8,1.1-14.5,2.1c-2.5,0.5-5.1,1.1-7.7,1.5c-22.9,3.5-45.5-4.8-67.4-12.8c-3.1-1.2-6.3-2.3-9.4-3.4
		c-21.1-7.5-52-15.9-76.3-1.9c-44,25.5-88.8,27.3-126.2,5.3c-20-11.8-38.8-18.4-59.4-21c-28.2-3.5-54.5,1-85.2,14.5
		c-17.4,7.7-37.3,13.5-58.9,17.5l-2.3,0.4c-19.3,3.5-36,6.6-57.7-10.8c-12.8-10.2-31.4-15.4-44.5-16.9c-10.2-1.1-20.7-0.3-30.9,0.5
		c-11.4,0.9-23.2,1.8-34.7,0c-18.2-2.9-34.6-12.5-50.4-21.7c-3.3-1.9-6.7-3.9-10.1-5.8C40,794,18.4,789.3,0.1,793.7l-0.2-0.7
		c18.6-4.4,40.3,0.3,64.6,14c3.4,1.9,6.8,3.9,10.1,5.8c15.8,9.2,32,18.8,50.1,21.6c11.4,1.8,23.1,0.9,34.5,0
		c10.2-0.8,20.7-1.6,31-0.5c13.2,1.4,32,6.7,44.9,17c21.4,17.2,38,14.1,57.1,10.6l2.3-0.4c21.6-3.9,41.4-9.8,58.8-17.4
		c30.8-13.5,57.3-18,85.6-14.5c20.6,2.5,39.6,9.2,59.6,21.1c37.1,21.9,81.7,20,125.4-5.3c24.6-14.2,55.7-5.8,76.9,1.8
		c3.1,1.1,6.3,2.3,9.4,3.4c21.8,8,44.3,16.3,67,12.8c2.6-0.4,5.1-0.9,7.6-1.5c4.8-1,9.7-2.1,14.6-2.1h0.1c14.2,0,26.3,8.1,38.1,16
		c9.7,6.5,19.7,13.1,30.8,15.5c20.2,4.3,39.7-5.8,58.5-15.6c4.1-2.1,8.3-4.3,12.4-6.3c38.3-18.4,82.3-23.3,123.7-13.6
		c4.7,1.1,9.4,2.4,14,3.6c12.3,3.4,25,6.8,37.8,6.7c24.3-0.2,47.7-14,59.6-35.2c4.2-7.4,7.5-15.4,10.7-23.1
		c5.5-13.1,11.1-26.7,21-37.3c26.4-28.4,48.7-45.3,116.5-23.5c46.9,15.1,64.2,14.4,80.3-3.6c7.5-8.3,9.1-20.5,9.6-31.4
		c1.1-22.5-0.6-45.1-5.2-67.2c-0.5-2.2-1-4.5-1.5-6.7c-3-13.6-6.1-27.7-2.9-41.2c2-8.4,6.3-16.3,10.4-23.8
		c5-9.1,10.2-18.5,11.1-28.9c1.2-13.4-3.6-26.5-8.2-39.1c-4.3-11.9-8.8-24.2-8.5-36.8c0.2-9.1,2.2-14.8,4-20.3
		c3.2-9.5,6.3-18.5-0.1-44.2l0.7-0.2c6.5,25.9,3.4,35,0.1,44.6c-1.9,5.4-3.8,11.1-4,20.1c-0.3,12.5,4.1,24.7,8.4,36.6
		c4.6,12.7,9.4,25.9,8.3,39.4c-0.9,10.5-6.1,20-11.2,29.2c-4.1,7.5-8.4,15.3-10.3,23.6c-3.1,13.4,0,27.4,2.9,40.9
		c0.5,2.3,1,4.5,1.5,6.7c4.6,22.2,6.4,44.8,5.2,67.4c-0.6,10.9-2.2,23.3-9.8,31.8c-16.4,18.3-33.8,19.1-81.1,3.9
		c-67.4-21.8-89.6-4.9-115.8,23.2c-9.8,10.6-15.4,24-20.9,37.1c-3.2,7.7-6.6,15.8-10.8,23.2c-12.1,21.4-35.7,35.3-60.3,35.6
		c-12.9,0.1-25.7-3.4-38-6.7c-4.6-1.3-9.3-2.5-14-3.6c-41.3-9.6-85-4.8-123.2,13.5c-4.1,2-8.3,4.1-12.3,6.2
		C911.7,884.2,895.4,892.6,878.5,892.6z"/>
</g>
<g>
	<path class="st6" d="M581.5,882.3c-6.7,0-13.2-1-19.1-3.1c-11.6-4.1-20.5-13.1-29.1-21.8c-1.6-1.6-3.2-3.2-4.8-4.8
		c-8-7.8-20.3-18.7-35.4-22.7c-12.3-3.3-29.2-1.5-38.8,10c-3.3,4-5.6,8.8-7.8,13.5c-2.4,5.1-4.9,10.4-8.7,14.5
		c-9.1,9.8-24.5,12.9-45.8,9.2c-17.8-3.1-35.1-8.5-51.4-16c-2.3-1.1-4.7-2.2-7.1-3.3c-15.7-7.5-32-15.3-48.5-11.3
		c-9,2.1-17.4,8.6-25.5,14.8c-7.7,6-15.7,12.1-24.3,14.6c-15.5,4.4-31.3,4.7-48.8,4.7c-5.5,0-11.8-0.2-17.6-2.3
		c-7.5-2.7-13.5-8.2-18.4-13.2c-4.4-4.6-8.6-9.5-12.7-14.2c-5-5.8-10.2-11.8-15.8-17.3c-12-11.6-24.3-18.3-36.4-19.9
		c-12.1-1.6-24.2,1.9-34.7,5.3c-15.2,4.9-30.7,11.4-50.5,21.1L0,839.4c19.8-9.7,35.3-16.2,50.6-21.2c10.5-3.4,22.7-6.9,35-5.3
		c12.3,1.6,24.7,8.3,36.9,20.1c5.6,5.4,10.8,11.5,15.8,17.3c4.1,4.7,8.3,9.6,12.7,14.2c4.8,5,10.7,10.4,18.1,13
		c5.7,2,12,2.2,17.3,2.2c17.5,0,33.3-0.3,48.6-4.7c8.4-2.4,16.4-8.5,24.1-14.5c8.2-6.3,16.6-12.8,25.8-15c16.7-4,33.1,3.8,49,11.4
		c2.4,1.1,4.7,2.3,7.1,3.3c16.3,7.5,33.5,12.8,51.2,15.9c21.1,3.7,36.2,0.6,45.1-8.9c3.8-4.1,6.3-9.3,8.6-14.3
		c2.2-4.7,4.5-9.6,7.9-13.6c9.9-11.7,27-13.6,39.6-10.2c15.3,4.1,27.7,15,35.8,22.9c1.6,1.6,3.2,3.2,4.8,4.8
		c8.6,8.7,17.4,17.6,28.8,21.6c18.4,6.5,41.7,2.6,60.9-10.1c23-15.3,49.9-8.9,78.4-2.1c16.5,3.9,33.5,8,49.7,7.5
		c14.8-0.4,29.3-4.7,43.4-8.9c12.8-3.8,26.1-7.7,39.6-8.7c15.5-1.1,31.2,1.6,46.3,4.2c12.3,2.1,25,4.4,37.6,4.5
		c24.1,0.2,48.3-7,71.7-14c33.5-10,65.1-19.5,96.9-9.3c2.2,0.7,4.5,1.5,6.6,2.3c8.2,3,16.7,6,25.1,4.2c8.7-1.9,15.4-8.7,21.9-16
		c3.7-4.1,7.4-8.3,11-12.4c25.6-29,52.1-59,85.5-79.2c19.6-11.9,42.2-19.5,63.5-21.5c23.7-2.2,45.7,2.4,63.5,13.4
		c3.2,2,6.4,4.2,9.5,6.3c11,7.6,22.4,15.5,35.3,13.9c8-1,15-5.6,21.8-10.1c3.5-2.3,7.1-4.7,10.9-6.6c26.2-13.3,53.8-2.6,83,8.7
		c22.8,8.8,46.3,17.9,69.5,14.9c21.5-2.8,40-15.8,57.9-28.3c4-2.8,8.2-5.7,12.3-8.5c20.3-13.6,50-27.3,75.4-15.5
		c6.7,3.1,12.6,7.8,18.4,12.4c7.8,6.2,15.9,12.6,25.7,14.7c15.1,3.2,28.7-4.2,43.1-12c2.4-1.3,4.8-2.6,7.2-3.9
		c7.8-4,17.4-7.6,27.3-10c3.2-0.8,7.3-1.7,11.6-1.7c13.4-0.2,20.4,1.8,27.2,3.6c5.6,1.5,10.8,3,19.4,3.4v0.8
		c-8.6-0.4-14.2-1.9-19.5-3.4c-6.8-1.9-13.7-3.8-27-3.6c-4.2,0.1-8.3,0.9-11.4,1.7c-9.8,2.4-19.4,6-27.1,10
		c-2.4,1.3-4.8,2.6-7.2,3.8c-13.9,7.5-28.2,15.3-43.6,12.1c-10-2.1-18.1-8.6-26-14.9c-5.7-4.5-11.6-9.3-18.2-12.3
		c-25.2-11.7-54.5,1.9-74.7,15.4c-4.1,2.7-8.2,5.7-12.3,8.5c-17.9,12.6-36.5,25.6-58.2,28.5c-23.4,3-47-6.1-69.8-14.9
		c-29-11.2-56.4-21.8-82.4-8.7c-3.7,1.9-7.3,4.3-10.8,6.6c-6.8,4.5-13.9,9.2-22.1,10.2c-13.2,1.6-24.7-6.3-35.9-14
		c-3.1-2.1-6.3-4.4-9.4-6.3c-34-20.9-83.5-17.7-126.2,8.1c-33.3,20.1-59.7,50.1-85.3,79c-3.7,4.2-7.3,8.3-11,12.4
		c-6.7,7.4-13.4,14.3-22.3,16.3c-8.6,1.9-17.2-1.2-25.5-4.2c-2.2-0.8-4.4-1.6-6.6-2.3c-31.6-10.1-63.1-0.7-96.5,9.3
		c-23.5,7-47.7,14.2-71.9,14c-12.7-0.1-25.4-2.4-37.8-4.5c-15.1-2.6-30.7-5.4-46.1-4.2c-13.4,1-26.7,4.9-39.5,8.7
		c-14.1,4.2-28.7,8.5-43.6,8.9c-16.4,0.5-33.4-3.6-49.9-7.5c-28.3-6.8-55.1-13.1-77.8,2C610.7,877.7,595.6,882.3,581.5,882.3z"/>
</g>
</svg>
