<?xml version="1.0" encoding="utf-8"?>
<!-- Generator: Adobe Illustrator 23.0.2, SVG Export Plug-In . SVG Version: 6.00 Build 0)  -->
<svg version="1.1" id="Capa_1" xmlns="http://www.w3.org/2000/svg" xmlns:xlink="http://www.w3.org/1999/xlink" x="0px" y="0px"
	 viewBox="0 0 107 100" style="enable-background:new 0 0 107 100;" xml:space="preserve">
<style type="text/css">
	.st0{fill:none;stroke:#F9F4F2;stroke-width:3;stroke-miterlimit:10;}
	.st1{fill:#F9F4F2;}
</style>
<path class="st0" d="M44.4,18.4c-9.2,2.8-16.1,8.9-21.4,17c-2.8,4.1-4.7,10.4-5.4,15.2c-0.9,7.9,3.9,15.2,9.8,20.6
	c11.3,10.4,28.7,15.6,42,8.1c8.8-4.9,14-14.5,16.8-24.1c1.3-4.5,2.2-9.1,1.6-13.7C85.7,24.6,59.2,13.9,44.4,18.4z"/>
<path class="st1" d="M69,49.4v-0.2c-0.1-1.8-0.8-3.5-1.8-5C63.7,38.6,53.6,31,47.9,26.9c-1.7-1.3-4.4-1.1-5.9,0.3s-1.4,3.6,0.3,4.8
	c4.9,3.6,14.3,10.5,17.3,15.3c0.5,0.6,0.8,1.4,0.9,2.1c-0.1,0.9-0.6,1.6-1.3,2.3c-3.5,3.6-7.7,6.6-12.4,9.1c-2.1,1.3-4.3,2.6-6.5,4
	c-1.7,1.2-1.9,3.4-0.4,4.8s4,1.6,5.7,0.5c1.9-1.3,4.1-2.6,6.1-3.8C57.2,63.4,62,59.8,66,55.7C67.8,53.9,68.8,51.7,69,49.4z"/>
<rect x="140.5" y="-250.5" class="st1" width="359.5" height="642.5"/>
</svg>
