<?xml version="1.0" encoding="utf-8"?>
<!-- Generator: Adobe Illustrator 23.0.2, SVG Export Plug-In . SVG Version: 6.00 Build 0)  -->
<svg version="1.1" id="Capa_1" xmlns="http://www.w3.org/2000/svg" xmlns:xlink="http://www.w3.org/1999/xlink" x="0px" y="0px"
	 viewBox="0 0 114.5 229" style="enable-background:new 0 0 114.5 229;" xml:space="preserve">
<style type="text/css">
	.st0{fill:none;}
	.st1{clip-path:url(#SVGID_2_);}
	.st2{fill:#F9F4F2;}
	.st3{fill:none;stroke:#F9F4F2;stroke-miterlimit:10;}
	.st4{fill:none;stroke:#F9F4F2;stroke-width:0.5;stroke-miterlimit:10;}
	.st5{fill:#FFFFFF;}
</style>
<image style="overflow:visible;" width="720" height="900" xlink:href="A638DB59.jpg"  transform="matrix(0.4337 0 0 0.4337 -649.6274 -49.1762)">
</image>
<rect x="-710.5" y="-248" class="st0" width="166" height="194"/>
<g>
	<defs>
		<rect id="SVGID_1_" x="159.9" y="40.9" width="114.5" height="229"/>
	</defs>
	<clipPath id="SVGID_2_">
		<use xlink:href="#SVGID_1_"  style="overflow:visible;"/>
	</clipPath>
	<g class="st1">
		<g>
			<path class="st2" d="M169.4,71.1c-0.7,0-1.5,0-2.2,0v-0.7c16.6,0.2,31.1-1.6,46.6-3.4c24-2.9,48.8-5.8,84.1-2.1
				c24.2,2.6,48.9,0.5,72.9-1.5l0.9-0.1c3.6-0.3,7.4-0.7,11-1c8.1-0.8,16.5-1.6,24.8-1.8c17.7-0.5,35.4,1.7,52.6,3.9
				c17.6,2.1,35.7,4.4,53.6,3.8c8.2-0.2,16.5-1.2,24.5-2c6.2-0.7,12.6-1.3,19-1.7c18.6-1.2,37.6,0.1,55.9,1.2
				c8.1,0.5,16.4,1.1,24.6,1.4c25.2,1,47.8-0.5,69.7-1.9c36.4-2.4,74.1-4.8,123.7,4.2l-0.1,0.6c-49.7-9-87.3-6.5-123.7-4.2
				c-21.9,1.4-44.6,2.9-69.8,1.9c-8.2-0.3-16.6-0.8-24.6-1.4c-18.3-1.2-37.3-2.4-55.9-1.2c-6.4,0.4-12.8,1.1-19,1.7
				c-8,0.8-16.3,1.7-24.6,2c-18,0.6-36.1-1.6-53.7-3.8c-17.2-2.1-35-4.3-52.6-3.9c-8.2,0.2-16.7,1-24.7,1.8c-3.6,0.3-7.3,0.7-11,1
				l-0.9,0.1c-24,2-48.8,4-73,1.5c-35.2-3.7-60-0.8-83.9,2.1C199,69.5,185,71.1,169.4,71.1z"/>
		</g>
		<g>
			<path class="st2" d="M824,76.4c-8.7,0-18.2-1.7-28.1-3.6c-8.6-1.6-17.4-3.2-25.9-3.7c-14.6-0.7-30.3,0.2-47.8,2.8
				c-23.1,3.5-46.9,2.5-70,1.5c-2.7-0.1-5.4-0.2-8.2-0.3c-45.2-1.8-91-1.6-136.1,0.6c-1.2,0.1-2.8,0.2-4.7,0.3
				c-9.6,0.7-27.3,2.1-51.6-1.3c-31-4.5-58.3-5.9-85.9-4.8c-5.9,0.2-12.8,0.8-20,1.5c-16.7,1.5-35.5,3.1-49.3,0.8
				c-27.6-4.5-49.9-1.3-71.5,1.8c-18.1,2.6-36.8,5.2-58,3.1l0.1-0.6c21.1,2.1,38.9-0.5,57.8-3.1c21.7-3.1,44.1-6.3,71.7-1.8
				c13.8,2.2,32.6,0.6,49.2-0.8c7.2-0.7,14-1.2,20-1.5c27.6-1.2,54.9,0.3,86,4.8c24.2,3.5,41.9,2.1,51.5,1.3
				c1.8-0.2,3.5-0.2,4.7-0.3c45.2-2.2,91-2.4,136.2-0.6c2.7,0.1,5.4,0.2,8.2,0.3c23,1,46.8,2,69.9-1.5c17.6-2.6,33.2-3.5,47.8-2.8
				c8.5,0.4,17.4,2.1,26,3.7c12.6,2.4,24.6,4.6,35.2,3.1l0.1,0.6C828.9,76.3,826.5,76.4,824,76.4z"/>
		</g>
		<g>
			<path class="st2" d="M823.4,58c-8.8,0-18.5-1.7-28.5-3.5c-8.6-1.5-17.4-3.1-25.7-3.5c-15.2-0.7-31.3-1.3-47.8,1.2
				c-30.9,4.6-56.9,4.7-79.8,0.3c-31.1-6-62.9-2.8-93.6,0.4c-13.4,1.4-27.1,2.8-40.8,3.5c-8.9,0.4-28.1,0.6-56.3-3.5
				c-22.9-3.3-44.7-2.1-67.8-0.7c-5.9,0.3-12,0.7-18.1,0.9c-4.5,0.2-9.3,0.5-14.4,0.8c-18.5,1.1-39.4,2.4-54.8-0.1
				c-27.9-4.5-50.4-2.2-72.2,0c-17.9,1.8-36.4,3.7-57.3,1.6l0.1-0.6c20.9,2.1,39.4,0.2,57.2-1.6c21.9-2.2,44.4-4.5,72.4,0
				c15.3,2.5,36.2,1.2,54.7,0.1c5.2-0.3,10.1-0.6,14.4-0.8c6.1-0.2,12.1-0.6,18.1-0.9c23.1-1.3,45-2.5,67.9,0.7
				c28,4,47.2,3.9,56.1,3.5c13.7-0.7,27.5-2.1,40.8-3.5c30.8-3.1,62.6-6.4,93.8-0.4c22.8,4.5,48.8,4.4,79.6-0.3
				c16.5-2.5,32.7-2,47.8-1.2c8.4,0.4,17.2,2,25.8,3.5c13,2.3,25.2,4.5,36,3l0.1,0.6C828.6,57.9,826.1,58,823.4,58z"/>
		</g>
		<g>
			<path class="st2" d="M479.9,83.4c-4.5,0-8.9-0.2-13.4-0.7c-5.6-0.6-11.2-1.6-16.7-2.6c-5-0.9-10.3-1.9-15.5-2.6
				c-20.4-2.4-39.8-1.3-60.3-0.2c-7.8,0.4-15.8,0.8-23.8,1.1c-9.3,0.2-21.3-0.6-34-1.5c-13.3-0.9-27-1.9-40.3-1.8
				c-18.3,0.1-36.9,1.6-54.8,3.2c-19.4,1.6-37.7,3.3-54.1,2.8v-0.7c16.4,0.5,34.7-1.1,54-2.7c17.9-1.6,36.5-3.1,54.8-3.2
				c13.3,0,27.1,0.9,40.3,1.8c12.7,0.9,24.7,1.7,34,1.5c8-0.2,16-0.7,23.8-1.1c20.5-1.2,39.9-2.2,60.4,0.2
				c5.2,0.6,10.5,1.6,15.5,2.6c5.4,1,11.1,2.1,16.7,2.6c15.9,1.7,32.2-0.2,47.8-2c10.4-1.2,21.2-2.5,31.8-2.6
				c11.3-0.2,22.8,0.7,33.8,1.6c5.4,0.4,10.9,0.9,16.3,1.2c29.1,1.7,58.7-0.3,87.4-2.3c35.6-2.5,72.3-4.9,108.2-0.3
				c2.9,0.4,5.8,0.8,8.7,1.2c9.7,1.6,19.8,3.1,29.7,1.2l0.1,0.6c-10,1.9-20.1,0.3-29.9-1.2c-2.8-0.4-5.8-0.9-8.6-1.2
				c-35.8-4.6-72.5-2.1-108,0.3c-28.7,2-58.4,4-87.5,2.3c-5.4-0.3-11-0.8-16.3-1.2c-11.1-0.9-22.5-1.9-33.7-1.6
				c-10.6,0.2-21.3,1.4-31.7,2.6C503.2,82,491.5,83.4,479.9,83.4z"/>
		</g>
		<g>
			<path class="st2" d="M480.7,51.3c-4.5,0-8.9-0.2-13.4-0.7c-5.6-0.6-11.2-1.6-16.7-2.6c-5-0.9-10.3-1.9-15.5-2.6
				c-18.7-2.2-36.5-0.7-55.4,0.7c-9.3,0.7-19,1.5-28.6,1.8c-9.2,0.2-21-0.7-33.5-1.8c-13.4-1.2-27.3-2.3-40.8-2.3
				c-18.1,0-36.5,1.4-54.2,2.8c-19.6,1.5-38.1,2.9-54.7,2.4v-0.7c16.6,0.5,35.1-0.9,54.6-2.4c17.7-1.3,36.1-2.7,54.2-2.8
				c13.5-0.1,27.4,1.2,40.8,2.3c12.5,1.1,24.3,2.1,33.5,1.8c9.7-0.2,19.3-1.1,28.6-1.8c18.1-1.5,36.7-3,55.5-0.7
				c5.2,0.6,10.5,1.6,15.5,2.6c5.4,1,11.1,2.1,16.7,2.6c15.9,1.7,32.2-0.2,47.8-2c10.4-1.2,21.2-2.5,31.8-2.6
				c4.7-0.1,11.5-0.8,19.5-1.7c20.6-2.3,48.9-5.4,71.4-0.7c23.6,4.9,39,3.1,56.8,0.8c21.4-2.6,47.9-5.9,98,1.9
				c2.9,0.4,5.8,1,8.6,1.5c9.8,1.8,19.9,3.7,29.8,1.8l0.1,0.6c-10,1.9-20.1,0-30-1.8c-2.8-0.5-5.7-1.1-8.5-1.5
				c-50-7.8-76.5-4.5-97.8-1.9c-17.9,2.2-33.4,4.1-57.1-0.8c-22.4-4.7-50.7-1.6-71.3,0.7c-7.9,0.9-14.8,1.6-19.6,1.7
				c-10.6,0.2-21.3,1.4-31.7,2.6C504,49.9,492.3,51.3,480.7,51.3z"/>
		</g>
		<g>
			<path class="st2" d="M485.9,92.7c-0.1,0-0.2,0-0.2,0c-6.9,0-13.9-1.1-20.7-2.1c-2.6-0.4-5.4-0.8-8.1-1.2
				c-5.2-0.7-10.8-1.9-16.7-3.1c-8.4-1.8-17.2-3.7-24.7-3.9c-20.9-0.4-39.6,0.7-57.7,1.6c-18.1,1-36.9,2.1-57.7,1.6
				c-8.4-0.2-17.1-0.7-26.2-1.2c-19.2-1.2-39.1-2.3-56.8-0.2c-2.5,0.2-5.1,0.7-7.8,1c-13.4,1.7-30.2,3.9-41.9,2.1l0.1-0.6
				c11.6,1.6,28.4-0.4,41.7-2.1c2.7-0.3,5.4-0.7,7.8-1c17.8-2.1,37.8-0.9,57,0.2c9.2,0.6,17.8,1.1,26.2,1.2
				c20.9,0.4,39.6-0.7,57.7-1.6c18.1-1,36.9-2.1,57.7-1.6c7.6,0.2,16.3,2.1,24.8,3.9c5.9,1.3,11.5,2.5,16.7,3.1
				c2.7,0.3,5.4,0.7,8.1,1.2c6.8,1,13.7,2,20.6,2c7.8,0,15.8-1.2,23.4-2.5c3.4-0.5,6.8-1.1,10.2-1.6c17.6-2.2,35.6-1.7,53-1.2
				l90.2,2.7c11.8,0.3,23.9,0.7,35.7-1.3c3.6-0.7,7.3-1.5,10.8-2.4c4.3-1.1,8.8-2.1,13.3-2.7c19.2-2.7,40.6-0.7,61.1,1.4
				c17.6,1.7,34.2,3.4,46.8,1.6l0.1,0.6c-12.7,1.9-29.4,0.2-46.9-1.6c-20.5-2.1-41.8-4.2-61-1.4c-4.5,0.7-8.9,1.7-13.2,2.7
				c-3.5,0.8-7.2,1.7-10.8,2.4c-11.9,2.1-24.1,1.7-35.9,1.3l-90.2-2.7c-17.4-0.5-35.4-1.1-53,1.2c-3.4,0.4-6.8,1-10.2,1.5
				C501.7,91.4,493.8,92.7,485.9,92.7z"/>
		</g>
		<g>
			<path class="st2" d="M486.5,100.3c-14.7,0-29.5-1.6-44-3.1c-1.8-0.2-3.6-0.4-5.4-0.6c-5.5-0.6-11.2-1.8-16.7-3
				c-7.3-1.6-14.9-3.2-22.4-3.4c-14.4-0.3-28.1,1.2-41.4,2.6c-12.2,1.2-24.8,2.6-38.1,2.6h-0.1c-7.5,0-16.4-1-25-1.9
				c-4-0.4-7.6-0.8-11.1-1.2c-19.6-1.6-37-0.3-55.6,1.1c-18,1.4-36.5,2.8-59.6,1.8v-0.6c23,1,41.6-0.5,59.6-1.8
				c18.6-1.4,36.1-2.8,55.7-1.1c3.5,0.3,7.2,0.7,11.1,1.2c8.6,0.9,17.4,1.9,24.9,1.9h0.1c13.3,0,25.8-1.3,38-2.6
				c13.3-1.4,27-2.8,41.5-2.6c7.5,0.2,15.2,1.8,22.5,3.4c5.4,1.2,11.1,2.4,16.6,3c1.8,0.2,3.6,0.4,5.4,0.6
				c22.2,2.4,45.1,4.9,67.2,1.6c31.1-4.7,61.3-3.5,90.5-2.3c14.6,0.6,29.7,1.2,44.7,1.1c23.9-0.2,48.7-0.4,72.9-2.7
				c2.1-0.2,4.1-0.4,6.3-0.6c8.2-0.8,16.7-1.7,25.2-1.6c6.5,0.1,13.2,0.8,19.6,1.5c4,0.4,8.2,0.9,12.3,1.2l1.4,0.1
				c15.8,1.2,32,2.3,47.7-1.2l0.2,0.6c-15.8,3.5-32.1,2.3-47.8,1.2l-1.4-0.1c-4.1-0.3-8.2-0.7-12.3-1.2c-6.4-0.7-13-1.4-19.6-1.5
				c-8.4-0.2-16.9,0.7-25.2,1.6c-2.1,0.2-4.1,0.4-6.3,0.6c-24.3,2.3-49,2.5-72.9,2.7c-15,0.2-30.1-0.5-44.7-1.1
				c-29.2-1.2-59.3-2.4-90.4,2.3C502.2,99.8,494.4,100.3,486.5,100.3z"/>
		</g>
		<g>
			<path class="st2" d="M482.3,109.9c-6.4,0-12.9-0.4-19.2-1.3c-4-0.6-8.2-1.4-12.2-2.2c-8.6-1.7-17.4-3.5-26.2-3
				c-2.6,0.2-5.4,0.5-7.9,0.8c-2.9,0.4-5.9,0.7-8.8,0.9c-7.8,0.3-15.7-1.3-23.2-2.9c-7.3-1.6-14.9-3.1-22.4-3
				c-9.2,0.2-18.1,1.6-26.8,2.8c-4.4,0.7-8.9,1.3-13.4,1.8c-10.3,1.2-20.9-0.2-31-1.6c-2.4-0.3-4.9-0.7-7.4-1
				c-21-2.5-44.3-1.1-66.8,0.3c-18.1,1.1-35.1,2.1-49.5,1.1l0.1-0.6c14.4,1.1,31.3,0.1,49.4-1.1c22.6-1.4,46-2.8,67-0.3
				c2.5,0.3,4.9,0.7,7.4,1c10.1,1.3,20.6,2.7,30.9,1.6c4.5-0.5,9-1.2,13.4-1.8c8.7-1.2,17.7-2.6,26.9-2.8c7.6-0.2,15.3,1.4,22.6,3
				c7.5,1.6,15.3,3.2,23.1,2.9c3-0.1,5.9-0.5,8.7-0.9c2.6-0.3,5.3-0.7,8-0.8c8.9-0.5,17.8,1.3,26.4,3c4,0.8,8.1,1.6,12.1,2.2
				c20.4,3,41.2,0.2,61.4-2.3c18-2.3,36.6-4.7,54.9-3.1c4.8,0.4,9.7,1.1,14.4,1.8c6.7,1,13.6,2,20.5,2.1c9,0.2,18.1-0.9,26.9-2
				c4.8-0.6,9.8-1.2,14.7-1.6c6-0.5,12.2-0.2,18.1,0.1c6.9,0.3,14.2,0.7,21.2-0.2c31.3-4,60.9-2.4,84.7-1.2
				c21.7,1.2,38.8,2.1,49.8-1.3l0.2,0.6c-11.1,3.5-28.3,2.6-50,1.3c-23.8-1.3-53.4-2.9-84.6,1.2c-7,0.9-14.3,0.6-21.3,0.2
				c-5.9-0.2-12.1-0.6-18.1-0.1c-4.9,0.4-9.9,1-14.7,1.6c-8.8,1.1-18,2.2-27.1,2c-6.9-0.2-13.9-1.2-20.6-2.1
				c-4.7-0.7-9.6-1.3-14.4-1.7c-18.2-1.6-36.8,0.8-54.8,3.1C510.7,108.1,496.5,109.9,482.3,109.9z"/>
		</g>
		<g>
			<path class="st2" d="M831,64.1c-12.6-0.7-23.7-1.9-34.5-2.9c-30-3-56-5.5-99.5,0.1c-7.2,0.9-14.5,0.8-21.7,0.7
				c-5.8-0.1-11.8-0.2-17.7,0.3c-8,0.7-16.2-0.6-24-1.8c-5.8-0.9-11.8-1.8-17.7-2c-4.9-0.2-9.9,0.1-14.7,0.2
				c-6.6,0.2-13.4,0.6-20.2-0.1c-18-1.6-36.3,0-54,1.6c-20.5,1.7-41.7,3.5-62.3,0.6c-4-0.6-8.2-1.4-12.2-2.2
				c-8.6-1.7-17.4-3.5-26.2-3c-2.6,0.2-5.4,0.5-7.9,0.8c-2.9,0.4-5.9,0.7-8.8,0.9l-5.4,0.2c-13.7,0.5-26.7,1-40.3,1.3l-2.5,0.1
				c-12.8,0.3-24.9,0.6-37.7,2.1c-10.3,1.2-20.9-0.2-31-1.6c-2.4-0.3-4.9-0.7-7.4-1c-20.8-2.5-43.9-0.3-66.2,1.6
				c-18.3,1.6-35.6,3.3-50.2,2.1l0.1-0.6c14.5,1.2,31.8-0.5,50.1-2.1c22.4-2.1,45.5-4.2,66.3-1.6c2.5,0.3,4.9,0.7,7.4,1
				c10.1,1.3,20.6,2.7,30.9,1.6c12.8-1.5,24.9-1.7,37.8-2.1l2.5-0.1c13.6-0.3,26.6-0.8,40.3-1.3l5.4-0.2c3-0.1,5.9-0.5,8.7-0.9
				c2.6-0.3,5.3-0.7,8-0.8c8.9-0.5,17.8,1.3,26.4,3c4,0.8,8.1,1.6,12.1,2.2c20.6,3,41.7,1.2,62.2-0.6c17.7-1.5,36.1-3.1,54.2-1.6
				c6.8,0.6,13.5,0.3,20.1,0.1c4.8-0.2,9.8-0.4,14.8-0.2c5.9,0.2,12,1.1,17.8,2c7.8,1.2,15.9,2.5,23.8,1.8
				c5.9-0.5,11.9-0.4,17.7-0.3c7.1,0.1,14.4,0.2,21.6-0.7c43.6-5.5,69.5-3.1,99.6-0.1c10.7,1.1,21.9,2.1,34.5,2.9L831,64.1z"/>
		</g>
		<g>
			<path class="st2" d="M435.9,117.8c-3.9,0-7.8-0.1-11.6-0.3c-8.1-0.5-16.3-2.3-24.2-4.1c-11.5-2.6-23.5-5.3-35.2-3.8
				c-11.5,1.4-22.6,1.6-35.7,1.5c-2.3,0-4.5,0-6.8,0c-8.4,0-16.3,0.1-24.6-1.6c-18-3.5-35.3-4.8-51.4-3.8l-3,0.2
				c-25.3,1.6-51.5,3.3-76.2,7.3l-0.2-0.7c24.7-4,51-5.6,76.3-7.3l3-0.2c16.3-1.1,33.6,0.2,51.6,3.8c8.2,1.6,16.1,1.6,24.5,1.6
				c2.2,0,4.5,0,6.8,0c13.1,0.2,24.2,0,35.6-1.5c11.8-1.5,23.8,1.2,35.4,3.8c7.9,1.7,16.1,3.6,24.1,4.1c10.8,0.7,21.4,0.2,31.5-0.3
				c11.5-0.6,23.3-1.4,34.6-2.1c36.1-2.4,73.3-4.9,109.8-2c2.8,0.2,5.5,0.5,8.3,0.7c10.8,1,21.9,2,32.9,1.1
				c7.3-0.6,14.4-2.1,21.4-3.4c7.3-1.4,14.7-2.9,22.2-3.5c12.8-1,25.7,0.7,38.3,2.3c5.4,0.7,11.1,1.4,16.5,1.9
				c29.7,2.7,59.8-0.7,88.9-4.1l0.1,0.6c-29.1,3.4-59.2,6.8-89,4.1c-5.5-0.5-11.1-1.2-16.6-1.9c-12.5-1.6-25.5-3.3-38.2-2.3
				c-7.4,0.6-14.9,2.1-22.1,3.5c-7,1.4-14.3,2.8-21.5,3.4c-11,0.9-22.2-0.1-33-1.1c-2.8-0.2-5.5-0.5-8.3-0.7
				c-36.5-2.8-73.8-0.3-109.7,2c-11.4,0.7-23.1,1.6-34.6,2.1C449.4,117.5,442.7,117.8,435.9,117.8z"/>
		</g>
		<g>
			<path class="st2" d="M644.9,124.6c-8.2,0-16.6-1.2-24.6-2.4c-2.7-0.4-5.6-0.8-8.4-1.2c-32.8-4.2-66.3-1.7-98.9,0.6
				c-33.3,2.4-67.7,4.9-101.2,0.3c-3.9-0.5-7.8-1.2-11.5-1.7c-10.1-1.6-20.5-3.3-30.8-3.2c-7.7,0.1-15.4,1.2-23,2.2
				c-7.8,1.1-15.9,2.2-24,2.2h-0.1c-9.2,0-18.5-1.5-27.4-2.9c-7.6-1.2-15.4-2.5-23.2-2.8c-36.9-1.6-64.5-1.6-104.5,4l-0.1-0.6
				c40.1-5.4,67.7-5.6,104.7-4c7.8,0.3,15.7,1.6,23.3,2.8c8.9,1.4,18.1,2.9,27.3,2.9h0.1c8,0,16.1-1.2,23.9-2.2
				c7.5-1.1,15.3-2.1,23.1-2.2c10.4-0.1,20.8,1.6,30.9,3.2c3.8,0.6,7.7,1.2,11.5,1.7c33.4,4.6,67.8,2.1,101.1-0.3
				c32.6-2.4,66.2-4.8,99-0.6c2.8,0.3,5.7,0.7,8.4,1.2c9.5,1.4,19.4,2.8,29,2.2c7.4-0.4,14.8-2.1,21.9-3.5c4.4-0.9,8.9-1.9,13.4-2.6
				c17.3-2.7,35.1-1.6,52.5-0.4c5.4,0.3,11,0.7,16.5,1c25,1.1,50.2-0.3,74.8-4.2l0.1,0.6c-24.7,3.9-49.9,5.3-74.9,4.2
				c-5.4-0.2-11.1-0.6-16.5-1c-17.2-1.2-35.1-2.3-52.3,0.4c-4.5,0.7-9,1.6-13.3,2.6c-7.2,1.6-14.6,3.1-22,3.5
				C647.9,124.5,646.4,124.6,644.9,124.6z"/>
		</g>
		<g>
			<path class="st2" d="M463.6,131.1c-19.3,0-38.4-0.4-49-1.5c-25.9-2.7-51.9-2.7-77-2.7c-28.5,0-57.8,0-87.2-4
				c-22.1-3-33.1-1.7-45.7-0.2c-9.5,1.1-20.3,2.4-37.6,1.8v-0.7c17.2,0.6,28-0.7,37.5-1.8c12.7-1.5,23.7-2.7,45.9,0.2
				c29.4,4,58.7,4,87.1,3.9c25.1,0,51.1,0,77.1,2.7c22.6,2.4,83.2,1.4,103.5,0.6c17.9-0.7,32.3-1.5,45.5-2.6
				c1.6-0.2,3.1-0.2,4.7-0.4c10.6-0.9,21.7-1.8,32.6-1.2c4.9,0.3,9.7,0.9,14.5,1.5c4.8,0.6,9.7,1.2,14.5,1.5
				c12.7,0.7,42.8-2.5,54.3-4.5c26.7-4.5,51.4-2.9,77.5-1.2c21.1,1.4,43,2.9,66.7,0.9l0.1,0.6c-23.8,2-45.7,0.5-66.8-0.9
				c-26.1-1.7-50.7-3.4-77.3,1.2c-11.5,2-41.7,5.2-54.4,4.5c-4.9-0.3-9.8-0.9-14.6-1.5c-4.7-0.6-9.7-1.2-14.4-1.5
				c-10.8-0.7-21.9,0.2-32.5,1.2c-1.6,0.2-3.1,0.2-4.7,0.4c-13.1,1.1-27.6,1.8-45.5,2.6C507.4,130.6,485.3,131.1,463.6,131.1z"/>
		</g>
		<g>
			<path class="st2" d="M470.4,139.2c-2.6,0-5-0.1-7-0.4c-3.1-0.4-7.1-0.9-11.3-1.3c-5.6-0.6-11.3-1.2-15.3-1.9
				c-16.1-2.8-32.4-2.1-48.3-1.5c-8.4,0.3-17.1,0.7-25.7,0.6c-2.9-0.1-5.7-0.1-8.5-0.2c-17.2-0.2-33.5-0.5-50.7-2.5
				c-8.6-1-19.7-0.7-31.5-0.5c-13.4,0.3-27.3,0.7-37.3-1.1c-13.5-2.3-24-0.8-34.2,0.6c-10.6,1.5-20.6,2.8-33.5,0.1l0.2-0.6
				c12.8,2.7,22.8,1.3,33.3-0.1c10.1-1.4,20.7-2.9,34.3-0.6c9.9,1.6,23.8,1.4,37.1,1.1c11.8-0.2,22.9-0.5,31.6,0.5
				c17.2,2,33.4,2.2,50.7,2.5c2.8,0,5.7,0.1,8.5,0.2c8.6,0.2,17.2-0.2,25.7-0.6c15.8-0.7,32.3-1.3,48.4,1.5c4,0.7,9.7,1.3,15.3,1.9
				c4.3,0.5,8.2,0.9,11.3,1.3c8.3,1.2,23.6-0.6,32.8-1.6l0.9-0.1c46.4-5.4,79.2-4.2,123.8-1.6l3.3,0.2c9.1,0.6,18.5,1.2,27.7,0.3
				c6.8-0.6,13.6-1.9,20.2-3.2c6.3-1.2,12.8-2.6,19.3-3.1c12.2-1.2,24.7-0.1,36.8,1c4.5,0.4,9.3,0.8,13.9,1.2
				c28.8,1.8,57.9-1.2,86-4.1l0.1,0.6c-28.2,2.9-57.3,5.9-86.2,4.1c-4.6-0.3-9.4-0.7-13.9-1.2c-12-1.1-24.5-2.1-36.6-1
				c-6.4,0.7-13,1.9-19.3,3.1c-6.6,1.3-13.4,2.6-20.3,3.2c-9.2,0.8-18.7,0.2-27.8-0.3l-3.3-0.2c-44.6-2.6-77.3-3.9-123.7,1.6
				l-0.9,0.1C489.3,137.9,478.8,139.2,470.4,139.2z"/>
		</g>
		<g>
			<path class="st2" d="M181.4,166c-4.5,0-9.2-0.4-14.4-1.5l0.2-0.6c12.8,2.7,22.5,1.2,32.8-0.3c10-1.5,20.3-3.1,34-0.7
				c18.8,3.2,49.7,2.4,70.3-1.7c16.8-3.4,34.2-3,50.9-2.6c3.1,0.1,6,0.2,9.1,0.2c10.6,0.2,22.9,1.4,37,2.7c19,1.8,40.5,3.9,62.9,4
				c8.7,0,24.9-0.7,33.7-1.7c46.4-5.4,79.2-4.2,123.8-1.6l3.3,0.2c9.1,0.6,18.6,1.2,27.7,0.3c8.1-0.7,16.2-1.6,24-2.4
				c5-0.5,10.3-1.1,15.5-1.6c12.2-1.2,24.7-0.1,36.8,1c4.5,0.4,9.3,0.8,13.9,1.2c28.8,1.8,57.9-1.2,86-4.1l0.1,0.6
				c-28.2,2.9-57.3,5.9-86.2,4.1c-4.6-0.3-9.4-0.7-13.9-1.2c-12-1.1-24.5-2.1-36.6-1c-5.2,0.5-10.5,1.1-15.5,1.6
				c-7.8,0.8-15.9,1.6-24,2.4c-9.2,0.8-18.7,0.2-27.8-0.3l-3.3-0.2c-44.6-2.6-77.3-3.9-123.7,1.6c-8.7,1-25,1.7-33.7,1.7
				c-22.4-0.1-44-2.1-62.9-4c-14.2-1.4-26.5-2.6-37-2.7c-3.1-0.1-6-0.2-9.1-0.2c-16.7-0.4-34-0.8-50.7,2.6
				c-20.7,4.2-51.6,4.9-70.5,1.7c-13.5-2.3-23.8-0.7-33.7,0.7C193.9,165.1,187.9,166,181.4,166z"/>
		</g>
		<g>
			<path class="st2" d="M526.9,146.1c-7.6,0-15.1-0.7-22.5-1.2c-6.8-0.6-13.9-1.2-20.8-1.2c-8.7-0.1-17.4,0.6-25.9,1.2
				c-9.5,0.7-19.2,1.5-29,1.2c-8.2-0.2-16.4-1.5-24.3-2.6c-11.3-1.6-23-3.3-34.6-2.4c-22.5,1.8-44.5,0.1-60.6-1.2
				c-6.8-0.5-12-0.9-15.8-1c-4.3,0-9.6,0.3-15.1,0.7c-13,0.9-27.6,1.9-40.3-1c-27.1-6.2-61,0.1-70.8,2.1l-0.2-0.6
				c9.8-2.1,43.8-8.3,71.1-2.1c12.5,2.8,27.1,1.8,40,1c5.5-0.4,10.8-0.7,15.1-0.7c3.8,0,9.2,0.4,15.9,1c16.1,1.2,38.1,3,60.6,1.2
				c11.6-0.9,23.3,0.7,34.7,2.4c7.9,1.2,16.2,2.3,24.3,2.6c9.7,0.3,19.4-0.4,28.9-1.2c8.5-0.7,17.2-1.3,25.9-1.2
				c6.9,0.1,14,0.7,20.9,1.2c11.1,0.9,22.4,1.9,33.7,0.7c5.5-0.6,11.1-1.8,16.5-3.1c3.6-0.8,7.3-1.6,11.1-2.3
				c18.3-3.1,37.1-1.4,55.4,0.3c16.7,1.6,34,3.2,50.7,1.1c4.9-0.7,9.9-1.6,14.8-2.6c5.1-1,10.4-2.1,15.7-2.6
				c12.8-1.5,25.9-0.7,38.5,0c4.3,0.2,8.7,0.5,13.1,0.7c22.8,0.9,47.6,1.4,74.8-0.9l0.1,0.6c-27.2,2.3-52.1,1.8-74.9,0.9
				c-4.4-0.2-8.8-0.4-13.2-0.7c-12.6-0.7-25.7-1.6-38.4,0c-5.3,0.7-10.6,1.6-15.7,2.6c-4.8,0.9-9.8,1.9-14.8,2.6
				c-16.8,2.1-34.2,0.5-50.9-1.1c-18.2-1.7-37-3.5-55.3-0.3c-3.7,0.7-7.4,1.5-11,2.3c-5.4,1.2-11,2.5-16.6,3.1
				C534.4,146,530.6,146.1,526.9,146.1z"/>
		</g>
		<g>
			<path class="st2" d="M484,152.7c-21.3,0-42.7-1.7-63.6-3.4c-27.9-2.2-56.8-4.5-85.1-2.7c-6.4,0.4-13,1.1-19.2,1.6
				c-11.3,1.1-22.9,2.2-34.5,2.1c-12.4-0.1-25.4-1.3-37.9-2.5c-25.7-2.4-52.3-4.9-76.5,1.7l-0.2-0.6c24.3-6.6,50.9-4.1,76.6-1.7
				c12.5,1.2,25.6,2.4,37.9,2.5c11.5,0.1,23.1-1.1,34.4-2.1c6.3-0.6,12.8-1.2,19.2-1.6c28.4-1.8,57.3,0.5,85.2,2.7
				c25.8,2.1,52.6,4.2,78.8,3.1c11.8-0.5,23.8-1.7,35.5-2.9c17.2-1.7,35.1-3.5,52.6-3.1c8.5,0.2,17.1,0.9,25.3,1.6
				c11.5,1,23.5,1.9,35.2,1.6c11.9-0.4,23.8-2.1,35.3-3.9c10.1-1.5,20.7-3.1,31.1-3.6c15.9-0.9,32.3,0.3,48,1.6
				c22,1.7,44.8,3.5,66.8-0.8l0.1,0.6c-22,4.3-44.9,2.5-67,0.8c-15.8-1.2-32-2.5-47.9-1.6c-10.4,0.6-21,2.1-31.1,3.6
				c-11.5,1.7-23.5,3.5-35.4,3.9c-11.8,0.4-23.8-0.6-35.3-1.6c-8.3-0.7-16.9-1.4-25.3-1.6c-17.6-0.4-35.3,1.3-52.6,3.1
				c-11.6,1.2-23.7,2.3-35.5,2.9C494.2,152.6,489.1,152.7,484,152.7z"/>
		</g>
		<g>
			<path class="st2" d="M264.2,159c-9.8,0-19.3-0.6-29.9-1.2c-18.1-1.1-38.6-2.3-67.2-0.9v-0.7c28.6-1.4,49.2-0.2,67.2,0.9
				c14,0.8,26.1,1.6,39.5,1c7.9-0.3,15.9-1.6,23.7-2.9c4-0.7,8.2-1.3,12.3-1.9c33.2-4.3,66.3-1.6,94.3,1.7
				c39.4,4.6,72.6,2.6,104.7,0.7c14.8-0.9,30.1-1.8,46-2.1c9-0.2,18.2,0.4,27.2,1c8.9,0.6,18.2,1.2,27.1,1
				c34.7-0.7,70.7-1.3,105.8-4.9c2.1-0.2,4.1-0.4,6.1-0.7c12.4-1.3,25.2-2.7,37.8-1.8c6.3,0.5,12.5,1.2,18.5,1.9
				c17.4,2,33.8,4,52.1,0.2l0.1,0.6c-18.4,3.7-34.9,1.7-52.3-0.2c-5.9-0.7-12.1-1.4-18.4-1.9c-12.5-1-25.3,0.4-37.7,1.8
				c-2.1,0.2-4.1,0.4-6.1,0.7c-35.2,3.7-71.1,4.4-105.9,4.9c-9,0.2-18.2-0.4-27.2-1c-8.9-0.6-18.2-1.2-27.1-1
				c-15.8,0.3-31.2,1.2-46,2.1c-32.1,2-65.3,4-104.9-0.7c-28-3.3-61-6-94.1-1.7c-4.1,0.5-8.2,1.2-12.3,1.9
				c-7.8,1.2-15.8,2.6-23.8,2.9C270.6,159,267.4,159,264.2,159z"/>
		</g>
		<g>
			<path class="st2" d="M733.2,270.4c-9.9,0-20.6-0.5-32.6-1.8c-27.6-3-50.7-4.5-73.8-2.6c-3.6,0.3-7.4,0.7-11,1
				c-8.1,0.8-16.5,1.6-24.8,1.8c-17.6,0.5-34.4-1.5-50.6-3.5c-16.5-2-33.6-4-51.6-3.4c-8.5,0.2-18.3,1.2-27.9,2.1
				c-7,0.7-13.7,1.2-19.8,1.6c-18.6,1.2-37.6-0.1-55.9-1.2c-8.1-0.5-16.4-1.1-24.6-1.4c-26.4-1.1-52-0.1-76.7,0.8
				c-39.5,1.5-76.8,2.9-116.9-3.1l0.1-0.6c40,6,77.3,4.6,116.7,3.1c24.7-0.9,50.4-1.9,76.8-0.8c8.2,0.3,16.6,0.8,24.6,1.4
				c18.3,1.2,37.3,2.4,55.9,1.2c6.1-0.4,12.7-1,19.8-1.6c9.6-0.9,19.4-1.7,27.9-2.1c18-0.6,35.1,1.4,51.6,3.4
				c16.2,1.9,32.9,3.9,50.5,3.5c8.2-0.2,16.7-1,24.7-1.8c3.6-0.3,7.3-0.7,11.1-1c23.2-1.9,46.3-0.3,73.9,2.6
				c35.2,3.7,59.7,0.8,83.4-2c15.3-1.8,29.8-3.5,46.4-3.4v0.7c-16.6-0.2-31,1.6-46.3,3.4C768.5,268.4,752.5,270.4,733.2,270.4z"/>
		</g>
		<g>
			<path class="st2" d="M720.9,260.7c-13.1,0-26.6-0.9-39.7-1.8c-12.7-0.9-24.7-1.7-34-1.5c-8,0.2-16,0.7-23.8,1.1
				c-20.5,1.2-39.9,2.2-60.4-0.2c-5.2-0.6-10.5-1.6-15.5-2.6c-5.4-1-11.1-2.1-16.7-2.6c-15.9-1.7-32.2,0.2-47.8,2
				c-10.4,1.2-21.1,2.5-31.8,2.6c-11.3,0.2-22.8-0.7-33.8-1.6c-5.4-0.4-10.9-0.9-16.3-1.2c-29.1-1.7-58.7,0.3-87.4,2.3
				c-35.6,2.5-72.3,4.9-108.2,0.3c-2.9-0.4-5.8-0.8-8.7-1.2c-9.7-1.6-19.8-3.1-29.7-1.2l-0.1-0.6c10-1.9,20.1-0.3,29.9,1.2
				c2.8,0.4,5.8,0.9,8.6,1.2c35.8,4.6,72.5,2.1,108-0.3c28.7-2,58.4-4,87.5-2.3c5.4,0.3,11,0.8,16.3,1.2c11.1,0.9,22.5,1.9,33.7,1.6
				c10.6-0.2,21.3-1.4,31.7-2.6c15.8-1.8,32-3.7,48-2c5.6,0.6,11.2,1.6,16.7,2.6c5,0.9,10.3,1.9,15.4,2.6
				c20.4,2.4,39.8,1.3,60.3,0.2c7.8-0.4,15.8-0.8,23.8-1.1c9.3-0.2,21.3,0.6,34,1.5c13.3,0.9,26.9,1.9,40.3,1.8
				c18.4-0.1,36.9-1.8,54.8-3.5c19.1-1.8,37-3.5,53.3-3.1v0.7c-16.3-0.5-34.2,1.2-53.2,3.1c-17.9,1.7-36.4,3.5-54.9,3.5
				C721.3,260.7,721.1,260.7,720.9,260.7z"/>
		</g>
		<g>
			<path class="st2" d="M254.8,253.5c-13.4,0-27.3-1.4-40.8-2.7c-17.6-1.7-34.2-3.4-46.8-1.6l-0.1-0.6c12.7-1.9,29.4-0.2,46.9,1.6
				c20.5,2.1,41.8,4.2,61,1.4c4.5-0.7,8.9-1.7,13.2-2.7c3.5-0.8,7.2-1.7,10.8-2.4c11.9-2.1,24.1-1.7,35.9-1.4l90.1,2.7
				c17.4,0.5,35.4,1.1,53-1.2c3.4-0.4,6.8-1,10.2-1.5c7.6-1.2,15.5-2.5,23.3-2.5c0.1,0,0.2,0,0.2,0c6.9,0,13.9,1.1,20.7,2.1
				c2.6,0.4,5.4,0.8,8.1,1.2c5.2,0.7,10.8,1.9,16.7,3.1c8.4,1.8,17.2,3.7,24.7,3.9c20.9,0.4,39.6-0.7,57.7-1.6
				c18.1-1.1,36.9-2.1,57.7-1.6c8.4,0.2,17.1,0.7,26.2,1.2c19.2,1.2,39.1,2.3,56.8,0.2c4.7-0.6,10-1.8,15.5-3.2
				c12.1-3,24.6-6,34.3-2.3l-0.2,0.6c-9.5-3.6-21.9-0.6-33.9,2.4c-5.6,1.4-10.8,2.6-15.6,3.2c-17.8,2.1-37.8,0.9-57-0.2
				c-9.2-0.6-17.8-1.1-26.2-1.2c-20.9-0.4-39.6,0.7-57.7,1.6c-18.1,1.1-36.9,2.1-57.7,1.6c-7.6-0.2-16.3-2.1-24.8-3.9
				c-5.9-1.3-11.5-2.5-16.7-3.1c-2.7-0.3-5.4-0.7-8.1-1.2c-6.8-1-13.7-2-20.6-2c-7.9,0-15.8,1.2-23.4,2.5c-3.4,0.5-6.8,1.1-10.2,1.6
				c-17.6,2.2-35.6,1.7-53,1.2l-90.2-2.7c-11.8-0.3-23.9-0.7-35.7,1.3c-3.6,0.7-7.3,1.5-10.8,2.4c-4.3,1.1-8.8,2.1-13.3,2.7
				C268.6,253.1,261.8,253.5,254.8,253.5z"/>
		</g>
		<g>
			<path class="st2" d="M603.3,245.7c-1.2,0-2.6,0-3.8,0c-7.5-0.2-15.2-1.8-22.5-3.4c-5.4-1.2-11.1-2.4-16.6-3
				c-1.8-0.2-3.6-0.4-5.4-0.6c-22.2-2.4-45.1-4.9-67.2-1.6c-31.1,4.7-61.3,3.5-90.5,2.3c-14.6-0.6-29.7-1.2-44.7-1.1
				c-23.9,0.2-48.7,0.4-72.9,2.7c-2.1,0.2-4.1,0.4-6.2,0.6c-8.2,0.8-16.7,1.6-25.2,1.6c-6.5-0.1-13.2-0.8-19.6-1.5
				c-4-0.4-8.2-0.9-12.3-1.2l-1.4-0.1c-15.8-1.2-32-2.3-47.7,1.2l-0.2-0.6c15.8-3.5,32.1-2.3,47.8-1.2l1.4,0.1
				c4.1,0.3,8.2,0.7,12.3,1.2c6.4,0.7,13,1.4,19.6,1.5c8.4,0.2,16.9-0.7,25.2-1.6c2.1-0.2,4.1-0.4,6.3-0.6c24.3-2.3,49-2.5,72.9-2.7
				c15-0.2,30.1,0.5,44.7,1.1c29.2,1.2,59.3,2.4,90.4-2.3c22.3-3.4,45.2-0.8,67.4,1.6c1.8,0.2,3.6,0.4,5.4,0.6
				c5.5,0.6,11.2,1.8,16.7,3c7.3,1.6,14.9,3.2,22.4,3.4c14.4,0.2,28.1-1.2,41.4-2.6c12.2-1.2,24.8-2.6,38.1-2.6h0.1
				c7.5,0,16.4,1,25,1.9c4,0.4,7.6,0.8,11.1,1.2c19.3,1.6,36.5-0.1,54.6-2c18.1-1.9,36.8-3.8,60.1-2.8v0.7c-23.3-1-42,1-60.1,2.8
				c-18.1,1.9-35.4,3.6-54.8,2c-3.5-0.3-7.1-0.7-11.1-1.2c-8.6-0.9-17.5-1.9-24.9-1.9H679c-13.3,0-25.8,1.3-38,2.6
				C628.9,244.4,616.4,245.7,603.3,245.7z"/>
		</g>
		<g>
			<path class="st2" d="M634.2,236.6c-7.2,0-14.4-1.5-21.4-3c-7.5-1.6-15.3-3.2-23.1-2.9c-3,0.1-5.9,0.5-8.7,0.9
				c-2.6,0.3-5.3,0.7-8,0.8c-8.9,0.5-17.8-1.3-26.4-3c-4-0.8-8.1-1.6-12.1-2.2c-20.4-3-41.2-0.2-61.4,2.3c-18,2.3-36.6,4.7-54.9,3.1
				c-4.8-0.4-9.7-1.1-14.4-1.8c-6.7-1-13.6-2-20.5-2.1c-9-0.2-18.1,0.9-26.9,2c-4.8,0.6-9.8,1.2-14.7,1.6c-6,0.5-12.2,0.2-18.1-0.1
				c-6.9-0.3-14.2-0.7-21.2,0.2c-31.4,4-61.2,2.2-85.2,0.8c-21.7-1.2-38.9-2.3-49.7,1.1l-0.2-0.6c11.1-3.5,28.2-2.4,50-1.2
				c23.9,1.4,53.8,3.1,85.1-0.8c7-0.9,14.3-0.6,21.3-0.2c5.9,0.2,12.1,0.6,18.1,0.1c4.9-0.4,9.9-1,14.7-1.6c8.8-1.1,18-2.2,27.1-2
				c6.9,0.2,13.9,1.2,20.6,2.1c4.7,0.7,9.6,1.3,14.4,1.7c18.2,1.6,36.8-0.8,54.8-3.1c20.2-2.6,41.2-5.3,61.5-2.3
				c4,0.6,8.2,1.4,12.2,2.2c8.6,1.7,17.4,3.5,26.2,3c2.6-0.2,5.4-0.5,7.9-0.8c2.9-0.4,5.9-0.7,8.8-0.9c7.8-0.3,15.7,1.3,23.2,2.9
				c7.3,1.6,14.9,3.1,22.4,3c9.2-0.2,18.1-1.6,26.8-2.8c4.4-0.7,8.9-1.3,13.4-1.8c10.3-1.2,20.9,0.2,31,1.6c2.4,0.3,4.9,0.7,7.4,1
				c20.9,2.5,43.8,0.7,66-1c18.1-1.4,35.1-2.7,49.6-1.6l-0.1,0.6c-14.4-1.1-31.4,0.2-49.5,1.6c-22.2,1.7-45.2,3.5-66.1,1
				c-2.5-0.3-4.9-0.7-7.4-1c-10.1-1.3-20.6-2.7-30.9-1.6c-4.5,0.5-9,1.2-13.4,1.8c-8.7,1.2-17.7,2.6-26.9,2.8
				C635,236.6,634.6,236.6,634.2,236.6z"/>
		</g>
		<g>
			<path class="st2" d="M740.2,230.5c-13,0-26.6-1.4-40.5-4.1c-8.2-1.6-16.1-1.6-24.5-1.6c-2.2,0-4.5,0-6.8,0
				c-13.1-0.2-24.2,0-35.6,1.5c-11.8,1.5-23.8-1.2-35.4-3.8c-7.9-1.7-16.1-3.6-24.1-4.1c-10.8-0.7-21.4-0.2-31.5,0.3
				c-11.5,0.6-23.3,1.4-34.6,2.1c-36,2.4-73.3,4.9-109.8,2c-2.8-0.2-5.5-0.5-8.3-0.7c-10.8-1-21.9-2-32.9-1.1
				c-7.3,0.6-14.4,2.1-21.4,3.4c-7.3,1.4-14.7,2.9-22.2,3.5c-12.8,1-25.7-0.7-38.3-2.3c-5.4-0.7-11.1-1.4-16.5-1.9
				c-28.3-2.6-58,0.8-86.6,4.1l-3.8,0.4l-0.1-0.6l3.8-0.4c28.7-3.3,58.3-6.8,86.8-4.1c5.5,0.5,11.1,1.2,16.6,1.9
				c12.5,1.6,25.5,3.3,38.2,2.3c7.4-0.6,14.9-2.1,22.1-3.5c7-1.4,14.3-2.8,21.5-3.4c11-0.9,22.2,0.1,33,1.1c2.8,0.2,5.5,0.5,8.3,0.7
				c36.5,2.8,73.8,0.3,109.7-2c11.4-0.7,23.1-1.6,34.6-2.1c10.1-0.5,20.7-1,31.6-0.3c8.1,0.5,16.3,2.3,24.2,4.1
				c11.5,2.6,23.5,5.3,35.2,3.8c11.5-1.4,22.6-1.6,35.7-1.5c2.3,0,4.5,0,6.8,0c8.4,0,16.3-0.1,24.6,1.6c18,3.5,35.3,4.8,51.4,3.8
				l3-0.2c25.3-1.6,51.5-3.3,76.2-7.3l0.1,0.6c-24.7,4-50.9,5.6-76.3,7.3l-3,0.2C747.6,230.4,743.9,230.5,740.2,230.5z"/>
		</g>
		<g>
			<path class="st2" d="M167.2,222.4l-0.1-0.6c28.8-4.5,54.6-6.3,77-5.3c5.4,0.2,11.1,0.6,16.5,1c17.2,1.2,35.1,2.3,52.3-0.4
				c4.5-0.7,9-1.6,13.3-2.6c7.2-1.6,14.6-3.1,22-3.5c9.8-0.6,19.6,0.8,29.2,2.2c2.7,0.4,5.6,0.8,8.4,1.2c32.8,4.2,66.3,1.7,98.9-0.6
				c33.3-2.4,67.7-4.9,101.2-0.3c3.9,0.5,7.8,1.2,11.5,1.7c10.1,1.6,20.5,3.3,30.8,3.2c7.7-0.1,15.5-1.2,23-2.2
				c7.8-1.1,15.9-2.2,24.1-2.2c9.2,0,18.5,1.5,27.4,2.9c7.6,1.2,15.4,2.5,23.2,2.8c32.5,1.5,60.6,2.7,103.2-3.1l0.1,0.6
				c-42.7,5.8-70.8,4.5-103.3,3.1c-7.8-0.3-15.7-1.6-23.3-2.8c-8.9-1.4-18.1-2.9-27.3-2.9h-0.1c-8,0-16.1,1.2-23.9,2.2
				c-7.5,1.1-15.3,2.1-23.1,2.2c-10.4,0.1-20.8-1.6-30.9-3.2c-3.8-0.6-7.7-1.2-11.5-1.7c-33.4-4.6-67.8-2.1-101.1,0.3
				c-32.6,2.4-66.2,4.8-99,0.6c-2.8-0.3-5.7-0.7-8.4-1.2c-9.5-1.4-19.4-2.8-29-2.2c-7.4,0.4-14.8,2.1-21.9,3.5
				c-4.4,0.9-8.9,1.9-13.4,2.6c-17.3,2.7-35.1,1.6-52.5,0.4c-5.4-0.3-11-0.7-16.5-1C221.8,216.1,195.9,217.9,167.2,222.4z"/>
		</g>
		<g>
			<path class="st2" d="M770.4,214.6c-6.3,0-13.7-0.5-23.3-1.7c-29.4-4-58.7-4-87.1-3.9c-25.1,0-51.1,0-77.1-2.7
				c-22.6-2.4-83.2-1.4-103.5-0.6c-17.9,0.7-32.4,1.5-45.5,2.6c-1.6,0.2-3.1,0.2-4.7,0.4c-10.6,0.9-21.7,1.8-32.6,1.2
				c-4.9-0.3-9.7-0.9-14.5-1.5c-4.8-0.6-9.7-1.2-14.5-1.5c-12.7-0.7-42.8,2.5-54.3,4.5c-23,3.9-42.1,2.6-62.3,1.3
				c-22.5-1.5-48-3.1-83.8,2.1l-0.1-0.6c35.9-5.2,61.4-3.5,83.9-2.1c20.1,1.3,39.2,2.6,62.1-1.3c11.5-2,41.7-5.2,54.4-4.5
				c4.9,0.2,9.8,0.9,14.6,1.5c4.7,0.6,9.7,1.2,14.4,1.5c10.8,0.7,21.9-0.2,32.5-1.2c1.6-0.2,3.1-0.2,4.7-0.4
				c13.1-1.1,27.6-1.8,45.5-2.6c20.3-0.8,80.9-1.7,103.6,0.6c25.9,2.7,51.8,2.7,77,2.7c28.5,0,57.8,0,87.2,4c22,3,32.4,1.6,44.5,0.1
				c9.2-1.2,19.7-2.6,37.2-2v0.7c-17.4-0.6-27.9,0.8-37,2C784.9,213.8,778.5,214.6,770.4,214.6z"/>
		</g>
		<g>
			<path class="st2" d="M167.1,208.3l-0.1-0.6c30.6-3.1,60.5-5.9,88.3-4.1c4.6,0.3,9.4,0.7,13.9,1.2c12,1.1,24.5,2.1,36.6,1
				c6.4-0.7,13-1.9,19.3-3.1c6.6-1.3,13.4-2.6,20.3-3.2c9.2-0.8,18.7-0.2,27.8,0.3l3.3,0.2c44.6,2.6,77.3,3.9,123.7-1.6l0.9-0.1
				c9.2-1.1,24.4-2.9,32.9-1.6c3.1,0.4,7.1,0.9,11.3,1.3c5.6,0.6,11.3,1.2,15.3,1.9c16.1,2.8,32.4,2.1,48.3,1.5
				c8.4-0.3,17.1-0.7,25.7-0.6c2.9,0.1,5.7,0.1,8.5,0.2c17.2,0.2,33.5,0.5,50.7,2.5c8.6,1,19.7,0.7,31.5,0.5
				c13.4-0.3,27.3-0.7,37.3,1.1c13.5,2.3,23.7,0.6,33.4-1.1c10.1-1.7,19.7-3.3,32.6-0.6l-0.2,0.6c-12.8-2.7-22.3-1.1-32.3,0.6
				c-9.8,1.6-20,3.4-33.6,1.1c-9.9-1.6-23.8-1.4-37.1-1.1c-11.8,0.2-22.9,0.5-31.6-0.5c-17.2-2-33.4-2.2-50.7-2.5
				c-2.8,0-5.6-0.1-8.5-0.2c-8.6-0.2-17.2,0.2-25.7,0.6c-15.8,0.7-32.3,1.3-48.4-1.5c-4-0.7-9.7-1.3-15.3-1.9
				c-4.3-0.5-8.2-0.9-11.3-1.3c-8.3-1.2-23.6,0.6-32.8,1.6l-0.9,0.1c-46.4,5.4-79.2,4.2-123.8,1.6l-3.3-0.2
				c-9.1-0.6-18.6-1.2-27.7-0.3c-6.8,0.6-13.6,1.9-20.2,3.2c-6.3,1.2-12.8,2.6-19.3,3.1c-12.2,1.2-24.7,0.1-36.8-1
				c-4.5-0.4-9.3-0.8-13.9-1.2C227.5,202.5,197.7,205.1,167.1,208.3z"/>
		</g>
		<g>
			<path class="st2" d="M167.1,191.7l-0.1-0.6c7-0.6,14.1-1.3,21-2.1c18.2-1.9,37-3.9,55.9-3.1c5.9,0.2,11.9,0.8,17.7,1.4
				c11.1,1.1,22.5,2.2,33.7,0.8c5.3-0.7,10.6-1.6,15.7-2.6c4.8-0.9,9.8-1.9,14.8-2.6c16.9-2.1,34.3-0.2,51.1,1.8
				c18.1,2.1,36.9,4.4,55,1.2c3.7-0.7,7.4-1.5,11-2.3c5.4-1.2,11-2.5,16.6-3.1c11.3-1.2,22.7-0.2,33.7,0.7
				c6.8,0.6,13.9,1.2,20.8,1.2c8.7,0.1,17.4-0.6,25.9-1.2c9.5-0.7,19.2-1.5,29-1.2c8.2,0.2,16.4,1.5,24.3,2.6
				c11.3,1.6,23,3.3,34.6,2.4c30.3-2.5,64.6-4.3,78.1-4.2c6,0.1,13.4,0.3,21.4,0.7c10.7,0.4,22.9,1,34.7,1c23.5,0,47.5-2.3,67.6-6.6
				l0.2,0.6c-20.1,4.3-44.2,6.6-67.7,6.6c-11.8,0-24-0.5-34.7-1c-7.9-0.3-15.4-0.7-21.4-0.7c-13.5-0.1-47.8,1.7-78.1,4.2
				c-11.6,0.9-23.3-0.7-34.7-2.4c-7.9-1.2-16.2-2.3-24.3-2.6c-9.7-0.3-19.4,0.4-28.9,1.2c-8.5,0.7-17.2,1.3-25.9,1.2
				c-6.9-0.1-14-0.7-20.9-1.2c-11.1-0.9-22.4-1.9-33.7-0.7c-5.5,0.6-11.1,1.8-16.5,3.1c-3.6,0.8-7.3,1.6-11.1,2.3
				c-18.2,3.1-37,0.9-55.2-1.2c-16.7-2-34.1-4-51-1.8c-4.9,0.7-9.9,1.6-14.8,2.6c-5.1,1-10.4,2.1-15.7,2.6
				c-11.3,1.3-22.8,0.2-33.8-0.8c-5.8-0.6-11.8-1.2-17.7-1.4c-18.7-0.7-37.5,1.2-55.8,3.1C181.2,190.4,174.1,191.1,167.1,191.7z"/>
		</g>
		<g>
			<path class="st2" d="M167.2,183.6l-0.1-0.6c23.1-4.5,47.8-3.7,71.7-3c15.1,0.5,30.7,1,45.5,0.1c6.6-0.4,13.2-0.8,19.6-1.2
				c15.5-1,30.1-1.9,45.8-2.4c11.8-0.4,23.8,0.6,35.3,1.6c8.3,0.7,16.9,1.4,25.3,1.6c17.6,0.4,35.3-1.3,52.6-3.1
				c11.6-1.2,23.7-2.3,35.5-2.9c26.3-1.2,53,1,78.9,3.1c27.9,2.2,56.8,4.5,85.1,2.7c6.4-0.4,13-1.1,19.2-1.6
				c11.3-1.1,22.9-2.2,34.5-2.1c6.9,0.1,14,0.2,20.9,0.3c31.1,0.7,63.2,1.4,92.6-6.7l0.2,0.6c-29.5,8.1-61.7,7.3-92.8,6.7
				c-6.8-0.2-14-0.3-20.9-0.3c-11.5-0.1-23.1,1.1-34.4,2.1c-6.3,0.6-12.8,1.2-19.2,1.6c-28.4,1.8-57.3-0.5-85.2-2.7
				c-25.8-2.1-52.6-4.2-78.8-3.1c-11.8,0.5-23.8,1.7-35.5,2.9c-17.2,1.7-35.1,3.5-52.6,3.1c-8.5-0.2-17.1-0.9-25.4-1.6
				c-11.5-1-23.5-1.9-35.2-1.6c-15.7,0.5-30.3,1.4-45.8,2.4c-6.4,0.4-12.9,0.8-19.6,1.2c-14.8,0.8-30.5,0.4-45.5-0.1
				C214.9,179.9,190.2,179.1,167.2,183.6z"/>
		</g>
		<g>
			<path class="st2" d="M651.5,174.9c-20.5,0-40.3-1.9-58.1-4c-39.4-4.6-72.6-2.6-104.7-0.7c-14.8,0.9-30.1,1.8-46,2.1
				c-16.5,0.3-35.8,0.3-54.4-2c-39.4-4.9-74.2-2.5-105.8,0.8c-3.5,0.3-7.2,0.8-10.7,1.2c-11.3,1.4-22.9,2.9-34.1,2
				c-4.9-0.3-9.7-0.8-14.4-1.2c-18.7-1.8-36.5-3.5-56.2,0.5l-0.1-0.6c19.8-4,37.5-2.2,56.3-0.5c4.7,0.4,9.5,0.9,14.4,1.2
				c11.1,0.8,22.7-0.6,33.9-2c3.5-0.4,7.2-0.9,10.7-1.2c31.7-3.3,66.4-5.7,105.9-0.8c18.6,2.3,37.9,2.3,54.3,2
				c15.8-0.3,31.2-1.2,46-2.1c32.1-2,65.3-4,104.9,0.7c28,3.3,61,6,94.1,1.7c4-0.5,8.2-1.2,12.2-2c7.8-1.4,15.8-2.8,23.8-2.8
				c22.5,0.2,45.5-1.9,63.9-3.5c18.3-1.6,32.8-3,41.3-1.8l-0.1,0.6c-8.4-1.2-22.9,0.1-41.2,1.8c-18.4,1.6-41.3,3.8-63.9,3.5
				c-8-0.1-16,1.4-23.8,2.7c-4,0.7-8.1,1.5-12.2,2C675.5,174.3,663.4,174.9,651.5,174.9z"/>
		</g>
		<g>
			<path class="st2" d="M176.7,202.1c-3.3,0-6.5-0.3-9.7-1.2l0.2-0.6c9,2.4,19.4,0.5,29.4-1.4c4.9-0.9,9.5-1.7,13.9-2.1
				c8-0.7,16.3,0,24.1,0.7c3.5,0.3,7.2,0.7,10.7,0.8c1.6,0.1,3.2,0.2,4.8,0.2c15.4,0.9,31.4,1.8,46.9-0.5
				c39.6-5.9,72.8-4.9,108.1-3.8c33.2,1,67.5,2.1,109.2-2.7c16.6-1.9,36.5,1,52.1,3.7c11.5,2.1,27.6,1,40.6,0.2
				c2.5-0.2,4.9-0.3,7.2-0.4c60.1-3.5,96.5-2.6,149.7,3.3c18.9,2.1,38.8,1.2,64.6-2.8l0.1,0.6c-25.8,4-45.8,4.9-64.8,2.8
				c-53-5.9-89.4-6.8-149.5-3.3c-2.2,0.2-4.6,0.2-7.2,0.4c-13,0.8-29.1,1.9-40.8-0.2c-14.3-2.6-35.2-5.7-51.9-3.7
				c-41.8,4.8-76.1,3.8-109.3,2.7c-35.2-1.1-68.5-2.1-108,3.8c-15.5,2.3-31.5,1.4-46.9,0.5c-1.6-0.1-3.2-0.2-4.8-0.2
				c-3.6-0.2-7.3-0.5-10.8-0.8c-7.9-0.7-16-1.5-24-0.7c-4.5,0.4-9,1.2-13.9,2.1C190,200.9,183.2,202.1,176.7,202.1z"/>
		</g>
		<g>
			<path class="st2" d="M167.2,197l-0.2-0.6c20.3-4.4,43.1-6.2,67.7-5.4c9.2,0.2,16.7,1.2,24.2,2.2c15.1,2,29.5,3.8,52.5-1.4
				c25.7-5.8,53.8-3.6,80.9-1.6c7.8,0.6,15.1,1.2,22.3,1.6c24.7,1.2,49.9-1.3,72.3-3.5c19.8-2,36.9-3.8,48.3-2.2
				c32.9,4.5,64.8,3.5,95.5,2.5c12-0.4,24.4-0.8,36.5-0.8h8.7c31.5-0.2,56.3-0.2,88.4,2.5l1.7,0.2c8.3,0.7,17,1.5,25.3-0.2
				c3.4-0.7,6.6-1.6,9.7-2.4c8.1-2.2,15.7-4.4,27-2.9l-0.1,0.6c-11.1-1.5-18.7,0.7-26.7,2.9c-3.1,0.8-6.3,1.7-9.7,2.4
				c-8.3,1.6-17.1,0.9-25.5,0.2l-1.7-0.2c-32.1-2.7-56.9-2.6-88.4-2.5h-8.7c-12,0.1-24.4,0.4-36.5,0.8c-30.8,1-62.6,2.1-95.6-2.5
				c-11.3-1.6-28.3,0.2-48.1,2.2c-22.4,2.3-47.7,4.9-72.4,3.5c-7.2-0.3-14.5-0.9-22.3-1.6c-27.1-2.1-55.2-4.2-80.8,1.5
				c-23.1,5.2-37.5,3.4-52.6,1.4c-7.4-1-15-2-24.2-2.2C210.2,190.8,187.5,192.6,167.2,197z"/>
		</g>
	</g>
</g>
<path class="st3" d="M-44.5,106.3c-1.6,5.7-7.5,11.7-8.1,18.6c-0.4,5.2,5.8,18.5,6.4,18.8c0.4,0.1,3.1,0.1,3.4-0.2
	c0.6-0.7-2.9-16.2-0.9-19.3c1.7-2.6,5.3-6.6,5.4-6.7c0.3-0.2,1.3,7.5,1.3,7.9c1.1,7.1,2,13.6,3.2,20.7c0,0.2,0.1,0.5,0.2,0.6
	c0.2,0.2,0.5,0.2,0.7,0.3c1.1,0,2.7,0.2,3.2-0.4c0.3-0.4,0.6-3.8,0.6-5.7c0-2.5,0.4-6.4,0.5-9c0.2-3.2,0.3-10.8,0.3-12.1
	c0.1-4.1-0.5-10.2-1.3-12.9L-44.5,106.3z"/>
<path class="st3" d="M-36.5,106.1c-1.5-0.1-2.4-0.1-3.9,0c-0.4,0-2.9,0.2-4.1-0.2c-0.6-0.2-0.3-1.3-0.2-4.8
	c0.2-6.8-0.4-5.4-0.9-12.2c-0.1-1-0.2-2.1-0.7-3c-0.5-0.8-1.2-1.5-2.1-1.9c-2.6-1.5-6-2.1-7.8-4.5c-0.9-1.2-1.2-2.7-1.5-4.1
	c-1.1-5.9-1.4-8.3-1.2-14.3c0-1.1-1.6-1.6-1.5-3.6c0.1-1.6,2.1-2.1,3.2-1.3c1.2,0.9,0.3,2.3,0.6,4.6c0.6,4.8,1.4,7.1,2.9,11.8
	c0.2,0.6,1,2.9,3.9,4.2c3.5,1.6,8.6,2.8,9.4,1.8c1.6-2.2-1.6-4-2.5-6c-0.9-2-1-4.1-1.3-6.2c-0.1-1.1-0.1-2.6,0.6-3.5
	c0.5-0.6,1.8-0.8,2.6-0.9c1.9-0.3,3.8,0.4,5.5,1.1c1.4,0.6,2.9,1.2,3.7,2.5c1,1.5,0.7,3.6,0.2,5.3c-0.1,0.5-0.3,0.9-0.5,1.3
	c-0.4,0.5-0.9,0.9-1.4,1.3c-1.1,1.1-1.6,2.7-1.3,4.2c0,0.3,0.1,0.5,0.3,0.7c0.2,0.2,0.6,0.2,0.9,0.2c2-0.1,6-0.3,7.8-1
	c2.1-0.9,4.2-2.4,5-3.1c1.3-1.1,3.6-6.7,4.5-9.5c0.8-2.7-0.3-3.2,0.4-4.7c0.6-1.2,1.9-1.1,2.5-1c0.6,0.1,1.1,0.9,0.9,1.7
	c-0.4,1.6-0.9,1.6-1.4,3.2c-0.7,2.1-0.8,6.4-1.5,8.5c-0.9,2.9-2,5.5-4.2,7.6c-2.5,2.5-6.3,3.5-8.4,6.3c-1.9,2.6-2.1,6.1-2,9.3
	c0.2,3.7,0.3,2.7,0.5,6.3c0,1,0,2,0,3c0,0.3,0,0.7-0.2,1c-0.3,0.5-1.9,0.2-2.5,0.2C-33.6,106.3-34.4,106.2-36.5,106.1z"/>
<path class="st2" d="M-47.3,147.1c-0.5,0.6-1,1.1-1.4,1.7s-0.7,1.3-0.6,2.1c0,0.1,0,0.2,0.1,0.3c0.1,0.1,0.4,0.3,0.5,0.3
	c0.7,0.1,1.2,0.1,1.9,0.1c0.7,0,1.3-0.2,1.9-0.5c1-0.6,1.5-1.7,1.9-2.8c0.3-0.8,0.6-1.7,0.5-2.6c0-0.1,0-0.2-0.1-0.3
	c-0.1-0.1-0.2-0.2-0.4-0.3c-0.7-0.3-1.5-0.3-2.3-0.3c-0.3,0-0.6,0-0.9,0.2c-0.4,0.2-0.5,0.5-0.6,0.8
	C-46.9,146.3-47,146.7-47.3,147.1"/>
<path class="st2" d="M-33.6,149.5c0,0.4-0.1,0.9-0.1,1.3c-0.1,0.7-0.5,1.2-0.7,1.9c-0.1,0.4-0.2,0.8-0.2,1.3c0,0.2,0,0.4,0.1,0.5
	c0.1,0.2,0.3,0.4,0.5,0.5c0.7,0.3,1.4,0.4,2.2,0.4c0.2,0,0.5,0,0.7,0c0.2,0,0.5-0.1,0.7-0.2c0.2-0.1,0.5-0.2,0.6-0.4
	c0.4-0.4,0.4-1,0.4-1.5c0-1.1-0.2-2.1-0.2-3.2c0-0.3-0.1-0.9-0.2-1.1c-0.2-0.4-0.4-0.4-0.8-0.6c-0.4-0.1-0.8-0.1-1.2-0.1
	c-0.4,0-1,0-1.4,0.3C-33.5,148.7-33.6,149.2-33.6,149.5"/>
<path class="st2" d="M-44.6,62.6c-0.6-0.5-1-1.2-1.6-1.7c-0.4-0.4-0.9-0.7-1.3-1.1c-0.4-0.4-0.7-1-0.5-1.5c0.2-0.6,0.7-0.9,1.3-1.1
	c0.5-0.2,1.1-0.3,1.6-0.6c0.7-0.5,1.1-1.4,1.9-1.6c0.4-0.1,0.8,0.1,1.1,0.2c1.1,0.3,2.2,0.2,3.2-0.2c0.9-0.4,2-1,2.9-0.5
	c0.6,0.3,0.7,1.1,1.2,1.5c0.5,0.5,1.3,0.7,2,0.5c0.3-0.1,0.6-0.3,0.9-0.3c0.6,0,1,0.5,1.1,1.1c0.1,0.6-0.7,1-0.2,1.8
	c0.3,0.4,1.2,0,1.8,0.3c0.6,0.3,1.1,0.9,1,1.6c-0.1,0.6-0.6,1.2-0.5,1.8c0.1,0.5,0.7,0.8,1.1,1.1c0.4,0.3,0.8,0.9,0.5,1.3
	c-1.4,0.9-2.9,1.9-3.2,3.5c-0.2,0.6-0.2,1.2-0.4,1.8c-0.2,0.6-1,1.5-1.3,1.3c-0.3-0.2-0.3-1.2-0.4-1.5c-0.2-0.7-0.6-1.4-0.7-2.1
	c-0.1-0.3-0.1-0.6-0.1-0.8c0-0.2,0.1-0.5,0.2-0.7c0.1-0.3,0.1-0.6,0.1-1c0-0.1,0-0.3-0.1-0.4c-0.1-0.2-0.4-0.4-0.6-0.4
	c-0.7-0.2-1.5-0.2-2.2-0.6c-0.3-0.2-0.5-0.4-0.7-0.7c-0.2-0.2-0.3-0.4-0.5-0.6c-0.1-0.1-0.2-0.2-0.3-0.3c-0.1,0-0.2-0.1-0.3-0.1
	c-0.7,0-1.3-0.1-2,0c-0.7,0-1.3,0.2-1.9,0.3C-42.6,63.1-43.7,63.3-44.6,62.6z"/>
<path class="st2" d="M-38,118.7c0-0.3-0.2-0.8-0.5-0.8c-0.2,0-0.4,0.2-0.5,0.3c-0.8,0.9-1.6,2.5-2.4,3.4c-0.3,0.3-0.6,0.7-1.1,0.8
	c-0.3,0-0.6-0.1-0.9-0.2c-2.6-0.9-5.1-1.9-7.7-2.8c-0.2-0.1-0.4-0.2-0.5-0.4c-0.1-0.1-0.1-0.3,0-0.5c0.3-2,1.2-3.8,2.2-5.5
	c1-1.8,1.9-3.7,2.9-5.5c0.3-0.6,1.4-2.5,1.5-2.6c0.3-0.2,1.2,0,1.8,0c4.3,0,8.1,0.1,12.3,0.6c0.7,0.1,1.1,0.1,1.3,0.2
	c0.2,0.2,0.5,1.4,0.5,1.8c0.9,5.1,1.1,11,1.2,16.2c0,0.5-7.1,0.3-7.7,0.2c-0.8,0-2-0.1-2.4-1C-38.3,122.2-37.9,119.6-38,118.7z"/>
<path class="st3" d="M48.2,100.3c-1.8-0.1-3-0.1-4.9,0c-0.5,0-3.6,0.2-5.2-0.3c-0.8-0.3-0.4-1.6-0.2-5.9c0.2-8.5-0.4-6.8-1.2-15.2
	c-0.1-1.3-0.2-2.6-0.9-3.7c-0.6-1-1.5-1.8-2.6-2.4c-3.2-1.9-7.4-2.6-9.6-5.6c-1.1-1.5-1.5-3.3-1.8-5.1c-1.4-7.3-1.8-10.4-1.5-17.8
	c0-1.4-2-1.9-1.8-4.4c0.1-1.9,2.6-2.6,4-1.6c1.5,1.1,0.4,2.9,0.7,5.7c0.7,6,1.8,8.9,3.6,14.6c0.2,0.7,1.3,3.6,4.9,5.3
	c4.3,2,10.7,3.4,11.6,2.2c1.9-2.7-2-5-3.2-7.4c-1.2-2.4-1.2-5.1-1.6-7.8c-0.2-1.3-0.1-3.3,0.8-4.3c0.7-0.8,2.2-1,3.2-1.2
	c2.3-0.4,4.7,0.5,6.9,1.4c1.7,0.7,3.6,1.5,4.6,3.1c1.2,1.9,0.9,4.4,0.3,6.6C54.2,57,54,57.5,53.7,58c-0.4,0.6-1.1,1.1-1.7,1.6
	c-1.3,1.3-2,3.3-1.7,5.2c0.1,0.3,0.2,0.6,0.4,0.8c0.3,0.2,0.7,0.2,1.1,0.2c2.4-0.1,7.4-0.3,9.7-1.3c2.6-1.1,5.2-2.9,6.2-3.8
	c1.6-1.4,4.5-8.3,5.6-11.8c1-3.4-0.4-4,0.5-5.9c0.7-1.5,2.3-1.4,3.1-1.2c0.7,0.2,1.4,1.1,1.1,2.1c-0.5,2-1.1,2-1.8,4
	c-0.8,2.6-1,7.9-1.8,10.6c-1.1,3.6-2.5,6.8-5.2,9.4c-3.1,3.1-7.9,4.3-10.4,7.9c-2.3,3.2-2.7,7.6-2.5,11.6c0.2,4.6,0.4,3.3,0.6,7.9
	c0.1,1.2,0,2.5,0,3.7c0,0.4,0,0.9-0.2,1.2c-0.4,0.6-2.4,0.2-3.1,0.2C51.8,100.6,50.8,100.4,48.2,100.3z"/>
<path class="st2" d="M34.7,148.5c-0.6,0.7-1.2,1.4-1.7,2.2c-0.5,0.8-0.9,1.7-0.8,2.6c0,0.1,0,0.3,0.1,0.4c0.1,0.2,0.5,0.3,0.7,0.3
	c0.8,0.1,1.5,0.1,2.4,0.1c0.8,0,1.7-0.2,2.4-0.6c1.2-0.8,1.8-2.1,2.3-3.4c0.4-1,0.8-2.1,0.6-3.2c0-0.1,0-0.2-0.1-0.3
	c-0.1-0.2-0.3-0.3-0.4-0.3c-0.9-0.4-1.9-0.4-2.8-0.3c-0.4,0-0.8,0-1.2,0.2c-0.4,0.2-0.6,0.6-0.7,1C35.3,147.6,35.1,148.1,34.7,148.5
	"/>
<path class="st2" d="M44.4,148.1c-0.1,0.5-0.1,1.1-0.2,1.6c-0.1,0.8-0.7,1.5-0.9,2.3c-0.2,0.5-0.3,1.1-0.3,1.6c0,0.2,0,0.5,0.1,0.7
	c0.1,0.3,0.4,0.5,0.7,0.6c0.8,0.4,1.8,0.5,2.7,0.5c0.3,0,0.6,0,0.9,0c0.3-0.1,0.6-0.2,0.9-0.3c0.3-0.1,0.6-0.3,0.8-0.5
	c0.5-0.5,0.5-1.2,0.5-1.9c0-1.3-0.2-2.6-0.2-3.9c0-0.4-0.1-1.1-0.3-1.4c-0.2-0.5-0.5-0.5-1-0.7c-0.5-0.1-1-0.1-1.5-0.2
	c-0.5,0-1.3,0-1.7,0.4C44.5,147.1,44.4,147.7,44.4,148.1"/>
<path class="st2" d="M38.1,46.2c-0.7-0.6-1.3-1.4-2-2.1c-0.5-0.5-1.1-0.8-1.6-1.3c-0.5-0.5-0.8-1.2-0.6-1.9c0.2-0.7,0.9-1.1,1.6-1.4
	c0.7-0.2,1.4-0.4,2-0.8c0.9-0.6,1.4-1.8,2.4-1.9c0.5-0.1,0.9,0.1,1.4,0.2c1.3,0.3,2.7,0.2,4-0.3c1.2-0.5,2.5-1.3,3.5-0.6
	c0.7,0.4,0.9,1.3,1.5,1.9c0.6,0.7,1.6,0.9,2.4,0.7c0.4-0.1,0.7-0.3,1.1-0.3c0.7,0,1.3,0.7,1.4,1.4S54.4,41,55,41.9
	c0.3,0.5,1.5,0,2.3,0.4c0.7,0.4,1.3,1.2,1.2,2c-0.1,0.8-0.8,1.5-0.6,2.2c0.2,0.6,0.9,1,1.4,1.3s1,1.1,0.6,1.7
	c-1.7,1.1-3.6,2.4-4,4.4c-0.2,0.8-0.2,1.5-0.4,2.2s-1.3,1.8-1.7,1.6c-0.4-0.2-0.4-1.5-0.5-1.9c-0.2-0.9-0.7-1.7-0.9-2.7
	c-0.1-0.3-0.1-0.7-0.1-1c0-0.3,0.1-0.6,0.2-0.9c0.1-0.4,0.1-0.8,0.1-1.2c0-0.2,0-0.3-0.1-0.5c-0.1-0.3-0.5-0.5-0.8-0.6
	c-0.9-0.3-1.9-0.2-2.7-0.8c-0.3-0.2-0.6-0.5-0.8-0.8c-0.2-0.3-0.4-0.5-0.6-0.8c-0.1-0.1-0.2-0.3-0.4-0.3c-0.1-0.1-0.3-0.1-0.4-0.1
	c-0.8-0.1-1.7-0.1-2.5-0.1c-0.8,0-1.6,0.3-2.3,0.4C40.6,46.9,39.3,47.1,38.1,46.2z"/>
<path class="st2" d="M153.4,191c0-0.3-0.2-0.8-0.5-0.8c-0.2,0-0.4,0.2-0.5,0.3c-0.8,0.9-1.6,2.5-2.4,3.4c-0.3,0.3-0.6,0.7-1.1,0.8
	c-0.3,0-0.6-0.1-0.9-0.2c-2.6-0.9-5.1-1.9-7.7-2.8c-0.2-0.1-0.4-0.2-0.5-0.4c-0.1-0.1-0.1-0.3,0-0.5c0.3-2,1.2-3.8,2.2-5.5
	c1-1.8,1.9-3.7,2.9-5.5c0.3-0.6,1.4-2.5,1.5-2.6c0.3-0.2,1.2,0,1.8,0c4.3,0,8.1,0.1,12.3,0.6c0.7,0.1,1.1,0.1,1.3,0.2
	c0.2,0.2,0.5,1.4,0.5,1.8c0.9,5.1,1.1,11,1.2,16.2c0,0.5-7.1,0.3-7.7,0.2c-0.8,0-2-0.1-2.4-1C153.1,194.5,153.5,192,153.4,191z"/>
<path class="st4" d="M-421.3,44c0.3-1.5,0.6-3,1.4-4.3c1.2-2.2,3.4-3.7,5.2-5.6c2.6-2.8,4.2-6.4,4.3-10.2c0-0.8,0-1.5-0.4-2.2
	c-0.7-1.2-2.2-1.5-3.5-1.7c-4.2-0.7-8.7-1.3-12.5,0.6c-2.1,1.1-4.1,3-6.5,3c1-0.7,2-1.5,2.9-2.2c1.7-1.3,3.6-2.9,4-5
	c0.2-1.2-0.1-2.4-0.2-3.6s0.3-2.6,1.3-3.2c0.6-0.4,1.3-0.4,2-0.5c3.4-0.4,6.5-2.3,8.4-5.1c1.9-2.8,2.5-6.4,1.6-9.7
	c-0.3-1.1-0.7-2.1-1.5-3c-1.4-1.6-3.6-2.2-5.6-2.6c-3.6-0.7-7.8-1-10.5,1.5c-2.2,2-2.7,5.3-2.7,8.3c0,2.2,0.2,4.5,1.3,6.3
	c-1.5,0.8-3.3-0.1-5,0c-2.7,0.1-4.6,2.6-6.1,4.9c-3.1,4.9-5.7,10.3-6.2,16c-0.1,1.6-0.1,3.3,0.5,4.8c1.1,2.9,4.1,4.8,7.1,5.3
	c3,0.5,6.2-0.1,9.1-1.1s5.8-2.2,8.8-3c-1,1.8-1.8,3.9-2.1,6c-0.4,2.3-0.5,4.9-2.4,6.3c-0.4,0.3-0.8,0.5-1.1,0.8
	c-0.9,1-0.7,2.6,0.1,3.7c0.8,1.1,1.9,1.8,2.9,2.7c1.4,1.3,2.5,3,3,4.9c0.2,0.7,1.2,2.1,1.6,0.7c0.1-0.3-0.3-1-0.4-1.3
	c-0.2-0.8-0.2-1.6-0.2-2.4C-422.6,50.1-421.9,47-421.3,44z"/>
<path class="st4" d="M-438.2,5.6c-0.2,0.4-0.2,0.8-0.2,1.2c0.1,4.1,2,8.2,5.3,10.7c0.8,0.7,1.7,1.2,2.5,1.9c0.7,0.5,1.3,1.2,2,1.7
	c1.5,1.3,3.3,2.2,5,3.3c1.7,1.1,3.8,2,4.6,3.9c0.3,0.8,0.5,1.4,0.9,2.2c0.3,0.8,1,1.2,1.9,1.4c1.2,0.3,1.4,0,2.1-0.6
	s0.7-0.6,1.1-1.4c0.3-0.6-0.4-2.5-1-2.9c-0.4-0.2-0.8-0.5-1.2-0.6c-2.3-0.4-5.9-2.7-8.1-5.2c-0.8-0.9-1.4-1.8-2.1-2.7
	c-1.3-1.5-2.9-2.7-3.9-4.4c-1.1-1.7-1.5-3.6-2.3-5.4c-0.6-1.4-1.5-2.7-2.8-3.5C-435.6,4.6-437.6,4.2-438.2,5.6z"/>
<path class="st4" d="M-426.2,15.6c0.5,0.7,0.9,1.5,1.4,2.1c0.5,0.7,1.1,1.3,1.9,1.7"/>
<path class="st4" d="M-425.7,10.2c0.7,1.3,1.4,2.5,2.3,3.6c0.7,0.9,1.5,1.7,2.3,2.5c1,1,2.1,2.1,3.1,3.1"/>
<path class="st2" d="M-416.4-7.5c0.8-0.4,1.5-1,2.3-1.4c0.6-0.3,1.2-0.5,1.8-0.9c0.5-0.4,1-0.9,0.9-1.6c-0.1-0.7-0.6-1.2-1.2-1.5
	c-0.6-0.4-1.2-0.6-1.7-1.1c-0.7-0.7-0.9-1.9-1.9-2.2c-0.4-0.2-0.9-0.1-1.3-0.1c-1.3,0-2.6-0.4-3.6-1.1c-1-0.7-2-1.7-3.2-1.3
	c-0.7,0.2-1.1,1-1.7,1.4c-0.7,0.5-1.6,0.5-2.4,0.1c-0.3-0.2-0.6-0.4-1-0.5c-0.7-0.2-1.3,0.3-1.6,1c-0.2,0.6,0.5,1.3-0.2,2
	c-0.4,0.4-1.4-0.3-2.2-0.1c-0.8,0.2-1.4,0.8-1.5,1.5c-0.1,0.7,0.5,1.5,0.1,2.1c-0.3,0.5-1,0.7-1.6,0.9c-0.6,0.2-1.2,0.8-0.9,1.4
	c1.4,1.3,2.8,2.9,2.9,4.7c0,0.7-0.1,1.3,0,2.1s0.8,1.9,1.2,1.8c0.4-0.1,0.6-1.3,0.8-1.6c0.4-0.8,1-1.4,1.4-2.2
	c0.1-0.3,0.3-0.6,0.3-0.9c0-0.3,0-0.5,0-0.8c0-0.4,0-0.7,0.1-1.1c0-0.1,0.1-0.3,0.2-0.4c0.2-0.2,0.5-0.3,0.8-0.3
	c0.9-0.1,1.8,0.2,2.6-0.2c0.3-0.1,0.6-0.4,0.9-0.6c0.2-0.2,0.5-0.4,0.7-0.6c0.1-0.1,0.2-0.2,0.4-0.2c0.1,0,0.2,0,0.4,0
	c0.8,0.1,1.6,0.2,2.3,0.4c0.7,0.2,1.4,0.6,2.1,0.8C-418.8-7.4-417.6-6.9-416.4-7.5z"/>
<path class="st2" d="M-432.5,35.8c-2.9,0.8-5.9,1.5-8.9,1.2c-3-0.3-6-1.8-7.5-4.4c-1.1-2-1.1-4.4-1.2-6.7c0-0.3,0-0.5,0.2-0.7
	c0.1-0.2,0.4-0.2,0.6-0.3c1.5-0.4,3.1-0.3,4.7-0.4c2.2,0,4.5-0.2,6.7-0.3c1.1-0.1,3.7-0.8,4.7,0C-432.2,25.1-431.6,35.5-432.5,35.8z
	"/>
<path class="st5" d="M-425.5,19.9c-0.7-0.6-1.1-1.4-1.5-2.3c-0.3,0-0.5,0-0.8-0.1c-0.3,0-0.7,0-1,0.2c-0.1,0.2-0.2,0.4-0.2,0.6
	c-0.1,0.4-0.2,0.9-0.2,1.3c0,0.2-0.1,0.3,0,0.5c0,0.1,0.1,0.2,0.2,0.2c0.2,0.1,0.3,0.2,0.5,0.4c0.5,0.3,1,0.5,1.5,0.7
	c0.3,0.1,0.6,0.2,0.9,0.1c0.4-0.1,0.7-0.5,1.1-0.7C-424.1,20.5-425.2,20.2-425.5,19.9z"/>
<path class="st3" d="M38.1,100c-4,5-7.4,10.1-11.3,15.1c-1.1,1.4-2.2,2.9-2.1,4.7c0.1,0.9,0.4,1.7,0.8,2.5c3,6.3,5.6,12.6,8.6,18.9
	c0.3,0.6,0.8,1.6,1.1,1.7c0.3,0.1,1.4-0.1,2-0.3c0.8-0.2,0.2-0.1,1.1-0.3c0.2-0.1,1.2-0.3,1.3-0.4c0.3-0.3-0.5-4.1-1.7-8.4
	c-1-3.3-1.8-6.2-2.8-9.5c-0.2-0.9-0.8-2.9-0.5-3.7c0.3-0.7,3.2-4.7,3.6-5.2c2.7-3.4,3.3-4.2,5-5.6c0.9-0.7,1.8-1.1,0.8,1.2
	c-1.1,2.5-1.8,3.9-3.1,6.7c-0.6,1.4-1.5,3.2-1.7,4.7c-0.2,1.2,0.5,5.2,0.8,6.5c1.1,4.6,2.5,9.1,4.2,13.5c0.3,0.8,0.7,1.3,1.5,1.3
	c0.6,0,1.8-0.1,2.9-0.2c1.1-0.1,0.6-2.2,0.5-3.2c-0.7-4.9-0.4-6.4-0.9-11.3c-0.1-1.1-0.3-4,0.1-5.1c0.5-1.5,3.3-7.9,4-9.4
	c1.9-4.1,5-9.8,4.4-14"/>
<path class="st2" d="M131.3,165.2c0-0.7,0.1-1.6,0.8-1.9c0.3-0.1,0.6-0.1,0.8-0.1c4.8,0,9.7,0,14.5,0c0.2,0,0.5,0,0.6,0.2
	c0.2,0.2,0.2,0.4,0.2,0.7c0,0.7,0,1.4,0.1,2.1c0,0.6,0,1.2-0.3,1.7c-0.7,1.1-2.4,0.7-3.6,1c-2.8,0.6-5,4.3-8.2,3.2
	C133.7,171.1,131.4,167.8,131.3,165.2z"/>
<path class="st2" d="M35.1,103.9c-0.5-0.9,0.4-1.9,0.9-2.7c0.4-0.7,0.8-1.3,1.2-2c0.2-0.3,0.4-0.6,0.7-0.8c0.2-0.1,0.5-0.1,0.8-0.1
	c5.9-0.1,11.7,0.2,17.6,0.8c0.4,0,0.9,0.1,1.2,0.3c0.3,0.1,0.2,1.4,0.1,2.2c-0.2,1.4-0.2,3.4-1.5,3.9c-1.3,0.5-2.8,1.1-4.1,1.6
	c-1.8,0.7-3.9,1.3-5.6,2.2c-1.3,0.7-2.5,1.1-3.6-0.1c-1.1-1.1-2.1-2.1-3.5-3C38.9,106,35.5,104.7,35.1,103.9z"/>
</svg>
