<?xml version="1.0" encoding="utf-8"?>
<!-- Generator: Adobe Illustrator 23.0.2, SVG Export Plug-In . SVG Version: 6.00 Build 0)  -->
<svg version="1.1" id="Capa_1" xmlns="http://www.w3.org/2000/svg" xmlns:xlink="http://www.w3.org/1999/xlink" x="0px" y="0px"
	 viewBox="0 0 115 229" style="enable-background:new 0 0 115 229;" xml:space="preserve">
<style type="text/css">
	.st0{fill:none;stroke:#F8F3F2;stroke-width:0.75;stroke-miterlimit:10;}
	.st1{fill:#F8F3F2;}
</style>
<path class="st0" d="M90,129.1c-0.3,0.7,0.3,1.4,0.9,1.7c0.7,0.3,1.4,0.3,2.1,0.6c2.2,0.8,2.7,4.2,0.9,5.6c-0.5,0.4-1.1,0.6-1.7,1
	c-1.7,1.2-2.2,3.5-3.1,5.4c-0.9,1.9-2.9,3.8-4.9,3c-1.2-1.4,0.1-3.4,1-5c1.7-3.1,1.6-6.7,1.4-10.2c0-0.8-0.1-1.7-0.4-2.5
	c-0.7-1.5-2.4-2.3-3.9-3c-4-1.9-7.7-4.6-10.7-7.9c-0.8-0.9-1.7-1.9-2.7-2.5c-1.3-0.8-2.8-1.2-4.2-1.6c-5.6-1.8-10.5-5.8-13.5-10.9
	c-0.1-0.2-0.2-0.4-0.2-0.6c0-0.2,0.2-0.5,0.3-0.7c0.1-0.4-0.2-0.9-0.5-1.2c-2-2-4.9-3.2-6.1-5.8c-0.5-1-0.7-2.2-1-3.3
	c-0.9-2.9-3.3-5.4-6.1-6.5c-1.2-0.5-2.6-0.7-3.8-0.5c-3.8,0.7-6.2,5.6-10.2,5.5c-0.4,0.1-1.1-0.4-1.4-0.5c-0.4-0.9,1.8-1.5,1.4-2.4
	c-0.1-0.3-0.5-0.4-0.8-0.5c-1-0.3-2-0.5-3-0.5c-0.5,0-1,0-1.4-0.3c-0.8-0.6-0.5-1.9,0.1-2.7c0.5-0.9,1.2-1.9,0.8-2.8
	c-0.3-0.8-1.2-1.1-1.9-1.6c-0.7-0.5-1.1-1.7-0.3-2.1c0.2-0.1,0.4-0.1,0.6-0.2c1.1-0.2,2-0.9,2.5-1.9c0.4-1,0.3-2.2-0.3-3.1
	c-0.3-0.4-0.7-1-0.4-1.4c0.1-0.2,0.4-0.3,0.6-0.3c1.8-0.5,3.9-0.4,5.4-1.5c0.2-0.2,0.7-0.6,0.9-0.8c0.2-0.3,0.3-0.8,0.4-1.1
	c0.8-1.7,3.2-2.8,4.2-2.4c0.9,0.4,1.6,3.3,3.3,4.8c0.3,0.3,0.6,0.6,1,0.6c0.9,0,1.1-1.2,1-2.1c-0.2-0.9-0.5-1.9,0.2-2.5
	c1.3-1.1,3.2,1.5,4.7,0.7c0.5-0.3,0.7-0.8,0.9-1.3c1.6-3.5,3.3-4.3,6.3-3.3c2.6,0.9,0.6-2,2.6-2c5,0.1,5.7-1.2,6.9-1
	c1.8,0.2-1.4,1.4,2.7,4.1c2.3,1.5,7-0.6,8.4,1.7c0.4,0.6-0.7,1.9-0.9,2.5c-0.3,1.6,1.6,3.1,1,4.6c-0.3,0.8-1.1,1.2-1.9,1.4
	c-1.4,0.4-3,0.4-4.4,0.7c-1.5,0.3-3,1-3.7,2.3s0.5,2.4,1.3,3.6c0.4,0.6-0.8,1.3-1.2,1.9c-1,1.5-0.9,3.6,0,5.2
	c0.9,1.6,2.5,2.7,4.3,3.1c0.7,0.2,4.2,2.7,5.2,4c1.6,2,1.1,4.4,1.8,6.8c0.6,1.8,1.6,3.5,2.9,4.8c1.2,1.3,2.8,2.3,4.5,2.6
	c3,0.7,8.3,0.3,9,1.1c1.6,1.8-1.4,2.1-1.5,3.5c-0.1,2.5,6.9,2.8,13.1,8.1c2,1.7,4.8,2.7,5.7,5.1c0.4,1,0.4,2.2-0.2,3
	c-0.6,0.9-1.9,1.2-2.7,0.6c-0.8-0.7-0.7-1.9-1.2-2.9c-0.4-1-1.3-1.6-2.1-2.2c-1.4-1.1-3.4-2.2-4.9-1.3
	C91.3,123.1,91.9,127.9,90,129.1z"/>
<path class="st0" d="M68.8,145.8c-0.4-0.3-0.8-0.6-1.3-0.8c-1.2-0.6-2.6-0.3-3.8-0.1c-0.9,0.2-1.9,0.4-2.6,1c-0.7,0.6-1,1.8-0.3,2.5
	c0.4,0.4,1.1,0.5,1.7,0.6c3,0.7,5,3.4,7.7,4.9c1.2,0.7,2.6,1.1,3.7,2c0.8,0.7,1.4,1.7,2.3,2.4s2.2,1,3,0.3c0.6-0.6,0.6-1.6,0.6-2.5
	c0-1.1-0.1-2.2-0.1-3.3c0-0.8-0.1-1.6,0.2-2.3c0.6-1.5,2.4-2.8,2-4.4C80.8,142.2,71.4,147.3,68.8,145.8z"/>
<path class="st0" d="M39.3,133.1c0,0.4,0.1,0.8,0,1.1s-0.3,0.7-0.7,0.9c-1.1,0.4-2-1.4-3.1-1c-0.7,0.3-0.6,1.2-0.9,1.9
	c-0.3,0.7-0.9,1.2-1.7,1.2c-0.2,0-0.5,0-0.7-0.1c-0.2-0.1-0.4-0.3-0.5-0.5c-1.6-2.3-1.5-5.3-0.9-8c0.2-1.1,0.6-2.3,0.3-3.4
	c-0.4-1.6-2-2.7-2.4-4.3c-0.1-0.4-0.1-0.9,0.1-1.3c0.2-0.2,0.4-0.4,0.6-0.5c1.2-0.7,2.6-1,3.5-2c0.6-0.6,0.9-1.4,1.5-1.9
	c0.7-0.6,1.9-0.7,2.7-0.3c1,0.5,1.5,1.6,1.9,2.7c0.6,1.4,1.2,3,0.9,4.6c-0.2,1-0.6,1.9-0.7,3c0,0.7,0,1.5,0,2.2
	C39.4,129.1,39.1,131.1,39.3,133.1z"/>
<path class="st1" d="M59.9,62.3c-0.1,0.1-0.2,0.1-0.4,0.1c-0.5,0.1-1.1,0-1.6-0.3C57.8,62,57.7,62,57.6,62c-0.2,0-0.4,0.2-0.5,0.5
	c-0.1,0.2-0.2,0.5-0.3,0.7c-0.3,0.3-0.8,0.3-1.2,0.2c-0.4,0-0.8-0.1-1.2,0c-0.1,0-0.2,0-0.3,0.1c-0.2,0.1-0.2,0.3-0.2,0.5
	c0,0.4-0.1,0.7-0.4,1c-0.3,0.2-0.6,0.3-0.9,0.5c-0.1,0.1-0.2,0.2-0.3,0.4c-0.3,0.4-0.6,0.8-1,0.9c-0.4,0.2-1,0-1.2-0.5
	c-0.1-0.4,0.1-0.9,0.2-1.3c0.1-0.5,0.1-1-0.2-1.3c-0.3-0.4-0.9-0.5-1.2-0.1c-0.3,0.3-0.3,0.7-0.7,0.9c-0.4,0.2-0.9-0.1-1.3-0.2
	c-0.4-0.1-0.8,0-1.2,0s-0.8-0.2-0.9-0.6c0-0.2,0-0.5,0.1-0.7c0-0.2,0-0.5-0.2-0.6c-0.1-0.1-0.3,0-0.4-0.1c-0.1-0.1-0.1-0.2-0.1-0.3
	c0-0.4,0.1-0.9,0.2-1.3c0.1-0.1,0.1-0.3,0.2-0.3c0.2-0.1,0.4-0.1,0.6-0.1c0.9,0.1,1.7,0.1,2.5,0.4c0.3,0.1,0.7,0.2,1,0.2
	c0.4-0.1,0.7-0.4,0.8-0.7c0.1-0.3,0-0.5,0.1-0.8c0.1-0.4,0.6-0.7,1-0.8c0.4-0.1,0.9,0,1.3,0c2,0.1,4-0.8,6-1.1
	c0.3,0,0.6-0.1,0.7,0.2c0.1,0.2,0.1,0.4,0,0.6c-0.2,0.9,0.2,1.8,0.8,2.5c0.3,0.3,0.7,0.5,0.8,0.9C60.3,61.6,60.2,62.1,59.9,62.3z"/>
</svg>
