<?xml version="1.0" encoding="utf-8"?>
<!-- Generator: Adobe Illustrator 23.0.2, SVG Export Plug-In . SVG Version: 6.00 Build 0)  -->
<svg version="1.1" id="Capa_1" xmlns="http://www.w3.org/2000/svg" xmlns:xlink="http://www.w3.org/1999/xlink" x="0px" y="0px"
	 viewBox="0 0 41 32" style="enable-background:new 0 0 41 32;" xml:space="preserve">
<style type="text/css">
	.st0{fill:#C69C6D;}
</style>
<path class="st0" d="M15.9,30.8C7.7,30.8,1,24.2,1,15.9S7.7,1,15.9,1H41v29.8H15.9z M26.2,21.2c2.7-1.9,5-4.1,6.8-6.6
	c0.8-0.9,1.6-1.9,2.4-2.8c0.7-0.8,0.6-2-0.3-2.7c-0.9-0.7-2.3-0.6-3.1,0.2c-0.9,1-1.8,2-2.6,3c-1.6,2.2-3.6,4.1-5.9,5.8
	c-0.4,0.3-0.9,0.5-1.5,0.6c-0.5-0.1-0.9-0.2-1.3-0.4c-3.1-1.4-5.8-3.3-8.1-5.6c-0.8-0.8-2.2-0.9-3.1-0.2c-0.9,0.7-1,1.9-0.2,2.8
	c2.7,2.7,5.9,4.9,9.4,6.5c1,0.5,2.1,0.8,3.2,0.9h0.1C23.6,22.5,25,22,26.2,21.2z"/>
</svg>
