<?xml version="1.0" encoding="utf-8"?>
<!-- Generator: Adobe Illustrator 23.0.2, SVG Export Plug-In . SVG Version: 6.00 Build 0)  -->
<svg version="1.1" id="Capa_1" xmlns="http://www.w3.org/2000/svg" xmlns:xlink="http://www.w3.org/1999/xlink" x="0px" y="0px"
	 viewBox="0 0 52 41" style="enable-background:new 0 0 52 41;" xml:space="preserve">
<style type="text/css">
	.st0{fill:#33CCCC;}
</style>
<path class="st0" d="M26.1,32h-0.2c-1.7-0.1-3.4-0.5-4.9-1.3C15.6,28.3,10.8,25,6.8,21c-1.2-1.2-1.1-3.1,0.3-4.1s3.5-1,4.7,0.2
	c3.4,3.4,7.6,6.3,12.2,8.4c0.6,0.3,1.3,0.6,2,0.7c0.8-0.1,1.6-0.4,2.2-0.9c3.4-2.5,6.4-5.4,8.8-8.7c1.2-1.5,2.5-3,3.9-4.5
	c1.2-1.2,3.3-1.3,4.7-0.3c1.3,1,1.5,2.8,0.4,4c-1.3,1.4-2.5,2.8-3.7,4.3c-2.8,3.8-6.3,7.2-10.3,10C30.4,31.2,28.3,31.9,26.1,32z"/>
</svg>
