<?xml version="1.0" encoding="utf-8"?>
<!-- Generator: Adobe Illustrator 23.0.2, SVG Export Plug-In . SVG Version: 6.00 Build 0)  -->
<svg version="1.1" id="Capa_1" xmlns="http://www.w3.org/2000/svg" xmlns:xlink="http://www.w3.org/1999/xlink" x="0px" y="0px"
	 viewBox="0 0 1920 1080" style="enable-background:new 0 0 1920 1080;" xml:space="preserve">
<style type="text/css">
	.st0{fill:#F9F4F2;}
	.st1{fill:#C69C6D;}
	.st2{clip-path:url(#SVGID_2_);}
	.st3{fill:#C18F5D;}
	.st4{fill:#B78253;}
	.st5{fill:#B7723E;}
	.st6{fill:#AA6333;}
</style>
<rect x="-0.4" y="3" class="st0" width="1920.4" height="1075"/>
<path class="st1" d="M1920,750c-22.2-5-43.5,19-47.4,41.4c-3.9,22.5,0,46.4-8.4,67.6c-9.8,24.6-37,41.1-63.3,38.3
	c-36.9-3.9-61.4-38.4-90.8-60.9c-39-29.8-92.7-39.3-139.6-24.8c-46.9,14.5-85.8,52.8-101.1,99.4c-6.1,18.7-8.7,38.6-17.6,56.2
	c-8.8,17.6-26.5,32.9-46.1,30.8c-7-0.8-13.6-3.7-19.6-7.3c-49.6-29.7-53-112.8-5.9-146.3c12.8-9.1,28-14.7,40.2-24.7
	c15.9-13,25.2-32.4,32.3-51.7c11.5-31.4,18.3-66,9.8-98.4c-8.4-32.4-35.1-61.6-68.5-64.8c-42.7-4.1-77.1,32.3-106,64.1
	c-62.7,69-133.4,130.6-210.2,183.4c-32.9,22.6-69.5,44.4-109.4,44.1c-21.4-0.2-42.2-6.7-62.6-13c-29.4-9.1-58.8-17.8-88.4-26.1
	c-18.8-5.3-38.3-10.5-57.6-7.3c-19.3,3.2-38.1,17.2-40.4,36.6c-1.4,12.1,3.6,24.6,0.3,36.3c-7.5,26.4-47.6,24.2-69.3,7.3
	c-12-9.3-23.9-22-39-21.1c-20.6,1.2-30.2,25.5-35.9,45.3c-8.4,29-25.4,62.8-55.5,63.5c-27.9,0.6-47.7-30.9-45.3-58.7
	c2.4-27.8,20-51.6,37.3-73.5c17.3-21.9,35.6-44.8,40-72.3c8.1-50.9-36.9-98-86.8-111.1c-49.8-13.1-102.5-1.2-152.6,10.7
	c-75.7,17.9-151.4,35.9-227,53.8C56.3,773.6,27,781.1,0,768L0,3h1920V750z"/>
<g>
	<defs>
		
			<rect id="SVGID_1_" x="0" y="424.2" transform="matrix(-1 -4.489621e-11 4.489621e-11 -1 1920 1502)" width="1920" height="653.6"/>
	</defs>
	<clipPath id="SVGID_2_">
		<use xlink:href="#SVGID_1_"  style="overflow:visible;"/>
	</clipPath>
	<g class="st2">
		<path class="st3" d="M1924.6,678.7c-34.6,18.3-58.1,56-59.2,95.2c-0.6,21.3,4.9,42.4,5.3,63.7c0.5,26.3-7.1,53.3-24.5,73.1
			c-17.3,19.8-44.9,31.2-70.7,25.9c-25.8-5.3-47.6-28.9-47.6-55.2c-0.1-33.5,31.6-65.3,19.3-96.4c-30.9-15.7-68.1-15.7-101.4-6.2
			c-33.4,9.5-63.5,27.8-92,47.6c-28.6,19.9-56.5,42.1-75.4,71.3c-14.7,22.7-23.7,49.4-42.2,69.2s-52,30.2-72.3,12.3
			c-9.7-8.6-14.1-21.5-18.2-33.8c-3.5-10.9-7.1-21.7-10.6-32.6c-5.9-18.2-11.6-39.3-1.3-55.5c11.9-18.6,38.3-20.3,56.5-33
			c36.9-25.7,27.8-83.7,51.4-121.9c21.2-34.4,66.7-48.9,85.3-84.7c7.8-15,10-32.2,10.9-49.1c1-18.2,0.1-37.7-10.7-52.4
			c-10.4-14.2-28.7-21.1-46.3-20.9s-34.6,6.7-50.1,15.1c-42.6,23-76.9,61.1-95.3,105.9c-7,17.1-11.8,35.2-20,51.8
			c-26.6,53.9-84.3,84.7-121.6,131.8c-10.6,13.4-19.7,28.2-32.8,39.1s-32,17.1-47.5,9.9c-7.8-3.6-18.5-7-26.8-4.8
			c-8.3,2.2-15.9,6.7-23.7,10.3c-13,5.9-27,9.4-40.1,15.2c-14.4,6.3-27.4,15.2-41.3,22.5c-30.4,15.9-67.7,23.6-98.8,9
			c-13.2-6.2-24.6-16-38.4-20.6c-17.1-5.6-36-2.5-53.6-6.5c-10.3-2.4-20-7.1-30.1-10.2c-33.5-10.3-69.9-1.7-102.1,12.2
			c-28.1,12.1-53,41-64.7,69.3c-6.1,14.6-9.6,30.3-16.7,44.4c-7.1,14.1-18.9,27.2-34.4,30.3c-21.5,4.3-48,5-64.6-9.3
			s-25.4-36.1-28.7-57.8c-1.1-7.2-1.6-14.9,1.2-21.6c2.1-5.1,5.8-9.2,9.4-13.4c17.2-19.8,32.4-41.4,45.4-64.2
			c13.9-24.3,25.4-53.6,15.3-79.7c-10.3-26.6-39.3-40.5-66.6-48.4c-17.3-5-35.5-8.6-53.2-5.3c-15.1,2.8-29.5,10.6-44.8,10.2
			c-13.7-0.4-26.4-7.3-40-9.5c-28.5-4.6-58.8,11.8-85.6,1.2c-15.5-6.2-29.5-21.1-45.8-17.4c-13.8,3.1-25.9,18.4-38.8,24.1
			c-7.5,3.3-15.9,3.6-24,3.9c-33.6,1.1-69.9,1.3-97.1-18.4c-7.7-5.6-20.9-11.6-30.3-10.8l0.1-14.8c40.3,8.5,75.4,44.6,115.9,37
			c22.1-4.1,39.7-20.8,60.4-29.6c22.5-9.6,47.8-9.5,72.3-9.3c45.6,0.4,91.1,0.9,136.7,1.3c48.9,0.5,102.5,2.6,139.1,35.1
			c17.5,15.5,29.3,36.8,36.3,59.1c2.7,8.4,4.7,17.2,4.4,26c-0.4,11.9-5,23.3-9.5,34.3c-7.1,17.2-14.2,34.5-24.1,50.3
			c-8.5,13.5-19,25.7-26.5,39.8c-7.5,14.1-11.8,31-6.7,46.1c8,7.7,21.1,7.8,31.2,3.2s17.8-13,25.2-21.3
			c18.5-20.9,36.1-42.6,52.9-64.9c11-14.6,21.9-29.8,36.7-40.4s34.8-16.1,51.7-9.1c17.8,7.4,39.6,1.2,58.1-4.4
			c18.5-5.7,36.7-13.2,56-14.1c31.3-1.4,60.6,14.8,91.5,20.2c36.7,6.3,74.1-3,110.2-12.2c39.5-10.1,79.1-20.3,118.6-30.4
			c21.3-5.4,43.3-11.3,60.2-25.3c6.5-5.4,12.1-11.8,17.6-18.3c17.9-20.8,35.7-41.7,53.6-62.5c40.4-47.1,64.4-105.1,97.2-157.8
			c4.6-7.4,9.3-14.9,15.2-21.3c6-6.5,13.1-11.8,20.2-17c29.1-21.4,61.6-43.9,97.6-41.5c32.6,2.1,61.7,26,74.1,56.2
			s9.6,65.4-3.6,95.3c-3.9,8.8-8.6,17.2-14.9,24.4c-10,11.4-23.3,19.3-35.4,28.4c-11.8,8.9-22.6,19.2-32.8,30
			c-41.6,48.7-38.1,104.9-43.7,115c-5.6,10.1-13.1,19.5-22.9,25.5c-3.3,2-6.8,3.7-10.2,5.3c-6.5,3.1-13.1,6.2-19.6,9.3
			c-4.5,2.1-8.6,4.9-12.5,7.9c-5.9,4.6-12.3,13.7-14.3,18c-8.5,18.7-3.5,42.3,4.4,61.3c2.1,5,4.7,10,9.1,13.2
			c5.3,3.8,12.4,4.2,19,3.9c7.1-0.3,14.2-1.2,20.8-3.7c15-5.7,25.5-18.9,35.3-31.6c6.9-8.9,13.7-18.4,20.8-27.1
			c30.9-37.9,55.6-80.4,62.6-86.8c13.3-12.2,30.4-31.5,47.3-37.9c12.8-4.8,26.8-4.8,40.2-7.5c25-5,47.3-19.2,72-25.6
			c13.1-3.4,35.5-6.5,47.5-0.2c14.5,7.5,25.9,17,36.2,29.6c20.2,24.9-6.6,64.1,0.6,95.3c2.3,10,15.5,22.7,25.3,25.3
			c21.1,5.5,44.2-2,53.8-21.6c11.7-23.9-0.4-52-1.5-78.6c-0.3-8.3,0.4-16.8-1.8-24.8c-2.7-9.8-9.4-17.8-14.8-26.4
			c-6.9-10.9-12.1-23.3-11.9-36.2c0.1-12.9,6.3-26.2,17.6-32.4c6.4-3.6,13.9-4.6,21.1-6.2c24.6-5.3,52.2-18.7,70.5-35.9
			L1924.6,678.7z"/>
		<path class="st4" d="M1924.9,658.7c-10.4,6.3-17.9,10.9-21.5,12.9c-8.9,5.1-14.5,14.3-19.4,23.4c-12.5,23.3-22.8,49.5-18.4,75.5
			c2.1,13,7.8,25.1,10.5,38c2,9.6,2.2,19.5,2.2,29.3c-0.1,9.4-0.5,18.9-2.6,28c-3.7,16.2-12.9,31.1-25.7,41.6
			c-20.1,16.6-50,21.7-73.4,10.1s-37.7-40.3-30.4-65.4c2.2-7.6,6.2-14.7,9.2-22c7.9-19.1,9.5-40.7,4.5-60.7c-1-4.1-2.4-8.3-5.1-11.6
			c-8.2-10.1-24.1-7.8-36.6-4.2c-28.2,8.2-58.1,7.8-87.2,11.9c-15.9,2.2-26.7,16.4-37.2,28.6c-21.3,24.7-47.8,44.9-77.2,58.8
			c-11.8,5.6-24.4,10.3-33.8,19.3c-11.4,10.8-17,26.6-18.4,42.2c-0.7,7.3-0.5,14.7-1.5,21.9c-1.4,10-5,19.5-8.5,29
			c-3.4,9.2-6.9,18.4-12.5,26.4c-5.6,8-13.7,14.7-23.3,16.6c-5.9,1.1-11.9,0.4-17.8-0.8c-10-2-19.8-5.5-27.8-11.7
			s-12-17.2-14.3-27.1c-5-21.7-8.5-43.8-10.3-66c-1.1-13.3-1.4-27.4,5.2-38.9c8.8-15.4,27.2-22,41.4-32.8
			c25.8-19.6,36.9-52.6,45.9-83.7c9-31.1,18.4-64.2,42.4-85.9c8.6-7.8,18.8-13.7,27.7-21.2c21.5-17.8,35.4-44.4,37.8-72.2
			c0.9-9.7,0.2-20.2-5.5-28.1c-4.5-6.3-11.5-10.2-18.5-13.3c-47-20.7-106.1-10.2-143,25.6c-6.8,6.6-12.9,13.9-19.5,20.7
			c-14.3,14.8-30.9,27.1-44.8,42.2s-17.4,35.5-25.5,54.3c-1.6,3.8-3.3,7.6-4.9,11.4c-0.8,1.9-1.6,3.8-2.9,5.4
			c-1.5,1.8-3.6,3.1-5.5,4.5c-14.5,10.8-18.4,31.5-26.9,47.5c-7,13.2-14,26.3-20.9,39.5c-4.2,7.9-8.4,15.9-14.1,22.8
			c-5.6,6.9-12.4,12.6-19.5,17.9c-16,11.9-35,22.1-54.9,20c-7.1-0.8-14-3.1-21.1-4.1c-5.2-0.8-10.6-0.8-15.9-0.9
			c-19.8-0.2-41.9,1.2-61.7-0.2c-18.5-1.3-36.4,6-54.2,11c-34,9.4-69.7,10.5-105,11.4c-8.6,0.2-17.3,0.4-25.5-2
			c-4.7-1.4-9.2-3.8-13.9-5.2c-7.9-2.4-16.3-2.3-24.6-2.2c-17.2,0.3-34.4,0.5-51.5,0.8c-16.5,0.3-34.4,0.6-50.4-3.6
			c-12.7-3.3-25.7,3.5-38.8,4.7c-8.1,0.7-16.4-0.8-24.1,1.8c-8.1,2.7-14.1,9.3-19.5,16c-21,26.1-37.8,57.1-39.9,90.5
			c-0.5,7.8-0.2,15.8-1.5,23.5c-4.1,23.9-23.5,42.8-45.3,53.6c-6.7,3.3-13.7,6-21,7.5c-15.3,3-31.7,0.2-44.8-8.3
			c-13-8.5-22.4-22.6-24.6-38c-1-6.8-0.6-13.6-0.2-20.4c0.5-9.4,1.7-20.3,1.7-29.7c0.1-6,3.3-11.5,7.2-16.1
			c17.7-21.1,47.8-27.7,67-47.4c15.8-16.3,22.3-40,21.1-62.7c-1.3-22.7-9.6-44.4-20.2-64.5c-3.3-6.4-6.9-12.6-11.7-18
			c-5.8-6.5-13-11.4-20.2-16.2c-7.4-5-15-10-23.5-12.5c-8.4-2.4-17.3-2.2-25.9-2.9c-30.5-2.4-60.9-15.5-90.8-9
			c-12.3,2.7-25.5,2.8-36.6,8.7c-18.7,10-41.1,9.5-62.2,7.6c-21.1-1.9-42.7-5-63.2,0.5c-23.4,6.3-42.3,22.9-63.4,34.8
			C95.2,771,41,774.9-4.9,757.3l0.4-43.5c15.1,3.6,30.6,16.2,46,18.3c4.9,0.7,10,0.3,14.9,0.4c14.7,0.1,28.7,6.9,42.8,11.2
			c17.9,5.3,37.4-2.3,52.1-13.6c22.8-17.5,37.6-43.2,51.1-68.6c1.5-2.8,3-5.7,5.4-8c4-3.8,9.8-5,15.3-4.8
			c22.9,0.7,39.3,21.8,59.9,31.7c13.7,6.6,29.2,8.1,44.3,9.2c15,1.1,30.1,1.9,44.9-0.3c14.8-2.3,29.5-12,43.7-16.9
			c30.2-10.4,65.5-4.3,90.4,15.6c14.7,11.8,25.6,27.6,35.2,43.9c24.1,41,41.5,88.9,32.6,135.6c-2.3,12.1-7.1,24.9-17.8,31
			c-7.4,4.2-16.3,4.6-24.3,7.3c-19.3,6.5-31.4,25.6-38.4,44.7c-2.2,6.1-4.1,12.4-4,18.8c0.2,14.9,12,28.4,26.4,32
			c14.4,3.6,30.4-2.2,40.3-13.3c7.6-8.6,11.7-19.7,15.6-30.5c8.6-23.7,17.2-47.5,25.8-71.2c4.4-12.1,8.9-24.4,16.2-35
			c7.3-10.6,18-19.6,30.6-22.1c14.1-2.8,28.5,2.6,42.9,2.2c8.3-0.2,16.3-2.4,24.5-3.7c13.2-2.1,26.7-2,40.1-1.9
			c13.2,0.1,29.2,5.6,40.8-0.8c18.7-10.3,42.1-11.5,61.7-3.1c7.9,3.4,15.2,8.2,23.3,11.1c17.3,6.2,36.8,3.1,53.8-3.9
			s32.3-17.6,48.1-27c13.1-7.8,27.7-14.9,42.8-13.2c12,1.4,22.6,8.2,34.2,11.6c17.1,5,35.8,2.3,52.4-4.2s31.6-16.4,46.4-26.4
			c12.8-8.5,25.6-17.1,38.3-25.6c3-2,7.8-3.3,6.3-6.5c51.9-39.3,93.5-92,119.7-151.6c5-11.3,9.5-23.1,17.5-32.6
			c6.8-8.1,15.6-14,24.7-19.4c46.6-27.2,101.9-39.3,155.5-33.8c19.9,2,41.8,7.9,52.2,25c9.5,15.6,6.4,35.4,2.7,53.2
			c-4.5,21.6-10,44.2-25,60.4c-8.3,9-19,15.3-28.9,22.6c-34,25.2-58.4,62.8-67.6,104.1c-5.9,26.6-7.1,57.3-27.6,75.3
			c-13.5,11.8-32.9,15.5-45.3,28.5c-14.4,15.1-15.3,38.4-12.5,59c2.1,15.3,5.9,30.9,15.3,43.1s25.7,20.2,40.6,16.1
			c16.1-4.4,26-21.2,29.5-37.5c3.5-16.4,2.5-33.4,5.9-49.8c5.1-24.7,20.5-47.2,41.9-60.8c26.5-16.9,61.3-20.6,83.1-43.3
			c6.7-7,11.8-15.5,18.8-22.3c12.4-12.1,24.9-23.6,40.6-30.9c17.9-8.4,36.1-16.9,55.6-19.9c19.5-3,40.9,0,56,12.7
			c17.9,15,23.7,39.8,27,63c2,14,3.5,28,4.4,42.1c0.4,6.2,0.8,12.6,3.4,18.3c6.4,13.8,24,18.5,39.2,17.8
			c11.3-0.5,23.5-3.7,30.3-12.7c6.5-8.6,6.6-20.4,6-31.2c-1.4-23-4.9-45.8-5.8-68.8s0.7-46.5,9.3-67.9
			c10.5-26.3,32.5-49.1,58.3-60.9L1924.9,658.7z"/>
		<path class="st5" d="M-6,775.2l0.6-59.9c35.1,28.3,86.5,37.6,128.9,22.5c34-12.1,63-38,98.7-43.3c18-2.7,36.4,0.1,54.3-2.9
			c26.2-4.4,48.6-20.6,72.2-32.8c42.1-21.7,94.6-30.7,136.3-8.2c14.1,7.6,26.2,18.3,38.1,28.9c14,12.4,27.9,24.8,41.9,37.3
			c10.6,9.4,21.3,18.9,28.9,30.8c10.3,16.1,14.3,35.4,16.5,54.5c2.6,23.1,2.8,46.5,0.6,69.6c-1.6,16.7,9.7,34.8,26.3,37.4
			c1.9,0.3,4,0.4,5.8-0.5c2.5-1.1,3.9-3.7,5.2-6.1c15.7-29.9,30.1-60.4,43-91.6c3.6-8.7,7.3-17.7,13.8-24.5
			c6.1-6.3,14.2-10.2,22.2-13.9c9-4.1,18.3-8.2,28.1-8.4c16-0.3,30.2,9.8,41.9,20.7c11.7,10.9,22.6,23.3,37.2,29.9
			c11.1,5,23.5,6.2,35.6,7c17.4,1.2,35.2,1.8,52-2.7c31.2-8.3,56.3-33.2,87.9-40.1c13.3-2.9,27.4-2.4,40.5,1.4
			c14.4,4.2,30.2,7.3,45.3,6.7c18-0.7,34.7-9.7,49.2-20.3c37.2-27.1,64.6-65.7,87.9-105.4c12.8-21.7,24.7-44.2,41.1-63.3
			c16.6-19.4,37.4-34.7,58.5-49.2c14.1-9.7,30.3-19.4,47-16.2c8,1.5,15.2,5.9,22.2,10.3c14.8,9.2,29.6,18.4,44.4,27.6
			c21,13.1,42.6,26.7,56.5,47.2c19.1,28.3,19.6,68,1.2,96.8c-6.7,10.5-15.6,19.6-20.7,30.9c-6.7,15-6.2,33-15.4,46.7
			c-3.5,5.1-8.3,9.5-10.4,15.3c-2.1,5.8-1.3,12.2,0.1,18.2c1.9,8,5.1,16.5,12.1,20.8c8.5,5.3,19.9,2.8,28.4-2.5
			c8.5-5.3,15.1-13.1,23-19.3c12.1-9.5,26.9-15,40.6-22.1c26.9-14,50.2-34.7,67.2-59.8c7.9-11.6,25.1-14.8,37.2-22
			c14.8-8.9,30.4-18,47.6-18.6c26.1-0.9,48.3,17.6,67.8,34.9c8.7,7.8,17.8,16.3,20.5,27.6c4.5,18.6-9.7,36-14.8,54.5
			c-1.9,7-2.5,14.3-1.8,21.4c0.5,5,1.7,10.1,4.5,14.3c7,10.9,21.7,13.6,34.7,14.2c10.2,0.5,20.7,0.3,30.2-3.4
			c9.5-3.7,17.9-11.6,19.8-21.6c1.3-7.2-0.7-14.6-3.1-21.5c-9-26-22.4-50.4-30.4-76.7c-8-26.3-10.2-56.1,3-80.3
			c8.2-15,21.7-26.7,36.6-35.1s31.3-13.9,47.6-19l-1.8,147.4c-11.5,0.2-22.2,7.1-29.4,16.1c-7.2,9-14.9,19.3-15.4,30.8
			c-1.4,29.9,4.1,60.6-8.9,87.6c-5.4,11.1-12.9,22-24.1,27.3c-9.2,4.4-20.1,4.5-30,1.9c-9.9-2.6-19-7.6-27.6-13.2
			c-2.1-1.4-3.4-3.2-4-5.6c-6.9-24.2-32.4-39.8-57.5-41.4c-6.9-0.4-14.1,0-20.6-2.4c-10.7-3.8-17.5-14-25.2-22.4
			c-10.2-11-22.8-19.5-35.8-26.9c-11.5-6.6-24.3-12.6-37.5-11.5c-13.2,1.2-24.5,9.2-35.4,16.7c-28.6,19.6-57.8,39.6-90.5,51.1
			c-11.7,4.1-24.1,8.2-36.1,5.3c-17.2-4.2-28-21.8-31.6-39.1c-5.6-27.2,2-55.2,9.6-82c8-28.2,16-56.5,24-84.7
			c3.9-13.8,7.8-29.1,1.8-42.2c-6.2-13.6-22.3-19.1-35.5-26.3c-13.9-7.6-31.5-3.7-45.3,4c-13.8,7.8-25.4,19-38.9,27.3
			c-5.7,3.5-11.8,6.5-16.9,10.9c-5.7,4.9-9.7,11.4-13.7,17.7c-26,42-49.8,85.8-83.1,122.4c-8.9,9.7-18.4,19-29.6,25.9
			c-23.9,14.9-53.4,18.5-81.6,20.3c-11.8,0.8-23.7-2.5-33.5-9c-4.2-2.8-8.2-6.3-13.2-7.5c-2.2-0.5-4.5-0.5-6.8-0.5
			c-25.5-0.1-53.4,0.7-72.6,17.4c-12.6,11-19.2,27-28.7,40.7c-10.7,15.2-25.8,27.9-43.6,33s-38.6,2-52.4-10.4
			c-7.7-6.8-12.8-15.9-18.4-24.5c-9.4-14.5-20.1-28.5-32.2-40.8c-7.4-7.5-14.8-15.1-22.2-22.6c-2.6-2.6-5.3-5.3-8.8-6.3
			c-3-0.8-6.1-0.3-9.2,0.2c-13.3,2.4-27,5.3-37.9,13.2c-16.9,12.3-23.6,33.9-29.2,54c-3.8,13.4-7.6,26.9-11.4,40.3
			c-1.6,5.6-3.2,11.3-5.7,16.6c-8,17.1-26.7,29.8-45.4,27.2c-11-1.5-20.7-7.8-29.5-14.6c-11.7-9.1-25.9-17.5-31.7-31.2
			c-16.8-39.3-1.9-85.9-15.4-126.5c-9.2-27.7-30.9-49.7-54.7-66.7c-7.4-5.3-15.2-10.3-23.7-13.7c-24.9-10.1-53-5.8-79.5-1.4
			c-36.9,6.2-79,5.2-109.5,26.9c-19.7,14.1-44.3,18.7-68.1,23c-11.1,2-22.3,4-33.4,6c-8.2,1.5-16.3,3-24.6,3.7
			c-13.4,1.2-27.3,0.3-40.1,4.4c-15.4,4.9-27.8,16.5-42.7,22.7c-14.1,5.9-29.8,6.8-44.9,5S8.6,779.5-6,775.2 M1653.4,778.6
			c6.5,4.2,11.6,10.3,18.1,14.4c7.1,4.5,15.5,6.5,22.9,10.5c6.9,3.7,12.8,9.2,19.9,12.4c4.4,1.9,9.1,3,13.7,4
			c12.1,2.7,24.2,5.3,36.2,8c1.9,0.4,3.8,0.8,5.6,0.2c1.6-0.6,2.8-1.9,3.7-3.2c3.2-4.5,4.7-10,5.5-15.5c2.5-16.7-0.9-33.9-6.9-49.7
			c-2-5.1-4.2-10.3-7.8-14.5c-3-3.6-6.8-6.4-10.5-9.2c-6.9-5.2-13.8-10.4-20.8-15.6c-3.7-2.8-7.5-5.6-12-6.9
			c-8.9-2.6-18.3,1.6-26.4,6.2c-4.9,2.7-9.6,5.6-14.3,8.7c-3.8,2.5-7.5,5.1-10.5,8.3c-2.9,3.1-5.2,6.8-7.9,10.1
			c-3.3,4.1-7.3,7.7-11.7,10.7c-3.9,2.6-10.4,4-13.6,7.3c-2.7,2.9-0.8,6.6,2.3,8.2C1643.8,775.1,1648.9,775.7,1653.4,778.6z
			 M1927.6,640.8c-5.2,4-11.8,8.9-17,12.9c-7.8,5.9-15.7,12.1-21,20.2c-8.6,13-9.7,29.4-14.3,44.3c-0.7,2.4-1.6,4.8-2.1,7.2
			c-0.9,4.1-0.9,8.4-0.9,12.6c0,3.5,0,7.1,0,10.6c0,3.7,0.3,8,3.4,10.1c2.6,1.7,6.1,1.1,8.7-0.7c2.5-1.7,4.3-4.4,6.1-6.9
			c3.3-4.6,7.1-8.9,11.9-11.9c7.4-4.5,17.3-3,24.1-8.2L1927.6,640.8z M908.5,876.5c11.7-2.8,20.4-9.6,27.9-18.7
			c8.2-10,11.3-25.2,15.3-37.4c0.3-1,0.6-2.2-0.2-2.8c-0.3-0.3-0.8-0.4-1.3-0.4c-4.3-0.4-8.5,1.6-12.4,3.5
			c-8.3,4.1-16.5,8.2-25.3,11c-8.8,2.7-18.2,4-27.3,2.1c-3.1-0.7-6.1-1.7-9.2-2.4c-8-1.9-16.4-1.6-24.6-0.7
			c-3.9,0.4-8.6,1.8-9.4,5.6c-0.7,3.3,2,6.2,4.4,8.5c8.8,8.1,17.5,16.3,26.8,23.7c3.6,2.9,7.3,5.7,11.6,7.2c1.7,0.6,3.4,1.1,5.2,1.4
			C896.1,878.2,902.5,878,908.5,876.5z M260,715.2c2.5-2.3,6.3-5,8.1-7.8c2.1-3.4-1.2-5.7-4.4-6.1c-3.5-0.4-7.1-0.2-10.6,0.5
			c-3.5,0.7-6.8,2-10.3,2.3c-3.2,0.3-6.5-0.3-9.7,0.1c-3.7,0.4-7.2,1.9-10.5,3.8c-3.4,2-6.6,4.5-9,7.6c-2.4,3.2-3.9,7.1-3.7,11
			c0,0.6,0.1,1.2,0.4,1.7c0.2,0.3,0.6,0.6,1,0.8c4.1,2.3,9,2.5,13.7,2.7c2.3,0.1,4.7,0.1,7-0.3c2.5-0.4,5-1.4,7.3-2.5
			C246.9,725.4,253.9,720.7,260,715.2z"/>
		<path class="st6" d="M1926.9,729.5c-17.7,0-31.6,24.1-35.9,41.2c-4.3,17.1-1.8,35.1-1.9,52.8c-0.2,20.9-4.5,42.5-16.8,59.4
			c-12.3,16.9-33.9,28-54.4,23.8c-24.6-5.1-41.2-29.7-65.5-36.3c-15.8-4.3-32.8-0.4-48.6-4.5c-32.7-8.7-50.2-48.8-83.3-55.5
			c-18.5-3.8-37.4,4.1-53.5,14c-16.1,9.9-31,22.2-48.8,28.6c-17.8,6.5-39.9,5.7-52.9-8c-6-6.3-9.4-14.7-12.6-22.8
			c-5.1-12.8-10.3-25.7-15.4-38.5c-2.2-5.5-4.4-11.4-3-17.1c1.3-5.2,5.4-9.3,9.6-12.6c8.7-6.9,18.6-12.2,29.2-15.5
			c14.2-4.5,31-6.4,39.6-18.6c8.4-11.9,4.7-29.2-4.9-40.1c-9.5-10.9-23.5-16.9-37.2-21.7c-13.7-4.8-27.9-9.1-39.5-17.9
			c-8.8-6.6-15.6-15.5-24.1-22.3c-8.5-6.9-19.9-11.8-30.4-8.5c-17.7,5.5-21,28.3-26.9,45.9c-7.4,21.8-23.6,40.5-44.3,50.8
			c-19,9.5-41.1,11.9-59.5,22.5c-23,13.2-37.3,37.3-50.5,60.3c-14.7,25.6-49,31.8-74.2,47.2c-10.4,6.4-20,14.1-30.4,20.7
			c-9.6,6.1-19.9,11.2-30.1,16.3c-20.6,10.2-41.2,20.4-61.7,30.7c-11.9,5.9-23.9,11.9-36.9,14.6c-10.8,2.3-21.9,2.2-33,1.9
			c-21.4-0.5-44.2-2.2-61.2-15.1c-14.1-10.6-22.2-27.7-25.6-45c-3.4-17.3-2.5-35.2-1.6-52.8c0.7-13.9,1.4-27.7,2.1-41.6
			c0.5-10.3-0.5-23.2-10-27.2c-3.1-1.3-6.5-1.3-9.9-1.2c-14.5,0.3-29.4,1.4-42.5,7.6c-20.7,9.9-33.9,31.3-39.8,53.4
			s-5.7,45.4-6.3,68.3c-0.6,22.9-2.3,46.4-11.8,67.3c-11.4,8-25.1,18.3-38.4,22.6c-13.3,4.2-28.7,4-40.2-4
			c-12.9-9-18-25.3-23.8-39.8c-9.5-23.4-23.1-45.1-40-63.9c-5.6-6.2-11.5-12-16.1-19c-4.9-7.5-8-16-11.8-24.1
			c-26-55-88.5-90.3-149-84.1c-27.8,2.8-58.9-7.9-85.9-15.2c-27-7.3-54.5-14.5-82.4-13.2s-56.7,12.4-72.9,35.1
			c-7.8,11-12.7,24.4-23.1,32.8c-10,8.1-24.2,10.7-32.4,20.6c-4,4.7-6.2,10.7-10.7,15c-7.2,6.9-18.3,7.5-28.2,6.7
			c-25.2-2-52.6-11.3-73.3-25.7l0.8-83.4c14.7,24.1,13.2,57.9,33.4,77.7c25.7,25.1,70.7-8.4,98.6-31.1
			c27.9-22.7,58.1-66.4,93.1-74.7c31.3-7.4,56,4.8,97.8,15.2c31.1,7.7,45.2,20.7,81.9,21.6c36.1,0.9,45.4-12.8,120.9-6
			c20.3,1.8,41.6,4.1,58.2,15.9c24.4,17.4,31.4,50.2,33.1,80.1S612,854.5,626,881c13.9,26.5,50.9,43.7,74.5,25.3
			c28.3-22.1,12.1-66.4,14-102.3c3.2-59.3,76.1-102.6,129.7-77.1c29.9,45.3,2.6,118,44.2,153c28.2,23.8,42,19.4,77.1,8
			c25.2-8.2,17.7-50.5,34.9-82.2c7.7-14.3,7.2-42.5,19.6-50.7c44.8-29.7,71,42.6,104.5,34.7c47.4-11.2,85.7-72.3,128.1-89
			c20.3-8,44.9-13.4,54.5-33.1c9.5-19.5-1.1-42.6,0.8-64.2c2.8-31.2,33.2-54.7,64.3-58.1c31.1-3.4,61.9,9.2,88.4,25.9
			c34.4,21.7,65.4,53.1,74.5,92.7c9.1,39.7-10.6,87.4-49.5,99.3c-12.7,3.9-30.9,15.6-21,24.5c28.8,2.3,38.9,55.8,66.5,47.4
			c7.7-2.4,12.9-9.3,18.1-15.5c23.9-28.6,58.6-48.1,95.5-53.5c9.6-1.4,19.7-1.8,28.5,2.3c9.9,4.6,16.4,14.2,23.2,22.8
			c37.4,46.5,134.2,87.5,163.9,62.3c25.2-21.4-8.5-66.8-19.7-97.8c-14.8-41.2-12.3-88.3,6.7-127.7c8-16.6,19.5-32.4,35.9-40.8
			c16.4-8.4,33.3-10.5,46.1,2.8L1926.9,729.5z M588.5,757.1c0-2.3,0-4.7-0.7-6.8c-0.9-2.7-3-4.9-5-6.9c-5.9-6.1-11.9-12.3-18.9-17.1
			c-13.9-9.5-31.6-13.3-48.2-10.1c-3.2,3.2-3.8,8.5-2.5,12.9c1.3,4.4,4.1,8.2,6.8,11.9c7.5,10.2,15.1,20.4,22.6,30.6
			c8.3,11.2,20.9,28.5,37,27.4c7.5-0.5,8.4-5.5,8.6-12.1C588.4,777,588.3,767,588.5,757.1z M595,833.6c-1.5-5.2-3-10.5-4.5-15.7
			c-0.3-1.2-0.7-2.4-1.6-3.2c-0.8-0.7-1.9-1-3-1.2c-2.1-0.4-4.3-0.8-6.5-1c-2.7-0.3-6.2,0.1-7.1,2.6c-0.5,1.4,0.1,3,0.6,4.4
			c3.1,7.7,6.5,15.2,10.2,22.6c0.8,1.5,1.5,3,2.8,4.1c1.8,1.6,4.3,2.3,5.9,4c1.1,1.2,1.9,2.9,3.5,3.1
			C601.5,854.3,595.7,836.1,595,833.6z M707.6,930.9c2.3-3.4,3.9-7.2,5.3-11c1.4-3.7,3.6-11,2.4-11.5c-2.3-0.9-6.2,2.3-8.6,4.7
			c-4.3,4.5-8.9,9-14.6,11.3c-1.4,0.6-2.9,1-4,2c-1.2,1-1.9,2.6-1.4,4c0.3,0.7,0.8,1.2,1.4,1.7c2.4,2.1,7.3,6.2,10.6,6.2
			C702,938.3,705.9,933.3,707.6,930.9z M1011.6,878.9c14.7-8.9,27-21.8,42.9-28.3c3.5-1.4,7.2-2.5,10.8-3.7c11.3-3.5,22.9-7.4,32-15
			c8.4-7,14.4-16.1,16.5-26.9c0.1-0.4,0.1-1.6-0.1-1.9c-0.3-0.6-1-0.7-1.6-0.8c-11-2-20.4-9.1-28.7-16.7c-8.3-7.6-16-16-25.8-21.5
			c-9.8-5.5-22.3-7.7-32.1-2.2c-5,2.8-9,7.5-10.8,13c-2.2,6.5-1.5,13.6-2.1,20.5c-0.6,6.7-2.4,13.2-5.4,19.2c-3,6-7.1,11.6-8.2,18.3
			c-0.6,3.9-0.1,7.9-0.2,11.9c-0.4,10.8-5.5,20.7-7.6,31.3c-0.9,4.7-0.5,7.6,5.1,8C1001.8,884.3,1007.1,881.6,1011.6,878.9z
			 M1346.8,610.4c5.8,0.1,10.1-6.9,15.4-8.8c2.3-0.9,4.8-1.2,7.2-1.9c3.7-1,7.2-2.8,10.2-5.2c-0.1-2.6-3.2-3.8-5.7-4.3
			c-3.8-0.8-7.7-1.5-11-3.5c-4.4-2.7-7.4-7.6-12.2-9.2c-3.5-1.2-7.5-0.4-10.9,1.3c-3.3,1.7-6.2,4.3-8.9,6.8
			c-1.4,1.3-2.8,2.5-3.7,4.2c-0.9,1.6-1.2,3.7-0.3,5.4c0.8,1.5,2.5,2.4,4,3.4C1336.1,602.1,1339.6,610.2,1346.8,610.4z
			 M1374.9,576.3c4.7,1.6,9.7,2.8,13.4,6.1c1.7,1.5,3.1,3.4,4.4,5.3c8.2,11.5,17,23.9,30.2,29c6.1,2.3,12.7,2.9,18.8,5.3
			c8.2,3.2,15,9.6,23.5,11.7c3.4,0.9,7,1,10.6,1.1c3.4,0.1,6.9,0.1,10.4,0.1c3.1,0,6.9-0.7,7.6-3.7c0.6-2.7-2-4.9-4.1-6.7
			c-11-10-12.6-28.3-25.3-36.1c-4-2.5-8.7-3.5-13.4-4.5c-6.6-1.5-13.3-2.9-19.9-4.4c-3.2-0.7-6.5-1.4-9.3-3
			c-4.8-2.7-7.9-7.5-12.1-11c-4.8-3.9-11-6-17.2-5.8c-7.2,0.3-14.1,3.5-21.2,2.9c-2.3-0.2-4.7-0.8-6.8,0.2
			C1356.3,566.6,1371.9,575.3,1374.9,576.3z M1458.1,805.2c-0.6,0.2-1.3,0.6-1.4,1.2c-0.1,0.6,0.2,1.1,0.6,1.6c2,2.8,3.7,5.8,5,9
			c1,2.4,1.6,5,2.6,7.5c0.9,2.2,2,4.4,3.2,6.5c1.3,2.3,2.6,4.7,4.5,6.5c4.7,4.4,11.9,4.4,18.3,4.3c1.7,0,3.4,0,5.1,0.4
			c2.1,0.5,4,1.4,6,2c2,0.6,4.4,0.8,6.2-0.3c-0.2-2.1-2.4-3.2-4.4-4c-5.3-2.1-10.6-4.8-14-9.4c-2.5-3.3-3.7-7.4-6-10.9
			c-3.4-5.3-8.8-8.8-14.1-12.2C1466.2,805.1,1462.2,803.8,1458.1,805.2z M1928.5,656.4c-18.5,6.1-28.6,0.4-41.4-1.8
			c-2.2-0.4-4.4-0.8-6.6-0.6c-4,0.3-7.5,2.5-10.8,4.7c-3.2,2.1-6.3,4.1-9.4,6.2c-3.1,2.1-6.2,4.2-8.6,7c-3.8,4.3-5.7,9.9-7,15.5
			c-3.4,15.5-1.7,31.7,1.3,47.3c2.1,10.9,5,21.9,11.4,30.9c2.6,3.5,6.1,6.9,10.4,7.2c0.6,0,1.2,0,1.7-0.3c0.5-0.3,0.9-0.8,1.3-1.3
			c5.4-7.8,5.1-18.3,9.1-26.9c3.1-6.5,8.5-11.6,14.4-15.8c9.5-6.7,22-11.6,33.6-10.4L1928.5,656.4z M1929.1,600.6
			c-8.8,1.8-16.9-6.4-25.9-6.1c-4.5,0.2-8.7,2.5-12.5,4.9c-1.9,1.2-3.8,2.5-5.4,4.1c-6.4,6.6-6.6,17.3-12.4,24.4
			c-1.9,2.3-4.2,4.1-5.8,6.6c-1.6,2.5-2.1,6-0.1,8.2c1.9,2.1,5.1,2.1,7.9,2c2.5-0.1,5.1-0.3,7.6-0.4c3.7-0.2,7.5-0.4,11.1,0.6
			c1.9,0.5,3.7,1.3,5.6,1.9c9.4,3.2,21.2,1.7,29.5-3.6L1929.1,600.6z M1841.1,878.4c-3.2,0.6-6.2,2-9.2,3.2
			c-7.1,2.8-14.8,4.1-22.5,3.8c-0.9,0-1.9-0.1-2.7,0.4c-1.5,0.9-1.6,3.2-0.6,4.7c1,1.4,2.7,2.2,4.4,2.9c3.3,1.4,6.7,2.8,10,4.1
			c2.3,1,4.7,1.9,7.2,2c5.3,0.2,9.8-3.4,14.4-6c6.5-3.7,14.1-5.6,19.9-10.5c1.6-1.3,5.9-5.2,2.5-6.6c-2.6-1.1-7,1.7-9.6,1.9
			C1850.2,878.7,1845.6,877.6,1841.1,878.4z M1676,824.1c5.2,7.1,9.3,15.8,17.2,19.6c5.3,2.6,11.4,2.5,17.2,1.9
			c2.1-0.2,4.3-0.5,6.1-1.6c1.8-1.1,3.3-3.1,3-5.2c-5.9-2.4-11.8-4.9-17.8-7.3c-3.9-1.6-7.8-3.3-10.6-6.4c-2.1-2.4-3.4-5.5-4.6-8.5
			c-1.4-3.4-2.7-6.8-3.8-10.3c-1.4-4.7-2.3-9.5-4.4-13.9c-3.9-8.5-12.2-14.9-21.4-16.5c-2.7-0.5-5.5-0.6-8.3-0.7
			c-2.8-0.1-5.6-0.2-8.3,0.6c-2.4,0.7-4.5,2-6.6,3.3c-2.5,1.6-5,3.4-6.8,5.7c-2.6,3.4-3.4,8.8-0.4,12.3c2.2,2.6,5.9,2.4,9,2.9
			c10.1,1.5,19.8,5.5,28,11.7C1668.3,815.1,1672.5,819.3,1676,824.1z"/>
	</g>
</g>
</svg>
