<?xml version="1.0" encoding="utf-8"?>
<!-- Generator: Adobe Illustrator 23.0.2, SVG Export Plug-In . SVG Version: 6.00 Build 0)  -->
<svg version="1.1" id="Capa_1" xmlns="http://www.w3.org/2000/svg" xmlns:xlink="http://www.w3.org/1999/xlink" x="0px" y="0px"
	 viewBox="0 0 598 845" style="enable-background:new 0 0 598 845;" xml:space="preserve">
<style type="text/css">
	.st0{fill:#F9F4F2;}
	.st1{fill:#C69C6D;}
	.st2{clip-path:url(#SVGID_2_);}
	.st3{fill:#C18F5D;}
	.st4{fill:#B78253;}
	.st5{fill:#B7723E;}
	.st6{fill:#AA6333;}
</style>
<rect x="-0.4" y="0.5" class="st0" width="598.7" height="844.5"/>
<path class="st1" d="M598.2,699.6c-26.1-2.4-51.9-7.2-77.1-14.4c-18.4-5.3-37.4-11.8-56.3-8.7s-37.1,20.4-33.5,39.2
	c2.1,10.5,10.1,18.6,15,28.1s5.2,23.6-4.4,28.4c-10.3,5.2-22-5.3-26-16.2c-1.1-2.9-2-6-4.2-8.1c-5.1-4.8-13.4-1.7-19.9,1.1
	s-15.9,4-18.9-2.4c5.3-6.2,2.2-16.7-4.7-21c-6.9-4.4-15.9-3.9-23.6-1.4c-15.5,5-29.5,17.4-45.7,15.8c-20.4-2-33-24.9-52.9-29.9
	c-5.1-1.3-10.6-1.4-15.1-4c-3.9-2.3-6.6-6.2-9.1-9.9c-9.2-13.7-18.5-27.3-27.7-41c-3.9-5.8-8-11.7-13.7-15.6
	c-14-9.4-36.2-1.4-40.9,14.8c-3.6,12.2,1.7,25.1,6.9,36.8c5.5,12.4,11.6,25.4,22.9,32.8c3.3,2.1,7,3.9,9.1,7.2
	c3.2,5.3,0.8,12-1.7,17.6c-2.6,5.8-6.1,12.2-12.3,13.2c-7.4,1.2-13.1-6.1-16.8-12.7c-9.1-16.4-18.3-35.6-36.3-41.2
	c-10.8-3.3-22.4-0.8-33.4,1.8c-16.1,3.8-34,8.9-42.2,23.3c-1.3,2.3-2.8,5.2-5.5,5.3c-1.3,0.1-2.6-0.6-3.7-1.4
	c-7.8-5.8-9.1-16.8-10.8-26.4c-1.7-9.6-6.3-20.6-15.9-22.3L-0.4,0.5h597.9L598.2,699.6z"/>
<g>
	<g>
		<defs>
			<rect id="SVGID_1_" y="590.3" width="598.3" height="203.7"/>
		</defs>
		<clipPath id="SVGID_2_">
			<use xlink:href="#SVGID_1_"  style="overflow:visible;"/>
		</clipPath>
		<g class="st2">
			<path class="st3" d="M-1.5,669.6c10.8,5.7,18.1,17.5,18.5,29.7c0.2,6.6-1.5,13.2-1.7,19.9c-0.2,8.2,2.2,16.6,7.6,22.8
				s14,9.7,22,8.1c8-1.6,14.8-9,14.8-17.2c0-10.4-9.8-20.3-6-30c9.6-4.9,21.2-4.9,31.6-1.9s19.8,8.7,28.7,14.8
				c8.9,6.2,17.6,13.1,23.5,22.2c4.6,7.1,7.4,15.4,13.1,21.6c5.7,6.2,16.2,9.4,22.5,3.8c3-2.7,4.4-6.7,5.7-10.5
				c1.1-3.4,2.2-6.8,3.3-10.2c1.9-5.7,3.6-12.3,0.4-17.3c-3.7-5.8-11.9-6.3-17.6-10.3c-11.5-8-8.7-26.1-16-38
				c-6.6-10.7-20.8-15.2-26.6-26.4c-2.4-4.7-3.1-10-3.4-15.3c-0.3-5.7,0-11.8,3.3-16.3c3.2-4.4,9-6.6,14.4-6.5
				c5.5,0.1,10.8,2.1,15.6,4.7c13.3,7.2,24,19,29.7,33c2.2,5.3,3.7,11,6.2,16.1c8.3,16.8,26.3,26.4,37.9,41.1
				c3.3,4.2,6.1,8.8,10.2,12.2s10,5.3,14.8,3.1c2.4-1.1,5.8-2.2,8.4-1.5s4.9,2.1,7.4,3.2c4.1,1.9,8.4,2.9,12.5,4.7
				c4.5,2,8.6,4.7,12.9,7c9.5,4.9,21.1,7.3,30.8,2.8c4.1-1.9,7.7-5,12-6.4c5.3-1.8,11.2-0.8,16.7-2c3.2-0.7,6.2-2.2,9.4-3.2
				c10.4-3.2,21.8-0.5,31.8,3.8c8.8,3.8,16.5,12.8,20.2,21.6c1.9,4.6,3,9.4,5.2,13.8c2.2,4.4,5.9,8.5,10.7,9.4
				c6.7,1.3,14.9,1.6,20.1-2.9s7.9-11.3,8.9-18c0.3-2.3,0.5-4.6-0.4-6.7c-0.6-1.6-1.8-2.9-2.9-4.2c-5.4-6.2-10.1-12.9-14.2-20
				c-4.3-7.6-7.9-16.7-4.8-24.8c3.2-8.3,12.2-12.6,20.8-15.1c5.4-1.5,11.1-2.7,16.6-1.6c4.7,0.9,9.2,3.3,14,3.2
				c4.3-0.1,8.2-2.3,12.5-3c8.9-1.4,18.3,3.7,26.7,0.4c4.8-1.9,9.2-6.6,14.3-5.4c4.3,1,8.1,5.7,12.1,7.5c2.3,1,4.9,1.1,7.5,1.2
				c10.5,0.4,21.8,0.4,30.3-5.7c2.4-1.7,6.5-3.6,9.5-3.4v-4.6c-12.6,2.6-23.5,13.9-36.1,11.5c-6.9-1.3-12.4-6.5-18.8-9.2
				c-7-3-14.9-3-22.5-2.9c-14.2,0.1-28.4,0.3-42.6,0.4c-15.2,0.1-31.9,0.8-43.3,10.9c-5.5,4.8-9.1,11.5-11.3,18.4
				c-0.8,2.6-1.5,5.3-1.4,8.1c0.1,3.7,1.6,7.2,3,10.7c2.2,5.4,4.4,10.8,7.5,15.7c2.7,4.2,5.9,8,8.3,12.4c2.3,4.4,3.7,9.6,2.1,14.4
				c-2.5,2.4-6.6,2.4-9.7,1s-5.6-4.1-7.8-6.7c-5.8-6.5-11.3-13.3-16.5-20.2c-3.4-4.6-6.8-9.3-11.4-12.6s-10.9-5-16.1-2.8
				c-5.6,2.3-12.3,0.4-18.1-1.4c-5.8-1.8-11.4-4.1-17.5-4.4c-9.8-0.4-18.9,4.6-28.5,6.3c-11.4,2-23.1-0.9-34.4-3.8
				c-12.3-3.2-24.6-6.3-37-9.5c-6.6-1.7-13.5-3.5-18.8-7.9c-2-1.7-3.8-3.7-5.5-5.7c-5.6-6.5-11.1-13-16.7-19.5
				c-12.6-14.7-20.1-32.7-30.3-49.2c-1.4-2.3-2.9-4.6-4.7-6.6c-1.9-2-4.1-3.7-6.3-5.3c-9.1-6.7-19.2-13.7-30.4-12.9
				c-10.2,0.7-19.2,8.1-23.1,17.5s-3,20.4,1.1,29.7c1.2,2.7,2.7,5.4,4.7,7.6c3.1,3.6,7.2,6,11,8.9c3.7,2.8,7.1,6,10.2,9.4
				c13,15.2,11.9,32.7,13.6,35.8c1.7,3.2,4.1,6.1,7.1,8c1,0.6,2.1,1.1,3.2,1.7c2,1,4.1,1.9,6.1,2.9c1.4,0.7,2.7,1.5,3.9,2.5
				c1.8,1.4,3.8,4.3,4.4,5.6c2.7,5.8,1.1,13.2-1.4,19.1c-0.6,1.6-1.5,3.1-2.8,4.1c-1.7,1.2-3.9,1.3-5.9,1.2
				c-2.2-0.1-4.4-0.4-6.5-1.1c-4.7-1.8-8-5.9-11-9.8c-2.1-2.8-4.3-5.7-6.5-8.4c-9.6-11.8-17.3-25-19.5-27
				c-4.1-3.8-9.5-9.8-14.7-11.8c-4-1.5-8.4-1.5-12.5-2.3c-7.8-1.6-14.7-6-22.4-8c-4.1-1.1-11.1-2-14.8-0.1
				c-4.5,2.4-8.1,5.3-11.3,9.2c-6.3,7.7,2,20-0.2,29.7c-0.7,3.1-4.8,7.1-7.9,7.9c-6.6,1.7-13.8-0.6-16.8-6.7
				c-3.7-7.4,0.1-16.2,0.5-24.5c0.1-2.6-0.1-5.2,0.6-7.7c0.8-3,2.9-5.6,4.6-8.2c2.2-3.4,3.8-7.3,3.7-11.3s-2-8.2-5.5-10.1
				c-2-1.1-4.3-1.4-6.6-1.9c-7.7-1.7-16.3-5.8-22-11.2L-1.5,669.6z"/>
			<path class="st4" d="M-1.6,663.4c3.2,2,5.6,3.4,6.7,4c2.8,1.6,4.5,4.5,6,7.3c3.9,7.2,7.1,15.4,5.7,23.5c-0.7,4-2.4,7.8-3.3,11.9
				c-0.6,3-0.7,6.1-0.7,9.1c0,2.9,0.1,5.9,0.8,8.7c1.2,5,4,9.7,8,13c6.3,5.2,15.6,6.7,22.9,3.1c7.3-3.6,11.7-12.6,9.5-20.4
				c-0.7-2.4-1.9-4.6-2.9-6.9c-2.4-5.9-2.9-12.7-1.4-18.9c0.3-1.3,0.7-2.6,1.6-3.6c2.6-3.2,7.5-2.4,11.4-1.3
				c8.8,2.6,18.1,2.4,27.2,3.7c4.9,0.7,8.3,5.1,11.6,8.9c6.6,7.7,14.9,14,24.1,18.3c3.7,1.7,7.6,3.2,10.5,6
				c3.6,3.4,5.3,8.3,5.7,13.1c0.2,2.3,0.2,4.6,0.5,6.8c0.4,3.1,1.5,6.1,2.6,9s2.2,5.7,3.9,8.2c1.8,2.5,4.3,4.6,7.3,5.2
				c1.8,0.4,3.7,0.1,5.5-0.2c3.1-0.6,6.2-1.7,8.7-3.6c2.5-1.9,3.7-5.4,4.5-8.4c1.6-6.8,2.6-13.6,3.2-20.6c0.3-4.1,0.4-8.5-1.6-12.1
				c-2.7-4.8-8.5-6.9-12.9-10.2c-8-6.1-11.5-16.4-14.3-26.1c-2.8-9.7-5.7-20-13.2-26.8c-2.7-2.4-5.9-4.3-8.6-6.6
				c-6.7-5.5-11-13.8-11.8-22.5c-0.3-3,0-6.3,1.7-8.8c1.4-2,3.6-3.2,5.8-4.2c14.6-6.5,33.1-3.2,44.6,8c2.1,2.1,4,4.3,6.1,6.5
				c4.4,4.6,9.6,8.4,14,13.2c4.3,4.7,5.4,11,8,16.9c0.5,1.2,1,2.4,1.5,3.6c0.3,0.6,0.5,1.2,0.9,1.7c0.5,0.6,1.1,1,1.7,1.4
				c4.5,3.4,5.7,9.8,8.4,14.8c2.2,4.1,4.4,8.2,6.5,12.3c1.3,2.5,2.6,4.9,4.4,7.1c1.7,2.1,3.9,3.9,6.1,5.6c5,3.7,10.9,6.9,17.1,6.2
				c2.2-0.2,4.4-1,6.6-1.3c1.6-0.2,3.3-0.3,4.9-0.3c6.2-0.1,13,0.4,19.2-0.1c5.8-0.4,11.3,1.9,16.9,3.4c10.6,2.9,21.7,3.3,32.7,3.6
				c2.7,0.1,5.4,0.1,7.9-0.6c1.5-0.5,2.9-1.2,4.3-1.6c2.5-0.8,5.1-0.7,7.7-0.7c5.4,0.1,10.7,0.2,16.1,0.3c5.2,0.1,10.7,0.2,15.7-1.1
				c4-1,8,1.1,12.1,1.5c2.5,0.2,5.1-0.2,7.5,0.6c2.5,0.8,4.4,2.9,6.1,5c6.6,8.1,11.8,17.8,12.4,28.2c0.2,2.4,0.1,4.9,0.5,7.3
				c1.3,7.5,7.3,13.3,14.1,16.7c2.1,1,4.3,1.9,6.5,2.3c4.8,0.9,9.9,0.1,13.9-2.6c4.1-2.6,7-7,7.7-11.8c0.3-2.1,0.2-4.2,0.1-6.4
				c-0.2-2.9-0.5-6.3-0.5-9.3c0-1.9-1-3.6-2.2-5c-5.5-6.6-14.9-8.6-20.9-14.8c-4.9-5.1-7-12.5-6.6-19.5c0.4-7.1,3-13.8,6.3-20.1
				c1-2,2.2-3.9,3.7-5.6c1.8-2,4.1-3.5,6.3-5c2.3-1.5,4.7-3.1,7.3-3.9c2.6-0.8,5.4-0.7,8.1-0.9c9.5-0.7,19-4.8,28.3-2.8
				c3.8,0.8,8,0.9,11.4,2.7c5.8,3.1,12.8,3,19.4,2.4c6.6-0.6,13.3-1.5,19.7,0.2c7.3,2,13.2,7.1,19.8,10.8
				c13.3,7.5,30.2,8.7,44.5,3.2l-0.1-13.5c-4.7,1.1-9.5,5.1-14.3,5.7c-1.5,0.2-3.1,0.1-4.7,0.1c-4.6,0-8.9,2.2-13.3,3.5
				c-5.6,1.7-11.6-0.7-16.2-4.3c-7.1-5.5-11.7-13.5-15.9-21.4c-0.5-0.9-0.9-1.8-1.7-2.5c-1.2-1.2-3-1.6-4.8-1.5
				c-7.1,0.2-12.2,6.8-18.7,9.9c-4.3,2-9.1,2.5-13.8,2.9c-4.7,0.3-9.4,0.6-14-0.1s-9.2-3.7-13.6-5.3c-9.4-3.2-20.4-1.3-28.2,4.9
				c-4.6,3.7-8,8.6-11,13.7c-7.5,12.8-12.9,27.7-10.2,42.3c0.7,3.8,2.2,7.8,5.5,9.7c2.3,1.3,5.1,1.4,7.6,2.3c6,2,9.8,8,12,13.9
				c0.7,1.9,1.3,3.9,1.2,5.9c-0.1,4.6-3.7,8.9-8.2,10s-9.5-0.7-12.6-4.2c-2.4-2.7-3.6-6.1-4.9-9.5c-2.7-7.4-5.4-14.8-8-22.2
				c-1.4-3.8-2.8-7.6-5-10.9c-2.3-3.3-5.6-6.1-9.5-6.9c-4.4-0.9-8.9,0.8-13.4,0.7c-2.6-0.1-5.1-0.7-7.6-1.1
				c-4.1-0.7-8.3-0.6-12.5-0.6c-4.1,0-9.1,1.8-12.7-0.2c-5.8-3.2-13.1-3.6-19.2-1c-2.5,1.1-4.7,2.6-7.3,3.5
				c-5.4,1.9-11.5,1-16.8-1.2s-10.1-5.5-15-8.4c-4.1-2.4-8.6-4.6-13.3-4.1c-3.7,0.4-7,2.6-10.7,3.6c-5.3,1.6-11.1,0.7-16.3-1.3
				s-9.8-5.1-14.5-8.2c-4-2.7-8-5.3-11.9-8c-0.9-0.6-2.4-1-2-2c-16.2-12.2-29.1-28.7-37.3-47.2c-1.5-3.5-3-7.2-5.4-10.2
				c-2.1-2.5-4.9-4.4-7.7-6c-14.5-8.5-31.7-12.2-48.5-10.5c-6.2,0.6-13,2.5-16.3,7.8c-3,4.8-2,11-0.8,16.6
				c1.4,6.7,3.1,13.8,7.8,18.8c2.6,2.8,5.9,4.8,9,7.1c10.6,7.8,18.2,19.6,21.1,32.4c1.8,8.3,2.2,17.9,8.6,23.5
				c4.2,3.7,10.3,4.8,14.1,8.9c4.5,4.7,4.8,12,3.9,18.4c-0.6,4.8-1.8,9.6-4.8,13.4c-2.9,3.8-8,6.3-12.6,5c-5-1.4-8.1-6.6-9.2-11.7
				c-1.1-5.1-0.8-10.4-1.8-15.5c-1.6-7.7-6.4-14.7-13-18.9c-8.3-5.3-19.1-6.4-25.9-13.5c-2.1-2.2-3.7-4.8-5.8-6.9
				c-3.9-3.8-7.8-7.3-12.7-9.6c-5.6-2.6-11.2-5.3-17.3-6.2s-12.7,0-17.5,4c-5.6,4.7-7.4,12.4-8.4,19.6c-0.6,4.4-1.1,8.7-1.4,13.1
				c-0.1,1.9-0.2,3.9-1.1,5.7c-2,4.3-7.5,5.8-12.2,5.5c-3.5-0.2-7.3-1.2-9.5-4c-2-2.7-2.1-6.4-1.9-9.7c0.4-7.2,1.5-14.3,1.8-21.4
				s-0.2-14.5-2.9-21.2c-3.3-8.2-10.1-15.3-18.2-19L-1.6,663.4z"/>
			<path class="st5" d="M600.1,699.7c-4.6,1.4-9.1,2.7-13.9,3.3c-4.7,0.6-9.6,0.3-14-1.6c-4.6-1.9-8.5-5.6-13.3-7.1
				c-4-1.3-8.3-1-12.5-1.4c-2.6-0.2-5.1-0.7-7.7-1.1c-3.5-0.6-6.9-1.3-10.4-1.9c-7.4-1.3-15.1-2.8-21.2-7.2
				c-9.5-6.8-22.6-6.5-34.1-8.4c-8.3-1.4-17-2.7-24.8,0.4c-2.6,1.1-5.1,2.6-7.4,4.3c-7.4,5.3-14.2,12.2-17,20.8
				c-4.2,12.6,0.4,27.2-4.8,39.4c-1.8,4.3-6.2,6.9-9.9,9.7c-2.7,2.1-5.8,4.1-9.2,4.5c-5.8,0.8-11.7-3.1-14.1-8.5
				c-0.8-1.7-1.3-3.4-1.8-5.2c-1.2-4.2-2.4-8.4-3.5-12.6c-1.8-6.3-3.9-13-9.1-16.8c-3.4-2.5-7.7-3.4-11.8-4.1
				c-0.9-0.2-1.9-0.3-2.9-0.1c-1.1,0.3-1.9,1.1-2.7,2c-2.3,2.3-4.6,4.7-6.9,7c-3.8,3.8-7.1,8.2-10,12.7c-1.7,2.7-3.4,5.5-5.7,7.6
				c-4.3,3.9-10.8,4.9-16.3,3.2c-5.6-1.6-10.3-5.6-13.6-10.3c-3-4.3-5-9.3-9-12.7c-6-5.2-14.7-5.5-22.6-5.4c-0.7,0-1.4,0-2.1,0.2
				c-1.5,0.4-2.8,1.5-4.1,2.3c-3.1,2-6.8,3-10.4,2.8c-8.8-0.6-18-1.7-25.4-6.3c-3.5-2.2-6.5-5-9.2-8.1c-10.4-11.4-17.8-25-25.9-38.1
				c-1.2-2-2.5-4-4.3-5.5c-1.6-1.4-3.5-2.3-5.3-3.4c-4.2-2.6-7.8-6.1-12.1-8.5s-9.8-3.6-14.1-1.3c-4.1,2.2-9.1,3.9-11.1,8.2
				c-1.9,4.1-0.7,8.8,0.6,13.2c2.5,8.8,5,17.6,7.5,26.4c2.4,8.3,4.7,17.1,3,25.5c-1.1,5.4-4.5,10.9-9.8,12.2
				c-3.7,0.9-7.6-0.4-11.3-1.7c-10.2-3.6-19.3-9.8-28.2-15.9c-3.4-2.3-6.9-4.8-11-5.2s-8.1,1.5-11.7,3.6c-4.1,2.3-8,5-11.2,8.4
				c-2.4,2.6-4.5,5.8-7.8,7c-2,0.7-4.3,0.6-6.4,0.7c-7.8,0.5-15.8,5.4-17.9,12.9c-0.2,0.7-0.6,1.3-1.3,1.7c-2.7,1.7-5.5,3.3-8.6,4.1
				s-6.5,0.8-9.4-0.6c-3.5-1.7-5.8-5-7.5-8.5c-4.1-8.4-2.4-18-2.8-27.3c-0.2-3.6-2.5-6.8-4.8-9.6s-5.6-5-9.2-5l-0.6-45.9
				c5.1,1.6,10.2,3.3,14.8,5.9c4.6,2.6,8.8,6.2,11.4,10.9c4.1,7.5,3.4,16.8,0.9,25s-6.7,15.8-9.5,23.9c-0.7,2.2-1.4,4.5-1,6.7
				c0.6,3.1,3.2,5.6,6.2,6.7c3,1.2,6.2,1.2,9.4,1.1c4-0.2,8.6-1,10.8-4.4c0.9-1.3,1.2-2.9,1.4-4.5c0.2-2.2,0-4.5-0.6-6.7
				c-1.6-5.7-6-11.2-4.6-17c0.8-3.5,3.7-6.2,6.4-8.6c6.1-5.4,13-11.2,21.1-10.9c5.4,0.2,10.2,3,14.8,5.8c3.8,2.3,9.1,3.2,11.6,6.9
				c5.3,7.8,12.6,14.3,20.9,18.6c4.3,2.2,8.9,3.9,12.6,6.9c2.5,1.9,4.5,4.4,7.2,6s6.2,2.4,8.8,0.8c2.2-1.4,3.2-4,3.8-6.5
				c0.4-1.9,0.7-3.9,0-5.7s-2.2-3.2-3.2-4.8c-2.9-4.2-2.7-9.9-4.8-14.5c-1.6-3.5-4.4-6.4-6.4-9.6c-5.7-9-5.6-21.3,0.4-30.2
				c4.3-6.4,11-10.6,17.6-14.7c4.6-2.9,9.2-5.7,13.8-8.6c2.2-1.3,4.4-2.7,6.9-3.2c5.2-1,10.3,2.1,14.7,5.1c6.6,4.5,13,9.3,18.2,15.3
				c5.1,6,8.8,13,12.8,19.7c7.3,12.4,15.8,24.4,27.4,32.8c4.5,3.3,9.7,6.1,15.3,6.3c4.7,0.2,9.6-0.8,14.1-2.1
				c4.1-1.2,8.5-1.4,12.6-0.4c9.8,2.2,17.7,9.9,27.4,12.5c5.3,1.4,10.8,1.2,16.2,0.8c3.8-0.3,7.6-0.6,11.1-2.2
				c4.5-2,7.9-5.9,11.6-9.3c3.6-3.4,8.1-6.5,13.1-6.4c3.1,0,6,1.3,8.8,2.6c2.5,1.1,5,2.4,6.9,4.3c2,2.1,3.2,4.9,4.3,7.6
				c4,9.7,8.5,19.2,13.4,28.5c0.4,0.7,0.8,1.5,1.6,1.9c0.6,0.3,1.2,0.2,1.8,0.1c5.2-0.8,8.7-6.4,8.2-11.7
				c-0.7-7.2-0.6-14.5,0.2-21.7c0.7-5.9,1.9-12,5.1-17c2.4-3.7,5.7-6.7,9-9.6c4.4-3.9,8.7-7.7,13.1-11.6c3.7-3.3,7.5-6.7,11.9-9
				c13-7,29.3-4.2,42.5,2.6c7.4,3.8,14.3,8.8,22.5,10.2c5.6,0.9,11.3,0.1,16.9,0.9c11.1,1.7,20.2,9.7,30.8,13.5
				c13.2,4.7,29.2,1.8,40.2-7L600.1,699.7 M87.4,699c1-0.5,1.6-1.7,0.7-2.6c-1-1-3-1.5-4.2-2.3c-1.4-0.9-2.6-2-3.6-3.3
				c-0.8-1-1.5-2.2-2.5-3.1c-1-1-2.1-1.8-3.3-2.6c-1.4-1-2.9-1.9-4.4-2.7c-2.5-1.4-5.4-2.7-8.2-1.9c-1.4,0.4-2.6,1.3-3.7,2.2
				c-2.2,1.6-4.3,3.2-6.5,4.9c-1.2,0.9-2.3,1.8-3.3,2.9c-1.1,1.3-1.8,2.9-2.4,4.5c-1.9,4.9-2.9,10.3-2.2,15.5
				c0.3,1.7,0.7,3.4,1.7,4.8c0.3,0.4,0.7,0.8,1.2,1c0.6,0.2,1.2,0.1,1.8-0.1c3.8-0.8,7.5-1.7,11.3-2.5c1.5-0.3,2.9-0.6,4.3-1.2
				c2.2-1,4.1-2.7,6.2-3.9c2.3-1.2,4.9-1.9,7.1-3.3c2-1.3,3.6-3.2,5.6-4.5C84.4,699.9,86,699.7,87.4,699z M-2.1,686
				c2.1,1.6,5.2,1.2,7.5,2.6c1.5,0.9,2.7,2.3,3.7,3.7c0.6,0.8,1.1,1.6,1.9,2.1c0.8,0.5,1.9,0.7,2.7,0.2c1-0.6,1.1-2,1.1-3.1
				s0-2.2,0-3.3c0-1.3,0-2.6-0.3-3.9c-0.2-0.8-0.4-1.5-0.7-2.2c-1.4-4.6-1.8-9.7-4.5-13.8c-1.7-2.5-4.1-4.4-6.6-6.3
				c-1.6-1.2-3.7-2.8-5.3-4L-2.1,686z M320.9,731.5c0.5-0.1,1.1-0.2,1.6-0.4c1.3-0.5,2.5-1.4,3.6-2.3c2.9-2.3,5.6-4.9,8.4-7.4
				c0.8-0.7,1.6-1.6,1.4-2.6c-0.3-1.2-1.7-1.6-2.9-1.7c-2.6-0.3-5.2-0.4-7.7,0.2c-1,0.2-1.9,0.5-2.9,0.8c-2.8,0.6-5.8,0.2-8.5-0.6
				s-5.3-2.2-7.9-3.4c-1.2-0.6-2.5-1.2-3.9-1.1c-0.1,0-0.3,0-0.4,0.1c-0.2,0.2-0.2,0.6-0.1,0.9c1.3,3.8,2.2,8.5,4.8,11.7
				c2.3,2.8,5,5,8.7,5.8C317,731.7,319,731.8,320.9,731.5z M523.7,685.3c0.7,0.3,1.5,0.6,2.3,0.8c0.7,0.1,1.5,0.1,2.2,0.1
				c1.5,0,3-0.1,4.3-0.8c0.1-0.1,0.2-0.1,0.3-0.2c0.1-0.1,0.1-0.3,0.1-0.5c0.1-1.2-0.4-2.4-1.1-3.4s-1.7-1.8-2.8-2.4
				c-1-0.6-2.1-1.1-3.3-1.2c-1-0.1-2,0.1-3,0c-1.1-0.1-2.1-0.5-3.2-0.7c-1.1-0.2-2.2-0.3-3.3-0.2c-1,0.1-2,0.8-1.4,1.9
				c0.6,0.9,1.7,1.7,2.5,2.4C519.1,682.7,521.3,684.2,523.7,685.3z"/>
			<path class="st6" d="M-2.9,642c4-4.1,9.2-3.5,14.4-0.9c5.1,2.6,8.7,7.5,11.2,12.7c5.9,12.3,6.7,27,2.1,39.8
				c-3.5,9.7-14,23.8-6.1,30.5c9.2,7.9,39.4-4.9,51.1-19.4c2.1-2.7,4.1-5.7,7.2-7.1c2.7-1.3,5.9-1.1,8.9-0.7
				c11.5,1.7,22.3,7.8,29.8,16.7c1.6,1.9,3.2,4.1,5.6,4.8c8.6,2.6,11.8-14,20.7-14.8c3.1-2.8-2.6-6.4-6.6-7.6
				c-12.1-3.7-18.3-18.6-15.4-30.9c2.8-12.4,12.5-22.1,23.2-28.9c8.2-5.2,17.8-9.1,27.5-8.1c9.7,1.1,19.2,8.4,20,18.1
				c0.6,6.7-2.7,13.9,0.3,20s10.7,7.8,17,10.3c13.2,5.2,25.2,24.3,39.9,27.7c10.4,2.5,18.6-20.1,32.6-10.8
				c3.8,2.5,3.7,11.3,6.1,15.8c5.3,9.9,3,23,10.9,25.6c10.9,3.6,15.2,4.9,24-2.5c13-10.9,4.4-33.5,13.8-47.7
				c16.7-8,39.4,5.6,40.4,24c0.6,11.2-4.4,25,4.4,31.9c7.3,5.7,18.9,0.4,23.2-7.9c4.3-8.3,3.9-18.1,4.4-27.4
				c0.5-9.3,2.7-19.6,10.3-25c5.2-3.7,11.8-4.4,18.1-4.9c23.5-2.1,26.4,2.1,37.7,1.9c11.4-0.3,15.8-4.3,25.5-6.7
				c13-3.2,20.7-7,30.5-4.7c10.9,2.6,20.3,16.2,29,23.3s22.7,17.5,30.7,9.7c6.3-6.2,5.8-16.7,10.4-24.2l0.2,26
				c-6.5,4.5-15,7.4-22.9,8c-3.1,0.3-6.5,0.1-8.8-2.1c-1.4-1.3-2.1-3.2-3.3-4.7c-2.6-3.1-7-3.9-10.1-6.4c-3.3-2.6-4.8-6.8-7.2-10.2
				c-5.1-7.1-14-10.5-22.7-11c-8.7-0.4-17.3,1.8-25.7,4.1c-8.4,2.3-18.1,5.6-26.8,4.7c-18.8-1.9-38.3,9.1-46.4,26.2
				c-1.2,2.5-2.2,5.2-3.7,7.5c-1.4,2.2-3.3,4-5,5.9c-5.3,5.8-9.5,12.6-12.5,19.9c-1.8,4.5-3.4,9.6-7.4,12.4
				c-3.6,2.5-8.4,2.6-12.5,1.2s-8.4-4.5-12-7c-2.9-6.5-3.5-13.8-3.7-21c-0.2-7.1-0.1-14.4-2-21.3c-1.8-6.9-6-13.6-12.4-16.7
				c-4.1-1.9-8.7-2.3-13.3-2.4c-1,0-2.1,0-3.1,0.4c-3,1.2-3.3,5.2-3.1,8.5c0.2,4.3,0.4,8.6,0.7,13c0.3,5.5,0.5,11-0.5,16.4
				c-1.1,5.4-3.6,10.7-8,14c-5.3,4-12.4,4.6-19.1,4.7c-3.4,0.1-6.9,0.1-10.3-0.6c-4-0.8-7.8-2.7-11.5-4.5
				c-6.4-3.2-12.8-6.4-19.2-9.6c-3.2-1.6-6.4-3.2-9.4-5.1c-3.2-2-6.2-4.5-9.5-6.4c-7.8-4.8-18.5-6.8-23.1-14.7
				c-4.1-7.2-8.6-14.7-15.8-18.8c-5.7-3.3-12.6-4.1-18.5-7c-6.4-3.2-11.5-9-13.8-15.8c-1.8-5.5-2.9-12.6-8.4-14.3
				c-3.3-1-6.8,0.5-9.5,2.7c-2.7,2.1-4.8,4.9-7.5,7c-3.6,2.7-8.1,4.1-12.3,5.6c-4.3,1.5-8.6,3.4-11.6,6.8c-3,3.4-4.1,8.8-1.5,12.5
				c2.7,3.8,7.9,4.4,12.3,5.8c3.3,1,6.4,2.7,9.1,4.8c1.3,1,2.6,2.3,3,3.9c0.4,1.8-0.3,3.6-0.9,5.3c-1.6,4-3.2,8-4.8,12
				c-1,2.5-2.1,5.1-3.9,7.1c-4.1,4.3-11,4.5-16.5,2.5s-10.2-5.8-15.2-8.9c-5-3.1-10.9-5.5-16.7-4.4c-10.3,2.1-15.8,14.6-26,17.3
				c-4.9,1.3-10.2,0.1-15.1,1.4c-7.6,2.1-12.7,9.7-20.4,11.3c-6.4,1.3-13.1-2.2-16.9-7.4c-3.8-5.3-5.2-12-5.2-18.5
				c0-5.5,0.7-11.1-0.6-16.5s-5.7-12.8-11.2-12.8L-2.9,642z M415,703.3c0.1,2.1,0.3,3.6,2.7,3.8c5,0.4,8.9-5,11.5-8.5
				c2.3-3.2,4.7-6.4,7-9.5c0.8-1.2,1.7-2.3,2.1-3.7s0.2-3-0.8-4c-5.2-1-10.7,0.2-15,3.1c-2.2,1.5-4,3.4-5.9,5.3
				c-0.6,0.6-1.3,1.3-1.6,2.2c-0.2,0.7-0.2,1.4-0.2,2.1C414.9,697.2,414.9,700.3,415,703.3z M412.8,724.1c0.5-0.1,0.7-0.6,1.1-1
				c0.5-0.5,1.3-0.8,1.8-1.3c0.4-0.4,0.6-0.8,0.9-1.3c1.2-2.3,2.2-4.7,3.2-7c0.2-0.4,0.3-0.9,0.2-1.4c-0.3-0.8-1.4-0.9-2.2-0.8
				c-0.7,0.1-1.3,0.2-2,0.3c-0.3,0.1-0.7,0.2-0.9,0.4c-0.3,0.3-0.4,0.6-0.5,1c-0.5,1.6-0.9,3.3-1.4,4.9
				C412.6,718.7,410.8,724.4,412.8,724.1z M380.5,750.5c1,0,2.6-1.3,3.3-1.9c0.2-0.2,0.4-0.3,0.4-0.5c0.2-0.4-0.1-0.9-0.4-1.2
				c-0.4-0.3-0.8-0.4-1.2-0.6c-1.8-0.7-3.2-2.1-4.6-3.5c-0.7-0.8-2-1.8-2.7-1.5c-0.4,0.2,0.3,2.4,0.7,3.6c0.4,1.2,0.9,2.4,1.6,3.4
				C378.3,749,379.5,750.5,380.5,750.5z M287.7,733.6c1.7-0.1,1.9-1,1.6-2.5c-0.7-3.3-2.3-6.4-2.4-9.7c0-1.2,0.1-2.5-0.1-3.7
				c-0.3-2.1-1.6-3.8-2.5-5.7s-1.5-3.9-1.7-6s0-4.4-0.7-6.4c-0.6-1.7-1.8-3.2-3.4-4c-3.1-1.7-7-1-10,0.7s-5.5,4.3-8,6.7
				c-2.6,2.4-5.5,4.6-8.9,5.2c-0.2,0-0.4,0.1-0.5,0.3c0,0.1,0,0.5,0,0.6c0.7,3.3,2.5,6.2,5.1,8.4c2.8,2.4,6.5,3.6,10,4.7
				c1.1,0.4,2.3,0.7,3.4,1.1c5,2,8.8,6,13.4,8.8C284.4,732.9,286.1,733.7,287.7,733.6z M183.5,644.6c0.4-0.3,1-0.6,1.2-1.1
				c0.3-0.5,0.2-1.2-0.1-1.7s-0.7-0.9-1.1-1.3c-0.9-0.8-1.7-1.6-2.8-2.1c-1-0.5-2.3-0.8-3.4-0.4c-1.5,0.5-2.4,2-3.8,2.9
				c-1,0.6-2.2,0.8-3.4,1.1c-0.8,0.2-1.8,0.5-1.8,1.3c0.9,0.7,2,1.3,3.2,1.6c0.7,0.2,1.5,0.3,2.3,0.6c1.6,0.6,3,2.8,4.8,2.7
				C180.8,648.3,181.9,645.8,183.5,644.6z M173.1,633.5c-0.6-0.3-1.4-0.1-2.1-0.1c-2.2,0.2-4.4-0.8-6.6-0.9
				c-1.9-0.1-3.9,0.6-5.4,1.8c-1.3,1.1-2.3,2.6-3.8,3.4c-0.9,0.5-1.9,0.7-2.9,0.9c-2.1,0.5-4.1,0.9-6.2,1.4
				c-1.4,0.3-2.9,0.6-4.2,1.4c-4,2.4-4.4,8.1-7.9,11.2c-0.6,0.6-1.4,1.3-1.3,2.1c0.2,0.9,1.4,1.1,2.4,1.2c1.1,0,2.2,0,3.2,0
				c1.1,0,2.2-0.1,3.3-0.3c2.7-0.7,4.8-2.6,7.3-3.7c1.9-0.7,4-0.9,5.8-1.7c4.1-1.6,6.8-5.4,9.4-9c0.4-0.6,0.8-1.2,1.4-1.6
				c1.2-1,2.7-1.4,4.2-1.9C170.7,637.4,175.6,634.7,173.1,633.5z M140.3,709.7c-1.6,1.1-3.3,2.2-4.4,3.8c-0.7,1.1-1.1,2.4-1.9,3.4
				c-1.1,1.4-2.7,2.3-4.4,2.9c-0.6,0.2-1.3,0.6-1.4,1.3c0.6,0.3,1.3,0.3,1.9,0.1c0.6-0.2,1.2-0.5,1.9-0.6c0.5-0.1,1.1-0.1,1.6-0.1
				c2,0,4.2,0,5.7-1.3c0.6-0.6,1-1.3,1.4-2s0.7-1.3,1-2c0.3-0.8,0.5-1.6,0.8-2.3c0.4-1,0.9-1.9,1.5-2.8c0.1-0.1,0.2-0.3,0.2-0.5
				s-0.2-0.3-0.4-0.4C142.6,708.6,141.4,709,140.3,709.7z M-2.5,681.9C1.1,681.5,5,683,8,685.1c1.8,1.3,3.5,2.9,4.5,4.9
				c1.3,2.7,1.2,5.9,2.8,8.4c0.1,0.2,0.2,0.3,0.4,0.4c0.2,0.1,0.4,0.1,0.5,0.1c1.4-0.1,2.5-1.1,3.2-2.3c2-2.8,2.9-6.2,3.6-9.6
				c0.9-4.9,1.5-9.9,0.4-14.7c-0.4-1.7-1-3.5-2.2-4.8c-0.8-0.9-1.7-1.5-2.7-2.2s-1.9-1.3-2.9-1.9c-1-0.7-2.1-1.4-3.4-1.5
				c-0.7-0.1-1.4,0.1-2.1,0.2c-4,0.7-7.1,2.5-12.9,0.6L-2.5,681.9z M-2.7,658.6c2.6,1.7,6.3,2.1,9.2,1.1c0.6-0.2,1.1-0.5,1.7-0.6
				c1.1-0.3,2.3-0.2,3.4-0.2c0.8,0,1.6,0.1,2.4,0.1c0.9,0,1.9,0,2.5-0.6c0.6-0.7,0.4-1.8,0-2.6c-0.5-0.8-1.2-1.4-1.8-2.1
				c-1.8-2.2-1.9-5.5-3.9-7.6c-0.5-0.5-1.1-0.9-1.7-1.3c-1.2-0.8-2.5-1.5-3.9-1.5c-2.8-0.1-5.3,2.5-8.1,1.9L-2.7,658.6z M20.3,731.8
				c-0.8-0.1-2.2-0.9-3-0.6c-1.1,0.4,0.3,1.6,0.8,2.1c1.8,1.5,4.2,2.1,6.2,3.3c1.4,0.8,2.8,1.9,4.5,1.9c0.8,0,1.5-0.3,2.2-0.6
				c1-0.4,2.1-0.9,3.1-1.3c0.5-0.2,1-0.4,1.4-0.9c0.3-0.4,0.3-1.2-0.2-1.5c-0.3-0.1-0.6-0.1-0.9-0.1c-2.4,0.1-4.8-0.3-7-1.2
				c-0.9-0.4-1.9-0.8-2.9-1C23.1,731.6,21.7,732,20.3,731.8z M79.8,711.1c2.6-1.9,5.6-3.2,8.7-3.6c1-0.1,2.1-0.1,2.8-0.9
				c0.9-1.1,0.7-2.8-0.1-3.8c-0.6-0.7-1.3-1.3-2.1-1.8c-0.6-0.4-1.3-0.8-2.1-1c-0.8-0.2-1.7-0.2-2.6-0.2s-1.7,0.1-2.6,0.2
				c-2.9,0.5-5.5,2.5-6.7,5.1c-0.6,1.4-0.9,2.9-1.4,4.3c-0.3,1.1-0.8,2.2-1.2,3.2c-0.4,0.9-0.8,1.9-1.4,2.6c-0.9,1-2.1,1.5-3.3,2
				c-1.8,0.8-3.7,1.5-5.5,2.3c-0.1,0.7,0.4,1.3,1,1.6s1.2,0.4,1.9,0.5c1.8,0.2,3.7,0.2,5.4-0.6c2.5-1.2,3.7-3.9,5.4-6.1
				C77.1,713.5,78.4,712.2,79.8,711.1z"/>
		</g>
	</g>
</g>
</svg>
