<?xml version="1.0" encoding="utf-8"?>
<!-- Generator: Adobe Illustrator 23.0.2, SVG Export Plug-In . SVG Version: 6.00 Build 0)  -->
<svg version="1.1" id="Capa_1" xmlns="http://www.w3.org/2000/svg" xmlns:xlink="http://www.w3.org/1999/xlink" x="0px" y="0px"
	 viewBox="0 0 105 539" style="enable-background:new 0 0 105 539;" xml:space="preserve">
<style type="text/css">
	.st0{clip-path:url(#SVGID_2_);}
	.st1{fill:#33CCCC;}
</style>
<g>
	<defs>
		<rect id="SVGID_1_" x="1.1" y="-0.4" width="104.9" height="539.4"/>
	</defs>
	<clipPath id="SVGID_2_">
		<use xlink:href="#SVGID_1_"  style="overflow:visible;"/>
	</clipPath>
	<g class="st0">
		<g>
			<path class="st1" d="M-657.4,293.9c-0.9,0-1.7,0-2.6,0v-0.8c19.1,0.2,35.9-1.7,53.8-3.7c27.7-3.1,56.2-6.4,96.9-2.3
				c27.9,2.8,56.4,0.6,84.1-1.6l1-0.1c4.2-0.4,8.6-0.8,12.7-1c9.3-1,19-1.7,28.6-2c20.4-0.6,40.8,1.9,60.7,4.3
				c20.3,2.4,41.2,4.8,61.8,4.2c9.4-0.3,19-1.2,28.3-2.2c7.1-0.8,14.6-1.4,21.9-1.9c21.5-1.2,43.4,0.1,64.5,1.3
				c9.3,0.6,18.9,1.1,28.4,1.5c29,1,55.2-0.6,80.4-2.1c42-2.7,85.4-5.2,142.7,4.7l-0.1,0.7c-57.3-9.9-100.7-7.1-142.6-4.7
				c-25.3,1.5-51.5,3.1-80.5,2.1c-9.5-0.4-19.1-1-28.4-1.5c-21.1-1.2-43-2.7-64.4-1.3c-7.3,0.5-14.7,1.1-21.9,1.9
				c-9.2,1-18.8,1.9-28.4,2.2c-20.7,0.7-41.7-1.8-61.9-4.2c-19.9-2.4-40.3-4.7-60.6-4.3c-9.5,0.3-19.2,1-28.5,2
				c-4.2,0.4-8.5,0.9-12.7,1l-1,0.1c-27.7,2.2-56.2,4.5-84.2,1.6c-40.6-4.1-69.2-1-96.8,2.3C-623.2,292.1-639.3,293.9-657.4,293.9z"
				/>
		</g>
		<g>
			<path class="st1" d="M97.5,299.7c-10.1,0-21-1.9-32.4-4c-9.9-1.7-20.1-3.5-29.9-4.1c-16.8-0.9-34.9,0.2-55.1,3
				c-26.6,3.8-54.1,2.8-80.7,1.6c-3.1-0.1-6.3-0.3-9.4-0.4c-52.1-2-104.9-1.8-157,0.7c-1.4,0.1-3.2,0.2-5.4,0.4
				c-11,0.9-31.5,2.4-59.5-1.4c-35.8-4.9-67.3-6.5-99-5.2c-6.8,0.3-14.7,1-23,1.6c-19.2,1.6-40.9,3.3-56.9,1
				c-31.8-4.9-57.6-1.4-82.5,2c-20.8,2.8-42.4,5.7-66.9,3.4l0.1-0.7c24.4,2.3,44.9-0.6,66.7-3.4c25-3.3,50.8-6.9,82.7-2
				c15.9,2.5,37.6,0.7,56.7-1c8.3-0.8,16.2-1.3,23-1.6c31.8-1.2,63.3,0.4,99.1,5.2c27.9,3.8,48.3,2.3,59.4,1.4
				c2.1-0.2,4-0.3,5.4-0.4c52.1-2.5,104.9-2.7,157.1-0.7c3.1,0.1,6.3,0.3,9.4,0.4c26.5,1,53.9,2.2,80.6-1.6
				c20.3-2.9,38.2-3.9,55.2-3c9.8,0.5,20.1,2.3,30,4.1c14.6,2.7,28.4,5,40.6,3.4l0.1,0.7C103.2,299.5,100.4,299.7,97.5,299.7z"/>
		</g>
		<g>
			<path class="st1" d="M96.9,279.4c-10.2,0-21.3-1.9-32.9-3.8c-9.9-1.6-20.1-3.3-29.7-3.9c-17.5-0.9-36.1-1.4-55.1,1.2
				c-35.6,5-65.6,5.1-92,0.4c-35.9-6.6-72.5-3-108,0.5c-15.4,1.5-31.3,3-47.1,3.8c-10.3,0.5-32.4,0.7-64.9-3.8
				c-26.4-3.6-51.6-2.3-78.2-0.9c-6.8,0.4-13.8,0.8-20.8,1c-5.1,0.2-10.8,0.6-16.6,1c-21.3,1.1-45.5,2.7-63.2-0.1
				c-32.2-5-58.1-2.5-83.2,0c-20.6,2-42,4.1-66.1,1.8l0.1-0.7c24.1,2.3,45.4,0.2,65.9-1.8c25.2-2.5,51.2-5,83.4,0
				c17.6,2.8,41.8,1.3,63.1,0.1c6-0.4,11.6-0.7,16.6-1c7-0.3,14-0.7,20.8-1c26.6-1.4,51.9-2.8,78.3,0.9c32.3,4.5,54.4,4.3,64.7,3.8
				c15.8-0.8,31.7-2.3,47.1-3.8c35.5-3.4,72.2-7,108.2-0.5c26.3,4.9,56.3,4.8,91.8-0.4c19-2.8,37.7-2.2,55.2-1.2
				c9.7,0.5,19.9,2.2,29.8,3.9c14.9,2.6,29,4.9,41.5,3.2l0.1,0.7C102.9,279.2,99.9,279.4,96.9,279.4z"/>
		</g>
		<g>
			<path class="st1" d="M-299.3,307.3c-5.1,0-10.3-0.2-15.4-0.8c-6.5-0.7-12.9-1.8-19.3-2.9c-5.8-1-11.9-2.1-17.9-2.8
				c-23.5-2.7-45.9-1.4-69.5-0.3c-8.9,0.5-18.2,1-27.4,1.1c-10.8,0.3-24.5-0.7-39.2-1.6c-15.3-1-31.1-2.1-46.4-2
				c-21.1,0.1-42.5,1.8-63.2,3.5c-22.4,1.8-43.5,3.6-62.4,3.1v-0.8c18.9,0.6,40.1-1.1,62.3-3c20.6-1.7,42.1-3.4,63.2-3.5
				c15.3,0,31.2,1,46.4,2c14.7,1,28.4,1.9,39.2,1.6c9.2-0.3,18.5-0.8,27.4-1.1c23.7-1.2,46-2.5,69.6,0.3c6,0.7,12.1,1.7,17.9,2.8
				c6.3,1,12.7,2.3,19.2,2.9c18.4,1.9,37.1-0.2,55.2-2.2c12-1.3,24.5-2.8,36.6-2.9c13-0.3,26.3,0.9,39,1.8c6.2,0.5,12.6,1,18.8,1.3
				c33.6,1.9,67.7-0.4,100.8-2.6c41-2.8,83.3-5.4,124.7-0.4c3.3,0.5,6.7,1,10,1.3c11.2,1.7,22.8,3.4,34.2,1.3l0.1,0.7
				c-11.5,2.1-23.2,0.4-34.5-1.3c-3.2-0.5-6.7-1-9.9-1.3c-41.3-5-83.6-2.3-124.5,0.4c-33.1,2.2-67.4,4.5-100.9,2.6
				c-6.3-0.4-12.7-1-18.8-1.3c-12.7-1-26-2.1-38.9-1.8c-12.2,0.2-24.5,1.5-36.5,2.9C-272.5,305.8-285.9,307.3-299.3,307.3z"/>
		</g>
		<g>
			<path class="st1" d="M-292.3,317.5c-0.1,0-0.2,0-0.3,0c-8,0-16.1-1.1-23.9-2.3c-3-0.5-6.2-1-9.3-1.2c-6-0.8-12.5-2.1-19.3-3.4
				c-9.7-2-19.8-4.1-28.5-4.3c-24.1-0.5-45.7,0.8-66.6,1.8c-20.9,1-42.5,2.3-66.6,1.8c-9.7-0.2-19.7-0.8-30.3-1.3
				c-22.2-1.2-45.1-2.6-65.5-0.3c-2.9,0.3-5.9,0.8-9,1c-15.5,1.9-34.8,4.3-48.3,2.4l0.1-0.7c13.4,1.8,32.7-0.5,48.1-2.4
				c3.1-0.4,6.2-0.8,9-1c20.5-2.3,43.6-1,65.7,0.2c10.6,0.7,20.5,1.1,30.3,1.3c24.1,0.5,45.7-0.8,66.6-1.8s42.5-2.3,66.6-1.8
				c8.8,0.2,18.8,2.3,28.6,4.3c6.8,1.4,13.3,2.8,19.2,3.4c3.1,0.4,6.3,0.9,9.3,1.2c7.8,1,15.8,2.2,23.8,2.2c9,0,18.2-1.3,27-2.8
				c3.9-0.6,7.9-1.1,11.8-1.7c20.3-2.5,41.1-1.9,61.2-1.3l104,3c13.6,0.4,27.6,0.9,41.2-1.4c4.2-0.8,8.4-1.6,12.5-2.7
				c4.9-1.1,10.2-2.4,15.3-3c22.2-3,46.8-0.8,70.5,1.5c20.3,1.9,39.5,3.7,53.9,1.7l0.1,0.7c-14.7,2.1-33.9,0.3-54.1-1.7
				c-23.7-2.3-48.2-4.7-70.4-1.5c-5.1,0.8-10.3,1.9-15.2,3c-4.1,1-8.3,1.9-12.5,2.7c-13.7,2.3-27.8,1.9-41.4,1.4l-104-3
				c-20.1-0.6-40.8-1.1-61.1,1.3c-3.9,0.5-7.9,1-11.8,1.6C-274.2,316.2-283.3,317.5-292.3,317.5z"/>
		</g>
		<g>
			<path class="st1" d="M-292.3,278c-0.1,0-0.2,0-0.3,0c-8,0-16.1-1.1-23.9-2.3c-3-0.5-6.2-1-9.3-1.2c-6-0.8-12.5-2.1-19.3-3.4
				c-9.7-2-19.8-4.1-28.5-4.3c-24.1-0.5-45.7,0.8-66.6,1.8s-42.5,2.3-66.6,1.8c-9.7-0.2-19.7-0.8-30.3-1.3
				c-22.2-1.2-45.1-2.6-65.5-0.3c-2.9,0.3-5.9,0.8-9,1c-15.5,1.9-34.8,4.3-48.3,2.4l0.1-0.7c13.4,1.8,32.7-0.5,48.1-2.4
				c3.1-0.4,6.2-0.8,9-1c20.5-2.3,43.6-1,65.7,0.2c10.6,0.7,20.5,1.1,30.3,1.3c24.1,0.5,45.7-0.8,66.6-1.8c20.9-1,42.5-2.3,66.6-1.8
				c8.8,0.2,18.8,2.3,28.6,4.3c6.8,1.4,13.3,2.8,19.2,3.4c3.1,0.4,6.3,0.9,9.3,1.2c7.8,1,15.8,2.2,23.8,2.2c9,0,18.2-1.3,27-2.8
				c3.9-0.6,7.9-1.1,11.8-1.7c20.3-2.5,41.1-1.9,61.2-1.3l104,3c13.6,0.4,27.6,0.9,41.2-1.4c4.2-0.8,8.4-1.6,12.5-2.7
				c4.9-1.1,10.2-2.4,15.3-3c22.2-3,46.8-0.8,70.5,1.5c20.3,1.9,39.5,3.7,53.9,1.7l0.1,0.7c-14.7,2.1-33.9,0.3-54.1-1.7
				c-23.7-2.3-48.2-4.7-70.4-1.5c-5.1,0.8-10.3,1.9-15.2,3c-4.1,1-8.3,1.9-12.5,2.7c-13.7,2.3-27.8,1.9-41.4,1.4l-104-3
				c-20.1-0.6-40.8-1.1-61.1,1.3c-3.9,0.5-7.9,1-11.8,1.6C-274.2,276.7-283.3,278-292.3,278z"/>
		</g>
		<g>
			<path class="st1" d="M-291.7,325.8c-16.9,0-34.1-1.7-50.7-3.4c-2.1-0.2-4.2-0.5-6.3-0.7c-6.4-0.7-12.9-2-19.2-3.2
				c-8.5-1.7-17.2-3.5-25.8-3.7c-16.6-0.4-32.4,1.2-47.8,2.8c-14.1,1.3-28.6,2.8-44,2.8h-0.1c-8.7,0-18.9-1-28.8-2.1
				c-4.6-0.5-8.8-1-12.7-1.2c-22.5-1.8-42.7-0.4-64.1,1.1c-20.7,1.5-42.1,3-68.8,2v-0.7c26.5,1,47.9-0.6,68.7-2
				c21.4-1.5,41.6-3,64.2-1.1c4,0.4,8.3,0.9,12.7,1.2c9.9,1,20.1,2.1,28.7,2.1h0.1c15.3,0,29.8-1.4,43.9-2.8
				c15.3-1.5,31.1-3,47.9-2.8c8.7,0.2,17.5,2,26,3.7c6.3,1.2,12.7,2.7,19.1,3.2c2.1,0.2,4.2,0.5,6.3,0.7c25.6,2.7,52,5.3,77.5,1.7
				c35.9-5.1,70.7-3.8,104.4-2.6c16.8,0.7,34.2,1.2,51.6,1.1c27.6-0.3,56.1-0.5,84.1-3c2.4-0.2,4.8-0.5,7.2-0.7
				c9.5-1,19.3-1.9,29.1-1.7c7.5,0.1,15.2,1,22.5,1.6c4.7,0.5,9.4,1,14.2,1.2l1.6,0.1c18.2,1.2,36.9,2.6,55-1.2l0.2,0.7
				c-18.2,3.9-37,2.6-55.2,1.3l-1.6-0.1c-4.8-0.4-9.5-0.9-14.2-1.2c-7.3-0.8-14.9-1.5-22.5-1.6c-9.7-0.2-19.5,0.9-29,1.7
				c-2.4,0.3-4.8,0.5-7.2,0.7c-28,2.6-56.5,2.8-84.1,3c-17.3,0.2-34.7-0.6-51.6-1.1c-33.7-1.2-68.4-2.7-104.3,2.6
				C-273.5,325.3-282.5,325.8-291.7,325.8z"/>
		</g>
		<g>
			<path class="st1" d="M-296.5,336.5c-7.4,0-14.8-0.5-22.2-1.4c-4.7-0.7-9.4-1.5-14.1-2.5c-9.9-1.9-20.1-3.8-30.3-3.2
				c-3,0.2-6.2,0.6-9.1,1c-3.3,0.5-6.8,0.9-10.2,1c-9,0.4-18.1-1.4-26.7-3.1c-8.5-1.7-17.2-3.4-25.9-3.2c-10.6,0.3-20.9,1.7-30.9,3
				c-5,0.8-10.3,1.4-15.4,2c-11.9,1.2-24.1-0.3-35.8-1.7c-2.8-0.4-5.7-0.8-8.6-1c-24.2-2.8-51.1-1.1-77.1,0.4
				c-20.8,1.1-40.5,2.4-57.1,1.1l0.1-0.7c16.6,1.1,36.2,0.1,57-1.1c26.1-1.5,53-3,77.3-0.4c2.9,0.4,5.7,0.8,8.6,1
				c11.7,1.4,23.8,3,35.7,1.7c5.2-0.6,10.4-1.2,15.4-2c10.1-1.3,20.5-2.8,31-3c8.8-0.2,17.6,1.5,26.1,3.2c8.7,1.7,17.7,3.5,26.6,3.1
				c3.4-0.1,6.8-0.6,10.1-1c3-0.4,6.1-0.8,9.2-1c10.3-0.6,20.5,1.4,30.4,3.2c4.6,1,9.3,1.8,14,2.5c23.5,3.2,47.6,0.3,70.8-2.6
				c20.7-2.6,42.2-5.1,63.4-3.4c5.5,0.5,11.1,1.1,16.6,2c7.7,1,15.7,2.2,23.7,2.4c10.4,0.3,20.9-1,31-2.2c5.5-0.7,11.3-1.3,16.9-1.8
				c6.9-0.6,14.1-0.2,20.9,0.1c8,0.4,16.4,0.8,24.5-0.3c36.1-4.5,70.2-2.7,97.7-1.2c25,1.2,44.7,2.3,57.5-1.4l0.2,0.7
				c-12.8,3.8-32.6,2.8-57.7,1.4c-27.4-1.4-61.6-3.1-97.5,1.2c-8.1,1-16.5,0.7-24.5,0.3c-6.8-0.3-14-0.7-20.8-0.1
				c-5.6,0.5-11.4,1-16.9,1.8c-10.2,1.1-20.7,2.5-31.2,2.2c-8-0.2-16-1.2-23.8-2.4c-5.4-0.8-11-1.4-16.6-1.9
				c-21-1.7-42.4,1-63.2,3.4C-263.8,334.5-280.2,336.5-296.5,336.5z"/>
		</g>
		<g>
			<path class="st1" d="M105.6,286.2c-14.6-0.9-27.3-2.1-39.8-3.1c-34.6-3.2-64.6-6.1-114.7,0.1c-8.3,1-16.7,1-25,0.9
				c-6.7-0.1-13.6-0.2-20.4,0.4c-9.2,0.8-18.6-0.7-27.7-2c-6.7-1-13.6-2-20.5-2.2c-5.7-0.2-11.4,0.1-16.9,0.3
				c-7.6,0.3-15.5,0.7-23.3-0.1c-20.7-1.7-41.9,0-62.3,1.7c-23.6,1.9-48,3.9-71.8,0.7c-4.7-0.7-9.4-1.5-14.1-2.5
				c-9.9-1.9-20.1-3.8-30.3-3.2c-3,0.2-6.2,0.6-9.1,1c-3.3,0.5-6.8,0.9-10.2,1l-6.2,0.2c-15.8,0.6-30.8,1-46.4,1.4l-2.9,0.1
				c-14.7,0.4-28.7,0.7-43.5,2.3c-11.9,1.2-24.1-0.3-35.8-1.7c-2.8-0.4-5.7-0.8-8.6-1c-24-2.8-50.6-0.4-76.3,1.8
				c-21.1,1.8-41.1,3.6-57.8,2.4l0.1-0.7c16.7,1.2,36.6-0.6,57.7-2.4c25.8-2.3,52.4-4.7,76.5-1.8c2.9,0.4,5.7,0.8,8.6,1
				c11.7,1.4,23.8,3,35.7,1.7c14.7-1.6,28.7-1.9,43.6-2.3l2.9-0.1c15.7-0.4,30.6-1,46.4-1.4l6.2-0.2c3.4-0.1,6.8-0.6,10.1-1
				c3-0.4,6.1-0.8,9.2-1c10.3-0.6,20.5,1.4,30.4,3.2c4.6,1,9.3,1.8,14,2.5c23.8,3.2,48.1,1.2,71.7-0.7c20.5-1.6,41.7-3.3,62.5-1.7
				c7.8,0.7,15.6,0.4,23.2,0.1c5.5-0.2,11.3-0.5,17-0.3c6.8,0.2,13.8,1.1,20.5,2.2c9,1.3,18.4,2.8,27.5,2c6.8-0.6,13.7-0.5,20.5-0.4
				c8.2,0.1,16.6,0.3,24.9-0.8c50.2-6.1,80.2-3.3,114.8-0.1c12.4,1.1,25.2,2.4,39.8,3.1L105.6,286.2z"/>
		</g>
		<g>
			<path class="st1" d="M-350,345.1c-4.5,0-8.9-0.1-13.4-0.4c-9.3-0.6-18.7-2.6-27.9-4.6c-13.3-2.8-27.1-5.8-40.6-4.2
				c-13.2,1.5-26.1,1.8-41.2,1.6c-2.7,0-5.2,0-7.8,0c-9.7,0-18.8,0.1-28.4-1.7c-20.7-3.9-40.7-5.2-59.3-4.2l-3.4,0.2
				c-29.2,1.8-59.4,3.6-87.9,8l-0.1-0.7c28.5-4.4,58.8-6.2,88-8l3.4-0.2c18.7-1.1,38.7,0.3,59.5,4.2c9.4,1.8,18.6,1.7,28.3,1.7
				c2.6,0,5.2,0,7.8,0c15.1,0.2,27.9,0,41.1-1.6c13.6-1.6,27.5,1.3,40.8,4.2c9.1,1.9,18.6,4,27.8,4.6c12.5,0.8,24.7,0.3,36.3-0.4
				c13.3-0.7,26.8-1.5,40-2.4c41.6-2.7,84.5-5.3,126.6-2.2c3.2,0.3,6.4,0.6,9.6,0.9c12.5,1,25.3,2.2,38,1.1
				c8.4-0.7,16.6-2.3,24.7-3.7c8.4-1.5,16.9-3.1,25.6-3.8c14.7-1,29.7,0.9,44.1,2.6c6.3,0.8,12.7,1.5,19,2.1
				c34.2,3,69-0.9,102.6-4.6l0.1,0.7c-33.6,3.7-68.3,7.5-102.7,4.6c-6.4-0.6-12.8-1.3-19.1-2.1c-14.5-1.8-29.4-3.6-44-2.6
				c-8.6,0.7-17.2,2.3-25.5,3.8c-8.1,1.5-16.5,3-24.8,3.7c-12.7,1-25.6-0.1-38.1-1.1c-3.2-0.3-6.4-0.6-9.6-0.9
				c-42.1-3-85.1-0.4-126.5,2.2c-13.1,0.9-26.6,1.7-40,2.4C-334.4,344.7-342.2,345.1-350,345.1z"/>
		</g>
		<g>
			<path class="st1" d="M-109,352.5c-9.5,0-19.1-1.3-28.4-2.7c-3.1-0.5-6.5-1-9.7-1.2c-37.8-4.7-76.5-1.9-114.1,0.7
				c-38.4,2.7-78.1,5.3-116.7,0.4c-4.5-0.6-8.9-1.2-13.3-1.9c-11.6-1.8-23.6-3.6-35.5-3.5c-8.8,0.1-17.8,1.2-26.5,2.5
				c-9,1.1-18.4,2.5-27.7,2.5h-0.1c-10.7,0-21.3-1.6-31.6-3.1c-8.8-1.3-17.8-2.8-26.7-3c-42.5-1.8-74.4-1.7-120.5,4.4l-0.2-0.9
				c46.2-6,78.1-6.2,120.7-4.4c9,0.4,18.1,1.8,26.8,3c10.3,1.5,20.9,3.1,31.5,3.1h0.1c9.2,0,18.6-1.2,27.6-2.5
				c8.7-1.1,17.7-2.4,26.6-2.5c12-0.1,24,1.7,35.6,3.5c4.4,0.7,8.8,1.3,13.2,1.9c38.5,5,78.2,2.3,116.5-0.4
				c37.6-2.7,76.4-5.2,114.2-0.7c3.2,0.4,6.6,0.9,9.7,1.2c10.9,1.5,22.4,3,33.5,2.5c8.6-0.5,17-2.3,25.3-3.9c5-1,10.3-2.1,15.4-2.9
				c20-3,40.5-1.7,60.5-0.5c6.2,0.4,12.7,0.9,19,1c28.8,1.1,57.8-0.4,86.3-4.7l0.1,0.7c-28.5,4.3-57.6,5.8-86.4,4.7
				c-6.3-0.3-12.7-0.7-19-1c-19.9-1.2-40.4-2.6-60.3,0.5c-5.1,0.8-10.4,1.8-15.3,2.9c-8.3,1.7-16.8,3.4-25.4,3.9
				C-105.6,352.4-107.3,352.5-109,352.5z"/>
		</g>
		<g>
			<path class="st1" d="M-318.1,359.7c-22.3,0-44.2-0.5-56.5-1.6c-29.9-3-59.8-3-88.8-3c-32.8,0-66.7,0-100.6-4.4
				c-25.5-3.2-38.2-1.9-52.7-0.3c-10.9,1.1-23.4,2.7-43.4,2v-0.8c19.9,0.7,32.3-0.9,43.2-2c14.7-1.6,27.3-3,52.9,0.3
				c33.9,4.4,67.7,4.4,100.5,4.3c28.9,0,58.9,0,88.9,3c26.1,2.7,96,1.5,119.4,0.7c20.6-0.8,37.3-1.6,52.5-2.8
				c1.8-0.2,3.6-0.3,5.4-0.5c12.3-1,25-2,37.6-1.2c5.6,0.4,11.2,1,16.7,1.6s11.1,1.3,16.7,1.6c14.7,0.9,49.4-2.8,62.6-4.9
				c30.8-5,59.3-3.1,89.3-1.2c24.4,1.5,49.6,3.1,77,1l0.1,0.7c-27.4,2.2-52.7,0.6-77.1-1c-30.1-1.9-58.4-3.7-89.1,1.2
				c-13.3,2.2-48.1,5.7-62.8,4.9c-5.6-0.4-11.3-1-16.8-1.6c-5.4-0.7-11.1-1.2-16.6-1.6c-12.5-0.8-25.2,0.3-37.5,1.2
				c-1.8,0.2-3.6,0.3-5.4,0.5c-15.1,1.1-31.9,2-52.5,2.8C-267.5,359.2-293,359.7-318.1,359.7z"/>
		</g>
		<g>
			<path class="st1" d="M-310.2,368.6c-3,0-5.8-0.1-8.1-0.5c-3.5-0.5-8.2-1-13-1.4c-6.5-0.7-13-1.3-17.7-2.1
				c-18.6-3-37.4-2.4-55.7-1.6c-9.7,0.4-19.7,0.9-29.6,0.7c-3.3-0.1-6.6-0.1-9.8-0.2c-19.9-0.3-38.6-0.6-58.5-2.8
				c-9.9-1-22.7-0.9-36.3-0.6c-15.5,0.4-31.5,0.8-43-1.1c-15.6-2.6-27.7-1-39.4,0.7c-12.3,1.6-23.8,3-38.6,0.1l0.2-0.7
				c14.7,3,26.3,1.4,38.4-0.1c11.7-1.5,23.9-3.1,39.6-0.7c11.4,1.8,27.4,1.5,42.8,1.1c13.6-0.3,26.4-0.6,36.4,0.6
				c19.8,2.2,38.5,2.5,58.4,2.8c3.2,0,6.6,0.1,9.8,0.2c9.9,0.2,19.9-0.3,29.6-0.7c18.3-0.8,37.2-1.4,55.8,1.6
				c4.6,0.9,11.2,1.4,17.7,2.1c4.9,0.6,9.5,1,13,1.4c9.6,1.3,27.2-0.7,37.8-1.8l1-0.1c53.6-6,91.3-4.7,142.8-1.7l3.8,0.2
				c10.5,0.7,21.3,1.2,32,0.4c7.8-0.7,15.7-2.1,23.3-3.5c7.2-1.3,14.7-2.8,22.3-3.4c14.1-1.2,28.5-0.1,42.4,1
				c5.2,0.5,10.8,1,16.1,1.2c33.2,2,66.8-1.3,99.2-4.6l0.1,0.7c-32.5,3.1-66.1,6.5-99.4,4.6c-5.3-0.4-10.8-0.9-16.1-1.2
				c-13.9-1.1-28.3-2.4-42.2-1c-7.4,0.8-14.9,2.1-22.3,3.4c-7.6,1.4-15.5,2.9-23.4,3.5c-10.7,1-21.6,0.3-32.1-0.4l-3.8-0.2
				c-51.5-2.9-89.1-4.3-142.7,1.7l-1,0.1C-288.4,367.1-300.5,368.6-310.2,368.6z"/>
		</g>
		<g>
			<path class="st1" d="M-643.5,398.1c-5.1,0-10.6-0.5-16.6-1.6l0.2-0.7c14.7,3,26,1.3,37.9-0.4c11.5-1.6,23.4-3.3,39.2-0.9
				c21.7,3.5,57.3,2.7,81.1-1.9c19.4-3.7,39.4-3.2,58.7-2.8c3.5,0.1,6.9,0.2,10.5,0.2c12.2,0.2,26.4,1.5,42.7,3
				c21.9,2,46.7,4.3,72.6,4.4c10.1,0,28.7-0.9,38.8-1.9c53.6-6,91.3-4.7,142.8-1.7l3.8,0.2c10.5,0.7,21.4,1.2,32,0.4
				c9.3-0.9,18.6-1.7,27.7-2.7c5.8-0.6,11.9-1.1,17.9-1.7c14.1-1.2,28.5-0.1,42.4,1c5.2,0.5,10.8,1,16.1,1.2
				c33.2,2,66.8-1.3,99.2-4.6l0.1,0.7c-32.5,3.1-66.1,6.5-99.4,4.6c-5.3-0.4-10.8-0.9-16.1-1.2c-13.9-1.1-28.3-2.4-42.2-1
				c-6,0.6-12.1,1.1-17.9,1.7c-9,1-18.4,1.8-27.7,2.7c-10.7,1-21.6,0.3-32.1-0.4l-3.8-0.2c-51.5-2.9-89.1-4.3-142.7,1.7
				c-10.1,1-28.8,1.9-38.9,1.9c-25.9-0.1-50.7-2.4-72.6-4.4c-16.4-1.5-30.5-2.8-42.6-3c-3.5-0.1-6.9-0.2-10.5-0.2
				c-19.3-0.5-39.2-1-58.5,2.8c-23.9,4.7-59.6,5.4-81.3,1.9c-15.6-2.6-27.5-0.9-38.9,0.9C-629,397-636,398.1-643.5,398.1z"/>
		</g>
		<g>
			<path class="st1" d="M-245.1,376.2c-8.8,0-17.4-0.8-26-1.3c-7.9-0.7-16-1.2-24-1.3c-10-0.1-20.1,0.7-29.9,1.3
				c-10.9,0.9-22.2,1.6-33.4,1.2c-9.4-0.3-18.9-1.6-28.1-2.8c-13-1.8-26.5-3.6-39.9-2.7c-26,2-51.4,0.1-69.9-1.2
				c-7.8-0.6-13.9-1-18.3-1c-4.9,0-11,0.4-17.4,0.9c-14.9,1-31.9,2.1-46.4-1c-31.3-6.8-70.4,0.1-81.6,2.4v-0.8
				c11.3-2.3,50.5-9.1,82-2.4c14.5,3,31.3,2,46.1,1c6.4-0.5,12.5-0.9,17.4-0.9c4.4,0,10.6,0.5,18.4,1c18.6,1.3,44,3.2,69.8,1.2
				c13.4-1,26.9,0.9,40.1,2.7c9.1,1.2,18.6,2.6,28,2.8c11.1,0.4,22.4-0.5,33.3-1.2c9.8-0.8,19.9-1.4,29.9-1.3
				c8,0.1,16.2,0.8,24.1,1.3c12.7,1,25.9,2.1,38.8,0.8c6.4-0.7,12.8-2,19-3.3c4.2-1,8.5-1.8,12.7-2.6c21.1-3.4,42.8-1.5,63.9,0.4
				c19.2,1.7,39.2,3.5,58.5,1.1c5.7-0.8,11.4-1.7,17-2.8c5.9-1,12-2.3,18.1-2.9c14.7-1.6,29.9-0.9,44.4,0c4.9,0.3,10.1,0.6,15.1,0.8
				c26.3,1,54.9,1.5,86.3-1l0.1,0.7c-31.4,2.6-60.1,2-86.4,1c-5-0.2-10.2-0.5-15.2-0.8c-14.6-0.9-29.6-1.7-44.3,0
				c-6.1,0.8-12.2,1.8-18.1,2.9c-5.5,1-11.3,2.1-17,2.8c-19.4,2.4-39.4,0.6-58.7-1.1c-21-1.9-42.7-3.8-63.7-0.4
				c-4.3,0.8-8.6,1.6-12.7,2.6c-6.2,1.3-12.7,2.8-19.1,3.3C-236.4,376.1-240.8,376.2-245.1,376.2z"/>
		</g>
		<g>
			<path class="st1" d="M-294.5,383.5c-24.5,0-49.3-1.9-73.4-3.7c-32.2-2.5-65.5-5-98.2-3c-7.4,0.5-14.9,1.1-22.2,1.8
				c-13,1.1-26.4,2.5-39.8,2.4c-14.3-0.1-29.3-1.4-43.8-2.8c-29.7-2.7-60.3-5.3-88.2,1.9l-0.2-0.7c28-7.2,58.7-4.6,88.4-1.9
				c14.5,1.2,29.5,2.7,43.7,2.8c13.2,0.1,26.6-1.1,39.7-2.4c7.2-0.7,14.7-1.3,22.2-1.8c32.7-2,66,0.6,98.3,3
				c29.8,2.3,60.6,4.7,90.9,3.3c13.6-0.6,27.5-1.9,40.9-3.1c19.9-1.9,40.4-3.8,60.7-3.3c9.8,0.2,19.7,1,29.2,1.7
				c13.3,1,27.1,2.1,40.6,1.7c13.7-0.5,27.4-2.4,40.7-4.3c11.7-1.6,23.9-3.3,35.9-4c18.4-1,37.2,0.4,55.4,1.7
				c25.4,1.9,51.7,3.8,77.1-1l0.1,0.7c-25.4,4.7-51.8,2.8-77.3,1c-18.2-1.3-36.9-2.8-55.3-1.7c-12,0.7-24.2,2.4-35.9,4
				c-13.3,1.9-27.1,3.8-40.8,4.3c-13.6,0.5-27.4-0.7-40.7-1.7c-9.6-0.8-19.5-1.5-29.2-1.7c-20.3-0.5-40.7,1.4-60.6,3.3
				c-13.4,1.2-27.3,2.6-40.9,3.1C-282.8,383.4-288.6,383.5-294.5,383.5z"/>
		</g>
		<g>
			<path class="st1" d="M-548.1,390.3c-11.3,0-22.3-0.7-34.4-1.2c-20.8-1.1-44.5-2.6-77.4-1v-0.9c33-1.5,56.7-0.2,77.5,1
				c16.2,1,30.1,1.7,45.6,1c9.1-0.4,18.4-1.8,27.3-3.1c4.7-0.8,9.4-1.4,14.2-2.1c38.3-4.7,76.5-1.7,108.7,1.9
				c45.5,5,83.7,2.8,120.7,0.8c17.1-1,34.7-2,53-2.4c10.4-0.2,21,0.5,31.4,1c10.3,0.7,21,1.2,31.3,1c40.1-0.8,81.5-1.4,122.1-5.4
				c2.4-0.3,4.8-0.5,7-0.8c14.3-1.4,29-3,43.6-2c7.2,0.6,14.4,1.2,21.3,2.1c20.1,2.2,39,4.4,60.1,0.3l0.1,0.7
				c-21.2,4.1-40.2,1.9-60.3-0.3c-6.8-0.8-14-1.5-21.2-2.1c-14.5-1-29.2,0.5-43.5,2c-2.4,0.3-4.8,0.5-7,0.8
				c-40.6,4.1-82,4.8-122.2,5.4c-10.4,0.2-21-0.5-31.4-1c-10.3-0.7-21-1.2-31.3-1c-18.3,0.4-36,1.3-53,2.4
				c-37,2.2-75.3,4.4-120.9-0.8c-32.3-3.6-70.3-6.6-108.6-1.9c-4.8,0.6-9.5,1.3-14.2,2.1c-8.9,1.3-18.2,2.8-27.4,3.1
				C-540.7,390.3-544.4,390.3-548.1,390.3z"/>
		</g>
		<g>
			<path class="st1" d="M-7.1,512.6c-11.4,0-23.8-0.6-37.6-2c-31.9-3.2-58.5-5-85.1-2.8c-4.2,0.4-8.6,0.8-12.7,1
				c-9.3,1-19,1.7-28.6,2c-20.3,0.6-39.7-1.6-58.3-3.8c-19-2.2-38.7-4.4-59.5-3.7c-9.8,0.3-21.1,1.2-32.2,2.3
				c-8.1,0.8-15.8,1.3-22.8,1.8c-21.5,1.2-43.4-0.1-64.5-1.3c-9.3-0.6-18.9-1.1-28.4-1.5c-30.4-1.1-59.9-0.1-88.5,1
				c-45.6,1.6-88.6,3.1-134.8-3.4l0.1-0.7c46.1,6.6,89.1,5,134.5,3.4c28.5-1,58.1-2.1,88.6-1c9.4,0.4,19.1,1,28.4,1.5
				c21.1,1.2,43,2.7,64.4,1.3c7-0.5,14.7-1,22.8-1.8c11-1,22.4-1.9,32.2-2.3c20.7-0.7,40.4,1.5,59.6,3.7c18.6,2.1,38,4.3,58.2,3.8
				c9.5-0.3,19.2-1,28.5-2c4.2-0.4,8.5-0.9,12.7-1c26.7-2.1,53.4-0.4,85.2,2.8c40.6,4.1,68.9,1,96.2-2.2c17.7-2,34.3-3.9,53.5-3.7
				v0.8c-19.1-0.2-35.8,1.7-53.4,3.7C33.5,510.4,15,512.6-7.1,512.6z"/>
		</g>
		<g>
			<path class="st1" d="M-21.4,502c-15.1,0-30.6-1-45.8-2c-14.7-1-28.4-1.9-39.2-1.6c-9.2,0.3-18.5,0.8-27.4,1.1
				c-23.7,1.2-46,2.5-69.6-0.3c-6-0.7-12.1-1.7-17.9-2.8c-6.3-1-12.7-2.3-19.2-2.9c-18.4-1.9-37.1,0.2-55.2,2.2
				c-12,1.3-24.4,2.8-36.6,2.9c-13,0.3-26.3-0.9-39-1.8c-6.2-0.5-12.6-1-18.8-1.3c-33.6-1.9-67.7,0.4-100.8,2.6
				c-41,2.8-83.3,5.4-124.7,0.4c-3.3-0.5-6.7-1-10-1.3c-11.2-1.7-22.8-3.4-34.2-1.3l-0.2-0.8c11.5-2.1,23.2-0.4,34.4,1.3
				c3.2,0.5,6.7,1,9.9,1.3c41.3,5,83.6,2.3,124.5-0.4c33.1-2.2,67.4-4.5,100.9-2.6c6.3,0.4,12.7,1,18.8,1.3c12.7,1,26,2.1,38.9,1.8
				c12.2-0.2,24.5-1.5,36.5-2.9c18.2-2,36.9-4.1,55.4-2.2c6.5,0.7,12.9,1.8,19.3,2.9c5.8,1,11.9,2.1,17.8,2.8
				c23.5,2.7,45.9,1.4,69.5,0.3c8.9-0.5,18.2-1,27.4-1.1c10.8-0.3,24.5,0.7,39.2,1.6c15.3,1,31,2.1,46.4,2c21.2-0.1,42.5-2,63.2-3.9
				c22-2,42.6-3.9,61.5-3.3v0.8c-18.7-0.6-39.5,1.3-61.4,3.3c-20.6,1.9-42,3.8-63.3,3.9C-20.9,502-21.1,502-21.4,502z"/>
		</g>
		<g>
			<path class="st1" d="M-558.8,494c-15.4,0-31.5-1.5-47.1-3c-20.3-1.9-39.5-3.7-53.9-1.7l-0.2-0.7c14.7-2.1,33.9-0.3,54.1,1.7
				c23.7,2.3,48.2,4.7,70.4,1.5c5.1-0.8,10.3-1.9,15.2-3c4.1-1,8.3-1.9,12.5-2.7c13.7-2.3,27.8-1.9,41.4-1.5l103.9,3
				c20.1,0.6,40.8,1.1,61.1-1.3c3.9-0.5,7.9-1,11.8-1.6c8.8-1.3,17.9-2.8,26.9-2.8c0.1,0,0.2,0,0.3,0c8,0,16.1,1.1,23.9,2.3
				c3,0.5,6.2,1,9.3,1.2c6,0.8,12.5,2.1,19.3,3.4c9.7,2,19.8,4.1,28.4,4.3c24.1,0.5,45.7-0.8,66.6-1.8c20.9-1.1,42.5-2.3,66.6-1.8
				c9.7,0.2,19.7,0.8,30.3,1.3c22.2,1.2,45.1,2.6,65.5,0.3c5.4-0.7,11.5-2,17.9-3.5c14-3.2,28.4-6.6,39.6-2.6l-0.3,0.7
				c-10.9-4-25.3-0.7-39.1,2.7c-6.5,1.5-12.5,2.9-18,3.5c-20.5,2.3-43.6,1-65.7-0.2c-10.6-0.7-20.5-1.1-30.3-1.3
				c-24.1-0.5-45.7,0.8-66.6,1.8c-20.9,1.1-42.5,2.3-66.6,1.8c-8.8-0.2-18.8-2.3-28.6-4.3c-6.8-1.4-13.3-2.8-19.2-3.4
				c-3.1-0.4-6.3-0.9-9.3-1.2c-7.8-1-15.8-2.2-23.8-2.2c-9.1,0-18.3,1.3-27,2.8c-3.9,0.6-7.9,1.1-11.8,1.7
				c-20.3,2.5-41.1,1.9-61.2,1.3l-104-3c-13.6-0.4-27.6-0.9-41.2,1.4c-4.2,0.8-8.4,1.6-12.5,2.7c-4.9,1.1-10.2,2.4-15.3,3
				C-542.9,493.6-550.8,494-558.8,494z"/>
		</g>
		<g>
			<path class="st1" d="M-157,485.6c-1.4,0-2.9,0-4.4,0c-8.7-0.2-17.5-2-26-3.7c-6.3-1.2-12.7-2.7-19.1-3.2
				c-2.1-0.2-4.2-0.5-6.3-0.7c-25.6-2.7-52-5.3-77.5-1.7c-35.9,5.1-70.7,3.8-104.4,2.6c-16.8-0.7-34.2-1.2-51.6-1.1
				c-27.6,0.3-56.1,0.5-84.1,3c-2.4,0.2-4.8,0.5-7.1,0.7c-9.5,1-19.3,1.8-29.1,1.7c-7.5-0.1-15.2-1-22.5-1.6
				c-4.7-0.5-9.4-1-14.2-1.2l-1.6-0.1c-18.2-1.2-36.9-2.6-55,1.2l-0.1-0.8c18.2-3.9,37-2.6,55.2-1.3l1.6,0.1
				c4.8,0.4,9.5,0.9,14.2,1.2c7.3,0.8,15,1.5,22.5,1.6c9.7,0.2,19.5-0.9,29-1.7c2.4-0.3,4.8-0.5,7.2-0.7c28-2.6,56.5-2.8,84.1-3
				c17.3-0.2,34.7,0.6,51.6,1.1c33.7,1.2,68.4,2.7,104.3-2.6c25.7-3.7,52.1-1,77.7,1.7c2.1,0.2,4.2,0.5,6.3,0.7
				c6.4,0.7,12.9,2,19.2,3.2c8.5,1.7,17.2,3.5,25.8,3.7c16.6,0.3,32.4-1.2,47.8-2.8c14.1-1.3,28.6-2.8,44-2.8h0.1
				c8.7,0,18.9,1,28.8,2.1c4.6,0.5,8.8,1,12.7,1.2c22.3,1.8,42.1-0.1,63-2.2c20.8-2.1,42.4-4.2,69.4-3v0.8c-26.9-1-48.4,1-69.3,3
				c-20.9,2.1-40.8,4-63.2,2.2c-4-0.4-8.2-0.9-12.7-1.2c-9.9-1-20.2-2.1-28.7-2.1h-0.1c-15.3,0-29.8,1.4-43.9,2.8
				C-127.5,484.1-141.8,485.6-157,485.6z"/>
		</g>
		<g>
			<path class="st1" d="M-121.4,475.5c-8.3,0-16.6-1.6-24.6-3.2c-8.7-1.7-17.7-3.5-26.6-3.1c-3.4,0.1-6.8,0.6-10.1,1
				c-3,0.4-6.1,0.8-9.2,1c-10.3,0.6-20.5-1.4-30.4-3.2c-4.6-1-9.3-1.8-14-2.5c-23.5-3.2-47.6-0.3-70.8,2.6
				c-20.7,2.6-42.2,5.1-63.4,3.4c-5.5-0.5-11.1-1.1-16.6-2c-7.7-1-15.7-2.2-23.7-2.4c-10.4-0.3-20.9,1-31,2.2
				c-5.5,0.7-11.3,1.3-16.9,1.8c-6.9,0.6-14.1,0.2-20.9-0.1c-8-0.4-16.4-0.8-24.5,0.3c-36.2,4.5-70.6,2.5-98.3,1
				c-25-1.3-44.8-2.6-57.4,1.1l-0.2-0.7c12.7-3.8,32.5-2.7,57.7-1.2c27.6,1.5,62,3.4,98.2-1c8.1-1,16.5-0.7,24.5-0.3
				c6.8,0.3,14,0.7,20.8,0.1c5.6-0.5,11.4-1,16.9-1.8c10.2-1.1,20.7-2.5,31.2-2.2c8,0.2,16,1.2,23.8,2.4c5.4,0.8,11,1.4,16.6,1.9
				c21,1.7,42.4-1,63.2-3.4c23.3-2.8,47.5-5.8,71-2.6c4.7,0.7,9.4,1.5,14.1,2.5c9.9,1.9,20.1,3.8,30.3,3.2c3-0.2,6.2-0.6,9.1-1
				c3.3-0.5,6.8-0.9,10.2-1c9-0.4,18.1,1.4,26.7,3.1c8.5,1.7,17.2,3.4,25.9,3.2c10.6-0.3,20.9-1.7,30.9-3c5-0.8,10.3-1.4,15.4-2
				c11.9-1.2,24.1,0.3,35.8,1.7c2.8,0.4,5.7,0.8,8.6,1c24.1,2.8,50.5,0.9,76.1-1c20.8-1.5,40.4-3,57.2-1.8l-0.2,0.7
				c-16.6-1.1-36.2,0.3-57.1,1.8c-25.6,1.9-52.1,3.9-76.2,1c-2.9-0.4-5.7-0.8-8.6-1c-11.7-1.4-23.8-3-35.7-1.7
				c-5.2,0.6-10.4,1.2-15.4,2c-10.1,1.3-20.5,2.8-31,3C-120.4,475.5-120.9,475.5-121.4,475.5z"/>
		</g>
		<g>
			<path class="st1" d="M0.9,468.9c-14.9,0-30.6-1.5-46.7-4.6c-9.4-1.8-18.6-1.7-28.3-1.7c-2.6,0-5.2,0-7.8,0
				c-15.1-0.2-27.9,0-41.1,1.6c-13.6,1.6-27.5-1.3-40.8-4.2c-9.1-1.9-18.6-4-27.8-4.6c-12.5-0.8-24.7-0.3-36.3,0.4
				c-13.3,0.7-26.8,1.5-40,2.4c-41.5,2.7-84.5,5.3-126.6,2.2c-3.2-0.3-6.4-0.6-9.6-0.9c-12.5-1-25.3-2.2-38-1.1
				c-8.4,0.7-16.6,2.3-24.7,3.7c-8.4,1.5-16.9,3.1-25.6,3.8c-14.7,1-29.7-0.9-44.1-2.6c-6.3-0.8-12.7-1.5-19-2.1
				c-32.6-2.8-66.9,1-99.9,4.6l-4.5,0.5l-0.1-0.7l4.4-0.5c33.1-3.6,67.3-7.4,100.1-4.6c6.4,0.6,12.8,1.3,19.1,2.1
				c14.5,1.8,29.4,3.6,44,2.6c8.6-0.7,17.2-2.3,25.5-3.8c8.1-1.5,16.5-3,24.8-3.7c12.7-1,25.6,0.1,38.1,1.1c3.2,0.3,6.4,0.6,9.6,0.9
				c42.1,3,85.1,0.4,126.5-2.2c13.1-0.9,26.6-1.7,40-2.4c11.6-0.6,23.9-1,36.4-0.4c9.3,0.6,18.7,2.6,27.9,4.6
				c13.3,2.8,27.1,5.8,40.6,4.2c13.2-1.5,26.1-1.8,41.2-1.6c2.7,0,5.2,0,7.8,0c9.7,0,18.8-0.1,28.4,1.7c20.7,3.9,40.7,5.2,59.3,4.2
				l3.4-0.2c29.2-1.8,59.4-3.6,87.9-8l0.1,0.7c-28.5,4.4-58.7,6.2-88,8l-3.4,0.2C9.4,468.8,5.2,468.9,0.9,468.9z"/>
		</g>
		<g>
			<path class="st1" d="M-659.9,459.9l-0.1-0.6c33.2-5,63-6.9,88.8-5.8c6.3,0.3,12.7,0.7,19,1c19.9,1.2,40.4,2.6,60.3-0.5
				c5.1-0.8,10.4-1.8,15.3-2.9c8.3-1.7,16.8-3.4,25.4-3.9c11.3-0.7,22.6,1,33.7,2.5c3.1,0.5,6.5,1,9.7,1.2
				c37.8,4.7,76.5,1.9,114.1-0.7c38.4-2.7,78.1-5.3,116.7-0.4c4.5,0.6,8.9,1.2,13.3,1.9c11.6,1.8,23.6,3.6,35.5,3.5
				c8.8-0.1,17.9-1.2,26.5-2.5c9-1.1,18.4-2.5,27.8-2.5c10.7,0,21.3,1.6,31.6,3.1c8.8,1.3,17.8,2.8,26.7,3c37.5,1.6,69.8,3,119-3.3
				l0.1,0.7c-49.3,6.4-81.6,5-119.1,3.3c-9-0.4-18.1-1.8-26.8-3c-10.3-1.5-20.9-3.1-31.5-3.1H-74c-9.2,0-18.6,1.2-27.6,2.5
				c-8.7,1.1-17.7,2.4-26.6,2.5c-12,0.1-24-1.7-35.6-3.5c-4.4-0.7-8.8-1.3-13.2-1.9c-38.5-5-78.2-2.3-116.5,0.4
				c-37.6,2.7-76.3,5.2-114.2,0.7c-3.2-0.4-6.6-0.9-9.7-1.2c-10.9-1.5-22.4-3-33.5-2.5c-8.6,0.5-17,2.3-25.3,3.9
				c-5,1-10.3,2.1-15.4,2.9c-20,3-40.5,1.7-60.5,0.5c-6.2-0.4-12.7-0.9-19-1C-597,453-626.8,455-659.9,459.9z"/>
		</g>
		<g>
			<path class="st1" d="M35.7,451.4c-7.2,0-15.8-0.6-26.8-1.9c-33.9-4.4-67.7-4.4-100.5-4.3c-28.9,0-58.9,0-88.9-3
				c-26.1-2.7-96-1.5-119.4-0.7c-20.6,0.8-37.4,1.6-52.5,2.8c-1.8,0.2-3.6,0.3-5.4,0.5c-12.3,1-25,2-37.6,1.2
				c-5.6-0.4-11.2-1-16.7-1.6c-5.5-0.7-11.1-1.3-16.7-1.6c-14.7-0.9-49.4,2.8-62.6,4.9c-26.5,4.3-48.5,2.9-71.8,1.4
				c-26-1.6-55.4-3.4-96.7,2.3l-0.1-0.6c41.4-5.7,70.8-3.9,96.8-2.3c23.2,1.4,45.2,2.8,71.6-1.4c13.3-2.2,48.1-5.7,62.8-4.9
				c5.6,0.3,11.3,1,16.8,1.6c5.4,0.7,11.1,1.2,16.6,1.6c12.5,0.8,25.2-0.3,37.5-1.2c1.8-0.2,3.6-0.3,5.4-0.5
				c15.1-1.1,31.8-2,52.5-2.8c23.4-1,93.3-1.9,119.5,0.7c29.9,3,59.7,3,88.8,3c32.8,0,66.7,0,100.6,4.4c25.4,3.2,37.4,1.8,51.4,0.1
				c10.7-1.2,22.7-2.8,42.9-2.2v0.8c-20.1-0.7-32.2,1-42.7,2.2C52.4,450.5,45.1,451.4,35.7,451.4z"/>
		</g>
		<g>
			<path class="st1" d="M-660,444.5v-0.7c35.3-3.4,69.7-6.5,101.8-4.6c5.3,0.4,10.8,0.9,16.1,1.2c13.9,1.1,28.3,2.4,42.2,1
				c7.4-0.8,14.9-2.1,22.3-3.4c7.6-1.4,15.5-2.9,23.4-3.5c10.7-1,21.6-0.3,32.1,0.4l3.8,0.2c51.5,2.9,89.1,4.3,142.7-1.7l1-0.1
				c10.6-1.1,28.2-3.1,38-1.8c3.5,0.5,8.2,1,13,1.4c6.5,0.7,13,1.3,17.7,2.1c18.6,3,37.4,2.4,55.7,1.6c9.7-0.4,19.7-0.9,29.6-0.7
				c3.3,0.1,6.6,0.1,9.8,0.2c19.9,0.3,38.6,0.6,58.5,2.8c9.9,1,22.7,0.9,36.3,0.6c15.5-0.4,31.5-0.8,43,1.1
				c15.6,2.6,27.3,0.7,38.5-1.1c11.7-1.9,22.7-3.6,37.6-0.7l-0.2,0.7c-14.7-3-25.7-1.1-37.3,0.7c-11.3,1.8-23,3.7-38.7,1.1
				c-11.4-1.8-27.4-1.5-42.8-1.1c-13.6,0.3-26.4,0.6-36.4-0.6c-19.8-2.2-38.5-2.5-58.4-2.8c-3.2,0-6.5-0.1-9.8-0.2
				c-9.9-0.2-19.9,0.3-29.6,0.7c-18.3,0.8-37.2,1.4-55.8-1.6c-4.6-0.8-11.2-1.4-17.7-2.1c-4.9-0.6-9.5-1-13-1.4
				c-9.6-1.3-27.2,0.7-37.8,1.8l-1,0.1c-53.6,6-91.3,4.7-142.8,1.7l-3.8-0.2c-10.5-0.7-21.4-1.2-32-0.4c-7.8,0.7-15.7,2.1-23.3,3.5
				c-7.2,1.3-14.7,2.8-22.3,3.4c-14.1,1.2-28.5,0.1-42.4-1c-5.2-0.5-10.8-1-16.1-1.2C-590.3,438-624.7,441-660,444.5z"/>
		</g>
		<g>
			<path class="st1" d="M-660,426.2v-0.7c8.1-0.7,16.3-1.4,24.2-2.3c21-2.1,42.7-4.3,64.4-3.4c6.8,0.3,13.7,1,20.4,1.5
				c12.7,1.1,26,2.5,38.8,1c6.1-0.8,12.2-1.8,18.1-2.9c5.5-1,11.3-2.1,17-2.8c19.5-2.4,39.6-0.2,58.9,2c20.9,2.4,42.5,4.8,63.5,1.3
				c4.3-0.8,8.6-1.6,12.7-2.6c6.2-1.3,12.7-2.8,19.1-3.3c13-1.2,26.2-0.3,38.9,0.8c7.9,0.7,16,1.2,24,1.3c10,0.1,20.1-0.7,29.9-1.3
				c10.9-0.9,22.2-1.6,33.4-1.2c9.4,0.3,18.9,1.6,28.1,2.8c13,1.8,26.5,3.6,39.9,2.7c34.9-2.8,74.5-4.7,90.1-4.7
				c6.9,0.1,15.5,0.4,24.6,0.8c12.4,0.5,26.4,1,40.1,1c27.1,0,54.8-2.6,77.9-7.2l0.2,0.7c-23.2,4.7-51,7.2-78.1,7.2
				c-13.6,0-27.7-0.6-40.1-1c-9.1-0.4-17.8-0.8-24.6-0.8c-15.6-0.1-55.2,1.9-90.1,4.7c-13.4,1-26.9-0.9-40.1-2.7
				c-9.1-1.2-18.6-2.6-28-2.8c-11.1-0.4-22.4,0.5-33.3,1.2c-9.8,0.8-19.9,1.4-29.9,1.3c-8-0.1-16.2-0.8-24.1-1.3
				c-12.7-1-25.9-2.1-38.8-0.8c-6.4,0.7-12.8,2-19,3.3c-4.2,1-8.5,1.8-12.7,2.6c-21,3.4-42.7,1-63.6-1.3c-19.3-2.2-39.3-4.5-58.8-2
				c-5.7,0.8-11.4,1.7-17,2.8c-5.9,1-12,2.3-18.1,2.9c-13,1.4-26.3,0.3-39-1c-6.7-0.7-13.6-1.2-20.4-1.5
				c-21.6-0.9-43.3,1.3-64.3,3.4C-643.7,424.7-651.9,425.6-660,426.2z"/>
		</g>
		<g>
			<path class="st1" d="M-659.9,417.3l-0.1-0.6c26.6-4.9,55.1-4.1,82.7-3.2c17.4,0.6,35.4,1,52.5,0.1c7.6-0.5,15.2-1,22.5-1.3
				c17.9-1,34.7-2.1,52.8-2.7c13.6-0.5,27.4,0.7,40.7,1.7c9.6,0.8,19.5,1.5,29.2,1.7c20.3,0.5,40.7-1.4,60.6-3.3
				c13.4-1.2,27.3-2.6,40.9-3.1c30.3-1.2,61.2,1,91,3.3c32.2,2.5,65.5,5,98.2,3c7.4-0.5,14.9-1.1,22.2-1.8c13-1.1,26.4-2.5,39.8-2.4
				c8,0.1,16.2,0.3,24.1,0.4c35.9,0.8,72.9,1.5,106.8-7.3l0.2,0.7c-34.1,8.9-71.2,8.1-107,7.3c-7.9-0.2-16.2-0.4-24.1-0.4
				c-13.2-0.1-26.6,1.1-39.7,2.4c-7.2,0.7-14.7,1.3-22.2,1.8c-32.7,2-66-0.6-98.3-3c-29.8-2.3-60.6-4.7-90.9-3.3
				c-13.6,0.6-27.5,1.9-40.9,3.1c-19.9,1.9-40.4,3.8-60.7,3.3c-9.8-0.2-19.7-1-29.3-1.7c-13.3-1-27.1-2.1-40.6-1.7
				c-18.1,0.6-34.9,1.5-52.8,2.7c-7.3,0.5-14.8,1-22.5,1.3c-17.1,1-35.2,0.5-52.5-0.1C-604.9,413.3-633.3,412.4-659.9,417.3z"/>
		</g>
		<g>
			<path class="st1" d="M-101.4,407.8c-23.7,0-46.5-2.1-67-4.4c-45.5-5-83.7-2.8-120.7-0.8c-17.1,1-34.7,2-53,2.4
				c-19,0.4-41.3,0.4-62.7-2.2c-45.5-5.3-85.5-2.8-122,1c-4.1,0.4-8.3,1-12.4,1.3c-13,1.5-26.4,3.1-39.3,2.2
				c-5.6-0.4-11.2-1-16.6-1.3c-21.6-2-42.1-3.8-64.8,0.6l-0.1-0.7c22.8-4.4,43.3-2.5,65-0.6c5.4,0.5,10.9,1,16.6,1.3
				c12.7,1,26.2-0.7,39.1-2.2c4.1-0.5,8.3-1,12.4-1.3c36.5-3.6,76.6-6.3,122.2-1c21.4,2.6,43.7,2.6,62.6,2.2c18.3-0.4,36-1.3,53-2.4
				c37-2.2,75.3-4.4,120.9,0.8c32.3,3.6,70.3,6.6,108.6,1.9c4.7-0.6,9.4-1.3,14.1-2.2c8.9-1.5,18.3-3,27.5-3
				c26,0.3,52.4-2.1,73.6-3.9c21.1-1.8,37.9-3.2,47.7-2l-0.1,0.7c-9.7-1.3-26.4,0.1-47.5,2C34.5,398,8,400.3-18,400.1
				c-9.2-0.1-18.5,1.5-27.4,3c-4.6,0.9-9.3,1.6-14.1,2.2C-73.7,407.1-87.7,407.8-101.4,407.8z"/>
		</g>
		<g>
			<path class="st1" d="M-648.9,437.7c-3.8,0-7.5-0.4-11.1-1.2l0.2-0.7c10.4,2.7,22.4,0.6,33.9-1.5c5.6-1,10.9-1.9,16.1-2.4
				c9.2-0.8,18.7,0,27.8,0.9c4.1,0.4,8.3,0.8,12.4,1c1.8,0.1,3.7,0.2,5.5,0.3c17.8,1,36.2,2,54-0.6c45.7-6.5,84-5.3,124.6-4.2
				c38.2,1,77.8,2.3,126-3c19.1-2.1,42.1,1,60,4.1c13.3,2.3,31.9,1,46.8,0.2c2.9-0.2,5.7-0.4,8.3-0.5c69.4-3.8,111.3-2.9,172.6,3.6
				c21.8,2.4,44.7,1.3,74.5-3l0.1,0.7c-29.8,4.5-52.8,5.4-74.7,3c-61.2-6.5-103.1-7.4-172.4-3.6c-2.6,0.2-5.3,0.3-8.3,0.5
				c-14.9,1-33.6,2.1-47-0.2c-16.5-2.8-40.6-6.3-59.8-4.1c-48.2,5.2-87.8,4.2-126.1,3c-40.6-1.1-79-2.3-124.5,4.2
				c-17.9,2.6-36.3,1.5-54.1,0.6c-1.8-0.1-3.7-0.2-5.5-0.3c-4.2-0.2-8.4-0.6-12.5-1c-9.1-0.9-18.5-1.6-27.7-0.9
				c-5.1,0.5-10.4,1.3-16,2.4C-633.6,436.3-641.4,437.7-648.9,437.7z"/>
		</g>
		<g>
			<path class="st1" d="M-659.9,432l-0.1-0.6c23.4-4.8,49.8-6.8,78.1-6c10.6,0.3,19.3,1.3,27.9,2.5c17.4,2.2,34,4.2,60.5-1.5
				c29.6-6.4,62-4,93.3-1.7c8.9,0.7,17.4,1.2,25.7,1.7c28.4,1.3,57.6-1.4,83.3-3.9c22.8-2.2,42.5-4.2,55.7-2.5
				c38,5,74.7,3.8,110.2,2.8c13.8-0.5,28.2-1,42.1-1h10c36.3-0.2,65-0.3,102,2.8l2,0.2c9.6,0.9,19.6,1.6,29.2-0.2
				c3.9-0.8,7.6-1.7,11.1-2.7c9.3-2.5,18.1-4.8,31.1-3.1l-0.1,0.7c-12.8-1.6-21.6,0.8-30.8,3.1c-3.5,1-7.2,1.9-11.1,2.7
				c-9.6,1.8-19.7,1-29.4,0.2l-2-0.2c-37-3-65.6-2.9-102-2.8h-10c-13.9,0.1-28.2,0.5-42.1,1c-35.5,1-72.2,2.3-110.3-2.8
				c-13-1.7-32.6,0.2-55.5,2.5c-25.8,2.6-55,5.3-83.4,3.9c-8.3-0.4-16.7-1-25.7-1.7c-31.3-2.3-63.6-4.7-93.1,1.6
				c-26.6,5.7-43.2,3.7-60.7,1.5c-8.6-1-17.3-2.2-27.9-2.5C-610.3,425.2-636.5,427.2-659.9,432z"/>
		</g>
	</g>
</g>
</svg>
