<?xml version="1.0" encoding="utf-8"?>
<!-- Generator: Adobe Illustrator 23.0.2, SVG Export Plug-In . SVG Version: 6.00 Build 0)  -->
<svg version="1.1" id="Capa_1" xmlns="http://www.w3.org/2000/svg" xmlns:xlink="http://www.w3.org/1999/xlink" x="0px" y="0px"
	 viewBox="0 0 1920 1080" style="enable-background:new 0 0 1920 1080;" xml:space="preserve">
<style type="text/css">
	.st0{fill:#33CCCC;}
</style>
<path class="st0" d="M1471.1,805.3c-7.2-0.3-14.2-0.5-21.3-0.8c-0.5,0-1.1-0.1-1.5-0.5c-0.3-0.4-0.4-0.9-0.4-1.4
	c0-6.1,0-12.3,1.1-18.3c0.4-1.9,0.8-3.8,0.8-5.9s-0.5-4.1-1.8-5.5c-0.9-0.9-1.9-1.5-2.9-2.2c-2.3-1.4-4.5-3.1-6.5-5
	c-0.5-0.4-0.9-0.9-1.1-1.4c-0.3-0.8,0.1-1.7,0.5-2.4c0.4-0.8,0.8-1.5,1.1-2.3c0.4-0.6,0.8-1.4,1.4-1.8c1.4-0.8,3.1,0.1,4.3,1.1
	c1.3,1,2.6,2.2,3.8,3.1c6.1,4.3,14.1,5.1,21.6,5.7c3.6,0.3,7.5,0.6,10.1,3.2c0.8,0.6,1.3,1.5,1.8,2.3c1.7,2.6,3.3,5.1,4.7,7.8
	c0.4,0.6,0.6,1.3,0.5,2c-0.1,0.4-0.4,0.8-0.6,1.1c-0.6,0.9-1.4,1.7-2,2.6c-0.4,0.4-0.6,0.8-1.1,0.9c-1.1,0.4-2-1-2.7-2
	c-0.9-1.5-1.9-2.9-3.2-4.1c-0.3-0.3-0.6-0.5-1-0.5c-0.4,0-0.8,0.4-0.9,0.8c-1.4,2.4-1.1,5.4-1.1,8c0.1,3.2,0,6.4-0.4,9.5
	C1474,801.8,1474.3,805.5,1471.1,805.3z"/>
<path class="st0" d="M1452.1,749.7c-0.9-0.1-2.2-0.3-2.3-1.1c-0.1-0.6,0.4-1.3,0.9-1.5c0.5-0.4,1.1-0.5,1.8-0.9
	c1.1-0.8,1.7-2.4,2.9-2.8c0.4-0.1,0.9-0.1,1.3-0.1c1.5-0.3,2.6-2,4-1.9c1.8,0.1,2.4,2.7,4.2,3.1c0.8,0.3,1.8-0.1,2.4,0.5
	c0.9,0.8,0.3,2.2,0.9,3.2s2.3,1,2.6,2.2c0.4,1.3-1.3,2.2-1.5,3.4c-0.1,0.8,0.3,1.5,0.5,2.3c0.3,0.8,0.5,1.7-0.1,2.3
	c-0.4,0.4-1,0.6-1.1,1.1c0,0.3,0.1,0.5,0.1,0.8c0,0.8-0.9,1.1-1.7,0.9c-0.8-0.3-1-1-1.1-1.8c-0.3-0.9-0.3-1.9-0.1-2.8
	c0.1-0.9,0.5-1.9,0.1-2.8c-0.5-1.1-2-1.7-2.2-2.8c0-0.5,0.1-0.9,0-1.4c-0.1-0.4-0.5-0.8-0.9-1c-0.8-0.4-1.5-0.8-2.4-0.8
	c-1.8,0-2.6,1.1-4.1,1.1c-1,0-1.4,2.3-1.9,2.2C1453.5,751.1,1453.3,749.8,1452.1,749.7z"/>
<g>
	<path class="st0" d="M1432.8,730.3L1432.8,730.3c-0.3,0-0.4-0.1-0.3-0.4c1.8-13.8,1.3-22.7,0.6-34.1c-0.5-9.3-1-19.9-0.6-36.1
		c0-0.1,0.1-0.4,0.4-0.3c0.1,0,0.3,0.1,0.3,0.4c-0.4,16.2,0.1,26.7,0.6,36c0.6,11.4,1.1,20.3-0.6,34.2
		C1433.1,730.1,1432.9,730.3,1432.8,730.3z"/>
</g>
<path class="st0" d="M1432.8,664.1c1.4-12.6-23-14.3-34.2-25.9c-13.5-14.1-14.7-45,4.2-58.6c18.9-13.8,41.5-13.4,57.9,4
	c14.1,14.9,15.6,37.3-1,53.8C1449,647.9,1434.1,652.7,1432.8,664.1z"/>
<g>
	<g>
		<path class="st0" d="M1437,762.5l-0.2-0.2c-2.3-1.6-4.9-3.5-6.4-5.8c-1.7-2.6-1.4-5.8-0.9-8.9c0.2-1.5,0.5-2.4,0.8-3.7
			c0.2-1,0.6-2.3,1-4.3c0.1-0.5,0.3-1,0.4-1.5c0.3-0.9,0.6-1.8,0.3-2.4c-1-2.1-0.9-4.2-0.4-5.3c0.3-0.7,0.7-1.2,1.2-1.4
			c0.6-0.3,1.3-0.2,1.9,0.1c0.9,0.5,1.5,1.5,1.8,2.9c0.3,1.5,0.1,2.9-0.1,3.8c-0.1,0.4-0.1,0.7-0.1,1c0,1.9-0.1,3.8-0.2,5.6
			c-0.1,2.8-0.2,5.5-0.1,8.4c0,0.8,0.3,1.5,0.8,2.1l0.2,0.2c0.4,0.5,0.8,1,1.3,1.4c0.5,0.4,0.9,0.8,1.3,1.1c0.4,0.4,0.8,0.7,1.3,1.1
			l-0.8,1c-0.5-0.4-0.9-0.8-1.3-1.1c-0.4-0.4-0.8-0.7-1.3-1.1c-0.6-0.5-1-1.1-1.5-1.6l-0.2-0.2c-0.7-0.8-1.1-1.8-1.1-2.9
			c-0.1-3,0-5.8,0.1-8.5c0.1-1.8,0.1-3.6,0.2-5.5c0-0.3,0.1-0.7,0.1-1.2c0.2-0.9,0.4-2,0.1-3.3c-0.2-1-0.6-1.7-1.1-2
			c-0.3-0.1-0.5-0.2-0.8,0c-0.1,0-0.3,0.2-0.5,0.7c-0.4,0.9-0.5,2.6,0.4,4.3c0.5,1,0.1,2.1-0.3,3.3c-0.1,0.5-0.3,0.9-0.4,1.4
			c-0.4,2.1-0.7,3.3-1,4.3c-0.3,1.3-0.5,2.1-0.7,3.6c-0.5,3-0.8,5.9,0.7,8c1.4,2.1,3.9,3.9,6.1,5.4l0.2,0.2L1437,762.5z"/>
	</g>
	<g>
		<path class="st0" d="M1479.4,812.5c-0.2,0-0.3,0-0.5,0c-1.7-0.1-2.9-0.9-3-2.1c-0.1-1,0.7-1.7,1.3-2.2c0.2-0.2,0.4-0.3,0.5-0.5
			c0.4-0.4,0.7-1,0.9-1.6l5-11c0.2-0.5,0.4-0.9,0.4-1.4c0-0.5-0.2-1-0.4-1.5l-1.6-3.6l1.2-0.5l1.6,3.6c0.2,0.6,0.5,1.3,0.5,2
			c0,0.7-0.3,1.3-0.5,1.9l-5,11c-0.3,0.6-0.6,1.4-1.2,2c-0.2,0.2-0.4,0.4-0.6,0.6c-0.6,0.5-0.9,0.8-0.9,1.2c0,0.6,1.1,0.8,1.8,0.9
			c0.3,0,0.7,0,1-0.1c0.9-0.3,1.4-1.3,1.9-2.4c1.9-4.2,4.3-8.1,6.6-12l0.7-1.1c0.6-0.9,1.1-1.8,1-2.7c0-0.7-0.4-1.4-0.8-2
			c-0.5-0.9-1-2.1-1.5-3.1c-0.5-1.1-1-2.2-1.5-3.1l1.1-0.6c0.5,0.9,1,2,1.5,3.1c0.5,1.1,1,2.2,1.5,3.1c0.4,0.7,0.9,1.6,0.9,2.5
			c0.1,1.3-0.7,2.5-1.2,3.4l-0.7,1.1c-2.3,3.8-4.7,7.7-6.6,11.8c-0.5,1.1-1.2,2.7-2.7,3.2C1480,812.5,1479.7,812.5,1479.4,812.5z"/>
	</g>
	<g>
		<path class="st0" d="M1466.2,860.4c-0.4,0-0.9-0.1-1.2-0.2c-0.7-0.3-1.2-1-1.3-1.9l0,0c-0.3-2.3-0.7-4.9-1.1-7.5
			c-0.6-3.7-1.3-7.6-1.5-11.3c-0.2-3.8-0.1-7.7,0.1-11.4c0.1-2.4,0.2-4.6,0.2-6.8c0-0.9-0.2-1.8-0.7-1.8c-0.3,0-0.7,0.3-1,0.6
			l-0.9,0.9c-3.6,3.4-6.7,6.2-9.4,10.5c-0.2,0.3-0.4,0.5-0.6,0.8c-1.1,1.6-2.4,3.4-1.3,6.1c0.4,0.9,1.3,3.1,1.6,3.9
			c1.3,2.7,1.9,4.3,2.8,6.9c0.9,2.4,1.4,3.9-0.8,6.1c-1.9,1.9-3.3,1.1-4,0.5c-0.4-0.4-0.7-0.9-0.9-1.4l-8.4-18.6
			c-0.4-0.8-0.8-1.8-0.8-2.8c-0.1-1.6,0.7-3,1.4-4.3l0.1-0.1c8.4-14.8,10.1-31.4,11.3-50c0.1-0.9,0.1-1.9-0.2-2.8
			c-0.5-1.3-1.6-2.9-2.7-3.6c-2.1-1.5-3.9-2.9-6-4.7c-0.3-0.2-0.6-0.5-0.9-0.7c-1.6-1.3-3.1-2.5-3.4-3.8c-0.3-1.5,1.8-4.8,3.5-6.1
			c1.3-1,2.6,0.1,4.4,1.8c0.7,0.6,1.5,1.4,2.5,2.1c6.1,4.9,14.4,5.9,20.2,6.3l0.9,0.1c2.4,0.1,5.4,0.3,7.6,1.1
			c5.6,1.9,7.8,6.3,10.4,11.3c0.3,0.6,0.7,1.3,1,1.9c0.8,1.6,1,2.2,0.9,2.5c-0.1,0.8-0.9,1.9-2.3,3.4l-0.3,0.3
			c-0.6,0.6-1,1.1-1.9,1.5c-1.6,0.7-2.9-1.5-4.1-3.5l-0.3-0.5c-0.2-0.3-0.4-0.7-0.6-1c-0.9-1.7-1.7-3-2.7-2.8
			c-2.1,0.5-2.5,11.6-2.8,18.3c-0.1,1.9-0.1,3.6-0.2,5.1c-0.3,5.5-0.7,10.7-1.1,15.8c-0.4,5.2-0.8,10.6-1.1,16.3
			c-0.2,3.1-0.1,6.8,0.1,11.7c0.4,9.6-1,10.5-1.4,10.8C1468.3,860,1467.2,860.4,1466.2,860.4z M1465,858.1c0.1,0.6,0.3,0.8,0.5,0.9
			c0.7,0.3,2,0,3.1-0.7c0.5-0.3,1.1-2.7,0.9-9.7c-0.2-5-0.3-8.7-0.1-11.8c0.3-5.7,0.7-11.1,1.1-16.3c0.4-5,0.7-10.2,1.1-15.8
			c0.1-1.5,0.2-3.2,0.2-5.1c0.4-11,1-18.8,3.8-19.5c2-0.5,3.2,1.7,4.1,3.4c0.2,0.3,0.4,0.7,0.5,1l0.3,0.5c0.5,0.9,1.9,3.2,2.4,3
			c0.6-0.3,1-0.6,1.5-1.2l0.3-0.3c1.3-1.3,1.9-2.3,2-2.7c0,0-0.1-0.4-0.8-1.7c-0.4-0.7-0.7-1.3-1-2c-2.5-4.8-4.6-8.9-9.7-10.7
			c-2-0.7-4.9-0.9-7.2-1l-0.9-0.1c-5.9-0.4-14.5-1.5-20.9-6.6c-1-0.8-1.8-1.5-2.6-2.2c-1.6-1.5-2.3-2-2.7-1.7
			c-1.6,1.3-3.1,4.1-3,4.9c0.1,0.8,1.7,2,2.9,3c0.3,0.2,0.6,0.5,0.9,0.7c2.1,1.7,3.9,3.2,5.9,4.6c1.2,0.9,2.5,2.7,3.1,4.2
			c0.4,1.1,0.3,2.3,0.3,3.3c-1.3,18.8-3,35.6-11.5,50.6l-0.1,0.1c-0.7,1.2-1.3,2.4-1.3,3.6c0,0.8,0.4,1.6,0.7,2.3l8.4,18.6
			c0.2,0.3,0.3,0.7,0.6,1c0.3,0.2,0.9,0.8,2.2-0.5c1.7-1.6,1.4-2.4,0.5-4.8c-0.9-2.6-1.5-4.1-2.8-6.8c-0.4-0.8-1.3-3.1-1.7-4
			c-1.3-3.3,0.3-5.6,1.5-7.3c0.2-0.3,0.4-0.5,0.5-0.8c2.9-4.4,6-7.3,9.6-10.7l0.9-0.9c0.4-0.4,1.1-1,2-0.9c1.2,0.1,1.9,1.3,1.9,3.1
			c0,2.2-0.1,4.4-0.2,6.8c-0.2,3.7-0.3,7.5-0.1,11.3c0.2,3.6,0.9,7.5,1.5,11.1C1464.3,853.2,1464.7,855.7,1465,858.1L1465,858.1z"/>
	</g>
	<g>
		<path class="st0" d="M1463.6,767.5c-0.8-1.4-0.8-3.2-0.2-5c0.4-1.1,0.9-2.1,1.5-3.1c0.2-0.4,0.4-0.8,0.6-1.2
			c0.5-0.9,0.7-1.6,0.9-2.3c0.6-2.2-0.1-4.7-1.7-6.4c-1.6-1.6-4.1-2.4-6.3-1.9c-0.6,0.1-1,0.3-1.3,0.6c-0.2,0.2-0.4,0.4-0.7,0.7
			c-0.7,0.8-1.2,1.8-1.6,3c-0.6,1.8-0.7,4.4,0.8,6.1c0.5,0.5,1,0.9,1.6,1.3c0.9,0.6,1.8,1.2,2.4,2.2c1,1.6,0.2,4-1.1,5.3l-0.9-0.9
			c0.9-1,1.5-2.8,0.9-3.8c-0.4-0.7-1.2-1.3-2-1.8c-0.6-0.4-1.3-0.9-1.8-1.5c-1.9-2.1-1.8-5.1-1.1-7.3c0.4-1.3,1-2.4,1.8-3.4
			c0.3-0.4,0.6-0.7,0.9-0.9c0.5-0.3,1.1-0.6,1.8-0.8c2.7-0.6,5.6,0.3,7.5,2.2c1.9,1.9,2.7,4.9,2.1,7.6c-0.2,0.8-0.5,1.6-1,2.6
			c-0.2,0.4-0.4,0.8-0.6,1.2c-0.5,1-1,1.9-1.4,2.9c-0.3,0.9-0.7,2.6,0.1,4L1463.6,767.5z"/>
	</g>
	<g>
		<path class="st0" d="M1447.3,864.4c-1.1,0-2.1-0.4-2.4-1.5c-0.4-1.1,0.3-2.1,0.5-2.5c0.8-1.2,2.1-2.7,4-3.3l0,0
			c1.4-0.4,3.3-0.3,4.2,0.7c0.4,0.4,0.9,1.2,0.4,2.5c-0.7,1.9-3.6,3.3-5.3,3.8C1448.3,864.4,1447.8,864.4,1447.3,864.4z
			 M1449.8,858.4c-1.6,0.5-2.7,1.8-3.3,2.8c-0.4,0.6-0.5,1.1-0.4,1.4c0.2,0.7,1.5,0.7,2.3,0.4c1.5-0.5,4-1.7,4.5-3.1
			c0.3-0.8,0-1.1-0.1-1.2C1452.3,858.2,1450.9,858.1,1449.8,858.4L1449.8,858.4z"/>
	</g>
	<g>
		<path class="st0" d="M1464,868.6c-1.1,0-2.1-0.4-2.4-1.5c-0.4-1.1,0.3-2.1,0.5-2.5c0.8-1.2,2.1-2.7,4-3.3l0,0
			c1.4-0.4,3.3-0.3,4.2,0.7c0.4,0.4,0.9,1.2,0.4,2.5c-0.7,1.9-3.6,3.3-5.3,3.8C1465,868.5,1464.5,868.6,1464,868.6z M1466.5,862.5
			c-1.6,0.5-2.7,1.8-3.3,2.8c-0.4,0.6-0.5,1.1-0.4,1.4c0.2,0.7,1.5,0.7,2.3,0.4c1.5-0.5,4-1.7,4.5-3.1c0.3-0.8,0-1.1-0.1-1.2
			C1468.9,862.3,1467.6,862.2,1466.5,862.5L1466.5,862.5z"/>
	</g>
</g>
</svg>
