<?xml version="1.0" encoding="utf-8"?>
<!-- Generator: Adobe Illustrator 23.0.2, SVG Export Plug-In . SVG Version: 6.00 Build 0)  -->
<svg version="1.1" id="Capa_1" xmlns="http://www.w3.org/2000/svg" xmlns:xlink="http://www.w3.org/1999/xlink" x="0px" y="0px"
	 viewBox="0 0 15.7 29" style="enable-background:new 0 0 15.7 29;" xml:space="preserve">
<style type="text/css">
	.st0{fill:#33CCCC;}
	.st1{fill:#FFFFFF;}
</style>
<title>phone_Mesa de trabajo 1</title>
<path class="st0" d="M7.9,0c1.9,0,6.7,0,7.3,0.8s0.6,12.3,0.5,14s0.5,12.5-0.5,13.3c-0.9,0.8-5.5,1-7.5,1s-6.2,0-7-0.8
	S0.1,17.3,0.1,14.9s-0.5-13.1,0.6-14S6.5,0,7.9,0z"/>
<path class="st1" d="M7.8,1.9c1.5,0,5.6,0,6,0.6s0.5,9.4,0.4,10.7s0.4,9.5-0.4,10.1S9.3,24,7.7,24S2.6,24,2,23.4S1.4,15,1.4,13.3
	S1,3.3,1.9,2.5S6.7,1.9,7.8,1.9z"/>
<path class="st1" d="M7.3,27.6c-0.2-0.1-0.4-0.2-0.5-0.5c-0.1-0.3,0.1-0.6,0.3-0.8c0.2-0.1,0.4-0.1,0.6-0.1c0.2,0,0.5,0.1,0.6,0.2
	c0.1,0.1,0.2,0.3,0.2,0.4c0,0.1,0,0.2,0,0.3c0,0.1-0.1,0.2-0.1,0.3C8.3,27.8,7.6,27.7,7.3,27.6z"/>
</svg>
